<svg width="25" height="24" viewBox="0 0 25 24" fill="none" xmlns="http://www.w3.org/2000/svg">
<path fill-rule="evenodd" clip-rule="evenodd" d="M11.8597 20.3287L6.45867 23.788C5.89707 24.1476 5.16289 23.9632 4.81886 23.3761C4.65082 23.0893 4.60073 22.7437 4.67992 22.4178L5.516 18.9772C5.8178 17.7352 6.63071 16.6971 7.73563 16.1424L13.6279 13.1847C13.9025 13.0468 14.0183 12.7022 13.8864 12.415C13.7796 12.1824 13.5381 12.0523 13.2949 12.0963L6.73613 13.2835C5.40288 13.5248 4.03564 13.1399 2.99856 12.2312L0.926583 10.4158C0.421795 9.97356 0.355514 9.18719 0.778542 8.65945C0.984286 8.40275 1.28015 8.2434 1.5995 8.21728L7.93001 7.6993C8.37725 7.66271 8.767 7.3668 8.9387 6.9335L11.3809 0.769937C11.633 0.133785 12.3306 -0.168281 12.939 0.0952502C13.2312 0.221787 13.4633 0.464478 13.5843 0.769937L16.0265 6.9335C16.1982 7.3668 16.588 7.66271 17.0352 7.6993L23.4006 8.22012C24.0572 8.27384 24.5477 8.87389 24.4963 9.56038C24.4716 9.8906 24.3222 10.197 24.0811 10.4119L19.2267 14.7388C18.8847 15.0434 18.7358 15.5229 18.8408 15.9794L20.3332 22.4614C20.4874 23.1309 20.0932 23.8042 19.453 23.9653C19.1453 24.0429 18.8208 23.9891 18.5509 23.8163L13.1056 20.3287C12.7233 20.0839 12.2419 20.0839 11.8597 20.3287Z" fill="#090707"/>
</svg>
