<svg width="18" height="18" viewBox="0 0 18 18" fill="none" xmlns="http://www.w3.org/2000/svg">
<path d="M9 0C4.03552 0 0 4.03552 0 9C0 13.9645 4.03552 18 9 18C13.9645 18 18 13.9645 18 9C18 4.03552 13.9645 0 9 0ZM11.4872 9.73918H9.73918V11.4872C9.73918 11.8968 9.39956 12.2364 8.99001 12.2364C8.58047 12.2364 8.24084 11.8968 8.24084 11.4872V9.73918H6.49279C6.08324 9.73918 5.74362 9.39956 5.74362 8.99001C5.74362 8.58047 6.08324 8.24084 6.49279 8.24084H8.24084V6.49279C8.24084 6.08324 8.58047 5.74362 8.99001 5.74362C9.39956 5.74362 9.73918 6.08324 9.73918 6.49279V8.24084H11.4872C11.8968 8.24084 12.2364 8.58047 12.2364 8.99001C12.2364 9.39956 11.8968 9.73918 11.4872 9.73918Z" fill="#F91536"/>
</svg>
