<svg width="16" height="16" viewBox="0 0 16 16" fill="none" xmlns="http://www.w3.org/2000/svg">
<path d="M14.6785 0.226756C14.9808 -0.0755829 15.4709 -0.0755737 15.7732 0.226756C16.0756 0.5291 16.0756 1.01918 15.7732 1.32152L9.09477 8L15.7732 14.6785C16.0756 14.9808 16.0756 15.4709 15.7732 15.7732C15.4709 16.0756 14.9808 16.0756 14.6785 15.7732L8 9.09476L1.32152 15.7732C1.01918 16.0756 0.529096 16.0756 0.226757 15.7732C-0.0755681 15.4709 -0.0755681 14.9808 0.226757 14.6785L6.90523 8L0.226757 1.32152C-0.0755851 1.01918 -0.0755862 0.529099 0.226757 0.226756C0.5291 -0.0755854 1.01918 -0.0755854 1.32152 0.226756L8 6.90523L14.6785 0.226756Z" fill="#FAFAFA"/>
</svg>
