<svg width="11" height="11" viewBox="0 0 11 11" fill="none" xmlns="http://www.w3.org/2000/svg">
<path fill-rule="evenodd" clip-rule="evenodd" d="M5.0789 8.97028L2.82848 10.4117C2.59448 10.5615 2.28857 10.4847 2.14523 10.24C2.07521 10.1205 2.05434 9.97654 2.08734 9.84074L2.4357 8.40718C2.56146 7.88967 2.90017 7.45711 3.36055 7.226L5.81564 5.99363C5.9301 5.93618 5.97834 5.7926 5.92339 5.67293C5.87888 5.57602 5.77824 5.52179 5.67692 5.54013L2.94409 6.03477C2.38857 6.13533 1.81889 5.97494 1.38677 5.59635L0.523446 4.83993C0.313118 4.65565 0.285501 4.328 0.461762 4.1081C0.547489 4.00115 0.670766 3.93475 0.803828 3.92386L3.44154 3.70804C3.62789 3.6928 3.79029 3.5695 3.86183 3.38896L4.87941 0.820807C4.98444 0.555744 5.2751 0.429883 5.52863 0.539688C5.65036 0.592411 5.74708 0.693532 5.79751 0.820807L6.81509 3.38896C6.88662 3.5695 7.04902 3.6928 7.23537 3.70804L9.88761 3.92505C10.1612 3.94743 10.3656 4.19745 10.3442 4.48349C10.3339 4.62108 10.2716 4.74874 10.1712 4.83828L8.14847 6.64117C8.00601 6.76809 7.94394 6.96788 7.98769 7.15808L8.60955 9.85891C8.67378 10.1379 8.50955 10.4184 8.2428 10.4856C8.11457 10.5179 7.97936 10.4955 7.86693 10.4234L5.59802 8.97028C5.43873 8.86828 5.23818 8.86828 5.0789 8.97028Z" fill="#828181"/>
</svg>
