<svg width="84" height="110" viewBox="0 0 84 110" fill="none" xmlns="http://www.w3.org/2000/svg">
<path d="M61.8388 47.0982C61.8388 47.0982 20.037 55.5425 29.5483 42.5164C39.5845 28.7711 35.9796 35.7378 28.2899 35.5013" stroke="url(#paint0_linear_59_33258)" stroke-width="3.27268" stroke-linecap="round" stroke-linejoin="round"/>
<path d="M34.5936 72.7227C36.3323 86.4116 20.248 96.9248 28.7537 104.545C38.9577 113.687 58.9869 105.116 51.3875 73.6532" fill="url(#paint1_radial_59_33258)"/>
<g opacity="0.2">
<path d="M28.7541 104.546C35.9948 107.507 44.461 101.64 44.4619 91.7388C44.4625 82.3089 34.8685 80.3673 31.7165 85.8807C33.6443 81.8728 35.1997 77.4896 34.5945 72.7224L51.3873 73.654C58.9867 105.115 38.9572 113.688 28.7541 104.546Z" fill="url(#paint2_linear_59_33258)"/>
</g>
<g opacity="0.4">
<path d="M41.8799 96.9474C41.8799 98.0152 40.9738 98.8807 39.8561 98.8807C38.7384 98.8807 37.8323 98.0152 37.8323 96.9474C37.8323 95.8797 38.7384 95.0142 39.8561 95.0142C40.9738 95.0142 41.8799 95.8797 41.8799 96.9474Z" fill="#1F85FF"/>
</g>
<g opacity="0.4">
<path d="M34.8733 100.678C34.8733 101.241 34.3951 101.698 33.8054 101.698C33.2156 101.698 32.7374 101.241 32.7374 100.678C32.7374 100.115 33.2156 99.658 33.8054 99.658C34.3951 99.658 34.8733 100.115 34.8733 100.678Z" fill="#1F85FF"/>
</g>
<g opacity="0.4">
<path d="M33.864 93.6969C33.864 93.9941 33.6118 94.2352 33.3007 94.2352C32.9896 94.2352 32.7374 93.9941 32.7374 93.6969C32.7374 93.3998 32.9896 93.1587 33.3007 93.1587C33.6118 93.1587 33.864 93.3998 33.864 93.6969Z" fill="#1F85FF"/>
</g>
<path d="M34.5936 72.7227C36.3323 86.4116 20.248 96.9248 28.7537 104.545C38.9577 113.687 58.9869 105.116 51.3875 73.6532" stroke="url(#paint3_linear_59_33258)" stroke-width="3.92722" stroke-linecap="round" stroke-linejoin="round"/>
<path d="M36.8348 47.9438C39.5357 65.9761 28.8054 72.4955 31.3686 76.8671C32.3517 78.5438 31.9483 77.6977 31.4078 76.7436C32.9846 80.1523 37.5334 77.8081 37.5334 77.8081C37.5334 77.8081 39.6194 80.7045 42.6757 80.663C46.5158 80.6109 47.9822 77.499 47.9822 77.499C47.9822 77.499 52.6043 81.2076 55.4108 78.327C59.6511 73.9747 49.0085 69.5416 52.1438 46.3204" fill="url(#paint4_radial_59_33258)"/>
<g opacity="0.3">
<path d="M55.411 78.3274C52.6037 81.2073 47.9813 77.4983 47.9813 77.4983C47.4677 66.2907 39.6196 62.8718 32.9012 70.1151C35.1816 65.5596 38.4696 58.8637 36.8341 47.9438L52.144 46.3206C49.0079 69.5413 59.6515 73.9747 55.411 78.3274Z" fill="url(#paint5_linear_59_33258)"/>
</g>
<path d="M36.8348 47.9438C39.5357 65.9761 28.8054 72.4955 31.3686 76.8671C32.3517 78.5438 31.9483 77.6977 31.4078 76.7436C32.9846 80.1523 37.5334 77.8081 37.5334 77.8081C37.5334 77.8081 39.6194 80.7045 42.6757 80.663C46.5158 80.6109 47.9822 77.499 47.9822 77.499C47.9822 77.499 52.6043 81.2076 55.4108 78.327C59.6511 73.9747 49.0085 69.5416 52.1438 46.3204" stroke="url(#paint6_linear_59_33258)" stroke-width="3.92722" stroke-linecap="round" stroke-linejoin="round"/>
<g opacity="0.4">
<path d="M44.8817 73.6536C44.8817 74.2169 44.4405 74.6738 43.8962 74.6738C43.3518 74.6738 42.9106 74.2169 42.9106 73.6536C42.9106 73.0902 43.3518 72.6334 43.8962 72.6334C44.4405 72.6334 44.8817 73.0902 44.8817 73.6536Z" fill="#1F85FF"/>
</g>
<path d="M29.8327 43.0804C29.9406 44.9088 33.308 45.9708 35.8545 45.8082C38.0777 45.6663 41.0857 44.2089 40.9168 42.2843C40.7569 40.4615 38.948 39.2779 35.0802 39.5937C31.5424 39.8826 29.7291 41.3234 29.8327 43.0804Z" fill="url(#paint7_radial_59_33258)"/>
<path d="M29.8327 43.0804C29.9406 44.9088 33.308 45.9708 35.8545 45.8082C38.0777 45.6663 41.0857 44.2089 40.9168 42.2843C40.7569 40.4615 38.948 39.2779 35.0802 39.5937C31.5424 39.8826 29.7291 41.3234 29.8327 43.0804Z" stroke="url(#paint8_linear_59_33258)" stroke-width="0.921798" stroke-linecap="round" stroke-linejoin="round"/>
<path d="M30.4143 43.0175C30.4143 43.0175 31.838 42.6068 35.0604 42.3504C38.6965 42.0662 40.2591 42.3957 40.2591 42.3957C39.0993 42.5802 34.3374 43.6456 30.4143 43.0175Z" fill="white"/>
<path d="M38.1499 42.5309C38.1568 42.6514 37.018 42.9909 35.3966 43.083C33.7752 43.1752 32.6065 42.9885 32.5996 42.868C32.5928 42.7475 33.7428 42.4569 35.3642 42.3647C36.9855 42.2725 38.1431 42.4104 38.1499 42.5309Z" fill="url(#paint9_linear_59_33258)"/>
<g opacity="0.5">
<path d="M37.2306 42.5982C37.0376 42.7211 36.4692 42.8955 35.3979 42.9564" stroke="#A9FFCB" stroke-width="0.386643" stroke-linecap="round" stroke-linejoin="round"/>
</g>
<path d="M36.8063 42.6464C36.8141 42.7833 36.1896 43.0301 35.4046 43.0747C34.6195 43.1193 33.9712 42.945 33.9634 42.808C33.9556 42.6711 34.5801 42.4259 35.3651 42.3813C36.1502 42.3367 36.7985 42.5095 36.8063 42.6464Z" fill="url(#paint10_linear_59_33258)"/>
<path d="M38.1499 42.5309C38.1568 42.6514 37.0177 42.9862 35.3963 43.0783C33.7749 43.1705 32.6065 42.9885 32.5996 42.868C32.5928 42.7475 33.7428 42.4569 35.3642 42.3647C36.9855 42.2725 38.1431 42.4104 38.1499 42.5309Z" stroke="#00A2FF" stroke-width="0.331438" stroke-linecap="round" stroke-linejoin="round"/>
<path d="M37.0273 42.5291C36.9518 42.5341 36.2439 42.5746 36.1442 42.5798C36.0445 42.585 36.0249 42.5852 36.1004 42.5802C36.1759 42.5752 36.8828 42.5348 36.9825 42.5296C37.0822 42.5244 37.1028 42.5242 37.0273 42.5291Z" fill="white"/>
<path d="M30.4143 43.0173C30.4143 43.0173 31.4207 42.6058 35.0604 42.3502C38.7761 42.0893 40.259 42.3955 40.259 42.3955C40.259 42.3955 35.9126 43.6162 30.4143 43.0173Z" stroke="url(#paint11_linear_59_33258)" stroke-width="0.921798" stroke-linecap="round" stroke-linejoin="round"/>
<path d="M27.9278 60.8452C27.9278 60.8452 27.1749 66.1081 26.3441 66.1081C25.5163 66.1081 24.457 62.2368 23.3525 60.8452H27.9278Z" fill="url(#paint12_linear_59_33258)"/>
<path d="M23.3525 60.8451C22.0422 60.8451 21.6753 63.8874 20.1481 65.8545C18.6177 67.8216 18.6177 75.467 17.5975 77.4341C16.5804 79.3981 17.2341 90.4402 15.1967 90.7975C13.1563 91.1519 13.3762 79.3248 13.0097 78.1611C12.6462 76.9943 11.2396 72.5784 11.1892 69.7856C11.1373 66.9135 10.2108 63.4766 9.66195 63.3803C8.64663 63.2023 7.98808 66.2913 7.33136 66.2913C6.67465 66.2913 4.56887 57.2359 4.79491 54.1753C6.60317 55.6201 11.2671 57.027 13.6016 57.9L23.3525 60.8451Z" fill="url(#paint13_linear_59_33258)"/>
<g opacity="0.6">
<path d="M17.6891 70.6165C17.7688 71.7876 16.8186 83.7444 16.6781 85.9864C14.3567 88.6469 15.7791 78.4143 14.5491 74.9966C14.0735 73.6753 13.9412 71.0624 14.2742 69.1748C14.6071 67.2901 14.4972 66.5968 13.9962 65.6407C13.4983 64.6846 14.4168 63.709 14.9266 63.366C15.7095 62.8391 17.5752 62.1622 18.1723 62.826C19.3361 64.1196 17.3821 66.108 17.6891 70.6165Z" fill="white"/>
</g>
<path d="M27.9278 60.8452C27.9278 60.8452 27.1749 66.1081 26.3441 66.1081C25.5163 66.1081 24.457 62.2368 23.3525 60.8452H27.9278Z" stroke="#02A6E3" stroke-width="1.52725" stroke-linecap="round" stroke-linejoin="round"/>
<path d="M26.3441 66.1081C25.5163 66.1081 24.457 62.2368 23.3525 60.8452" stroke="#0183C4" stroke-width="1.52725" stroke-linecap="round" stroke-linejoin="round"/>
<path d="M23.3525 60.8451C22.0422 60.8451 21.6753 63.8874 20.1481 65.8545C18.6177 67.8216 18.6177 75.467 17.5975 77.4341C16.5804 79.3981 17.2341 90.4402 15.1967 90.7975C13.1563 91.1519 13.3762 79.3248 13.0097 78.1611C12.6462 76.9943 11.2396 72.5784 11.1892 69.7856C11.1373 66.9135 10.2108 63.4766 9.66195 63.3803C8.64663 63.2023 7.98808 66.2913 7.33136 66.2913C6.67465 66.2913 4.56887 57.2359 4.79491 54.1753C6.60317 55.6201 11.2671 57.027 13.6016 57.9L23.3525 60.8451Z" stroke="#00A4E1" stroke-width="1.52725" stroke-linecap="round" stroke-linejoin="round"/>
<path d="M15.1967 90.7975C13.1563 91.1519 13.3762 79.3248 13.0097 78.1611C12.6462 76.9943 11.2396 72.5784 11.1892 69.7856C11.1373 66.9135 10.2108 63.4766 9.66195 63.3803C8.64663 63.2023 7.98808 66.2913 7.33136 66.2913C6.67465 66.2913 4.56887 57.2359 4.79491 54.1753" stroke="#0082C3" stroke-width="1.52725" stroke-linecap="round" stroke-linejoin="round"/>
<path d="M23.3525 60.8452H27.9278" stroke="#02A6E3" stroke-width="1.52725" stroke-linecap="round" stroke-linejoin="round"/>
<path d="M17.8404 64.8842C17.8404 65.635 17.3404 66.2434 16.7234 66.2434C16.1063 66.2434 15.606 65.635 15.606 64.8842C15.606 64.1334 16.1063 63.5249 16.7234 63.5249C17.3404 63.5249 17.8404 64.1334 17.8404 64.8842Z" fill="white"/>
<path d="M17.27 72.1352C17.27 72.7079 16.8885 73.1719 16.4178 73.1719C15.9471 73.1719 15.5653 72.7079 15.5653 72.1352C15.5653 71.5625 15.9471 71.0982 16.4178 71.0982C16.8885 71.0982 17.27 71.5625 17.27 72.1352Z" fill="white"/>
<path d="M80.8554 47.2429C80.5163 53.5138 77.8858 58.1771 76.7556 59.3072C75.6255 60.4343 75.3842 62.6153 75.2223 64.3899C75.0604 66.1646 75.3383 70.6822 74.2907 70.8441C73.2399 71.006 73.1422 70.279 72.4488 68.1011C71.7554 65.9233 72.0517 62.9451 71.1262 62.3098C70.6375 61.9738 69.7822 62.7741 69.4981 63.6629C68.9942 65.2207 69.3515 69.5429 68.8475 71.8124C68.3955 73.868 68.3008 78.1871 68.0595 79.7205C67.8182 81.2538 68.1847 88.8381 66.8957 88.6763C65.6037 88.5144 65.2341 81.0095 64.8309 79.638C64.4277 78.2665 64.0672 71.064 63.6396 69.8758C63.2944 68.9259 63.7007 64.955 63.0562 64.955C62.4117 64.955 62.2804 66.5342 59.6413 66.6075C58.0529 66.6502 55.3191 64.0325 55.2947 65.2146C55.2458 67.3222 54.47 68.9075 54.2287 69.8758C53.9843 70.8441 53.6178 77.6037 52.1638 77.0447C50.713 76.4827 50.8718 70.5203 50.5511 69.9552C50.2273 69.3932 49.5828 67.9392 49.5003 65.8408C49.4209 63.7424 46.4183 61.4026 44.7231 60.694C42.6246 59.8204 41.1279 57.8105 41.1279 57.8105L68.9233 52.8934C73.4134 51.3823 79.5084 51.5344 80.8554 47.2429Z" fill="url(#paint14_linear_59_33258)"/>
<g opacity="0.6">
<path d="M75.5796 61.8058V61.8088C75.3903 62.658 75.1642 65.7675 75.1459 66.641C75.1459 66.641 74.5136 66.6227 74.1685 66.2898C72.8336 65.0008 73.9058 62.7832 73.1513 62.0715C72.3969 61.3598 72.8892 60.0836 73.7744 59.6554C74.7846 59.1667 75.5491 60.2938 75.5796 61.8058Z" fill="white"/>
</g>
<g opacity="0.6">
<path d="M69.0604 66.9438C68.9993 68.7673 67.6746 80.9942 67.5097 81.0583C66.129 81.599 66.3673 74.7477 65.5792 72.243C64.7881 69.7383 66.2482 69.5764 65.5792 67.7132C64.9072 65.8499 65.8786 64.8145 67.751 65.1871C68.3222 65.3032 68.916 66.0558 69.0604 66.9438Z" fill="white"/>
</g>
<g opacity="0.6">
<path d="M54.6789 65.1059C54.63 67.2135 53.2921 72.7605 52.8951 74.6481C51.5114 74.5076 52.9531 70.9736 52.2261 69.0951C51.4992 67.2196 52.0566 64.9159 51.9002 63.8584C51.6574 62.2169 51.0752 61.8693 51.2682 61.2004C51.4216 60.6692 51.5996 60.3497 52.5679 60.0259C53.5331 59.7052 54.4379 59.1325 55.1282 60.7117C55.6933 62.0037 54.8958 64.3361 54.6789 65.1059Z" fill="white"/>
</g>
<path d="M80.8554 47.2429C80.5163 53.5138 77.8858 58.1771 76.7556 59.3072C75.6255 60.4343 75.3842 62.6153 75.2223 64.3899C75.0604 66.1646 75.3383 70.6822 74.2907 70.8441C73.2399 71.006 73.1422 70.279 72.4488 68.1011C71.7554 65.9233 72.0517 62.9451 71.1262 62.3098C70.6375 61.9738 69.7822 62.7741 69.4981 63.6629C68.9941 65.2207 69.3515 69.5429 68.8475 71.8124C68.3955 73.868 68.3008 78.1871 68.0595 79.7205C67.8182 81.2538 68.1847 88.8381 66.8957 88.6763C65.6037 88.5144 65.2341 81.0095 64.8309 79.638C64.4277 78.2665 64.0672 71.064 63.6396 69.8758C63.2944 68.9259 63.7007 64.955 63.0562 64.955C62.4117 64.955 62.2804 66.5342 59.6413 66.6075C58.0529 66.6502 55.3191 64.0325 55.2947 65.2146C55.2458 67.3222 54.47 68.9075 54.2287 69.8758C53.9843 70.8441 53.6178 77.6037 52.1638 77.0447C50.713 76.4827 50.8718 70.5203 50.5511 69.9552C50.2273 69.3932 49.5828 67.9392 49.5003 65.8408C49.4209 63.7424 46.4183 61.4026 44.7231 60.694C42.6246 59.8204 41.1279 57.8105 41.1279 57.8105L68.9233 52.8934C73.4134 51.3823 79.5084 51.5344 80.8554 47.2429Z" stroke="#01A5E2" stroke-width="1.52725" stroke-linecap="round" stroke-linejoin="round"/>
<path d="M52.1638 77.0447C50.713 76.4827 50.8718 70.5203 50.5511 69.9552C50.2273 69.3932 49.5828 67.9392 49.5003 65.8408C49.4209 63.7423 46.4183 61.4026 44.7231 60.6939C42.6246 59.8203 41.1279 57.8105 41.1279 57.8105" stroke="#0082C3" stroke-width="1.52725" stroke-linecap="round" stroke-linejoin="round"/>
<path d="M66.8957 88.6763C65.6036 88.5144 65.234 81.0095 64.8308 79.638C64.4276 78.2665 64.0672 71.064 63.6396 69.8758C63.2944 68.9259 63.7007 64.955 63.0562 64.955" stroke="#0082C3" stroke-width="1.52725" stroke-linecap="round" stroke-linejoin="round"/>
<path d="M74.2907 70.844C73.2399 71.0059 73.1422 70.2789 72.4488 68.1011C71.7554 65.9232 72.0517 62.9451 71.1262 62.3098" stroke="#0082C3" stroke-width="1.52725" stroke-linecap="round" stroke-linejoin="round"/>
<g opacity="0.6">
<path d="M62.259 60.1579C61.0472 58.5698 58.1943 59.6664 58.4778 61.7477C58.6559 63.0557 57.0862 64.2549 59.6932 64.3789C62.3002 64.5029 63.3696 61.6136 62.259 60.1579Z" fill="white"/>
</g>
<g opacity="0.6">
<path d="M68.0992 59.9951C66.6391 58.9376 64.9384 61.0382 65.9818 63.2347C66.6006 64.5377 67.8252 64.2952 67.9034 62.6723C67.9471 61.7636 68.8622 60.5476 68.0992 59.9951Z" fill="white"/>
</g>
<path d="M68.1178 66.931C68.1178 67.5635 67.7476 68.0764 67.2907 68.0764C66.8337 68.0764 66.4632 67.5635 66.4632 66.931C66.4632 66.2984 66.8337 65.7855 67.2907 65.7855C67.7476 65.7855 68.1178 66.2984 68.1178 66.931Z" fill="white"/>
<path d="M54.682 61.8923C54.682 62.4873 54.2965 62.9696 53.821 62.9696C53.3454 62.9696 52.9599 62.4873 52.9599 61.8923C52.9599 61.2972 53.3454 60.8149 53.821 60.8149C54.2965 60.8149 54.682 61.2972 54.682 61.8923Z" fill="white"/>
<path d="M40.1579 3.43753C29.8795 8.23397 36.82 21.3644 14.6766 32.4791C-0.148447 39.9203 0.913865 47.8 4.05826 51.7443C8.09085 56.8027 21.7899 63.4349 45.2303 61.657C65.3874 60.128 78.3071 52.6266 80.7335 44.4202C84.1109 32.9968 71.0843 33.9479 63.0073 17.874C56.5185 4.96064 49.5703 -0.95484 40.1579 3.43753Z" fill="url(#paint15_radial_59_33258)"/>
<g opacity="0.4">
<path d="M78.5665 37.9403C78.5665 37.9403 82.1293 55.8253 41.3969 56.4026C11.3332 56.8287 2.7123 47.0981 5.77465 41.6646C5.80389 41.6644 -9.50571 59.9707 41.1567 61.388C72.5731 62.2668 88.0202 45.68 78.5665 37.9403Z" fill="url(#paint16_radial_59_33258)"/>
</g>
<path d="M28.363 30.6923C9.46838 26.8689 -8.14382 47.8765 11.9349 55.3855C46.1024 68.1632 65.1578 38.138 28.363 30.6923Z" fill="url(#paint17_radial_59_33258)"/>
<path d="M58.6816 17.276C43.3125 16.9296 23.3814 46.742 52.8052 48.4761C69.9216 49.4848 83.2274 39.1811 74.18 33.431C63.0138 26.3343 65.3296 17.4258 58.6816 17.276Z" fill="url(#paint18_radial_59_33258)"/>
<g opacity="0.4">
<mask id="mask0_59_33258" style="mask-type:luminance" maskUnits="userSpaceOnUse" x="1" y="3" width="82" height="52">
<path d="M80.1636 45.9326C83.3051 35.3071 69.0314 35.9038 61.5187 20.9527C55.483 8.94131 49.425 2.12977 41.179 7.08832C33.443 11.7401 37.1605 24.1994 16.5638 34.5376C2.77427 41.4591 1.95392 48.9898 4.8786 52.6584" fill="black"/>
<path d="M80.1636 45.9326C83.3051 35.3071 69.0314 35.9038 61.5187 20.9527C55.483 8.94131 49.425 2.12977 41.179 7.08832C33.443 11.7401 37.1605 24.1994 16.5638 34.5376C2.77427 41.4591 1.95392 48.9898 4.8786 52.6584" stroke="url(#paint19_linear_59_33258)" stroke-width="3.92722" stroke-linecap="round" stroke-linejoin="round"/>
</mask>
<g mask="url(#mask0_59_33258)">
<path d="M80.1636 45.9326C83.3051 35.3071 69.0314 35.9038 61.5187 20.9527C55.483 8.94131 49.425 2.12977 41.179 7.08832C33.443 11.7401 37.1605 24.1994 16.5638 34.5376C2.77427 41.4591 1.95392 48.9898 4.8786 52.6584" stroke="url(#paint20_linear_59_33258)" stroke-width="3.92722" stroke-linecap="round" stroke-linejoin="round"/>
</g>
</g>
<g opacity="0.9">
<path d="M78.4166 34.0631C82.3091 38.5508 82.5365 44.506 78.9245 47.3646C75.3126 50.2232 69.2289 48.9025 65.3364 44.4148C61.4438 39.9271 61.2165 33.9719 64.8284 31.1133C68.4404 28.2547 74.5241 29.5754 78.4166 34.0631Z" fill="url(#paint21_radial_59_33258)"/>
<path d="M29.8016 46.4453C37.4734 47.359 43.2165 51.7442 42.6296 56.24C42.0427 60.7358 35.3477 63.6395 27.6761 62.7258C20.0042 61.812 14.2611 57.4269 14.848 52.9311C15.4349 48.4353 22.1297 45.5315 29.8016 46.4453Z" fill="url(#paint22_radial_59_33258)"/>
<path d="M18.3568 30.7781C20.8968 29.502 23.6727 29.7691 24.557 31.3751C25.4413 32.9811 24.0992 35.3174 21.5592 36.5935C19.0192 37.8696 16.2433 37.6026 15.359 35.9965C14.4747 34.3905 15.8167 32.0543 18.3568 30.7781Z" fill="url(#paint23_radial_59_33258)"/>
<path d="M34.1817 7.01677C36.1608 3.74234 40.0815 2.3652 42.9385 3.94088C45.7956 5.51657 46.5073 9.44815 44.5282 12.7226C42.5491 15.997 38.6284 17.3741 35.7714 15.7985C32.9143 14.2228 32.2026 10.2912 34.1817 7.01677Z" fill="url(#paint24_radial_59_33258)"/>
<path d="M45.8648 27.4147C46.7416 24.8795 49.2457 23.3898 51.458 24.0879C53.6703 24.7861 54.7527 27.4073 53.8759 29.9426C52.999 32.4778 50.495 33.9675 48.2826 33.2693C46.0703 32.5712 44.9879 29.9502 45.8648 27.4147Z" fill="url(#paint25_radial_59_33258)"/>
</g>
<path d="M40.1579 3.43753C29.8795 8.23397 36.82 21.3644 14.6766 32.4791C-0.148447 39.9203 0.913865 47.8 4.05826 51.7443C8.09085 56.8027 21.7899 63.4349 45.2303 61.657C65.3874 60.128 78.3071 52.6266 80.7335 44.4202C84.1109 32.9968 71.0843 33.9479 63.0073 17.874C56.5185 4.96064 49.5703 -0.95484 40.1579 3.43753Z" stroke="url(#paint26_linear_59_33258)" stroke-width="3.92722" stroke-linecap="round" stroke-linejoin="round"/>
<g opacity="0.7">
<mask id="mask1_59_33258" style="mask-type:luminance" maskUnits="userSpaceOnUse" x="6" y="39" width="56" height="15">
<path d="M61.2671 48.4834C62.3157 47.8282 42.3008 51.8431 26.0814 48.9946C1.991 44.7639 13.6799 36.23 7.64968 41.0688C2.59667 45.1232 10.5473 50.5447 24.687 52.6885C34.4634 54.1706 52.8181 53.7633 61.2671 48.4834Z" fill="url(#paint27_radial_59_33258)"/>
</mask>
<g mask="url(#mask1_59_33258)">
<path d="M61.2671 48.4834C62.3157 47.8282 42.3008 51.8431 26.0814 48.9946C1.991 44.7639 13.6799 36.23 7.64968 41.0688C2.59667 45.1232 10.5473 50.5447 24.687 52.6885C34.4634 54.1706 52.8181 53.7633 61.2671 48.4834Z" fill="url(#paint28_radial_59_33258)"/>
</g>
</g>
<defs>
<linearGradient id="paint0_linear_59_33258" x1="41.0758" y1="21.2189" x2="43.08" y2="74.965" gradientUnits="userSpaceOnUse">
<stop offset="0.28" stop-color="#80DCFF"/>
<stop offset="0.56" stop-color="#4099E7"/>
<stop offset="1" stop-color="#0056CE"/>
</linearGradient>
<radialGradient id="paint1_radial_59_33258" cx="0" cy="0" r="1" gradientUnits="userSpaceOnUse" gradientTransform="translate(32.8209 99.6791) scale(27.2054 27.2054)">
<stop stop-color="#E8F5FE"/>
<stop offset="0.25" stop-color="#93C3F9"/>
<stop offset="0.5" stop-color="#3F90F5"/>
<stop offset="0.75" stop-color="#42B5FA"/>
<stop offset="1" stop-color="#45D9FF"/>
</radialGradient>
<linearGradient id="paint2_linear_59_33258" x1="36.3299" y1="98.652" x2="49.2025" y2="83.1613" gradientUnits="userSpaceOnUse">
<stop stop-color="#2D8FFF"/>
<stop offset="0.48" stop-color="#175ED7"/>
<stop offset="1" stop-color="#012CAF"/>
</linearGradient>
<linearGradient id="paint3_linear_59_33258" x1="31.6" y1="104.425" x2="46.7381" y2="78.6375" gradientUnits="userSpaceOnUse">
<stop stop-color="#A3E6FD"/>
<stop offset="0.25" stop-color="#5EBCFE"/>
<stop offset="0.5" stop-color="#1892FF"/>
<stop offset="0.75" stop-color="#127AEB"/>
<stop offset="1" stop-color="#0C61D7"/>
</linearGradient>
<radialGradient id="paint4_radial_59_33258" cx="0" cy="0" r="1" gradientUnits="userSpaceOnUse" gradientTransform="translate(37.2917 76.628) scale(17.7478 17.7478)">
<stop stop-color="#E8F5FE"/>
<stop offset="0.25" stop-color="#93C3F9"/>
<stop offset="0.5" stop-color="#3F90F5"/>
<stop offset="0.75" stop-color="#42B5FA"/>
<stop offset="1" stop-color="#45D9FF"/>
</radialGradient>
<linearGradient id="paint5_linear_59_33258" x1="42.9172" y1="72.0353" x2="47.9353" y2="64.8354" gradientUnits="userSpaceOnUse">
<stop stop-color="#007EFF" stop-opacity="0.5"/>
<stop offset="0.48" stop-color="#0155D7" stop-opacity="0.75"/>
<stop offset="1" stop-color="#012CAF"/>
</linearGradient>
<linearGradient id="paint6_linear_59_33258" x1="38.6889" y1="79.3011" x2="42.6999" y2="62.4591" gradientUnits="userSpaceOnUse">
<stop stop-color="#A3E6FD"/>
<stop offset="0.25" stop-color="#5EBCFE"/>
<stop offset="0.5" stop-color="#1892FF"/>
<stop offset="0.75" stop-color="#127AEB"/>
<stop offset="1" stop-color="#0C61D7"/>
</linearGradient>
<radialGradient id="paint7_radial_59_33258" cx="0" cy="0" r="1" gradientUnits="userSpaceOnUse" gradientTransform="translate(35.7037 41.0359) rotate(-3.254) scale(7.67573)">
<stop stop-color="#E3F5FF"/>
<stop offset="0.31" stop-color="#72C8FF"/>
<stop offset="0.63" stop-color="#009CFF"/>
</radialGradient>
<linearGradient id="paint8_linear_59_33258" x1="29.6833" y1="43.2711" x2="40.5569" y2="42.4477" gradientUnits="userSpaceOnUse">
<stop offset="0.28" stop-color="#80DCFF"/>
<stop offset="0.56" stop-color="#4099E7"/>
<stop offset="1" stop-color="#0056CE"/>
</linearGradient>
<linearGradient id="paint9_linear_59_33258" x1="35.1718" y1="38.783" x2="35.4185" y2="43.1223" gradientUnits="userSpaceOnUse">
<stop stop-color="#436FFF"/>
<stop offset="0.5" stop-color="#51B7FC"/>
<stop offset="1" stop-color="#5FFFF9"/>
</linearGradient>
<linearGradient id="paint10_linear_59_33258" x1="34.4495" y1="43.2278" x2="36.3454" y2="41.1033" gradientUnits="userSpaceOnUse">
<stop stop-color="#005579"/>
<stop offset="0.5" stop-color="#003153"/>
<stop offset="1" stop-color="#000D2E"/>
</linearGradient>
<linearGradient id="paint11_linear_59_33258" x1="30.3667" y1="42.9766" x2="39.9498" y2="42.6543" gradientUnits="userSpaceOnUse">
<stop offset="0.28" stop-color="#80DCFF"/>
<stop offset="0.56" stop-color="#4099E7"/>
<stop offset="1" stop-color="#0056CE"/>
</linearGradient>
<linearGradient id="paint12_linear_59_33258" x1="25.1577" y1="71.4418" x2="25.5725" y2="49.0346" gradientUnits="userSpaceOnUse">
<stop stop-color="#80E0F7" stop-opacity="0.6"/>
<stop offset="0.28" stop-color="#A2EAF9" stop-opacity="0.75"/>
<stop offset="0.66" stop-color="#C4F3FB" stop-opacity="0.9"/>
<stop offset="0.83" stop-color="#8DDBF3" stop-opacity="0.9"/>
<stop offset="0.9" stop-color="#55C3EA" stop-opacity="0.9"/>
</linearGradient>
<linearGradient id="paint13_linear_59_33258" x1="14.7724" y1="88.2415" x2="14.3173" y2="57.7546" gradientUnits="userSpaceOnUse">
<stop stop-color="#80E0F7" stop-opacity="0.6"/>
<stop offset="0.28" stop-color="#A2EAF9" stop-opacity="0.75"/>
<stop offset="0.66" stop-color="#C4F3FB" stop-opacity="0.9"/>
<stop offset="0.83" stop-color="#8DDBF3" stop-opacity="0.9"/>
<stop offset="0.9" stop-color="#55C3EA" stop-opacity="0.9"/>
</linearGradient>
<linearGradient id="paint14_linear_59_33258" x1="60.5326" y1="56.8001" x2="62.1441" y2="87.1273" gradientUnits="userSpaceOnUse">
<stop offset="0.04" stop-color="#55C3EA" stop-opacity="0.9"/>
<stop offset="0.09" stop-color="#8DDBF3" stop-opacity="0.9"/>
<stop offset="0.19" stop-color="#C4F3FB" stop-opacity="0.9"/>
<stop offset="0.66" stop-color="#A2EAF9" stop-opacity="0.75"/>
<stop offset="1" stop-color="#80E0F7" stop-opacity="0.6"/>
</linearGradient>
<radialGradient id="paint15_radial_59_33258" cx="0" cy="0" r="1" gradientUnits="userSpaceOnUse" gradientTransform="translate(35.2467 11.7054) scale(50.2425)">
<stop offset="0.07" stop-color="#E8F5FE"/>
<stop offset="0.28" stop-color="#93C3F9"/>
<stop offset="0.5" stop-color="#3F90F5"/>
<stop offset="0.75" stop-color="#42B5FA"/>
<stop offset="1" stop-color="#45D9FF"/>
</radialGradient>
<radialGradient id="paint16_radial_59_33258" cx="0" cy="0" r="1" gradientUnits="userSpaceOnUse" gradientTransform="translate(23.2211 56.8071) scale(47.2186 47.2186)">
<stop stop-color="white"/>
<stop offset="0.5" stop-color="white" stop-opacity="0.55"/>
<stop offset="1" stop-color="white" stop-opacity="0.1"/>
</radialGradient>
<radialGradient id="paint17_radial_59_33258" cx="0" cy="0" r="1" gradientUnits="userSpaceOnUse" gradientTransform="translate(14.2511 40.004) rotate(13) scale(18.1091 12.6764)">
<stop stop-color="white"/>
<stop offset="0.5" stop-color="white" stop-opacity="0.5"/>
<stop offset="1" stop-color="white" stop-opacity="0"/>
</radialGradient>
<radialGradient id="paint18_radial_59_33258" cx="0" cy="0" r="1" gradientUnits="userSpaceOnUse" gradientTransform="translate(64.1296 32.3274) scale(23.5225 16.4657)">
<stop stop-color="white"/>
<stop offset="0.5" stop-color="#9FC8FA" stop-opacity="0.5"/>
<stop offset="1" stop-color="#3F91F5" stop-opacity="0"/>
</radialGradient>
<linearGradient id="paint19_linear_59_33258" x1="-2.45242" y1="45.2015" x2="85.0372" y2="8.5475" gradientUnits="userSpaceOnUse">
<stop stop-color="white" stop-opacity="0"/>
<stop offset="0.25" stop-color="white" stop-opacity="0.5"/>
<stop offset="0.5" stop-color="white"/>
<stop offset="0.75" stop-color="white" stop-opacity="0.5"/>
<stop offset="1" stop-color="white" stop-opacity="0"/>
</linearGradient>
<linearGradient id="paint20_linear_59_33258" x1="-2.45242" y1="45.2015" x2="85.0372" y2="8.5475" gradientUnits="userSpaceOnUse">
<stop stop-color="white"/>
<stop offset="0.33" stop-color="white"/>
<stop offset="1" stop-color="white"/>
</linearGradient>
<radialGradient id="paint21_radial_59_33258" cx="0" cy="0" r="1" gradientUnits="userSpaceOnUse" gradientTransform="translate(69.9129 37.6026) scale(14.5841 14.5841)">
<stop stop-color="white"/>
<stop offset="0.5" stop-color="white" stop-opacity="0.55"/>
<stop offset="1" stop-color="white" stop-opacity="0.1"/>
</radialGradient>
<radialGradient id="paint22_radial_59_33258" cx="0" cy="0" r="1" gradientUnits="userSpaceOnUse" gradientTransform="translate(25.2479 52.0765) scale(19.5733)">
<stop stop-color="white"/>
<stop offset="0.5" stop-color="white" stop-opacity="0.55"/>
<stop offset="1" stop-color="white" stop-opacity="0.1"/>
</radialGradient>
<radialGradient id="paint23_radial_59_33258" cx="0" cy="0" r="1" gradientUnits="userSpaceOnUse" gradientTransform="translate(19.6307 33.0313) scale(9.10749)">
<stop stop-color="white"/>
<stop offset="0.5" stop-color="white" stop-opacity="0.55"/>
<stop offset="1" stop-color="white" stop-opacity="0.1"/>
</radialGradient>
<radialGradient id="paint24_radial_59_33258" cx="0" cy="0" r="1" gradientUnits="userSpaceOnUse" gradientTransform="translate(38.9186 8.12424) scale(15.6607)">
<stop stop-color="white"/>
<stop offset="0.5" stop-color="white" stop-opacity="0.55"/>
<stop offset="1" stop-color="white" stop-opacity="0.1"/>
</radialGradient>
<radialGradient id="paint25_radial_59_33258" cx="0" cy="0" r="1" gradientUnits="userSpaceOnUse" gradientTransform="translate(48.9976 27.4241) scale(6.91772)">
<stop stop-color="white"/>
<stop offset="0.5" stop-color="white" stop-opacity="0.55"/>
<stop offset="1" stop-color="white" stop-opacity="0.1"/>
</radialGradient>
<linearGradient id="paint26_linear_59_33258" x1="42.4208" y1="56.698" x2="38.2754" y2="6.34607" gradientUnits="userSpaceOnUse">
<stop stop-color="#A4F0FF"/>
<stop offset="0.07" stop-color="#76CBFF"/>
<stop offset="0.14" stop-color="#47A5FF"/>
<stop offset="0.22" stop-color="#3E84DF"/>
<stop offset="0.3" stop-color="#3462BF"/>
<stop offset="0.4" stop-color="#2267CE"/>
<stop offset="0.5" stop-color="#0F6DDC"/>
<stop offset="0.66" stop-color="#5EADEE"/>
<stop offset="1" stop-color="#ADEEFF"/>
</linearGradient>
<radialGradient id="paint27_radial_59_33258" cx="0" cy="0" r="1" gradientUnits="userSpaceOnUse" gradientTransform="translate(14.494 48.6254) scale(36.8215 36.8215)">
<stop stop-color="white"/>
<stop offset="0.28" stop-color="white" stop-opacity="0.5"/>
<stop offset="1" stop-color="white" stop-opacity="0"/>
</radialGradient>
<radialGradient id="paint28_radial_59_33258" cx="0" cy="0" r="1" gradientUnits="userSpaceOnUse" gradientTransform="translate(14.494 48.6254) scale(36.8215 36.8215)">
<stop stop-color="white"/>
<stop offset="0.5" stop-color="white"/>
<stop offset="1" stop-color="white"/>
</radialGradient>
</defs>
</svg>
