<svg width="26" height="26" viewBox="0 0 26 26" fill="none" xmlns="http://www.w3.org/2000/svg">
<path d="M24.0375 8.01252L15.85 1.46252C14.25 0.187523 11.75 0.175023 10.1625 1.45002L1.97495 8.01252C0.799954 8.95002 0.0874536 10.825 0.337454 12.3L1.91245 21.725C2.27495 23.8375 4.23745 25.5 6.37495 25.5H19.625C21.7375 25.5 23.7375 23.8 24.1 21.7125L25.675 12.2875C25.9 10.825 25.1875 8.95002 24.0375 8.01252ZM13.9375 20.5C13.9375 21.0125 13.5125 21.4375 13 21.4375C12.4875 21.4375 12.0625 21.0125 12.0625 20.5V16.75C12.0625 16.2375 12.4875 15.8125 13 15.8125C13.5125 15.8125 13.9375 16.2375 13.9375 16.75V20.5Z" fill="#090707"/>
</svg>
