<svg width="20" height="18" viewBox="0 0 20 18" fill="none" xmlns="http://www.w3.org/2000/svg">
<path d="M14.8074 0H12.2061C9.00448 0 7.00349 1.8 7.00349 4.68V8.325H11.4457L9.37467 6.462C9.22459 6.327 9.15456 6.156 9.15456 5.985C9.15456 5.814 9.22459 5.643 9.37467 5.508C9.66481 5.247 10.1451 5.247 10.4352 5.508L13.7869 8.523C14.077 8.784 14.077 9.216 13.7869 9.477L10.4352 12.492C10.1451 12.753 9.66481 12.753 9.37467 12.492C9.08452 12.231 9.08452 11.799 9.37467 11.538L11.4457 9.675H7.00349V13.32C7.00349 16.2 9.00448 18 12.2061 18H14.7974C17.999 18 20 16.2 20 13.32V4.68C20.01 1.8 18.009 0 14.8074 0Z" fill="#FAFAFA"/>
<path d="M0.750374 8.325C0.340169 8.325 0 8.631 0 9C0 9.369 0.340169 9.675 0.750374 9.675H7.00349V8.325H0.750374Z" fill="#FAFAFA"/>
</svg>
