<svg width="25" height="26" viewBox="0 0 25 26" fill="none" xmlns="http://www.w3.org/2000/svg">
<path d="M17.7463 0.5H7.26612C2.71385 0.5 0 3.2125 0 7.7625V18.225C0 22.7875 2.71385 25.5 7.26612 25.5H17.7338C22.2861 25.5 25 22.7875 25 18.2375V7.7625C25.0125 3.2125 22.2986 0.5 17.7463 0.5ZM12.5062 21.225C8.54176 21.225 5.31515 18 5.31515 14.0375C5.31515 12.6125 5.72785 11.225 6.52825 10.05C6.8159 9.625 7.40369 9.5 7.8289 9.7875C8.25411 10.075 8.37918 10.6625 8.09153 11.0875C7.50374 11.9625 7.20359 12.9875 7.20359 14.0375C7.20359 16.9625 9.59228 19.35 12.5187 19.35C15.4452 19.35 17.8339 16.9625 17.8339 14.0375C17.8339 11.2375 15.6578 8.9375 12.9064 8.7375L13.4192 9.1125C13.8319 9.4125 13.9319 10 13.6193 10.425C13.3191 10.8375 12.7313 10.9375 12.3061 10.625L9.87992 8.8625C9.79238 8.8 9.71734 8.725 9.65481 8.6375C9.64231 8.625 9.6298 8.6125 9.61729 8.5875C9.56727 8.5 9.52975 8.4 9.50474 8.3C9.47972 8.175 9.47972 8.0625 9.49223 7.9375C9.50474 7.8875 9.51724 7.8375 9.52975 7.7875C9.55476 7.7 9.60479 7.625 9.65481 7.5375C9.67982 7.525 9.70484 7.5 9.72985 7.475L11.8059 5.1C12.1436 4.7125 12.7439 4.675 13.1315 5.0125C13.5192 5.35 13.5568 5.95 13.2191 6.3375L12.7564 6.875C16.6083 7 19.7098 10.175 19.7098 14.0625C19.6973 18 16.4707 21.225 12.5062 21.225Z" fill="#090707"/>
</svg>
