<svg width="850" height="850" viewBox="0 0 850 850" fill="none" xmlns="http://www.w3.org/2000/svg">
<mask id="path-1-inside-1_59_28034" fill="white">
<path d="M425 0C659.721 0 850 190.279 850 425C850 659.721 659.721 850 425 850C190.279 850 0 659.721 0 425C0 190.279 190.279 0 425 0ZM425 179C289.414 179 179.5 288.914 179.5 424.5C179.5 560.086 289.414 670 425 670C560.586 670 670.5 560.086 670.5 424.5C670.5 288.914 560.586 179 425 179Z"/>
</mask>
<path d="M425 0C659.721 0 850 190.279 850 425C850 659.721 659.721 850 425 850C190.279 850 0 659.721 0 425C0 190.279 190.279 0 425 0ZM425 179C289.414 179 179.5 288.914 179.5 424.5C179.5 560.086 289.414 670 425 670C560.586 670 670.5 560.086 670.5 424.5C670.5 288.914 560.586 179 425 179Z" fill="#191818"/>
<path d="M425 0V0.841346C659.256 0.841346 849.159 190.744 849.159 425H850H850.841C850.841 189.814 660.186 -0.841346 425 -0.841346V0ZM850 425H849.159C849.159 659.256 659.256 849.159 425 849.159V850V850.841C660.186 850.841 850.841 660.186 850.841 425H850ZM425 850V849.159C190.744 849.159 0.841346 659.256 0.841346 425H0H-0.841346C-0.841346 660.186 189.814 850.841 425 850.841V850ZM0 425H0.841346C0.841346 190.744 190.744 0.841346 425 0.841346V0V-0.841346C189.814 -0.841346 -0.841346 189.814 -0.841346 425H0ZM425 179V178.159C288.949 178.159 178.659 288.449 178.659 424.5H179.5H180.341C180.341 289.379 289.879 179.841 425 179.841V179ZM179.5 424.5H178.659C178.659 560.551 288.949 670.841 425 670.841V670V669.159C289.879 669.159 180.341 559.621 180.341 424.5H179.5ZM425 670V670.841C561.051 670.841 671.341 560.551 671.341 424.5H670.5H669.659C669.659 559.621 560.121 669.159 425 669.159V670ZM670.5 424.5H671.341C671.341 288.449 561.051 178.159 425 178.159V179V179.841C560.121 179.841 669.659 289.379 669.659 424.5H670.5Z" fill="#F91536" mask="url(#path-1-inside-1_59_28034)"/>
</svg>
