<svg width="14" height="14" viewBox="0 0 14 14" fill="none" xmlns="http://www.w3.org/2000/svg">
<path fill-rule="evenodd" clip-rule="evenodd" d="M6.62648 11.8584L3.47589 13.8763C3.14829 14.0861 2.72002 13.9785 2.51933 13.636C2.42131 13.4687 2.39209 13.2672 2.43829 13.077L2.926 11.0701C3.10205 10.3455 3.57625 9.73995 4.22078 9.4164L7.65791 7.69108C7.81815 7.61065 7.88569 7.40963 7.80876 7.2421C7.74645 7.10642 7.60555 7.0305 7.46371 7.05618L3.63774 7.74868C2.86001 7.88946 2.06246 7.66492 1.45749 7.13489L0.24884 6.07591C-0.0456195 5.81791 -0.0842833 5.35919 0.162483 5.05134C0.2825 4.9016 0.455088 4.80865 0.641375 4.79341L4.33417 4.49126C4.59506 4.46991 4.82242 4.2973 4.92257 4.04454L6.34719 0.44913C6.49423 0.0780415 6.90115 -0.0981639 7.25609 0.0555626C7.42651 0.129376 7.56192 0.270945 7.63253 0.44913L9.05714 4.04454C9.15729 4.2973 9.38465 4.46991 9.64553 4.49126L13.3587 4.79507C13.7417 4.82641 14.0278 5.17644 13.9978 5.57689C13.9835 5.76952 13.8963 5.94824 13.7557 6.07359L10.9239 8.59764C10.7244 8.77533 10.6375 9.05503 10.6988 9.32131L11.5694 13.1025C11.6593 13.493 11.4294 13.8858 11.0559 13.9798C10.8764 14.025 10.6871 13.9937 10.5297 13.8928L7.35324 11.8584C7.13024 11.7156 6.84947 11.7156 6.62648 11.8584Z" fill="#FAFAFA"/>
</svg>
