<svg width="108" height="115" viewBox="0 0 108 115" fill="none" xmlns="http://www.w3.org/2000/svg">
<path d="M65.5554 41.3902C65.8537 29.5579 63.7815 0.27917 50.8999 1.01357C37.8507 1.75753 36.845 24.4003 36.6172 41.9554L39.6944 41.4108C39.8937 37.1524 37.7907 4.77402 50.7281 4.29804C62.4259 3.86758 62.6304 33.5308 62.4271 39.9081" fill="#27262B"/>
<path d="M65.5554 41.3902C65.8537 29.5579 63.7815 0.27917 50.8999 1.01357C37.8507 1.75753 36.845 24.4003 36.6172 41.9554L39.6944 41.4108C39.8937 37.1524 37.7907 4.77402 50.7281 4.29804C62.4259 3.86758 62.6304 33.5308 62.4271 39.9081" stroke="black" stroke-width="1.05469" stroke-linecap="round" stroke-linejoin="round"/>
<path d="M105.142 96.5051C106.173 99.8304 104.178 100.858 82.3171 104.492C67.6219 106.934 36.379 112.588 26.5022 114.253C16.6254 115.919 10.5388 107.88 6.57663 104.434C2.61448 100.989 2.61425 98.6345 3.64791 92.8922C3.64791 92.8922 1.29369 90.7102 1.00656 84.3936C0.719426 78.077 9.95401 52.7942 10.5388 42.7622C10.8224 37.8992 14.3051 38.0615 21.5697 36.3266C28.8343 34.5917 79.5202 31.1361 87.2494 34.802" fill="url(#paint0_linear_64_1343)"/>
<path d="M105.142 96.5051C106.173 99.8304 104.178 100.858 82.3171 104.492C67.6219 106.934 36.379 112.588 26.5022 114.253C16.6254 115.919 10.5388 107.88 6.57663 104.434C2.61448 100.989 2.61425 98.6345 3.64791 92.8922C3.64791 92.8922 1.29369 90.7102 1.00656 84.3936C0.719426 78.077 9.95401 52.7942 10.5388 42.7622C10.8224 37.8992 14.3051 38.0615 21.5697 36.3266C28.8343 34.5917 79.5202 31.1361 87.2494 34.802" stroke="black" stroke-width="1.05469" stroke-linecap="round" stroke-linejoin="round"/>
<path d="M14.6669 49.645C13.6995 67.1426 11.4511 80.8212 5.03362 86.1669C1.68822 88.9537 7.51857 92.5757 10.4751 90.3991C13.4316 88.2226 12.2889 94.6365 17.0046 94.5707C20.6005 94.5205 20.9546 84.787 14.6669 49.645Z" fill="url(#paint1_linear_64_1343)"/>
<path d="M12.449 43.3623C10.998 55.4542 4.06624 72.8659 3.05849 77.9443C2.05074 83.0228 6.80681 84.7159 8.11686 78.8311C9.42692 72.9464 15.1093 48.8035 12.449 43.3623Z" fill="url(#paint2_linear_64_1343)"/>
<path d="M19.3623 111.153C16.2183 100.374 5.45706 94.531 4.02818 92.938C3.24966 95.3601 -0.10554 101.012 19.3623 111.153Z" fill="url(#paint3_linear_64_1343)"/>
<path d="M11.7211 37.2649C39.7349 31.0734 65.5821 28.6638 88.3021 32.397C88.3827 33.859 88.3811 34.3737 88.4289 34.9858C89.9479 35.5402 92.1172 36.8003 92.2463 37.806C92.571 40.3341 14.7509 46.903 13.8529 43.2049C13.6017 42.1708 12.6682 40.6506 11.3784 39.81C11.4793 39.26 11.6754 38.2789 11.7211 37.2649Z" fill="url(#paint4_linear_64_1343)"/>
<path d="M11.7211 37.2649C39.7349 31.0734 65.5821 28.6638 88.3021 32.397C88.3827 33.859 88.381 34.3737 88.4289 34.9858C89.9479 35.5402 92.1172 36.8003 92.2463 37.806C92.571 40.3341 14.7509 46.903 13.8529 43.2049C13.6017 42.1708 12.6682 40.6506 11.3784 39.81C11.4793 39.26 11.6754 38.2789 11.7211 37.2649Z" stroke="black" stroke-width="1.05469" stroke-linecap="round" stroke-linejoin="round"/>
<path d="M13.9268 43.0542C15.9236 50.9624 18.5204 79.4269 20.5877 85.7608C22.655 92.0947 20.6643 108.683 22.8081 110.342C24.952 112.001 49.9117 107.477 74.4886 103.481C99.0654 99.4842 105.803 98.1267 106.569 95.1861C107.335 92.2455 106.186 81.7646 104.578 76.3355C102.97 70.9064 93.4652 47.9592 92.3279 37.729C82.327 39.2473 26.4185 43.741 13.9268 43.0542Z" fill="url(#paint5_radial_64_1343)"/>
<path d="M14.8579 44.4194C24.219 46.5198 73.0697 42.8077 91.7464 39.0498C91.8977 40.3195 92.756 44.7263 93.2729 45.791C92.5473 46.4862 91.6495 47.8133 90.2426 48.8001C90.8168 51.7344 91.4198 54.185 91.3911 54.5307C91.3624 54.8765 90.1023 56.6433 89.729 56.8252C89.3558 57.007 77.3225 58.0185 76.8344 57.7589C76.3462 57.4994 73.992 55.6036 73.5326 55.1881C73.0732 54.7726 71.6088 54.8417 71.5706 55.1533C71.5323 55.4649 69.2544 58.5118 68.8956 58.6546C68.5368 58.7975 51.7311 60.5894 51.0324 60.373C50.3338 60.1566 47.075 57.8238 46.63 57.2785C46.1851 56.7332 44.1322 57.2395 44.1322 57.6551C44.1322 58.0706 42.3807 60.9874 42.1032 61.1779C41.8256 61.3684 26.1967 63.1486 25.6224 62.9581C25.0482 62.7676 21.2954 58.4049 21.0274 58.1453C20.7595 57.8857 21.1152 53.353 20.7707 53.0414C20.4261 52.7298 16.3199 49.8923 15.7648 49.4941C15.5533 48.2447 15.0619 45.5415 14.8579 44.4194Z" fill="black" fill-opacity="0.33"/>
<path d="M13.9268 43.0542C15.9236 50.9624 18.5204 79.4269 20.5877 85.7608C22.655 92.0947 20.6643 108.683 22.8081 110.342C24.952 112.001 49.9117 107.477 74.4886 103.481C99.0654 99.4842 105.803 98.1267 106.569 95.1861C107.335 92.2455 106.186 81.7646 104.578 76.3355C102.97 70.9064 93.4652 47.9592 92.3279 37.729C82.327 39.2473 26.4185 43.741 13.9268 43.0542Z" stroke="black" stroke-width="1.05469" stroke-linecap="round" stroke-linejoin="round"/>
<path d="M22.0938 90.0698C45.9101 89.6613 88.5709 82.1329 104.667 78.2949" stroke="black" stroke-width="1.05469" stroke-linecap="round" stroke-linejoin="round"/>
<path d="M20.7886 81.2645C36.3393 81.1407 92.2478 72.6202 102.174 69.9443" stroke="black" stroke-width="1.05469" stroke-linecap="round" stroke-linejoin="round"/>
<path d="M18.2593 64.8261C28.5196 63.8664 83.0858 58.089 97.5783 56.3779" stroke="black" stroke-width="1.05469" stroke-linecap="round" stroke-linejoin="round"/>
<path d="M19.5898 72.4036L26.575 71.76L30.4466 74.002L45.6546 71.7537L48.0009 68.9901L53.916 68.2975L57.8851 70.4605L71.3648 68.212L73.5204 65.3326L79.4635 64.6437L82.5421 67.1286L93.4941 65.9381L95.8228 62.5094L98.8482 61.9678" stroke="black" stroke-width="1.05469" stroke-linecap="round" stroke-linejoin="round"/>
<path d="M56.7539 61.0059L63.6401 68.0467L67.2073 59.9424" stroke="black" stroke-width="1.05469" stroke-linecap="round" stroke-linejoin="round"/>
<path d="M29.9961 63.6924L37.8307 70.8795L40.8127 62.3784" stroke="black" stroke-width="1.05469" stroke-linecap="round" stroke-linejoin="round"/>
<path d="M80.731 58.4131L87.3994 64.7704L90.702 57.4185" stroke="black" stroke-width="1.05469" stroke-linecap="round" stroke-linejoin="round"/>
<path d="M65.2436 105.965C42.9299 110.001 25.9326 112.151 23.0263 110.522C21.6025 109.724 21.1065 104.338 21.7615 99.8171C30.1942 101.655 96.1029 91.8784 106.552 88.7939C107.176 93.4699 107.648 95.7866 104.948 97.4391C102.749 98.7846 82.9851 102.756 65.2436 105.965Z" fill="url(#paint6_linear_64_1343)"/>
<path d="M65.2436 105.965C42.9299 110.001 25.9326 112.151 23.0263 110.522C21.6025 109.724 21.1065 104.338 21.7615 99.8171C30.1942 101.655 96.1029 91.8784 106.552 88.7939C107.176 93.4699 107.648 95.7866 104.948 97.4391C102.749 98.7846 82.9851 102.756 65.2436 105.965Z" stroke="black" stroke-width="1.05469" stroke-linecap="round" stroke-linejoin="round"/>
<path d="M51.1568 98.5321C45.0447 99.8258 39.1999 99.9909 32.5198 100.602C31.8774 92.4429 30.7851 86.8126 29.6499 78.3066C27.7455 64.0381 44.258 61.752 47.69 75.6503C49.568 83.255 50.7259 90.9113 51.1568 98.5321Z" fill="url(#paint7_linear_64_1343)"/>
<path d="M51.1568 98.5321C45.0447 99.8258 39.1999 99.9909 32.5198 100.602C31.8774 92.4429 30.7851 86.8126 29.6499 78.3066C27.7455 64.0381 44.258 61.752 47.69 75.6503C49.568 83.255 50.7259 90.9113 51.1568 98.5321Z" stroke="black" stroke-width="1.05469" stroke-linecap="round" stroke-linejoin="round"/>
<path d="M36.6139 97.3679C35.4476 87.5861 33.9387 79.1511 31.4399 69.6021" stroke="black" stroke-width="1.05469" stroke-linecap="round" stroke-linejoin="round"/>
<path d="M47.0488 96.6429C46.338 86.7918 44.4133 76.8847 41.2861 67.1069" stroke="black" stroke-width="1.05469" stroke-linecap="round" stroke-linejoin="round"/>
<path d="M50.973 95.8218C44.8889 97.0954 38.9664 97.1895 32.4229 97.8319" stroke="black" stroke-width="1.05469" stroke-linecap="round" stroke-linejoin="round"/>
<g opacity="0.44">
<path d="M50.192 83.4534C43.6935 84.7411 32.3003 85.7024 32.3003 85.7024C32.3003 85.7024 29.5637 81.8404 29.3779 80.7799C36.089 79.4838 43.116 81.6009 49.586 80.3394C49.8014 81.377 50.0034 82.4151 50.192 83.4534Z" fill="#5A3F2A"/>
</g>
<path d="M51.0154 80.7844L32.6478 82.817L30.0239 80.4336L48.3509 78.4629L51.0154 80.7844Z" fill="#FF812C"/>
<path d="M51.0154 80.7844L32.6478 82.817L30.0239 80.4336L48.3509 78.4629L51.0154 80.7844Z" stroke="#B35B00" stroke-width="1.05469" stroke-linecap="round" stroke-linejoin="round"/>
<path d="M76.6408 94.6152C71.1938 95.8172 65.4661 96.5145 59.8265 97.7498C59.5961 90.2553 58.805 82.8843 57.2281 75.3776C54.0172 60.0904 70.3226 59.4242 73.4724 72.7234C75.2103 80.0618 76.1915 87.272 76.6408 94.6152Z" fill="url(#paint8_linear_64_1343)"/>
<path d="M76.6408 94.6152C71.1938 95.8172 65.4661 96.5145 59.8265 97.7498C59.5961 90.2553 58.805 82.8843 57.2281 75.3776C54.0172 60.0904 70.3226 59.4242 73.4724 72.7234C75.2103 80.0618 76.1915 87.272 76.6408 94.6152Z" stroke="black" stroke-width="1.05469" stroke-linecap="round" stroke-linejoin="round"/>
<path d="M63.4492 94.2731C62.8847 84.6706 61.3284 75.1694 58.5601 65.6055" stroke="black" stroke-width="1.05469" stroke-linecap="round" stroke-linejoin="round"/>
<path d="M72.9564 92.7667C72.2383 83.2744 70.5555 73.8927 67.6865 64.4546" stroke="black" stroke-width="1.05469" stroke-linecap="round" stroke-linejoin="round"/>
<path d="M76.4536 92.0034C71.0313 93.1874 65.3293 93.8663 59.7158 95.0834" stroke="black" stroke-width="1.05469" stroke-linecap="round" stroke-linejoin="round"/>
<g opacity="0.44">
<path d="M75.6332 79.9448C69.8404 81.1426 59.4363 81.9862 59.4363 81.9862L57.0034 77.6851C57.0034 77.6851 69.2995 78.1146 75.0666 76.9409C75.2674 77.9419 75.4562 78.9431 75.6332 79.9448Z" fill="#5A3F2A"/>
</g>
<path d="M76.4536 77.1347L60.0373 79.245L57.5645 77.1804L73.9481 75.125L76.4536 77.1347Z" fill="#FF812C"/>
<path d="M76.4536 77.1347L60.0373 79.245L57.5645 77.1804L73.9481 75.125L76.4536 77.1347Z" stroke="#B35B00" stroke-width="1.05469" stroke-linecap="round" stroke-linejoin="round"/>
<path d="M98.7118 90.6198C93.9471 91.6787 88.9803 92.4035 84.0568 93.4899C83.7321 86.6301 82.8597 79.7194 81.4479 72.8383C78.3458 59.6283 92.1984 57.4559 95.6449 70.3807C97.1873 77.1159 98.212 83.8884 98.7118 90.6198Z" fill="url(#paint9_linear_64_1343)"/>
<path d="M98.7118 90.6198C93.9471 91.6787 88.9803 92.4035 84.0568 93.4899C83.7321 86.6301 82.8597 79.7194 81.4479 72.8383C78.3458 59.6283 92.1984 57.4559 95.6449 70.3807C97.1872 77.1159 98.212 83.8884 98.7118 90.6198Z" stroke="black" stroke-width="1.05469" stroke-linecap="round" stroke-linejoin="round"/>
<path d="M87.1789 90.3367C86.5448 81.5421 85.0154 72.6743 82.6025 63.9028" stroke="black" stroke-width="1.05469" stroke-linecap="round" stroke-linejoin="round"/>
<path d="M95.4514 88.8984C94.6946 80.1979 93.0629 71.433 90.5679 62.7715" stroke="black" stroke-width="1.05469" stroke-linecap="round" stroke-linejoin="round"/>
<path d="M98.5118 88.2256C93.767 89.2691 88.8206 89.9782 83.918 91.049" stroke="black" stroke-width="1.05469" stroke-linecap="round" stroke-linejoin="round"/>
<g opacity="0.44">
<path d="M97.6956 77.2987C92.6183 78.3566 84.0427 79.0796 84.0427 79.0796L81.1191 74.4893C81.1191 74.4893 92.1246 75.5792 97.1813 74.5422C97.3625 75.4608 97.5338 76.3796 97.6956 77.2987Z" fill="#5A3F2A"/>
</g>
<path d="M98.2129 74.1432L83.8306 76.0376L81.834 73.9404L96.1844 72.0962L98.2129 74.1432Z" fill="#FF812C"/>
<path d="M98.2129 74.1432L83.8306 76.0376L81.834 73.9404L96.1844 72.0962L98.2129 74.1432Z" stroke="#B35B00" stroke-width="1.05469" stroke-linecap="round" stroke-linejoin="round"/>
<path d="M16.5166 53.1816C17.6385 60.7866 20.027 82.4483 21.1153 85.6527C22.2036 88.8571 22.3771 93.0398 22.3549 98.5275C24.5616 89.4586 21.9006 85.8978 20.9139 77.6621C18.9726 61.4603 18.2095 57.3457 16.5166 53.1816Z" fill="white" fill-opacity="0.22"/>
<path d="M66.6411 49.9107L71.5284 54.978L74.8469 49.2711L70.4389 38.5117L67.3757 38.7515L66.6411 49.9107Z" fill="#29292B"/>
<path d="M66.6411 49.9107L71.5284 54.978L74.8469 49.2711L70.4389 38.5117L67.3757 38.7515L66.6411 49.9107Z" stroke="black" stroke-width="1.05469" stroke-linecap="round" stroke-linejoin="round"/>
<path d="M41.4681 41.1732L40.585 52.6996L45.866 57.8953L49.7054 51.6263L44.9059 40.6899" fill="#29292B"/>
<path d="M41.4681 41.1732L40.585 52.6996L45.866 57.8953L49.7054 51.6263L44.9059 40.6899" stroke="black" stroke-width="1.05469" stroke-linecap="round" stroke-linejoin="round"/>
<path d="M11.9648 37.0446C35.9102 29.2925 78.3458 27.742 93.9073 32.221C94.7686 33.5418 95.6872 35.8673 96.2041 37.0446C94.6536 38.1357 93.2891 40.1073 91.8822 41.1984C92.4564 44.4427 92.7973 48.6289 92.7686 49.0113C92.7398 49.3937 91.0864 53.8993 90.7131 54.1003C90.3399 54.3012 77.8602 55.1496 77.3721 54.8624C76.884 54.5753 73.2968 50.4687 72.8374 50.0093C72.378 49.5498 71.6272 41.38 71.8569 40.9493C72.0866 40.5186 72.4459 39.3598 71.6989 37.9489C70.5361 35.7525 66.574 36.2693 67.306 38.7958C67.8002 40.5013 69.6605 41.0786 69.7179 41.4087C69.7753 41.7388 71.0418 49.7653 71.0035 50.1099C70.9652 50.4544 68.9039 55.6115 68.5451 55.7693C68.1863 55.9271 52.013 57.3691 51.3144 57.1298C50.6157 56.8905 46.9827 53.4536 46.5377 52.8507C46.0928 52.2477 45.385 44.7679 45.5573 44.3659C45.7296 43.9639 47.0072 42.4136 45.7583 40.2602C44.5094 38.1067 40.5615 38.2073 40.7807 41.4649C40.889 43.0761 42.4005 43.8904 43.3336 44.4502C43.5346 45.2112 44.6973 52.3383 44.6973 52.7977C44.6973 53.2571 41.8564 58.4761 41.5788 58.6866C41.3013 58.8972 26.677 60.7598 26.1028 60.5492C25.5285 60.3387 21.2921 55.5562 21.0241 55.2691C20.7561 54.982 19.958 46.5852 19.6134 46.2406C19.2689 45.8961 14.7021 42.9207 14.147 42.4804C13.5919 42.0401 11.5246 37.9442 11.9648 37.0446Z" fill="url(#paint10_linear_64_1343)"/>
<path d="M68.5875 55.5086C61.1163 55.1374 66.5935 51.5242 55.0845 50.5984C48.8764 50.1567 47.5503 51.0872 46.5112 52.0371" stroke="url(#paint11_linear_64_1343)" stroke-opacity="0.33" stroke-width="0.703125" stroke-linecap="round" stroke-linejoin="round"/>
<path d="M45.8534 45.7385C45.401 46.7472 46.0764 50.6295 55.0838 50.5984C66.6038 51.514 63.2726 47.1055 70.4819 47.4458C63.2642 47.0847 67.1829 43.6392 55.8537 42.6323C47.1334 42.316 46.3056 44.7303 45.8534 45.7385Z" stroke="url(#paint12_linear_64_1343)" stroke-opacity="0.33" stroke-width="0.703125" stroke-linecap="round" stroke-linejoin="round"/>
<path d="M11.6958 37.5425C15.6274 36.7285 15.4201 39.5783 21.0366 38.4795C26.5303 37.6324 27.8047 42.6963 32.9851 42.0523C38.0393 41.6835 35.8039 45.9159 43.2384 45.7261C35.7892 45.8987 37.4702 50.2357 32.6378 50.8053C27.5248 51.5182 26.9771 57.6721 24.2872 58.9399" stroke="url(#paint13_linear_64_1343)" stroke-opacity="0.33" stroke-width="0.703125" stroke-linecap="round" stroke-linejoin="round"/>
<path d="M94.7163 34.7501C91.746 35.8753 90.6554 31.4397 86.1512 31.2852C81.2843 31.2852 83.5876 33.9396 78.6653 34.6084C73.9814 35.142 73.9795 37.5639 72.2017 38.8369C74.5412 40.5865 73.4562 43.5232 78.37 43.1574C83.367 42.5233 86.5294 50.4374 91.7785 49.5778" stroke="url(#paint14_linear_64_1343)" stroke-opacity="0.33" stroke-width="0.703125" stroke-linecap="round" stroke-linejoin="round"/>
<path d="M13.9634 42.6042C17.8494 42.0379 17.2847 35.1886 22.9346 34.4271C28.4615 33.8904 27.5742 35.1241 32.9676 34.6808M32.9676 34.6808C38.2389 34.5123 35.1633 37.688 42.8455 37.7316C50.1577 38.1177 44.4383 41.6179 55.8541 42.6324C67.1822 43.639 62.8598 39.7308 66.9555 39.175C62.61 38.4646 67.9273 36.2444 56.5829 35.3863C45.0037 34.4026 50.1601 37.9543 42.8544 37.5878C35.1505 37.5327 38.0362 41.7332 32.9839 42.1051C27.6508 42.624 25.2074 51.7925 20.442 53.28C26.2067 52.7251 28.2916 60.5498 32.3796 60.0329C37.0857 59.4381 36.1262 54.0574 43.4202 53.6295C36.1283 54.0765 37.4914 50.0341 32.6461 50.609C27.6748 51.4144 23.3679 43.6913 18.1036 44.8711L18.144 44.8622C23.2687 43.5683 27.4547 35.0041 32.9676 34.6808ZM32.9676 34.6808C38.2431 34.499 35.2777 31.7435 43.2389 31.92C50.7985 32.3236 49.0765 30.9176 57.1137 30.2934C65.1053 29.6726 62.811 32.6609 69.7771 32.655C76.8811 32.2738 73.9638 35.2892 78.6601 34.7497C83.4467 33.9891 86.8103 42.4772 91.8255 41.3284C86.5396 41.8693 86.1749 53.9547 80.9695 54.4271C75.8418 54.6309 76.0537 47.8708 72.7296 47.624C75.719 46.6739 73.4607 43.4751 78.3713 43.1054C83.5172 42.5937 83.654 37.2034 88.1935 35.7862C92.9421 34.245 90.4858 33.7277 93.6993 32.5288" stroke="url(#paint15_linear_64_1343)" stroke-opacity="0.33" stroke-width="0.703125" stroke-linecap="round" stroke-linejoin="round"/>
<path d="M43.2388 31.9201C50.7861 32.3559 45.0127 34.392 56.5828 35.3864C67.919 36.2548 62.7801 32.6998 69.7163 32.6557C75.7483 32.6174 74.4915 30.565 79.2223 30.2095" stroke="url(#paint16_linear_64_1343)" stroke-opacity="0.33" stroke-width="0.703125" stroke-linecap="round" stroke-linejoin="round"/>
<path d="M11.9648 37.0446C35.9102 29.2925 78.3458 27.742 93.9073 32.221C94.7686 33.5418 95.6872 35.8673 96.2041 37.0446C94.6536 38.1357 93.2891 40.1073 91.8822 41.1984C92.4564 44.4427 92.7973 48.6289 92.7686 49.0113C92.7398 49.3937 91.0864 53.8993 90.7131 54.1003C90.3399 54.3012 77.8602 55.1496 77.3721 54.8624C76.884 54.5753 73.2968 50.4687 72.8374 50.0093C72.378 49.5498 71.6272 41.38 71.8569 40.9493C72.0866 40.5186 72.4459 39.3598 71.6989 37.9489C70.5361 35.7525 66.574 36.2693 67.306 38.7958C67.8002 40.5013 69.6605 41.0786 69.7179 41.4087C69.7753 41.7388 71.0418 49.7653 71.0035 50.1099C70.9652 50.4544 68.9039 55.6115 68.5451 55.7693C68.1863 55.9271 52.013 57.3691 51.3144 57.1298C50.6157 56.8905 46.9827 53.4536 46.5377 52.8507C46.0928 52.2477 45.385 44.7679 45.5573 44.3659C45.7296 43.9639 47.0072 42.4136 45.7583 40.2602C44.5094 38.1067 40.5615 38.2073 40.7807 41.4649C40.889 43.0761 42.4005 43.8904 43.3336 44.4502C43.5346 45.2112 44.6973 52.3383 44.6973 52.7977C44.6973 53.2571 41.8564 58.4761 41.5788 58.6866C41.3013 58.8972 26.677 60.7598 26.1028 60.5492C25.5285 60.3387 21.2921 55.5562 21.0241 55.2691C20.7561 54.982 19.958 46.5852 19.6134 46.2406C19.2689 45.8961 14.7021 42.9207 14.147 42.4804C13.5919 42.0401 11.5246 37.9442 11.9648 37.0446Z" stroke="black" stroke-width="1.05469" stroke-linecap="round" stroke-linejoin="round"/>
<g opacity="0.5">
<path d="M56.8222 75.6915C56.3127 69.6025 51.7271 66.9148 47.3673 67.2479C46.1477 59.9079 44.1015 44.8095 43.7427 43.2454C43.3374 41.4775 41.8838 40.8553 39.902 38.7044C39.902 38.7044 41.9989 56.0289 46.7254 67.3196C46.2861 67.3835 45.8517 67.4786 45.4261 67.6039C40.9974 58.3663 38.2531 48.4901 35.5053 38.5503C34.3931 42.6195 36.0024 56.4098 44.3745 67.9845C41.2585 69.3345 38.8899 72.4503 39.2839 77.1591C39.5926 80.8473 41.5612 83.2804 44.0761 84.4981C44.3935 90.9053 46.6684 95.7481 48.7431 95.3622C50.8819 95.3998 52.0528 90.756 51.4369 84.8371C54.6974 83.6329 57.2298 80.5609 56.8222 75.6915ZM48.8839 93.5746C47.7932 92.7286 46.4284 90.9081 46.1477 85.2052C47.2387 85.438 48.3699 85.4779 49.4716 85.3267C50.1283 91.1972 50.2437 93.1956 48.8839 93.5746Z" fill="url(#paint17_linear_64_1343)"/>
</g>
<path d="M40.8458 37.3545C36.9194 43.6257 39.4112 58.6219 50.1223 71.3384C44.784 60.5734 40.2332 51.3706 40.8458 37.3545Z" fill="#FF6528"/>
<path d="M40.8458 37.3545C36.9194 43.6257 39.4112 58.6219 50.1223 71.3384C44.784 60.5734 40.2332 51.3706 40.8458 37.3545Z" stroke="#934500" stroke-width="0.703125" stroke-linecap="round" stroke-linejoin="round"/>
<path d="M48.836 70.4427C43.2291 81.5899 46.6099 95.3036 50.065 94.6055C48.0406 94.2128 46.9974 85.7088 48.836 70.4427Z" fill="#FF6528"/>
<path d="M48.836 70.4427C43.2291 81.5899 46.6099 95.3036 50.065 94.6055C48.0406 94.2128 46.9974 85.7088 48.836 70.4427Z" stroke="#934500" stroke-width="0.703125" stroke-linecap="round" stroke-linejoin="round"/>
<path d="M49.2112 70.1444C55.5676 81.48 53.4759 96.7183 49.2277 94.3813C51.9006 94.8911 52.1103 85.245 49.2112 70.1444Z" fill="#FF6528"/>
<path d="M49.2112 70.1444C55.5676 81.48 53.4759 96.7183 49.2277 94.3813C51.9006 94.8911 52.1103 85.245 49.2112 70.1444Z" stroke="#934500" stroke-width="0.703125" stroke-linecap="round" stroke-linejoin="round"/>
<path d="M44.7808 37.624C47.3059 38.3907 47.9311 41.3833 48.2501 43.1688C48.5692 44.9544 49.4715 63.2674 50.2849 68.9152C46.6045 58.5191 47.0293 40.5026 44.7808 37.624Z" fill="#FF6528"/>
<path d="M44.7808 37.624C47.3059 38.3907 47.9311 41.3833 48.2501 43.1688C48.5692 44.9544 49.4715 63.2674 50.2849 68.9152C46.6045 58.5191 47.0293 40.5026 44.7808 37.624Z" stroke="#934500" stroke-width="0.703125" stroke-linecap="round" stroke-linejoin="round"/>
<path d="M41.4189 75.9751C41.8276 87.6793 59.4367 87.6502 59.0075 75.3609C58.5784 63.0715 40.9914 63.7345 41.4189 75.9751Z" fill="#FF812C"/>
<path d="M41.4189 75.9751C41.8276 87.6793 59.4367 87.6502 59.0075 75.3609C58.5784 63.0715 40.9914 63.7345 41.4189 75.9751Z" stroke="#934500" stroke-width="1.05469" stroke-linecap="round" stroke-linejoin="round"/>
<path d="M49.1574 69.3489C49.3409 68.8039 50.1418 68.7091 50.4454 69.1883L52.5258 72.2438L56.0528 72.208C56.68 72.1826 57.0527 72.9481 56.6507 73.4169L54.3757 76.2229L55.2181 79.5167C55.3983 80.1464 54.7052 80.748 54.0859 80.4978L51.0414 79.3481L48.2689 81.2024C47.7734 81.5537 47.0468 81.1629 47.0775 80.5776C47.0893 79.4894 46.9763 77.9664 48.1118 77.3181L50.8788 75.4745C51.0286 75.381 50.9184 75.1419 50.7478 75.1929L47.2047 76.1597C46.1936 76.5283 45.0901 75.5982 44.2934 75.1432C43.7003 74.8086 43.8515 73.8667 44.5258 73.7107L47.8674 72.8486L49.1574 69.3489Z" fill="#C15E25"/>
<path d="M42.6235 80.4124C46.6602 87.4006 59.3725 85.8254 59.007 75.3614" stroke="#5E2800" stroke-width="1.05469" stroke-linecap="round" stroke-linejoin="round"/>
<path d="M70.8089 39.6563C69.2528 25.8171 63.5627 1.80449 52.132 2.44925C39.9024 3.13906 40.161 25.7774 41.5409 42.0555C42.31 41.9974 44.3328 41.7215 44.9626 41.4698C44.7637 37.5212 40.538 5.96856 52.6941 5.96856C62.304 5.96856 66.9639 33.6443 67.3517 39.5578" fill="#29292B"/>
<path d="M70.8089 39.6563C69.2528 25.8171 63.5627 1.80449 52.132 2.44925C39.9024 3.13906 40.161 25.7774 41.5409 42.0555C42.31 41.9974 44.3328 41.7215 44.9626 41.4698C44.7637 37.5212 40.538 5.96856 52.6941 5.96856C62.304 5.96856 66.9639 33.6443 67.3517 39.5578" stroke="black" stroke-width="1.05469" stroke-linecap="round" stroke-linejoin="round"/>
<path d="M42.1607 41.2791C42.1607 41.2791 42.1026 42.246 42.0449 42.729C42.8083 42.9104 44.2066 42.5021 44.8186 42.2528C44.3102 40.9439 44.3256 40.5893 43.9909 40.3134C43.6561 40.0375 42.3531 39.8776 42.1607 41.2791Z" fill="#2B2B2D"/>
<path d="M57.0026 4.42868C48.6054 -0.268566 39.4611 6.79014 41.8256 36.8862C41.9396 20.1526 42.8446 -0.538656 57.0026 4.42868Z" fill="#535353"/>
<path d="M92.1518 41.1553C92.469 42.921 93.0734 45.6053 93.0734 45.6053C86.2322 46.4707 75.1131 45.9193 67.5336 46.3563C67.3863 46.3647 67.6786 47.5244 67.5338 47.5337C65.985 47.633 57.5378 48.6073 56.3795 48.8179L54.6151 47.4843L54.1123 44.0378L55.4228 42.3339C56.4878 42.2296 65.4842 41.4791 66.6237 41.4158C66.7829 41.4069 66.6505 41.9812 66.8109 41.973C74.5862 41.5776 83.0372 42.04 92.1518 41.1553Z" fill="black" fill-opacity="0.33"/>
<path d="M92.1976 41.1553C92.499 42.921 93.0735 45.6053 93.0735 45.6053C85.0918 46.6677 70.9825 45.5946 64.4925 46.8367L63.6948 42.3484C71.699 41.5227 82.0769 42.1889 92.1976 41.1553Z" fill="url(#paint18_linear_64_1343)"/>
<path d="M92.1976 41.1553C92.499 42.921 93.0735 45.6053 93.0735 45.6053C85.0918 46.6677 70.9825 45.5946 64.4925 46.8367L63.6948 42.3484C71.699 41.5227 82.0769 42.1889 92.1976 41.1553Z" stroke="#1A1A1A" stroke-width="1.05469" stroke-linecap="round" stroke-linejoin="round"/>
<path d="M93.0739 45.6055C85.0922 46.6678 70.9827 45.595 64.4927 46.8371" stroke="black" stroke-width="1.05469" stroke-linecap="round" stroke-linejoin="round"/>
<path d="M53.9062 44.0379L54.3232 47.5579L56.2574 48.8712L67.7235 47.5147L66.7346 41.3228L55.2039 42.1979L53.9062 44.0379Z" fill="url(#paint19_linear_64_1343)"/>
<path d="M53.9062 44.0379L54.3232 47.5579L56.2574 48.8712L67.7235 47.5147L66.7346 41.3228L55.2039 42.1979L53.9062 44.0379Z" stroke="black" stroke-width="0.703125" stroke-linecap="round" stroke-linejoin="round"/>
<path d="M17.6885 46.9046L18.4922 52.3367C25.8997 52.5482 38.6316 49.1087 50.085 48.1757C50.3091 48.1575 50.1791 48.9761 50.4039 48.9598C52.2124 48.8281 59.3885 48.0676 61.2294 48.0851L62.3595 46.3446L62.1029 43.4065L60.3075 41.5386C58.9081 41.4923 51.7607 42.286 50.3803 42.3493C50.1187 42.3612 50.5071 42.9516 50.2459 42.967C40.4438 43.5436 28.7822 46.511 17.6885 46.9046Z" fill="black" fill-opacity="0.33"/>
<path d="M17.689 46.9044L18.4927 52.3365C27.2114 52.5854 40.3187 47.8965 54.0811 48.0273L53.0413 42.9799C41.4229 42.597 30.6378 46.445 17.689 46.9044Z" fill="url(#paint20_linear_64_1343)"/>
<path d="M17.689 46.9044L18.4927 52.3365C27.2114 52.5854 40.3187 47.8965 54.0811 48.0273L53.0413 42.9799C41.4229 42.597 30.6378 46.445 17.689 46.9044Z" stroke="#1A1A1A" stroke-width="1.05469" stroke-linecap="round" stroke-linejoin="round"/>
<path d="M18.4927 52.3359C27.2114 52.5847 40.3189 47.8959 54.0813 48.0266" stroke="black" stroke-width="1.05469" stroke-linecap="round" stroke-linejoin="round"/>
<path d="M50.0718 42.2532L50.8624 49.2433L61.3875 48.1928L62.6443 45.6325L62.3163 42.9942L60.8412 41.4502L50.0718 42.2532Z" fill="url(#paint21_linear_64_1343)"/>
<path d="M50.0718 42.2532L50.8624 49.2433L61.3875 48.1928L62.6443 45.6325L62.3163 42.9942L60.8412 41.4502L50.0718 42.2532Z" stroke="black" stroke-width="0.703125" stroke-linecap="round" stroke-linejoin="round"/>
<path d="M55.1128 44.9587L60.332 44.4946" stroke="black" stroke-width="1.05469" stroke-linecap="round" stroke-linejoin="round"/>
<path d="M54.7427 48.4657L56.1755 56.6071L65.2917 55.6652L66.1457 54.4226L55.6085 47.228L54.7427 48.4657Z" fill="#302F2C"/>
<path d="M54.7427 48.4657L56.1755 56.6071L65.2917 55.6652L66.1457 54.4226L55.6085 47.228L54.7427 48.4657Z" stroke="black" stroke-width="0.703125" stroke-linecap="round" stroke-linejoin="round"/>
<path d="M56.9594 47.4531L56.6587 45.2208C56.0228 41.5878 61.2259 41.1533 61.9991 44.537L63.1954 50.7343" stroke="#36342A" stroke-width="1.58203" stroke-linecap="round" stroke-linejoin="round"/>
<path d="M56.5312 47.0757L56.2305 44.8433C55.5946 41.2103 60.7977 40.7759 61.5709 44.1596L62.7672 50.3569" stroke="#A9A9A8" stroke-width="0.351562" stroke-linecap="round" stroke-linejoin="round"/>
<path d="M55.5967 47.16L57.0295 55.3014L66.1458 54.3594L64.4869 46.3784L55.5967 47.16Z" fill="url(#paint22_linear_64_1343)"/>
<path d="M55.5967 47.16L57.0295 55.3014L66.1458 54.3594L64.4869 46.3784L55.5967 47.16Z" stroke="black" stroke-width="0.703125" stroke-linecap="round" stroke-linejoin="round"/>
<path d="M57.5984 54.6696L56.4429 47.8432L63.9993 47.1333" stroke="#B7B7B7" stroke-width="0.351562" stroke-linecap="round" stroke-linejoin="round"/>
<path d="M58.6651 44.8219C59.1088 47.5365 60.8552 47.3323 60.357 44.3422C59.8899 41.539 58.1793 41.85 58.6651 44.8219Z" fill="#7D7C75"/>
<path d="M58.6651 44.8219C59.1088 47.5365 60.8552 47.3323 60.357 44.3422C59.8899 41.539 58.1793 41.85 58.6651 44.8219Z" stroke="black" stroke-width="0.703125" stroke-linecap="round" stroke-linejoin="round"/>
<path d="M59.645 43.435C59.2162 42.5505 58.8371 43.2509 59.0232 44.8863" stroke="#ACABAA" stroke-width="0.351562" stroke-linecap="round" stroke-linejoin="round"/>
<path d="M80.9985 48.1606L80.1567 39.4478L82.4118 39.4774L83.2288 48.0376L80.9985 48.1606Z" fill="url(#paint23_linear_64_1343)"/>
<path d="M80.9985 48.1606L80.1567 39.4478L82.4118 39.4774L83.2288 48.0376L80.9985 48.1606Z" stroke="black" stroke-width="0.703125" stroke-linecap="round" stroke-linejoin="round"/>
<path d="M80.1864 39.4478L78.8929 39.9065L79.4763 46.432L78.7241 46.5898L78.9071 48.1606H80.9987L80.1864 39.4478Z" fill="url(#paint24_linear_64_1343)"/>
<path d="M80.1864 39.4478L78.8929 39.9065L79.4763 46.432L78.7241 46.5898L78.9071 48.1606H80.9987L80.1864 39.4478Z" stroke="black" stroke-width="0.703125" stroke-linecap="round" stroke-linejoin="round"/>
<path d="M31.033 52.6995L29.5796 43.7483L32.3766 43.4077L33.8039 52.1813L31.033 52.6995Z" fill="url(#paint25_linear_64_1343)"/>
<path d="M31.033 52.6995L29.5796 43.7483L32.3766 43.4077L33.8039 52.1813L31.033 52.6995Z" stroke="black" stroke-width="0.703125" stroke-linecap="round" stroke-linejoin="round"/>
<path d="M29.483 43.791L29.1328 44.1792L30.4767 52.5424L31.033 52.7L29.483 43.791Z" fill="url(#paint26_linear_64_1343)"/>
<path d="M29.483 43.791L29.1328 44.1792L30.4767 52.5424L31.033 52.7L29.483 43.791Z" stroke="black" stroke-width="0.703125" stroke-linecap="round" stroke-linejoin="round"/>
<defs>
<linearGradient id="paint0_linear_64_1343" x1="4.18342" y1="68.0102" x2="23.4498" y2="70.3479" gradientUnits="userSpaceOnUse">
<stop stop-color="#2D2D2F"/>
<stop offset="0.4" stop-color="#212122"/>
<stop offset="0.8" stop-color="#161616"/>
<stop offset="0.9" stop-color="#282829"/>
<stop offset="1" stop-color="#393A3C"/>
</linearGradient>
<linearGradient id="paint1_linear_64_1343" x1="13.288" y1="53.3039" x2="11.4758" y2="91.9043" gradientUnits="userSpaceOnUse">
<stop/>
<stop offset="0.5" stop-opacity="0.5"/>
<stop offset="1" stop-opacity="0"/>
</linearGradient>
<linearGradient id="paint2_linear_64_1343" x1="8.85242" y1="46.3006" x2="7.25407" y2="80.3471" gradientUnits="userSpaceOnUse">
<stop/>
<stop offset="0.5" stop-opacity="0.5"/>
<stop offset="1" stop-opacity="0"/>
</linearGradient>
<linearGradient id="paint3_linear_64_1343" x1="23.0921" y1="100.458" x2="6.52644" y2="102.574" gradientUnits="userSpaceOnUse">
<stop/>
<stop offset="0.5" stop-opacity="0.5"/>
<stop offset="1" stop-opacity="0"/>
</linearGradient>
<linearGradient id="paint4_linear_64_1343" x1="59.0416" y1="62.6415" x2="44.5799" y2="14.6965" gradientUnits="userSpaceOnUse">
<stop/>
<stop offset="0.5" stop-color="#161617"/>
<stop offset="1" stop-color="#2D2C2F"/>
</linearGradient>
<radialGradient id="paint5_radial_64_1343" cx="0" cy="0" r="1" gradientUnits="userSpaceOnUse" gradientTransform="translate(27.2939 -116.164) scale(212.907 212.907)">
<stop stop-color="#686868"/>
<stop offset="0.44" stop-color="#484849"/>
<stop offset="0.89" stop-color="#28282A"/>
<stop offset="0.93" stop-color="#333435"/>
<stop offset="0.97" stop-color="#3F3F40"/>
<stop offset="0.99" stop-color="#333436"/>
<stop offset="1" stop-color="#28292C"/>
</radialGradient>
<linearGradient id="paint6_linear_64_1343" x1="61.1239" y1="104.836" x2="60.9742" y2="97.3338" gradientUnits="userSpaceOnUse">
<stop stop-color="#161616"/>
<stop offset="0.5" stop-color="#252524"/>
<stop offset="1" stop-color="#343332"/>
</linearGradient>
<linearGradient id="paint7_linear_64_1343" x1="38.074" y1="69.8603" x2="40.8111" y2="97.11" gradientUnits="userSpaceOnUse">
<stop stop-color="#F1C969"/>
<stop offset="0.5" stop-color="#ECC067"/>
<stop offset="1" stop-color="#E7B666"/>
</linearGradient>
<linearGradient id="paint8_linear_64_1343" x1="65.853" y1="67.0593" x2="68.555" y2="93.9593" gradientUnits="userSpaceOnUse">
<stop stop-color="#F1C969"/>
<stop offset="0.5" stop-color="#ECC067"/>
<stop offset="1" stop-color="#E7B666"/>
</linearGradient>
<linearGradient id="paint9_linear_64_1343" x1="88.9637" y1="64.9582" x2="91.6387" y2="91.5897" gradientUnits="userSpaceOnUse">
<stop stop-color="#F1C969"/>
<stop offset="0.5" stop-color="#ECC067"/>
<stop offset="1" stop-color="#E7B666"/>
</linearGradient>
<linearGradient id="paint10_linear_64_1343" x1="55.3115" y1="49.3348" x2="52.8985" y2="29.0927" gradientUnits="userSpaceOnUse">
<stop stop-color="#30303B"/>
<stop offset="0.5" stop-color="#2F2F35"/>
<stop offset="1" stop-color="#2E2E2E"/>
</linearGradient>
<linearGradient id="paint11_linear_64_1343" x1="29.1866" y1="64.6689" x2="86.2623" y2="55.6815" gradientUnits="userSpaceOnUse">
<stop stop-color="#BFBFBF" stop-opacity="0.66"/>
<stop offset="0.13" stop-color="#606060" stop-opacity="0.83"/>
<stop offset="0.25"/>
<stop offset="0.5" stop-color="#565656"/>
<stop offset="0.75" stop-color="#ADADAD"/>
<stop offset="0.88" stop-color="#ADADAD" stop-opacity="0.84"/>
<stop offset="1" stop-color="#ACACAC" stop-opacity="0.68"/>
</linearGradient>
<linearGradient id="paint12_linear_64_1343" x1="29.753" y1="58.3357" x2="86.8286" y2="49.3484" gradientUnits="userSpaceOnUse">
<stop stop-color="#BFBFBF" stop-opacity="0.66"/>
<stop offset="0.13" stop-color="#606060" stop-opacity="0.83"/>
<stop offset="0.25"/>
<stop offset="0.5" stop-color="#565656"/>
<stop offset="0.75" stop-color="#ADADAD"/>
<stop offset="0.88" stop-color="#ADADAD" stop-opacity="0.84"/>
<stop offset="1" stop-color="#ACACAC" stop-opacity="0.68"/>
</linearGradient>
<linearGradient id="paint13_linear_64_1343" x1="-0.895625" y1="59.8389" x2="51.5113" y2="60.7726" gradientUnits="userSpaceOnUse">
<stop stop-color="#BFBFBF" stop-opacity="0.66"/>
<stop offset="0.13" stop-color="#606060" stop-opacity="0.83"/>
<stop offset="0.25"/>
<stop offset="0.5" stop-color="#565656"/>
<stop offset="0.75" stop-color="#ADADAD"/>
<stop offset="0.88" stop-color="#ADADAD" stop-opacity="0.84"/>
<stop offset="1" stop-color="#ACACAC" stop-opacity="0.68"/>
</linearGradient>
<linearGradient id="paint14_linear_64_1343" x1="55.9716" y1="52.1361" x2="113.047" y2="43.1487" gradientUnits="userSpaceOnUse">
<stop stop-color="#BFBFBF" stop-opacity="0.66"/>
<stop offset="0.13" stop-color="#606060" stop-opacity="0.83"/>
<stop offset="0.25"/>
<stop offset="0.5" stop-color="#565656"/>
<stop offset="0.75" stop-color="#ADADAD"/>
<stop offset="0.88" stop-color="#ADADAD" stop-opacity="0.84"/>
<stop offset="1" stop-color="#ACACAC" stop-opacity="0.68"/>
</linearGradient>
<linearGradient id="paint15_linear_64_1343" x1="25.4686" y1="56.8049" x2="82.5443" y2="47.8176" gradientUnits="userSpaceOnUse">
<stop stop-color="#BFBFBF" stop-opacity="0.66"/>
<stop offset="0.13" stop-color="#606060" stop-opacity="0.83"/>
<stop offset="0.25"/>
<stop offset="0.5" stop-color="#565656"/>
<stop offset="0.75" stop-color="#ADADAD"/>
<stop offset="0.88" stop-color="#ADADAD" stop-opacity="0.84"/>
<stop offset="1" stop-color="#ACACAC" stop-opacity="0.68"/>
</linearGradient>
<linearGradient id="paint16_linear_64_1343" x1="32.7803" y1="44.7132" x2="89.8559" y2="35.7259" gradientUnits="userSpaceOnUse">
<stop stop-color="#BFBFBF" stop-opacity="0.66"/>
<stop offset="0.13" stop-color="#606060" stop-opacity="0.83"/>
<stop offset="0.25"/>
<stop offset="0.5" stop-color="#565656"/>
<stop offset="0.75" stop-color="#ADADAD"/>
<stop offset="0.88" stop-color="#ADADAD" stop-opacity="0.84"/>
<stop offset="1" stop-color="#ACACAC" stop-opacity="0.68"/>
</linearGradient>
<linearGradient id="paint17_linear_64_1343" x1="46.55" y1="68.6071" x2="42.3273" y2="46.4315" gradientUnits="userSpaceOnUse">
<stop stop-opacity="0.44"/>
<stop offset="0.5" stop-opacity="0.22"/>
<stop offset="1" stop-opacity="0"/>
</linearGradient>
<linearGradient id="paint18_linear_64_1343" x1="91.34" y1="44.6963" x2="67.7627" y2="44.0543" gradientUnits="userSpaceOnUse">
<stop stop-color="#2A2723"/>
<stop offset="0.5" stop-color="#312F2D"/>
<stop offset="1" stop-color="#383736"/>
</linearGradient>
<linearGradient id="paint19_linear_64_1343" x1="63.8566" y1="42.303" x2="66.8189" y2="47.7888" gradientUnits="userSpaceOnUse">
<stop stop-color="#8A8981"/>
<stop offset="0.07" stop-color="#68675E"/>
<stop offset="0.15" stop-color="#46443A"/>
<stop offset="0.57" stop-color="#5A5953"/>
<stop offset="1" stop-color="#6E6E6D"/>
</linearGradient>
<linearGradient id="paint20_linear_64_1343" x1="20.3614" y1="50.801" x2="51.2919" y2="46.5407" gradientUnits="userSpaceOnUse">
<stop stop-color="#2A2723"/>
<stop offset="0.5" stop-color="#312F2D"/>
<stop offset="1" stop-color="#383736"/>
</linearGradient>
<linearGradient id="paint21_linear_64_1343" x1="55.2389" y1="43.2477" x2="56.9596" y2="47.9638" gradientUnits="userSpaceOnUse">
<stop stop-color="#8A8981"/>
<stop offset="0.07" stop-color="#68675E"/>
<stop offset="0.15" stop-color="#46443A"/>
<stop offset="0.57" stop-color="#5A5953"/>
<stop offset="1" stop-color="#6E6E6D"/>
</linearGradient>
<linearGradient id="paint22_linear_64_1343" x1="60.0719" y1="50.0142" x2="62.4808" y2="53.6145" gradientUnits="userSpaceOnUse">
<stop stop-color="#8A8981"/>
<stop offset="0.07" stop-color="#69685F"/>
<stop offset="0.15" stop-color="#48473D"/>
<stop offset="0.57" stop-color="#56554F"/>
<stop offset="1" stop-color="#646360"/>
</linearGradient>
<linearGradient id="paint23_linear_64_1343" x1="82.6183" y1="45.3666" x2="79.5953" y2="40.0059" gradientUnits="userSpaceOnUse">
<stop stop-color="#8A8981"/>
<stop offset="0.07" stop-color="#68675E"/>
<stop offset="0.15" stop-color="#46443A"/>
<stop offset="0.57" stop-color="#5A5953"/>
<stop offset="1" stop-color="#6E6E6D"/>
</linearGradient>
<linearGradient id="paint24_linear_64_1343" x1="79.949" y1="49.8444" x2="78.5775" y2="38.902" gradientUnits="userSpaceOnUse">
<stop stop-color="#8A8981"/>
<stop offset="0.07" stop-color="#68675E"/>
<stop offset="0.15" stop-color="#46443A"/>
<stop offset="0.57" stop-color="#5A5953"/>
<stop offset="1" stop-color="#6E6E6D"/>
</linearGradient>
<linearGradient id="paint25_linear_64_1343" x1="32.1962" y1="50.2689" x2="30.6245" y2="44.0114" gradientUnits="userSpaceOnUse">
<stop stop-color="#8A8981"/>
<stop offset="0.07" stop-color="#68675E"/>
<stop offset="0.15" stop-color="#46443A"/>
<stop offset="0.57" stop-color="#5A5953"/>
<stop offset="1" stop-color="#6E6E6D"/>
</linearGradient>
<linearGradient id="paint26_linear_64_1343" x1="30.5874" y1="50.4608" x2="29.0156" y2="44.2033" gradientUnits="userSpaceOnUse">
<stop stop-color="#8A8981"/>
<stop offset="0.07" stop-color="#68675E"/>
<stop offset="0.15" stop-color="#46443A"/>
<stop offset="0.57" stop-color="#5A5953"/>
<stop offset="1" stop-color="#6E6E6D"/>
</linearGradient>
</defs>
</svg>
