<svg width="24" height="26" viewBox="0 0 24 26" fill="none" xmlns="http://www.w3.org/2000/svg">
<path d="M21.3874 5.3125L13.9624 1.025C12.7499 0.325 11.2499 0.325 10.0249 1.025L2.6124 5.3125C1.3999 6.0125 0.649902 7.3125 0.649902 8.725V17.275C0.649902 18.675 1.3999 19.975 2.6124 20.6875L10.0374 24.975C11.2499 25.675 12.7499 25.675 13.9749 24.975L21.3999 20.6875C22.6124 19.9875 23.3624 18.6875 23.3624 17.275V8.725C23.3499 7.3125 22.5999 6.025 21.3874 5.3125ZM11.9999 7.175C13.6124 7.175 14.9124 8.475 14.9124 10.0875C14.9124 11.7 13.6124 13 11.9999 13C10.3874 13 9.0874 11.7 9.0874 10.0875C9.0874 8.4875 10.3874 7.175 11.9999 7.175ZM15.3499 18.825H8.6499C7.6374 18.825 7.0499 17.7 7.6124 16.8625C8.4624 15.6 10.1124 14.75 11.9999 14.75C13.8874 14.75 15.5374 15.6 16.3874 16.8625C16.9499 17.6875 16.3499 18.825 15.3499 18.825Z" fill="#090707"/>
</svg>
