<svg width="144" height="149" viewBox="0 0 144 149" fill="none" xmlns="http://www.w3.org/2000/svg">
<path d="M72.1279 148.826C53.7189 148.826 35.5941 147.609 17.8293 145.253C8.19817 143.975 -0.930409 137.381 0.0761566 127.718L11.3262 19.7178C11.7872 15.2921 13.1958 11.1749 15.3369 7.55859C19.4688 0.580225 28.3676 -0.763401 36.4014 0.345703C48.2429 1.98056 60.3369 2.82616 72.6279 2.82617C84.301 2.82616 95.7963 2.06385 107.066 0.586914C115.217 -0.481227 124.242 0.990181 128.265 8.15918C130.211 11.6284 131.493 15.5352 131.929 19.7178L143.179 127.718C144.199 137.511 134.906 144.157 125.141 145.421C107.788 147.667 90.0932 148.826 72.1279 148.826Z" fill="#141313"/>
</svg>
