<svg width="148" height="154" viewBox="0 0 148 154" fill="none" xmlns="http://www.w3.org/2000/svg">
<mask id="mask0_59_30204" style="mask-type:alpha" maskUnits="userSpaceOnUse" x="-1" y="0" width="149" height="154">
<path d="M16.5264 9.0498C20.9838 1.51931 30.4604 0.233224 38.5879 1.35547C50.3845 2.98437 62.4332 3.82616 74.6787 3.82617L76.8574 3.81738C87.7389 3.72847 98.462 2.97439 108.987 1.59473C117.231 0.514254 126.845 1.93133 131.187 9.66699C133.2 13.2534 134.524 17.2924 134.975 21.6143L146.225 129.614C146.295 130.291 146.344 130.964 146.37 131.634C146.574 136.775 144.201 140.975 140.589 144.011C136.993 147.032 132.147 148.928 127.251 149.549C110.198 151.711 92.8181 152.826 75.1787 152.826C56.4808 152.826 38.0748 151.574 20.04 149.149C15.0808 148.483 10.1901 146.499 6.60156 143.386C2.99613 140.258 0.682376 135.958 1.03516 130.754C1.06083 130.375 1.09411 129.995 1.13379 129.614L12.3838 21.6143C12.86 17.0429 14.3141 12.7876 16.5264 9.0498Z" fill="#828181" stroke="#F91536" stroke-width="2"/>
</mask>
<g mask="url(#mask0_59_30204)">
<path d="M16.5264 9.0498C20.9838 1.51931 30.4604 0.233224 38.5879 1.35547C50.3845 2.98437 62.4332 3.82616 74.6787 3.82617L76.8574 3.81738C87.7389 3.72847 98.462 2.97439 108.987 1.59473C117.231 0.514254 126.845 1.93133 131.187 9.66699C133.2 13.2534 134.524 17.2924 134.975 21.6143L146.225 129.614C146.295 130.291 146.344 130.964 146.37 131.634C146.574 136.775 144.201 140.975 140.589 144.011C136.993 147.032 132.147 148.928 127.251 149.549C110.198 151.711 92.8181 152.826 75.1787 152.826C56.4808 152.826 38.0748 151.574 20.04 149.149C15.0808 148.483 10.1901 146.499 6.60156 143.386C2.99613 140.258 0.682376 135.958 1.03516 130.754C1.06083 130.375 1.09411 129.995 1.13379 129.614L12.3838 21.6143C12.86 17.0429 14.3141 12.7876 16.5264 9.0498Z" fill="#141313" stroke="#F91536" stroke-width="2"/>
<g filter="url(#filter0_f_59_30204)">
<path d="M17.3867 -145.615C21.5178 -152.594 30.4172 -153.937 38.4512 -152.828C50.293 -151.193 62.3873 -150.348 74.6787 -150.348C86.3517 -150.348 97.8471 -151.11 109.117 -152.588C117.267 -153.656 126.291 -152.185 130.314 -145.017C132.262 -141.548 133.545 -137.64 133.98 -133.456L145.23 -25.4559C145.299 -24.8007 145.345 -24.1487 145.371 -23.5005C145.75 -13.9519 136.605 -7.81863 127.125 -6.6167C110.113 -4.45992 92.7759 -3.3475 75.1787 -3.3475C56.5255 -3.3475 38.1642 -4.59703 20.1734 -7.01576C10.5718 -8.30663 1.37782 -14.6865 2.03305 -24.3523C2.05791 -24.7191 2.0895 -25.087 2.12793 -25.4559L13.3779 -133.456C13.8389 -137.881 15.2463 -141.999 17.3867 -145.615Z" fill="#F91536"/>
</g>
<g filter="url(#filter1_f_59_30204)">
<path d="M129.996 295.094C125.865 302.073 116.965 303.416 108.931 302.306C97.0894 300.671 84.9952 299.826 72.7037 299.826C61.0307 299.826 49.5353 300.589 38.2653 302.066C30.1153 303.134 21.0912 301.664 17.068 294.496C15.1204 291.026 13.8378 287.118 13.402 282.934L2.15199 174.934C2.08374 174.279 2.03707 173.627 2.01138 172.979C1.6329 163.43 10.7771 157.297 20.2573 156.095C37.269 153.938 54.6065 152.826 72.2037 152.826C90.8569 152.826 109.218 154.076 127.209 156.494C136.811 157.785 146.005 164.165 145.349 173.831C145.325 174.198 145.293 174.566 145.255 174.934L134.005 282.934C133.544 287.36 132.136 291.477 129.996 295.094Z" fill="#F91536"/>
</g>
<rect x="22.1787" y="143.826" width="104" height="10" fill="#F91536"/>
<path d="M12.1787 153.826L22.1787 143.826V153.826H12.1787Z" fill="#F91536"/>
<path d="M136.179 153.826L126.179 143.826V153.826H136.179Z" fill="#F91536"/>
<rect x="110.179" y="6.82617" width="72" height="6.99999" transform="rotate(-180 110.179 6.82617)" fill="#F91536"/>
<path d="M117.179 -0.173827L110.179 6.82617L110.179 -0.173828L117.179 -0.173827Z" fill="#F91536"/>
<path d="M31.1787 -0.173829L38.1787 6.82617L38.1787 -0.173828L31.1787 -0.173829Z" fill="#F91536"/>
</g>
<defs>
<filter id="filter0_f_59_30204" x="-70.3" y="-225.474" width="287.982" height="294.426" filterUnits="userSpaceOnUse" color-interpolation-filters="sRGB">
<feFlood flood-opacity="0" result="BackgroundImageFix"/>
<feBlend mode="normal" in="SourceGraphic" in2="BackgroundImageFix" result="shape"/>
<feGaussianBlur stdDeviation="36.15" result="effect1_foregroundBlur_59_30204"/>
</filter>
<filter id="filter1_f_59_30204" x="-70.3" y="80.5262" width="287.982" height="294.426" filterUnits="userSpaceOnUse" color-interpolation-filters="sRGB">
<feFlood flood-opacity="0" result="BackgroundImageFix"/>
<feBlend mode="normal" in="SourceGraphic" in2="BackgroundImageFix" result="shape"/>
<feGaussianBlur stdDeviation="36.15" result="effect1_foregroundBlur_59_30204"/>
</filter>
</defs>
</svg>
