<svg width="111" height="109" viewBox="0 0 111 109" fill="none" xmlns="http://www.w3.org/2000/svg">
<path d="M12.6142 2C12.6142 2 12.0201 14.511 2 14.8881C2 14.8881 12.0903 14.129 12.9071 31.3377C12.9071 31.3377 11.4015 15.424 22.8001 14.9606C22.8001 14.9606 14.1387 15.3584 12.6142 2Z" fill="#FFFED7"/>
<path d="M12.6142 2C12.6142 2 12.0201 14.511 2 14.8881C2 14.8881 12.0903 14.129 12.9071 31.3377C12.9071 31.3377 11.4015 15.424 22.8001 14.9606C22.8001 14.9606 14.1387 15.3584 12.6142 2Z" stroke="url(#paint0_radial_59_31533)" stroke-width="2.86363" stroke-linecap="round" stroke-linejoin="round"/>
<path d="M107.113 26.1342L107.114 26.1337L101.599 22.0738L97.8224 24.9962L40.4225 19.9245C38.5966 19.7633 36.9326 20.9768 36.5284 22.7648L22.9173 82.9608L17.5786 87.0921L23.1662 91.1836L23.1695 91.1809C23.5881 91.5171 24.0846 91.7695 24.643 91.8971L90.3481 106.907C92.3694 107.369 94.3707 106.062 94.7606 104.026L108.934 30.0254C109.242 28.4176 108.449 26.8761 107.113 26.1342Z" fill="#00B287"/>
<path d="M107.113 26.1342L107.114 26.1337L101.599 22.0738L97.8224 24.9962L40.4225 19.9245C38.5966 19.7633 36.9326 20.9768 36.5284 22.7648L22.9173 82.9608L17.5786 87.0921L23.1662 91.1836L23.1695 91.1809C23.5881 91.5171 24.0846 91.7695 24.643 91.8971L90.3481 106.907C92.3694 107.369 94.3707 106.062 94.7606 104.026L108.934 30.0254C109.242 28.4176 108.449 26.8761 107.113 26.1342Z" stroke="#05755F" stroke-width="2.86363" stroke-linecap="round" stroke-linejoin="round"/>
<path d="M18.9943 87.7579L84.6995 102.768C86.7207 103.229 88.722 101.923 89.1119 99.8867L103.285 25.8863C103.693 23.7564 102.171 21.7406 100.01 21.5496L34.7738 15.7853C32.9479 15.6241 31.2839 16.8376 30.8797 18.6256L16.238 83.3801C15.7925 85.3496 17.0257 87.3081 18.9943 87.7579Z" fill="url(#paint1_linear_59_31533)"/>
<path d="M37.6836 63.1049L37.6832 63.1069C37.0378 65.8108 34.4088 67.5528 31.6672 67.0928L31.6654 67.0926C28.6467 66.5862 26.6877 63.6296 27.3984 60.6523L27.3988 60.6503C28.0442 57.9464 30.6735 56.2044 33.4151 56.6644L33.4166 56.6646C36.4353 57.171 38.3943 60.1276 37.6836 63.1049Z" fill="white"/>
<path d="M34.0023 78.5297L34.0021 78.5299C33.3497 81.2634 30.6726 83.0084 27.9083 82.5022L27.9072 82.502C24.9271 81.9561 23.0144 79.0218 23.7179 76.0749L23.7182 76.0747C24.3706 73.3412 27.0477 71.5962 29.812 72.1024L29.8131 72.1026C32.7932 72.6485 34.7059 75.5828 34.0023 78.5297Z" fill="white"/>
<path d="M90.2698 54.5599L90.2696 54.5616C89.7345 57.3327 87.1169 59.195 84.3236 58.7914L84.3225 58.7912C81.3359 58.3599 79.3159 55.5201 79.888 52.5573L79.8885 52.5555C80.4235 49.7849 83.0402 47.9229 85.8331 48.3257L85.8342 48.326C88.8212 48.7568 90.8418 51.5967 90.2698 54.5599Z" fill="white"/>
<path d="M87.0644 71.1571L87.064 71.1588C86.5201 73.9755 83.8292 75.8444 80.9999 75.3701L80.9979 75.3699C78.0682 74.8787 76.1185 72.0706 76.682 69.1538L76.6822 69.1521C77.2265 66.3351 79.9183 64.467 82.7476 64.9419L82.7494 64.9421C85.6782 65.4338 87.6272 68.241 87.0644 71.1571Z" fill="white"/>
<path d="M83.9228 87.4288L83.9222 87.4319C83.3726 90.2788 80.6325 92.1516 77.7805 91.6298L77.779 91.6293C74.8876 91.1002 72.9831 88.3141 73.5402 85.4278L73.5408 85.4247C74.0904 82.5781 76.8305 80.705 79.6824 81.2269L79.684 81.2273C82.5754 81.7564 84.4799 84.5427 83.9228 87.4288Z" fill="white"/>
<path d="M73.8326 52.242L73.8322 52.2449C73.2735 54.9902 70.6698 56.8227 67.897 56.4225L67.8947 56.422C64.8873 55.9879 62.8642 53.1137 63.4702 50.1361L63.4707 50.1333C64.0293 47.3879 66.633 45.5554 69.4059 45.9557L69.4081 45.9561C72.4155 46.3903 74.4386 49.2645 73.8326 52.242Z" fill="white"/>
<path d="M70.5358 68.4386L70.5356 68.4393C69.9675 71.2305 67.29 73.0694 64.481 72.598L64.4787 72.5977C61.529 72.1028 59.5771 69.261 60.1738 66.3301L60.174 66.3295C60.7421 63.5383 63.4196 61.6994 66.2286 62.1708L66.2309 62.1713C69.1806 62.6662 71.1323 65.5078 70.5358 68.4386Z" fill="white"/>
<path d="M67.2784 84.4382L67.278 84.4397C66.7037 87.2606 63.9777 89.1032 61.1461 88.5847L61.1436 88.5843C58.2318 88.051 56.3252 85.2307 56.916 82.3299L56.9165 82.3283C57.491 79.5079 60.216 77.6655 63.0473 78.1833L63.0497 78.1838C65.962 78.7166 67.8692 81.5371 67.2784 84.4382Z" fill="white"/>
<path d="M56.8507 49.8193L56.8505 49.821C56.28 52.5534 53.6833 54.3711 50.9208 53.9724C47.9023 53.5367 45.8779 50.6444 46.5018 47.6592L46.502 47.6574C47.0729 44.9255 49.6691 43.1082 52.4315 43.5069C55.4493 43.9426 57.4739 46.8345 56.8507 49.8193Z" fill="white"/>
<path d="M53.5526 65.617L53.5524 65.6174C52.9722 68.3953 50.3019 70.2195 47.5031 69.7498C44.543 69.2531 42.5897 66.3941 43.2034 63.456L43.2037 63.4556C43.7839 60.6776 46.4541 58.8535 49.253 59.3231C52.2131 59.8199 54.1663 62.6789 53.5526 65.617Z" fill="white"/>
<path d="M50.2664 81.3518L50.2662 81.3529C49.6796 84.1602 46.9616 85.9878 44.1404 85.4717L44.1396 85.4715C41.2169 84.9369 39.3086 82.099 39.9164 79.1907L39.9168 79.1893C40.5034 76.3821 43.2212 74.5544 46.0423 75.0706L46.0432 75.0708C48.9659 75.6054 50.8742 78.4435 50.2664 81.3518Z" fill="white"/>
<g opacity="0.3">
<path d="M98.2653 35.8784L85.6318 101.504" stroke="white" stroke-width="2.86363" stroke-linecap="round" stroke-linejoin="round"/>
</g>
<g opacity="0.3">
<path d="M17.5786 87.0919L30.2923 32.7622" stroke="white" stroke-width="2.86363" stroke-linecap="round" stroke-linejoin="round"/>
</g>
<g opacity="0.2">
<path d="M102.62 29.7853L99.4149 46.5266C91.2249 67.3606 80.9004 76.2929 76.29 79.4385C74.9088 80.3813 73.2854 80.9034 71.6156 80.9584C48.4577 81.7074 30.8485 81.2801 19.046 80.6655C18.3014 80.6258 17.5789 80.5884 16.8784 80.5487L25.2314 43.6057C29.3683 33.9971 31.2274 26.719 31.3992 26.0318C31.408 25.9965 31.4125 25.9789 31.4125 25.9789C31.8178 24.1924 33.4809 22.9765 35.307 23.1373L100.545 28.902C101.347 28.9747 102.06 29.2963 102.62 29.7853Z" fill="#007F79"/>
</g>
<path d="M18.9943 87.7579L84.6995 102.768C86.7208 103.229 88.722 101.923 89.1119 99.8867L103.285 25.8863C103.693 23.7564 102.171 21.7406 100.01 21.5496L34.7738 15.7853C32.9479 15.6241 31.2839 16.8376 30.8797 18.6256L16.238 83.3801C15.7925 85.3496 17.0257 87.3081 18.9943 87.7579Z" stroke="#0E9E86" stroke-width="2.86363" stroke-linecap="round" stroke-linejoin="round"/>
<path d="M19.1694 87.9146L84.8746 102.924C86.8959 103.386 88.8971 102.08 89.287 100.043L103.46 26.043C103.868 23.9131 102.346 21.8973 100.186 21.7064L34.9489 15.9421C33.123 15.7808 31.459 16.9944 31.0548 18.7824" stroke="#05755F" stroke-width="2.86363" stroke-linecap="round" stroke-linejoin="round"/>
<path d="M103.285 25.8873L100.486 40.5028L27.864 31.9635L30.8796 18.6247C31.285 16.8382 32.9481 15.6245 34.7742 15.7853L100.01 21.55C102.171 21.7394 103.693 23.7572 103.285 25.8873Z" fill="#AAFF50"/>
<path d="M103.285 25.8873L100.486 40.5028L27.864 31.9635L30.8796 18.6247C31.285 16.8382 32.9481 15.6245 34.7742 15.7853L100.01 21.55C102.171 21.7394 103.693 23.7572 103.285 25.8873Z" stroke="#61A017" stroke-width="2.86363" stroke-linecap="round" stroke-linejoin="round"/>
<g opacity="0.4">
<path d="M101.94 30.4606L101.314 25.3217C101.241 24.7241 100.759 24.2596 100.16 24.2076L34.7503 18.5404C34.1373 18.4874 33.5736 18.8797 33.4123 19.4735C31.9164 24.9836 31.3093 29.6588 31.3596 29.685" stroke="white" stroke-width="2.86363" stroke-linecap="round" stroke-linejoin="round"/>
</g>
<path d="M108.933 30.0244L106.129 44.6619L100.486 40.5031L103.285 25.8875C103.539 24.5614 103.045 23.2794 102.116 22.4556L107.114 26.1342C108.449 26.8766 109.242 28.4185 108.933 30.0244Z" fill="#55B219"/>
<path d="M108.933 30.0244L106.129 44.6619L100.486 40.5031L103.285 25.8875C103.539 24.5614 103.045 23.2794 102.116 22.4556L107.114 26.1342C108.449 26.8766 109.242 28.4185 108.933 30.0244Z" stroke="#35720E" stroke-width="2.86363" stroke-linecap="round" stroke-linejoin="round"/>
<path d="M93.127 106.428C92.3322 106.934 91.3434 107.134 90.3497 106.907L24.6441 91.8957C24.085 91.7693 23.5892 91.5175 23.1702 91.1814L23.1656 91.1825L17.5786 87.0928C17.9853 87.4049 18.4622 87.6362 18.9937 87.7589L84.6986 102.768C85.815 103.024 86.9259 102.739 87.7627 102.092L93.127 106.428Z" fill="#05755F"/>
<path d="M93.127 106.428C92.3322 106.934 91.3434 107.134 90.3497 106.907L24.6441 91.8957C24.085 91.7693 23.5892 91.5175 23.1702 91.1814L23.1656 91.1825L17.5786 87.0928C17.9853 87.4049 18.4622 87.6362 18.9937 87.7589L84.6986 102.768C85.815 103.024 86.9259 102.739 87.7627 102.092L93.127 106.428Z" stroke="#05755F" stroke-width="2.86363" stroke-linecap="round" stroke-linejoin="round"/>
<path d="M87.9322 20.4822C89.0863 8.26129 79.1191 5.2265 74.871 13.9736C71.2912 21.3443 72.8841 28.7319 74.2571 30.1029C76.0775 31.9204 80.7214 29.5614 80.5932 26.8458C80.4397 23.5947 80.3897 21.7307 81.2357 19.1664C82.203 16.2352 82.9253 18.9631 82.7592 20.0251L87.9322 20.4822Z" fill="url(#paint2_linear_59_31533)"/>
<g opacity="0.85">
<path d="M72.894 26.2701C72.894 26.2701 73.1767 14.1168 79.8267 11.9079C86.1575 9.80484 85.8522 20.0582 85.8522 20.0582" stroke="white" stroke-width="2.86363" stroke-linecap="round" stroke-linejoin="round"/>
</g>
<path d="M55.878 17.6497C57.0321 5.42877 47.0649 2.39398 42.8168 11.1411C39.237 18.5118 40.8299 25.8993 42.2029 27.2704C44.0233 29.0879 48.6672 26.7289 48.539 24.0133C48.3855 20.7622 48.3355 18.8982 49.1815 16.3339C50.1488 13.4027 50.8711 16.1306 50.705 17.1926L55.878 17.6497Z" fill="url(#paint3_linear_59_31533)"/>
<g opacity="0.85">
<path d="M40.8533 23.5282C40.8533 23.5282 41.3273 10.2629 48.3027 8.96152C54.2901 7.84427 53.6079 17.0198 53.6079 17.0198" stroke="white" stroke-width="2.86363" stroke-linecap="round" stroke-linejoin="round"/>
</g>
<path d="M87.9322 20.4822C89.0863 8.26129 79.1191 5.2265 74.871 13.9736C71.2912 21.3443 72.8841 28.7319 74.2571 30.1029C76.0775 31.9204 80.7214 29.5614 80.5932 26.8458C80.4397 23.5947 80.3897 21.7307 81.2357 19.1664C82.203 16.2352 82.9253 18.9631 82.7592 20.0251L87.9322 20.4822Z" stroke="#87746B" stroke-width="2.86363" stroke-linecap="round" stroke-linejoin="round"/>
<path d="M55.878 17.6497C57.0321 5.42877 47.0649 2.39398 42.8168 11.1411C39.237 18.5118 40.8299 25.8993 42.2029 27.2704C44.0233 29.0879 48.6672 26.7289 48.539 24.0133C48.3855 20.7622 48.3355 18.8982 49.1815 16.3339C50.1488 13.4027 50.8711 16.1306 50.705 17.1926L55.878 17.6497Z" stroke="#87746B" stroke-width="2.86363" stroke-linecap="round" stroke-linejoin="round"/>
<path d="M82.759 20.0249L91.0517 20.7576" stroke="#61A017" stroke-width="2.86363" stroke-linecap="round" stroke-linejoin="round"/>
<path d="M50.7053 17.1924L63.2894 18.3048" stroke="#61A017" stroke-width="2.86363" stroke-linecap="round" stroke-linejoin="round"/>
<path d="M74.2571 30.1029C76.0775 31.9204 80.7214 29.5616 80.5932 26.846C80.4397 23.5949 80.3897 21.7307 81.2358 19.1664C82.203 16.2352 82.9255 18.9631 82.7594 20.0251" stroke="#6D5D57" stroke-width="2.86363" stroke-linecap="round" stroke-linejoin="round"/>
<path d="M42.2031 27.2708C44.0235 29.0884 48.6674 26.7296 48.5392 24.014C48.3857 20.7629 48.3357 18.8987 49.1818 16.3344C50.149 13.4031 50.8716 16.1311 50.7055 17.1931" stroke="#6D5D57" stroke-width="2.86363" stroke-linecap="round" stroke-linejoin="round"/>
<path d="M100.011 21.5495L34.7737 15.7848C32.9485 15.6238 31.2845 16.8382 30.8798 18.6253C30.8798 18.6253 30.8761 18.6432 30.8668 18.6791C30.5221 20.0626 23.3522 48.0864 4.5701 68.1311C3.09622 69.7042 4.06588 72.2805 6.21317 72.4702C9.14443 72.729 13.252 73.0387 18.5134 73.3114C30.3159 73.9269 47.9257 74.3538 71.0837 73.6044C72.7536 73.5504 74.3773 73.0271 75.7574 72.0854C81.2458 68.3402 94.8404 56.3894 103.279 25.9111C103.284 25.8941 103.288 25.8769 103.291 25.8597C103.681 23.7391 102.162 21.7405 100.011 21.5495Z" fill="#85F1FF"/>
<path d="M103.286 25.8853C101.917 30.8376 100.409 35.2991 98.8243 39.3179L26.2993 32.3796L26.2969 32.38C29.3211 24.7429 30.7181 19.2694 30.867 18.6788C30.8763 18.6429 30.8798 18.6251 30.8798 18.6251C31.2844 16.838 32.9484 15.6238 34.7737 15.7848L100.012 21.5493C102.171 21.7412 103.693 23.755 103.286 25.8853Z" fill="#AAFF50"/>
<g opacity="0.4">
<path d="M101.94 30.4606L101.314 25.3217C101.241 24.7241 100.76 24.2596 100.16 24.2076L34.7506 18.5404C34.1375 18.4874 33.5738 18.8797 33.4126 19.4735C31.9167 24.9836 23.9463 51.5667 4.54077 71.6483" stroke="white" stroke-width="2.86363" stroke-linecap="round" stroke-linejoin="round"/>
</g>
<path d="M100.053 21.5661L34.815 15.8014C32.9897 15.6404 31.3258 16.8548 30.9211 18.6419C30.9211 18.6419 30.9174 18.6598 30.9081 18.6957C30.5634 20.0792 23.3935 48.103 4.61136 68.1477C3.13747 69.7208 4.10714 72.2971 6.25443 72.4868C9.18569 72.7456 13.2932 73.0553 18.5546 73.328C30.3572 73.9435 47.967 74.3704 71.125 73.621C72.7949 73.5671 74.4186 73.0437 75.7986 72.102C81.2871 68.3568 94.8817 56.406 103.321 25.9277C103.325 25.9107 103.329 25.8935 103.332 25.8763C103.722 23.7557 102.204 21.7571 100.053 21.5661Z" stroke="#188B9E" stroke-width="2.86363" stroke-linecap="round" stroke-linejoin="round"/>
<path d="M103.286 25.8853C101.917 30.8376 100.409 35.2991 98.8243 39.3179L26.2993 32.3796L26.2969 32.38C29.3211 24.7429 30.7181 19.2694 30.867 18.6788C30.8763 18.6429 30.8798 18.6251 30.8798 18.6251C31.2844 16.838 32.9484 15.6238 34.7737 15.7848L100.012 21.5493C102.171 21.7412 103.693 23.755 103.286 25.8853Z" stroke="#61A017" stroke-width="2.86363" stroke-linecap="round" stroke-linejoin="round"/>
<path d="M87.9322 20.4822C89.0863 8.26129 79.1191 5.2265 74.871 13.9736C71.2912 21.3443 72.8841 28.7319 74.2571 30.1029C76.0775 31.9204 80.7214 29.5614 80.5932 26.8458C80.4397 23.5947 80.3897 21.7307 81.2357 19.1664C82.203 16.2352 82.9253 18.9631 82.7592 20.0251L87.9322 20.4822Z" fill="url(#paint4_linear_59_31533)"/>
<g opacity="0.85">
<path d="M72.894 26.2701C72.894 26.2701 73.1767 14.1168 79.8267 11.9079C86.1575 9.80484 85.8522 20.0582 85.8522 20.0582" stroke="white" stroke-width="2.86363" stroke-linecap="round" stroke-linejoin="round"/>
</g>
<path d="M55.878 17.6497C57.0321 5.42877 47.0649 2.39398 42.8168 11.1411C39.237 18.5118 40.8299 25.8993 42.2029 27.2704C44.0233 29.0879 48.6672 26.7289 48.539 24.0133C48.3855 20.7622 48.3355 18.8982 49.1815 16.3339C50.1488 13.4027 50.8711 16.1306 50.705 17.1926L55.878 17.6497Z" fill="url(#paint5_linear_59_31533)"/>
<g opacity="0.85">
<path d="M40.8535 23.5282C40.8535 23.5282 41.3276 10.2629 48.3029 8.96152C54.2903 7.84427 53.6081 17.0198 53.6081 17.0198" stroke="white" stroke-width="2.86363" stroke-linecap="round" stroke-linejoin="round"/>
</g>
<path d="M87.9413 20.4973C89.0953 8.27643 79.1281 5.24164 74.88 13.9887C71.3003 21.3595 72.8931 28.747 74.2661 30.118C76.0865 31.9355 80.7304 29.5766 80.6022 26.861C80.4487 23.6099 80.3987 21.7459 81.2448 19.1816C82.212 16.2503 82.9343 18.9783 82.7682 20.0402L87.9413 20.4973Z" stroke="#87746B" stroke-width="2.86363" stroke-linecap="round" stroke-linejoin="round"/>
<path d="M55.878 17.6497C57.0321 5.42877 47.0649 2.39398 42.8168 11.1411C39.237 18.5118 40.8299 25.8993 42.2029 27.2704C44.0233 29.0879 48.6672 26.7289 48.539 24.0133C48.3855 20.7622 48.3355 18.8982 49.1815 16.3339C50.1488 13.4027 50.8711 16.1306 50.705 17.1926L55.878 17.6497Z" stroke="#87746B" stroke-width="2.86363" stroke-linecap="round" stroke-linejoin="round"/>
<path d="M82.7593 20.2305L91.0519 20.9631" stroke="#61A017" stroke-width="2.86363" stroke-linecap="round" stroke-linejoin="round"/>
<path d="M50.7056 17.3979L63.2897 18.5104" stroke="#61A017" stroke-width="2.86363" stroke-linecap="round" stroke-linejoin="round"/>
<path d="M74.2571 30.1029C76.0775 31.9204 80.7214 29.5616 80.5932 26.846C80.4397 23.5949 80.3897 21.7307 81.2358 19.1664C82.203 16.2352 82.9255 18.9631 82.7594 20.0251" stroke="#6D5D57" stroke-width="2.86363" stroke-linecap="round" stroke-linejoin="round"/>
<path d="M42.2031 27.2708C44.0235 29.0884 48.6674 26.7296 48.5392 24.014C48.3857 20.7629 48.3357 18.8987 49.1818 16.3344C50.149 13.4031 50.8716 16.1311 50.7055 17.1931" stroke="#6D5D57" stroke-width="2.86363" stroke-linecap="round" stroke-linejoin="round"/>
<g opacity="0.5">
<path d="M41.4697 42.5382C43.6302 41.971 45.8944 41.4989 48.2373 41.1392C65.5129 38.4864 81.3909 42.8417 81.7799 51.0665C82.1094 58.0355 71.5807 66.2587 54.3051 68.9116C37.0295 71.5644 19.2439 68.9107 19.2188 60.6736C19.1941 52.608 31.2256 48.88 39.9971 48.6694" stroke="#008FF9" stroke-width="2.86363" stroke-linecap="round" stroke-linejoin="round"/>
</g>
<path d="M34.0315 51.8423C38.8695 48.5725 42.6575 39.7091 33.6824 41.687C31.651 41.9302 25.7656 52.3866 24.4483 53.7863C21.1377 59.4426 15.1545 64.8756 18.6206 65.5452C24.5111 66.4138 35.6894 59.2818 34.0315 51.8423ZM35.3832 46.1666C34.8305 48.4502 31.5897 49.9666 29.9725 50.5466L33.2729 45.6848C34.3038 45.6544 35.1523 45.593 35.3832 46.1666ZM29.2343 57.9469C27.9366 60.0517 24.6012 61.0202 22.7316 61.2136C23.5425 60.0195 24.6362 58.4084 26.8136 55.2C29.3698 54.5096 32.005 54.1634 29.2343 57.9469Z" fill="white"/>
<path d="M40.9374 57.212C42.441 57.3789 45.2282 53.78 42.9701 53.1073C39.1478 52.9681 37.8213 51.929 35.9786 54.5935C34.0402 58.0576 38.5275 56.6941 40.9374 57.212Z" fill="white"/>
<path d="M55.2144 56.3442C59.3817 50.963 58.3536 44.1938 53.5062 43.3748C51.0322 42.3888 40.6958 62.8944 39.4748 63.8185C37.3165 69.9458 51.3126 63.7037 55.2144 56.3442ZM54.2791 51.1619C54.0368 55.8888 46.5497 61.9545 43.9945 61.8769C45.3241 59.6862 50.7223 50.7887 52.4711 47.9072C53.4399 48.4681 54.3917 49.4571 54.2791 51.1619Z" fill="white"/>
<path d="M69.0901 45.4184C66.1509 43.5594 65.294 45.3422 57.6655 54.7272C53.6144 60.8102 50.8413 62.716 50.6357 65.8103C53.0562 68.3292 54.9169 62.5114 58.5936 58.1184C58.5933 58.1179 63.0018 58.3488 63.0018 58.3488C61.7052 61.6891 60.4258 64.5829 60.3672 64.7151C59.2788 67.6073 62.9304 66.9961 63.573 64.8386C64.2525 63.6513 71.2506 46.3537 69.0901 45.4184ZM65.9009 49.1177C65.83 49.8493 65.528 51.3642 64.4684 54.3851L61.5156 54.2064C63.906 51.1033 65.2312 49.7222 65.9009 49.1177Z" fill="white"/>
<path d="M83.3131 46.6904C80.9389 44.0644 79.6681 49.7642 75.1874 54.4026C74.4803 52.0469 75.1083 48.2724 75.4508 46.8781C75.9048 43.9404 72.3513 45.6181 72.1361 47.5222C72.1182 47.5893 70.4558 54.0686 72.1784 57.7319C70.2243 60.5612 64.8754 62.8058 64.6677 66.0314C64.936 67.1524 66.2112 67.0475 66.993 66.3602C78.2517 56.3869 82.9862 49.9725 83.3131 46.6904Z" fill="white"/>
<path d="M71.6756 73.7152C63.6354 75.147 21.6721 74.0456 4.04978 71.8429C4.27006 71.7327 3.93964 71.953 4.04978 71.953C27.84 74.4862 63.305 74.7065 71.7857 73.7152C71.7857 73.7152 71.6756 73.8254 71.6756 73.7152Z" fill="url(#paint6_linear_59_31533)"/>
<path d="M71.6756 73.7152C63.6354 75.147 21.6721 74.0456 4.04978 71.8429C4.27006 71.7327 3.93964 71.953 4.04978 71.953C27.84 74.4862 63.3049 74.7065 71.7857 73.7152C71.7857 73.7152 71.6756 73.8254 71.6756 73.7152Z" stroke="#9591AF" stroke-width="2.86363" stroke-linecap="round" stroke-linejoin="round"/>
<defs>
<radialGradient id="paint0_radial_59_31533" cx="0" cy="0" r="1" gradientUnits="userSpaceOnUse" gradientTransform="translate(54.2419 208.059) scale(13.9065)">
<stop stop-color="#FFFF8D"/>
<stop offset="0.5" stop-color="#FFE346"/>
<stop offset="1" stop-color="#FFC800"/>
</radialGradient>
<linearGradient id="paint1_linear_59_31533" x1="55.5543" y1="90.0638" x2="57.8437" y2="71.292" gradientUnits="userSpaceOnUse">
<stop stop-color="#52F4CF"/>
<stop offset="0.45" stop-color="#3DDCB7"/>
<stop offset="0.9" stop-color="#28C49F"/>
</linearGradient>
<linearGradient id="paint2_linear_59_31533" x1="80.887" y1="1.51127" x2="80.4104" y2="30.7503" gradientUnits="userSpaceOnUse">
<stop offset="0.33" stop-color="#DFDCD3"/>
<stop offset="0.77" stop-color="#BCB0A4"/>
<stop offset="0.94" stop-color="#998575"/>
</linearGradient>
<linearGradient id="paint3_linear_59_31533" x1="48.726" y1="1.07076" x2="48.2491" y2="30.3096" gradientUnits="userSpaceOnUse">
<stop offset="0.33" stop-color="#DFDCD3"/>
<stop offset="0.77" stop-color="#BCB0A4"/>
<stop offset="0.94" stop-color="#998575"/>
</linearGradient>
<linearGradient id="paint4_linear_59_31533" x1="80.887" y1="1.51127" x2="80.4104" y2="30.7503" gradientUnits="userSpaceOnUse">
<stop offset="0.33" stop-color="#DFDCD3"/>
<stop offset="0.77" stop-color="#BCB0A4"/>
<stop offset="0.94" stop-color="#998575"/>
</linearGradient>
<linearGradient id="paint5_linear_59_31533" x1="48.726" y1="1.07076" x2="48.2491" y2="30.3096" gradientUnits="userSpaceOnUse">
<stop offset="0.33" stop-color="#DFDCD3"/>
<stop offset="0.77" stop-color="#BCB0A4"/>
<stop offset="0.94" stop-color="#998575"/>
</linearGradient>
<linearGradient id="paint6_linear_59_31533" x1="42.6562" y1="53.5039" x2="41.2034" y2="76.0839" gradientUnits="userSpaceOnUse">
<stop stop-color="#D9D7EE"/>
<stop offset="0.72" stop-color="#BAB8D6"/>
<stop offset="1" stop-color="#9C98BE"/>
</linearGradient>
</defs>
</svg>
