<svg width="108" height="115" viewBox="0 0 108 115" fill="none" xmlns="http://www.w3.org/2000/svg">
<path d="M65.8947 41.1241C66.193 29.2918 64.1208 0.0130567 51.2392 0.747452C38.19 1.49142 37.1844 24.1342 36.9565 41.6892L40.0337 41.1446C40.2331 36.8863 38.13 4.50791 51.0674 4.03193C62.7652 3.60147 62.9697 33.2647 62.7664 39.642" fill="#27262B"/>
<path d="M65.8947 41.1241C66.193 29.2918 64.1208 0.0130567 51.2392 0.747452C38.19 1.49142 37.1844 24.1342 36.9565 41.6892L40.0337 41.1446C40.2331 36.8863 38.13 4.50791 51.0674 4.03193C62.7652 3.60147 62.9697 33.2647 62.7664 39.642" stroke="black" stroke-width="1.05469" stroke-linecap="round" stroke-linejoin="round"/>
<path d="M105.481 96.239C106.512 99.5643 104.517 100.592 82.6562 104.226C67.961 106.668 36.7181 112.322 26.8413 113.987C16.9646 115.653 10.8779 107.613 6.91574 104.168C2.95359 100.723 2.95336 98.3684 3.98702 92.626C3.98702 92.626 1.6328 90.4441 1.34567 84.1275C1.05854 77.8109 10.2931 52.5281 10.8779 42.4961C11.1615 37.6331 14.6442 37.7954 21.9088 36.0605C29.1734 34.3255 79.8594 30.87 87.5885 34.5359" fill="url(#paint0_linear_2064_24)"/>
<path d="M105.481 96.239C106.512 99.5643 104.517 100.592 82.6562 104.226C67.961 106.668 36.7181 112.322 26.8413 113.987C16.9646 115.653 10.8779 107.613 6.91574 104.168C2.95359 100.723 2.95336 98.3684 3.98702 92.626C3.98702 92.626 1.6328 90.4441 1.34567 84.1275C1.05854 77.8109 10.2931 52.5281 10.8779 42.4961C11.1615 37.6331 14.6442 37.7954 21.9088 36.0605C29.1734 34.3255 79.8594 30.87 87.5885 34.5359" stroke="black" stroke-width="1.05469" stroke-linecap="round" stroke-linejoin="round"/>
<path d="M15.006 49.3789C14.0387 66.8765 11.7902 80.555 5.37273 85.9008C2.02733 88.6876 7.85768 92.3096 10.8142 90.133C13.7707 87.9564 12.628 94.3704 17.3437 94.3046C20.9396 94.2544 21.2937 84.5209 15.006 49.3789Z" fill="url(#paint1_linear_2064_24)"/>
<path d="M12.7879 43.0962C11.3368 55.1881 4.40511 72.5998 3.39735 77.6782C2.3896 82.7566 7.14567 84.4498 8.45573 78.565C9.76578 72.6803 15.4481 48.5374 12.7879 43.0962Z" fill="url(#paint2_linear_2064_24)"/>
<path d="M19.7011 110.887C16.5572 100.108 5.79592 94.2649 4.36705 92.6719C3.58853 95.094 0.233327 100.746 19.7011 110.887Z" fill="url(#paint3_linear_2064_24)"/>
<path d="M12.0605 36.9987C40.0742 30.8073 65.9214 28.3977 88.6415 32.1309C88.722 33.5929 88.7204 34.1076 88.7683 34.7197C90.2872 35.2741 92.4566 36.5342 92.5857 37.5398C92.9104 40.068 15.0903 46.6369 14.1922 42.9388C13.941 41.9047 13.0075 40.3845 11.7178 39.5439C11.8186 38.9939 12.0147 38.0128 12.0605 36.9987Z" fill="url(#paint4_linear_2064_24)"/>
<path d="M12.0605 36.9987C40.0742 30.8073 65.9214 28.3977 88.6415 32.1309C88.722 33.5929 88.7204 34.1076 88.7683 34.7197C90.2872 35.2741 92.4566 36.5342 92.5857 37.5398C92.9104 40.068 15.0903 46.6369 14.1922 42.9388C13.941 41.9047 13.0075 40.3845 11.7178 39.5439C11.8186 38.9939 12.0147 38.0128 12.0605 36.9987Z" stroke="black" stroke-width="1.05469" stroke-linecap="round" stroke-linejoin="round"/>
<path d="M14.2659 42.7881C16.2627 50.6963 18.8595 79.1608 20.9268 85.4947C22.9941 91.8286 21.0034 108.417 23.1473 110.076C25.2912 111.735 50.2508 107.211 74.8277 103.215C99.4045 99.218 106.142 97.8606 106.908 94.92C107.674 91.9794 106.525 81.4984 104.917 76.0694C103.309 70.6403 93.8043 47.6931 92.667 37.4629C82.6661 38.9812 26.7576 43.4749 14.2659 42.7881Z" fill="url(#paint5_radial_2064_24)"/>
<path d="M15.1968 44.1532C24.5579 46.2537 73.4086 42.5416 92.0853 38.7837C92.2365 40.0534 93.0949 44.4602 93.6117 45.5249C92.8862 46.2201 91.9884 47.5472 90.5815 48.5339C91.1557 51.4683 91.7587 53.9189 91.73 54.2646C91.7013 54.6103 90.4412 56.3772 90.0679 56.5591C89.6946 56.7409 77.6613 57.7524 77.1732 57.4928C76.6851 57.2332 74.3309 55.3375 73.8715 54.922C73.4121 54.5065 71.9477 54.5756 71.9094 54.8872C71.8711 55.1988 69.5933 58.2457 69.2345 58.3885C68.8757 58.5314 52.07 60.3233 51.3713 60.1069C50.6726 59.8905 47.4138 57.5577 46.9689 57.0124C46.524 56.4671 44.4711 56.9734 44.4711 57.389C44.4711 57.8045 42.7196 60.7213 42.4421 60.9118C42.1645 61.1023 26.5356 62.8825 25.9613 62.692C25.3871 62.5015 21.6343 58.1388 21.3663 57.8792C21.0983 57.6196 21.4541 53.0869 21.1095 52.7753C20.765 52.4636 16.6588 49.6262 16.1037 49.228C15.8922 47.9786 15.4008 45.2754 15.1968 44.1532Z" fill="black" fill-opacity="0.33"/>
<path d="M14.2659 42.7881C16.2627 50.6963 18.8595 79.1608 20.9268 85.4947C22.9941 91.8286 21.0034 108.417 23.1473 110.076C25.2912 111.735 50.2508 107.211 74.8277 103.215C99.4045 99.218 106.142 97.8606 106.908 94.92C107.674 91.9794 106.525 81.4984 104.917 76.0694C103.309 70.6403 93.8043 47.6931 92.667 37.4629C82.6661 38.9812 26.7576 43.4749 14.2659 42.7881Z" stroke="black" stroke-width="1.05469" stroke-linecap="round" stroke-linejoin="round"/>
<path d="M22.4331 89.8037C46.2494 89.3951 88.9102 81.8668 105.007 78.0288" stroke="black" stroke-width="1.05469" stroke-linecap="round" stroke-linejoin="round"/>
<path d="M21.1277 80.9983C36.6784 80.8746 92.5869 72.3541 102.514 69.6782" stroke="black" stroke-width="1.05469" stroke-linecap="round" stroke-linejoin="round"/>
<path d="M18.5984 64.5599C28.8587 63.6003 83.4249 57.8229 97.9174 56.1118" stroke="black" stroke-width="1.05469" stroke-linecap="round" stroke-linejoin="round"/>
<path d="M19.9292 72.1375L26.9144 71.4939L30.7859 73.7359L45.994 71.4876L48.3403 68.7239L54.2554 68.0313L58.2245 70.1944L71.7042 67.9459L73.8597 65.0664L79.8028 64.3776L82.8814 66.8625L93.8334 65.672L96.1622 62.2432L99.1875 61.7017" stroke="black" stroke-width="1.05469" stroke-linecap="round" stroke-linejoin="round"/>
<path d="M57.093 60.7398L63.9792 67.7805L67.5464 59.6763" stroke="black" stroke-width="1.05469" stroke-linecap="round" stroke-linejoin="round"/>
<path d="M30.3352 63.4263L38.1699 70.6134L41.1518 62.1123" stroke="black" stroke-width="1.05469" stroke-linecap="round" stroke-linejoin="round"/>
<path d="M81.0698 58.147L87.7382 64.5042L91.0409 57.1523" stroke="black" stroke-width="1.05469" stroke-linecap="round" stroke-linejoin="round"/>
<path d="M65.5827 105.699C43.269 109.735 26.2717 111.885 23.3654 110.256C21.9416 109.458 21.4456 104.072 22.1006 99.551C30.5333 101.388 96.4421 91.6123 106.891 88.5278C107.515 93.2038 107.987 95.5205 105.287 97.173C103.088 98.5185 83.3242 102.49 65.5827 105.699Z" fill="url(#paint6_linear_2064_24)"/>
<path d="M65.5827 105.699C43.269 109.735 26.2717 111.885 23.3654 110.256C21.9416 109.458 21.4456 104.072 22.1006 99.551C30.5333 101.388 96.4421 91.6123 106.891 88.5278C107.515 93.2038 107.987 95.5205 105.287 97.173C103.088 98.5185 83.3242 102.49 65.5827 105.699Z" stroke="black" stroke-width="1.05469" stroke-linecap="round" stroke-linejoin="round"/>
<path d="M51.4957 98.266C45.3836 99.5597 39.5387 99.7248 32.8587 100.336C32.2163 92.1768 31.124 86.5465 29.9888 78.0404C28.0844 63.772 44.5969 61.4859 48.0289 75.3841C49.9069 82.9889 51.0648 90.6452 51.4957 98.266Z" fill="url(#paint7_linear_2064_24)"/>
<path d="M51.4957 98.266C45.3836 99.5597 39.5387 99.7248 32.8587 100.336C32.2163 92.1768 31.124 86.5465 29.9888 78.0404C28.0844 63.772 44.5969 61.4859 48.0289 75.3841C49.9069 82.9889 51.0648 90.6452 51.4957 98.266Z" stroke="black" stroke-width="1.05469" stroke-linecap="round" stroke-linejoin="round"/>
<path d="M36.9527 97.1018C35.7865 87.32 34.2775 78.885 31.7788 69.3359" stroke="black" stroke-width="1.05469" stroke-linecap="round" stroke-linejoin="round"/>
<path d="M47.3877 96.3768C46.6768 86.5257 44.7521 76.6186 41.625 66.8408" stroke="black" stroke-width="1.05469" stroke-linecap="round" stroke-linejoin="round"/>
<path d="M51.3116 95.5557C45.2275 96.8293 39.305 96.9234 32.7615 97.5658" stroke="black" stroke-width="1.05469" stroke-linecap="round" stroke-linejoin="round"/>
<g opacity="0.44">
<path d="M50.5311 83.1873C44.0326 84.475 32.6395 85.4363 32.6395 85.4363C32.6395 85.4363 29.9029 81.5743 29.717 80.5137C36.4282 79.2177 43.4551 81.3347 49.9251 80.0732C50.1406 81.1109 50.3425 82.149 50.5311 83.1873Z" fill="#5A3F2A"/>
</g>
<path d="M51.3545 80.5183L32.9869 82.5509L30.363 80.1675L48.69 78.1968L51.3545 80.5183Z" fill="#FF812C"/>
<path d="M51.3545 80.5183L32.9869 82.5509L30.363 80.1675L48.69 78.1968L51.3545 80.5183Z" stroke="#B35B00" stroke-width="1.05469" stroke-linecap="round" stroke-linejoin="round"/>
<path d="M76.9802 94.3491C71.5331 95.5511 65.8055 96.2484 60.1659 97.4837C59.9355 89.9892 59.1443 82.6182 57.5675 75.1115C54.3565 59.8243 70.662 59.1581 73.8117 72.4573C75.5497 79.7957 76.5308 87.0059 76.9802 94.3491Z" fill="url(#paint8_linear_2064_24)"/>
<path d="M76.9802 94.3491C71.5331 95.5511 65.8055 96.2484 60.1659 97.4837C59.9355 89.9892 59.1443 82.6182 57.5675 75.1115C54.3565 59.8243 70.662 59.1581 73.8117 72.4573C75.5497 79.7957 76.5308 87.0059 76.9802 94.3491Z" stroke="black" stroke-width="1.05469" stroke-linecap="round" stroke-linejoin="round"/>
<path d="M63.7885 94.007C63.2241 84.4045 61.6678 74.9033 58.8994 65.3394" stroke="black" stroke-width="1.05469" stroke-linecap="round" stroke-linejoin="round"/>
<path d="M73.2957 92.5006C72.5777 83.0083 70.8948 73.6266 68.0259 64.1885" stroke="black" stroke-width="1.05469" stroke-linecap="round" stroke-linejoin="round"/>
<path d="M76.7929 91.7373C71.3706 92.9213 65.6687 93.6001 60.0552 94.8173" stroke="black" stroke-width="1.05469" stroke-linecap="round" stroke-linejoin="round"/>
<g opacity="0.44">
<path d="M75.9725 79.6787C70.1798 80.8765 59.7757 81.7201 59.7757 81.7201L57.3428 77.419C57.3428 77.419 69.6389 77.8485 75.406 76.6748C75.6067 77.6758 75.7956 78.677 75.9725 79.6787Z" fill="#5A3F2A"/>
</g>
<path d="M76.7929 76.8686L60.3766 78.9788L57.9038 76.9143L74.2874 74.8589L76.7929 76.8686Z" fill="#FF812C"/>
<path d="M76.7929 76.8686L60.3766 78.9788L57.9038 76.9143L74.2874 74.8589L76.7929 76.8686Z" stroke="#B35B00" stroke-width="1.05469" stroke-linecap="round" stroke-linejoin="round"/>
<path d="M99.0507 90.3537C94.286 91.4126 89.3191 92.1374 84.3957 93.2238C84.071 86.364 83.1986 79.4533 81.7868 72.5722C78.6846 59.3622 92.5373 57.1898 95.9838 70.1146C97.5261 76.8498 98.5509 83.6223 99.0507 90.3537Z" fill="url(#paint9_linear_2064_24)"/>
<path d="M99.0507 90.3537C94.286 91.4126 89.3191 92.1374 84.3957 93.2238C84.071 86.364 83.1986 79.4533 81.7868 72.5722C78.6846 59.3622 92.5373 57.1898 95.9838 70.1146C97.5261 76.8498 98.5509 83.6223 99.0507 90.3537Z" stroke="black" stroke-width="1.05469" stroke-linecap="round" stroke-linejoin="round"/>
<path d="M87.5175 90.0706C86.8835 81.276 85.354 72.4082 82.9412 63.6367" stroke="black" stroke-width="1.05469" stroke-linecap="round" stroke-linejoin="round"/>
<path d="M95.7898 88.6322C95.033 79.9318 93.4012 71.1669 90.9062 62.5054" stroke="black" stroke-width="1.05469" stroke-linecap="round" stroke-linejoin="round"/>
<path d="M98.8507 87.9595C94.1058 89.0029 89.1595 89.7121 84.2568 90.7829" stroke="black" stroke-width="1.05469" stroke-linecap="round" stroke-linejoin="round"/>
<g opacity="0.44">
<path d="M98.0342 77.0326C92.9569 78.0905 84.3813 78.8135 84.3813 78.8135L81.4578 74.2231C81.4578 74.2231 92.4632 75.3131 97.5199 74.2761C97.7011 75.1947 97.8724 76.1135 98.0342 77.0326Z" fill="#5A3F2A"/>
</g>
<path d="M98.5518 73.8771L84.1694 75.7714L82.1729 73.6742L96.5232 71.8301L98.5518 73.8771Z" fill="#FF812C"/>
<path d="M98.5518 73.8771L84.1694 75.7714L82.1729 73.6742L96.5232 71.8301L98.5518 73.8771Z" stroke="#B35B00" stroke-width="1.05469" stroke-linecap="round" stroke-linejoin="round"/>
<path d="M16.8557 52.9155C17.9776 60.5205 20.3662 82.1821 21.4544 85.3866C22.5427 88.591 22.7162 92.7737 22.694 98.2614C24.9007 89.1925 22.2397 85.6317 21.253 77.396C19.3117 61.1942 18.5486 57.0796 16.8557 52.9155Z" fill="white" fill-opacity="0.22"/>
<path d="M66.9807 49.6446L71.868 54.7119L75.1865 49.005L70.7785 38.2456L67.7153 38.4853L66.9807 49.6446Z" fill="#29292B"/>
<path d="M66.9807 49.6446L71.868 54.7119L75.1865 49.005L70.7785 38.2456L67.7153 38.4853L66.9807 49.6446Z" stroke="black" stroke-width="1.05469" stroke-linecap="round" stroke-linejoin="round"/>
<path d="M41.8074 40.907L40.9243 52.4335L46.2054 57.6292L50.0447 51.3602L45.2453 40.4238" fill="#29292B"/>
<path d="M41.8074 40.907L40.9243 52.4335L46.2054 57.6292L50.0447 51.3602L45.2453 40.4238" stroke="black" stroke-width="1.05469" stroke-linecap="round" stroke-linejoin="round"/>
<path d="M12.3042 36.7784C36.2496 29.0264 78.6852 27.4759 94.2466 31.9549C95.108 33.2757 96.0266 35.6012 96.5434 36.7784C94.9929 37.8695 93.6285 39.8412 92.2215 40.9322C92.7958 44.1766 93.1366 48.3628 93.1079 48.7452C93.0792 49.1276 91.4257 53.6332 91.0525 53.8341C90.6792 54.0351 78.1996 54.8834 77.7115 54.5963C77.2234 54.3092 73.6361 50.2025 73.1767 49.7431C72.7173 49.2837 71.9666 41.1139 72.1963 40.6832C72.426 40.2525 72.7852 39.0937 72.0382 37.6828C70.8755 35.4864 66.9133 36.0032 67.6454 38.5297C68.1396 40.2352 69.9999 40.8125 70.0573 41.1426C70.1147 41.4727 71.3811 49.4992 71.3428 49.8438C71.3045 50.1883 69.2433 55.3454 68.8845 55.5032C68.5257 55.661 52.3524 57.103 51.6537 56.8637C50.955 56.6244 47.322 53.1875 46.8771 52.5845C46.4322 51.9816 45.7244 44.5018 45.8967 44.0998C46.0689 43.6978 47.3465 42.1475 46.0976 39.9941C44.8488 37.8406 40.9008 37.9412 41.12 41.1988C41.2284 42.81 42.7399 43.6243 43.6729 44.184C43.8739 44.945 45.0367 52.0722 45.0367 52.5316C45.0367 52.991 42.1957 58.2099 41.9182 58.4205C41.6406 58.6311 27.0164 60.4937 26.4421 60.2831C25.8679 60.0725 21.6315 55.2901 21.3635 55.003C21.0955 54.7158 20.2974 46.3191 19.9528 45.9745C19.6082 45.63 15.0415 42.6546 14.4864 42.2143C13.9313 41.774 11.8639 37.6781 12.3042 36.7784Z" fill="url(#paint10_linear_2064_24)"/>
<path d="M68.9264 55.2424C61.4552 54.8713 66.9323 51.2581 55.4233 50.3323C49.2153 49.8906 47.8891 50.8211 46.8501 51.771" stroke="url(#paint11_linear_2064_24)" stroke-opacity="0.33" stroke-width="0.703125" stroke-linecap="round" stroke-linejoin="round"/>
<path d="M46.1926 45.4724C45.7402 46.481 46.4155 50.3634 55.4229 50.3323C66.9429 51.2479 63.6117 46.8394 70.821 47.1797C63.6033 46.8186 67.522 43.3731 56.1928 42.3662C47.4725 42.0499 46.6447 44.4641 46.1926 45.4724Z" stroke="url(#paint12_linear_2064_24)" stroke-opacity="0.33" stroke-width="0.703125" stroke-linecap="round" stroke-linejoin="round"/>
<path d="M12.0349 37.2764C15.9665 36.4624 15.7592 39.3122 21.3757 38.2134C26.8694 37.3663 28.1438 42.4302 33.3242 41.7862C38.3784 41.4173 36.143 45.6498 43.5776 45.46C36.1283 45.6325 37.8093 49.9696 32.9769 50.5392C27.8639 51.2521 27.3162 57.406 24.6263 58.6738" stroke="url(#paint13_linear_2064_24)" stroke-opacity="0.33" stroke-width="0.703125" stroke-linecap="round" stroke-linejoin="round"/>
<path d="M95.0554 34.484C92.0852 35.6091 90.9945 31.1736 86.4903 31.019C81.6234 31.019 83.9267 33.6735 79.0044 34.3423C74.3205 34.8759 74.3186 37.2978 72.5408 38.5708C74.8803 40.3204 73.7953 43.257 78.7091 42.8912C83.7061 42.2572 86.8685 50.1712 92.1176 49.3117" stroke="url(#paint14_linear_2064_24)" stroke-opacity="0.33" stroke-width="0.703125" stroke-linecap="round" stroke-linejoin="round"/>
<path d="M14.3025 42.3381C18.1885 41.7718 17.6238 34.9224 23.2738 34.161C28.8006 33.6243 27.9133 34.858 33.3067 34.4147M33.3067 34.4147C38.578 34.2462 35.5024 37.4219 43.1846 37.4655C50.4969 37.8516 44.7774 41.3518 56.1932 42.3663C67.5213 43.3729 63.1989 39.4647 67.2946 38.9089C62.9491 38.1985 68.2664 35.9783 56.922 35.1202C45.3428 34.1365 50.4992 37.6882 43.1935 37.3217C35.4896 37.2666 38.3753 41.4671 33.323 41.839C27.9899 42.3579 25.5465 51.5264 20.7811 53.0139C26.5459 52.459 28.6307 60.2836 32.7187 59.7668C37.4248 59.172 36.4653 53.7913 43.7594 53.3634C36.4675 53.8104 37.8305 49.7679 32.9853 50.3429C28.014 51.1483 23.707 43.4252 18.4427 44.605L18.4831 44.5961C23.6078 43.3022 27.7938 34.738 33.3067 34.4147ZM33.3067 34.4147C38.5822 34.2329 35.6168 31.4774 43.578 31.6538C51.1376 32.0575 49.4156 30.6515 57.4528 30.0272C65.4444 29.4065 63.1501 32.3948 70.1162 32.3889C77.2202 32.0077 74.3029 35.0231 78.9992 34.4836C83.7858 33.723 87.1495 42.2111 92.1646 41.0623C86.8787 41.6032 86.514 53.6885 81.3086 54.161C76.1809 54.3648 76.3929 47.6047 73.0687 47.3579C76.0581 46.4078 73.7998 43.209 78.7104 42.8393C83.8563 42.3276 83.9931 36.9372 88.5326 35.52C93.2812 33.9789 90.8249 33.4616 94.0385 32.2626" stroke="url(#paint15_linear_2064_24)" stroke-opacity="0.33" stroke-width="0.703125" stroke-linecap="round" stroke-linejoin="round"/>
<path d="M43.5776 31.654C51.1249 32.0898 45.3515 34.1259 56.9217 35.1203C68.2579 35.9887 63.119 32.4337 70.0551 32.3896C76.0872 32.3513 74.8303 30.2989 79.5612 29.9434" stroke="url(#paint16_linear_2064_24)" stroke-opacity="0.33" stroke-width="0.703125" stroke-linecap="round" stroke-linejoin="round"/>
<path d="M12.3042 36.7784C36.2496 29.0264 78.6852 27.4759 94.2466 31.9549C95.108 33.2757 96.0266 35.6012 96.5434 36.7784C94.9929 37.8695 93.6285 39.8412 92.2215 40.9322C92.7958 44.1766 93.1366 48.3628 93.1079 48.7452C93.0792 49.1276 91.4257 53.6332 91.0525 53.8341C90.6792 54.0351 78.1996 54.8834 77.7115 54.5963C77.2234 54.3092 73.6361 50.2025 73.1767 49.7431C72.7173 49.2837 71.9666 41.1139 72.1963 40.6832C72.426 40.2525 72.7852 39.0937 72.0382 37.6828C70.8755 35.4864 66.9133 36.0032 67.6454 38.5297C68.1396 40.2352 69.9999 40.8125 70.0573 41.1426C70.1147 41.4727 71.3811 49.4992 71.3428 49.8438C71.3045 50.1883 69.2433 55.3454 68.8845 55.5032C68.5257 55.661 52.3524 57.103 51.6537 56.8637C50.955 56.6244 47.322 53.1875 46.8771 52.5845C46.4322 51.9816 45.7244 44.5018 45.8967 44.0998C46.0689 43.6978 47.3465 42.1475 46.0976 39.9941C44.8488 37.8406 40.9008 37.9412 41.12 41.1988C41.2284 42.81 42.7399 43.6243 43.6729 44.184C43.8739 44.945 45.0367 52.0722 45.0367 52.5316C45.0367 52.991 42.1957 58.2099 41.9182 58.4205C41.6406 58.6311 27.0164 60.4937 26.4421 60.2831C25.8679 60.0725 21.6315 55.2901 21.3635 55.003C21.0955 54.7158 20.2974 46.3191 19.9528 45.9745C19.6082 45.63 15.0415 42.6546 14.4864 42.2143C13.9313 41.774 11.8639 37.6781 12.3042 36.7784Z" stroke="black" stroke-width="1.05469" stroke-linecap="round" stroke-linejoin="round"/>
<g opacity="0.5">
<path d="M57.1618 75.4254C56.6523 69.3364 52.0667 66.6487 47.7069 66.9818C46.4873 59.6418 44.4411 44.5434 44.0823 42.9792C43.677 41.2114 42.2234 40.5892 40.2416 38.4382C40.2416 38.4382 42.3385 55.7628 47.065 67.0535C46.6257 67.1174 46.1913 67.2125 45.7657 67.3378C41.337 58.1002 38.5927 48.224 35.8449 38.2842C34.7327 42.3534 36.342 56.1437 44.7141 67.7184C41.5981 69.0684 39.2295 72.1842 39.6235 76.8929C39.9322 80.5811 41.9008 83.0143 44.4157 84.2319C44.7331 90.6392 47.008 95.482 49.0827 95.0961C51.2215 95.1337 52.3924 90.4899 51.7765 84.571C55.037 83.3668 57.5694 80.2948 57.1618 75.4254ZM49.2235 93.3085C48.1328 92.4625 46.768 90.6419 46.4873 84.9391C47.5783 85.1719 48.7095 85.2118 49.8112 85.0605C50.4679 90.9311 50.5833 92.9295 49.2235 93.3085Z" fill="url(#paint17_linear_2064_24)"/>
</g>
<path d="M41.1844 37.0884C37.258 43.3596 39.7498 58.3558 50.461 71.0723C45.1226 60.3073 40.5718 51.1045 41.1844 37.0884Z" fill="#FF6528"/>
<path d="M41.1844 37.0884C37.258 43.3596 39.7498 58.3558 50.461 71.0723C45.1226 60.3073 40.5718 51.1045 41.1844 37.0884Z" stroke="#934500" stroke-width="0.703125" stroke-linecap="round" stroke-linejoin="round"/>
<path d="M49.1749 70.1766C43.5679 81.3238 46.9488 95.0375 50.4039 94.3394C48.3795 93.9467 47.3362 85.4427 49.1749 70.1766Z" fill="#FF6528"/>
<path d="M49.1749 70.1766C43.5679 81.3238 46.9488 95.0375 50.4039 94.3394C48.3795 93.9467 47.3362 85.4427 49.1749 70.1766Z" stroke="#934500" stroke-width="0.703125" stroke-linecap="round" stroke-linejoin="round"/>
<path d="M49.5501 69.8783C55.9064 81.2139 53.8148 96.4521 49.5666 94.1152C52.2395 94.625 52.4492 84.9789 49.5501 69.8783Z" fill="#FF6528"/>
<path d="M49.5501 69.8783C55.9064 81.2139 53.8148 96.4521 49.5666 94.1152C52.2395 94.625 52.4492 84.9789 49.5501 69.8783Z" stroke="#934500" stroke-width="0.703125" stroke-linecap="round" stroke-linejoin="round"/>
<path d="M45.1196 37.3579C47.6448 38.1246 48.2699 41.1172 48.589 42.9027C48.908 44.6883 49.8103 63.0013 50.6237 68.6491C46.9434 58.2529 47.3682 40.2365 45.1196 37.3579Z" fill="#FF6528"/>
<path d="M45.1196 37.3579C47.6448 38.1246 48.2699 41.1172 48.589 42.9027C48.908 44.6883 49.8103 63.0013 50.6237 68.6491C46.9434 58.2529 47.3682 40.2365 45.1196 37.3579Z" stroke="#934500" stroke-width="0.703125" stroke-linecap="round" stroke-linejoin="round"/>
<path d="M41.758 75.709C42.1667 87.4132 59.7758 87.3841 59.3467 75.0948C58.9175 62.8054 41.3305 63.4684 41.758 75.709Z" fill="#FF812C"/>
<path d="M41.758 75.709C42.1667 87.4132 59.7758 87.3841 59.3467 75.0948C58.9175 62.8054 41.3305 63.4684 41.758 75.709Z" stroke="#934500" stroke-width="1.05469" stroke-linecap="round" stroke-linejoin="round"/>
<path d="M49.4965 69.0828C49.68 68.5378 50.4809 68.443 50.7845 68.9222L52.8649 71.9777L56.3919 71.9419C57.0191 71.9165 57.3918 72.682 56.9898 73.1508L54.7149 75.9568L55.5572 79.2506C55.7374 79.8803 55.0443 80.4819 54.425 80.2317L51.3805 79.082L48.608 80.9363C48.1125 81.2876 47.3859 80.8967 47.4166 80.3115C47.4284 79.2233 47.3154 77.7003 48.4509 77.052L51.2179 75.2084C51.3677 75.1149 51.2575 74.8758 51.0869 74.9268L47.5438 75.8935C46.5327 76.2622 45.4292 75.332 44.6325 74.8771C44.0394 74.5425 44.1906 73.6006 44.8649 73.4446L48.2065 72.5825L49.4965 69.0828Z" fill="#C15E25"/>
<path d="M42.9626 80.1463C46.9993 87.1345 59.7116 85.5593 59.3462 75.0953" stroke="#5E2800" stroke-width="1.05469" stroke-linecap="round" stroke-linejoin="round"/>
<path d="M71.1482 39.3902C69.5921 25.551 63.9021 1.53838 52.4713 2.18313C40.2417 2.87294 40.5004 25.5113 41.8802 41.7894C42.6494 41.7313 44.6721 41.4554 45.302 41.2037C45.1031 37.2551 40.8774 5.70245 53.0334 5.70245C62.6434 5.70245 67.3033 33.3782 67.691 39.2916" fill="#29292B"/>
<path d="M71.1482 39.3902C69.5921 25.551 63.9021 1.53838 52.4713 2.18313C40.2417 2.87294 40.5004 25.5113 41.8802 41.7894C42.6494 41.7313 44.6721 41.4554 45.302 41.2037C45.1031 37.2551 40.8774 5.70245 53.0334 5.70245C62.6434 5.70245 67.3033 33.3782 67.691 39.2916" stroke="black" stroke-width="1.05469" stroke-linecap="round" stroke-linejoin="round"/>
<path d="M42.5001 41.013C42.5001 41.013 42.4419 41.9799 42.3843 42.4629C43.1476 42.6443 44.5459 42.236 45.158 41.9867C44.6496 40.6778 44.665 40.3232 44.3302 40.0473C43.9955 39.7714 42.6924 39.6115 42.5001 41.013Z" fill="#2B2B2D"/>
<path d="M57.3422 4.16256C48.945 -0.53468 39.8007 6.52403 42.1652 36.62C42.2792 19.8865 43.1842 -0.804769 57.3422 4.16256Z" fill="#535353"/>
<path d="M92.4911 40.8892C92.8084 42.6549 93.4127 45.3392 93.4127 45.3392C86.5716 46.2045 75.4525 45.6532 67.873 46.0902C67.7257 46.0986 68.0179 47.2583 67.8732 47.2676C66.3243 47.3668 57.8771 48.3412 56.7188 48.5518L54.9545 47.2181L54.4517 43.7717L55.7622 42.0678C56.8271 41.9634 65.8236 41.2129 66.963 41.1497C67.1222 41.1408 66.9899 41.7151 67.1502 41.7069C74.9256 41.3114 83.3765 41.7739 92.4911 40.8892Z" fill="black" fill-opacity="0.33"/>
<path d="M92.5372 40.8892C92.8386 42.6549 93.4131 45.3392 93.4131 45.3392C85.4314 46.4016 71.3221 45.3285 64.8321 46.5706L64.0344 42.0823C72.0386 41.2566 82.4165 41.9228 92.5372 40.8892Z" fill="url(#paint18_linear_2064_24)"/>
<path d="M92.5372 40.8892C92.8386 42.6549 93.4131 45.3392 93.4131 45.3392C85.4314 46.4016 71.3221 45.3285 64.8321 46.5706L64.0344 42.0823C72.0386 41.2566 82.4165 41.9228 92.5372 40.8892Z" stroke="#1A1A1A" stroke-width="1.05469" stroke-linecap="round" stroke-linejoin="round"/>
<path d="M93.4135 45.3394C85.4318 46.4017 71.3223 45.3289 64.8323 46.571" stroke="black" stroke-width="1.05469" stroke-linecap="round" stroke-linejoin="round"/>
<path d="M54.2456 43.7718L54.6625 47.2918L56.5968 48.6051L68.0628 47.2486L67.074 41.0566L55.5433 41.9318L54.2456 43.7718Z" fill="url(#paint19_linear_2064_24)"/>
<path d="M54.2456 43.7718L54.6625 47.2918L56.5968 48.6051L68.0628 47.2486L67.074 41.0566L55.5433 41.9318L54.2456 43.7718Z" stroke="black" stroke-width="0.703125" stroke-linecap="round" stroke-linejoin="round"/>
<path d="M18.0278 46.6385L18.8316 52.0706C26.239 52.2821 38.971 48.8426 50.4244 47.9096C50.6485 47.8914 50.5185 48.71 50.7433 48.6937C52.5517 48.562 59.7278 47.8015 61.5687 47.819L62.6988 46.0785L62.4423 43.1404L60.6469 41.2724C59.2474 41.2262 52.1 42.0199 50.7197 42.0832C50.458 42.0951 50.8464 42.6855 50.5852 42.7009C40.7832 43.2775 29.1215 46.2449 18.0278 46.6385Z" fill="black" fill-opacity="0.33"/>
<path d="M18.0283 46.6383L18.832 52.0704C27.5507 52.3193 40.6581 47.6304 54.4204 47.7611L53.3807 42.7137C41.7622 42.3309 30.9771 46.1789 18.0283 46.6383Z" fill="url(#paint20_linear_2064_24)"/>
<path d="M18.0283 46.6383L18.832 52.0704C27.5507 52.3193 40.6581 47.6304 54.4204 47.7611L53.3807 42.7137C41.7622 42.3309 30.9771 46.1789 18.0283 46.6383Z" stroke="#1A1A1A" stroke-width="1.05469" stroke-linecap="round" stroke-linejoin="round"/>
<path d="M18.832 52.0698C27.5507 52.3186 40.6583 47.6298 54.4206 47.7605" stroke="black" stroke-width="1.05469" stroke-linecap="round" stroke-linejoin="round"/>
<path d="M50.4109 41.9871L51.2015 48.9772L61.7266 47.9267L62.9834 45.3664L62.6554 42.728L61.1803 41.1841L50.4109 41.9871Z" fill="url(#paint21_linear_2064_24)"/>
<path d="M50.4109 41.9871L51.2015 48.9772L61.7266 47.9267L62.9834 45.3664L62.6554 42.728L61.1803 41.1841L50.4109 41.9871Z" stroke="black" stroke-width="0.703125" stroke-linecap="round" stroke-linejoin="round"/>
<path d="M55.4521 44.6926L60.6714 44.2285" stroke="black" stroke-width="1.05469" stroke-linecap="round" stroke-linejoin="round"/>
<path d="M55.082 48.1996L56.5149 56.341L65.6311 55.3991L66.485 54.1565L55.9479 46.9619L55.082 48.1996Z" fill="#302F2C"/>
<path d="M55.082 48.1996L56.5149 56.341L65.6311 55.3991L66.485 54.1565L55.9479 46.9619L55.082 48.1996Z" stroke="black" stroke-width="0.703125" stroke-linecap="round" stroke-linejoin="round"/>
<path d="M57.2982 47.187L56.9976 44.9546C56.3617 41.3216 61.5648 40.8872 62.3379 44.2709L63.5343 50.4682" stroke="#36342A" stroke-width="1.58203" stroke-linecap="round" stroke-linejoin="round"/>
<path d="M56.8703 46.8096L56.5696 44.5772C55.9337 40.9442 61.1368 40.5098 61.91 43.8935L63.1063 50.0908" stroke="#A9A9A8" stroke-width="0.351562" stroke-linecap="round" stroke-linejoin="round"/>
<path d="M55.9358 46.8939L57.3686 55.0352L66.4849 54.0933L64.8261 46.1123L55.9358 46.8939Z" fill="url(#paint22_linear_2064_24)"/>
<path d="M55.9358 46.8939L57.3686 55.0352L66.4849 54.0933L64.8261 46.1123L55.9358 46.8939Z" stroke="black" stroke-width="0.703125" stroke-linecap="round" stroke-linejoin="round"/>
<path d="M57.9377 54.4035L56.7822 47.5771L64.3386 46.8672" stroke="#B7B7B7" stroke-width="0.351562" stroke-linecap="round" stroke-linejoin="round"/>
<path d="M59.0042 44.5558C59.4479 47.2704 61.1943 47.0662 60.6961 44.076C60.229 41.2729 58.5184 41.5839 59.0042 44.5558Z" fill="#7D7C75"/>
<path d="M59.0042 44.5558C59.4479 47.2704 61.1943 47.0662 60.6961 44.076C60.229 41.2729 58.5184 41.5839 59.0042 44.5558Z" stroke="black" stroke-width="0.703125" stroke-linecap="round" stroke-linejoin="round"/>
<path d="M59.9841 43.1689C59.5553 42.2844 59.1762 42.9847 59.3623 44.6202" stroke="#ACABAA" stroke-width="0.351562" stroke-linecap="round" stroke-linejoin="round"/>
<path d="M81.3381 47.8945L80.4963 39.1816L82.7514 39.2113L83.5684 47.7715L81.3381 47.8945Z" fill="url(#paint23_linear_2064_24)"/>
<path d="M81.3381 47.8945L80.4963 39.1816L82.7514 39.2113L83.5684 47.7715L81.3381 47.8945Z" stroke="black" stroke-width="0.703125" stroke-linecap="round" stroke-linejoin="round"/>
<path d="M80.5257 39.1816L79.2323 39.6403L79.8156 46.1659L79.0635 46.3237L79.2465 47.8945H81.3381L80.5257 39.1816Z" fill="url(#paint24_linear_2064_24)"/>
<path d="M80.5257 39.1816L79.2323 39.6403L79.8156 46.1659L79.0635 46.3237L79.2465 47.8945H81.3381L80.5257 39.1816Z" stroke="black" stroke-width="0.703125" stroke-linecap="round" stroke-linejoin="round"/>
<path d="M31.3723 52.4334L29.9189 43.4822L32.716 43.1416L34.1432 51.9151L31.3723 52.4334Z" fill="url(#paint25_linear_2064_24)"/>
<path d="M31.3723 52.4334L29.9189 43.4822L32.716 43.1416L34.1432 51.9151L31.3723 52.4334Z" stroke="black" stroke-width="0.703125" stroke-linecap="round" stroke-linejoin="round"/>
<path d="M29.8223 43.5249L29.4722 43.9131L30.8161 52.2763L31.3724 52.4338L29.8223 43.5249Z" fill="url(#paint26_linear_2064_24)"/>
<path d="M29.8223 43.5249L29.4722 43.9131L30.8161 52.2763L31.3724 52.4338L29.8223 43.5249Z" stroke="black" stroke-width="0.703125" stroke-linecap="round" stroke-linejoin="round"/>
<defs>
<linearGradient id="paint0_linear_2064_24" x1="4.52253" y1="67.7441" x2="23.7889" y2="70.0818" gradientUnits="userSpaceOnUse">
<stop stop-color="#2D2D2F"/>
<stop offset="0.4" stop-color="#212122"/>
<stop offset="0.8" stop-color="#161616"/>
<stop offset="0.9" stop-color="#282829"/>
<stop offset="1" stop-color="#393A3C"/>
</linearGradient>
<linearGradient id="paint1_linear_2064_24" x1="13.6271" y1="53.0378" x2="11.8149" y2="91.6382" gradientUnits="userSpaceOnUse">
<stop/>
<stop offset="0.5" stop-opacity="0.5"/>
<stop offset="1" stop-opacity="0"/>
</linearGradient>
<linearGradient id="paint2_linear_2064_24" x1="9.19129" y1="46.0345" x2="7.59294" y2="80.081" gradientUnits="userSpaceOnUse">
<stop/>
<stop offset="0.5" stop-opacity="0.5"/>
<stop offset="1" stop-opacity="0"/>
</linearGradient>
<linearGradient id="paint3_linear_2064_24" x1="23.431" y1="100.192" x2="6.8653" y2="102.308" gradientUnits="userSpaceOnUse">
<stop/>
<stop offset="0.5" stop-opacity="0.5"/>
<stop offset="1" stop-opacity="0"/>
</linearGradient>
<linearGradient id="paint4_linear_2064_24" x1="59.381" y1="62.3753" x2="44.9192" y2="14.4304" gradientUnits="userSpaceOnUse">
<stop/>
<stop offset="0.5" stop-color="#161617"/>
<stop offset="1" stop-color="#2D2C2F"/>
</linearGradient>
<radialGradient id="paint5_radial_2064_24" cx="0" cy="0" r="1" gradientUnits="userSpaceOnUse" gradientTransform="translate(27.633 -116.43) scale(212.907 212.907)">
<stop stop-color="#686868"/>
<stop offset="0.44" stop-color="#484849"/>
<stop offset="0.89" stop-color="#28282A"/>
<stop offset="0.93" stop-color="#333435"/>
<stop offset="0.97" stop-color="#3F3F40"/>
<stop offset="0.99" stop-color="#333436"/>
<stop offset="1" stop-color="#28292C"/>
</radialGradient>
<linearGradient id="paint6_linear_2064_24" x1="61.463" y1="104.569" x2="61.3133" y2="97.0677" gradientUnits="userSpaceOnUse">
<stop stop-color="#161616"/>
<stop offset="0.5" stop-color="#252524"/>
<stop offset="1" stop-color="#343332"/>
</linearGradient>
<linearGradient id="paint7_linear_2064_24" x1="38.4129" y1="69.5942" x2="41.1499" y2="96.8439" gradientUnits="userSpaceOnUse">
<stop stop-color="#F1C969"/>
<stop offset="0.5" stop-color="#ECC067"/>
<stop offset="1" stop-color="#E7B666"/>
</linearGradient>
<linearGradient id="paint8_linear_2064_24" x1="66.1923" y1="66.7931" x2="68.8944" y2="93.6932" gradientUnits="userSpaceOnUse">
<stop stop-color="#F1C969"/>
<stop offset="0.5" stop-color="#ECC067"/>
<stop offset="1" stop-color="#E7B666"/>
</linearGradient>
<linearGradient id="paint9_linear_2064_24" x1="89.3026" y1="64.6921" x2="91.9775" y2="91.3236" gradientUnits="userSpaceOnUse">
<stop stop-color="#F1C969"/>
<stop offset="0.5" stop-color="#ECC067"/>
<stop offset="1" stop-color="#E7B666"/>
</linearGradient>
<linearGradient id="paint10_linear_2064_24" x1="55.6509" y1="49.0687" x2="53.2378" y2="28.8266" gradientUnits="userSpaceOnUse">
<stop stop-color="#30303B"/>
<stop offset="0.5" stop-color="#2F2F35"/>
<stop offset="1" stop-color="#2E2E2E"/>
</linearGradient>
<linearGradient id="paint11_linear_2064_24" x1="29.5255" y1="64.4028" x2="86.6011" y2="55.4154" gradientUnits="userSpaceOnUse">
<stop stop-color="#BFBFBF" stop-opacity="0.66"/>
<stop offset="0.13" stop-color="#606060" stop-opacity="0.83"/>
<stop offset="0.25"/>
<stop offset="0.5" stop-color="#565656"/>
<stop offset="0.75" stop-color="#ADADAD"/>
<stop offset="0.88" stop-color="#ADADAD" stop-opacity="0.84"/>
<stop offset="1" stop-color="#ACACAC" stop-opacity="0.68"/>
</linearGradient>
<linearGradient id="paint12_linear_2064_24" x1="30.0921" y1="58.0696" x2="87.1677" y2="49.0823" gradientUnits="userSpaceOnUse">
<stop stop-color="#BFBFBF" stop-opacity="0.66"/>
<stop offset="0.13" stop-color="#606060" stop-opacity="0.83"/>
<stop offset="0.25"/>
<stop offset="0.5" stop-color="#565656"/>
<stop offset="0.75" stop-color="#ADADAD"/>
<stop offset="0.88" stop-color="#ADADAD" stop-opacity="0.84"/>
<stop offset="1" stop-color="#ACACAC" stop-opacity="0.68"/>
</linearGradient>
<linearGradient id="paint13_linear_2064_24" x1="-0.556513" y1="59.5728" x2="51.8504" y2="60.5065" gradientUnits="userSpaceOnUse">
<stop stop-color="#BFBFBF" stop-opacity="0.66"/>
<stop offset="0.13" stop-color="#606060" stop-opacity="0.83"/>
<stop offset="0.25"/>
<stop offset="0.5" stop-color="#565656"/>
<stop offset="0.75" stop-color="#ADADAD"/>
<stop offset="0.88" stop-color="#ADADAD" stop-opacity="0.84"/>
<stop offset="1" stop-color="#ACACAC" stop-opacity="0.68"/>
</linearGradient>
<linearGradient id="paint14_linear_2064_24" x1="56.3107" y1="51.87" x2="113.386" y2="42.8826" gradientUnits="userSpaceOnUse">
<stop stop-color="#BFBFBF" stop-opacity="0.66"/>
<stop offset="0.13" stop-color="#606060" stop-opacity="0.83"/>
<stop offset="0.25"/>
<stop offset="0.5" stop-color="#565656"/>
<stop offset="0.75" stop-color="#ADADAD"/>
<stop offset="0.88" stop-color="#ADADAD" stop-opacity="0.84"/>
<stop offset="1" stop-color="#ACACAC" stop-opacity="0.68"/>
</linearGradient>
<linearGradient id="paint15_linear_2064_24" x1="25.8077" y1="56.5388" x2="82.8834" y2="47.5514" gradientUnits="userSpaceOnUse">
<stop stop-color="#BFBFBF" stop-opacity="0.66"/>
<stop offset="0.13" stop-color="#606060" stop-opacity="0.83"/>
<stop offset="0.25"/>
<stop offset="0.5" stop-color="#565656"/>
<stop offset="0.75" stop-color="#ADADAD"/>
<stop offset="0.88" stop-color="#ADADAD" stop-opacity="0.84"/>
<stop offset="1" stop-color="#ACACAC" stop-opacity="0.68"/>
</linearGradient>
<linearGradient id="paint16_linear_2064_24" x1="33.1191" y1="44.4471" x2="90.1948" y2="35.4597" gradientUnits="userSpaceOnUse">
<stop stop-color="#BFBFBF" stop-opacity="0.66"/>
<stop offset="0.13" stop-color="#606060" stop-opacity="0.83"/>
<stop offset="0.25"/>
<stop offset="0.5" stop-color="#565656"/>
<stop offset="0.75" stop-color="#ADADAD"/>
<stop offset="0.88" stop-color="#ADADAD" stop-opacity="0.84"/>
<stop offset="1" stop-color="#ACACAC" stop-opacity="0.68"/>
</linearGradient>
<linearGradient id="paint17_linear_2064_24" x1="46.8896" y1="68.341" x2="42.6669" y2="46.1654" gradientUnits="userSpaceOnUse">
<stop stop-opacity="0.44"/>
<stop offset="0.5" stop-opacity="0.22"/>
<stop offset="1" stop-opacity="0"/>
</linearGradient>
<linearGradient id="paint18_linear_2064_24" x1="91.6796" y1="44.4302" x2="68.1023" y2="43.7882" gradientUnits="userSpaceOnUse">
<stop stop-color="#2A2723"/>
<stop offset="0.5" stop-color="#312F2D"/>
<stop offset="1" stop-color="#383736"/>
</linearGradient>
<linearGradient id="paint19_linear_2064_24" x1="64.1959" y1="42.0368" x2="67.1582" y2="47.5226" gradientUnits="userSpaceOnUse">
<stop stop-color="#8A8981"/>
<stop offset="0.07" stop-color="#68675E"/>
<stop offset="0.15" stop-color="#46443A"/>
<stop offset="0.57" stop-color="#5A5953"/>
<stop offset="1" stop-color="#6E6E6D"/>
</linearGradient>
<linearGradient id="paint20_linear_2064_24" x1="20.7007" y1="50.5349" x2="51.6313" y2="46.2746" gradientUnits="userSpaceOnUse">
<stop stop-color="#2A2723"/>
<stop offset="0.5" stop-color="#312F2D"/>
<stop offset="1" stop-color="#383736"/>
</linearGradient>
<linearGradient id="paint21_linear_2064_24" x1="55.578" y1="42.9816" x2="57.2987" y2="47.6977" gradientUnits="userSpaceOnUse">
<stop stop-color="#8A8981"/>
<stop offset="0.07" stop-color="#68675E"/>
<stop offset="0.15" stop-color="#46443A"/>
<stop offset="0.57" stop-color="#5A5953"/>
<stop offset="1" stop-color="#6E6E6D"/>
</linearGradient>
<linearGradient id="paint22_linear_2064_24" x1="60.411" y1="49.7481" x2="62.8199" y2="53.3484" gradientUnits="userSpaceOnUse">
<stop stop-color="#8A8981"/>
<stop offset="0.07" stop-color="#69685F"/>
<stop offset="0.15" stop-color="#48473D"/>
<stop offset="0.57" stop-color="#56554F"/>
<stop offset="1" stop-color="#646360"/>
</linearGradient>
<linearGradient id="paint23_linear_2064_24" x1="82.9579" y1="45.1005" x2="79.9349" y2="39.7398" gradientUnits="userSpaceOnUse">
<stop stop-color="#8A8981"/>
<stop offset="0.07" stop-color="#68675E"/>
<stop offset="0.15" stop-color="#46443A"/>
<stop offset="0.57" stop-color="#5A5953"/>
<stop offset="1" stop-color="#6E6E6D"/>
</linearGradient>
<linearGradient id="paint24_linear_2064_24" x1="80.2883" y1="49.5783" x2="78.9169" y2="38.6359" gradientUnits="userSpaceOnUse">
<stop stop-color="#8A8981"/>
<stop offset="0.07" stop-color="#68675E"/>
<stop offset="0.15" stop-color="#46443A"/>
<stop offset="0.57" stop-color="#5A5953"/>
<stop offset="1" stop-color="#6E6E6D"/>
</linearGradient>
<linearGradient id="paint25_linear_2064_24" x1="32.5356" y1="50.0028" x2="30.9638" y2="43.7453" gradientUnits="userSpaceOnUse">
<stop stop-color="#8A8981"/>
<stop offset="0.07" stop-color="#68675E"/>
<stop offset="0.15" stop-color="#46443A"/>
<stop offset="0.57" stop-color="#5A5953"/>
<stop offset="1" stop-color="#6E6E6D"/>
</linearGradient>
<linearGradient id="paint26_linear_2064_24" x1="30.9267" y1="50.1947" x2="29.355" y2="43.9372" gradientUnits="userSpaceOnUse">
<stop stop-color="#8A8981"/>
<stop offset="0.07" stop-color="#68675E"/>
<stop offset="0.15" stop-color="#46443A"/>
<stop offset="0.57" stop-color="#5A5953"/>
<stop offset="1" stop-color="#6E6E6D"/>
</linearGradient>
</defs>
</svg>
