<svg width="101" height="100" viewBox="0 0 101 100" fill="none" xmlns="http://www.w3.org/2000/svg">
<path d="M60.9638 2.69323C26.1428 -2.89388 -3.88686 26.0108 4.72488 63.4523C12.8787 98.9032 58.4727 108.825 85.5236 82.6883C108.145 60.8319 105.02 9.762 60.9638 2.69323Z" fill="url(#paint0_linear_59_33424)"/>
<path d="M87.2986 80.6597L84.6679 71.4411H79.1502M93.9935 27.1206L87.2942 32.1702L80.9114 30.7278M80.9114 30.7278L78.9228 34.821M80.9114 30.7278L76.3746 26.0928M27.9051 92.4823L31.4209 85.8052M31.4209 85.8052L29.6619 81.9951M31.4209 85.8052L37.9508 85.7183L40.5257 84.093M5.78048 54.8744L4.32245 54.3015L3.77848 55.3649L3.01825 55.6235M4.60558 50.9061L4.31799 54.3349M26.291 13.4031L25.426 13.1311L24.7995 11.8648M24.7995 11.8648L23.4753 11.2004M24.7995 11.8648L25.669 9.84717" stroke="#C9C9C9" stroke-width="3.56705" stroke-linecap="round" stroke-linejoin="round"/>
<path d="M67.4438 39.9148C67.4594 55.773 54.3044 69.8267 38.2484 71.2308C22.6127 72.5981 6.33785 60.4481 7.52189 40.7277C8.52534 24.0122 20.2716 10.9551 36.4943 9.41143C51.1796 8.01404 67.4237 19.3153 67.4438 39.9148Z" fill="url(#paint1_linear_59_33424)"/>
<g opacity="0.5">
<path d="M35.0793 61.2107C35.0793 61.2107 45.557 61.2816 50.3556 53.198" stroke="white" stroke-width="13.3764" stroke-linecap="round" stroke-linejoin="round"/>
</g>
<path d="M60.1669 42.2327C58.8231 54.3885 48.3004 63.4627 37.8556 63.6436C26.6339 63.8381 16.4528 55.9229 15.6683 42.9316C14.8593 29.534 25.3952 18.1013 37.5371 17.2268C49.4847 16.3663 62.0254 25.4232 60.1669 42.2327Z" fill="url(#paint2_linear_59_33424)"/>
<path d="M65.8282 39.9354C65.8629 53.6483 52.7095 67.805 38.2009 69.5042C22.213 71.3767 8.35546 58.765 9.13753 40.7072C9.79365 25.558 21.0521 12.4045 36.5418 11.1384C51.7163 9.89821 65.7816 21.6175 65.8282 39.9354Z" stroke="black" stroke-width="4.01293" stroke-linecap="round" stroke-linejoin="round"/>
<path d="M52.3955 30.9178C50.6064 33.468 47.2427 34.1507 44.8822 32.4423C42.5217 30.7339 42.0584 27.2814 43.8475 24.7312C45.6366 22.181 49.0003 21.4983 51.3608 23.2067C53.7213 24.9151 54.1846 28.3676 52.3955 30.9178Z" fill="white"/>
<path d="M39.6759 37.0362C38.8539 38.2079 37.3083 38.5214 36.2239 37.7364C35.1395 36.9514 34.9266 35.3654 35.7486 34.1937C36.5706 33.0219 38.1162 32.7084 39.2006 33.4934C40.285 34.2784 40.4979 35.8644 39.6759 37.0362Z" fill="white"/>
<g opacity="0.3">
<path d="M85.5231 82.6881C58.472 108.824 12.8791 98.9028 4.72596 63.4513C4.60111 62.9093 4.73621 48.5772 4.6272 48.0399C6.24374 78.2019 47.0191 90.7258 73.3548 67.3253C92.1893 50.5901 92.803 24.682 78.6427 9.17444C104.876 27.12 101.469 67.2794 85.5231 82.6881Z" fill="#A6A6A6"/>
</g>
<path d="M80.9114 18.3208C80.9114 26.1264 68.7482 32.4539 52.5065 32.4539C36.2649 32.4539 23.0984 26.1264 23.0984 18.3208C23.0984 10.5152 36.2649 4.18774 52.5065 4.18774C68.7482 4.18774 80.9114 10.5152 80.9114 18.3208Z" fill="url(#paint3_linear_59_33424)"/>
<g opacity="0.6">
<path d="M60.3045 6.17293C27.8277 0.79137 -0.959267 28.8393 7.85156 64.6981C16.1483 98.4647 56.8293 109.387 82.0764 84.1945C103.175 63.1416 101.395 12.982 60.3045 6.17293Z" stroke="white" stroke-width="4.01293" stroke-linecap="round" stroke-linejoin="round"/>
</g>
<path d="M60.9638 2.69311C26.1218 -2.74351 -4.72181 26.2247 4.72485 63.4522C13.6204 98.5078 59.7365 110.276 85.5236 82.6879C107.42 59.262 102.595 9.18915 60.9638 2.69311Z" stroke="url(#paint4_linear_59_33424)" stroke-width="4.01293" stroke-linecap="round" stroke-linejoin="round"/>
<defs>
<linearGradient id="paint0_linear_59_33424" x1="47.4704" y1="69.8114" x2="57.807" y2="10.973" gradientUnits="userSpaceOnUse">
<stop stop-color="#F9F0FF"/>
<stop offset="0.34" stop-color="#FCF8FF"/>
<stop offset="0.77" stop-color="white"/>
</linearGradient>
<linearGradient id="paint1_linear_59_33424" x1="40.5592" y1="19.2039" x2="33.22" y2="66.0231" gradientUnits="userSpaceOnUse">
<stop stop-color="#EFEFEF"/>
<stop offset="0.5" stop-color="#939393"/>
<stop offset="1" stop-color="#383838"/>
</linearGradient>
<linearGradient id="paint2_linear_59_33424" x1="49.4847" y1="16.645" x2="22.4448" y2="56.3328" gradientUnits="userSpaceOnUse">
<stop stop-color="#00302D"/>
<stop offset="0.5" stop-color="#001816"/>
<stop offset="1"/>
</linearGradient>
<linearGradient id="paint3_linear_59_33424" x1="51.9291" y1="6.94217" x2="51.9291" y2="34.7502" gradientUnits="userSpaceOnUse">
<stop stop-color="white"/>
<stop offset="0.54" stop-color="white" stop-opacity="0.5"/>
<stop offset="1" stop-color="white" stop-opacity="0"/>
</linearGradient>
<linearGradient id="paint4_linear_59_33424" x1="68.264" y1="96.938" x2="34.2219" y2="3.40853" gradientUnits="userSpaceOnUse">
<stop offset="0.18" stop-color="#A9A9A9"/>
<stop offset="0.36" stop-color="#BCBCBC"/>
<stop offset="0.54" stop-color="#CFCFCF"/>
</linearGradient>
</defs>
</svg>
