<svg width="95" height="81" viewBox="0 0 95 81" fill="none" xmlns="http://www.w3.org/2000/svg">
<path d="M37.3161 8.62034L46.9254 21.5414V5.44055H46.3696L39.6129 5.44055C37.3562 5.44055 36.1712 7.08095 37.3161 8.62034Z" stroke="#0089C3" stroke-width="4.12875" stroke-linecap="round" stroke-linejoin="round"/>
<path d="M56.5118 8.62022L46.9254 21.5413V5.44043H47.3977L54.2206 5.44043C56.4718 5.44043 57.6538 7.08083 56.5118 8.62022Z" stroke="#0089C3" stroke-width="4.12875" stroke-linecap="round" stroke-linejoin="round"/>
<path d="M37.3167 8.6201L46.9258 21.5412V5.44031L39.6133 5.44031C37.3566 5.44031 36.1719 7.08071 37.3167 8.6201Z" stroke="#0089C3" stroke-width="2.06438" stroke-linecap="round" stroke-linejoin="round"/>
<path d="M56.5345 8.62034L46.9253 21.5414V5.44055L54.2378 5.44055C56.4945 5.44055 57.6792 7.08095 56.5345 8.62034Z" stroke="#0089C3" stroke-width="2.06438" stroke-linecap="round" stroke-linejoin="round"/>
<path d="M7.65227 53.9883C6.24093 71.5099 30.2136 77.9559 47.4552 77.9588C64.7025 77.9616 87.9807 71.9725 87.2752 53.9883C86.2673 49.5733 83.6108 44.3754 80.8131 40.7385C72.2175 68.5032 21.7412 64.8765 14.5484 40.196C11.7507 43.8329 8.66022 49.5733 7.65227 53.9883Z" fill="url(#paint0_radial_59_33455)"/>
<path d="M7.65227 53.9883C6.24093 71.5099 30.2136 77.9559 47.4552 77.9588C64.7025 77.9616 87.9807 71.9725 87.2752 53.9883C86.2673 49.5733 83.6108 44.3754 80.8131 40.7385C72.2175 68.5032 21.7412 64.8765 14.5484 40.196C11.7507 43.8329 8.66022 49.5733 7.65227 53.9883Z" fill="url(#paint1_radial_59_33455)"/>
<path d="M7.65227 53.9883C6.24093 71.5099 30.2136 77.9559 47.4552 77.9588C64.7025 77.9616 87.9807 71.9725 87.2752 53.9883C86.2673 49.5733 83.6108 44.3754 80.8131 40.7385C72.2175 68.5032 21.7412 64.8765 14.5484 40.196C11.7507 43.8329 8.66022 49.5733 7.65227 53.9883Z" stroke="#005380" stroke-width="1.40625" stroke-linecap="round" stroke-linejoin="round"/>
<path d="M88.589 24.0901C84.3538 15.2206 74.1882 3.66236 71.8375 1.13696L22.9058 1.24872C22.9058 1.24872 11.1737 14.3344 6.64261 23.3849C-2.50811 41.6625 2.53705 56.6306 4.02586 59.7534C2.08244 22.7404 93.1329 23.2133 91.0974 59.6449C91.84 57.8922 97.917 43.6263 88.589 24.0901Z" fill="url(#paint2_radial_59_33455)"/>
<path d="M2.29839 57.328C-0.0612259 42.5918 18.2376 32.5905 22.6637 25.2428C19.8612 17.4687 20.25 6.13108 22.8729 1.10828C18.5457 5.62136 10.6855 15.7891 6.28374 25.0078C4.33229 29.0949 2.31532 34.0198 1.44451 40.0493C0.727772 45.0113 0.787229 50.7211 2.29839 57.328Z" fill="url(#paint3_radial_59_33455)"/>
<path d="M2.29839 57.328C-0.0612259 42.5918 18.2376 32.5905 22.6637 25.2428C19.8612 17.4687 20.25 6.13108 22.8729 1.10828C18.5457 5.62136 10.6855 15.7891 6.28374 25.0078C4.33229 29.0949 2.31532 34.0198 1.44451 40.0493C0.727772 45.0113 0.787229 50.7211 2.29839 57.328Z" fill="url(#paint4_radial_59_33455)"/>
<path d="M92.6281 57.3284C94.9878 42.5922 79.0277 31.0254 72.9138 25.2431C76.0039 16.6711 74.3028 4.7177 71.6201 1.00012C76.1525 5.74539 84.0186 14.9135 88.7513 24.4656C92.4168 31.8637 95.9755 42.6935 92.6281 57.3284Z" fill="url(#paint5_radial_59_33455)"/>
<path d="M88.589 24.0901C84.3538 15.2206 74.1882 3.66236 71.8375 1.13696L22.9058 1.24872C22.9058 1.24872 11.1737 14.3344 6.64261 23.3849C-2.50811 41.6625 2.53705 56.6306 4.02586 59.7534C2.08244 22.7404 93.1328 23.2133 91.0974 59.6449C91.84 57.8922 97.917 43.6263 88.589 24.0901Z" stroke="url(#paint6_linear_59_33455)" stroke-width="1.40625" stroke-linecap="round" stroke-linejoin="round"/>
<path d="M82.8253 53.4302C82.8253 65.3246 67.038 74.967 47.5634 74.967C28.0889 74.967 12.3016 65.3246 12.3016 53.4302C12.3016 41.5358 28.0889 31.8933 47.5634 31.8933C67.038 31.8933 82.8253 41.5358 82.8253 53.4302ZM22.1758 25.1027C19.3446 27.9338 13.7911 31.9808 9.24001 37.1162C4.68918 42.2518 1.14086 48.4759 2.32067 55.6618C3.57881 63.3254 10.5235 69.3996 19.3227 73.5576C28.1219 77.7157 38.7753 79.9579 47.4508 79.9579C64.8018 79.9579 90.1244 70.9891 92.6409 55.6618C95.0005 41.2901 78.0607 30.6925 72.4709 25.1027L22.1758 25.1027Z" fill="url(#paint7_linear_59_33455)"/>
<path d="M82.8253 53.4302C82.8253 65.3246 67.038 74.967 47.5634 74.967C28.0889 74.967 12.3016 65.3246 12.3016 53.4302C12.3016 41.5358 28.0889 31.8933 47.5634 31.8933C67.038 31.8933 82.8253 41.5358 82.8253 53.4302ZM22.1758 25.1027C19.3446 27.9338 13.7911 31.9808 9.24001 37.1162C4.68918 42.2518 1.14086 48.4759 2.32067 55.6618C3.57881 63.3254 10.5235 69.3996 19.3227 73.5576C28.1219 77.7157 38.7753 79.9579 47.4508 79.9579C64.8018 79.9579 90.1244 70.9891 92.6409 55.6618C95.0005 41.2901 78.0607 30.6925 72.4709 25.1027L22.1758 25.1027Z" stroke="#005380" stroke-width="1.40625" stroke-linecap="round" stroke-linejoin="round"/>
<mask id="mask0_59_33455" style="mask-type:luminance" maskUnits="userSpaceOnUse" x="1" y="24" width="93" height="57">
<path d="M22.1758 25.1027C19.3446 27.9338 13.7911 31.9808 9.24001 37.1162C4.68918 42.2518 1.14086 48.4759 2.32067 55.6618C3.57881 63.3254 10.5235 69.3996 19.3227 73.5576C28.1219 77.7157 38.7753 79.9579 47.4508 79.9579C64.8018 79.9579 90.1244 70.9891 92.6409 55.6618C95.0005 41.2901 78.0607 30.6925 72.4709 25.1027L22.1758 25.1027Z" fill="black" stroke="url(#paint8_linear_59_33455)" stroke-width="1.42383" stroke-linecap="round" stroke-linejoin="round"/>
</mask>
<g mask="url(#mask0_59_33455)">
<path d="M22.1758 25.1027C19.3446 27.9338 13.7911 31.9808 9.24001 37.1162C4.68918 42.2518 1.14086 48.4759 2.32067 55.6618C3.57881 63.3254 10.5235 69.3996 19.3227 73.5576C28.1219 77.7157 38.7753 79.9579 47.4508 79.9579C64.8018 79.9579 90.1244 70.9891 92.6409 55.6618C95.0005 41.2901 78.0607 30.6925 72.4709 25.1027L22.1758 25.1027Z" stroke="url(#paint9_linear_59_33455)" stroke-width="1.42383" stroke-linecap="round" stroke-linejoin="round"/>
</g>
<mask id="mask1_59_33455" style="mask-type:luminance" maskUnits="userSpaceOnUse" x="11" y="31" width="73" height="45">
<path d="M82.8252 53.43C82.8252 65.3244 67.0379 74.9669 47.5634 74.9669C28.0889 74.9669 12.3016 65.3244 12.3016 53.43C12.3016 41.5356 28.0889 31.8932 47.5634 31.8932C67.0379 31.8932 82.8252 41.5356 82.8252 53.43Z" fill="black" stroke="url(#paint10_linear_59_33455)" stroke-width="1.42383" stroke-linecap="round" stroke-linejoin="round"/>
</mask>
<g mask="url(#mask1_59_33455)">
<path d="M82.8253 53.43C82.8253 65.3244 67.0379 74.9669 47.5634 74.9669C28.0889 74.9669 12.3016 65.3244 12.3016 53.43C12.3016 41.5356 28.0889 31.8932 47.5634 31.8932C67.0379 31.8932 82.8253 41.5356 82.8253 53.43Z" stroke="url(#paint11_linear_59_33455)" stroke-width="1.42383" stroke-linecap="round" stroke-linejoin="round"/>
</g>
<path d="M22.8919 1.32544L71.8564 1.30005" stroke="#006B9E" stroke-width="1.40625" stroke-linecap="round" stroke-linejoin="round"/>
<path d="M37.3164 9.92198L46.9257 22.8431V6.74219H46.3699L39.6132 6.74219C37.3565 6.74219 36.1715 8.38259 37.3164 9.92198Z" stroke="#006DA0" stroke-width="2.06438" stroke-linecap="round" stroke-linejoin="round"/>
<path d="M56.5119 9.9221L46.9255 22.8432V6.74231H47.3979L54.2207 6.74231C56.4719 6.74231 57.6539 8.38271 56.5119 9.9221Z" stroke="#006DA0" stroke-width="2.06438" stroke-linecap="round" stroke-linejoin="round"/>
<path d="M37.3161 8.62034L46.9254 21.5414V5.44055H46.3696L39.6129 5.44055C37.3562 5.44055 36.1712 7.08095 37.3161 8.62034Z" stroke="white" stroke-width="2.06438" stroke-linecap="round" stroke-linejoin="round"/>
<path d="M56.5118 8.62022L46.9254 21.5413V5.44043H47.3977L54.2206 5.44043C56.4718 5.44043 57.6538 7.08083 56.5118 8.62022Z" stroke="white" stroke-width="2.06438" stroke-linecap="round" stroke-linejoin="round"/>
<path d="M37.3167 8.6201L46.9258 21.5412V5.44031L39.6133 5.44031C37.3566 5.44031 36.1719 7.08071 37.3167 8.6201Z" stroke="white" stroke-width="2.06438" stroke-linecap="round" stroke-linejoin="round"/>
<path d="M56.5345 8.62034L46.9253 21.5414V5.44055L54.2378 5.44055C56.4945 5.44055 57.6792 7.08095 56.5345 8.62034Z" stroke="white" stroke-width="2.06438" stroke-linecap="round" stroke-linejoin="round"/>
<defs>
<radialGradient id="paint0_radial_59_33455" cx="0" cy="0" r="1" gradientUnits="userSpaceOnUse" gradientTransform="translate(47.2673 60.2206) scale(31.099 31.099)">
<stop offset="0.44" stop-color="#007CBE"/>
<stop offset="0.53" stop-color="#006EA9"/>
<stop offset="0.62" stop-color="#006094"/>
</radialGradient>
<radialGradient id="paint1_radial_59_33455" cx="0" cy="0" r="1" gradientUnits="userSpaceOnUse" gradientTransform="translate(30.0224 57.2343) scale(14.9538 14.9538)">
<stop stop-color="#00B5FF"/>
<stop offset="0.5" stop-color="#00B5FF" stop-opacity="0.5"/>
<stop offset="1" stop-color="#00B5FF" stop-opacity="0"/>
</radialGradient>
<radialGradient id="paint2_radial_59_33455" cx="0" cy="0" r="1" gradientUnits="userSpaceOnUse" gradientTransform="translate(48.0548 1.39215) scale(64.3758 64.3758)">
<stop offset="0.2" stop-color="#0198E9"/>
<stop offset="0.32" stop-color="#0198E9"/>
<stop offset="0.44" stop-color="#0198E9"/>
<stop offset="0.7" stop-color="#0189D3"/>
<stop offset="0.93" stop-color="#007BBD"/>
</radialGradient>
<radialGradient id="paint3_radial_59_33455" cx="0" cy="0" r="1" gradientUnits="userSpaceOnUse" gradientTransform="translate(18.0981 13.5131) scale(27.6434 27.6434)">
<stop stop-color="#0198E9"/>
<stop offset="0.25" stop-color="#0198E9"/>
<stop offset="0.55" stop-color="#0198E9"/>
<stop offset="0.71" stop-color="#0198E9" stop-opacity="0.5"/>
<stop offset="0.89" stop-color="#0198E9" stop-opacity="0"/>
</radialGradient>
<radialGradient id="paint4_radial_59_33455" cx="0" cy="0" r="1" gradientUnits="userSpaceOnUse" gradientTransform="translate(62.9917 61.1352) scale(11.5682)">
<stop stop-color="#00EDFF"/>
<stop offset="0.5" stop-color="#00EFFF" stop-opacity="0.5"/>
<stop offset="1" stop-color="#00F0FF" stop-opacity="0"/>
</radialGradient>
<radialGradient id="paint5_radial_59_33455" cx="0" cy="0" r="1" gradientUnits="userSpaceOnUse" gradientTransform="translate(76.8347 13.5134) scale(27.6353)">
<stop stop-color="#0198E9"/>
<stop offset="0.25" stop-color="#0198E9"/>
<stop offset="0.55" stop-color="#0198E9"/>
<stop offset="0.71" stop-color="#0198E9" stop-opacity="0.5"/>
<stop offset="0.89" stop-color="#0198E9" stop-opacity="0"/>
</radialGradient>
<linearGradient id="paint6_linear_59_33455" x1="47.613" y1="30.0313" x2="47.5322" y2="2.29268" gradientUnits="userSpaceOnUse">
<stop stop-color="#005380"/>
<stop offset="0.69" stop-color="#0072A6"/>
<stop offset="1" stop-color="#0091CC"/>
</linearGradient>
<linearGradient id="paint7_linear_59_33455" x1="83.0889" y1="70.447" x2="28.6232" y2="56.4733" gradientUnits="userSpaceOnUse">
<stop stop-color="#0198E9"/>
<stop offset="0.46" stop-color="#0189D3"/>
<stop offset="1" stop-color="#007BBD"/>
</linearGradient>
<linearGradient id="paint8_linear_59_33455" x1="47.4421" y1="44.6616" x2="47.0561" y2="25.298" gradientUnits="userSpaceOnUse">
<stop offset="0.01" stop-color="white" stop-opacity="0"/>
<stop offset="0.31" stop-color="white" stop-opacity="0.5"/>
<stop offset="1" stop-color="white"/>
</linearGradient>
<linearGradient id="paint9_linear_59_33455" x1="47.4421" y1="44.6616" x2="47.0561" y2="25.298" gradientUnits="userSpaceOnUse">
<stop stop-color="#00B5FF"/>
<stop offset="0.69" stop-color="#00B5FF"/>
<stop offset="1" stop-color="#00B5FF"/>
</linearGradient>
<linearGradient id="paint10_linear_59_33455" x1="47.4421" y1="58.7924" x2="47.8774" y2="75.3777" gradientUnits="userSpaceOnUse">
<stop offset="0.01" stop-color="white" stop-opacity="0"/>
<stop offset="0.31" stop-color="white" stop-opacity="0.5"/>
<stop offset="1" stop-color="white"/>
</linearGradient>
<linearGradient id="paint11_linear_59_33455" x1="47.4421" y1="58.7924" x2="47.8774" y2="75.3777" gradientUnits="userSpaceOnUse">
<stop stop-color="#00B5FF"/>
<stop offset="0.69" stop-color="#00B5FF"/>
<stop offset="1" stop-color="#00B5FF"/>
</linearGradient>
</defs>
</svg>
