<svg width="95" height="94" viewBox="0 0 95 94" fill="none" xmlns="http://www.w3.org/2000/svg">
<path d="M44.8722 40.0906C44.4286 45.0202 40.7933 48.7214 36.7528 48.3578C32.7122 47.9942 29.7961 43.7033 30.2397 38.7737C30.6832 33.8441 34.3186 30.1429 38.3591 30.5065C42.3997 30.87 45.3158 35.161 44.8722 40.0906Z" fill="#1A6796"/>
<path d="M44.8722 40.0906C44.4286 45.0202 40.7933 48.7214 36.7528 48.3578C32.7122 47.9942 29.7961 43.7033 30.2397 38.7737C30.6832 33.8441 34.3186 30.1429 38.3591 30.5065C42.3997 30.87 45.3158 35.161 44.8722 40.0906Z" stroke="#0253A5" stroke-width="1.42963" stroke-linecap="round" stroke-linejoin="round"/>
<path d="M46.8371 40.1702C46.3935 45.0998 42.7582 48.801 38.7176 48.4374C34.6771 48.0738 31.7609 43.7829 32.2045 38.8533C32.6481 33.9237 36.2834 30.2225 40.324 30.5861C44.3645 30.9496 47.2807 35.2406 46.8371 40.1702Z" fill="#1A6796"/>
<path d="M46.8371 40.1702C46.3935 45.0998 42.7582 48.801 38.7176 48.4374C34.6771 48.0738 31.7609 43.7829 32.2045 38.8533C32.6481 33.9237 36.2834 30.2225 40.324 30.5861C44.3645 30.9496 47.2807 35.2406 46.8371 40.1702Z" stroke="#0253A5" stroke-width="1.42963" stroke-linecap="round" stroke-linejoin="round"/>
<g opacity="0.7">
<path d="M67.8739 66.4344C78.456 59.895 76.4348 43.2487 76.4348 43.2487C76.4348 43.2487 62.9989 27.0882 38.5052 19.4784C25.1601 15.3325 16.49 16.5787 10.5377 18.206C-0.219543 30.6526 -0.807859 60.4214 3.51532 74.5393C6.16226 76.9398 9.72086 78.8531 14.4872 79.3948C30.1822 81.1783 54.6888 74.5826 67.8739 66.4344Z" fill="#000C56"/>
</g>
<path d="M67.8739 66.4344C78.456 59.895 76.4348 43.2487 76.4348 43.2487C76.4348 43.2487 62.9989 27.0882 38.5052 19.4784C25.1601 15.3325 16.49 16.5787 10.5377 18.206C-0.219543 30.6526 -0.807859 60.4214 3.51532 74.5393C6.16226 76.9399 9.72086 78.8531 14.4872 79.3948C30.1822 81.1783 54.6888 74.5826 67.8739 66.4344Z" stroke="url(#paint0_linear_59_33529)" stroke-width="1.40625" stroke-linecap="round" stroke-linejoin="round"/>
<path d="M40.8241 79.3944C40.8241 79.3944 47.2448 70.477 59.3727 66.3748C71.5007 62.2725 78.6349 63.521 78.6349 63.521L81.8452 56.5652C81.8452 56.5652 57.946 56.5654 41.1809 66.1964C24.4158 75.8273 25.8426 81.8914 25.8426 81.8914L40.8241 79.3944Z" fill="#0F1828"/>
<path d="M76.851 59.7757C77.7353 60.0748 78.4754 60.408 79.0889 60.77C86.7766 48.7585 83.349 33.5107 63.8313 23.0352C32.2631 6.09173 9.969 19.1114 9.969 19.1114C8.60152 20.8949 6.81798 24.2836 6.81798 24.2836C6.39157 25.4861 5.86679 28.3858 10.6823 31.4178C15.4977 34.4497 35.1166 42.119 35.1166 42.119C35.6518 44.2593 37.4351 52.1067 34.4031 55.6737C31.3712 59.2408 19.5997 65.3047 11.7523 70.1202C3.90488 74.9356 4.79677 77.2543 4.79677 77.2543C4.79677 77.2543 13.8902 81.6561 31.1632 80.8562C31.5361 79.7196 32.3083 78.3519 33.6899 76.7192C39.5756 69.7634 64.723 55.6735 76.851 59.7757Z" fill="url(#paint1_linear_59_33529)"/>
<path d="M76.851 59.7757C77.7353 60.0748 78.4754 60.408 79.0889 60.77C86.7766 48.7585 83.349 33.5107 63.8313 23.0352C32.2631 6.09173 9.969 19.1114 9.969 19.1114C8.60152 20.8949 6.81798 24.2836 6.81798 24.2836C6.39157 25.4861 5.86679 28.3858 10.6823 31.4178C15.4977 34.4497 35.1166 42.119 35.1166 42.119C35.6518 44.2593 37.4351 52.1067 34.4031 55.6737C31.3712 59.2408 19.5997 65.3047 11.7523 70.1202C3.90488 74.9356 4.79677 77.2543 4.79677 77.2543C4.79677 77.2543 13.8902 81.6561 31.1632 80.8562C31.5362 79.7196 32.3083 78.3519 33.6899 76.7192C39.5756 69.7634 64.723 55.6735 76.851 59.7757Z" stroke="#1D273D" stroke-width="1.40625" stroke-linecap="round" stroke-linejoin="round"/>
<g opacity="0.5">
<path d="M18.5297 72.2605C18.5297 72.2605 25.8423 66.3747 31.728 62.9861C37.6137 59.5974 39.2187 58.7057 40.4671 53.1767C41.7155 47.6477 42.0725 24.759 58.4808 17.09C74.8891 9.42092 86.1255 23.9269 85.9471 40.3352C85.7687 56.7436 75.781 60.6674 75.781 60.6674C75.781 60.6674 59.1941 58.3487 46.1744 67.2664C33.1548 76.1841 31.1632 80.856 31.1632 80.856C31.1632 80.856 13.1791 80.8214 18.5297 72.2605Z" fill="#1D273D"/>
</g>
<path d="M67.874 66.4346C78.4561 59.8951 76.4349 43.2488 76.4349 43.2488C76.4349 43.2488 62.999 27.088 38.5053 19.4783C25.1602 15.3323 16.4901 16.5789 10.5377 18.2061C9.06553 20.0643 7.92538 22.1158 6.81793 24.3434C27.1574 18.9968 51.1065 27.1415 69.5384 44.7944C69.5384 44.7944 70.7275 55.3766 63.9501 62.5107C57.1728 69.6449 31.9656 76.6599 18.054 79.157C17.3542 79.2826 16.7423 79.4151 16.2037 79.553C31.9202 80.7038 55.16 74.2916 67.874 66.4346Z" fill="url(#paint2_linear_59_33529)"/>
<path d="M67.874 66.4346C78.4561 59.8951 76.4349 43.2488 76.4349 43.2488C76.4349 43.2488 62.999 27.088 38.5053 19.4783C25.1602 15.3323 16.4901 16.5789 10.5377 18.2061C9.06553 20.0643 7.92538 22.1158 6.81793 24.3434C27.1574 18.9968 51.1065 27.1415 69.5384 44.7944C69.5384 44.7944 70.7275 55.3766 63.9501 62.5107C57.1728 69.6449 31.9656 76.6599 18.054 79.157C17.3542 79.2826 16.7423 79.4151 16.2037 79.553C31.9202 80.7038 55.16 74.2916 67.874 66.4346Z" stroke="#1D273D" stroke-width="1.40625" stroke-linecap="round" stroke-linejoin="round"/>
<path d="M10.0878 29.813C10.0878 29.813 13.8925 25.1761 18.4108 29.4565C18.4108 29.4565 24.8316 29.2186 24.1181 33.618C23.4046 38.0174 7.23419 35.5204 6.04509 32.4289C4.85598 29.3374 10.0878 29.813 10.0878 29.813Z" fill="url(#paint3_linear_59_33529)"/>
<path d="M1.88362 50.5617C1.88362 50.5617 4.38043 48.0647 8.06634 50.3238C11.7523 52.5829 12.2278 54.7232 12.2278 54.7232C12.2278 54.7232 15.2005 53.5341 16.8652 56.5068C18.5299 59.4794 9.13661 58.4091 9.13661 58.4091C9.13661 58.4091 5.5693 61.1439 3.54808 60.1927C1.52687 59.2415 0.456843 54.1288 1.88362 50.5617Z" fill="url(#paint4_linear_59_33529)"/>
<path d="M34.9381 45.3297C34.9381 45.3297 37.5538 37.8388 45.6391 40.098C53.7244 42.3571 53.4868 48.4212 53.4868 48.4212C53.4868 48.4212 58.7183 46.6374 62.761 48.3021C66.8036 49.9668 65.3769 52.226 65.3769 52.226C65.3769 52.226 71.084 56.1498 56.9348 56.9821C42.7856 57.8145 40.6453 57.2198 40.6453 57.2198C40.6453 57.2198 26.734 58.1117 23.6425 55.4958C20.551 52.8799 25.3072 43.0706 34.9381 45.3297Z" fill="url(#paint5_linear_59_33529)"/>
<path d="M4.1427 62.808C4.1427 62.808 12.3765 61.084 22.0075 61.9164C31.6384 62.7487 34.8193 65.186 40.4076 66.1372C45.9959 67.0884 68.6114 63.9035 65.6148 66.7319C41.24 89.7392 11.7524 80.5243 6.99626 76.8384C2.24009 73.1525 4.1427 62.808 4.1427 62.808Z" fill="url(#paint6_linear_59_33529)"/>
<path d="M50.4884 48.239C51.8203 60.0444 43.3596 70.3903 31.5905 71.3471C19.8214 72.3039 9.20089 63.5093 7.86894 51.704C6.537 39.8986 14.9977 29.5527 26.7668 28.5959C38.5359 27.6391 49.1564 36.4337 50.4884 48.239Z" fill="url(#paint7_radial_59_33529)"/>
<path d="M45.4681 63.8003C29.3631 63.8003 16.3074 50.7447 16.3074 34.6397C16.3074 29.9786 17.4012 25.5728 19.3457 21.6652C24.12 12.0712 34.0242 5.479 45.4681 5.479C61.5731 5.479 74.6287 18.5347 74.6287 34.6397C74.6287 43.1561 70.9779 50.8197 65.1559 56.151C59.9682 60.9016 53.0566 63.8003 45.4681 63.8003Z" stroke="url(#paint8_radial_59_33529)" stroke-width="2.8125" stroke-linecap="round" stroke-linejoin="round"/>
<path d="M58.1239 1.4547C46.2282 -0.340842 22.7664 2.77182 10.5377 18.2059C16.49 16.5786 25.1601 15.3323 38.5052 19.4783C62.9989 27.0881 76.4348 43.2486 76.4348 43.2486C76.4348 43.2486 78.456 59.8948 67.8739 66.4346C58.848 72.0123 44.5169 76.8618 31.3388 78.7948C26.8721 77.8354 19.2445 70.1998 11.486 70.6248C8.19336 70.805 5.13413 72.3641 3.51532 74.5392C4.10458 78.159 6.33617 84.1153 6.33617 84.1153C8.19313 87.7191 13.9525 91.9107 13.9525 91.9107C13.9525 91.9107 33.2419 93.2445 54.7352 85.865C78.6721 77.6464 84.0742 65.5723 84.0742 65.5723C84.0742 65.5723 86.9551 55.2587 87.6804 36.4044C88.4056 17.5501 77.0293 4.30826 58.1239 1.4547Z" fill="url(#paint9_linear_59_33529)"/>
<path d="M81.0926 13.9527C78.9495 11.1891 76.3195 8.81156 73.2522 6.87012C71.5473 7.41137 59.6643 11.4672 47.7796 22.8568C47.7796 22.8568 55.1324 26.5215 58.2544 28.4236C58.2707 28.4104 66.4923 18.9501 81.0926 13.9527Z" fill="#BFD3EF"/>
<path d="M13.8926 16.9716C13.8926 16.9716 26.7339 0.563252 59.9073 1.99003" stroke="#D4F3FF" stroke-width="1.40625" stroke-linecap="round" stroke-linejoin="round"/>
<g opacity="0.32">
<path d="M76.1375 16.0799C73.1055 8.76735 59.3724 6.09216 59.3724 6.09216C59.3724 6.09216 41.7156 7.16219 33.3331 17.8634C38.409 19.2591 49.4905 22.4353 58.4807 28.2076C66.3281 20.5386 76.1375 16.0799 76.1375 16.0799Z" fill="white"/>
</g>
<path d="M84.7893 20.449C86.2704 24.4462 86.7811 30.7398 86.5971 35.5228C85.8836 54.0714 83.03 63.7619 83.03 63.7619C83.03 63.7619 77.8615 76.3029 54.319 84.3882C33.1799 91.648 13.9526 91.9104 13.9526 91.9104" stroke="url(#paint10_linear_59_33529)" stroke-width="1.40625" stroke-linecap="round" stroke-linejoin="round"/>
<path d="M59.5805 29.2474C70.5893 36.2178 76.4348 43.2489 76.4348 43.2489C76.4348 43.2489 78.456 59.8951 67.8739 66.4348C58.8479 72.0125 44.5168 76.8621 31.3388 78.7951C26.8721 77.8357 19.2444 70.2 11.486 70.625C8.1933 70.8053 5.13407 72.3643 3.51526 74.5394C4.10451 78.1592 6.33611 84.1156 6.33611 84.1156C8.19307 87.7193 13.9524 91.911 13.9524 91.911C13.9524 91.911 33.2419 93.2448 54.7351 85.8652C78.672 77.6467 84.0742 65.5726 84.0742 65.5726C84.0742 65.5726 86.955 55.2589 87.6803 36.4046C88.4056 17.5503 77.0292 4.30852 58.1238 1.45496" stroke="#0F4593" stroke-width="1.40625" stroke-linecap="round" stroke-linejoin="round"/>
<path d="M4.07147 77.0651C4.94712 80.4077 6.33625 84.1152 6.33625 84.1152C8.19321 87.719 13.9526 91.9106 13.9526 91.9106C13.9526 91.9106 33.242 93.2444 54.7353 85.8649C78.6722 77.6463 84.0743 65.5722 84.0743 65.5722C84.0743 65.5722 86.4059 57.2245 87.402 41.8203" stroke="#032266" stroke-width="1.40625" stroke-linecap="round" stroke-linejoin="round"/>
<path d="M81.7012 14.7636C76.6174 7.72166 68.506 3.02173 58.1239 1.4547C46.2281 -0.340842 22.7664 2.77182 10.5377 18.2059C16.49 16.5786 25.1601 15.3323 38.5052 19.4783C46.9424 22.0996 54.0676 25.7356 59.7836 29.3761" stroke="#379FD3" stroke-width="1.40625" stroke-linecap="round" stroke-linejoin="round"/>
<g opacity="0.94">
<path d="M67.8739 66.4344C78.456 59.895 76.4348 43.2487 76.4348 43.2487C76.4348 43.2487 62.9989 27.0882 38.5052 19.4784C25.1601 15.3325 16.49 16.5787 10.5377 18.206C-0.219543 30.6526 -0.807859 60.4214 3.51532 74.5393C6.16226 76.9398 9.72086 78.8531 14.4872 79.3948C30.1822 81.1783 54.6888 74.5826 67.8739 66.4344Z" fill="url(#paint11_radial_59_33529)"/>
</g>
<path d="M11.2172 20.717C11.2172 20.717 -0.554055 38.1956 4.97493 68.6939" stroke="url(#paint12_radial_59_33529)" stroke-width="1.40625" stroke-linecap="round" stroke-linejoin="round"/>
<g opacity="0.57">
<path d="M33.1984 18.0493C24.148 27.9401 14.7843 45.5968 22.6478 79.6327C30.4924 79.3138 39.3945 77.6136 47.6919 75.0947C46.7094 69.5852 46.3528 48.0047 58.5609 28.6122C53.062 25.2317 34.8812 18.431 33.1984 18.0493Z" fill="url(#paint13_radial_59_33529)"/>
</g>
<path d="M68.1471 35.4047C66.685 37.5419 57.4106 51.0371 58.8553 71.0434C61.1302 70.0644 63.2723 69.0332 65.2317 67.9655C65.0796 64.057 66.8632 51.2157 73.3643 40.0274C72.0413 38.743 70.297 37.1529 68.1471 35.4047Z" fill="url(#paint14_radial_59_33529)"/>
<path d="M67.8739 66.4344C78.456 59.895 76.4348 43.2487 76.4348 43.2487C76.4348 43.2487 62.9989 27.0882 38.5052 19.4784C25.1601 15.3325 16.49 16.5787 10.5377 18.206C-0.219543 30.6526 -0.807859 60.4214 3.51532 74.5393C6.16226 76.9399 9.72086 78.8531 14.4872 79.3948C30.1822 81.1783 54.6888 74.5826 67.8739 66.4344Z" stroke="url(#paint15_linear_59_33529)" stroke-width="1.40625" stroke-linecap="round" stroke-linejoin="round"/>
<path d="M76.589 46.6186C76.5956 44.5717 76.4349 43.2487 76.4349 43.2487C76.4349 43.2487 62.9989 27.0882 38.5052 19.4784C25.3016 15.3765 16.6743 16.5529 10.7278 18.1545" stroke="#0F4593" stroke-width="1.40625" stroke-linecap="round" stroke-linejoin="round"/>
<path d="M59.9938 29.5104C54.2427 25.8252 47.0462 22.132 38.5053 19.4784C25.3016 15.3765 16.6743 16.5529 10.7278 18.1545" stroke="#379FD3" stroke-width="1.40625" stroke-linecap="round" stroke-linejoin="round"/>
<path d="M58.9805 78.0282C63.6176 73.7479 73.2487 70.0022 76.1023 65.0084C78.9559 60.0145 80.2045 49.8484 80.2045 49.8484C80.2045 49.8484 77.5291 45.9246 75.3295 44.0222C75.3295 44.0222 77.3507 60.6687 66.7686 67.2082C57.7426 72.7859 43.4118 77.6355 30.2337 79.5684C26.7672 78.9914 19.1779 71.7551 10.6765 71.3963C7.74975 71.2727 4.8816 72.4247 2.40997 75.3128C3.77934 81.3073 5.23106 84.8889 5.23106 84.8889C6.52912 87.7279 12.8471 92.6843 12.8471 92.6843C12.8471 92.6843 12.9356 92.6905 13.107 92.6996C15.3863 92.8206 32.3604 93.4713 51.5651 87.3231C53.6536 84.3924 57.0087 79.8482 58.9805 78.0282Z" fill="url(#paint16_linear_59_33529)"/>
<path d="M9.2203 79.6336C9.2203 79.6336 10.9146 87.7486 10.9146 88.1945C10.9146 88.6405 7.61514 85.6975 6.99082 84.8058C6.3665 83.9142 6.09894 81.328 6.09894 81.328C6.09894 81.328 8.23946 77.2258 9.2203 79.6336Z" fill="#426B87"/>
<path d="M9.2203 79.6336C9.2203 79.6336 10.9146 87.7486 10.9146 88.1945C10.9146 88.6405 7.61514 85.6975 6.99082 84.8058C6.3665 83.9142 6.09894 81.328 6.09894 81.328C6.09894 81.328 8.23946 77.2258 9.2203 79.6336Z" stroke="#264259" stroke-width="1.40625" stroke-linecap="round" stroke-linejoin="round"/>
<path d="M7.97076 85.5508L9.75524 83.4684L7.97076 85.5508Z" fill="#426B87"/>
<path d="M7.97076 85.5508L9.75524 83.4684" stroke="#264259" stroke-width="0.878906" stroke-linecap="round" stroke-linejoin="round"/>
<path d="M6.81244 83.0227L9.22029 80.7042L6.81244 83.0227Z" fill="#426B87"/>
<path d="M6.81244 83.0227L9.22029 80.7042" stroke="#264259" stroke-width="0.878906" stroke-linecap="round" stroke-linejoin="round"/>
<path d="M7.16919 80.08L9.48762 86.9463L7.16919 80.08Z" fill="#426B87"/>
<path d="M7.16919 80.08L9.48762 86.9463" stroke="#264259" stroke-width="0.878906" stroke-linecap="round" stroke-linejoin="round"/>
<path d="M13.4411 79.9717C13.4411 79.9717 14.5822 88.114 15.0872 88.512C15.5922 88.9099 23.71 89.1984 25.7011 88.9097C25.7011 88.9097 25.9275 86.065 25.5679 84.963C25.2083 83.861 13.2554 77.81 13.4411 79.9717Z" fill="#426B87"/>
<path d="M13.4411 79.9717C13.4411 79.9717 14.5822 88.114 15.0872 88.512C15.5922 88.9099 23.71 89.1984 25.7011 88.9097C25.7011 88.9097 25.9275 86.065 25.5679 84.963C25.2083 83.861 13.2554 77.81 13.4411 79.9717Z" stroke="#264259" stroke-width="1.40625" stroke-linecap="round" stroke-linejoin="round"/>
<path d="M19.9822 81.8007L15.1604 87.1602L19.9822 81.8007Z" fill="#426B87"/>
<path d="M19.9822 81.8007L15.1604 87.1602" stroke="#264259" stroke-width="0.878906" stroke-linecap="round" stroke-linejoin="round"/>
<path d="M24.2027 84.031L19.7381 88.706L24.2027 84.031Z" fill="#426B87"/>
<path d="M24.2027 84.031L19.7381 88.706" stroke="#264259" stroke-width="0.878906" stroke-linecap="round" stroke-linejoin="round"/>
<path d="M16.2971 80.3115L14.214 82.7542L21.4371 88.8183" stroke="#264259" stroke-width="0.878906" stroke-linecap="round" stroke-linejoin="round"/>
<path d="M16.8002 80.5247L25.5717 87.5117L16.8002 80.5247Z" fill="#426B87"/>
<path d="M16.8002 80.5247L25.5717 87.5117" stroke="#264259" stroke-width="0.878906" stroke-linecap="round" stroke-linejoin="round"/>
<path d="M33.981 91.2888C33.981 91.2888 35.6165 86.6786 36.4192 85.9651C37.2219 85.2516 43.9993 83.7356 45.1585 83.6464C46.3177 83.5572 43.6425 89.4142 43.6425 89.4142C43.6425 89.4142 37.0129 91.0213 33.981 91.2888Z" stroke="#156EB1" stroke-width="1.42963" stroke-linecap="round" stroke-linejoin="round"/>
<path d="M4.58319 75.7692C4.58319 75.7692 6.60441 73.1534 11.5983 73.6289C16.5921 74.1045 26.461 80.1684 29.6713 81.8331C29.6713 81.8331 45.1284 79.6931 62.8447 71.251" stroke="url(#paint17_radial_59_33529)" stroke-width="1.40625" stroke-linecap="round" stroke-linejoin="round"/>
<path d="M5.23114 84.889C6.5292 87.7279 12.8472 92.6844 12.8472 92.6844C12.8472 92.6844 12.9235 92.6898 13.0717 92.6978C15.2052 92.8136 32.2579 93.5043 51.5652 87.3232C53.6537 84.3924 57.0087 79.8483 58.9805 78.0283C63.6176 73.7479 73.2488 70.0022 76.1024 65.0084C78.9559 60.0145 80.2046 49.8485 80.2046 49.8485C80.2046 49.8485 79.56 48.9032 78.6437 47.7157" stroke="#156EB1" stroke-width="1.42963" stroke-linecap="round" stroke-linejoin="round"/>
<path d="M75.4547 45.7952C75.6345 50.2579 75.2411 61.9724 66.7686 67.2082C57.7427 72.7859 43.4118 77.6355 30.2338 79.5684C26.7672 78.9914 19.1779 71.7552 10.6766 71.3963C7.81123 71.2753 5.00214 72.3769 2.56628 75.1333" stroke="#67C5F4" stroke-width="1.42963" stroke-linecap="round" stroke-linejoin="round"/>
<path d="M4.09426 73.6552C3.51607 74.1272 2.9534 74.6781 2.41003 75.3133C3.7794 81.3077 5.23112 84.8894 5.23112 84.8894C6.52918 87.7284 12.8472 92.6848 12.8472 92.6848C12.8472 92.6848 12.8792 92.6869 12.942 92.6907" stroke="#379FD3" stroke-width="1.42963" stroke-linecap="round" stroke-linejoin="round"/>
<path d="M31.4914 79.3759C31.0711 79.443 30.652 79.5072 30.2338 79.5687C26.7672 78.9916 19.1779 71.7554 10.6766 71.3965C7.81123 71.2755 5.00214 72.3771 2.56628 75.1335" stroke="#D9F6FF" stroke-width="1.42963" stroke-linecap="round" stroke-linejoin="round"/>
<path d="M66.5949 44.4874C66.5949 44.4874 65.0497 40.9841 69.7828 34.7473C72.4994 31.1677 88.2554 20.9998 91.5187 20.3013C94.782 19.6029 95.2945 26.6252 90.0326 30.9035C90.0326 30.9035 93.4799 29.8059 93.4453 33.2911C93.4107 36.7763 88.495 40.9041 88.495 40.9041C88.495 40.9041 90.6125 41.3014 88.6713 45.6937C86.73 50.0861 80.4466 52.496 76.6725 53.1771C72.8983 53.8581 66.8674 48.956 66.5949 44.4874Z" fill="#CCE4FF"/>
<path d="M66.5949 44.4874C66.5949 44.4874 65.0497 40.9841 69.7828 34.7473C72.4994 31.1677 88.2554 20.9998 91.5187 20.3013C94.782 19.6029 95.2945 26.6252 90.0326 30.9035C90.0326 30.9035 93.4799 29.8059 93.4453 33.2911C93.4107 36.7763 88.495 40.9041 88.495 40.9041C88.495 40.9041 90.6125 41.3014 88.6713 45.6937C86.73 50.0861 80.4466 52.496 76.6724 53.1771C72.8983 53.8581 66.8674 48.956 66.5949 44.4874Z" stroke="#5D84AF" stroke-width="1.40625" stroke-linecap="round" stroke-linejoin="round"/>
<path d="M69.98 39.4582C69.98 39.4582 71.336 34.6075 77.0448 31.2246C79.322 29.8753 90.0162 22.4802 91.7218 22.182" stroke="white" stroke-width="1.40625" stroke-linecap="round" stroke-linejoin="round"/>
<path d="M84.7559 35.3265C84.7559 35.3265 88.8617 32.7017 91.3601 32.6984" stroke="white" stroke-width="1.40625" stroke-linecap="round" stroke-linejoin="round"/>
<path d="M81.9574 44.596C81.2987 49.8741 77.2577 53.7151 72.9315 53.1752C68.6052 52.6354 65.6317 47.919 66.2903 42.6409C66.949 37.3627 70.99 33.5218 75.3163 34.0616C79.6425 34.6014 82.6161 39.3178 81.9574 44.596Z" fill="#28A8EA"/>
<path d="M81.9574 44.596C81.2987 49.8741 77.2577 53.7151 72.9315 53.1752C68.6052 52.6354 65.6317 47.919 66.2903 42.6409C66.949 37.3627 70.99 33.5218 75.3163 34.0616C79.6425 34.6014 82.6161 39.3178 81.9574 44.596Z" stroke="#156EB1" stroke-width="1.42963" stroke-linecap="round" stroke-linejoin="round"/>
<path d="M84.0433 44.8991C83.3847 50.1772 79.3436 54.0182 75.0174 53.4783C70.6912 52.9385 67.7176 48.2221 68.3763 42.944C69.0349 37.6658 73.076 33.8249 77.4022 34.3647C81.7284 34.9045 84.702 39.6209 84.0433 44.8991Z" fill="#60C1FC"/>
<path d="M84.0433 44.8991C83.3847 50.1772 79.3436 54.0182 75.0174 53.4783C70.6912 52.9385 67.7176 48.2221 68.3763 42.944C69.0349 37.6658 73.076 33.8249 77.4022 34.3647C81.7284 34.9045 84.702 39.6209 84.0433 44.8991Z" stroke="#156EB1" stroke-width="1.42963" stroke-linecap="round" stroke-linejoin="round"/>
<path d="M82.1066 44.7369C81.5757 48.9923 78.5019 52.112 75.2412 51.7052C71.9805 51.2983 69.7675 47.5187 70.2984 43.2633C70.8293 39.0079 73.9032 35.8882 77.1638 36.2951C80.4245 36.702 82.6375 40.4815 82.1066 44.7369Z" stroke="url(#paint18_linear_59_33529)" stroke-width="1.40625" stroke-miterlimit="10"/>
<path d="M80.9257 44.8019C80.6214 47.2401 78.7548 49.0145 76.7562 48.765C74.7575 48.5156 73.3842 46.337 73.6885 43.8987C73.9927 41.4605 75.8593 39.6862 77.858 39.9356C79.8566 40.1851 81.2299 42.3637 80.9257 44.8019Z" fill="#CCE4FF"/>
<path d="M80.9257 44.8019C80.6214 47.2401 78.7548 49.0145 76.7562 48.765C74.7575 48.5156 73.3842 46.337 73.6885 43.8987C73.9927 41.4605 75.8593 39.6862 77.858 39.9356C79.8566 40.1851 81.2299 42.3637 80.9257 44.8019Z" stroke="#5D84AF" stroke-width="1.40625" stroke-linecap="round" stroke-linejoin="round"/>
<path d="M76.7916 42.3569C76.7916 42.3569 75.6618 42.8918 75.7213 45.2698" stroke="white" stroke-width="1.40625" stroke-linecap="round" stroke-linejoin="round"/>
<path d="M77.0909 22.7915C78.2635 34.8701 69.4225 45.6125 57.344 46.7851C45.2654 47.9577 34.523 39.1168 33.3504 27.0382C32.1777 14.9596 41.0187 4.21721 53.0973 3.04458C65.1758 1.87195 75.9182 10.7129 77.0909 22.7915Z" fill="url(#paint19_radial_59_33529)"/>
<path d="M54.5909 15.4525C54.5909 15.4525 54.8064 24.9646 58.7524 24.9646C58.7524 24.9646 54.7601 24.3676 54.7601 34.5289C54.7601 34.5289 54.5095 25.0241 51.0238 25.0241C51.0238 25.0241 54.5909 24.3873 54.5909 15.4525Z" fill="white"/>
<g opacity="0.35">
<path d="M19.3429 37.5349C19.3429 37.5349 18.3159 39.4761 18.4323 39.704C18.4226 39.8207 20.8176 41.0301 20.8176 41.0301C20.8176 41.0301 18.8894 40.0563 18.3502 39.9432C18.1193 39.8948 17.0113 41.8962 17.0113 41.8962C17.0113 41.8962 18.0732 39.8963 18.0355 39.8382C17.9768 39.701 15.919 38.6174 15.919 38.6174C15.919 38.6174 18.0631 39.5811 18.1828 39.5564C18.3025 39.5316 19.3429 37.5349 19.3429 37.5349Z" fill="#FCFCEB"/>
</g>
<g opacity="0.35">
<path d="M53.5405 40.9314C53.5405 40.9314 57.8472 43.2506 58.6525 42.9943C59.2812 42.7943 61.8541 37.2109 61.8541 37.2109C61.8541 37.2109 59.5716 41.9417 59.3653 43.2485C59.2812 43.7798 64.1297 46.3025 64.1297 46.3025C64.1297 46.3025 59.3916 43.8751 59.0805 44.0182C58.535 44.2691 56.3159 49.094 56.3159 49.094C56.3159 49.094 58.3366 44.2032 58.3289 43.652C58.3253 43.3972 53.5405 40.9314 53.5405 40.9314Z" fill="#FCFCEB"/>
</g>
<defs>
<linearGradient id="paint0_linear_59_33529" x1="68.4956" y1="26.6521" x2="-2.99074" y2="64.6495" gradientUnits="userSpaceOnUse">
<stop stop-color="#2C3875"/>
<stop offset="0.5" stop-color="#7D88AF"/>
<stop offset="1" stop-color="#CED9EA"/>
</linearGradient>
<linearGradient id="paint1_linear_59_33529" x1="25.4311" y1="64.7745" x2="44.693" y2="39.3593" gradientUnits="userSpaceOnUse">
<stop stop-color="#525D6D"/>
<stop offset="0.5" stop-color="#434D5E"/>
<stop offset="1" stop-color="#333C4F"/>
</linearGradient>
<linearGradient id="paint2_linear_59_33529" x1="6.60496" y1="48.0667" x2="76.3763" y2="48.0667" gradientUnits="userSpaceOnUse">
<stop stop-color="#1A5296"/>
<stop offset="0.5" stop-color="#0D2F76"/>
<stop offset="1" stop-color="#000C56"/>
</linearGradient>
<linearGradient id="paint3_linear_59_33529" x1="25.9017" y1="29.7116" x2="8.77981" y2="33.3975" gradientUnits="userSpaceOnUse">
<stop offset="0.34" stop-color="#77AEFF"/>
<stop offset="0.7" stop-color="#BBD6FF" stop-opacity="0.5"/>
<stop offset="1" stop-color="white" stop-opacity="0"/>
</linearGradient>
<linearGradient id="paint4_linear_59_33529" x1="19.7832" y1="50.6559" x2="3.49372" y2="55.7685" gradientUnits="userSpaceOnUse">
<stop offset="0.37" stop-color="#77AEFF"/>
<stop offset="0.71" stop-color="#BBD6FF" stop-opacity="0.5"/>
<stop offset="1" stop-color="white" stop-opacity="0"/>
</linearGradient>
<linearGradient id="paint5_linear_59_33529" x1="45.9043" y1="40.7717" x2="44.062" y2="57.6975" gradientUnits="userSpaceOnUse">
<stop offset="0.44" stop-color="#77AEFF"/>
<stop offset="0.74" stop-color="#BBD6FF" stop-opacity="0.5"/>
<stop offset="1" stop-color="white" stop-opacity="0"/>
</linearGradient>
<linearGradient id="paint6_linear_59_33529" x1="35.0794" y1="61.951" x2="33.1349" y2="77.7846" gradientUnits="userSpaceOnUse">
<stop offset="0.31" stop-color="#2C9001" stop-opacity="0.8"/>
<stop offset="0.65" stop-color="#2C9001" stop-opacity="0.4"/>
<stop offset="1" stop-color="#2C9001" stop-opacity="0"/>
</linearGradient>
<radialGradient id="paint7_radial_59_33529" cx="0" cy="0" r="1" gradientUnits="userSpaceOnUse" gradientTransform="translate(29.253 50.059) scale(19.3755 19.3755)">
<stop offset="0.05" stop-color="#FFEADD" stop-opacity="0.5"/>
<stop offset="0.54" stop-color="#FFEADD" stop-opacity="0.25"/>
<stop offset="1" stop-color="#FFEADD" stop-opacity="0"/>
</radialGradient>
<radialGradient id="paint8_radial_59_33529" cx="0" cy="0" r="1" gradientUnits="userSpaceOnUse" gradientTransform="translate(45.4337 34.4177) scale(31.043)">
<stop offset="0.05" stop-color="#FFEA9A"/>
<stop offset="0.53" stop-color="#FFEA9A" stop-opacity="0.5"/>
<stop offset="1" stop-color="#FFEA9A" stop-opacity="0"/>
</radialGradient>
<linearGradient id="paint9_linear_59_33529" x1="19.0772" y1="31.8292" x2="65.0921" y2="64.4677" gradientUnits="userSpaceOnUse">
<stop stop-color="#B2E0F7"/>
<stop offset="0.5" stop-color="#6DC4F0"/>
<stop offset="1" stop-color="#28A8EA"/>
</linearGradient>
<linearGradient id="paint10_linear_59_33529" x1="93.9108" y1="27.1223" x2="25.8319" y2="103.711" gradientUnits="userSpaceOnUse">
<stop stop-color="white" stop-opacity="0.7"/>
<stop offset="0.65" stop-color="white" stop-opacity="0.35"/>
<stop offset="1" stop-color="white" stop-opacity="0"/>
</linearGradient>
<radialGradient id="paint11_radial_59_33529" cx="0" cy="0" r="1" gradientUnits="userSpaceOnUse" gradientTransform="translate(38.8446 48.0668) scale(34.7553)">
<stop stop-color="#000C56" stop-opacity="0.2"/>
<stop offset="0.5" stop-color="#000C56" stop-opacity="0.6"/>
<stop offset="1" stop-color="#000C56"/>
</radialGradient>
<radialGradient id="paint12_radial_59_33529" cx="0" cy="0" r="1" gradientUnits="userSpaceOnUse" gradientTransform="translate(7.31077 44.537) scale(17.9518 17.9518)">
<stop stop-color="white" stop-opacity="0.5"/>
<stop offset="0.65" stop-color="white" stop-opacity="0.25"/>
<stop offset="1" stop-color="white" stop-opacity="0"/>
</radialGradient>
<radialGradient id="paint13_radial_59_33529" cx="0" cy="0" r="1" gradientUnits="userSpaceOnUse" gradientTransform="translate(31.7848 46.4193) scale(31.4396 31.4396)">
<stop stop-color="white" stop-opacity="0.4"/>
<stop offset="0.65" stop-color="white" stop-opacity="0.2"/>
<stop offset="1" stop-color="white" stop-opacity="0"/>
</radialGradient>
<radialGradient id="paint14_radial_59_33529" cx="0" cy="0" r="1" gradientUnits="userSpaceOnUse" gradientTransform="translate(67.7897 56.7741) scale(21.9684)">
<stop offset="0.05" stop-color="#FFC4C2" stop-opacity="0.2"/>
<stop offset="0.54" stop-color="#FFD7D0" stop-opacity="0.1"/>
<stop offset="1" stop-color="#FFEADD" stop-opacity="0"/>
</radialGradient>
<linearGradient id="paint15_linear_59_33529" x1="45.4337" y1="76.5412" x2="25.2554" y2="12.3372" gradientUnits="userSpaceOnUse">
<stop stop-color="#2C3875"/>
<stop offset="0.5" stop-color="#7D88AF"/>
<stop offset="1" stop-color="#CED9EA"/>
</linearGradient>
<linearGradient id="paint16_linear_59_33529" x1="40.7985" y1="65.3131" x2="57.7419" y2="83.8617" gradientUnits="userSpaceOnUse">
<stop stop-color="#B2E0F7"/>
<stop offset="0.5" stop-color="#6DC4F0"/>
<stop offset="1" stop-color="#28A8EA"/>
</linearGradient>
<radialGradient id="paint17_radial_59_33529" cx="0" cy="0" r="1" gradientUnits="userSpaceOnUse" gradientTransform="translate(33.5033 76.3736) scale(21.7161 21.7161)">
<stop stop-color="white" stop-opacity="0.7"/>
<stop offset="0.65" stop-color="white" stop-opacity="0.35"/>
<stop offset="1" stop-color="white" stop-opacity="0"/>
</radialGradient>
<linearGradient id="paint18_linear_59_33529" x1="69.2016" y1="43.8309" x2="83.0496" y2="43.8309" gradientUnits="userSpaceOnUse">
<stop stop-color="white" stop-opacity="0.8"/>
<stop offset="0.65" stop-color="white" stop-opacity="0.4"/>
<stop offset="1" stop-color="white" stop-opacity="0"/>
</linearGradient>
<radialGradient id="paint19_radial_59_33529" cx="0" cy="0" r="1" gradientUnits="userSpaceOnUse" gradientTransform="translate(55.1985 24.9075) scale(21.6625)">
<stop offset="0.05" stop-color="white"/>
<stop offset="0.33" stop-color="white" stop-opacity="0.5"/>
<stop offset="0.62" stop-color="white" stop-opacity="0"/>
</radialGradient>
</defs>
</svg>
