<svg width="111" height="110" viewBox="0 0 111 110" fill="none" xmlns="http://www.w3.org/2000/svg">
<path d="M46.6034 64.2289C41.8193 68.0636 38.4085 75.2732 37.702 83.9684C36.6507 96.9097 36.4094 105.287 34.6285 105.287C32.8475 105.287 32.0963 105.287 29.7809 105.287C27.4655 105.287 27.521 101.561 29.6287 100.204C30.8359 99.4274 26.5037 78.3056 25.2256 61.4067" fill="url(#paint0_linear_59_34746)"/>
<path d="M46.6034 64.2289C41.8193 68.0636 38.4085 75.2732 37.702 83.9684C36.6507 96.9097 36.4094 105.287 34.6285 105.287C32.8475 105.287 32.0963 105.287 29.7809 105.287C27.4655 105.287 27.521 101.561 29.6287 100.204C30.8359 99.4274 26.5037 78.3056 25.2256 61.4067" stroke="url(#paint1_linear_59_34746)" stroke-width="2.19386" stroke-linecap="round" stroke-linejoin="round"/>
<path d="M83.6414 60.3477C83.8625 82.3156 80.2835 105.355 78.23 105.355C74.6431 105.355 73.0859 106.03 72.6405 104.059C72.0953 101.647 74.1411 100.599 74.1411 100.599C74.1411 100.599 72.8018 71.7605 63.7442 64.7402" fill="url(#paint2_linear_59_34746)"/>
<path d="M83.6414 60.3477C83.8625 82.3156 80.2835 105.355 78.23 105.355C74.6431 105.355 73.0859 106.03 72.6405 104.059C72.0953 101.647 74.1411 100.599 74.1411 100.599C74.1411 100.599 72.8018 71.7605 63.7442 64.7402" stroke="url(#paint3_linear_59_34746)" stroke-width="2.19386" stroke-linecap="round" stroke-linejoin="round"/>
<path d="M85.4608 49.3308C93.3413 56.2406 104.639 46.8333 100.3 35.5183C95.164 22.1268 89.8303 11.906 97.6593 4.14965C101.234 0.608547 106.231 1.59863 105.805 5.97209C105.661 7.44789 104.441 9.33395 103.334 11.6028C100.303 17.8132 105.028 24.5663 108.745 37.4344C112.463 50.3025 99.7037 63.4801 87.2983 63.5792" fill="url(#paint4_linear_59_34746)"/>
<g opacity="0.75">
<path d="M105.235 7.8408C105.269 7.14842 102.24 2.71332 97.9015 9.63757C93.9865 15.8854 97.6821 28.8397 97.6821 28.8397" stroke="url(#paint5_linear_59_34746)" stroke-width="2.19386" stroke-linecap="round" stroke-linejoin="round"/>
</g>
<path d="M85.4608 49.3308C92.9025 56.0212 104.639 46.8333 100.3 35.5183C95.164 22.1268 89.8303 11.906 97.6593 4.14965C101.234 0.608547 106.231 1.59863 105.805 5.97209C105.661 7.44789 104.441 9.33395 103.334 11.6028C100.303 17.8132 105.028 24.5663 108.745 37.4344C112.463 50.3025 98.6068 63.6994 87.2983 63.5792" stroke="url(#paint6_linear_59_34746)" stroke-width="2.19386" stroke-linecap="round" stroke-linejoin="round"/>
<path d="M97.4627 63.6382C97.2637 43.8757 93.0407 31.4501 85.7929 24.1209C84.4689 22.782 83.0438 21.6133 81.5239 20.6009C79.595 19.3161 77.5137 18.2833 75.2918 17.4744C73.6032 16.8597 71.8332 16.3742 69.9879 16.0058C68.6027 15.7294 67.1749 15.519 65.7068 15.3694C62.409 15.0333 58.9289 15.2944 55.476 16.1315C52.3392 16.8919 49.2248 18.1277 46.2899 19.8231C38.6833 24.217 32.2821 31.6978 29.8199 41.9907C29.8199 41.9907 37.8679 49.112 39.0469 64.6974C39.0469 64.6974 39.7974 70.646 48.5438 72.2085C54.9157 73.3466 60.4247 67.5195 60.4247 67.5195C65.2088 63.6849 71.3659 63.2253 77.5655 68.0305C77.5655 68.0305 85.2416 74.7626 90.1376 72.9926C97.6395 70.2805 97.4627 63.6382 97.4627 63.6382Z" fill="url(#paint7_radial_59_34746)"/>
<g opacity="0.5">
<path d="M97.6812 63.857C97.6812 63.857 91.1391 79.1108 77.7851 68.2512C71.6993 63.3019 65.4271 63.9052 60.6445 67.7401C60.6445 67.7401 44.4012 79.4772 39.2654 64.9166C36.0053 55.6695 33.2038 49.0857 31.5693 45.4659C43.9756 56.3913 97.1898 60.7417 94.4562 39.8364C94.4211 39.5666 94.3904 39.3033 94.3685 39.0488C96.4329 45.6063 97.5803 53.7784 97.6812 63.857Z" fill="#639E71"/>
</g>
<g opacity="0.9">
<path d="M94.4777 43.8576C92.4855 37.0226 89.5444 31.8638 85.7929 28.0702C84.4689 26.7313 83.0438 25.5624 81.5239 24.5499C79.595 23.2652 77.5137 22.2323 75.2918 21.4234C73.6032 20.8087 71.8332 20.3234 69.9879 19.9551C68.6027 19.6787 67.1749 19.4683 65.7068 19.3187C62.409 18.9826 58.9289 19.2434 55.476 20.0806C52.3392 20.841 49.2248 22.0768 46.2899 23.7722C39.9992 27.4059 34.533 33.1511 31.4373 40.8518" stroke="url(#paint8_linear_59_34746)" stroke-width="3.29078" stroke-linecap="round" stroke-linejoin="round"/>
</g>
<path d="M97.4627 63.6382C97.2637 43.8757 93.0409 31.4501 85.7931 24.1209C84.4691 22.782 83.044 21.6133 81.5241 20.6009C79.5952 19.3161 77.5137 18.2831 75.2918 17.4742C73.6032 16.8595 71.8332 16.3742 69.9879 16.0058C68.6027 15.7294 67.1749 15.519 65.7068 15.3694C62.409 15.0333 58.9289 15.2944 55.476 16.1315C52.3392 16.8919 49.225 18.1277 46.2901 19.8231C38.6836 24.217 32.2821 31.6978 29.8199 41.9907C29.8199 41.9907 37.8679 49.112 39.0469 64.6974C39.0469 64.6974 39.7974 70.6458 48.5438 72.2083C54.9157 73.3464 60.4247 67.5195 60.4247 67.5195C65.2088 63.6849 71.3659 63.2253 77.5655 68.0305C77.5655 68.0305 85.2416 74.7626 90.1376 72.9926C97.6395 70.2805 97.4627 63.6382 97.4627 63.6382Z" stroke="url(#paint9_linear_59_34746)" stroke-width="2.19386" stroke-linecap="round" stroke-linejoin="round"/>
<path d="M60.4247 67.5194C55.6405 71.3541 52.2298 78.5638 51.5233 87.2589C50.472 100.2 50.2307 108.577 48.4497 108.577C46.6688 108.577 45.9176 108.577 43.6022 108.577C41.2868 108.577 41.3423 104.852 43.4499 103.495C44.6572 102.718 40.325 81.5961 39.0469 64.6973" fill="url(#paint10_linear_59_34746)"/>
<path d="M60.4247 67.5194C55.6405 71.3541 52.2298 78.5638 51.5233 87.2589C50.472 100.2 50.2307 108.577 48.4497 108.577C46.6688 108.577 45.9176 108.577 43.6022 108.577C41.2868 108.577 41.3423 104.852 43.4499 103.495C44.6572 102.718 40.325 81.5961 39.0469 64.6973" stroke="url(#paint11_linear_59_34746)" stroke-width="2.19386" stroke-linecap="round" stroke-linejoin="round"/>
<path d="M97.4627 63.6382C97.6838 85.6061 94.1048 108.646 92.0513 108.646C88.4643 108.646 86.9071 109.32 86.4618 107.35C85.9166 104.937 87.9624 103.89 87.9624 103.89C87.9624 103.89 86.623 75.0511 77.5655 68.0307" fill="url(#paint12_linear_59_34746)"/>
<path d="M97.4627 63.6382C97.6838 85.6061 94.1048 108.646 92.0513 108.646C88.4643 108.646 86.9071 109.32 86.4618 107.35C85.9166 104.937 87.9624 103.89 87.9624 103.89C87.9624 103.89 86.623 75.0511 77.5655 68.0307" stroke="url(#paint13_linear_59_34746)" stroke-width="2.19386" stroke-linecap="round" stroke-linejoin="round"/>
<path d="M54.5006 54.2719C53.9528 53.1055 53.3405 52.0469 52.6709 51.086C57.4639 36.8874 52.6336 30.9282 51.4834 30.9282C50.302 30.9282 38.2599 40.0863 35.536 42.288C33.4492 42.0691 31.3096 41.9903 29.1618 41.9903C27.0542 41.9903 24.9542 42.0658 22.9045 42.2755C20.1508 40.0498 8.1519 30.9282 6.97248 30.9282C5.82553 30.9282 1.0177 36.8468 5.74239 50.9601C5.03816 51.9546 4.39514 53.0539 3.8232 54.2719C-0.305198 63.0645 0.457169 82.0433 29.1618 82.0433C57.3882 82.0433 58.629 63.0645 54.5006 54.2719Z" fill="url(#paint14_linear_59_34746)"/>
<g opacity="0.25">
<path d="M29.1627 82.0433C3.76003 82.0433 0.241083 67.1799 2.628 57.6652C4.62441 65.1199 11.7544 72.1008 29.1627 72.1008C46.4525 72.1008 53.6154 64.9795 55.6206 57.4414C58.0448 66.9452 54.3394 82.0433 29.1627 82.0433Z" fill="#16E8B9"/>
</g>
<path d="M3.80322 42.147C3.80322 42.147 3.73017 38.2058 7.16026 34.2612L21.5667 45.4091C21.5667 45.4091 31.6856 44.1228 36.4877 45.4091L50.8103 34.9394C50.8103 34.9394 53.8815 36.5461 54.191 45.4091" stroke="url(#paint15_radial_59_34746)" stroke-width="2.19386" stroke-linecap="round" stroke-linejoin="round"/>
<path d="M54.5006 54.2719C53.9528 53.1055 53.3405 52.0469 52.6709 51.086C57.4639 36.8874 52.6336 30.9282 51.4834 30.9282C50.302 30.9282 38.2599 40.0863 35.536 42.288C33.4492 42.0691 31.3096 41.9903 29.1618 41.9903C27.0542 41.9903 24.9542 42.0658 22.9045 42.2755C20.1508 40.0498 8.1519 30.9282 6.97248 30.9282C5.82553 30.9282 1.0177 36.8468 5.74239 50.9601C5.03816 51.9546 4.39514 53.0539 3.8232 54.2719C-0.305198 63.0645 0.457169 82.0433 29.1618 82.0433C57.3882 82.0433 58.629 63.0645 54.5006 54.2719Z" stroke="url(#paint16_linear_59_34746)" stroke-width="2.19386" stroke-linecap="round" stroke-linejoin="round"/>
<path d="M99.8416 29.4176L101.611 30.7943L100.916 29.2915L102.26 27.3031L100.195 27.6752L98.9344 26.2459L99.1084 28.4403L97.257 30.1505L99.8416 29.4176Z" fill="#FFF724"/>
<mask id="mask0_59_34746" style="mask-type:luminance" maskUnits="userSpaceOnUse" x="95" y="24" width="9" height="9">
<path d="M97.4636 25.4627C99.1344 24.1539 101.55 24.447 102.859 26.1177C104.167 27.7885 103.874 30.2037 102.204 31.5125C100.533 32.8213 98.1176 32.5282 96.8088 30.8577C95.5 29.1872 95.7929 26.7714 97.4636 25.4627Z" fill="url(#paint17_radial_59_34746)"/>
</mask>
<g mask="url(#mask0_59_34746)">
<path d="M97.4636 25.4627C99.1344 24.1539 101.55 24.447 102.859 26.1177C104.167 27.7885 103.874 30.2037 102.204 31.5125C100.533 32.8213 98.1176 32.5282 96.8088 30.8577C95.5 29.1872 95.7929 26.7714 97.4636 25.4627Z" fill="url(#paint18_radial_59_34746)"/>
</g>
<g opacity="0.995528">
<path d="M26.0387 53.8788C26.0387 53.8788 26.793 46.7191 27.087 46.5084C27.381 46.2977 36.3089 48.1045 36.3089 48.1045C36.3089 48.1045 27.3375 46.3021 27.1826 45.9949C27.0276 45.6877 28.0496 38.3208 28.0496 38.3208C28.0496 38.3208 26.8586 45.7221 26.6933 45.8393C26.528 45.9566 23.9594 45.8743 16.844 44.5471C16.844 44.5471 26.237 46.1623 26.4466 46.4138C26.6562 46.6652 26.0387 53.8788 26.0387 53.8788Z" fill="#FFF724"/>
<mask id="mask1_59_34746" style="mask-type:luminance" maskUnits="userSpaceOnUse" x="24" y="43" width="6" height="6">
<path d="M25.1771 43.9642C26.3609 43.037 28.0723 43.2446 28.9995 44.4284C29.9268 45.6121 29.719 47.3233 28.5354 48.2506C27.3519 49.1779 25.6405 48.9702 24.7132 47.7867C23.7859 46.6032 23.9934 44.8915 25.1771 43.9642Z" fill="url(#paint19_radial_59_34746)"/>
</mask>
<g mask="url(#mask1_59_34746)">
<path d="M25.1771 43.9642C26.3609 43.037 28.0723 43.2446 28.9995 44.4284C29.9268 45.6121 29.719 47.3233 28.5354 48.2506C27.3519 49.1779 25.6405 48.9702 24.7132 47.7867C23.7859 46.6032 23.9934 44.8915 25.1771 43.9642Z" fill="url(#paint20_radial_59_34746)"/>
</g>
</g>
<g opacity="0.824711">
<path d="M62.8025 74.6567C62.8025 74.6567 63.6571 66.0679 63.8534 65.9273C64.0496 65.7867 74.7128 67.9602 74.7128 67.9602C74.7128 67.9602 64.0205 65.7896 63.9171 65.5846C63.8137 65.3796 65.1345 56.6139 65.1345 56.6139C65.1345 56.6139 63.701 65.4025 63.5906 65.4807C63.4803 65.559 60.3912 65.3737 52.1393 63.8346C52.1393 63.8346 63.2861 65.6963 63.426 65.8641C63.5659 66.0319 62.8025 74.6567 62.8025 74.6567Z" fill="#FFF724"/>
<mask id="mask2_59_34746" style="mask-type:luminance" maskUnits="userSpaceOnUse" x="61" y="63" width="6" height="6">
<path d="M62.1123 63.6005C63.2383 62.7185 64.8662 62.916 65.7483 64.042C66.6303 65.168 66.4326 66.7958 65.3068 67.6779C64.181 68.5599 62.553 68.3624 61.671 67.2366C60.7889 66.1108 60.9863 64.4826 62.1123 63.6005Z" fill="url(#paint21_radial_59_34746)"/>
</mask>
<g mask="url(#mask2_59_34746)">
<path d="M62.1123 63.6005C63.2383 62.7185 64.8662 62.916 65.7483 64.042C66.6303 65.168 66.4326 66.7958 65.3068 67.6779C64.181 68.5599 62.553 68.3624 61.671 67.2366C60.7889 66.1108 60.9863 64.4826 62.1123 63.6005Z" fill="url(#paint22_radial_59_34746)"/>
</g>
</g>
<path d="M31.7799 93.2052C31.7799 93.2052 32.4213 90.2174 32.9028 89.8723C33.3843 89.5271 37.3289 90.1386 37.3289 90.1386C37.3289 90.1386 33.3854 89.145 33.1316 88.6418C32.8779 88.1386 32.8824 84.7864 32.8824 84.7864C32.8824 84.7864 32.2302 88.0772 31.9595 88.2692C31.6887 88.4612 30.5989 88.8647 26.8375 88.1631C26.8375 88.1631 31.025 89.2336 31.3683 89.6454C31.7116 90.0573 31.7799 93.2052 31.7799 93.2052Z" fill="#FFF724"/>
<mask id="mask3_59_34746" style="mask-type:luminance" maskUnits="userSpaceOnUse" x="29" y="85" width="7" height="8">
<path d="M30.3344 86.4883C31.7236 85.4 33.7321 85.6438 34.8204 87.033C35.9086 88.4222 35.6647 90.4304 34.2757 91.5187C32.8867 92.607 30.8782 92.3633 29.7899 90.9743C28.7016 89.5853 28.9452 87.5765 30.3344 86.4883Z" fill="url(#paint23_radial_59_34746)"/>
</mask>
<g mask="url(#mask3_59_34746)">
<path d="M30.3344 86.4883C31.7236 85.4 33.7321 85.6438 34.8204 87.033C35.9086 88.4222 35.6647 90.4304 34.2757 91.5187C32.8867 92.607 30.8782 92.3633 29.7899 90.9743C28.7016 89.5853 28.9452 87.5765 30.3344 86.4883Z" fill="url(#paint24_radial_59_34746)"/>
</g>
<path d="M68.0341 50.0897C68.0341 50.0897 69.2392 49.2842 69.48 49.1116C69.7208 48.939 71.3458 48.4933 71.3458 48.4933C71.3458 48.4933 70.0459 47.0024 69.919 46.7508C69.7921 46.4992 68.7622 45.0091 68.7622 45.0091C68.7622 45.0091 67.8056 45.9399 67.6703 46.0359C67.5349 46.1319 67.077 47.4308 65.1963 47.08C65.1963 47.08 66.3643 48.4704 66.536 48.6763C66.7076 48.8823 68.0341 50.0897 68.0341 50.0897Z" fill="#FFF724"/>
<mask id="mask4_59_34746" style="mask-type:luminance" maskUnits="userSpaceOnUse" x="64" y="43" width="8" height="9">
<path d="M66.1096 44.736C67.649 43.5301 69.8745 43.8002 71.0803 45.3395C72.2861 46.8789 72.0159 49.1041 70.4768 50.31C68.9377 51.5158 66.7122 51.2458 65.5063 49.7067C64.3005 48.1676 64.5703 45.9418 66.1096 44.736Z" fill="url(#paint25_radial_59_34746)"/>
</mask>
<g mask="url(#mask4_59_34746)">
<path d="M66.1096 44.736C67.649 43.5301 69.8745 43.8002 71.0803 45.3395C72.2861 46.8789 72.0159 49.1041 70.4768 50.31C68.9377 51.5158 66.7122 51.2458 65.5063 49.7067C64.3005 48.1676 64.5703 45.9418 66.1096 44.736Z" fill="url(#paint26_radial_59_34746)"/>
</g>
<path d="M39.0734 58.5423C39.0734 58.5423 38.6302 54.8565 38.3079 54.6255C37.9856 54.3945 33.3387 55.318 33.3387 55.318C33.3387 55.318 38.0334 54.3993 38.2032 54.0625C38.3731 53.7257 37.9506 49.8549 37.9506 49.8549C37.9506 49.8549 38.5584 53.7635 38.7396 53.892C38.9208 54.0205 40.2345 54.0727 44.2077 53.3315C44.2077 53.3315 39.2398 54.246 39.0101 54.5217C38.7803 54.7974 39.0734 58.5423 39.0734 58.5423Z" fill="#FFF724"/>
<mask id="mask5_59_34746" style="mask-type:luminance" maskUnits="userSpaceOnUse" x="36" y="52" width="5" height="5">
<path d="M39.8921 52.5241C38.9615 51.7951 37.6161 51.9584 36.8872 52.889C36.1582 53.8195 36.3216 55.1647 37.252 55.8937C38.1824 56.6227 39.5278 56.4594 40.2568 55.529C40.9858 54.5986 40.8226 53.253 39.8921 52.5241Z" fill="url(#paint27_radial_59_34746)"/>
</mask>
<g mask="url(#mask5_59_34746)">
<path d="M39.8921 52.5241C38.9615 51.7951 37.6161 51.9584 36.8872 52.889C36.1582 53.8195 36.3216 55.1647 37.252 55.8937C38.1824 56.6227 39.5278 56.4594 40.2568 55.529C40.9858 54.5986 40.8226 53.253 39.8921 52.5241Z" fill="url(#paint28_radial_59_34746)"/>
</g>
<g opacity="0.0169737">
<path d="M89.9769 56.5343C89.9769 56.5343 89.2905 49.3828 89.2053 49.3217C89.1201 49.2607 80.2645 51.0735 80.2645 51.0735C80.2645 51.0735 89.1327 49.262 89.1776 49.173C89.2225 49.084 88.0753 41.8211 88.0753 41.8211C88.0753 41.8211 89.2714 49.0939 89.3193 49.1279C89.3671 49.1619 91.9433 48.9644 98.6724 47.7092C98.6724 47.7092 89.4515 49.2215 89.3907 49.2943C89.33 49.3671 89.9769 56.5343 89.9769 56.5343Z" fill="#FFF724"/>
<mask id="mask6_59_34746" style="mask-type:luminance" maskUnits="userSpaceOnUse" x="87" y="47" width="5" height="4">
<path d="M90.3767 47.7514C89.5885 47.134 88.449 47.2723 87.8316 48.0605C87.2141 48.8486 87.3525 49.988 88.1406 50.6055C88.9286 51.2229 90.0682 51.0846 90.6856 50.2966C91.3031 49.5085 91.1649 48.3688 90.3767 47.7514Z" fill="url(#paint29_radial_59_34746)"/>
</mask>
<g mask="url(#mask6_59_34746)">
<path d="M90.3767 47.7514C89.5885 47.134 88.449 47.2723 87.8316 48.0605C87.2141 48.8486 87.3525 49.988 88.1406 50.6055C88.9286 51.2229 90.0682 51.0846 90.6856 50.2966C91.3031 49.5085 91.1649 48.3688 90.3767 47.7514Z" fill="url(#paint30_radial_59_34746)"/>
</g>
</g>
<g opacity="0.240934">
<path d="M31.4324 66.7556C31.4324 66.7556 30.7641 59.8638 30.6612 59.79C30.5582 59.7162 22.018 61.4624 22.018 61.4624C22.018 61.4624 30.5735 59.7178 30.6277 59.6102C30.682 59.5027 29.5891 52.4939 29.5891 52.4939C29.5891 52.4939 30.7411 59.5146 30.799 59.5557C30.8569 59.5968 33.3384 59.418 39.8611 58.2014C39.8611 58.2014 30.9588 59.6688 30.8854 59.7568C30.812 59.8448 31.4324 66.7556 31.4324 66.7556Z" fill="#FFF724"/>
<mask id="mask7_59_34746" style="mask-type:luminance" maskUnits="userSpaceOnUse" x="28" y="57" width="5" height="5">
<path d="M31.8648 58.1778C31.0651 57.5513 29.9087 57.6916 29.2822 58.4914C28.6557 59.2912 28.7961 60.4473 29.5958 61.0739C30.3955 61.7004 31.5518 61.5601 32.1783 60.7604C32.8048 59.9608 32.6646 58.8043 31.8648 58.1778Z" fill="url(#paint31_radial_59_34746)"/>
</mask>
<g mask="url(#mask7_59_34746)">
<path d="M31.8648 58.1778C31.0651 57.5513 29.9087 57.6916 29.2822 58.4914C28.6557 59.2912 28.7961 60.4473 29.5958 61.0739C30.3955 61.7004 31.5518 61.5601 32.1783 60.7604C32.8048 59.9608 32.6646 58.8043 31.8648 58.1778Z" fill="url(#paint32_radial_59_34746)"/>
</g>
</g>
<path d="M50.7702 57.6569C50.7702 57.6569 32.4385 43.2812 33.5464 75.166C33.5464 75.166 53.428 79.0816 50.7702 57.6569Z" fill="url(#paint33_linear_59_34746)"/>
<g opacity="0.8">
<path d="M33.5464 75.166C33.5464 75.166 34.2647 51.6185 50.7704 57.6569" stroke="#28827A" stroke-width="3.94894" stroke-linecap="round" stroke-linejoin="round"/>
</g>
<path d="M40.8421 61.5327V68.6132" stroke="#FFFEF6" stroke-width="3.94894" stroke-linecap="round" stroke-linejoin="round"/>
<path d="M42.4761 63.6382H43.2277" stroke="white" stroke-width="2.63263" stroke-linecap="round" stroke-linejoin="round"/>
<path d="M50.7702 57.6569C50.7702 57.6569 32.4385 43.2812 33.5464 75.166C33.5464 75.166 53.428 79.0816 50.7702 57.6569Z" stroke="#D7FFE1" stroke-width="2.19386" stroke-linecap="round" stroke-linejoin="round"/>
<path d="M7.47052 57.6569C7.47052 57.6569 25.8022 43.2812 24.6943 75.166C24.6943 75.166 4.81267 79.0816 7.47052 57.6569Z" fill="url(#paint34_linear_59_34746)"/>
<g opacity="0.8">
<path d="M7.47034 57.657C7.47034 57.657 22.3098 49.4039 24.6943 75.166" stroke="#28827A" stroke-width="3.94894" stroke-linecap="round" stroke-linejoin="round"/>
</g>
<path d="M17.4693 61.5327V68.6132" stroke="#FFFEF6" stroke-width="3.94894" stroke-linecap="round" stroke-linejoin="round"/>
<path d="M18.994 63.6382H19.7456" stroke="white" stroke-width="2.63263" stroke-linecap="round" stroke-linejoin="round"/>
<path d="M7.47052 57.6569C7.47052 57.6569 25.8022 43.2812 24.6943 75.166C24.6943 75.166 4.81267 79.0816 7.47052 57.6569Z" stroke="#D7FFE1" stroke-width="2.19386" stroke-linecap="round" stroke-linejoin="round"/>
<defs>
<linearGradient id="paint0_linear_59_34746" x1="36.6558" y1="65.9224" x2="38.8496" y2="104.566" gradientUnits="userSpaceOnUse">
<stop stop-color="#36815F"/>
<stop offset="0.28" stop-color="#278062"/>
<stop offset="0.5" stop-color="#177E65"/>
<stop offset="0.75" stop-color="#3992A1"/>
<stop offset="1" stop-color="#5BA5DE"/>
</linearGradient>
<linearGradient id="paint1_linear_59_34746" x1="36.4362" y1="61.7632" x2="36.6556" y2="105.496" gradientUnits="userSpaceOnUse">
<stop stop-color="#79E5D2"/>
<stop offset="0.24" stop-color="#BCF2E9"/>
<stop offset="0.48" stop-color="white"/>
<stop offset="0.77" stop-color="#AAFFDE"/>
<stop offset="1" stop-color="#54FFBD"/>
</linearGradient>
<linearGradient id="paint2_linear_59_34746" x1="74.439" y1="65.4826" x2="76.6329" y2="104.126" gradientUnits="userSpaceOnUse">
<stop stop-color="#36815F"/>
<stop offset="0.28" stop-color="#278062"/>
<stop offset="0.5" stop-color="#177E65"/>
<stop offset="0.75" stop-color="#39AE6F"/>
<stop offset="1" stop-color="#5BDE7A"/>
</linearGradient>
<linearGradient id="paint3_linear_59_34746" x1="74.2194" y1="61.3235" x2="74.4388" y2="105.056" gradientUnits="userSpaceOnUse">
<stop stop-color="#79E5D2"/>
<stop offset="0.24" stop-color="#BCF2E9"/>
<stop offset="0.48" stop-color="white"/>
<stop offset="0.77" stop-color="#AAFFDE"/>
<stop offset="1" stop-color="#54FFBD"/>
</linearGradient>
<linearGradient id="paint4_linear_59_34746" x1="97.2905" y1="41.7609" x2="97.2905" y2="11.0405" gradientUnits="userSpaceOnUse">
<stop stop-color="#0D4F47"/>
<stop offset="0.28" stop-color="#0F5F47"/>
<stop offset="0.5" stop-color="#106E47"/>
<stop offset="0.75" stop-color="#0B6249"/>
<stop offset="1" stop-color="#06564B"/>
</linearGradient>
<linearGradient id="paint5_linear_59_34746" x1="100.252" y1="31.45" x2="103.461" y2="6.54972" gradientUnits="userSpaceOnUse">
<stop offset="0.31" stop-color="#3EE7D5" stop-opacity="0"/>
<stop offset="0.69" stop-color="#2CC49F" stop-opacity="0.5"/>
<stop offset="1" stop-color="#1AA069"/>
</linearGradient>
<linearGradient id="paint6_linear_59_34746" x1="97.2905" y1="58.2148" x2="97.2905" y2="-0.190015" gradientUnits="userSpaceOnUse">
<stop stop-color="#79E5D2"/>
<stop offset="0.24" stop-color="#B7ECE9"/>
<stop offset="0.48" stop-color="#F4F4FF"/>
<stop offset="0.77" stop-color="#BEF9FC"/>
<stop offset="1" stop-color="#89FFF9"/>
</linearGradient>
<radialGradient id="paint7_radial_59_34746" cx="0" cy="0" r="1" gradientUnits="userSpaceOnUse" gradientTransform="translate(68.3316 82.5668) scale(64.5047 64.5047)">
<stop stop-color="#05201E"/>
<stop offset="0.14" stop-color="#023D38"/>
<stop offset="0.26" stop-color="#005A53"/>
<stop offset="0.38" stop-color="#09654C"/>
<stop offset="0.5" stop-color="#127146"/>
<stop offset="0.62" stop-color="#0F5A46"/>
<stop offset="0.74" stop-color="#0B4247"/>
<stop offset="0.87" stop-color="#06574B"/>
<stop offset="1" stop-color="#006C4F"/>
</radialGradient>
<linearGradient id="paint8_linear_59_34746" x1="66.1377" y1="68.7456" x2="60.177" y2="20.2008" gradientUnits="userSpaceOnUse">
<stop offset="0.31" stop-color="#00F6FF" stop-opacity="0"/>
<stop offset="0.69" stop-color="#17FABE" stop-opacity="0.5"/>
<stop offset="1" stop-color="#2FFF7D"/>
</linearGradient>
<linearGradient id="paint9_linear_59_34746" x1="65.4795" y1="65.0159" x2="64.8214" y2="17.2649" gradientUnits="userSpaceOnUse">
<stop stop-color="#79E5D2"/>
<stop offset="0.24" stop-color="#A2F2CD"/>
<stop offset="0.48" stop-color="#CAFFC8"/>
<stop offset="0.77" stop-color="#A9FFE1"/>
<stop offset="1" stop-color="#87FFFB"/>
</linearGradient>
<linearGradient id="paint10_linear_59_34746" x1="49.5995" y1="57.3661" x2="52.6709" y2="107.857" gradientUnits="userSpaceOnUse">
<stop stop-color="#36815F"/>
<stop offset="0.28" stop-color="#278062"/>
<stop offset="0.5" stop-color="#177E65"/>
<stop offset="0.75" stop-color="#39AE9E"/>
<stop offset="1" stop-color="#5BDED6"/>
</linearGradient>
<linearGradient id="paint11_linear_59_34746" x1="49.5993" y1="73.0613" x2="50.4769" y2="108.787" gradientUnits="userSpaceOnUse">
<stop stop-color="#79E5D2"/>
<stop offset="0.24" stop-color="#BCF2E9"/>
<stop offset="0.48" stop-color="white"/>
<stop offset="0.77" stop-color="#AAFFDE"/>
<stop offset="1" stop-color="#54FFBD"/>
</linearGradient>
<linearGradient id="paint12_linear_59_34746" x1="88.2603" y1="68.7731" x2="90.4542" y2="107.417" gradientUnits="userSpaceOnUse">
<stop stop-color="#36815F"/>
<stop offset="0.28" stop-color="#277C6E"/>
<stop offset="0.5" stop-color="#17777E"/>
<stop offset="0.75" stop-color="#43AB6D"/>
<stop offset="1" stop-color="#6EDE5B"/>
</linearGradient>
<linearGradient id="paint13_linear_59_34746" x1="88.9183" y1="70.318" x2="88.2601" y2="108.347" gradientUnits="userSpaceOnUse">
<stop stop-color="#79E5D2"/>
<stop offset="0.24" stop-color="#BCF2E9"/>
<stop offset="0.48" stop-color="white"/>
<stop offset="0.77" stop-color="#AAFFDE"/>
<stop offset="1" stop-color="#54FFBD"/>
</linearGradient>
<linearGradient id="paint14_linear_59_34746" x1="30.0698" y1="79.4791" x2="29.0615" y2="34.6764" gradientUnits="userSpaceOnUse">
<stop stop-color="#05201E"/>
<stop offset="0.14" stop-color="#023D38"/>
<stop offset="0.26" stop-color="#005A53"/>
<stop offset="0.38" stop-color="#09654C"/>
<stop offset="0.5" stop-color="#127146"/>
<stop offset="0.62" stop-color="#0F5A46"/>
<stop offset="0.74" stop-color="#0B4247"/>
<stop offset="0.87" stop-color="#06574B"/>
<stop offset="1" stop-color="#006C4F"/>
</linearGradient>
<radialGradient id="paint15_radial_59_34746" cx="0" cy="0" r="1" gradientUnits="userSpaceOnUse" gradientTransform="translate(30.1585 49.8778) scale(38.2655 38.2655)">
<stop offset="0.31" stop-color="#00F6FF" stop-opacity="0"/>
<stop offset="0.69" stop-color="#17FABE" stop-opacity="0.5"/>
<stop offset="1" stop-color="#2FFF7D"/>
</radialGradient>
<linearGradient id="paint16_linear_59_34746" x1="29.0615" y1="83.8824" x2="28.9121" y2="32.5515" gradientUnits="userSpaceOnUse">
<stop stop-color="#79E5D2"/>
<stop offset="0.24" stop-color="#A2F2CD"/>
<stop offset="0.48" stop-color="#CAFFC8"/>
<stop offset="0.77" stop-color="#A9FFE1"/>
<stop offset="1" stop-color="#87FFFB"/>
</linearGradient>
<radialGradient id="paint17_radial_59_34746" cx="0" cy="0" r="1" gradientUnits="userSpaceOnUse" gradientTransform="translate(99.7478 28.5742) rotate(98.698) scale(5.44666)">
<stop offset="0.16" stop-color="white"/>
<stop offset="0.39" stop-color="white" stop-opacity="0.5"/>
<stop offset="0.72" stop-color="white" stop-opacity="0"/>
</radialGradient>
<radialGradient id="paint18_radial_59_34746" cx="0" cy="0" r="1" gradientUnits="userSpaceOnUse" gradientTransform="translate(99.7478 28.5742) rotate(98.698) scale(5.44666)">
<stop offset="0.14" stop-color="white"/>
<stop offset="0.38" stop-color="#FCFF9E"/>
<stop offset="0.72" stop-color="#F8FF3C"/>
</radialGradient>
<radialGradient id="paint19_radial_59_34746" cx="0" cy="0" r="1" gradientUnits="userSpaceOnUse" gradientTransform="translate(26.7955 46.1688) rotate(98.698) scale(3.85901)">
<stop offset="0.16" stop-color="white"/>
<stop offset="0.39" stop-color="white" stop-opacity="0.5"/>
<stop offset="0.72" stop-color="white" stop-opacity="0"/>
</radialGradient>
<radialGradient id="paint20_radial_59_34746" cx="0" cy="0" r="1" gradientUnits="userSpaceOnUse" gradientTransform="translate(26.7955 46.1688) rotate(98.698) scale(3.85901)">
<stop offset="0.14" stop-color="white"/>
<stop offset="0.38" stop-color="#FCFF9E"/>
<stop offset="0.72" stop-color="#F8FF3C"/>
</radialGradient>
<radialGradient id="paint21_radial_59_34746" cx="0" cy="0" r="1" gradientUnits="userSpaceOnUse" gradientTransform="translate(63.6517 65.6976) rotate(98.698) scale(3.67081)">
<stop offset="0.16" stop-color="white"/>
<stop offset="0.39" stop-color="white" stop-opacity="0.5"/>
<stop offset="0.72" stop-color="white" stop-opacity="0"/>
</radialGradient>
<radialGradient id="paint22_radial_59_34746" cx="0" cy="0" r="1" gradientUnits="userSpaceOnUse" gradientTransform="translate(63.6517 65.6976) rotate(98.698) scale(3.67081)">
<stop offset="0.14" stop-color="white"/>
<stop offset="0.38" stop-color="#FCFF9E"/>
<stop offset="0.72" stop-color="#F8FF3C"/>
</radialGradient>
<radialGradient id="paint23_radial_59_34746" cx="0" cy="0" r="1" gradientUnits="userSpaceOnUse" gradientTransform="translate(32.2337 89.0756) rotate(98.698) scale(4.5289)">
<stop offset="0.16" stop-color="white"/>
<stop offset="0.39" stop-color="white" stop-opacity="0.5"/>
<stop offset="0.72" stop-color="white" stop-opacity="0"/>
</radialGradient>
<radialGradient id="paint24_radial_59_34746" cx="0" cy="0" r="1" gradientUnits="userSpaceOnUse" gradientTransform="translate(32.2337 89.0756) rotate(98.698) scale(4.5289)">
<stop offset="0.14" stop-color="white"/>
<stop offset="0.38" stop-color="#FCFF9E"/>
<stop offset="0.72" stop-color="#F8FF3C"/>
</radialGradient>
<radialGradient id="paint25_radial_59_34746" cx="0" cy="0" r="1" gradientUnits="userSpaceOnUse" gradientTransform="translate(68.2142 47.6028) rotate(98.698) scale(5.01825)">
<stop offset="0.16" stop-color="white"/>
<stop offset="0.39" stop-color="white" stop-opacity="0.5"/>
<stop offset="0.72" stop-color="white" stop-opacity="0"/>
</radialGradient>
<radialGradient id="paint26_radial_59_34746" cx="0" cy="0" r="1" gradientUnits="userSpaceOnUse" gradientTransform="translate(68.2142 47.6028) rotate(98.698) scale(5.01825)">
<stop offset="0.14" stop-color="white"/>
<stop offset="0.38" stop-color="#FCFF9E"/>
<stop offset="0.72" stop-color="#F8FF3C"/>
</radialGradient>
<radialGradient id="paint27_radial_59_34746" cx="0" cy="0" r="1" gradientUnits="userSpaceOnUse" gradientTransform="translate(38.6198 54.2572) rotate(81.302) scale(3.03366)">
<stop offset="0.16" stop-color="white"/>
<stop offset="0.39" stop-color="white" stop-opacity="0.5"/>
<stop offset="0.72" stop-color="white" stop-opacity="0"/>
</radialGradient>
<radialGradient id="paint28_radial_59_34746" cx="0" cy="0" r="1" gradientUnits="userSpaceOnUse" gradientTransform="translate(38.6198 54.2572) rotate(81.302) scale(3.03366)">
<stop offset="0.14" stop-color="white"/>
<stop offset="0.38" stop-color="#FCFF9E"/>
<stop offset="0.72" stop-color="#F8FF3C"/>
</radialGradient>
<radialGradient id="paint29_radial_59_34746" cx="0" cy="0" r="1" gradientUnits="userSpaceOnUse" gradientTransform="translate(89.2991 49.2193) rotate(81.302) scale(2.56951)">
<stop offset="0.16" stop-color="white"/>
<stop offset="0.39" stop-color="white" stop-opacity="0.5"/>
<stop offset="0.72" stop-color="white" stop-opacity="0"/>
</radialGradient>
<radialGradient id="paint30_radial_59_34746" cx="0" cy="0" r="1" gradientUnits="userSpaceOnUse" gradientTransform="translate(89.2991 49.2193) rotate(81.302) scale(2.56951)">
<stop offset="0.14" stop-color="white"/>
<stop offset="0.38" stop-color="#FCFF9E"/>
<stop offset="0.72" stop-color="#F8FF3C"/>
</radialGradient>
<radialGradient id="paint31_radial_59_34746" cx="0" cy="0" r="1" gradientUnits="userSpaceOnUse" gradientTransform="translate(30.7714 59.6673) rotate(81.302) scale(2.60733)">
<stop offset="0.16" stop-color="white"/>
<stop offset="0.39" stop-color="white" stop-opacity="0.5"/>
<stop offset="0.72" stop-color="white" stop-opacity="0"/>
</radialGradient>
<radialGradient id="paint32_radial_59_34746" cx="0" cy="0" r="1" gradientUnits="userSpaceOnUse" gradientTransform="translate(30.7714 59.6673) rotate(81.302) scale(2.60733)">
<stop offset="0.14" stop-color="white"/>
<stop offset="0.38" stop-color="#FCFF9E"/>
<stop offset="0.72" stop-color="#F8FF3C"/>
</radialGradient>
<linearGradient id="paint33_linear_59_34746" x1="42.2247" y1="56.6793" x2="42.2247" y2="72.1052" gradientUnits="userSpaceOnUse">
<stop offset="0.21" stop-color="#91FF74"/>
<stop offset="0.56" stop-color="#C8FB87"/>
<stop offset="0.94" stop-color="#FFF79A"/>
</linearGradient>
<linearGradient id="paint34_linear_59_34746" x1="15.8984" y1="56.6793" x2="15.8984" y2="72.1052" gradientUnits="userSpaceOnUse">
<stop offset="0.21" stop-color="#91FF74"/>
<stop offset="0.56" stop-color="#C8FB87"/>
<stop offset="0.94" stop-color="#FFF79A"/>
</linearGradient>
</defs>
</svg>
