<svg width="106" height="102" viewBox="0 0 106 102" fill="none" xmlns="http://www.w3.org/2000/svg">
<path d="M102.17 21.2498L102.17 21.2494L96.8199 17.3105L93.1559 20.1458L37.4683 15.2253C35.6969 15.0689 34.0825 16.2462 33.6904 17.9809L20.4853 76.3811L15.3059 80.3892L20.7268 84.3586L20.73 84.3561C21.1361 84.6822 21.6178 84.9271 22.1595 85.0508L85.9046 99.6131C87.8656 100.061 89.8071 98.7933 90.1854 96.8178L103.936 25.0249C104.234 23.4651 103.466 21.9695 102.17 21.2498Z" fill="#A69FBF"/>
<path d="M102.17 21.2498L102.17 21.2494L96.8199 17.3105L93.1559 20.1458L37.4683 15.2253C35.6969 15.0689 34.0825 16.2462 33.6904 17.9809L20.4853 76.3811L15.3059 80.3892L20.7268 84.3586L20.73 84.3561C21.1361 84.6822 21.6178 84.9271 22.1595 85.0508L85.9046 99.6131C87.8656 100.061 89.8071 98.7933 90.1854 96.8178L103.936 25.0249C104.234 23.4651 103.466 21.9695 102.17 21.2498Z" stroke="#7F7699" stroke-width="2.7782" stroke-linecap="round" stroke-linejoin="round"/>
<path d="M16.6796 81.0357L80.4247 95.5978C82.3857 96.0457 84.3272 94.7782 84.7055 92.8027L98.4557 21.0098C98.8514 18.9435 97.3747 16.9878 95.2789 16.8025L31.9884 11.2102C30.217 11.0538 28.6026 12.2311 28.2105 13.9658L14.0055 76.7885C13.5734 78.6992 14.7697 80.5993 16.6796 81.0357Z" fill="url(#paint0_linear_59_31086)"/>
<g opacity="0.6">
<path d="M93.5857 30.7036L81.3291 94.3715" stroke="white" stroke-width="2.7782" stroke-linecap="round" stroke-linejoin="round"/>
</g>
<g opacity="0.6">
<path d="M15.3059 80.3891L27.6403 27.6802" stroke="white" stroke-width="2.7782" stroke-linecap="round" stroke-linejoin="round"/>
</g>
<g opacity="0.4">
<path d="M35.5787 54.8111L34.6207 58.8248C34.2458 60.3955 32.7184 61.4074 31.1257 61.1403L27.0565 60.4577C25.3028 60.1634 24.1646 58.4459 24.5775 56.7161L25.5355 52.7025C25.9104 51.1317 27.4377 50.1198 29.0305 50.3869L33.0997 51.0695C34.8534 51.3638 35.9916 53.0814 35.5787 54.8111Z" fill="#A69FBF"/>
</g>
<g opacity="0.4">
<path d="M31.9994 69.8068L31.0427 73.8151C30.6635 75.4032 29.1082 76.4168 27.5024 76.1227L23.4481 75.3801C21.7169 75.063 20.6058 73.3584 21.0144 71.6464L21.9712 67.6381C22.3503 66.05 23.9057 65.0364 25.5115 65.3305L29.5657 66.0731C31.297 66.3903 32.408 68.0948 31.9994 69.8068Z" fill="#A69FBF"/>
</g>
<g opacity="0.4">
<path d="M86.4936 46.5451L85.7123 50.5923C85.4016 52.2022 83.8808 53.284 82.2581 53.0495L78.1797 52.4604C76.4446 52.2097 75.2711 50.5601 75.6035 48.8389L76.3848 44.7927C76.6955 43.1831 78.2158 42.1015 79.8383 42.3355L83.9167 42.9236C85.652 43.1739 86.8259 44.8237 86.4936 46.5451Z" fill="#A69FBF"/>
</g>
<g opacity="0.4">
<path d="M83.3746 62.6955L82.5941 66.7382C82.2783 68.3746 80.7148 69.4602 79.0711 69.1847L75.0094 68.5039C73.3074 68.2186 72.1748 66.5871 72.5022 64.8926L73.2833 60.8493C73.5994 59.2129 75.1633 58.1273 76.8069 58.4032L80.8678 59.0851C82.5693 59.3708 83.7016 61.0014 83.3746 62.6955Z" fill="#A69FBF"/>
</g>
<g opacity="0.4">
<path d="M80.3207 78.5122L79.5401 82.5556C79.2208 84.2094 77.6291 85.2976 75.9722 84.9944L71.9226 84.2535C70.2429 83.9462 69.1363 82.3273 69.4601 80.6506L70.2408 76.6072C70.56 74.9533 72.1517 73.8651 73.8086 74.1684L77.8582 74.9093C79.5379 75.2166 80.6445 76.8354 80.3207 78.5122Z" fill="#A69FBF"/>
</g>
<g opacity="0.4">
<path d="M70.5724 44.2797L69.7498 48.3214C69.4252 49.9163 67.9128 50.9809 66.3019 50.7484L62.2203 50.159C60.4732 49.9069 59.2978 48.2372 59.6498 46.5074L60.4723 42.4658C60.797 40.8708 62.3094 39.8062 63.9203 40.0387L68.0019 40.6281C69.749 40.8803 70.9244 42.55 70.5724 44.2797Z" fill="#A69FBF"/>
</g>
<g opacity="0.4">
<path d="M67.3643 60.041L66.5428 64.076C66.2127 65.6974 64.6573 66.766 63.0254 66.492L58.9628 65.8103C57.2491 65.5226 56.1152 63.8717 56.4618 62.1691L57.2833 58.1341C57.6135 56.5127 59.1688 55.4441 60.8007 55.7181L64.8633 56.3998C66.577 56.6875 67.711 58.3384 67.3643 60.041Z" fill="#A69FBF"/>
</g>
<g opacity="0.4">
<path d="M64.1979 75.5942L63.3764 79.629C63.0428 81.2677 61.4592 82.3382 59.8141 82.0368L55.7632 81.2951C54.0715 80.9852 52.9641 79.3467 53.3073 77.6616L54.1288 73.6276C54.4624 71.9891 56.0455 70.9187 57.6904 71.2196L61.7413 71.9607C63.4332 72.2702 64.5411 73.9089 64.1979 75.5942Z" fill="#A69FBF"/>
</g>
<g opacity="0.4">
<path d="M54.1104 41.9204L53.2673 45.9577C52.9359 47.5449 51.4275 48.6013 49.8226 48.3696L45.7416 47.7807C43.9881 47.5276 42.8119 45.8473 43.1743 44.113L44.0181 40.0754C44.3497 38.4884 45.8581 37.4325 47.4628 37.6642L51.5431 38.2531C53.2964 38.5062 54.4724 40.1863 54.1104 41.9204Z" fill="#A69FBF"/>
</g>
<g opacity="0.4">
<path d="M50.9005 57.2944L50.0585 61.326C49.7215 62.9399 48.17 63.9997 46.5441 63.7268L42.4826 63.0451C40.7629 62.7566 39.6283 61.0956 39.9847 59.3888L40.8268 55.3572C41.1638 53.7432 42.7153 52.6835 44.3412 52.9564L48.4027 53.6381C50.1224 53.9266 51.257 55.5875 50.9005 57.2944Z" fill="#A69FBF"/>
</g>
<g opacity="0.4">
<path d="M47.7064 72.5913L46.8642 76.6216C46.5235 78.2524 44.9446 79.3141 43.3057 79.0143L39.2555 78.2734C37.5576 77.9628 36.4491 76.3141 36.8022 74.6245L37.6444 70.5942C37.985 68.9634 39.5639 67.9017 41.2028 68.2015L45.253 68.9424C46.9509 69.253 48.0594 70.9017 47.7064 72.5913Z" fill="#A69FBF"/>
</g>
<g opacity="0.2">
<path d="M97.8102 24.7922L94.7007 41.034C86.7551 61.2465 76.7386 69.9123 72.2657 72.9641C70.9257 73.8787 69.3507 74.3852 67.7308 74.4387C45.2636 75.1653 28.1798 74.7507 16.7294 74.1544C16.007 74.116 15.3061 74.0796 14.6265 74.0412L22.7303 38.2002C26.7437 28.8782 28.5474 21.8173 28.7141 21.1506C28.7226 21.1164 28.7269 21.0993 28.7269 21.0993C29.1201 19.3661 30.7336 18.1864 32.5053 18.3424L95.7971 23.9352C96.575 24.0057 97.2674 24.3177 97.8102 24.7922Z" fill="#8585CC"/>
</g>
<path d="M16.6796 81.0357L80.4247 95.5978C82.3857 96.0457 84.3272 94.7782 84.7055 92.8027L98.4557 21.0098C98.8514 18.9435 97.3747 16.9878 95.2789 16.8025L31.9884 11.2102C30.217 11.0538 28.6026 12.2311 28.2105 13.9658L14.0055 76.7885C13.5734 78.6992 14.7697 80.5993 16.6796 81.0357Z" stroke="#A19EAF" stroke-width="2.7782" stroke-linecap="round" stroke-linejoin="round"/>
<path d="M16.6797 81.0357L80.4247 95.5978C82.3857 96.0457 84.3273 94.7782 84.7055 92.8027L98.4557 21.0098C98.8515 18.9435 97.3748 16.9878 95.279 16.8025L31.9885 11.2102C30.217 11.0538 28.6027 12.2311 28.2105 13.9658" stroke="#7F7699" stroke-width="2.7782" stroke-linecap="round" stroke-linejoin="round"/>
<path d="M98.4562 21.0108L95.7399 35.1903L25.2847 26.9057L28.2103 13.9648C28.6036 12.2317 30.2171 11.0541 31.9887 11.2101L95.2783 16.8029C97.3748 16.9867 98.8515 18.9442 98.4562 21.0108Z" fill="#FF4D67"/>
<path d="M98.4562 21.0108L95.7399 35.1903L25.2847 26.9057L28.2103 13.9648C28.6036 12.2317 30.2171 11.0541 31.9887 11.2101L95.2783 16.8029C97.3748 16.9867 98.8515 18.9442 98.4562 21.0108Z" stroke="#9E1835" stroke-width="2.7782" stroke-linecap="round" stroke-linejoin="round"/>
<g opacity="0.4">
<path d="M97.1509 25.4472L96.5434 20.4616C96.4726 19.8818 96.0054 19.4311 95.4237 19.3807L31.9655 13.8826C31.3707 13.8311 30.8239 14.2117 30.6674 14.7879C29.2161 20.1335 28.6272 24.6693 28.6759 24.6947" stroke="white" stroke-width="2.7782" stroke-linecap="round" stroke-linejoin="round"/>
</g>
<path d="M103.935 25.0242L101.215 39.2251L95.7397 35.1903L98.456 21.0107C98.7017 19.7242 98.223 18.4804 97.3212 17.6812L102.17 21.2501C103.465 21.9703 104.235 23.4662 103.935 25.0242Z" fill="#B51845"/>
<path d="M103.935 25.0242L101.215 39.2251L95.7397 35.1903L98.456 21.0107C98.7017 19.7242 98.223 18.4804 97.3212 17.6812L102.17 21.2501C103.465 21.9703 104.235 23.4662 103.935 25.0242Z" stroke="#89102F" stroke-width="2.7782" stroke-linecap="round" stroke-linejoin="round"/>
<path d="M88.6005 99.1488C87.8294 99.6392 86.8701 99.8335 85.9061 99.6134L22.1606 85.0498C21.6182 84.9272 21.1371 84.6829 20.7307 84.3568L20.7262 84.3578L15.3059 80.3901C15.7004 80.693 16.1631 80.9174 16.6788 81.0364L80.4236 95.5976C81.5067 95.8457 82.5844 95.5692 83.3963 94.9415L88.6005 99.1488Z" fill="#7F7699"/>
<path d="M88.6005 99.1488C87.8294 99.6392 86.8701 99.8335 85.9061 99.6134L22.1606 85.0498C21.6182 84.9272 21.1371 84.6829 20.7307 84.3568L20.7262 84.3578L15.3059 80.3901C15.7004 80.693 16.1631 80.9174 16.6788 81.0364L80.4236 95.5976C81.5067 95.8457 82.5844 95.5692 83.3963 94.9415L88.6005 99.1488Z" stroke="#7F7699" stroke-width="2.7782" stroke-linecap="round" stroke-linejoin="round"/>
<path d="M24.2048 67.7417L28.1683 74.5876" stroke="#3A3A3A" stroke-width="2.7782" stroke-linecap="round" stroke-linejoin="round"/>
<path d="M29.6232 68.6387L22.7478 73.0022" stroke="#3A3A3A" stroke-width="2.7782" stroke-linecap="round" stroke-linejoin="round"/>
<path d="M40.2812 70.8574L43.9596 77.2114" stroke="#3A3A3A" stroke-width="2.7782" stroke-linecap="round" stroke-linejoin="round"/>
<path d="M45.3096 71.6885L38.9287 75.7382" stroke="#3A3A3A" stroke-width="2.7782" stroke-linecap="round" stroke-linejoin="round"/>
<path d="M75.9592 60.7925L79.6517 67.1704" stroke="#C12950" stroke-width="2.7782" stroke-linecap="round" stroke-linejoin="round"/>
<path d="M81.0061 61.6265L74.6008 65.6916" stroke="#C12950" stroke-width="2.7782" stroke-linecap="round" stroke-linejoin="round"/>
<path d="M79.1802 44.8516L82.8508 51.1919" stroke="#C12950" stroke-width="2.7782" stroke-linecap="round" stroke-linejoin="round"/>
<path d="M84.1988 45.6807L77.8315 49.7219" stroke="#C12950" stroke-width="2.7782" stroke-linecap="round" stroke-linejoin="round"/>
<path d="M63.3374 42.2812L66.9016 48.4373" stroke="#3A3A3A" stroke-width="2.7782" stroke-linecap="round" stroke-linejoin="round"/>
<path d="M68.2099 43.0874L62.0273 47.0115" stroke="#3A3A3A" stroke-width="2.7782" stroke-linecap="round" stroke-linejoin="round"/>
<path d="M59.8157 57.9429L63.7218 64.6905" stroke="#3A3A3A" stroke-width="2.7782" stroke-linecap="round" stroke-linejoin="round"/>
<path d="M65.1556 58.8262L58.3794 63.1268" stroke="#3A3A3A" stroke-width="2.7782" stroke-linecap="round" stroke-linejoin="round"/>
<path d="M43.3906 55.2583L47.2275 61.8862" stroke="#3A3A3A" stroke-width="2.7782" stroke-linecap="round" stroke-linejoin="round"/>
<path d="M48.6359 56.1245L41.9797 60.3491" stroke="#3A3A3A" stroke-width="2.7782" stroke-linecap="round" stroke-linejoin="round"/>
<path d="M46.6323 40.2109L50.1256 46.2452" stroke="#3A3A3A" stroke-width="2.7782" stroke-linecap="round" stroke-linejoin="round"/>
<path d="M51.4083 41.002L45.3484 44.8483" stroke="#3A3A3A" stroke-width="2.7782" stroke-linecap="round" stroke-linejoin="round"/>
<path d="M28.0964 52.6382L31.8568 59.1336" stroke="#3A3A3A" stroke-width="2.7782" stroke-linecap="round" stroke-linejoin="round"/>
<path d="M33.2373 53.4897L26.7141 57.6297" stroke="#3A3A3A" stroke-width="2.7782" stroke-linecap="round" stroke-linejoin="round"/>
<path d="M83.5605 15.7674C84.6801 3.91109 75.0103 0.966828 70.8889 9.45296C67.4159 16.6038 68.9613 23.771 70.2933 25.1011C72.0594 26.8644 76.5648 24.5758 76.4404 21.9412C76.2915 18.7871 76.2429 16.9787 77.0638 14.4909C78.0022 11.6471 78.7029 14.2937 78.5418 15.3239L83.5605 15.7674Z" fill="url(#paint1_linear_59_31086)"/>
<g opacity="0.85">
<path d="M68.9709 21.3824C68.9709 21.3824 69.2451 9.59175 75.6968 7.44868C81.8387 5.40841 81.5425 15.3559 81.5425 15.3559" stroke="white" stroke-width="2.7782" stroke-linecap="round" stroke-linejoin="round"/>
</g>
<path d="M52.4626 13.0193C53.5822 1.16304 43.9124 -1.78122 39.791 6.70492C36.318 13.8558 37.8634 21.0229 39.1954 22.353C40.9615 24.1164 45.4669 21.8278 45.3425 19.1932C45.1936 16.039 45.145 14.2306 45.9659 11.7429C46.9043 8.89906 47.605 11.5456 47.4439 12.5759L52.4626 13.0193Z" fill="url(#paint2_linear_59_31086)"/>
<g opacity="0.85">
<path d="M37.886 18.7221C37.886 18.7221 38.3459 5.85264 45.1132 4.59006C50.922 3.50613 50.2601 12.4079 50.2601 12.4079" stroke="white" stroke-width="2.7782" stroke-linecap="round" stroke-linejoin="round"/>
</g>
<path d="M83.5605 15.7674C84.6801 3.91109 75.0103 0.966828 70.8889 9.45296C67.4159 16.6038 68.9613 23.771 70.2933 25.1011C72.0594 26.8644 76.5648 24.5758 76.4404 21.9412C76.2915 18.7871 76.2429 16.9787 77.0638 14.4909C78.0022 11.6471 78.7029 14.2937 78.5418 15.324L83.5605 15.7674Z" stroke="#8A736A" stroke-width="2.7782" stroke-linecap="round" stroke-linejoin="round"/>
<path d="M52.4626 13.0193C53.5822 1.16304 43.9124 -1.78122 39.791 6.70492C36.318 13.8558 37.8634 21.0229 39.1954 22.353C40.9615 24.1164 45.4669 21.8278 45.3425 19.1932C45.1936 16.039 45.145 14.2306 45.9659 11.7429C46.9043 8.89906 47.605 11.5456 47.4439 12.5759L52.4626 13.0193Z" stroke="#8A736A" stroke-width="2.7782" stroke-linecap="round" stroke-linejoin="round"/>
<path d="M78.5415 15.3237L86.5868 16.0345" stroke="#9E1835" stroke-width="2.7782" stroke-linecap="round" stroke-linejoin="round"/>
<path d="M47.4441 12.5757L59.6528 13.6549" stroke="#9E1835" stroke-width="2.7782" stroke-linecap="round" stroke-linejoin="round"/>
<path d="M70.2935 25.1011C72.0595 26.8644 76.5649 24.576 76.4406 21.9414C76.2916 18.7873 76.2431 16.9787 77.0639 14.4909C78.0023 11.6471 78.7033 14.2937 78.5422 15.324" stroke="#705C56" stroke-width="2.7782" stroke-linecap="round" stroke-linejoin="round"/>
<path d="M39.1956 22.3531C40.9616 24.1164 45.467 21.828 45.3427 19.1934C45.1937 16.0393 45.1452 14.2307 45.966 11.7429C46.9044 8.89908 47.6054 11.5456 47.4443 12.5759" stroke="#705C56" stroke-width="2.7782" stroke-linecap="round" stroke-linejoin="round"/>
<path d="M95.2794 16.8029L31.9878 11.2102C30.2171 11.0539 28.6027 12.2321 28.2101 13.9659C28.2101 13.9659 28.2065 13.9832 28.1975 14.0181C27.8631 15.3604 20.9071 42.5481 2.68526 61.9949C1.25534 63.521 2.19608 66.0205 4.27931 66.2045C7.12313 66.4556 11.1081 66.7561 16.2126 67.0207C27.663 67.6178 44.7475 68.0319 67.2146 67.3049C68.8347 67.2525 70.41 66.7448 71.7489 65.8312C77.0736 62.1977 90.2626 50.6034 98.4498 21.0343C98.4543 21.0179 98.4583 21.0012 98.4613 20.9845C98.8396 18.9272 97.3663 16.9882 95.2794 16.8029Z" fill="white"/>
<path d="M98.4563 21.0093C97.1279 25.8139 95.6651 30.1424 94.1275 34.0412L23.766 27.3099L23.7637 27.3103C26.6977 19.901 28.053 14.5908 28.1975 14.0179C28.2064 13.983 28.2099 13.9657 28.2099 13.9657C28.6025 12.2319 30.2168 11.0539 31.9876 11.2102L95.2794 16.8027C97.3748 16.9888 98.8513 18.9426 98.4563 21.0093Z" fill="#FF4D67"/>
<g opacity="0.4">
<path d="M97.1507 25.4482L96.5432 20.4626C96.4724 19.8828 96.0053 19.4321 95.4236 19.3816L31.9653 13.8836C31.3706 13.8321 30.8237 14.2127 30.6672 14.7888C29.2159 20.1345 21.4833 45.9246 2.65674 65.4071" stroke="white" stroke-width="2.7782" stroke-linecap="round" stroke-linejoin="round"/>
</g>
<path d="M95.2794 16.8029L31.9878 11.2102C30.2171 11.0539 28.6027 12.2321 28.2101 13.9659C28.2101 13.9659 28.2065 13.9832 28.1975 14.0181C27.8631 15.3604 20.9071 42.5481 2.68526 61.9949C1.25534 63.521 2.19608 66.0205 4.27931 66.2045C7.12313 66.4556 11.1081 66.7561 16.2126 67.0207C27.663 67.6178 44.7475 68.0319 67.2146 67.3049C68.8347 67.2525 70.41 66.7448 71.7489 65.8312C77.0736 62.1977 90.2626 50.6034 98.4498 21.0343C98.4543 21.0179 98.4583 21.0012 98.4613 20.9845C98.8396 18.9272 97.3663 16.9882 95.2794 16.8029Z" stroke="#9591AF" stroke-width="2.7782" stroke-linecap="round" stroke-linejoin="round"/>
<path d="M98.4563 21.0093C97.1279 25.8139 95.6651 30.1424 94.1275 34.0412L23.766 27.3099L23.7637 27.3103C26.6977 19.901 28.053 14.5908 28.1975 14.0179C28.2064 13.983 28.2099 13.9657 28.2099 13.9657C28.6025 12.2319 30.2168 11.0539 31.9876 11.2102L95.2794 16.8027C97.3748 16.9888 98.8513 18.9426 98.4563 21.0093Z" stroke="#9E1835" stroke-width="2.7782" stroke-linecap="round" stroke-linejoin="round"/>
<path d="M83.5605 15.7674C84.6801 3.91109 75.0103 0.966828 70.8889 9.45296C67.4159 16.6038 68.9613 23.771 70.2933 25.1011C72.0594 26.8644 76.5648 24.5758 76.4404 21.9412C76.2915 18.7871 76.2429 16.9787 77.0638 14.4909C78.0022 11.6471 78.7029 14.2937 78.5418 15.3239L83.5605 15.7674Z" fill="url(#paint3_linear_59_31086)"/>
<g opacity="0.85">
<path d="M68.9709 21.3824C68.9709 21.3824 69.2451 9.59175 75.6968 7.44868C81.8387 5.40841 81.5425 15.3559 81.5425 15.3559" stroke="white" stroke-width="2.7782" stroke-linecap="round" stroke-linejoin="round"/>
</g>
<path d="M52.4626 13.0193C53.5822 1.16304 43.9124 -1.78122 39.791 6.70492C36.318 13.8558 37.8634 21.0229 39.1954 22.353C40.9615 24.1164 45.4669 21.8278 45.3425 19.1932C45.1936 16.039 45.145 14.2306 45.9659 11.7429C46.9043 8.89906 47.605 11.5456 47.4439 12.5759L52.4626 13.0193Z" fill="url(#paint4_linear_59_31086)"/>
<g opacity="0.85">
<path d="M37.8862 18.7221C37.8862 18.7221 38.3461 5.85264 45.1134 4.59006C50.9222 3.50613 50.2604 12.4079 50.2604 12.4079" stroke="white" stroke-width="2.7782" stroke-linecap="round" stroke-linejoin="round"/>
</g>
<path d="M83.5605 15.7674C84.6801 3.91109 75.0103 0.966828 70.8889 9.45296C67.4159 16.6038 68.9613 23.771 70.2933 25.1011C72.0594 26.8644 76.5648 24.5758 76.4404 21.9412C76.2915 18.7871 76.2429 16.9787 77.0638 14.4909C78.0022 11.6471 78.7029 14.2937 78.5418 15.324L83.5605 15.7674Z" stroke="#8A736A" stroke-width="2.7782" stroke-linecap="round" stroke-linejoin="round"/>
<path d="M52.4626 13.0193C53.5822 1.16304 43.9124 -1.78122 39.791 6.70492C36.318 13.8558 37.8634 21.0229 39.1954 22.353C40.9615 24.1164 45.4669 21.8278 45.3425 19.1932C45.1936 16.039 45.145 14.2306 45.9659 11.7429C46.9043 8.89906 47.605 11.5456 47.4439 12.5759L52.4626 13.0193Z" stroke="#8A736A" stroke-width="2.7782" stroke-linecap="round" stroke-linejoin="round"/>
<path d="M78.542 15.3237L86.5872 16.0345" stroke="#9E1835" stroke-width="2.7782" stroke-linecap="round" stroke-linejoin="round"/>
<path d="M47.4443 12.5757L59.6531 13.6549" stroke="#9E1835" stroke-width="2.7782" stroke-linecap="round" stroke-linejoin="round"/>
<path d="M70.2935 25.1011C72.0595 26.8644 76.5649 24.576 76.4406 21.9414C76.2916 18.7873 76.2431 16.9787 77.0639 14.4909C78.0023 11.6471 78.7033 14.2937 78.5422 15.324" stroke="#705C56" stroke-width="2.7782" stroke-linecap="round" stroke-linejoin="round"/>
<path d="M39.1956 22.3531C40.9616 24.1164 45.467 21.828 45.3427 19.1934C45.1937 16.0393 45.1452 14.2307 45.966 11.7429C46.9044 8.89908 47.6054 11.5456 47.4443 12.5759" stroke="#705C56" stroke-width="2.7782" stroke-linecap="round" stroke-linejoin="round"/>
<g opacity="0.7">
<path d="M38.4841 37.1652C40.5801 36.6149 42.7768 36.1569 45.0498 35.8079C61.8101 33.2342 77.2144 37.4597 77.5918 45.4391C77.9115 52.2002 67.6969 60.1781 50.9366 62.7518C34.1764 65.3255 16.9214 62.751 16.897 54.7596C16.8731 46.9346 28.5456 43.3178 37.0554 43.1135" stroke="#00FFD1" stroke-width="2.7782" stroke-linecap="round" stroke-linejoin="round"/>
</g>
<path d="M68.4891 38.4292C68.4891 38.4292 63.5585 46.6113 63.7888 47.5646C64.0228 48.5182 72.0711 47.555 74.6255 43.3388C76.8607 39.6489 72.6996 37.006 68.4891 38.4292Z" stroke="#FD2C53" stroke-width="2.7782" stroke-linecap="round" stroke-linejoin="round"/>
<path d="M33.1298 36.0671C33.1298 36.0671 27.4661 44.2304 27.6167 45.1818C27.7708 46.1332 35.9577 45.1739 38.8905 40.967C41.4567 37.2857 37.4915 34.6477 33.1298 36.0671Z" stroke="#FD2C53" stroke-width="2.7782" stroke-linecap="round" stroke-linejoin="round"/>
<path d="M52.1343 36.6565C51.4547 36.5035 46.6987 36.2537 46.2798 36.5559C45.8607 36.8581 40.3819 45.5196 40.2299 45.9112C40.0782 46.3027 45.9483 46.4241 45.9483 46.4241" stroke="#FD2C53" stroke-width="2.7782" stroke-linecap="round" stroke-linejoin="round"/>
<path d="M43.7869 41.1445L48.6004 41.4283" stroke="#FD2C53" stroke-width="2.7782" stroke-linecap="round" stroke-linejoin="round"/>
<path d="M67.3812 51.9715C66.6365 51.8112 61.5015 51.5178 61.0796 51.8185C60.6576 52.1192 55.5756 60.797 55.4484 61.19C55.3215 61.5833 61.6385 61.7559 61.6385 61.7559" stroke="#FD2C53" stroke-width="2.7782" stroke-linecap="round" stroke-linejoin="round"/>
<path d="M58.8274 56.4175L64.0261 56.7453" stroke="#FD2C53" stroke-width="2.7782" stroke-linecap="round" stroke-linejoin="round"/>
<path d="M49.9172 46.8453C49.9172 46.8453 54.8823 37.6471 59.0936 37.1148C63.2898 36.582 59.2279 47.3824 59.2279 47.3824" stroke="#FD2C53" stroke-width="2.7782" stroke-linecap="round" stroke-linejoin="round"/>
<path d="M54.1748 42.1797L59.3397 42.4139" stroke="#FD2C53" stroke-width="2.7782" stroke-linecap="round" stroke-linejoin="round"/>
<path d="M26.1222 48.9712C26.1222 48.9712 19.7943 58.6421 19.9238 59.0005C20.054 59.3589 27.3175 59.3907 27.3175 59.3907" stroke="#FD2C53" stroke-width="2.7782" stroke-linecap="round" stroke-linejoin="round"/>
<path d="M38.8403 50.0537C38.8403 50.0537 33.3626 59.4752 33.313 59.8176" stroke="#FD2C53" stroke-width="2.7782" stroke-linecap="round" stroke-linejoin="round"/>
<path d="M36.9553 49.6587L41.0538 49.8951" stroke="#FD2C53" stroke-width="2.7782" stroke-linecap="round" stroke-linejoin="round"/>
<path d="M31.324 59.7056L35.3797 59.9364" stroke="#FD2C53" stroke-width="2.7782" stroke-linecap="round" stroke-linejoin="round"/>
<path d="M40.751 60.3611C40.991 59.9961 46.5602 50.398 47.1079 50.2745C47.6555 50.151 49.226 60.783 49.8054 60.8716C50.3847 60.9603 56.4021 50.9163 56.4021 50.9163" stroke="#FD2C53" stroke-width="2.7782" stroke-linecap="round" stroke-linejoin="round"/>
<path d="M67.7888 67.4119C59.9885 68.801 19.2771 67.7324 2.18044 65.5953C2.39415 65.4885 2.07358 65.7022 2.18044 65.7022C25.2609 68.1598 59.6679 68.3736 67.8957 67.4119C67.8957 67.4119 67.7888 67.5187 67.7888 67.4119Z" fill="url(#paint5_linear_59_31086)"/>
<path d="M67.7888 67.4119C59.9885 68.801 19.2771 67.7324 2.18044 65.5953C2.39415 65.4885 2.07358 65.7022 2.18044 65.7022C25.2609 68.1598 59.6679 68.3736 67.8957 67.4119C67.8957 67.4119 67.7888 67.5187 67.7888 67.4119Z" stroke="#9591AF" stroke-width="2.7782" stroke-linecap="round" stroke-linejoin="round"/>
<path d="M14.2744 21.2668L12.8917 24.1392C12.5648 24.8184 13.2123 25.5577 13.9287 25.3233L24.1753 20.0703C25.0814 19.7739 25.5756 18.799 25.2792 17.8929L23.2858 6.85739C23.0487 6.13306 22.0542 6.05669 21.7096 6.73658L20.4933 9.45565L16.1683 7.13572C15.2096 6.64968 14.0384 7.03309 13.5523 7.9918L9.5053 16.5535C9.01862 17.5134 9.40372 18.6862 10.3646 19.1712L14.2744 21.2668Z" fill="url(#paint6_linear_59_31086)"/>
<g opacity="0.4">
<path d="M13.9997 23.5475L23.7602 18.3884L22.1986 8.59891L21.0769 11.4093L14.3528 7.87946" stroke="url(#paint7_linear_59_31086)" stroke-width="2.42778" stroke-linecap="round" stroke-linejoin="round"/>
</g>
<path d="M14.2744 21.2668L12.8917 24.1392C12.5648 24.8184 13.2123 25.5577 13.9287 25.3233L24.1753 20.0703C25.0814 19.7739 25.5756 18.799 25.2792 17.8929L23.2858 6.85739C23.0487 6.13306 22.0542 6.05669 21.7096 6.73658L20.4933 9.45565L16.1683 7.13572C15.2096 6.64968 14.0384 7.03309 13.5523 7.9918L9.5053 16.5535C9.01862 17.5134 9.40372 18.6862 10.3646 19.1712L14.2744 21.2668Z" stroke="url(#paint8_linear_59_31086)" stroke-width="2.42778" stroke-linecap="round" stroke-linejoin="round"/>
<path d="M88.2338 5.17594L86.4142 3.46035C85.984 3.05466 85.2774 3.3632 85.2826 3.9545L86.5552 12.6948C86.5618 13.4426 87.1734 14.0436 87.9213 14.0371L96.4365 14.9796C97.0344 14.9743 97.3276 14.2488 96.901 13.8297L95.2119 12.3042L98.1599 9.41115C98.7509 8.80965 98.7424 7.84286 98.1409 7.25184L93.0768 2.5191C92.4746 1.9273 91.5062 1.93672 90.9155 2.54008L88.2338 5.17594Z" fill="url(#paint9_linear_59_31086)"/>
<g opacity="0.4">
<path d="M86.5932 4.42898L87.911 12.7833L95.392 13.7529L93.6122 12.2767L98.0344 7.8769" stroke="url(#paint10_linear_59_31086)" stroke-width="2.15861" stroke-linecap="round" stroke-linejoin="round"/>
</g>
<path d="M88.2338 5.17594L86.4142 3.46034C85.984 3.05466 85.2774 3.3632 85.2826 3.9545L86.5552 12.6948C86.5618 13.4426 87.1734 14.0436 87.9213 14.0371L96.4365 14.9796C97.0344 14.9743 97.3276 14.2488 96.901 13.8297L95.2119 12.3042L98.1599 9.41115C98.7509 8.80965 98.7424 7.84286 98.1409 7.25184L93.0768 2.5191C92.4746 1.9273 91.5062 1.93672 90.9155 2.54008L88.2338 5.17594Z" stroke="url(#paint11_linear_59_31086)" stroke-width="2.15861" stroke-linecap="round" stroke-linejoin="round"/>
<path d="M25.8031 83.708L29.3062 86.0417C30.1345 86.5935 31.2197 85.882 31.0443 84.9024L26.0506 70.5421C25.8287 69.303 24.6444 68.4783 23.4053 68.7001L8.60985 69.2872C7.61931 69.4646 7.33743 70.7511 8.16341 71.3262L11.4964 73.4143L7.67124 78.6452C6.86022 79.8099 7.14723 81.4117 8.31194 82.2227L18.767 89.0817C19.9332 89.8938 21.5373 89.6048 22.3472 88.4371L25.8031 83.708Z" fill="url(#paint12_linear_59_31086)"/>
<g opacity="0.4">
<path d="M28.7354 84.4848L23.7755 70.7773L10.6884 71.0278L14.1582 73.0089L8.31177 81.1556" stroke="url(#paint13_linear_59_31086)" stroke-width="2.7782" stroke-linecap="round" stroke-linejoin="round"/>
</g>
<path d="M25.8031 83.708L29.3062 86.0417C30.1345 86.5935 31.2197 85.882 31.0443 84.9024L26.0506 70.5421C25.8287 69.303 24.6444 68.4783 23.4053 68.7001L8.60985 69.2872C7.61931 69.4646 7.33743 70.7511 8.16341 71.3262L11.4964 73.4143L7.67124 78.6452C6.86022 79.8099 7.14723 81.4117 8.31194 82.2227L18.767 89.0817C19.9332 89.8938 21.5373 89.6048 22.3472 88.4371L25.8031 83.708Z" stroke="url(#paint14_linear_59_31086)" stroke-width="2.7782" stroke-linecap="round" stroke-linejoin="round"/>
<path d="M75.492 47.685L92.3508 44.1527C93.4666 43.9251 94.5299 44.7253 94.6205 45.8604L97.464 77.9053C97.5354 78.8 96.9701 79.6223 96.1092 79.8758L90.6104 81.71C89.7086 81.9756 88.7482 81.5406 88.3533 80.6874L74.1498 50.3405C73.6355 49.2295 74.2927 47.9296 75.492 47.685Z" fill="url(#paint15_linear_59_31086)"/>
<g opacity="0.4">
<path d="M76.9949 49.8419L94.04 46.2715C94.3606 46.2061 94.6663 46.4361 94.6923 46.7624L97.3725 76.7622C97.3931 77.0194 97.2305 77.2558 96.9831 77.3286L90.6154 79.4187C90.3562 79.495 90.0801 79.3701 89.9666 79.1249L76.6091 50.6051C76.4613 50.2858 76.6501 49.9121 76.9949 49.8419Z" stroke="url(#paint16_linear_59_31086)" stroke-width="2.83878" stroke-linecap="round" stroke-linejoin="round"/>
</g>
<path d="M75.492 47.685L92.3508 44.1527C93.4666 43.9251 94.5299 44.7253 94.6205 45.8604L97.464 77.9053C97.5354 78.8 96.9701 79.6223 96.1092 79.8758L90.6104 81.71C89.7086 81.9756 88.7482 81.5406 88.3533 80.6874L74.1498 50.3405C73.6355 49.2295 74.2927 47.9296 75.492 47.685Z" stroke="url(#paint17_linear_59_31086)" stroke-width="2.83878" stroke-linecap="round" stroke-linejoin="round"/>
<path d="M93.2607 88.8409L97.9125 87.3977C98.9453 87.1098 100.011 87.7346 100.265 88.7764L101.064 92.261C101.3 93.2326 100.742 94.221 99.7876 94.5197L95.803 95.9373C94.8715 96.2289 93.8709 95.7658 93.4901 94.8671L92.0234 91.408C91.5771 90.3544 92.1584 89.1481 93.2607 88.8409Z" fill="url(#paint18_linear_59_31086)"/>
<g opacity="0.4">
<path d="M94.5912 90.3868L98.0838 89.2666C98.8931 89.041 99.7283 89.5307 99.9269 90.3471L100.528 93.0178C100.714 93.7791 100.276 94.5536 99.5281 94.7877L96.5585 95.8879C95.8286 96.1163 95.0445 95.7533 94.7461 95.0491L93.6218 92.3981C93.272 91.5724 93.7274 90.6276 94.5912 90.3868Z" stroke="url(#paint19_linear_59_31086)" stroke-width="2.83878" stroke-linecap="round" stroke-linejoin="round"/>
</g>
<path d="M93.2607 88.8409L97.9125 87.3977C98.9453 87.1098 100.011 87.7346 100.265 88.7764L101.064 92.261C101.3 93.2326 100.742 94.221 99.7876 94.5197L95.803 95.9373C94.8715 96.2289 93.8709 95.7658 93.4901 94.8671L92.0234 91.408C91.5771 90.3544 92.1584 89.1481 93.2607 88.8409Z" stroke="url(#paint20_linear_59_31086)" stroke-width="2.83878" stroke-linecap="round" stroke-linejoin="round"/>
<defs>
<linearGradient id="paint0_linear_59_31086" x1="52.149" y1="83.2728" x2="54.37" y2="65.061" gradientUnits="userSpaceOnUse">
<stop stop-color="white"/>
<stop offset="0.45" stop-color="#F3F1F9"/>
<stop offset="0.89" stop-color="#E7E4F2"/>
</linearGradient>
<linearGradient id="paint1_linear_59_31086" x1="76.7255" y1="-2.63757" x2="76.263" y2="25.7292" gradientUnits="userSpaceOnUse">
<stop offset="0.33" stop-color="#DFDBD1"/>
<stop offset="0.77" stop-color="#C3B6AA"/>
<stop offset="0.94" stop-color="#A69182"/>
</linearGradient>
<linearGradient id="paint2_linear_59_31086" x1="45.5239" y1="-3.06496" x2="45.0613" y2="25.3016" gradientUnits="userSpaceOnUse">
<stop offset="0.33" stop-color="#DFDBD1"/>
<stop offset="0.77" stop-color="#C2B5A9"/>
<stop offset="0.94" stop-color="#A58F80"/>
</linearGradient>
<linearGradient id="paint3_linear_59_31086" x1="76.7255" y1="-2.63757" x2="76.263" y2="25.7292" gradientUnits="userSpaceOnUse">
<stop offset="0.33" stop-color="#DFDBD1"/>
<stop offset="0.77" stop-color="#C2B5A8"/>
<stop offset="0.94" stop-color="#A48E7E"/>
</linearGradient>
<linearGradient id="paint4_linear_59_31086" x1="45.5239" y1="-3.06496" x2="45.0613" y2="25.3016" gradientUnits="userSpaceOnUse">
<stop offset="0.33" stop-color="#DFDBD1"/>
<stop offset="0.77" stop-color="#C2B5A9"/>
<stop offset="0.94" stop-color="#A58F80"/>
</linearGradient>
<linearGradient id="paint5_linear_59_31086" x1="39.6351" y1="47.8035" x2="38.2257" y2="69.7099" gradientUnits="userSpaceOnUse">
<stop stop-color="#D9D7EE"/>
<stop offset="0.72" stop-color="#BAB8D6"/>
<stop offset="1" stop-color="#9C98BE"/>
</linearGradient>
<linearGradient id="paint6_linear_59_31086" x1="5.43021" y1="7.81193" x2="24.9782" y2="19.2655" gradientUnits="userSpaceOnUse">
<stop offset="0.33" stop-color="#FF8A00"/>
<stop offset="0.77" stop-color="#FFC51A"/>
<stop offset="0.94" stop-color="#FFFF33"/>
</linearGradient>
<linearGradient id="paint7_linear_59_31086" x1="11.3311" y1="15.1319" x2="24.1644" y2="13.3358" gradientUnits="userSpaceOnUse">
<stop offset="0.08" stop-color="white" stop-opacity="0"/>
<stop offset="0.42" stop-color="white" stop-opacity="0.5"/>
<stop offset="0.78" stop-color="white"/>
</linearGradient>
<linearGradient id="paint8_linear_59_31086" x1="26.8486" y1="15.7401" x2="6.74216" y2="1.37372" gradientUnits="userSpaceOnUse">
<stop offset="0.06" stop-color="#FD9E02"/>
<stop offset="0.23" stop-color="#FE6701"/>
<stop offset="0.68" stop-color="#FF3000"/>
</linearGradient>
<linearGradient id="paint9_linear_59_31086" x1="100.171" y1="1.58812" x2="86.9664" y2="13.4862" gradientUnits="userSpaceOnUse">
<stop offset="0.33" stop-color="#FF5320"/>
<stop offset="0.77" stop-color="#FF8C2A"/>
<stop offset="0.94" stop-color="#FFC533"/>
</linearGradient>
<linearGradient id="paint10_linear_59_31086" x1="93.2965" y1="4.26256" x2="91.5931" y2="14.285" gradientUnits="userSpaceOnUse">
<stop offset="0.08" stop-color="white" stop-opacity="0"/>
<stop offset="0.42" stop-color="white" stop-opacity="0.5"/>
<stop offset="0.78" stop-color="white"/>
</linearGradient>
<linearGradient id="paint11_linear_59_31086" x1="89.1585" y1="15.7217" x2="104.674" y2="4.09747" gradientUnits="userSpaceOnUse">
<stop offset="0.06" stop-color="#FD8102"/>
<stop offset="0.23" stop-color="#F34F01"/>
<stop offset="0.68" stop-color="#E91D00"/>
</linearGradient>
<linearGradient id="paint12_linear_59_31086" x1="6.59031" y1="92.8107" x2="25.1451" y2="69.3449" gradientUnits="userSpaceOnUse">
<stop offset="0.33" stop-color="#FF8A00"/>
<stop offset="0.77" stop-color="#FFC51A"/>
<stop offset="0.94" stop-color="#FFFF33"/>
</linearGradient>
<linearGradient id="paint13_linear_59_31086" x1="17.2424" y1="86.4342" x2="17.2424" y2="69.3241" gradientUnits="userSpaceOnUse">
<stop offset="0.08" stop-color="white" stop-opacity="0"/>
<stop offset="0.42" stop-color="white" stop-opacity="0.5"/>
<stop offset="0.78" stop-color="white"/>
</linearGradient>
<linearGradient id="paint14_linear_59_31086" x1="20.8773" y1="66.2538" x2="-1.58851" y2="89.9168" gradientUnits="userSpaceOnUse">
<stop offset="0.06" stop-color="#FD9E02"/>
<stop offset="0.23" stop-color="#FE6701"/>
<stop offset="0.68" stop-color="#FF3000"/>
</linearGradient>
<linearGradient id="paint15_linear_59_31086" x1="103.557" y1="85.2949" x2="75.4388" y2="48.2135" gradientUnits="userSpaceOnUse">
<stop offset="0.33" stop-color="#FF1743"/>
<stop offset="0.77" stop-color="#FF4E3B"/>
<stop offset="0.94" stop-color="#FF8533"/>
</linearGradient>
<linearGradient id="paint16_linear_59_31086" x1="94.3716" y1="78.8475" x2="85.5656" y2="49.1973" gradientUnits="userSpaceOnUse">
<stop offset="0.08" stop-color="white" stop-opacity="0"/>
<stop offset="0.42" stop-color="white" stop-opacity="0.5"/>
<stop offset="0.78" stop-color="white"/>
</linearGradient>
<linearGradient id="paint17_linear_59_31086" x1="74.0969" y1="48.769" x2="125.276" y2="97.8313" gradientUnits="userSpaceOnUse">
<stop offset="0.06" stop-color="#FD6202"/>
<stop offset="0.23" stop-color="#E73501"/>
<stop offset="0.68" stop-color="#D00800"/>
</linearGradient>
<linearGradient id="paint18_linear_59_31086" x1="101.661" y1="95.1746" x2="92.0254" y2="88.7588" gradientUnits="userSpaceOnUse">
<stop offset="0.33" stop-color="#FF1743"/>
<stop offset="0.77" stop-color="#FF4E3B"/>
<stop offset="0.94" stop-color="#FF8533"/>
</linearGradient>
<linearGradient id="paint19_linear_59_31086" x1="115.557" y1="110.997" x2="92.5043" y2="89.1892" gradientUnits="userSpaceOnUse">
<stop offset="0.23" stop-color="white" stop-opacity="0"/>
<stop offset="0.6" stop-color="white" stop-opacity="0.5"/>
<stop offset="1" stop-color="white"/>
</linearGradient>
<linearGradient id="paint20_linear_59_31086" x1="91.5306" y1="89.0803" x2="107.905" y2="98.9531" gradientUnits="userSpaceOnUse">
<stop offset="0.06" stop-color="#FD6202"/>
<stop offset="0.23" stop-color="#E73501"/>
<stop offset="0.68" stop-color="#D00800"/>
</linearGradient>
</defs>
</svg>
