<svg width="94" height="80" viewBox="0 0 94 80" fill="none" xmlns="http://www.w3.org/2000/svg">
<path d="M7.58287 53.4382C6.18618 70.7779 29.91 77.157 46.9727 77.1598C64.0409 77.1626 87.0775 71.2357 86.3794 53.4382C85.3819 49.069 82.753 43.925 79.9843 40.3259C71.4779 67.8024 21.5255 64.2134 14.4074 39.7891C11.6387 43.3882 8.58035 49.069 7.58287 53.4382Z" fill="url(#paint0_radial_59_30664)"/>
<path d="M7.58287 53.4382C6.18618 70.7779 29.91 77.157 46.9727 77.1598C64.0409 77.1626 87.0775 71.2357 86.3794 53.4382C85.3819 49.069 82.753 43.925 79.9843 40.3259C71.4779 67.8024 21.5255 64.2134 14.4074 39.7891C11.6387 43.3882 8.58035 49.069 7.58287 53.4382Z" fill="url(#paint1_radial_59_30664)"/>
<path d="M7.58287 53.4382C6.18618 70.7779 29.91 77.157 46.9727 77.1598C64.0409 77.1626 87.0775 71.2357 86.3794 53.4382C85.3819 49.069 82.753 43.925 79.9843 40.3259C71.4779 67.8024 21.5255 64.2134 14.4074 39.7891C11.6387 43.3882 8.58035 49.069 7.58287 53.4382Z" stroke="url(#paint2_linear_59_30664)" stroke-width="1.71795" stroke-linecap="round" stroke-linejoin="round"/>
<path d="M87.6795 23.8507C83.4884 15.0732 73.4283 3.63493 71.102 1.13574L22.6781 1.24634C22.6781 1.24634 11.0678 14.1962 6.58375 23.1528C-2.47199 41.2406 2.5208 56.0534 3.99416 59.1438C2.07091 22.515 92.1763 22.9829 90.162 59.0364C90.8968 57.3019 96.9107 43.184 87.6795 23.8507Z" fill="url(#paint3_radial_59_30664)"/>
<path d="M2.28479 56.7431C-0.0503318 42.1599 18.0586 32.2624 22.4387 24.9909C19.6653 17.2975 20.0501 6.07761 22.6457 1.10693C18.3635 5.57317 10.5848 15.6354 6.22877 24.7584C4.29759 28.8031 2.30154 33.6769 1.43978 39.6438C0.730476 44.5543 0.789317 50.2048 2.28479 56.7431Z" fill="url(#paint4_radial_59_30664)"/>
<path d="M2.28479 56.7431C-0.0503318 42.1599 18.0586 32.2624 22.4387 24.9909C19.6653 17.2975 20.0501 6.07761 22.6457 1.10693C18.3635 5.57317 10.5848 15.6354 6.22877 24.7584C4.29759 28.8031 2.30154 33.6769 1.43978 39.6438C0.730476 44.5543 0.789317 50.2048 2.28479 56.7431Z" fill="url(#paint5_radial_59_30664)"/>
<path d="M91.6772 56.7436C94.0123 42.1603 78.2179 30.7136 72.1675 24.9914C75.2255 16.5084 73.5421 4.67899 70.8872 1C75.3726 5.69601 83.157 14.7689 87.8406 24.2219C91.468 31.5432 94.9898 42.2606 91.6772 56.7436Z" fill="url(#paint6_radial_59_30664)"/>
<g opacity="0.5">
<path d="M71.1209 1.08203C74.1421 5.37626 73.9231 20.75 72.1675 24.7985L22.3945 24.8838C19.6466 17.0772 19.6434 5.40138 22.6646 1.10716L71.1209 1.08203Z" fill="url(#paint7_radial_59_30664)"/>
</g>
<path d="M87.6795 23.8507C83.4884 15.0732 73.4283 3.63493 71.102 1.13574L22.6781 1.24634C22.6781 1.24634 11.0678 14.1962 6.58375 23.1528C-2.47199 41.2406 2.5208 56.0534 3.99416 59.1438C2.07091 22.515 92.1763 22.9829 90.162 59.0364C90.8968 57.3019 96.9107 43.184 87.6795 23.8507Z" stroke="url(#paint8_linear_59_30664)" stroke-width="1.71795" stroke-linecap="round" stroke-linejoin="round"/>
<path d="M81.9759 52.886C81.9759 64.657 66.3524 74.1993 47.08 74.1993C27.8076 74.1993 12.1842 64.657 12.1842 52.886C12.1842 41.1151 27.8076 31.5727 47.08 31.5727C66.3524 31.5727 81.9759 41.1151 81.9759 52.886ZM21.9559 24.8525C19.1541 27.6543 13.6582 31.6593 9.15435 36.7414C4.65074 41.8237 1.13926 47.9832 2.30682 55.0945C3.5519 62.6786 10.4246 68.6897 19.1324 72.8046C27.8403 76.9195 38.3831 79.1384 46.9686 79.1384C64.1395 79.1384 89.1992 70.2627 91.6896 55.0945C94.0247 40.872 77.2607 30.3843 71.7289 24.8525H21.9559Z" fill="url(#paint9_linear_59_30664)"/>
<path d="M81.9759 52.886C81.9759 64.657 66.3524 74.1993 47.08 74.1993C27.8076 74.1993 12.1842 64.657 12.1842 52.886C12.1842 41.1151 27.8076 31.5727 47.08 31.5727C66.3524 31.5727 81.9759 41.1151 81.9759 52.886ZM21.9559 24.8525C19.1541 27.6543 13.6582 31.6593 9.15435 36.7414C4.65074 41.8237 1.13926 47.9832 2.30682 55.0945C3.5519 62.6786 10.4246 68.6897 19.1324 72.8046C27.8403 76.9195 38.3831 79.1384 46.9686 79.1384C64.1395 79.1384 89.1992 70.2627 91.6896 55.0945C94.0247 40.872 77.2607 30.3843 71.7289 24.8525H21.9559Z" stroke="#4F4F4F" stroke-width="1.71795" stroke-linecap="round" stroke-linejoin="round"/>
<mask id="mask0_59_30664" style="mask-type:luminance" maskUnits="userSpaceOnUse" x="1" y="23" width="92" height="58">
<path d="M21.9559 24.8525C19.1541 27.6543 13.6582 31.6593 9.15435 36.7414C4.65074 41.8237 1.13926 47.9832 2.30682 55.0945C3.5519 62.6786 10.4246 68.6897 19.1324 72.8046C27.8403 76.9195 38.3831 79.1384 46.9686 79.1384C64.1395 79.1384 89.1992 70.2627 91.6896 55.0945C94.0247 40.872 77.2607 30.3843 71.7289 24.8525H21.9559Z" fill="black" stroke="url(#paint10_linear_59_30664)" stroke-width="1.73942" stroke-linecap="round" stroke-linejoin="round"/>
</mask>
<g mask="url(#mask0_59_30664)">
<path d="M21.9559 24.8525C19.1541 27.6543 13.6582 31.6593 9.15435 36.7414C4.65074 41.8237 1.13926 47.9832 2.30682 55.0945C3.5519 62.6786 10.4246 68.6897 19.1324 72.8046C27.8403 76.9195 38.3831 79.1384 46.9686 79.1384C64.1395 79.1384 89.1992 70.2627 91.6896 55.0945C94.0247 40.872 77.2607 30.3843 71.7289 24.8525H21.9559Z" stroke="url(#paint11_linear_59_30664)" stroke-width="1.73942" stroke-linecap="round" stroke-linejoin="round"/>
</g>
<mask id="mask1_59_30664" style="mask-type:luminance" maskUnits="userSpaceOnUse" x="11" y="30" width="72" height="46">
<path d="M81.976 52.8856C81.976 64.6565 66.3526 74.1989 47.0802 74.1989C27.8078 74.1989 12.1843 64.6565 12.1843 52.8856C12.1843 41.1146 27.8078 31.5723 47.0802 31.5723C66.3526 31.5723 81.976 41.1146 81.976 52.8856Z" fill="black" stroke="url(#paint12_linear_59_30664)" stroke-width="1.73942" stroke-linecap="round" stroke-linejoin="round"/>
</mask>
<g mask="url(#mask1_59_30664)">
<path d="M81.976 52.8856C81.976 64.6565 66.3526 74.1989 47.0802 74.1989C27.8078 74.1989 12.1843 64.6565 12.1843 52.8856C12.1843 41.1146 27.8078 31.5723 47.0802 31.5723C66.3526 31.5723 81.976 41.1146 81.976 52.8856Z" stroke="url(#paint13_linear_59_30664)" stroke-width="1.73942" stroke-linecap="round" stroke-linejoin="round"/>
</g>
<path d="M22.6646 1.322L71.1208 1.29688" stroke="#636363" stroke-width="1.71795" stroke-linecap="round" stroke-linejoin="round"/>
<path d="M58.3926 11.9757C58.3926 17.1218 53.2877 21.2934 46.9904 21.2934C40.693 21.2934 35.5881 17.1218 35.5881 11.9757C35.5881 6.82954 40.693 2.65771 46.9904 2.65771C53.2877 2.65771 58.3926 6.82954 58.3926 11.9757Z" fill="url(#paint14_linear_59_30664)"/>
<path d="M53.6878 6.16038C53.6573 5.8795 53.4737 5.44185 52.4825 5.64736C50.9799 5.95896 46.5989 7.56051 38.6702 10.5111C37.966 10.7501 37.5971 10.9848 37.5627 11.215C37.535 11.4016 37.5799 13.0854 37.5627 13.2003C37.497 13.6423 38.236 13.7816 39.1656 14.0441C39.9234 14.2579 40.9432 14.5085 41.4736 14.5197C41.9549 14.5298 42.4924 14.3604 43.0864 14.0114C44.1294 13.4091 45.0423 12.4541 45.8256 12.0051C45.7269 12.0843 45.6596 12.1388 45.6358 12.1601C45.1262 12.613 44.575 12.9587 44.5494 13.3479C44.5408 13.4776 44.5518 15.2187 44.5486 15.351C44.5426 15.5971 44.7487 15.861 45.3094 16.181C46.5764 16.9038 47.3138 17.3649 48.619 18.1055C49.4531 18.5788 50.1063 19.1395 50.9694 19.0731C51.3665 19.0426 51.7777 18.7222 51.989 17.7647C52.0914 17.3002 53.6524 10.0374 53.6915 8.33553C53.6921 8.31104 53.6971 6.24543 53.6878 6.16038Z" fill="url(#paint15_radial_59_30664)"/>
<path d="M38.6704 10.5111C46.5992 7.56051 50.9802 5.95895 52.4827 5.64736C53.7742 5.37957 53.6952 6.20397 53.6917 6.35021C53.6527 8.05205 52.0917 15.3147 51.9893 15.7792C51.461 18.1734 49.6664 16.7146 48.6191 16.1202C47.3139 15.3795 46.5766 14.9185 45.3097 14.1957C43.8453 13.3603 44.7977 12.9053 45.6361 12.1601C45.8115 12.0042 48.2808 10.0779 49.3035 9.17302C50.0033 8.5537 49.9215 8.14568 48.6412 8.85326C47.6997 9.37337 45.8482 10.431 43.0866 12.0259C42.4926 12.3748 41.9551 12.5445 41.4739 12.5344C40.9435 12.5232 39.9237 12.2724 39.1658 12.0585C39.1064 12.0418 35.9249 11.4433 38.6704 10.5111Z" fill="url(#paint16_linear_59_30664)"/>
<defs>
<radialGradient id="paint0_radial_59_30664" cx="0" cy="0" r="1" gradientUnits="userSpaceOnUse" gradientTransform="translate(46.7867 59.6058) scale(30.7762 30.7762)">
<stop stop-color="#F7DA6F"/>
<stop offset="0.4" stop-color="#DEAF4F"/>
<stop offset="0.8" stop-color="#C4852E"/>
<stop offset="0.9" stop-color="#DEAF4F"/>
<stop offset="1" stop-color="#F7DA6F"/>
</radialGradient>
<radialGradient id="paint1_radial_59_30664" cx="0" cy="0" r="1" gradientUnits="userSpaceOnUse" gradientTransform="translate(29.7208 56.6505) scale(14.7986 14.7986)">
<stop stop-color="white"/>
<stop offset="0.5" stop-color="white" stop-opacity="0.5"/>
<stop offset="1" stop-color="white" stop-opacity="0"/>
</radialGradient>
<linearGradient id="paint2_linear_59_30664" x1="15.3263" y1="35.7231" x2="68.447" y2="41.1284" gradientUnits="userSpaceOnUse">
<stop stop-color="#955B1E"/>
<stop offset="0.33" stop-color="#BC8135"/>
<stop offset="0.48" stop-color="#E4A64C"/>
<stop offset="0.74" stop-color="#BC8135"/>
<stop offset="1" stop-color="#955B1E"/>
</linearGradient>
<radialGradient id="paint3_radial_59_30664" cx="0" cy="0" r="1" gradientUnits="userSpaceOnUse" gradientTransform="translate(42.2772 16.6574) scale(57.4491)">
<stop offset="0.44" stop-color="#B3B3B3"/>
<stop offset="0.7" stop-color="#969696"/>
<stop offset="0.92" stop-color="#797979"/>
</radialGradient>
<radialGradient id="paint4_radial_59_30664" cx="0" cy="0" r="1" gradientUnits="userSpaceOnUse" gradientTransform="translate(17.9205 13.383) scale(27.3565 27.3565)">
<stop stop-color="white"/>
<stop offset="0.25" stop-color="#E5E5E5"/>
<stop offset="0.55" stop-color="#CBCBCB"/>
<stop offset="0.7" stop-color="#BDBDBD" stop-opacity="0.5"/>
<stop offset="0.89" stop-color="#B0B0B0" stop-opacity="0"/>
</radialGradient>
<radialGradient id="paint5_radial_59_30664" cx="0" cy="0" r="1" gradientUnits="userSpaceOnUse" gradientTransform="translate(62.3482 60.5108) scale(11.4481)">
<stop stop-color="#D2D2D2"/>
<stop offset="0.5" stop-color="#D5D5D5" stop-opacity="0.5"/>
<stop offset="1" stop-color="#D8D8D8" stop-opacity="0"/>
</radialGradient>
<radialGradient id="paint6_radial_59_30664" cx="0" cy="0" r="1" gradientUnits="userSpaceOnUse" gradientTransform="translate(76.0477 13.3834) scale(27.3485)">
<stop stop-color="white"/>
<stop offset="0.25" stop-color="#E5E5E5"/>
<stop offset="0.55" stop-color="#CCCCCC"/>
<stop offset="0.7" stop-color="#BEBEBE" stop-opacity="0.5"/>
<stop offset="0.89" stop-color="#B0B0B0" stop-opacity="0"/>
</radialGradient>
<radialGradient id="paint7_radial_59_30664" cx="0" cy="0" r="1" gradientUnits="userSpaceOnUse" gradientTransform="translate(46.7842 10.651) scale(38.1359)">
<stop offset="0.44" stop-color="#DEDEDE"/>
<stop offset="0.7" stop-color="#CBCBCB"/>
<stop offset="0.92" stop-color="#B8B8B8"/>
</radialGradient>
<linearGradient id="paint8_linear_59_30664" x1="47.1289" y1="29.7301" x2="47.049" y2="2.27946" gradientUnits="userSpaceOnUse">
<stop stop-color="#4F4F4F"/>
<stop offset="0.69" stop-color="#737373"/>
<stop offset="1" stop-color="#979797"/>
</linearGradient>
<linearGradient id="paint9_linear_59_30664" x1="82.2368" y1="69.7262" x2="28.3363" y2="55.8976" gradientUnits="userSpaceOnUse">
<stop stop-color="#9E9E9E"/>
<stop offset="0.46" stop-color="#7D7D7D"/>
<stop offset="1" stop-color="#5C5C5C"/>
</linearGradient>
<linearGradient id="paint10_linear_59_30664" x1="46.96" y1="44.2085" x2="46.5779" y2="25.0458" gradientUnits="userSpaceOnUse">
<stop offset="0.01" stop-color="white" stop-opacity="0"/>
<stop offset="0.31" stop-color="white" stop-opacity="0.5"/>
<stop offset="1" stop-color="white"/>
</linearGradient>
<linearGradient id="paint11_linear_59_30664" x1="46.96" y1="44.2085" x2="46.5779" y2="25.0458" gradientUnits="userSpaceOnUse">
<stop stop-color="#C0C0C0"/>
<stop offset="0.69" stop-color="#C0C0C0"/>
<stop offset="1" stop-color="#C0C0C0"/>
</linearGradient>
<linearGradient id="paint12_linear_59_30664" x1="46.9601" y1="58.1923" x2="47.3909" y2="74.6054" gradientUnits="userSpaceOnUse">
<stop offset="0.01" stop-color="white" stop-opacity="0"/>
<stop offset="0.31" stop-color="white" stop-opacity="0.5"/>
<stop offset="1" stop-color="white"/>
</linearGradient>
<linearGradient id="paint13_linear_59_30664" x1="46.9601" y1="58.1923" x2="47.3909" y2="74.6054" gradientUnits="userSpaceOnUse">
<stop stop-color="#D1D1D1"/>
<stop offset="0.69" stop-color="#D1D1D1"/>
<stop offset="1" stop-color="#D1D1D1"/>
</linearGradient>
<linearGradient id="paint14_linear_59_30664" x1="53.8733" y1="22.0259" x2="43.122" y2="6.35946" gradientUnits="userSpaceOnUse">
<stop stop-color="white"/>
<stop offset="0.24" stop-color="#E5E5E5"/>
<stop offset="0.49" stop-color="#CBCBCB"/>
<stop offset="0.69" stop-color="#A8A8A8"/>
<stop offset="0.9" stop-color="#848484"/>
</linearGradient>
<radialGradient id="paint15_radial_59_30664" cx="0" cy="0" r="1" gradientUnits="userSpaceOnUse" gradientTransform="translate(46.1424 9.78547) scale(9.39911)">
<stop offset="0.44" stop-color="#7E7E7E"/>
<stop offset="0.7" stop-color="#737373"/>
<stop offset="0.92" stop-color="#686868"/>
</radialGradient>
<linearGradient id="paint16_linear_59_30664" x1="43.2988" y1="5.17771" x2="50.477" y2="20.8211" gradientUnits="userSpaceOnUse">
<stop offset="0.27" stop-color="white"/>
<stop offset="0.44" stop-color="#E5E5E5"/>
<stop offset="0.61" stop-color="#CBCBCB"/>
<stop offset="0.81" stop-color="#9A9A9A"/>
<stop offset="1" stop-color="#686868"/>
</linearGradient>
</defs>
</svg>
