<svg width="115" height="123" viewBox="0 0 115 123" fill="none" xmlns="http://www.w3.org/2000/svg">
<path d="M69.8425 44.0724C70.1606 31.4544 67.9508 0.231301 54.2138 1.01447C40.298 1.80784 39.2256 25.9543 38.9826 44.6751L42.2641 44.0943C42.4767 39.5532 40.234 5.02465 54.0306 4.51706C66.5052 4.05801 66.7233 35.6911 66.5065 42.4919" fill="#0D855A"/>
<path d="M69.8425 44.0724C70.1606 31.4544 67.9508 0.231301 54.2138 1.01447C40.298 1.80784 39.2256 25.9543 38.9826 44.6751L42.2641 44.0943C42.4767 39.5532 40.234 5.02465 54.0306 4.51706C66.5052 4.05801 66.7233 35.6911 66.5064 42.4919" stroke="#00631F" stroke-width="1.49364" stroke-linecap="round" stroke-linejoin="round"/>
<path d="M112.058 102.848C113.157 106.394 111.03 107.49 87.7172 111.365C72.0461 113.969 38.7284 119.999 28.1958 121.774C17.6631 123.55 11.1722 114.977 6.94696 111.303C2.72169 107.629 2.72144 105.118 3.82375 98.9947C3.82375 98.9947 1.31319 96.6678 1.00699 89.9318C0.700794 83.1957 10.5486 56.2339 11.1722 45.5357C11.4747 40.3498 15.1886 40.5228 22.9357 38.6727C30.6827 36.8226 84.7346 33.1375 92.977 37.0469" fill="url(#paint0_linear_59_33949)"/>
<path d="M112.058 102.848C113.157 106.394 111.03 107.49 87.7172 111.365C72.0461 113.969 38.7284 119.999 28.1958 121.774C17.6631 123.55 11.1722 114.977 6.94696 111.303C2.72169 107.629 2.72144 105.118 3.82375 98.9947C3.82375 98.9947 1.31319 96.6678 1.00699 89.9318C0.700794 83.1957 10.5486 56.2339 11.1722 45.5357C11.4747 40.3498 15.1886 40.5228 22.9357 38.6727C30.6827 36.8226 84.7346 33.1375 92.977 37.0469" stroke="#0A8F5E" stroke-width="1.49364" stroke-linecap="round" stroke-linejoin="round"/>
<path d="M112.058 102.847C113.157 106.393 111.03 107.489 87.7172 111.364C72.0461 113.969 38.7285 119.998 28.1958 121.774C17.6631 123.55 11.1722 114.977 6.94698 111.303C2.72172 107.629 2.72147 105.118 3.82378 98.9941C3.82378 98.9941 1.31321 96.6672 1.00702 89.9312" stroke="#005F2F" stroke-width="1.49364" stroke-linecap="round" stroke-linejoin="round"/>
<path d="M15.574 52.875C14.5424 71.5346 12.1446 86.1215 5.30094 91.8222C1.73338 94.7941 7.95092 98.6566 11.1037 96.3355C14.2566 94.0144 13.038 100.854 18.0669 100.784C21.9015 100.731 22.2792 90.3507 15.574 52.875Z" fill="url(#paint1_linear_59_33949)"/>
<path d="M13.2091 46.1748C11.6617 59.0697 4.26965 77.6376 3.19498 83.0533C2.12031 88.469 7.19222 90.2746 8.58927 83.9991C9.98632 77.7235 16.046 51.9774 13.2091 46.1748Z" fill="url(#paint2_linear_59_33949)"/>
<path d="M20.5814 118.467C17.2287 106.973 5.75277 100.742 4.22901 99.043C3.39879 101.626 -0.179224 107.654 20.5814 118.467Z" fill="url(#paint3_linear_59_33949)"/>
<path d="M12.4328 39.6723C42.3069 33.0696 69.8706 30.5001 94.0995 34.4811C94.1853 36.0402 94.1836 36.5891 94.2346 37.2419C95.8545 37.8331 98.1679 39.1769 98.3056 40.2493C98.6518 42.9453 15.6638 49.9505 14.7062 46.0068C14.4383 44.904 13.4428 43.2829 12.0674 42.3865C12.1749 41.8 12.384 40.7537 12.4328 39.6723Z" fill="url(#paint4_linear_59_33949)"/>
<path d="M12.4328 39.6723C42.3069 33.0696 69.8706 30.5001 94.0995 34.4811C94.1853 36.0402 94.1836 36.5891 94.2346 37.2419C95.8545 37.8331 98.1679 39.1769 98.3056 40.2493C98.6518 42.9453 15.6638 49.9505 14.7062 46.0068C14.4383 44.904 13.4428 43.2829 12.0674 42.3865C12.1749 41.8 12.384 40.7537 12.4328 39.6723Z" stroke="#1E6A00" stroke-width="1.49364" stroke-linecap="round" stroke-linejoin="round"/>
<path d="M14.7851 45.8468C16.9145 54.2801 19.6837 84.6349 21.8884 91.3894C24.093 98.1439 21.97 115.834 24.2563 117.603C26.5425 119.372 53.1598 114.548 79.3687 110.286C105.578 106.024 112.763 104.577 113.579 101.441C114.396 98.3048 113.171 87.1278 111.456 81.3382C109.742 75.5486 99.6056 51.0775 98.3927 40.168C87.7276 41.7871 28.1064 46.5792 14.7851 45.8468Z" fill="url(#paint5_radial_59_33949)"/>
<path d="M14.7851 45.8468C16.9145 54.2801 19.6837 84.6349 21.8884 91.3894C24.093 98.1439 21.97 115.834 24.2563 117.603C26.5425 119.372 53.1598 114.548 79.3687 110.286C105.578 106.024 112.763 104.577 113.579 101.441C114.396 98.3048 113.171 87.1278 111.456 81.3382C109.742 75.5486 99.6056 51.0775 98.3927 40.168C87.7276 41.7871 28.1064 46.5792 14.7851 45.8468Z" stroke="#269970" stroke-width="1.49364" stroke-linecap="round" stroke-linejoin="round"/>
<path d="M21.8884 91.3959C24.093 98.1504 21.97 115.841 24.2563 117.61C26.5426 119.379 53.1598 114.554 79.3687 110.293C105.578 106.031 112.763 104.583 113.579 101.447C114.396 98.3113 113.171 87.1343 111.456 81.3447" stroke="#057C58" stroke-width="1.49364" stroke-linecap="round" stroke-linejoin="round"/>
<path d="M15.7781 47.3028C25.7608 49.5428 77.8556 45.5841 97.7726 41.5767C97.9339 42.9306 98.8492 47.6301 99.4004 48.7656C98.6267 49.5069 97.6693 50.9221 96.1689 51.9744C96.7813 55.1036 97.4243 57.717 97.3937 58.0856C97.3631 58.4543 96.0193 60.3386 95.6212 60.5325C95.2232 60.7264 82.3908 61.8051 81.8703 61.5282C81.3497 61.2514 78.8392 59.2298 78.3492 58.7867C77.8593 58.3435 76.2977 58.4172 76.2569 58.7496C76.2161 59.0819 73.7869 62.3311 73.4043 62.4834C73.0217 62.6358 55.1 64.5466 54.3549 64.3159C53.6098 64.0851 50.1346 61.5974 49.6601 61.0159C49.1856 60.4344 46.9964 60.9743 46.9964 61.4175C46.9964 61.8606 45.1286 64.9711 44.8327 65.1742C44.5367 65.3774 27.8699 67.2758 27.2575 67.0726C26.6451 66.8695 22.6431 62.2171 22.3573 61.9402C22.0715 61.6634 22.4509 56.8297 22.0835 56.4974C21.7161 56.1651 17.3372 53.1392 16.7452 52.7145C16.5197 51.3822 15.9956 48.4994 15.7781 47.3028Z" fill="#006A45" fill-opacity="0.44"/>
<path d="M17.5468 56.6465C18.7432 64.7565 21.2904 87.8566 22.4509 91.2738C23.6115 94.691 23.7965 99.9606 23.7728 105.813C26.126 96.1416 23.2884 91.5352 22.2361 82.7526C20.1659 65.4749 19.3521 61.0871 17.5468 56.6465Z" fill="#75FCBD"/>
<path d="M71.0003 53.158L76.2121 58.5617L79.7511 52.4759L75.0503 41.002L71.7837 41.2576L71.0003 53.158Z" fill="#47DD92"/>
<path d="M71.0003 53.158L76.2121 58.5617L79.7511 52.4759L75.0503 41.002L71.7837 41.2576L71.0003 53.158Z" stroke="#017B54" stroke-width="1.49364" stroke-linecap="round" stroke-linejoin="round"/>
<path d="M44.1551 43.8405L43.2134 56.1324L48.8452 61.6731L52.9395 54.9878L47.8213 43.3252" fill="#47DD92"/>
<path d="M44.1551 43.8405L43.2134 56.1324L48.8452 61.6731L52.9395 54.9878L47.8213 43.3252" stroke="#017B54" stroke-width="1.49364" stroke-linecap="round" stroke-linejoin="round"/>
<path d="M12.6922 39.4382C38.2278 31.1714 83.4814 29.5179 100.076 34.2944C100.995 35.7029 101.974 38.1828 102.526 39.4382C100.872 40.6018 99.4171 42.7043 97.9167 43.8679C98.5291 47.3276 98.8926 51.7919 98.8619 52.1996C98.8313 52.6074 97.0681 57.4122 96.67 57.6265C96.272 57.8409 82.9636 58.7455 82.4431 58.4393C81.9225 58.1331 78.0971 53.7538 77.6072 53.2639C77.1172 52.774 76.3166 44.0615 76.5616 43.6022C76.8066 43.1429 77.1897 41.9072 76.3931 40.4026C75.1531 38.0603 70.9278 38.6115 71.7085 41.3058C72.2355 43.1245 74.2193 43.7402 74.2806 44.0922C74.3418 44.4442 75.6923 53.0037 75.6515 53.3712C75.6107 53.7386 73.4125 59.2382 73.0299 59.4065C72.6473 59.5748 55.3999 61.1125 54.6549 60.8573C53.9098 60.6021 50.0355 56.937 49.561 56.294C49.0866 55.651 48.3318 47.6744 48.5155 47.2457C48.6992 46.8171 50.0617 45.1638 48.7298 42.8674C47.398 40.5709 43.1879 40.6782 43.4217 44.1522C43.5372 45.8703 45.1491 46.7386 46.1441 47.3356C46.3584 48.1471 47.5984 55.7475 47.5984 56.2375C47.5984 56.7274 44.5688 62.2929 44.2728 62.5175C43.9768 62.742 28.3814 64.7283 27.769 64.5038C27.1566 64.2792 22.6389 59.1792 22.3531 58.873C22.0673 58.5668 21.2162 49.6124 20.8488 49.245C20.4813 48.8775 15.6113 45.7045 15.0193 45.235C14.4273 44.7655 12.2227 40.3976 12.6922 39.4382Z" fill="url(#paint6_linear_59_33949)"/>
<path d="M12.6922 39.4382C38.2278 31.1714 83.4814 29.5179 100.076 34.2944C100.995 35.7029 101.974 38.1828 102.526 39.4382C100.872 40.6018 99.4171 42.7043 97.9167 43.8679C98.5291 47.3276 98.8926 51.7919 98.8619 52.1996C98.8313 52.6074 97.0681 57.4122 96.67 57.6265C96.272 57.8409 82.9636 58.7455 82.4431 58.4393C81.9225 58.1331 78.0971 53.7538 77.6072 53.2639C77.1172 52.774 76.3166 44.0615 76.5616 43.6022C76.8066 43.1429 77.1897 41.9072 76.3931 40.4026C75.1531 38.0603 70.9278 38.6115 71.7085 41.3058C72.2355 43.1245 74.2193 43.7402 74.2806 44.0922C74.3418 44.4442 75.6923 53.0037 75.6515 53.3712C75.6107 53.7386 73.4125 59.2382 73.0299 59.4065C72.6473 59.5748 55.3999 61.1125 54.6549 60.8573C53.9098 60.6021 50.0355 56.937 49.561 56.294C49.0866 55.651 48.3318 47.6744 48.5155 47.2457C48.6992 46.8171 50.0617 45.1638 48.7298 42.8674C47.398 40.5709 43.1879 40.6782 43.4217 44.1522C43.5372 45.8703 45.1491 46.7386 46.1441 47.3356C46.3584 48.1471 47.5984 55.7475 47.5984 56.2375C47.5984 56.7274 44.5688 62.2929 44.2728 62.5175C43.9768 62.742 28.3814 64.7283 27.769 64.5038C27.1567 64.2792 22.6389 59.1792 22.3531 58.873C22.0673 58.5668 21.2162 49.6124 20.8488 49.245C20.4813 48.8775 15.6113 45.7045 15.0193 45.235C14.4273 44.7655 12.2227 40.3976 12.6922 39.4382Z" stroke="#279A71" stroke-width="1.49364" stroke-linecap="round" stroke-linejoin="round"/>
<path d="M20.8443 49.2443C20.4768 48.8769 15.6066 45.7039 15.0146 45.2344" stroke="#006A43" stroke-width="1.49364" stroke-linecap="round" stroke-linejoin="round"/>
<path d="M48.7251 42.8667C47.3933 40.5702 43.1832 40.6775 43.417 44.1515C43.5325 45.8697 45.1444 46.738 46.1394 47.3349C46.3537 48.1465 47.5937 55.7471 47.5937 56.237C47.5937 56.727 44.5641 62.2923 44.2681 62.5168C43.9721 62.7413 28.3767 64.7276 27.7643 64.5031C27.1519 64.2786 22.6342 59.1785 22.3484 58.8723" stroke="#006A43" stroke-width="1.49364" stroke-linecap="round" stroke-linejoin="round"/>
<path d="M76.3883 40.402C75.1483 38.0597 70.9231 38.6109 71.7037 41.3052C72.2308 43.1239 74.2146 43.7393 74.2758 44.0913C74.337 44.4433 75.6875 53.0031 75.6467 53.3706C75.6059 53.738 73.4077 59.2376 73.0251 59.4059C72.6425 59.5741 55.3952 61.1116 54.6501 60.8564C53.905 60.6013 50.031 56.9364 49.5565 56.2934" stroke="#006A43" stroke-width="1.49364" stroke-linecap="round" stroke-linejoin="round"/>
<path d="M102.521 39.4375C100.867 40.601 99.4123 42.7036 97.912 43.8671C98.5244 47.3269 98.8878 51.7912 98.8572 52.1989C98.8266 52.6067 97.0633 57.4115 96.6653 57.6258C96.2672 57.8402 82.9586 58.7451 82.4381 58.4389C81.9175 58.1327 78.0923 53.7531 77.6024 53.2632" stroke="#006A43" stroke-width="1.49364" stroke-linecap="round" stroke-linejoin="round"/>
<g opacity="0.5">
<path d="M60.5296 80.6511C59.9863 74.1578 55.0961 71.2916 50.4468 71.6468C49.1462 63.8194 46.9641 47.7183 46.5815 46.0503C46.1493 44.1651 44.5992 43.5015 42.4857 41.2077C42.4857 41.2077 44.7218 59.6828 49.7622 71.7232C49.2938 71.7914 48.8306 71.8928 48.3766 72.0264C43.6538 62.1754 40.7274 51.6433 37.7971 41.0434C36.611 45.3829 38.3271 60.0889 47.2552 72.4323C43.9323 73.872 41.4064 77.1946 41.8266 82.2161C42.1558 86.1493 44.2551 88.744 46.9371 90.0425C47.2756 96.8752 49.7015 102.04 51.914 101.628C54.1948 101.668 55.4435 96.716 54.7866 90.4041C58.2637 89.1199 60.9643 85.8439 60.5296 80.6511ZM52.0641 99.7218C50.901 98.8196 49.4455 96.8782 49.1462 90.7966C50.3097 91.0449 51.516 91.0874 52.6908 90.9261C53.3912 97.1865 53.5142 99.3177 52.0641 99.7218Z" fill="url(#paint7_linear_59_33949)"/>
</g>
<path d="M43.4916 39.7678C39.3045 46.4554 41.9618 62.4475 53.3842 76.0085C47.6913 64.5286 42.8383 54.7147 43.4916 39.7678Z" fill="#48DC91"/>
<path d="M43.4916 39.7678C39.3045 46.4554 41.9618 62.4475 53.3842 76.0085C47.6913 64.5286 42.8383 54.7147 43.4916 39.7678Z" stroke="#007A52" stroke-width="0.995762" stroke-linecap="round" stroke-linejoin="round"/>
<path d="M52.0124 75.0528C46.0331 86.9403 49.6385 101.565 53.323 100.82C51.1642 100.401 50.0516 91.3327 52.0124 75.0528Z" fill="#48DC91"/>
<path d="M52.0124 75.0528C46.0331 86.9403 49.6385 101.565 53.323 100.82C51.1642 100.401 50.0516 91.3327 52.0124 75.0528Z" stroke="#007A52" stroke-width="0.995762" stroke-linecap="round" stroke-linejoin="round"/>
<path d="M52.4124 74.7343C59.1909 86.8226 56.9603 103.073 52.4299 100.581C55.2804 101.124 55.504 90.8377 52.4124 74.7343Z" fill="#48DC91"/>
<path d="M52.4124 74.7343C59.1909 86.8226 56.9603 103.073 52.4299 100.581C55.2804 101.124 55.504 90.8377 52.4124 74.7343Z" stroke="#007A52" stroke-width="0.995762" stroke-linecap="round" stroke-linejoin="round"/>
<path d="M47.6876 40.0552C50.3805 40.8728 51.0471 44.0641 51.3874 45.9682C51.7276 47.8723 52.6898 67.4014 53.5573 73.4243C49.6325 62.3378 50.0855 43.1249 47.6876 40.0552Z" fill="#48DC91"/>
<path d="M47.6876 40.0552C50.3805 40.8728 51.0471 44.0641 51.3874 45.9682C51.7276 47.8723 52.6898 67.4014 53.5573 73.4243C49.6325 62.3378 50.0855 43.1249 47.6876 40.0552Z" stroke="#007A52" stroke-width="0.995762" stroke-linecap="round" stroke-linejoin="round"/>
<path d="M44.1028 80.9536C44.5387 93.4351 63.3171 93.4041 62.8595 80.2986C62.4018 67.1932 43.647 67.9002 44.1028 80.9536Z" fill="#47DD92"/>
<path d="M44.1028 80.9536C44.5387 93.4351 63.3171 93.4041 62.8595 80.2986C62.4018 67.1932 43.647 67.9002 44.1028 80.9536Z" stroke="#017B54" stroke-width="1.49364" stroke-linecap="round" stroke-linejoin="round"/>
<path d="M52.3551 73.8875C52.5507 73.3062 53.4048 73.2052 53.7285 73.7162L55.9472 76.9746L59.7084 76.9364C60.3772 76.9093 60.7746 77.7257 60.346 78.2256L57.9199 81.218L58.8183 84.7304C59.0104 85.402 58.2713 86.0436 57.6108 85.7767L54.3642 84.5507L51.4075 86.5281C50.8791 86.9028 50.1043 86.486 50.1371 85.8618C50.1496 84.7014 50.0291 83.0773 51.24 82.3858L54.1908 80.4198C54.3505 80.3201 54.233 80.0652 54.051 80.1196L50.2727 81.1505C49.1944 81.5436 48.0177 80.5517 47.168 80.0665C46.5356 79.7097 46.6968 78.7052 47.4158 78.5389L50.9794 77.6196L52.3551 73.8875Z" fill="#40B78D"/>
<path d="M45.3877 85.6856C49.6925 93.1378 63.2489 91.458 62.8593 80.2991" stroke="#005F30" stroke-width="1.49364" stroke-linecap="round" stroke-linejoin="round"/>
<path d="M75.4444 42.2852C73.7849 27.527 67.717 1.91974 55.5272 2.60732C42.4854 3.34294 42.7612 27.4847 44.2327 44.8438C45.053 44.7818 47.2101 44.4876 47.8817 44.2192C47.6696 40.0084 43.1633 6.36034 56.1266 6.36034C66.3747 6.36034 71.3441 35.874 71.7576 42.1801" fill="#47DD92"/>
<path d="M75.4444 42.2852C73.7849 27.527 67.717 1.91974 55.5272 2.60732C42.4854 3.34294 42.7612 27.4847 44.2327 44.8438C45.053 44.7818 47.2101 44.4876 47.8817 44.2192C47.6696 40.0084 43.1633 6.36034 56.1266 6.36034C66.3747 6.36034 71.3441 35.874 71.7576 42.1801" stroke="#279A71" stroke-width="1.49364" stroke-linecap="round" stroke-linejoin="round"/>
<path d="M44.8934 43.9533C44.8934 43.9533 44.8314 44.9844 44.77 45.4994C45.584 45.6928 47.0751 45.2574 47.7279 44.9916C47.1857 43.5958 47.2021 43.2176 46.8451 42.9234C46.4881 42.6291 45.0986 42.4586 44.8934 43.9533Z" fill="#47DD92"/>
<path d="M47.8815 44.1572C47.6694 39.9464 43.1633 6.29834 56.1266 6.29834C66.3748 6.29834 71.3287 35.7654 71.7422 42.0716" stroke="#006A43" stroke-width="1.49364" stroke-linecap="round" stroke-linejoin="round"/>
<path d="M60.7216 4.65655C51.7667 -0.352624 42.0152 7.17484 44.5368 39.2695C44.6582 21.4247 45.6234 -0.640649 60.7216 4.65655Z" fill="#90FFCD"/>
<path d="M98.2051 43.8218C98.5434 45.7048 99.1879 48.5673 99.1879 48.5673C91.8924 49.4901 80.0349 48.9022 71.952 49.3682C71.795 49.3771 72.1066 50.6139 71.9523 50.6238C70.3006 50.7296 61.2924 51.7687 60.0572 51.9932L58.1757 50.571L57.6395 46.8957L59.037 45.0787C60.1727 44.9674 69.7666 44.1671 70.9817 44.0996C71.1515 44.0901 71.0103 44.7025 71.1813 44.6938C79.473 44.2721 88.4852 44.7653 98.2051 43.8218Z" fill="#5E2800" fill-opacity="0.33"/>
<path d="M98.2538 43.8218C98.5752 45.7048 99.1879 48.5673 99.1879 48.5673C90.6761 49.7003 75.6299 48.5559 68.7088 49.8805L67.8582 45.0941C76.3939 44.2136 87.461 44.9241 98.2538 43.8218Z" fill="url(#paint8_linear_59_33949)"/>
<path d="M98.2538 43.8218C98.5752 45.7048 99.1879 48.5673 99.1879 48.5673C90.6761 49.7003 75.6299 48.5559 68.7088 49.8805L67.8582 45.0941C76.3939 44.2136 87.461 44.9241 98.2538 43.8218Z" stroke="#279A71" stroke-width="1.49364" stroke-linecap="round" stroke-linejoin="round"/>
<path d="M99.1881 48.5674C90.6764 49.7003 75.6299 48.5562 68.7089 49.8808" stroke="#119162" stroke-width="1.49364" stroke-linecap="round" stroke-linejoin="round"/>
<path d="M57.4191 46.8954L57.8637 50.6492L59.9265 52.0497L72.1539 50.6031L71.0994 44L58.803 44.9333L57.4191 46.8954Z" fill="url(#paint9_linear_59_33949)"/>
<path d="M57.4191 46.8954L57.8637 50.6492L59.9265 52.0497L72.1539 50.6031L71.0994 44L58.803 44.9333L57.4191 46.8954Z" stroke="#705F09" stroke-width="0.995762" stroke-linecap="round" stroke-linejoin="round"/>
<path d="M18.7968 49.953L19.6539 55.7458C27.5532 55.9714 41.1307 52.3035 53.3447 51.3085C53.5837 51.289 53.445 52.1621 53.6848 52.1447C55.6133 52.0042 63.266 51.1932 65.2291 51.2119L66.4342 49.3558L66.1606 46.2226L64.246 44.2306C62.7537 44.1813 55.1316 45.0277 53.6596 45.0952C53.3805 45.1079 53.7948 45.7374 53.5162 45.7539C43.0632 46.3687 30.6271 49.5333 18.7968 49.953Z" fill="#391E00" fill-opacity="0.33"/>
<path d="M18.7968 49.953L19.6539 55.7458C28.9515 56.0112 42.9293 51.011 57.6056 51.1504L56.4968 45.7678C44.1068 45.3595 32.6055 49.463 18.7968 49.953Z" fill="url(#paint10_linear_59_33949)"/>
<path d="M18.7968 49.953L19.6539 55.7458C28.9515 56.0112 42.9293 51.011 57.6056 51.1504L56.4968 45.7678C44.1068 45.3595 32.6055 49.463 18.7968 49.953Z" stroke="#279A71" stroke-width="1.49364" stroke-linecap="round" stroke-linejoin="round"/>
<path d="M19.6539 55.7458C28.9515 56.0111 42.9295 51.0109 57.6058 51.1503" stroke="#119162" stroke-width="1.49364" stroke-linecap="round" stroke-linejoin="round"/>
<path d="M53.33 44.9926L54.1732 52.4469L65.3972 51.3266L66.7374 48.5962L66.3877 45.7827L64.8146 44.1362L53.33 44.9926Z" fill="url(#paint11_linear_59_33949)"/>
<path d="M53.33 44.9926L54.1732 52.4469L65.3972 51.3266L66.7374 48.5962L66.3877 45.7827L64.8146 44.1362L53.33 44.9926Z" stroke="#705F09" stroke-width="0.995762" stroke-linecap="round" stroke-linejoin="round"/>
<path d="M58.7064 47.8777L64.2722 47.3828" stroke="#593E3E" stroke-width="1.49364" stroke-linecap="round" stroke-linejoin="round"/>
<path d="M58.3118 51.6192L59.8398 60.3012L69.5614 59.2968L70.472 57.9717L59.2351 50.2993L58.3118 51.6192Z" fill="#8B7A00"/>
<path d="M58.3118 51.6192L59.8398 60.3012L69.5614 59.2968L70.472 57.9717L59.2351 50.2993L58.3118 51.6192Z" stroke="#695800" stroke-width="0.995762" stroke-linecap="round" stroke-linejoin="round"/>
<path d="M60.6749 50.5387L60.3543 48.1581C59.6762 44.2838 65.2248 43.8205 66.0493 47.4289L67.3251 54.0378" stroke="#998710" stroke-width="2.24046" stroke-linecap="round" stroke-linejoin="round"/>
<path d="M60.2186 50.1363L59.898 47.7557C59.2199 43.8815 64.7685 43.4182 65.593 47.0266L66.8688 53.6354" stroke="white" stroke-width="0.497881" stroke-linecap="round" stroke-linejoin="round"/>
<path d="M59.2224 50.226L60.7504 58.9081L70.472 57.9036L68.7031 49.3926L59.2224 50.226Z" fill="url(#paint12_linear_59_33949)"/>
<path d="M59.2224 50.226L60.7504 58.9081L70.472 57.9036L68.7031 49.3926L59.2224 50.226Z" stroke="#71600A" stroke-width="0.995762" stroke-linecap="round" stroke-linejoin="round"/>
<path d="M61.3571 58.2341L60.1248 50.9543L68.183 50.1973" stroke="white" stroke-width="0.497881" stroke-linecap="round" stroke-linejoin="round"/>
<path d="M62.494 47.7323C62.9672 50.6272 64.8295 50.4094 64.2983 47.2207C63.8002 44.2314 61.9759 44.563 62.494 47.7323Z" fill="#FFF49E"/>
<path d="M62.494 47.7323C62.9672 50.6272 64.8295 50.4094 64.2983 47.2207C63.8002 44.2314 61.9759 44.563 62.494 47.7323Z" stroke="#705F09" stroke-width="0.995762" stroke-linecap="round" stroke-linejoin="round"/>
<path d="M63.5395 46.2536C63.0822 45.3104 62.6779 46.0572 62.8763 47.8013" stroke="white" stroke-width="0.497881" stroke-linecap="round" stroke-linejoin="round"/>
<path d="M86.3115 51.2924L85.4138 42.001L87.8186 42.0326L88.6899 51.1612L86.3115 51.2924Z" fill="url(#paint13_linear_59_33949)"/>
<path d="M86.3115 51.2924L85.4138 42.001L87.8186 42.0326L88.6899 51.1612L86.3115 51.2924Z" stroke="#6F5F08" stroke-width="0.995762" stroke-linecap="round" stroke-linejoin="round"/>
<path d="M85.4451 42.001L84.0657 42.4901L84.6878 49.449L83.8857 49.6173L84.0809 51.2924H86.3114L85.4451 42.001Z" fill="url(#paint14_linear_59_33949)"/>
<path d="M85.4451 42.001L84.0657 42.4901L84.6878 49.449L83.8857 49.6173L84.0809 51.2924H86.3114L85.4451 42.001Z" stroke="#6F5F08" stroke-width="0.995762" stroke-linecap="round" stroke-linejoin="round"/>
<path d="M33.0272 56.1329L31.4773 46.5873L34.4601 46.2241L35.9821 55.5803L33.0272 56.1329Z" fill="url(#paint15_linear_59_33949)"/>
<path d="M33.0272 56.1329L31.4773 46.5873L34.4601 46.2241L35.9821 55.5803L33.0272 56.1329Z" stroke="#6F5F08" stroke-width="0.995762" stroke-linecap="round" stroke-linejoin="round"/>
<path d="M31.3743 46.6318L31.0009 47.0458L32.434 55.9644L33.0272 56.1324L31.3743 46.6318Z" fill="url(#paint16_linear_59_33949)"/>
<path d="M31.3743 46.6318L31.0009 47.0458L32.434 55.9644L33.0272 56.1324L31.3743 46.6318Z" stroke="#6F5F08" stroke-width="0.995762" stroke-linecap="round" stroke-linejoin="round"/>
<defs>
<linearGradient id="paint0_linear_59_33949" x1="4.39482" y1="72.4604" x2="24.9406" y2="74.9533" gradientUnits="userSpaceOnUse">
<stop stop-color="#66D8A6"/>
<stop offset="0.5" stop-color="#36B68B"/>
<stop offset="1" stop-color="#069370"/>
</linearGradient>
<linearGradient id="paint1_linear_59_33949" x1="14.1035" y1="56.7769" x2="12.171" y2="97.9407" gradientUnits="userSpaceOnUse">
<stop stop-color="#348768" stop-opacity="0.62"/>
<stop offset="0.5" stop-color="#35876B" stop-opacity="0.31"/>
<stop offset="1" stop-color="#35886D" stop-opacity="0"/>
</linearGradient>
<linearGradient id="paint2_linear_59_33949" x1="9.37368" y1="49.3082" x2="7.66919" y2="85.6157" gradientUnits="userSpaceOnUse">
<stop stop-color="#348768" stop-opacity="0.62"/>
<stop offset="0.5" stop-color="#35876B" stop-opacity="0.31"/>
<stop offset="1" stop-color="#35886D" stop-opacity="0"/>
</linearGradient>
<linearGradient id="paint3_linear_59_33949" x1="24.559" y1="107.062" x2="6.89317" y2="109.319" gradientUnits="userSpaceOnUse">
<stop stop-color="#348768" stop-opacity="0.62"/>
<stop offset="0.5" stop-color="#35876B" stop-opacity="0.31"/>
<stop offset="1" stop-color="#35886D" stop-opacity="0"/>
</linearGradient>
<linearGradient id="paint4_linear_59_33949" x1="62.8958" y1="66.7341" x2="47.4737" y2="15.6052" gradientUnits="userSpaceOnUse">
<stop stop-color="#003524"/>
<stop offset="0.5" stop-color="#24765B"/>
<stop offset="1" stop-color="#48B692"/>
</linearGradient>
<radialGradient id="paint5_radial_59_33949" cx="0" cy="0" r="1" gradientUnits="userSpaceOnUse" gradientTransform="translate(29.0399 -123.945) scale(227.046 227.046)">
<stop stop-color="#6CAC70"/>
<stop offset="0.44" stop-color="#59C581"/>
<stop offset="0.89" stop-color="#46DE92"/>
<stop offset="0.93" stop-color="#59DA9E"/>
<stop offset="0.97" stop-color="#6CD7AA"/>
<stop offset="0.99" stop-color="#68C8A2"/>
<stop offset="1" stop-color="#64BA9A"/>
</radialGradient>
<linearGradient id="paint6_linear_59_33949" x1="58.9175" y1="52.5447" x2="56.3442" y2="30.9583" gradientUnits="userSpaceOnUse">
<stop stop-color="#46DE92"/>
<stop offset="0.5" stop-color="#55CC96"/>
<stop offset="1" stop-color="#64BA9A"/>
</linearGradient>
<linearGradient id="paint7_linear_59_33949" x1="49.5753" y1="73.0963" x2="45.0721" y2="49.448" gradientUnits="userSpaceOnUse">
<stop stop-opacity="0.33"/>
<stop offset="0.5" stop-opacity="0.165"/>
<stop offset="1" stop-opacity="0"/>
</linearGradient>
<linearGradient id="paint8_linear_59_33949" x1="97.3392" y1="47.598" x2="72.1963" y2="46.9134" gradientUnits="userSpaceOnUse">
<stop stop-color="#47DD92"/>
<stop offset="0.5" stop-color="#56CF98"/>
<stop offset="1" stop-color="#66C19E"/>
</linearGradient>
<linearGradient id="paint9_linear_59_33949" x1="68.0302" y1="45.0453" x2="71.1893" y2="50.8954" gradientUnits="userSpaceOnUse">
<stop stop-color="#FFF9D5"/>
<stop offset="0.07" stop-color="#D4C870"/>
<stop offset="0.15" stop-color="#AA960C"/>
<stop offset="0.57" stop-color="#D4C555"/>
<stop offset="1" stop-color="#FFF49E"/>
</linearGradient>
<linearGradient id="paint10_linear_59_33949" x1="21.6466" y1="54.1083" x2="54.6312" y2="49.5651" gradientUnits="userSpaceOnUse">
<stop stop-color="#47DD92"/>
<stop offset="0.5" stop-color="#56CF98"/>
<stop offset="1" stop-color="#66C19E"/>
</linearGradient>
<linearGradient id="paint11_linear_59_33949" x1="58.8403" y1="46.0531" x2="60.6753" y2="51.0824" gradientUnits="userSpaceOnUse">
<stop stop-color="#FFF9D5"/>
<stop offset="0.07" stop-color="#D4C870"/>
<stop offset="0.15" stop-color="#AA960C"/>
<stop offset="0.57" stop-color="#D4C555"/>
<stop offset="1" stop-color="#FFF49E"/>
</linearGradient>
<linearGradient id="paint12_linear_59_33949" x1="63.9948" y1="53.2698" x2="66.5637" y2="57.1092" gradientUnits="userSpaceOnUse">
<stop stop-color="#FFF9D5"/>
<stop offset="0.07" stop-color="#D4C870"/>
<stop offset="0.15" stop-color="#AA960C"/>
<stop offset="0.57" stop-color="#D4C555"/>
<stop offset="1" stop-color="#FFF49E"/>
</linearGradient>
<linearGradient id="paint13_linear_59_33949" x1="88.0389" y1="48.3129" x2="84.8151" y2="42.5962" gradientUnits="userSpaceOnUse">
<stop stop-color="#FFF49E"/>
<stop offset="0.07" stop-color="#D3C24F"/>
<stop offset="0.14" stop-color="#A69100"/>
<stop offset="0.57" stop-color="#D3C880"/>
<stop offset="1" stop-color="white"/>
</linearGradient>
<linearGradient id="paint14_linear_59_33949" x1="85.1919" y1="53.088" x2="83.7294" y2="41.419" gradientUnits="userSpaceOnUse">
<stop stop-color="#FFF49E"/>
<stop offset="0.07" stop-color="#D3C24F"/>
<stop offset="0.14" stop-color="#A69100"/>
<stop offset="0.57" stop-color="#D3C880"/>
<stop offset="1" stop-color="white"/>
</linearGradient>
<linearGradient id="paint15_linear_59_33949" x1="34.2677" y1="53.541" x2="32.5916" y2="46.8679" gradientUnits="userSpaceOnUse">
<stop stop-color="#FFF49E"/>
<stop offset="0.07" stop-color="#D3C24F"/>
<stop offset="0.14" stop-color="#A69100"/>
<stop offset="0.57" stop-color="#D3C880"/>
<stop offset="1" stop-color="white"/>
</linearGradient>
<linearGradient id="paint16_linear_59_33949" x1="32.552" y1="53.7446" x2="30.8759" y2="47.0715" gradientUnits="userSpaceOnUse">
<stop stop-color="#FFF49E"/>
<stop offset="0.07" stop-color="#D3C24F"/>
<stop offset="0.14" stop-color="#A69100"/>
<stop offset="0.57" stop-color="#D3C880"/>
<stop offset="1" stop-color="white"/>
</linearGradient>
</defs>
</svg>
