<svg width="94" height="102" viewBox="0 0 94 102" fill="none" xmlns="http://www.w3.org/2000/svg">
<path d="M22.514 22.0444C22.514 22.0444 31.4541 4.60181 62.6902 0.999878C62.6902 0.999878 68.9513 2.73911 64.2467 19.2198C61.3743 29.2821 55.1203 34.5163 55.1203 34.5163" fill="url(#paint0_linear_59_33683)"/>
<path d="M39.1238 9.60916C39.1238 9.60916 52.8637 2.1306 59.6467 3.52194C66.4297 4.91329 47.646 23.1752 39.2977 24.3926C30.9494 25.61 24.3404 17.4356 39.1238 9.60916Z" fill="#0C5854"/>
<path d="M62.1395 1.14478C62.1395 1.14478 38.0224 4.85526 27.1232 19.1168" stroke="#7CC1AD" stroke-width="1.40625" stroke-linecap="round" stroke-linejoin="round"/>
<path d="M22.514 22.0444C22.514 22.0444 31.4541 4.60181 62.6902 0.999878C62.6902 0.999878 68.9513 2.73911 64.2467 19.2198C61.3743 29.2821 55.1203 34.5163 55.1203 34.5163" stroke="#1C8C7E" stroke-width="1.40625" stroke-linecap="round" stroke-linejoin="round"/>
<path d="M62.6903 0.999878C62.6903 0.999878 68.9514 2.73911 64.2468 19.2198C61.3744 29.2821 55.1204 34.5163 55.1204 34.5163" stroke="#0E5B50" stroke-width="1.40625" stroke-linecap="round" stroke-linejoin="round"/>
<path d="M6.57287 37.5483C6.57287 37.5483 1.57018 39.1806 3.32403 44.5302C5.34848 50.7051 19.7192 49.405 19.7192 49.405L6.57287 37.5483Z" fill="#5F636D"/>
<path d="M6.57287 37.5483C6.57287 37.5483 1.57018 39.1806 3.32403 44.5302C5.34848 50.7051 19.7192 49.405 19.7192 49.405L6.57287 37.5483Z" stroke="#A10067" stroke-width="1.40625" stroke-linecap="round" stroke-linejoin="round"/>
<path d="M18.6789 101.339C18.6789 101.339 14.7222 98.6571 12.4173 95.5125C9.90722 92.0882 7.63581 86.8765 6.42645 76.4376C6.05423 73.2249 12.3397 65.8284 13.6441 56.7844C14.7697 48.9804 8.54066 48.3548 6.33948 44.9576C5.57875 43.7838 6.40878 42.3874 6.79706 41.0236C14.0473 15.5661 45.8777 10.6162 60.0245 13.0912C74.1714 15.5661 87.6109 28.8253 86.9037 47.2113C86.1964 65.5974 83.3871 75.6548 83.3871 75.6548C83.3871 75.6548 78.1191 86.5111 54.7768 94.5255C33.8173 101.722 18.6789 101.339 18.6789 101.339Z" fill="url(#paint1_linear_59_33683)"/>
<path d="M77.2128 26.9324C77.2128 26.9324 57.7333 30.7585 51.646 42.7592C45.5588 54.7599 48.1676 70.7608 48.1676 70.7608C48.1676 70.7608 67.9947 67.6302 85.0392 57.8905" stroke="#0C6054" stroke-width="1.40625" stroke-linecap="round" stroke-linejoin="round"/>
<path d="M7.12213 44.6729C7.12213 44.6729 9.33249 25.3467 32.341 16.6714C48.2548 10.6712 65.3862 14.4103 65.3862 14.4103" stroke="#7CC1AD" stroke-width="1.40625" stroke-linecap="round" stroke-linejoin="round"/>
<path d="M83.8369 33.0022C85.2813 36.9002 86.0271 41.2291 85.8476 45.8933C85.1518 63.9812 82.3691 73.431 82.3691 73.431C82.3691 73.431 77.2675 84.3303 54.3098 92.2148C33.6957 99.2943 19.8185 99.6325 19.8185 99.6325C15.2966 97.3714 12.2916 92.6276 12.2916 92.6276C8.81307 85.1488 7.2962 76.1529 7.2962 76.1529" stroke="#0C6054" stroke-width="1.40625" stroke-linecap="round" stroke-linejoin="round"/>
<path d="M18.6789 100.88C18.6789 100.88 14.8078 98.1338 12.4173 95.0537C11.9631 94.4685 11.5622 93.8711 11.2517 93.2784C11.2517 93.2784 7.63582 86.4176 6.42645 75.9787C6.05423 72.766 12.3397 65.3696 13.6441 56.3255C14.7697 48.5215 8.54066 47.896 6.33948 44.4987C5.57875 43.3249 6.40878 41.9285 6.79706 40.5647C14.0473 15.1072 45.8777 10.1573 60.0245 12.6323C74.1714 15.1072 87.6109 28.3664 86.9037 46.7525C86.1964 65.1385 83.3871 75.196 83.3871 75.196C83.3871 75.196 78.1191 86.0523 54.7768 94.0667C33.8173 101.263 18.6789 100.88 18.6789 100.88Z" stroke="#1C8C7E" stroke-width="1.40625" stroke-linecap="round" stroke-linejoin="round"/>
<path d="M84.9814 34.0635C86.4257 37.9614 87.0837 42.9265 86.9042 47.5907C86.2084 65.6786 83.4257 75.1284 83.4257 75.1284C83.4257 75.1284 78.3239 86.0276 55.3662 93.9122C34.7521 100.992 19.0792 100.937 19.0792 100.937" stroke="#1C8C7E" stroke-width="1.40625" stroke-linecap="round" stroke-linejoin="round"/>
<path d="M84.9814 34.0635C86.4257 37.9614 87.0837 42.9265 86.9042 47.5907C86.2084 65.6786 83.4257 75.1284 83.4257 75.1284C83.4257 75.1284 78.3239 86.0276 55.3662 93.9122C34.7521 100.992 19.0792 100.937 19.0792 100.937" stroke="#00231D" stroke-width="1.40625" stroke-linecap="round" stroke-linejoin="round"/>
<g opacity="0.57">
<path d="M47.3267 47.3842C34.7897 53.5208 18.327 52.1932 13.7596 42.8621C9.19223 33.5309 16.1109 23.5746 28.6479 17.4381C41.1849 11.3015 55.0508 13.8917 59.6182 23.2228C64.1856 32.554 59.8637 41.2477 47.3267 47.3842Z" fill="url(#paint2_radial_59_33683)"/>
</g>
<path d="M7.46985 83.5054L10.0786 91.5058L11.8178 85.9404L18.4269 98.2888L23.9925 87.6794L32.1668 97.593L40.6891 86.462L49.2113 93.419C49.2113 93.419 55.6464 85.0707 57.3857 82.8096C59.1249 80.5485 76.0505 69.5431 85.2683 65.369" stroke="#0C6054" stroke-width="1.40625" stroke-linecap="round" stroke-linejoin="round"/>
<path d="M66.2459 14.1881C42.0609 17.9665 34.4279 39.8026 34.4279 39.8026C34.4279 39.8026 25.6158 42.1215 16.9196 45.7739C16.9196 45.7739 12.1657 38.5852 11.2962 31.8022C11.2962 31.8022 15.4702 23.0479 28.5144 17.1346" stroke="#1C8C7E" stroke-width="1.40625" stroke-linecap="round" stroke-linejoin="round"/>
<path d="M39.4136 30.5844C39.4136 30.5844 28.6883 32.8455 20.34 36.6719C20.34 36.6719 17.2094 29.0191 17.3834 24.4972" stroke="#1C8C7E" stroke-width="1.40625" stroke-linecap="round" stroke-linejoin="round"/>
<path d="M24.8621 19.4539C24.8621 19.4539 24.8623 22.9323 25.7318 26.9326C25.7318 26.9326 36.5149 22.7584 46.6024 22.7584" stroke="#1C8C7E" stroke-width="1.40625" stroke-linecap="round" stroke-linejoin="round"/>
<path d="M33.1524 15.2795C33.1524 15.2795 32.8043 16.6709 33.0363 19.2796C33.0363 19.2796 42.4863 15.3954 56.5739 17.1347" stroke="#1C8C7E" stroke-width="1.40625" stroke-linecap="round" stroke-linejoin="round"/>
<path d="M23.8359 53.7001C23.8359 53.7001 24.0677 60.7729 20.0096 66.3385C15.9514 71.9041 12.1251 78.2812 12.1251 78.2812L18.2703 80.948C18.2703 80.948 39.0251 66.1065 51.7794 63.9035C64.5337 61.7005 71.3748 62.86 71.3748 62.86C71.3748 62.86 74.6213 54.6279 68.2442 53.4683C61.8672 52.3087 53.5186 54.5117 43.6631 55.0914C33.8076 55.6711 23.8359 53.7001 23.8359 53.7001Z" fill="url(#paint3_linear_59_33683)"/>
<path d="M21.0529 80.9477C21.0529 80.9477 21.6328 73.9907 34.735 66.9179C47.8372 59.845 64.5336 58.1058 68.4758 65.8744C68.4758 65.8744 49.3444 79.3245 35.1988 80.368C21.0531 81.4114 21.0529 80.9477 21.0529 80.9477Z" fill="#232D0E"/>
<path d="M18.7921 71.8746C18.7921 71.8746 22.157 67.9172 25.4012 63.9901C29.8072 58.6565 28.7635 54.8301 28.7635 54.8301C28.7635 54.8301 21.111 53.9026 17.7484 52.8591C17.7484 52.8591 18.3283 60.3958 15.4295 65.6135C12.5307 70.8312 11.2555 73.8459 11.2555 73.8459C11.2555 73.8459 14.6181 72.1066 18.7921 71.8746Z" fill="url(#paint4_linear_59_33683)"/>
<path d="M13.6325 71.4401C13.6325 71.4401 14.908 68.8891 16.7631 65.6427C18.6182 62.3962 20.2413 55.7871 19.6617 52.4246L16.1832 51.3811C16.1832 51.3811 16.9949 57.2946 13.7484 63.6717C10.5019 70.0487 8.87857 72.8316 9.80613 74.223L13.6325 71.4401Z" fill="#BAB16E"/>
<path d="M9.80634 74.3389C9.80634 74.3389 12.9369 70.6284 18.0387 71.3242C23.1406 72.02 27.7784 77.5854 29.7494 80.948C29.7494 80.948 10.8498 83.4989 9.80634 74.3389Z" fill="#918E66"/>
<path d="M14.3718 77.31C14.3718 77.31 14.8067 74.1358 17.4154 73.2663C20.0242 72.3968 26.2564 76.8462 25.3289 78.8753C24.4013 80.9043 14.4299 78.4695 14.3718 77.31Z" fill="#ADA980"/>
<path d="M10.1976 75.8317C10.1976 75.8317 16.0241 70.5706 21.9374 73.1793" stroke="#D1CCA7" stroke-width="1.40625" stroke-linecap="round" stroke-linejoin="round"/>
<path d="M9.80615 74.6649C9.80615 74.6649 12.9367 70.9546 18.0386 71.6504C23.1404 72.3462 27.7782 77.9113 29.7492 81.2739" stroke="#4D4C2C" stroke-width="1.40625" stroke-linecap="round" stroke-linejoin="round"/>
<path d="M20.2128 75.4335C20.2128 75.9498 19.8138 76.3684 19.3215 76.3684C18.8293 76.3684 18.4302 75.9498 18.4302 75.4335C18.4302 74.9171 18.8293 74.4988 19.3215 74.4988C19.8138 74.4988 20.2128 74.9171 20.2128 75.4335Z" fill="#5F5E39"/>
<path d="M24.1479 78.0787C24.1479 78.595 23.7486 79.0134 23.2564 79.0134C22.7641 79.0134 22.3651 78.595 22.3651 78.0787C22.3651 77.5624 22.7641 77.1438 23.2564 77.1438C23.7486 77.1438 24.1479 77.5624 24.1479 78.0787Z" fill="#5F5E39"/>
<path d="M16.5867 74.7516C16.4435 75.2475 15.9797 75.5495 15.551 75.4256C15.1224 75.3017 14.8908 74.7991 15.034 74.3032C15.1772 73.8073 15.6412 73.5053 16.0699 73.6292C16.4986 73.7532 16.7299 74.2557 16.5867 74.7516Z" fill="#5F5E39"/>
<path d="M12.8308 75.856C12.6644 76.3182 12.2688 76.5991 11.947 76.4834C11.6253 76.3678 11.4991 75.8989 11.6655 75.4368C11.8318 74.9746 12.2275 74.6939 12.5492 74.8096C12.8709 74.9253 12.9971 75.3939 12.8308 75.856Z" fill="#5F5E39"/>
<path d="M17.075 77.4264C17.075 77.9427 16.6757 78.361 16.1834 78.361C15.6912 78.361 15.2921 77.9427 15.2921 77.4264C15.2921 76.91 15.6912 76.4915 16.1834 76.4915C16.6757 76.4915 17.075 76.91 17.075 77.4264Z" fill="#5F5E39"/>
<path d="M20.6115 78.2776C20.6115 78.8359 20.1801 79.2885 19.6477 79.2885C19.1153 79.2885 18.6837 78.8359 18.6837 78.2776C18.6837 77.7193 19.1153 77.2667 19.6477 77.2667C20.1801 77.2667 20.6115 77.7193 20.6115 78.2776Z" fill="#5F5E39"/>
<path d="M14.4762 76.9112C14.3098 77.3734 13.9142 77.6543 13.5925 77.5386C13.2708 77.4229 13.1448 76.9541 13.3111 76.4919C13.4775 76.0298 13.8731 75.7491 14.1949 75.8648C14.5166 75.9804 14.6426 76.449 14.4762 76.9112Z" fill="#5F5E39"/>
<path d="M45.4021 77.3532C45.4021 77.3532 52.3588 58.5695 57.1128 54.3955C57.1128 54.3955 61.055 53.0039 63.7218 53.6997C66.3886 54.3955 51.1995 76.1937 51.1995 76.1937C51.1995 76.1937 47.6051 77.4691 45.4021 77.3532Z" fill="#BAB16E"/>
<path d="M48.5328 76.4258C48.5328 76.4258 56.8063 57.0009 60.5914 53.468C62.3306 51.8447 71.2586 54.3956 72.4182 57.5262C73.5777 60.6568 70.563 65.0626 63.6061 70.1644C56.6491 75.2662 48.5328 76.4258 48.5328 76.4258Z" fill="url(#paint5_linear_59_33683)"/>
<path d="M12.7048 49.4095L16.183 50.685C16.183 50.685 16.7627 58.4536 14.7917 62.9756C12.8207 67.4975 7.83474 72.1353 10.2698 76.7733C12.7048 81.4114 23.7197 82.8027 39.9525 79.3243C56.1853 75.8458 70.7947 65.4106 73.3456 61.0045C73.3456 61.0045 73.6935 64.5987 68.8237 69.2367C63.9539 73.8748 52.475 81.4114 30.0969 83.8464C7.71885 86.2814 4.82027 77.9329 6.79129 72.7152C8.7623 67.4975 15.7195 60.6566 12.7048 49.4095Z" fill="url(#paint6_linear_59_33683)"/>
<path d="M6.50144 76.3098C6.50144 76.3098 5.80565 73.1792 8.24068 69.5268C10.6757 65.8743 15.0237 57.3523 12.9365 50.0475" stroke="#747600" stroke-width="1.40625" stroke-linecap="round" stroke-linejoin="round"/>
<path d="M15.9512 51.1487C15.9512 51.1487 16.9948 54.6272 15.3715 60.6565C13.7481 66.6859 9.3421 70.2801 9.45799 74.9181C9.57388 79.5562 18.4929 83.3621 36.7059 80.1358C56.9968 76.5415 68.8236 67.3815 72.8818 61.0044" stroke="#747600" stroke-width="1.40625" stroke-linecap="round" stroke-linejoin="round"/>
<path d="M5.99146 44.0636C5.99146 44.0636 11.3411 51.6553 26.6767 53.7C50.1563 56.8306 56.9393 53.526 63.3744 53.0042C69.8095 52.4823 73.6359 54.5697 73.288 62.2222C72.9401 69.8747 58.3109 77.4419 44.011 81.5275C33.4597 84.5422 8.93662 87.4408 6.50159 76.3098" stroke="#00332A" stroke-width="1.40625" stroke-linecap="round" stroke-linejoin="round"/>
<path d="M7.58844 83.5056L10.1974 91.506L11.9366 85.9406L18.5457 98.289L24.1111 87.6797L32.2854 97.5932L40.8077 86.4623L49.3299 93.4192C49.3299 93.4192 55.765 85.0709 57.5043 82.8098C59.2435 80.5488 76.1693 69.5433 85.3871 65.3693" stroke="#6F7724" stroke-width="1.40625" stroke-linecap="round" stroke-linejoin="round"/>
<g opacity="0.5">
<path d="M7.58862 83.5061L10.1976 91.5065L11.9368 85.9411L18.5459 98.2895L24.1113 87.6801L32.2856 97.5937L40.8079 86.4627C40.8079 86.4627 42.1604 87.567 43.7881 88.8955" stroke="#F0FF5C" stroke-width="2.8125" stroke-linecap="round" stroke-linejoin="round"/>
</g>
<path d="M7.58862 83.5061L10.1976 91.5065L11.9368 85.9411L18.5459 98.2895L24.1113 87.6801L32.2856 97.5937L40.8079 86.4627C40.8079 86.4627 42.1604 87.567 43.7881 88.8955" stroke="#F0FF5C" stroke-width="1.40625" stroke-linecap="round" stroke-linejoin="round"/>
<path d="M7.58862 83.5061L10.1976 91.5065L11.9368 85.9411L18.5459 98.2895L24.1113 87.6801L32.2856 97.5937L40.8079 86.4627C40.8079 86.4627 42.1604 87.567 43.7881 88.8955" stroke="white" stroke-width="1.40625" stroke-linecap="round" stroke-linejoin="round"/>
<g opacity="0.5">
<path d="M33.1524 15.2795C33.1524 15.2795 32.8043 16.6709 33.0363 19.2796C33.0363 19.2796 42.4863 15.3954 56.5739 17.1347" stroke="#CAFFEC" stroke-width="3.16406" stroke-linecap="round" stroke-linejoin="round"/>
</g>
<path d="M33.1524 15.2795C33.1524 15.2795 32.8043 16.6709 33.0363 19.2796C33.0363 19.2796 42.4863 15.3954 56.5739 17.1347" stroke="#CAFFEC" stroke-width="1.40625" stroke-linecap="round" stroke-linejoin="round"/>
<g opacity="0.5">
<path d="M24.862 19.4539C24.862 19.4539 24.8622 22.9323 25.7317 26.9326C25.7317 26.9326 36.5148 22.7584 46.6024 22.7584" stroke="#71FFD0" stroke-width="3.16406" stroke-linecap="round" stroke-linejoin="round"/>
</g>
<path d="M24.862 19.4539C24.862 19.4539 24.8622 22.9323 25.7317 26.9326C25.7317 26.9326 36.5148 22.7584 46.6024 22.7584" stroke="#39F2B9" stroke-width="1.40625" stroke-linecap="round" stroke-linejoin="round"/>
<path d="M38.6021 23.4543C38.6021 23.4543 39.5588 23.1934 42.1676 23.0194" stroke="#B8FFE7" stroke-width="1.40625" stroke-linecap="round" stroke-linejoin="round"/>
<g opacity="0.5">
<path d="M39.4135 30.5845C39.4135 30.5845 28.6883 32.8455 20.34 36.6719C20.34 36.6719 17.2674 29.4251 17.4414 24.9032" stroke="#F44DCD" stroke-width="3.16406" stroke-linecap="round" stroke-linejoin="round"/>
</g>
<path d="M39.4135 30.5845C39.4135 30.5845 28.6882 32.8456 20.3399 36.672C20.3399 36.672 17.4994 30.6426 17.4413 25.1931" stroke="#C62699" stroke-width="1.40625" stroke-linecap="round" stroke-linejoin="round"/>
<path d="M24.862 34.672C24.862 34.672 26.2533 34.0635 28.5144 33.5416" stroke="#F261D0" stroke-width="1.40625" stroke-linecap="round" stroke-linejoin="round"/>
<g opacity="0.5">
<path d="M34.4279 39.8028C34.4279 39.8028 25.6158 42.1217 16.9196 45.7741C16.9196 45.7741 12.2816 38.8172 11.412 32.0342" stroke="#F9FF7D" stroke-width="3.16406" stroke-linecap="round" stroke-linejoin="round"/>
</g>
<path d="M34.4278 39.8025C34.4278 39.8025 25.6157 42.1214 16.9196 45.7738C16.9196 45.7738 12.2234 39.0489 11.3539 32.2659" stroke="#F0FF5C" stroke-width="1.40625" stroke-linecap="round" stroke-linejoin="round"/>
<path d="M14.9484 42.1505C14.9484 42.1505 15.8181 44.8465 16.8615 45.8029" stroke="white" stroke-width="1.40625" stroke-linecap="round" stroke-linejoin="round"/>
<path d="M79.2624 42.334C79.2624 42.334 85.9414 37.665 89.6978 27.8982C95.785 12.0714 90.7413 10.1582 90.7413 10.1582C65.8703 10.3321 50.7392 20.4197 50.7392 20.4197C50.7392 20.4197 45.3476 23.724 43.4344 27.7243C43.4344 27.7243 38.5198 33.4398 65.1748 37.1163C75.2623 38.5076 77.3492 41.1166 79.2624 42.334Z" fill="url(#paint7_linear_59_33683)"/>
<path d="M62.5082 17.9851C62.5082 17.9851 48.7104 23.8986 47.435 29.696C46.1595 35.4934 60.4211 33.6382 73.9871 27.8409C87.5531 22.0435 91.4954 14.9704 88.9445 13.1153C86.3935 11.2602 72.132 14.0428 62.5082 17.9851Z" fill="#0C5854"/>
<path d="M43.9565 29.0002C43.9565 29.0002 49.7539 13.927 90.2199 10.3326" stroke="#7CC1AD" stroke-width="1.40625" stroke-linecap="round" stroke-linejoin="round"/>
<path d="M79.2625 42.3342C79.2625 42.3342 85.9415 37.6652 89.6979 27.8985C95.7851 12.0716 90.7414 10.1584 90.7414 10.1584C65.8704 10.3324 50.7394 20.4199 50.7394 20.4199C50.7394 20.4199 44.5941 24.5359 42.6809 28.5362" stroke="#1C8C7E" stroke-width="1.40625" stroke-linecap="round" stroke-linejoin="round"/>
<path d="M79.2627 42.3346C79.2627 42.3346 85.9417 37.6656 89.6981 27.8989C95.7853 12.072 90.7416 10.1588 90.7416 10.1588" stroke="#0E5B50" stroke-width="1.40625" stroke-linecap="round" stroke-linejoin="round"/>
<path d="M6.17671 41.1433C6.17671 41.1433 5.48092 44.6218 14.1402 48.1244C26.5813 53.1566 43.9874 53.2409 61.257 50.7955C71.0836 49.4042 73.7796 54.0131 73.4317 59.2308C73.4317 59.2308 31.7434 65.8981 20.4963 61.84C9.24923 57.7818 1.39891 52.0999 2.90614 42.7081" fill="#5F636D"/>
<path d="M6.17671 41.1433C6.17671 41.1433 5.48092 44.6218 14.1402 48.1244C26.5813 53.1566 43.9874 53.2409 61.257 50.7955C71.0836 49.4042 73.7796 54.0131 73.4317 59.2308C73.4317 59.2308 31.7434 65.8981 20.4963 61.84C9.24923 57.7818 1.39891 52.0999 2.90614 42.7081" stroke="#040F1E" stroke-width="1.40625" stroke-linecap="round" stroke-linejoin="round"/>
<path d="M3.09885 42.2117C3.09885 42.2117 1.88513 47.694 13.7663 51.9513C27.6802 56.937 43.681 56.9372 61.421 54.0384C71.4707 52.3963 74.0916 55.2726 73.7437 60.4903C73.2689 67.6139 66.8079 72.8334 58.4385 76.6651C44.003 83.2741 27.4803 86.0568 17.0449 83.9697C6.60946 81.8825 4.17466 76.3172 4.17466 76.3172C4.17466 76.3172 -0.727516 58.7343 3.09885 42.2117Z" fill="url(#paint8_linear_59_33683)"/>
<path d="M3.09885 42.2117C3.09885 42.2117 1.88513 47.694 13.7663 51.9513C27.6802 56.937 43.681 56.9372 61.421 54.0384C71.4707 52.3963 74.0916 55.2726 73.7437 60.4903C73.2689 67.6139 66.8079 72.8334 58.4385 76.6651C44.003 83.2741 27.4803 86.0568 17.0449 83.9697C6.60946 81.8825 4.17466 76.3172 4.17466 76.3172C4.17466 76.3172 -0.727516 58.7343 3.09885 42.2117Z" fill="url(#paint9_linear_59_33683)"/>
<g opacity="0.24">
<path d="M28.2779 55.9382C28.2779 55.9382 44.2787 57.3876 50.0182 56.2861C50.0182 56.2861 49.3227 67.6491 48.9748 81.331C48.9748 81.331 32.1621 84.6355 29.8432 84.6355C29.8432 84.6355 26.5386 75.2436 28.2779 55.9382Z" fill="url(#paint10_linear_59_33683)"/>
</g>
<path d="M5.16691 48.8071C5.16691 48.8071 3.19567 63.5325 7.48582 79.4174C7.48582 79.4174 10.3846 82.2003 14.9066 83.1279C14.9066 83.1279 12.5876 62.257 13.0514 52.8653C13.0514 52.8653 8.41338 50.8943 5.16691 48.8071Z" fill="url(#paint11_linear_59_33683)"/>
<path d="M63.9478 59.8217L68.9337 64.5754" stroke="#930965" stroke-width="1.40625" stroke-linecap="round" stroke-linejoin="round"/>
<path d="M68.8177 59.2422L63.9479 67.0108" stroke="#930965" stroke-width="1.40625" stroke-linecap="round" stroke-linejoin="round"/>
<path d="M3.09896 42.2117C3.09896 42.2117 1.885 47.694 13.7662 51.9513C27.6801 56.937 43.6809 56.9372 61.4209 54.0384C71.4706 52.3963 74.0915 55.2726 73.7436 60.4903C73.2688 67.6139 66.808 72.8334 58.4386 76.6651C44.0031 83.2741 27.4804 86.0568 17.045 83.9697C6.60956 81.8825 4.17454 76.3172 4.17454 76.3172C4.17454 76.3172 -0.727411 58.7343 3.09896 42.2117Z" stroke="#930965" stroke-width="1.40625" stroke-linecap="round" stroke-linejoin="round"/>
<path d="M17.6882 53.2108C21.4007 54.2701 25.2519 55.0063 29.2357 55.4561" stroke="#C62699" stroke-opacity="0.56" stroke-width="3.33984" stroke-linecap="round" stroke-linejoin="round"/>
<path d="M17.6882 53.2108C21.4007 54.2701 25.2519 55.0063 29.2357 55.4561" stroke="#C62699" stroke-width="1.40625" stroke-linecap="round" stroke-linejoin="round"/>
<g opacity="0.46">
<path d="M25.8485 79.6308C25.8485 79.6308 25.0338 67.69 35.6432 62.8202C46.2526 57.9504 58.601 59.5157 58.601 59.5157C58.601 59.5157 58.6647 80.4407 25.8485 79.6308Z" fill="black"/>
</g>
<g opacity="0.46">
<path d="M14.0333 78.4625C14.0333 78.4625 14.2073 66.8099 10.2069 61.0703C6.20663 55.3308 3.07628 50.287 3.07628 50.287C3.07628 50.287 0.154749 71.3261 14.0333 78.4625Z" fill="black"/>
</g>
<g opacity="0.5">
<path d="M25.8483 79.6306C25.8483 79.6306 25.0336 67.69 35.643 62.8202C46.2524 57.9504 58.6008 59.5157 58.6008 59.5157C58.6008 59.5157 58.6646 80.4405 25.8483 79.6306Z" stroke="#39F2B9" stroke-width="2.8125" stroke-linecap="round" stroke-linejoin="round"/>
</g>
<path d="M25.8483 79.6306C25.8483 79.6306 25.0336 67.69 35.643 62.8202C46.2524 57.9504 58.6008 59.5157 58.6008 59.5157C58.6008 59.5157 58.6646 80.4405 25.8483 79.6306Z" stroke="#39F2B9" stroke-width="1.40625" stroke-linecap="round" stroke-linejoin="round"/>
<path d="M41.4903 60.7616C44.854 59.8868 48.1386 59.4978 50.916 59.3514" stroke="#CAFFEC" stroke-width="1.40625" stroke-linecap="round" stroke-linejoin="round"/>
<g opacity="0.5">
<path d="M14.0333 78.4625C14.0333 78.4625 14.2073 66.8099 10.2069 61.0703C6.20663 55.3308 3.07628 50.287 3.07628 50.287C3.07628 50.287 0.154749 71.3261 14.0333 78.4625Z" stroke="#39F2B9" stroke-width="2.8125" stroke-linecap="round" stroke-linejoin="round"/>
</g>
<path d="M14.0333 78.4625C14.0333 78.4625 14.2073 66.8099 10.2069 61.0703C6.20663 55.3308 3.07628 50.287 3.07628 50.287C3.07628 50.287 0.154749 71.3261 14.0333 78.4625Z" stroke="#39F2B9" stroke-width="1.40625" stroke-linecap="round" stroke-linejoin="round"/>
<path d="M9.36536 59.8549C7.8859 57.7042 6.55766 55.7011 5.50732 54.089" stroke="#CAFFEC" stroke-width="1.40625" stroke-linecap="round" stroke-linejoin="round"/>
<path d="M71.4711 52.4099C72.6146 64.1885 63.9933 74.6641 52.2147 75.8076C40.4361 76.9511 29.9605 68.3297 28.817 56.5511C27.6735 44.7725 36.2949 34.2969 48.0735 33.1534C59.852 32.0099 70.3276 40.6313 71.4711 52.4099Z" fill="url(#paint12_radial_59_33683)"/>
<path d="M49.5302 45.2535C49.5302 45.2535 49.7404 54.5294 53.5883 54.5294C53.5883 54.5294 49.6952 53.9472 49.6952 63.8562C49.6952 63.8562 49.4508 54.5875 46.0517 54.5875C46.0517 54.5875 49.5302 53.9665 49.5302 45.2535Z" fill="white"/>
<defs>
<linearGradient id="paint0_linear_59_33683" x1="43.4041" y1="12.2419" x2="53.6656" y2="28.5906" gradientUnits="userSpaceOnUse">
<stop stop-color="#0A5654"/>
<stop offset="0.5" stop-color="#083C3A"/>
<stop offset="1" stop-color="#062321"/>
</linearGradient>
<linearGradient id="paint1_linear_59_33683" x1="27.267" y1="47.4881" x2="57.2517" y2="85.3233" gradientUnits="userSpaceOnUse">
<stop stop-color="#0C5854"/>
<stop offset="0.5" stop-color="#0A3C3A"/>
<stop offset="1" stop-color="#092121"/>
</linearGradient>
<radialGradient id="paint2_radial_59_33683" cx="0" cy="0" r="1" gradientUnits="userSpaceOnUse" gradientTransform="translate(24.0029 11.5487) scale(22.3476 22.3476)">
<stop stop-color="white" stop-opacity="0.3"/>
<stop offset="0.65" stop-color="white" stop-opacity="0.15"/>
<stop offset="1" stop-color="white" stop-opacity="0"/>
</radialGradient>
<linearGradient id="paint3_linear_59_33683" x1="42.7229" y1="77.8603" x2="40.8678" y2="50.4965" gradientUnits="userSpaceOnUse">
<stop stop-color="#304007"/>
<stop offset="0.68" stop-color="#4F5513"/>
<stop offset="1" stop-color="#6D6A1F"/>
</linearGradient>
<linearGradient id="paint4_linear_59_33683" x1="15.8736" y1="65.468" x2="24.5698" y2="54.163" gradientUnits="userSpaceOnUse">
<stop stop-color="#8B864C"/>
<stop offset="0.5" stop-color="#7B7743"/>
<stop offset="1" stop-color="#6C683A"/>
</linearGradient>
<linearGradient id="paint5_linear_59_33683" x1="55.3443" y1="64.3207" x2="68.5624" y2="67.7991" gradientUnits="userSpaceOnUse">
<stop stop-color="#8B864C"/>
<stop offset="0.5" stop-color="#7B7743"/>
<stop offset="1" stop-color="#6C683A"/>
</linearGradient>
<linearGradient id="paint6_linear_59_33683" x1="6.23525" y1="66.8448" x2="73.3076" y2="66.8448" gradientUnits="userSpaceOnUse">
<stop offset="0.19" stop-color="#FFF871"/>
<stop offset="0.65" stop-color="#EAE43F"/>
<stop offset="1" stop-color="#D4D10D"/>
</linearGradient>
<linearGradient id="paint7_linear_59_33683" x1="64.0829" y1="15.0232" x2="76.8661" y2="35.3722" gradientUnits="userSpaceOnUse">
<stop stop-color="#0C5854"/>
<stop offset="0.5" stop-color="#0A3C3A"/>
<stop offset="1" stop-color="#092121"/>
</linearGradient>
<linearGradient id="paint8_linear_59_33683" x1="1.60149" y1="63.4309" x2="73.5668" y2="63.4309" gradientUnits="userSpaceOnUse">
<stop stop-color="#161717"/>
<stop offset="0.68" stop-color="#1D1F30"/>
<stop offset="1" stop-color="#242749"/>
</linearGradient>
<linearGradient id="paint9_linear_59_33683" x1="0.454083" y1="63.6604" x2="72.4194" y2="63.6604" gradientUnits="userSpaceOnUse">
<stop offset="0.19" stop-color="#7EA8C7" stop-opacity="0"/>
<stop offset="0.33" stop-color="#7EA8C7" stop-opacity="0.2"/>
<stop offset="0.44" stop-color="#7EA8C7" stop-opacity="0.4"/>
<stop offset="0.63" stop-color="#7EA8C7" stop-opacity="0.2"/>
<stop offset="0.83" stop-color="#7EA8C7" stop-opacity="0"/>
</linearGradient>
<linearGradient id="paint10_linear_59_33683" x1="23.4023" y1="70.3159" x2="71.9869" y2="68.8727" gradientUnits="userSpaceOnUse">
<stop stop-color="white" stop-opacity="0.2"/>
<stop offset="0.65" stop-color="white" stop-opacity="0.4"/>
<stop offset="1" stop-color="white" stop-opacity="0.6"/>
</linearGradient>
<linearGradient id="paint11_linear_59_33683" x1="15.3703" y1="66.1848" x2="2.38422" y2="65.489" gradientUnits="userSpaceOnUse">
<stop stop-color="white" stop-opacity="0"/>
<stop offset="0.65" stop-color="white" stop-opacity="0.3"/>
<stop offset="1" stop-color="white" stop-opacity="0.6"/>
</linearGradient>
<radialGradient id="paint12_radial_59_33683" cx="0" cy="0" r="1" gradientUnits="userSpaceOnUse" gradientTransform="translate(50.1225 54.4734) scale(21.1245)">
<stop offset="0.05" stop-color="white"/>
<stop offset="0.33" stop-color="white" stop-opacity="0.5"/>
<stop offset="0.62" stop-color="white" stop-opacity="0"/>
</radialGradient>
</defs>
</svg>
