<svg width="115" height="88" viewBox="0 0 115 88" fill="none" xmlns="http://www.w3.org/2000/svg">
<path d="M56.6268 62.0703C37.7229 62.0703 19.4709 66.416 19.4709 74.9294C19.4709 82.0102 35.0836 86.9997 56.6268 86.9997C78.1699 86.9997 93.7826 82.0102 93.7826 74.9294C93.7826 66.416 75.5306 62.0703 56.6268 62.0703Z" fill="#F4CEF4"/>
<path d="M56.6268 62.0703C37.7229 62.0703 19.4709 66.416 19.4709 74.9294C19.4709 82.0102 35.0836 86.9997 56.6268 86.9997C78.1699 86.9997 93.7826 82.0102 93.7826 74.9294C93.7826 66.416 75.5306 62.0703 56.6268 62.0703Z" stroke="#D276D2" stroke-width="1.97623" stroke-linecap="round" stroke-linejoin="round"/>
<path d="M56.6267 45.4409C28.3253 45.4409 1 51.9464 1 64.6921C1 75.2928 24.3739 82.763 56.6267 82.763C88.8795 82.763 112.253 75.2928 112.253 64.6921C112.253 51.9464 84.928 45.4409 56.6267 45.4409Z" fill="url(#paint0_linear_59_31658)"/>
<g opacity="0.6">
<path d="M56.6268 47.3716C29.3933 47.3716 3.09912 53.9576 3.09912 64.4272C3.09912 73.6828 25.5911 80.2051 56.6268 80.2051C87.6625 80.2051 110.154 73.6828 110.154 64.4272C110.154 53.9576 83.8602 47.3716 56.6268 47.3716Z" stroke="url(#paint1_linear_59_31658)" stroke-width="1.97623" stroke-miterlimit="10"/>
</g>
<path d="M56.6267 45.4409C28.3253 45.4409 1 51.9464 1 64.6921C1 75.2928 24.3739 82.763 56.6267 82.763C88.8795 82.763 112.253 75.2928 112.253 64.6921C112.253 51.9464 84.928 45.4409 56.6267 45.4409Z" stroke="url(#paint2_linear_59_31658)" stroke-width="1.97623" stroke-linecap="round" stroke-linejoin="round"/>
<path d="M14.2587 51.6574C16.1554 56.3317 14.9912 57.6197 12.9309 59.9608C8.332 65.1867 6.38887 70.8609 16.5862 73.5965C26.9896 76.3874 37.6266 73.0518 42.4002 73.9591C45.8675 74.6182 49.3452 80.2053 61.9518 80.2053C73.8324 80.2053 76.6725 73.574 84.7871 71.8878C96.849 69.3815 100.906 63.9364 101.547 58.7414C102.06 54.5723 100.174 51.3167 95.4153 47.5918" fill="url(#paint3_linear_59_31658)" fill-opacity="0.5"/>
<path d="M56.6266 51.6025C35.3293 51.6025 14.7661 55.6002 14.7661 63.4318C14.7661 69.9454 32.3558 74.5354 56.6266 74.5354C80.8974 74.5354 98.4868 69.9454 98.4868 63.4318C98.4868 55.6002 77.9239 51.6025 56.6266 51.6025Z" fill="url(#paint4_linear_59_31658)"/>
<path d="M56.6266 51.6025C35.3293 51.6025 14.7661 55.6002 14.7661 63.4318C14.7661 69.9454 32.3558 74.5354 56.6266 74.5354C80.8974 74.5354 98.4868 69.9454 98.4868 63.4318C98.4868 55.6002 77.9239 51.6025 56.6266 51.6025Z" stroke="#EEB8EE" stroke-width="1.97623"/>
<path d="M86.8683 47.7459C89.7655 15.607 81.2252 1.79584 71.9606 2.42428C61.4856 3.13474 56.5824 23.1641 53.3265 22.9282C50.644 22.7337 39.3583 66.341 43.912 67.2066C47.2197 67.8352 55.0075 74.6967 67.0072 73.8946C76.9 73.2333 79.7749 68.8021 83.7827 68.0946C92.8946 66.4862 98.9989 62.3159 100.747 58.5272C103.352 52.8806 103.491 40.1777 95.6704 34.7048C91.816 32.0077 88.1472 32.001 87.1699 28.2652L86.8683 47.7459Z" fill="url(#paint5_linear_59_31658)"/>
<path d="M53.3268 22.9283C50.6443 22.7341 52.5852 2.76924 42.2468 1.1097C33.8814 -0.233147 27.6731 10.9471 23.3175 23.9581C20.6587 31.9006 15.8108 37.7282 14.9854 44.5942C14.1263 51.7427 17.0081 54.7329 15.9096 57.4977C14.4902 61.0702 13.855 66.7902 21.5851 67.9981C31.7374 69.5846 39.3585 66.3411 43.9123 67.2067C47.22 67.8354 56.5826 23.1642 53.3268 22.9283Z" fill="url(#paint6_linear_59_31658)"/>
<path d="M69.1365 3.1113C57.6507 7.63242 76.5635 66.0199 85.7779 48.3306C90.9714 38.3603 85.7779 -3.43891 69.1365 3.1113Z" fill="url(#paint7_linear_59_31658)" fill-opacity="0.4"/>
<path d="M40.552 1.83569C32.0325 4.12293 39.8381 35.5492 50.294 28.3078C54.3132 25.5243 50.6636 -0.879157 40.552 1.83569Z" fill="url(#paint8_linear_59_31658)" fill-opacity="0.4"/>
<path d="M100.747 58.5266C99 62.316 92.8935 66.4858 83.783 68.094C79.7738 68.803 76.9008 73.2346 67.0073 73.8942C55.0067 74.6971 47.2203 67.8346 43.9126 67.2071C39.3574 66.3425 31.7366 69.586 21.5837 67.9976C13.8542 66.7897 14.489 61.071 15.9095 57.4989C17.0087 54.7322 14.1259 51.7432 14.9856 44.5942C15.3611 41.4594 16.5764 38.5444 18.0388 35.543C18.0388 35.5455 19.0245 35.548 19.0245 35.5504C14.385 46.122 23.5575 56.2579 46.8646 57.1758C68.7469 58.0377 79.2543 50.2195 80.8716 30.4661C82.2315 13.8556 74.4935 1.19245 66.2613 4.89665C66.2613 4.89665 73.3683 -0.663966 80.0826 6.15896C80.085 6.16143 80.09 6.16637 80.0924 6.16884C80.5643 6.64808 81.004 7.22119 81.414 7.8684C81.419 7.87334 81.4215 7.87828 81.4239 7.88322C85.5715 14.4567 86.6708 28.9325 87.029 37.4402C87.1352 40.0439 87.1748 42.0868 87.2118 43.1762V43.1836C87.3823 48.181 93.389 48.5036 95.4149 47.5921C99.8431 45.5993 100.603 40.952 95.6706 34.7051C104.45 41.1849 102.461 54.8137 100.747 58.5266Z" fill="url(#paint9_radial_59_31658)" fill-opacity="0.4"/>
<path d="M65.3348 63.1898C63.2955 70.3936 54.6495 70.27 42.4742 67.1552C28.835 68.4174 20.6831 64.3768 22.0679 60.6999C24.3628 54.6071 33.5982 51.8214 45.546 52.509C57.4938 53.1965 66.5232 58.9912 65.3348 63.1898Z" fill="url(#paint10_radial_59_31658)" fill-opacity="0.4"/>
<path d="M85.7777 43.3987C85.7777 51.0496 69.2893 61.5749 49.8637 61.5749C30.4384 61.5749 15.4319 51.0496 15.4319 43.3987C15.4319 35.7477 31.55 26.2104 50.9754 26.2104C70.4007 26.2104 85.7777 35.7477 85.7777 43.3987Z" fill="url(#paint11_radial_59_31658)" fill-opacity="0.4"/>
<mask id="mask0_59_31658" style="mask-type:luminance" maskUnits="userSpaceOnUse" x="22" y="22" width="52" height="26">
<path d="M73.6728 32.3634C73.1765 39.3916 59.4558 47.43 47.5663 47.0966C35.6768 46.7632 22.1651 38.1564 22.836 31.0009C23.4852 24.0787 35.9305 18.5175 47.9294 26.6444C62.244 23.6561 74.214 24.6974 73.6728 32.3634Z" fill="url(#paint12_radial_59_31658)"/>
</mask>
<g mask="url(#mask0_59_31658)">
<path d="M73.6728 32.3634C73.1765 39.3916 59.4558 47.43 47.5663 47.0966C35.6768 46.7632 22.1651 38.1564 22.836 31.0009C23.4852 24.0787 35.9305 18.5175 47.9294 26.6444C62.244 23.6561 74.214 24.6974 73.6728 32.3634Z" fill="url(#paint13_radial_59_31658)"/>
</g>
<path d="M87.212 43.1839C85.8101 25.4072 83.1926 5.13257 72.9725 4.40211C62.7213 3.66943 58.3749 25.1839 53.065 24.6728C48.1306 24.1978 51.4793 4.03873 41.3245 2.89647C34.0873 2.08227 28.0926 15.8045 25.5102 24.1718C23.8778 29.4605 21.9248 31.8922 18.4368 39.0217C14.7956 46.4644 17.5396 52.6117 18.1828 55.745C18.6598 58.0688 13.868 63.2634 20.4686 65.9048C26.2646 68.2242 39.9604 64.7596 43.1591 65.143C47.7576 65.6939 56.041 72.6675 66.2156 72.1692C76.3902 71.671 78.6048 67.1844 82.4873 66.5617C86.3699 65.9389 96.5532 63.1351 99.3285 57.3483C101.84 52.1127 100.029 40.9416 96.0505 37.3545C92.0723 33.7674 88.8066 34.2545 87.3891 32.322" stroke="url(#paint14_linear_59_31658)" stroke-opacity="0.9" stroke-width="1.97623" stroke-miterlimit="10"/>
<path d="M37.2649 1.82078C42.247 1.10934 45.1893 6.27199 46.066 18.3253C46.8649 29.3086 54.3706 28.2264 56.4647 21.0974C56.4647 21.0974 52.3339 24.5348 52.0157 20.7792C51.6975 17.0237 49.1494 1.93713 42.9871 1.26472C39.9854 0.937159 37.2649 1.82078 37.2649 1.82078Z" fill="url(#paint15_linear_59_31658)" fill-opacity="0.2"/>
<path d="M15.07 61.6676C14.4317 56.1561 23.6474 54.3363 30.3258 56.5884C36.5662 58.6926 38.7934 66.7094 33.0359 67.7356C25.7471 69.0348 15.8659 68.5406 15.07 61.6676Z" fill="url(#paint16_radial_59_31658)" fill-opacity="0.6"/>
<path d="M48.9876 68.6862C40.8097 63.5638 51.9529 57.2937 64.7256 56.8631C76.9362 56.4515 87.1007 64.1029 80.3066 68.3773C73.5126 72.6516 64.5307 78.4221 48.9876 68.6862Z" fill="url(#paint17_radial_59_31658)" fill-opacity="0.6"/>
<path d="M93.7532 55.811C97.8563 64.5818 91.8115 65.4387 83.5437 67.8648C77.2939 69.6987 69.8759 77.3742 67.0629 68.5123C65.9533 65.0161 70.449 55.8935 76.2843 53.0001C82.1196 50.1067 92.1988 52.4887 93.7532 55.811Z" fill="url(#paint18_radial_59_31658)" fill-opacity="0.4"/>
<path d="M83.571 68.2784C76.3586 68.7822 79.618 59.8674 86.3044 56.2265C92.6964 52.7458 101.376 54.9289 99.8831 58.7091C98.3902 62.4892 90.0346 67.8271 83.571 68.2784Z" fill="url(#paint19_radial_59_31658)" fill-opacity="0.4"/>
<g opacity="0.5">
<path d="M41.1865 67.1822C50.4501 66.4411 51.6852 60.0183 57.6139 57.5481C71.9243 51.5855 75.2765 60.2654 82.8109 54.7072C87.6363 51.1473 86.8868 47.1729 86.8868 47.1729" stroke="url(#paint20_linear_59_31658)" stroke-width="1.97623" stroke-linecap="round" stroke-linejoin="round"/>
</g>
<g opacity="0.5">
<path d="M16.2366 54.2134C16.2366 54.2134 17.0834 57.7392 23.7709 56.1896C33.8991 53.8429 41.3843 45.5933 44.5194 31.4858C46.4956 22.5927 53.1674 22.4702 53.1674 22.4702" stroke="url(#paint21_linear_59_31658)" stroke-width="1.97623" stroke-linecap="round" stroke-linejoin="round"/>
</g>
<path d="M87.6892 48.0996C87.6892 48.0996 96.6109 53.1856 101.447 48.0996C106.283 43.0135 93.239 31.9513 88.5047 30.6035L87.6892 48.0996Z" fill="url(#paint22_linear_59_31658)" fill-opacity="0.4"/>
<path d="M86.8687 47.7459C89.7659 15.607 81.2256 1.79584 71.961 2.42428C61.486 3.13474 56.5827 23.1641 53.3269 22.9282" stroke="url(#paint23_linear_59_31658)" stroke-width="1.97623" stroke-linecap="round" stroke-linejoin="round"/>
<path d="M93.5367 37.8002C93.9058 38.1139 93.8344 38.8041 93.3774 39.3417C92.9204 39.8792 92.2509 40.0608 91.8819 39.747C91.5128 39.4333 91.5842 38.7434 92.0412 38.2058C92.4982 37.6683 93.1677 37.4865 93.5367 37.8002Z" fill="#FFBA00"/>
<path d="M95.6468 37.9953C95.8314 38.1522 95.7958 38.4973 95.5673 38.766C95.3388 39.0348 95.0041 39.1257 94.8195 38.9689C94.635 38.812 94.6706 38.4669 94.8991 38.1981C95.1276 37.9294 95.4623 37.8385 95.6468 37.9953Z" fill="#FFBA00"/>
<path d="M28.03 33.2134C28.5924 33.6914 28.4047 34.8366 27.6105 35.7709C26.8163 36.7051 25.7165 37.0749 25.1541 36.5969C24.5916 36.1189 24.7796 34.9737 25.5738 34.0394C26.368 33.1052 27.4675 32.7354 28.03 33.2134Z" fill="#FFBA00"/>
<path d="M23.8169 37.2022C24.0983 37.4413 24.0042 38.0139 23.6072 38.4811C23.2102 38.9482 22.6603 39.1332 22.379 38.8941C22.0976 38.655 22.1917 38.0824 22.5887 37.6152C22.9857 37.1481 23.5356 36.9631 23.8169 37.2022Z" fill="#FFBA00"/>
<path d="M63.0758 49.6103C63.3811 49.8699 63.3431 50.4159 62.9911 50.8301C62.639 51.2444 62.1062 51.3699 61.8009 51.1103C61.4955 50.8506 61.5333 50.3047 61.8854 49.8904C62.2374 49.4762 62.7705 49.3507 63.0758 49.6103Z" fill="#FFBA00"/>
<path d="M53.4298 22.982C50.7473 22.7878 52.6882 2.82295 42.3498 1.16341C33.9844 -0.179436 27.7761 11.0008 23.4205 24.0118C20.7617 31.9543 15.9138 37.7819 15.0885 44.6479C14.2293 51.7964 17.1111 54.7867 16.0126 57.5514C14.5932 61.1239 13.9581 66.8439 21.6881 68.0519C31.8405 69.6383 39.4616 66.3948 44.0153 67.2604C47.323 67.8891 55.1108 74.7505 67.1105 73.9484C77.0032 73.2871 79.8782 68.8559 83.886 68.1484C92.9979 66.54 99.1022 62.3697 100.85 58.581C103.455 52.9344 103.595 40.2315 95.7737 34.7586C91.9193 32.0615 88.2505 32.0548 87.2732 28.319" stroke="url(#paint24_linear_59_31658)" stroke-width="1.97623" stroke-linecap="round" stroke-linejoin="round"/>
<path d="M61.6325 26.6801C66.1309 27.5229 68.8927 32.9289 67.8011 38.7543C66.7095 44.5798 62.1777 48.6189 57.6793 47.7761C53.181 46.9332 50.4192 41.5272 51.5108 35.7018C52.6024 29.8764 57.1341 25.8372 61.6325 26.6801Z" fill="url(#paint25_radial_59_31658)" fill-opacity="0.5"/>
<path d="M59.6066 36.424C58.0607 36.2706 56.9772 37.9102 56.6978 39.6364C56.434 41.2665 56.887 42.9738 58.3455 43.3211C59.9156 43.6951 60.9786 42.1667 61.3116 40.4536C61.6673 38.6228 61.1895 36.5812 59.6066 36.424Z" stroke="url(#paint26_linear_59_31658)" stroke-width="1.97623" stroke-miterlimit="10"/>
<path d="M59.6242 36.3265C58.1265 36.1783 57.0455 37.4764 56.6404 38.9818C56.1737 40.7162 56.6046 42.7258 58.3301 43.1166C60.0002 43.4948 61.1212 42.0274 61.475 40.36C61.8596 38.5463 61.3364 36.496 59.6242 36.3265Z" fill="black"/>
<path d="M57.399 40.9931C57.584 42.309 59.5768 42.9081 60.1704 41.4289C60.764 39.9497 57.1898 39.5053 57.399 40.9931Z" fill="url(#paint27_linear_59_31658)" fill-opacity="0.9"/>
<path d="M60.3562 38.3169C60.2238 37.4308 58.8313 37.0227 58.4205 38.0168C58.0097 39.0108 60.5059 39.3186 60.3562 38.3169Z" fill="url(#paint28_linear_59_31658)" fill-opacity="0.9"/>
<path d="M38.0266 24.2714C42.525 25.1142 45.2868 30.5202 44.1951 36.3456C43.1035 42.1711 38.5718 46.2102 34.0734 45.3674C29.575 44.5243 26.8132 39.1185 27.9048 33.2931C28.9965 27.4677 33.5282 23.4285 38.0266 24.2714Z" fill="url(#paint29_radial_59_31658)" fill-opacity="0.5"/>
<path d="M35.9775 33.8543C34.4541 33.7031 33.3985 35.3659 33.1658 37.0704C32.9578 38.5936 33.4072 40.1501 34.7673 40.4739C36.2772 40.8336 37.2984 39.3606 37.6158 37.7126C37.954 35.9578 37.4943 34.0047 35.9775 33.8543Z" stroke="url(#paint30_linear_59_31658)" stroke-width="1.97623" stroke-miterlimit="10"/>
<path d="M35.9961 33.7563C34.5181 33.61 33.4601 34.9235 33.0908 36.4178C32.683 38.0682 33.1148 39.9394 34.7471 40.309C36.4262 40.6891 37.5301 39.1366 37.8209 37.4464C38.1129 35.7493 37.585 33.9134 35.9961 33.7563Z" fill="black"/>
<path d="M33.8486 38.2602C34.0272 39.5302 35.9504 40.1085 36.5232 38.6809C37.0961 37.2533 33.6466 36.8245 33.8486 38.2602Z" fill="url(#paint31_linear_59_31658)" fill-opacity="0.9"/>
<path d="M36.7024 35.6772C36.5747 34.822 35.2307 34.4285 34.8342 35.3877C34.4377 36.3471 36.847 36.6441 36.7024 35.6772Z" fill="url(#paint32_linear_59_31658)" fill-opacity="0.9"/>
<path d="M99.3617 12.2799C99.6559 11.6225 101.1 10.9358 102.11 11.3844C103.499 12.0019 106.217 14.4414 106.217 14.4414C106.217 14.4414 101.38 14.6034 99.9793 14.287C99.022 14.0708 98.8367 13.4532 99.3617 12.2799Z" fill="url(#paint33_linear_59_31658)"/>
<path d="M99.3617 12.2799C99.6559 11.6225 101.1 10.9358 102.11 11.3844C103.499 12.0019 106.217 14.4414 106.217 14.4414C106.217 14.4414 101.38 14.6034 99.9793 14.287C99.022 14.0708 98.8367 13.4532 99.3617 12.2799Z" stroke="#0A75A6" stroke-width="1.97623" stroke-linecap="round" stroke-linejoin="round"/>
<path d="M108.965 13.5767C110.773 13.5767 112.701 14.4062 112.701 15.4294C112.701 16.4526 110.587 17.3438 108.78 17.3438C106.972 17.3438 106.155 16.4526 106.155 15.4294C106.155 14.4062 107.157 13.5767 108.965 13.5767Z" fill="url(#paint34_linear_59_31658)"/>
<path d="M108.965 13.5767C110.773 13.5767 112.701 14.4062 112.701 15.4294C112.701 16.4526 110.587 17.3438 108.78 17.3438C106.972 17.3438 106.155 16.4526 106.155 15.4294C106.155 14.4062 107.157 13.5767 108.965 13.5767Z" stroke="#534D4D" stroke-width="1.97623"/>
<path d="M112.948 11.8165C112.547 10.7975 111.466 10.8593 110.478 11.3533C109.49 11.8474 106.279 14.1941 106.279 14.1941C106.279 14.1941 110.91 14.6264 112.207 14.0089C113.504 13.3913 113.252 12.5875 112.948 11.8165Z" fill="url(#paint35_linear_59_31658)"/>
<path d="M112.948 11.8165C112.547 10.7975 111.466 10.8593 110.478 11.3533C109.49 11.8474 106.279 14.1941 106.279 14.1941C106.279 14.1941 110.91 14.6264 112.207 14.0089C113.504 13.3913 113.252 12.5875 112.948 11.8165Z" stroke="#0A75A6" stroke-width="1.97623" stroke-linecap="round" stroke-linejoin="round"/>
<path d="M101.708 20.2464L103.561 16.4175" stroke="#4D4646" stroke-width="1.97623"/>
<path d="M102.913 13.1753C104.157 13.1753 105.167 14.1854 105.167 15.4294C105.167 16.6735 104.157 17.6836 102.913 17.6836C101.669 17.6836 100.659 16.6735 100.659 15.4294C100.659 14.1854 101.669 13.1753 102.913 13.1753Z" fill="url(#paint36_linear_59_31658)"/>
<path d="M102.913 13.1753C104.157 13.1753 105.167 14.1854 105.167 15.4294C105.167 16.6735 104.157 17.6836 102.913 17.6836C101.669 17.6836 100.659 16.6735 100.659 15.4294C100.659 14.1854 101.669 13.1753 102.913 13.1753Z" stroke="#416A0C" stroke-width="1.97623"/>
<path d="M105.63 13.1133C106.874 13.1133 107.884 14.1234 107.884 15.3674C107.884 16.6115 106.874 17.6216 105.63 17.6216C104.386 17.6216 103.376 16.6115 103.376 15.3674C103.376 14.1234 104.386 13.1133 105.63 13.1133Z" fill="url(#paint37_linear_59_31658)"/>
<path d="M105.63 13.1133C106.874 13.1133 107.884 14.1234 107.884 15.3674C107.884 16.6115 106.874 17.6216 105.63 17.6216C104.386 17.6216 103.376 16.6115 103.376 15.3674C103.376 14.1234 104.386 13.1133 105.63 13.1133Z" stroke="#416A0C" stroke-width="1.97623"/>
<defs>
<linearGradient id="paint0_linear_59_31658" x1="56.4819" y1="51.125" x2="56.4819" y2="77.3355" gradientUnits="userSpaceOnUse">
<stop stop-color="#F6DEF6"/>
<stop offset="0.57" stop-color="#FAEEFA"/>
<stop offset="0.83" stop-color="#FEFEFE"/>
</linearGradient>
<linearGradient id="paint1_linear_59_31658" x1="56.482" y1="81.0156" x2="56.482" y2="46.2059" gradientUnits="userSpaceOnUse">
<stop offset="0.24" stop-color="white" stop-opacity="0.4"/>
<stop offset="0.68" stop-color="white" stop-opacity="0.7"/>
<stop offset="1" stop-color="white"/>
</linearGradient>
<linearGradient id="paint2_linear_59_31658" x1="56.4819" y1="83.7328" x2="56.4819" y2="44.4343" gradientUnits="userSpaceOnUse">
<stop offset="0.32" stop-color="#E5A5E5"/>
<stop offset="0.56" stop-color="#EDC2ED"/>
<stop offset="1" stop-color="#F6DEF6"/>
</linearGradient>
<linearGradient id="paint3_linear_59_31658" x1="57.2232" y1="52.8545" x2="50.8157" y2="82.9693" gradientUnits="userSpaceOnUse">
<stop offset="0.27" stop-color="#D0A38D"/>
<stop offset="0.75" stop-color="#D0A38D" stop-opacity="0.5"/>
<stop offset="1" stop-color="#D0A38D" stop-opacity="0"/>
</linearGradient>
<linearGradient id="paint4_linear_59_31658" x1="56.4818" y1="73.6049" x2="56.4818" y2="56.3692" gradientUnits="userSpaceOnUse">
<stop offset="0.36" stop-color="#F2CBF2"/>
<stop offset="0.69" stop-color="#DFD0F2"/>
<stop offset="1" stop-color="#CBD4F2"/>
</linearGradient>
<linearGradient id="paint5_linear_59_31658" x1="59.1989" y1="73.6049" x2="60.6811" y2="7.01556" gradientUnits="userSpaceOnUse">
<stop offset="0.12" stop-color="#783E00"/>
<stop offset="0.36" stop-color="#A05D21"/>
<stop offset="0.7" stop-color="#C87B43"/>
<stop offset="0.85" stop-color="#E39721"/>
<stop offset="1" stop-color="#FFB400"/>
</linearGradient>
<linearGradient id="paint6_linear_59_31658" x1="59.1991" y1="73.6049" x2="60.6813" y2="7.01566" gradientUnits="userSpaceOnUse">
<stop offset="0.12" stop-color="#783E00"/>
<stop offset="0.36" stop-color="#A05D21"/>
<stop offset="0.7" stop-color="#C87B43"/>
<stop offset="0.85" stop-color="#E39721"/>
<stop offset="1" stop-color="#FFB400"/>
</linearGradient>
<linearGradient id="paint7_linear_59_31658" x1="75.2787" y1="26.977" x2="84.6297" y2="21.9786" gradientUnits="userSpaceOnUse">
<stop stop-color="#744900" stop-opacity="0"/>
<stop offset="0.5" stop-color="#744900" stop-opacity="0.5"/>
<stop offset="1" stop-color="#744900"/>
</linearGradient>
<linearGradient id="paint8_linear_59_31658" x1="43.5734" y1="15.3543" x2="49.5144" y2="9.67835" gradientUnits="userSpaceOnUse">
<stop stop-color="#744900" stop-opacity="0"/>
<stop offset="0.5" stop-color="#744900" stop-opacity="0.5"/>
<stop offset="1" stop-color="#744900"/>
</linearGradient>
<radialGradient id="paint9_radial_59_31658" cx="0" cy="0" r="1" gradientUnits="userSpaceOnUse" gradientTransform="translate(49.6659 25.506) scale(39.6491 39.6491)">
<stop offset="0.69" stop-color="#C88923" stop-opacity="0"/>
<stop offset="0.87" stop-color="#C88923" stop-opacity="0.5"/>
<stop offset="1" stop-color="#C88923"/>
</radialGradient>
<radialGradient id="paint10_radial_59_31658" cx="0" cy="0" r="1" gradientUnits="userSpaceOnUse" gradientTransform="translate(42.4535 61.6419) scale(19.7283 9.2723)">
<stop stop-color="#744900"/>
<stop offset="0.64" stop-color="#744900" stop-opacity="0.5"/>
<stop offset="1" stop-color="#744900" stop-opacity="0"/>
</radialGradient>
<radialGradient id="paint11_radial_59_31658" cx="0" cy="0" r="1" gradientUnits="userSpaceOnUse" gradientTransform="translate(50.5529 43.3895) scale(26.3902 17.1536)">
<stop stop-color="#FFBD59"/>
<stop offset="0.49" stop-color="#FFBD59" stop-opacity="0.5"/>
<stop offset="1" stop-color="#FFBD59" stop-opacity="0"/>
</radialGradient>
<radialGradient id="paint12_radial_59_31658" cx="0" cy="0" r="1" gradientUnits="userSpaceOnUse" gradientTransform="translate(49.9368 34.6863) scale(16.869 10.6275)">
<stop stop-color="white" stop-opacity="0.5"/>
<stop offset="0.64" stop-color="white" stop-opacity="0.25"/>
<stop offset="1" stop-color="white" stop-opacity="0"/>
</radialGradient>
<radialGradient id="paint13_radial_59_31658" cx="0" cy="0" r="1" gradientUnits="userSpaceOnUse" gradientTransform="translate(49.9368 34.6863) scale(16.869 10.6275)">
<stop stop-color="#FFCF5D"/>
<stop offset="0.5" stop-color="#FFCF5D"/>
<stop offset="1" stop-color="#FFCF5D"/>
</radialGradient>
<linearGradient id="paint14_linear_59_31658" x1="58.4581" y1="73.1114" x2="58.4581" y2="1.80263" gradientUnits="userSpaceOnUse">
<stop offset="0.24" stop-color="#FFC463" stop-opacity="0.2"/>
<stop offset="0.74" stop-color="#FFC463" stop-opacity="0.6"/>
<stop offset="1" stop-color="#FFC463"/>
</linearGradient>
<linearGradient id="paint15_linear_59_31658" x1="46.6008" y1="24.6929" x2="46.8014" y2="1.02288" gradientUnits="userSpaceOnUse">
<stop offset="0.12" stop-color="#C88923"/>
<stop offset="0.41" stop-color="#C88923" stop-opacity="0.5"/>
<stop offset="0.81" stop-color="#C88923" stop-opacity="0"/>
</linearGradient>
<radialGradient id="paint16_radial_59_31658" cx="0" cy="0" r="1" gradientUnits="userSpaceOnUse" gradientTransform="translate(22.9764 63.7786) scale(12.8829 8.11624)">
<stop offset="0.21" stop-color="#EA9500"/>
<stop offset="0.65" stop-color="#EA9500" stop-opacity="0.5"/>
<stop offset="0.89" stop-color="#EA9500" stop-opacity="0"/>
</radialGradient>
<radialGradient id="paint17_radial_59_31658" cx="0" cy="0" r="1" gradientUnits="userSpaceOnUse" gradientTransform="translate(64.5178 67.5694) scale(16.9913 10.7045)">
<stop offset="0.2" stop-color="#EA9500"/>
<stop offset="0.6" stop-color="#EA9500" stop-opacity="0.5"/>
<stop offset="0.89" stop-color="#EA9500" stop-opacity="0"/>
</radialGradient>
<radialGradient id="paint18_radial_59_31658" cx="0" cy="0" r="1" gradientUnits="userSpaceOnUse" gradientTransform="translate(80.7567 62.5949) scale(10.7987 10.7987)">
<stop stop-color="#744900"/>
<stop offset="0.64" stop-color="#744900" stop-opacity="0.5"/>
<stop offset="1" stop-color="#744900" stop-opacity="0"/>
</radialGradient>
<radialGradient id="paint19_radial_59_31658" cx="0" cy="0" r="1" gradientUnits="userSpaceOnUse" gradientTransform="translate(91.8752 62.2676) rotate(-11.9999) scale(9.79863 5.8237)">
<stop offset="0.2" stop-color="#EA9500"/>
<stop offset="0.6" stop-color="#EA9500" stop-opacity="0.5"/>
<stop offset="0.89" stop-color="#EA9500" stop-opacity="0"/>
</radialGradient>
<linearGradient id="paint20_linear_59_31658" x1="56.6258" y1="72.8638" x2="64.5307" y2="-4.70317" gradientUnits="userSpaceOnUse">
<stop offset="0.27" stop-color="#654000"/>
<stop offset="0.5" stop-color="#975E00"/>
<stop offset="0.81" stop-color="#CA7C00"/>
</linearGradient>
<linearGradient id="paint21_linear_59_31658" x1="56.6258" y1="72.8641" x2="64.5307" y2="-4.70294" gradientUnits="userSpaceOnUse">
<stop offset="0.27" stop-color="#654000"/>
<stop offset="0.5" stop-color="#975E00"/>
<stop offset="0.81" stop-color="#CA7C00"/>
</linearGradient>
<linearGradient id="paint22_linear_59_31658" x1="95.2653" y1="48.1608" x2="92.6849" y2="33.5824" gradientUnits="userSpaceOnUse">
<stop stop-color="#744900" stop-opacity="0"/>
<stop offset="0.5" stop-color="#744900" stop-opacity="0.5"/>
<stop offset="1" stop-color="#744900"/>
</linearGradient>
<linearGradient id="paint23_linear_59_31658" x1="58.4582" y1="74.84" x2="58.4582" y2="-0.0959016" gradientUnits="userSpaceOnUse">
<stop offset="0.27" stop-color="#654000"/>
<stop offset="0.5" stop-color="#975E00"/>
<stop offset="0.81" stop-color="#CA7C00"/>
</linearGradient>
<linearGradient id="paint24_linear_59_31658" x1="58.5611" y1="74.8938" x2="58.5611" y2="-0.0420891" gradientUnits="userSpaceOnUse">
<stop offset="0.27" stop-color="#654000"/>
<stop offset="0.5" stop-color="#975E00"/>
<stop offset="0.81" stop-color="#CA7C00"/>
</linearGradient>
<radialGradient id="paint25_radial_59_31658" cx="0" cy="0" r="1" gradientUnits="userSpaceOnUse" gradientTransform="translate(59.5355 37.4191) scale(10.2936)">
<stop stop-color="#D7AD98"/>
<stop offset="0.39" stop-color="#D7AD98" stop-opacity="0.5"/>
<stop offset="0.85" stop-color="#D7AD98" stop-opacity="0"/>
</radialGradient>
<linearGradient id="paint26_linear_59_31658" x1="58.3122" y1="44.4139" x2="59.7555" y2="36.736" gradientUnits="userSpaceOnUse">
<stop stop-color="white"/>
<stop offset="0.32" stop-color="white" stop-opacity="0.6"/>
<stop offset="0.76" stop-color="white" stop-opacity="0.2"/>
</linearGradient>
<linearGradient id="paint27_linear_59_31658" x1="59.08" y1="39.8202" x2="58.7349" y2="42.3416" gradientUnits="userSpaceOnUse">
<stop stop-color="#693494" stop-opacity="0"/>
<stop offset="0.44" stop-color="#69348F" stop-opacity="0.5"/>
<stop offset="1" stop-color="#693489"/>
</linearGradient>
<linearGradient id="paint28_linear_59_31658" x1="59.2399" y1="38.9967" x2="59.4014" y2="37.4459" gradientUnits="userSpaceOnUse">
<stop stop-color="white" stop-opacity="0"/>
<stop offset="0.62" stop-color="white" stop-opacity="0.5"/>
<stop offset="1" stop-color="white"/>
</linearGradient>
<radialGradient id="paint29_radial_59_31658" cx="0" cy="0" r="1" gradientUnits="userSpaceOnUse" gradientTransform="translate(36.0051 34.7869) scale(9.44569)">
<stop stop-color="#D7AD98"/>
<stop offset="0.39" stop-color="#D7AD98" stop-opacity="0.5"/>
<stop offset="0.85" stop-color="#D7AD98" stop-opacity="0"/>
</radialGradient>
<linearGradient id="paint30_linear_59_31658" x1="34.9229" y1="41.6246" x2="36.0546" y2="35.5398" gradientUnits="userSpaceOnUse">
<stop stop-color="white"/>
<stop offset="0.32" stop-color="white" stop-opacity="0.6"/>
<stop offset="0.76" stop-color="white" stop-opacity="0.2"/>
</linearGradient>
<linearGradient id="paint31_linear_59_31658" x1="35.4709" y1="37.2185" x2="35.0712" y2="39.5682" gradientUnits="userSpaceOnUse">
<stop stop-color="#693494" stop-opacity="0"/>
<stop offset="0.44" stop-color="#69348F" stop-opacity="0.5"/>
<stop offset="1" stop-color="#693489"/>
</linearGradient>
<linearGradient id="paint32_linear_59_31658" x1="35.6331" y1="36.2849" x2="35.9112" y2="34.8126" gradientUnits="userSpaceOnUse">
<stop stop-color="white" stop-opacity="0"/>
<stop offset="0.62" stop-color="white" stop-opacity="0.5"/>
<stop offset="1" stop-color="white"/>
</linearGradient>
<linearGradient id="paint33_linear_59_31658" x1="107.761" y1="14.2561" x2="111.528" y2="9.43903" gradientUnits="userSpaceOnUse">
<stop stop-color="#43AFE2"/>
<stop offset="0.5" stop-color="#2B9ED3" stop-opacity="0.75"/>
<stop offset="1" stop-color="#138CC5" stop-opacity="0.5"/>
</linearGradient>
<linearGradient id="paint34_linear_59_31658" x1="109.799" y1="13.8237" x2="109.922" y2="17.5291" gradientUnits="userSpaceOnUse">
<stop stop-color="#A4A4A4"/>
<stop offset="0.5" stop-color="#898989"/>
<stop offset="1" stop-color="#6E6E6E"/>
</linearGradient>
<linearGradient id="paint35_linear_59_31658" x1="107.761" y1="14.2559" x2="111.528" y2="9.43884" gradientUnits="userSpaceOnUse">
<stop stop-color="#43AFE2"/>
<stop offset="0.5" stop-color="#2B9ED3" stop-opacity="0.75"/>
<stop offset="1" stop-color="#138CC5" stop-opacity="0.5"/>
</linearGradient>
<linearGradient id="paint36_linear_59_31658" x1="103.036" y1="13.8855" x2="103.283" y2="17.5292" gradientUnits="userSpaceOnUse">
<stop stop-color="#A8E243"/>
<stop offset="0.5" stop-color="#85C328"/>
<stop offset="1" stop-color="#62A40E"/>
</linearGradient>
<linearGradient id="paint37_linear_59_31658" x1="105.754" y1="13.8235" x2="106.001" y2="17.4672" gradientUnits="userSpaceOnUse">
<stop stop-color="#A8E243"/>
<stop offset="0.5" stop-color="#85C328"/>
<stop offset="1" stop-color="#62A40E"/>
</linearGradient>
</defs>
</svg>
