<svg width="114" height="83" viewBox="0 0 114 83" fill="none" xmlns="http://www.w3.org/2000/svg">
<path d="M77.6435 3.47367C77.6435 4.83983 75.7388 5.94733 73.3893 5.94733C71.0398 5.94733 69.1351 4.83983 69.1351 3.47367C69.1351 2.1075 71.0398 1 73.3893 1C75.7388 1 77.6435 2.1075 77.6435 3.47367Z" fill="url(#paint0_linear_59_33889)"/>
<path d="M77.6435 3.47367C77.6435 4.83983 75.7388 5.94733 73.3893 5.94733C71.0398 5.94733 69.1351 4.83983 69.1351 3.47367C69.1351 2.1075 71.0398 1 73.3893 1C75.7388 1 77.6435 2.1075 77.6435 3.47367Z" stroke="#3C3D52" stroke-width="1.8071" stroke-linecap="round" stroke-linejoin="round"/>
<path d="M109.587 62.216C113.723 54.2792 120.512 14.0603 85.1902 5.74609C91.1616 16.8776 88.7592 37.39 89.5691 59.6695C93.0947 61.2567 103.63 62.9391 107.765 63.2445C108.52 63.3002 109.232 62.8973 109.587 62.216Z" fill="url(#paint1_linear_59_33889)"/>
<path d="M91.7956 54.4875C91.7956 54.4875 96.7213 39.0704 94.1472 16.3525C93.9564 14.6685 95.2492 13.4968 96.7768 14.1718C98.8265 15.0777 102.725 19.2093 105.052 22.8088C111.799 33.2456 111.412 51.3811 107.849 59.2908C107.459 60.1559 107.281 62.1592 95.2273 60.824C99.2138 62.1592 107.281 62.2883 108.309 62.2782C112.767 54.479 116.51 38.086 107.36 21.408C100.228 8.40874 87.5923 7.21631 87.5923 7.21631C87.5923 7.21631 95.5706 17.1729 91.7956 54.4875Z" fill="url(#paint2_linear_59_33889)"/>
<path d="M109.587 62.216C113.723 54.2792 120.512 14.0603 85.1902 5.74609C91.1616 16.8776 88.7592 37.39 89.5691 59.6695C93.0947 61.2567 103.63 62.9391 107.765 63.2445C108.52 63.3002 109.232 62.8973 109.587 62.216Z" stroke="#0E0B19" stroke-width="1.8071" stroke-linecap="round" stroke-linejoin="round"/>
<path d="M89.6566 59.6688C93.2411 56.6416 96.0416 22.1975 85.1902 5.74533C66.7603 1.49219 50.7721 4.20387 41.0845 11.731C26.4878 23.0723 25.1642 52.5222 25.1642 52.5222C25.1642 52.5222 83.3415 65.4262 89.6566 59.6688Z" fill="url(#paint3_linear_59_33889)"/>
<path d="M89.6566 59.6688C93.2411 56.6416 96.0416 22.1975 85.1902 5.74533C66.7603 1.49219 50.7721 4.20387 41.0845 11.731C26.4878 23.0723 25.1642 52.5222 25.1642 52.5222C25.1642 52.5222 83.3415 65.4262 89.6566 59.6688Z" stroke="#0E0B19" stroke-width="1.8071" stroke-linecap="round" stroke-linejoin="round"/>
<path d="M84.5339 6.55969C66.1041 2.30655 50.7723 4.20452 41.0847 11.7316C26.488 23.073 78.9946 61.683 89.1108 58.8126C92.3687 56.1791 94.5724 20.8255 84.5339 6.55969Z" fill="url(#paint4_linear_59_33889)"/>
<path d="M70.3482 3.82764C58.4288 4.5479 30.1567 4.3313 27.5183 48.8818C43.2003 40.5857 54.0538 48.9102 54.0538 48.9102C54.0538 48.9102 57.6941 18.9495 70.3482 3.82764Z" fill="url(#paint5_linear_59_33889)"/>
<path d="M66.0736 3.771C56.863 4.0653 48.2566 7.42005 42.3755 11.9894C27.7787 23.3308 27.3257 51.9798 27.3257 51.9798" stroke="white" stroke-width="1.8071" stroke-linecap="round" stroke-linejoin="round"/>
<g opacity="0.3">
<path d="M67.281 3.74023C61.3049 4.58286 51.7128 13.4963 47.1458 46.4596" stroke="#2C3077" stroke-width="1.54895" stroke-linecap="round" stroke-linejoin="round"/>
</g>
<path d="M25.1641 52.5221C25.1641 52.5221 26.4877 23.0723 41.0844 11.7309C48.6965 5.81653 60.1982 2.87534 73.7179 3.94953C77.2061 4.26474 79.7944 4.6543 82.4245 5.15564" stroke="url(#paint6_linear_59_33889)" stroke-width="1.8071" stroke-linecap="round" stroke-linejoin="round"/>
<path d="M39.6733 28.245L59.3883 20.1799C60.209 19.9019 60.9422 20.7535 60.6912 21.694L55.8567 39.8182C55.3776 41.5597 54.0062 41.7314 52.6672 40.3823L46.8302 34.5015C46.2582 33.925 46.3173 32.8668 46.9524 32.3247L54.3839 25.9157C55.0208 25.3018 54.6111 24.6071 53.6872 25.2091L44.6744 30.9051C43.6688 31.5058 42.7764 31.5962 41.9678 31.2019L39.5293 30.0361C38.8225 29.6917 38.9185 28.5008 39.6733 28.245Z" fill="url(#paint7_linear_59_33889)"/>
<path d="M31.5636 58.1122C26.488 62.1377 11.1911 78.6946 4.54021 75.8944C-0.737048 73.6724 5.20109 63.112 15.4437 58.7687C20.1352 56.7794 25.73 56.0945 31.5636 58.1122Z" fill="url(#paint8_linear_59_33889)"/>
<path d="M31.5636 58.1122C26.488 62.1377 11.1911 78.6946 4.54021 75.8944C-0.737048 73.6724 5.20109 63.112 15.4437 58.7687C20.1352 56.7794 25.73 56.0945 31.5636 58.1122Z" stroke="#0E0B19" stroke-width="1.8071" stroke-linecap="round" stroke-linejoin="round"/>
<path d="M25.1226 50.2168C11.9847 55.4029 -2.25089 64.9031 3.25148 73.8802C1.40953 67.5747 7.02729 60.0998 16.8615 58.7424C39.765 55.5807 49.503 80.3716 68.1778 80.3577C85.5542 80.3448 96.0416 61.3328 96.0416 61.3328C57.9086 56.0821 54.1761 38.1949 25.1226 50.2168Z" fill="url(#paint9_linear_59_33889)"/>
<path d="M25.1226 50.2168C11.9847 55.4029 -2.25089 64.9031 3.25148 73.8802C1.40953 67.5747 7.02729 60.0998 16.8615 58.7424C39.765 55.5807 49.503 80.3716 68.1778 80.3577C85.5542 80.3448 96.0416 61.3328 96.0416 61.3328C57.9086 56.0821 54.1761 38.1949 25.1226 50.2168Z" stroke="#0E0B19" stroke-width="1.8071" stroke-linecap="round" stroke-linejoin="round"/>
<path d="M41.4872 67.5747C41.4872 67.5747 55.2615 53.3691 78.9944 59.8289C49.9762 46.4559 45.9474 45.7258 35.2039 47.7247C30.6113 48.5792 23.8427 51.4437 18.0816 54.1717C11.9442 57.0778 6.95038 59.8289 6.95038 59.8289C16.5608 57.4069 29.3757 57.601 41.4872 67.5747Z" fill="url(#paint10_linear_59_33889)"/>
<g opacity="0.3">
<path d="M89.8504 61.6135C87.0969 64.9176 79.0824 72.9179 68.1298 72.2103C56.1947 71.4392 46.4686 59.58 33.3178 55.2507C29.44 53.9741 23.7574 53.2639 17.3515 54.4191" stroke="#0E0B19" stroke-width="1.54895" stroke-linecap="round" stroke-linejoin="round"/>
</g>
<g opacity="0.3">
<path d="M82.9849 60.5546C80.3597 63.2154 76.6598 66.6386 70.2634 66.8756C51.3758 67.5757 44.9524 49.0119 21.6833 52.1097" stroke="#0E0B19" stroke-width="1.54895" stroke-linecap="round" stroke-linejoin="round"/>
</g>
<path d="M45.1313 46.1353C39.1276 46.4112 32.3489 48.8312 26.3488 51.3139C15.1902 55.7186 3.23984 63.2356 3.26359 70.9011" stroke="#D9D9FF" stroke-opacity="0.4" stroke-width="1.8071" stroke-linecap="round" stroke-linejoin="round"/>
<path d="M58.0276 49.5514C45.5815 44.0878 36.2251 45.6225 25.1225 50.2167C13.9639 54.6214 2.01358 62.1384 2.03733 69.8039" stroke="url(#paint11_linear_59_33889)" stroke-width="1.8071" stroke-linecap="round" stroke-linejoin="round"/>
<path d="M3.56849 75.1593C2.92955 70.7838 6.99037 62.0991 16.7634 60.355C38.3542 56.502 49.433 81.487 68.1079 81.473C86.1353 80.4097 96.0415 61.3324 96.0415 61.3324C96.0415 61.3324 81.4858 78.1826 67.1979 77.2594C51.7435 76.2611 40.1393 53.7366 17.8766 56.3969C10.1463 57.3206 2.27719 62.1259 1.15266 68.6772C0.260722 73.8726 3.56849 75.1593 3.56849 75.1593Z" fill="url(#paint12_linear_59_33889)"/>
<path d="M3.56849 75.1593C2.92955 70.7838 6.99037 62.0991 16.7634 60.355C38.3542 56.502 49.433 81.487 68.1079 81.473C86.1353 80.4097 96.0415 61.3324 96.0415 61.3324C96.0415 61.3324 81.4858 78.1826 67.1979 77.2594C51.7435 76.2611 40.1393 53.7366 17.8766 56.3969C10.1463 57.3206 2.27719 62.1259 1.15266 68.6772C0.260722 73.8726 3.56849 75.1593 3.56849 75.1593Z" stroke="#14111E" stroke-width="1.8071" stroke-linecap="round" stroke-linejoin="round"/>
<path d="M67.1979 77.2594C51.7436 76.2611 40.1394 53.7366 17.8766 56.3969C10.1464 57.3206 2.27722 62.1259 1.15269 68.6772C0.706075 71.2781 1.31223 72.8994 2.02887 73.8701" stroke="url(#paint13_linear_59_33889)" stroke-width="1.8071" stroke-linecap="round" stroke-linejoin="round"/>
<defs>
<linearGradient id="paint0_linear_59_33889" x1="73.4626" y1="3.943" x2="73.4802" y2="1.07203" gradientUnits="userSpaceOnUse">
<stop offset="0.21" stop-color="#3C364E"/>
<stop offset="0.61" stop-color="#6A6787"/>
<stop offset="0.83" stop-color="#9898C1"/>
</linearGradient>
<linearGradient id="paint1_linear_59_33889" x1="94.567" y1="23.5634" x2="105.443" y2="61.867" gradientUnits="userSpaceOnUse">
<stop stop-color="#2F2943"/>
<stop offset="0.63" stop-color="#252038"/>
<stop offset="1" stop-color="#1B172C"/>
</linearGradient>
<linearGradient id="paint2_linear_59_33889" x1="92.7598" y1="7.81575" x2="92.1302" y2="59.8446" gradientUnits="userSpaceOnUse">
<stop stop-color="#5C5879"/>
<stop offset="0.54" stop-color="#45405F"/>
<stop offset="0.89" stop-color="#2E2844"/>
</linearGradient>
<linearGradient id="paint3_linear_59_33889" x1="37.5142" y1="16.8505" x2="79.5254" y2="47.5816" gradientUnits="userSpaceOnUse">
<stop stop-color="white"/>
<stop offset="0.6" stop-color="#BEC3D2"/>
<stop offset="1" stop-color="#7E87A5"/>
</linearGradient>
<linearGradient id="paint4_linear_59_33889" x1="64.7498" y1="23.4339" x2="69.6945" y2="4.13998" gradientUnits="userSpaceOnUse">
<stop stop-color="white" stop-opacity="0"/>
<stop offset="0.46" stop-color="white" stop-opacity="0.5"/>
<stop offset="0.76" stop-color="white"/>
</linearGradient>
<linearGradient id="paint5_linear_59_33889" x1="38.5468" y1="22.7883" x2="55.5289" y2="28.9376" gradientUnits="userSpaceOnUse">
<stop stop-color="white"/>
<stop offset="0.6" stop-color="white" stop-opacity="0.5"/>
<stop offset="1" stop-color="white" stop-opacity="0"/>
</linearGradient>
<linearGradient id="paint6_linear_59_33889" x1="75.1568" y1="5.76386" x2="83.0952" y2="6.21564" gradientUnits="userSpaceOnUse">
<stop stop-color="#7D81A0"/>
<stop offset="0.5" stop-color="#45465C"/>
<stop offset="1" stop-color="#0E0B19"/>
</linearGradient>
<linearGradient id="paint7_linear_59_33889" x1="49.1312" y1="24.3368" x2="57.3021" y2="35.7076" gradientUnits="userSpaceOnUse">
<stop stop-color="#57506E"/>
<stop offset="0.42" stop-color="#423C58"/>
<stop offset="0.91" stop-color="#2D2842"/>
</linearGradient>
<linearGradient id="paint8_linear_59_33889" x1="18.1523" y1="68.224" x2="13.4492" y2="59.9031" gradientUnits="userSpaceOnUse">
<stop offset="0.31" stop-color="#2D2B3B"/>
<stop offset="0.66" stop-color="#201E2D"/>
<stop offset="1" stop-color="#14111E"/>
</linearGradient>
<linearGradient id="paint9_linear_59_33889" x1="52.7454" y1="70.2895" x2="77.6119" y2="70.7307" gradientUnits="userSpaceOnUse">
<stop stop-color="#3C364E"/>
<stop offset="0.42" stop-color="#2E2A3E"/>
<stop offset="1" stop-color="#211E2F"/>
</linearGradient>
<linearGradient id="paint10_linear_59_33889" x1="35.7071" y1="46.539" x2="42.7338" y2="59.4683" gradientUnits="userSpaceOnUse">
<stop stop-color="#6E6E99"/>
<stop offset="0.6" stop-color="#6E6E99" stop-opacity="0.5"/>
<stop offset="1" stop-color="#6E6E99" stop-opacity="0"/>
</linearGradient>
<linearGradient id="paint11_linear_59_33889" x1="50.3252" y1="49.2174" x2="56.7492" y2="50.9922" gradientUnits="userSpaceOnUse">
<stop stop-color="#444161"/>
<stop offset="0.5" stop-color="#29263D"/>
<stop offset="1" stop-color="#0E0B19"/>
</linearGradient>
<linearGradient id="paint12_linear_59_33889" x1="48.0986" y1="67.7076" x2="79.9113" y2="75.4014" gradientUnits="userSpaceOnUse">
<stop stop-color="#9B9BBB"/>
<stop offset="0.5" stop-color="#5E5D7B"/>
<stop offset="1" stop-color="#221F3B"/>
</linearGradient>
<linearGradient id="paint13_linear_59_33889" x1="57.8495" y1="73.8184" x2="63.5935" y2="76.0128" gradientUnits="userSpaceOnUse">
<stop stop-color="#444161"/>
<stop offset="0.5" stop-color="#2C293F"/>
<stop offset="1" stop-color="#14111E"/>
</linearGradient>
</defs>
</svg>
