<svg width="104" height="111" viewBox="0 0 104 111" fill="none" xmlns="http://www.w3.org/2000/svg">
<path d="M87.0633 77.9539C87.0633 72.5775 85.3876 67.5306 82.4541 63.1582C85.2383 61.4689 86.8223 59.5303 86.8223 57.4684C86.8223 50.9168 70.8385 45.6055 51.1215 45.6055C31.4045 45.6055 15.4207 50.9168 15.4207 57.4684C15.4207 59.5303 17.0047 61.4689 19.7889 63.1582C16.8554 67.5305 15.1797 72.5775 15.1797 77.9539C15.1797 85.0747 18.1174 91.6182 23.0278 96.7801C22.1148 99.8657 20.567 105.876 22.0217 106.904C23.4637 107.923 27.6082 104.259 29.7333 102.214C34.2966 105.056 44.5224 106.984 51.1215 106.984C57.7296 106.984 67.9583 105.052 72.5262 102.204C74.6482 104.247 78.804 107.925 80.2484 106.904C81.7065 105.874 80.148 99.8375 79.2359 96.7584C84.134 91.6 87.0633 85.0647 87.0633 77.9539Z" fill="url(#paint0_linear_59_31296)"/>
<g opacity="0.3">
<path d="M87.0624 77.9534C87.0624 79.8438 87.7561 89.3249 79.2356 96.7588C89.4845 85.6185 75.2816 70.7182 51.6748 70.7182C29.0279 70.7182 11.93 77.9533 23.0275 96.7802C22.8356 95.5199 15.4202 92.3395 15.1796 77.9534C15.0896 72.5786 16.8553 67.5302 19.788 63.1592C17.0049 61.4689 15.4198 59.5307 15.4198 57.4692C15.4198 50.9165 31.404 45.6055 51.1218 45.6055C70.8381 45.6055 86.8222 50.9165 86.8222 57.4692C86.8222 59.5307 85.2388 61.4689 82.4541 63.1592C85.3868 67.5302 87.0624 72.5778 87.0624 77.9534Z" fill="url(#paint1_linear_59_31296)"/>
</g>
<g opacity="0.6">
<path d="M78.3393 106.102C79.7018 105.085 78.2456 99.1282 77.3932 96.0895C81.9704 90.9985 84.3963 84.5485 84.3963 77.5307C84.3963 72.2247 82.0751 66.7815 79.3339 62.4664C81.9356 60.7992 84.4824 59.3481 84.4824 57.3132C84.4824 50.8472 69.5462 45.6055 51.1215 45.6055C32.6967 45.6055 17.7605 50.8472 17.7605 57.3132C17.7605 59.3481 20.3073 60.7992 22.909 62.4664C20.1678 66.7815 17.8464 72.2247 17.8464 77.5307C17.8464 84.5583 20.2803 91.0164 24.869 96.1107C24.0159 99.1559 22.5696 105.088 23.9288 106.102" stroke="url(#paint2_linear_59_31296)" stroke-width="2.3352" stroke-linecap="round" stroke-linejoin="round"/>
</g>
<g opacity="0.4">
<path d="M79.236 96.7579C80.1486 99.8378 81.7065 105.873 80.2484 106.904C78.804 107.925 74.6473 104.247 72.526 102.204C67.9587 105.053 57.7291 106.984 51.1221 106.984C44.5231 106.984 34.297 105.056 29.7332 102.214C27.6088 104.258 23.4643 107.924 22.0213 106.904C20.5663 105.876 22.115 99.8654 23.0276 96.7793C18.117 91.6178 17.9159 84.5166 15.1799 77.9531C19.2751 87.7771 31.42 94.2218 51.1292 94.2218C69.7038 94.2218 82.9782 87.7664 87.0626 77.9531C84.3328 84.5119 84.1344 91.5994 79.236 96.7579Z" fill="url(#paint3_linear_59_31296)"/>
</g>
<path d="M51.1213 45.6055C70.8246 45.6055 86.8222 50.9212 86.8222 57.4684C86.8222 64.0155 70.8246 69.3312 51.1213 69.3312C31.418 69.3312 15.4204 64.0155 15.4204 57.4684C15.4204 50.9212 31.418 45.6055 51.1213 45.6055Z" fill="url(#paint4_linear_59_31296)"/>
<g opacity="0.8">
<path d="M80.7111 51.8965C80.7111 51.8965 93.1477 58.8544 72.2312 67.0379" stroke="url(#paint5_linear_59_31296)" stroke-width="2.3352" stroke-linecap="round" stroke-linejoin="round"/>
</g>
<path d="M51.1213 45.6055C70.8246 45.6055 86.8222 50.9212 86.8222 57.4684C86.8222 64.0155 70.8246 69.3312 51.1213 69.3312C31.418 69.3312 15.4204 64.0155 15.4204 57.4684C15.4204 50.9212 31.418 45.6055 51.1213 45.6055Z" stroke="#5757A3" stroke-width="2.3352" stroke-linecap="round" stroke-linejoin="round"/>
<g opacity="0.8">
<path d="M21.541 51.8965C21.541 51.8965 9.10441 58.8544 30.0209 67.0379" stroke="url(#paint6_linear_59_31296)" stroke-width="2.3352" stroke-linecap="round" stroke-linejoin="round"/>
</g>
<path d="M87.0633 77.9539C87.0633 72.5775 85.3876 67.5306 82.4541 63.1582C85.2383 61.4689 86.8223 59.5303 86.8223 57.4684C86.8223 50.9168 70.8385 45.6055 51.1215 45.6055C31.4045 45.6055 15.4207 50.9168 15.4207 57.4684C15.4207 59.5303 17.0047 61.4689 19.7889 63.1582C16.8554 67.5305 15.1797 72.5775 15.1797 77.9539C15.1797 85.0747 18.1174 91.6182 23.0278 96.7801C22.1148 99.8657 20.567 105.876 22.0217 106.904C23.4637 107.923 27.6082 104.259 29.7333 102.214C34.2966 105.056 44.5224 106.984 51.1215 106.984C57.7296 106.984 67.9583 105.052 72.5262 102.204C74.6482 104.247 78.804 107.925 80.2484 106.904C81.7065 105.874 80.148 99.8375 79.2359 96.7584C84.134 91.6 87.0633 85.0647 87.0633 77.9539Z" stroke="url(#paint7_linear_59_31296)" stroke-width="2.3352" stroke-linecap="round" stroke-linejoin="round"/>
<path d="M82.09 51.5827C82.2683 48.7308 77.8923 47.6516 77.1511 48.6509C76.9272 45.3696 71.2236 44.0219 70.2949 45.2066C67.144 36.0914 53.6389 36.8309 51.5792 44.7967C49.7469 41.3845 42.5078 42.124 41.5158 44.6924C37.2925 37.9207 27.7182 40.3337 27.3319 47.287C26.0594 44.9602 18.4076 48.5052 19.7018 53.1365C20.2323 55.0353 20.985 56.8747 25.4453 58.4301L25.4429 58.4298C29.1778 61.6527 22.0703 80.8921 30.0207 80.8913C35.4528 80.8908 33.5848 69.4321 34.3878 67.0233C35.1908 64.6145 38.5091 64.3668 38.3675 69.7399C38.1793 76.8727 44.7759 75.2164 44.098 70.2266C43.3189 64.4907 44.6532 62.1244 44.6532 62.1244L44.651 62.1241C46.7395 62.2519 48.9034 62.3193 51.1217 62.3193C68.4733 62.3193 82.5401 58.2086 82.5401 53.1365C82.5401 52.6077 82.3852 52.0878 82.09 51.5827Z" fill="url(#paint8_linear_59_31296)"/>
<g opacity="0.3">
<path d="M38.3674 69.7402C38.3674 69.7402 40.6376 75.3875 44.098 70.2269" stroke="url(#paint9_linear_59_31296)" stroke-width="2.3352" stroke-linecap="round" stroke-linejoin="round"/>
</g>
<g opacity="0.3">
<path d="M26.1519 70.8594C26.1519 70.8594 26.1519 78.5079 29.9652 78.5079C33.0854 78.5079 34.1208 70.8594 34.1208 70.8594" stroke="url(#paint10_linear_59_31296)" stroke-width="2.3352" stroke-linecap="round" stroke-linejoin="round"/>
</g>
<g opacity="0.7">
<path d="M80.1625 56.3409C81.595 52.7095 79.4659 50.5253 77.5239 50.7973C77.0633 50.8617 76.6155 50.8918 76.2101 51.0621C75.6211 48.9226 73.7082 47.3544 71.4376 47.3544C70.7889 47.3544 70.1698 47.4838 69.6018 47.7165C68.1782 43.9803 64.6417 41.333 60.5016 41.333C56.5099 41.333 53.5402 44.1018 52.0229 47.6265C50.1967 46.2144 48.5409 45.3919 46.6556 45.3919C44.8245 45.3919 42.6976 46.3886 41.4093 47.5252C40.1429 45.237 37.7507 43.2303 35.006 43.2303C31.3417 43.2303 28.7571 46.5978 28.1915 50.1996C24.0742 48.5127 20.7484 50.4772 21.762 56.0242" stroke="url(#paint11_linear_59_31296)" stroke-width="2.3352" stroke-linecap="round" stroke-linejoin="round"/>
</g>
<path d="M82.09 51.5827C82.2683 48.7308 77.8923 47.6516 77.1511 48.6509C76.9272 45.3696 71.2236 44.0219 70.2949 45.2066C67.144 36.0914 53.6389 36.8309 51.5792 44.7967C49.7469 41.3845 42.5078 42.124 41.5158 44.6924C37.2925 37.9207 27.7182 40.3337 27.3319 47.287C26.0594 44.9602 18.4076 48.5052 19.7018 53.1365C20.2323 55.0353 20.985 56.8747 25.4453 58.4301L25.4429 58.4298C29.1778 61.6527 22.0703 80.8921 30.0207 80.8913C35.4528 80.8908 33.5848 69.4321 34.3878 67.0233C35.1908 64.6145 38.5091 64.3668 38.3675 69.7399C38.1793 76.8727 44.7759 75.2164 44.098 70.2266C43.3189 64.4907 44.6532 62.1244 44.6532 62.1244L44.651 62.1241C46.7395 62.2519 48.9034 62.3193 51.1217 62.3193C68.4733 62.3193 82.5401 58.2086 82.5401 53.1365C82.5401 52.6077 82.3852 52.0878 82.09 51.5827Z" stroke="url(#paint12_linear_59_31296)" stroke-width="2.3352" stroke-linecap="round" stroke-linejoin="round"/>
<g opacity="0.6">
<path d="M62.067 48.751C62.067 50.4882 60.686 51.8965 58.9823 51.8965C57.2787 51.8965 55.8977 50.4882 55.8977 48.751C55.8977 47.0137 57.2787 45.6055 58.9823 45.6055C60.686 45.6055 62.067 47.0137 62.067 48.751Z" fill="#F0FF31"/>
</g>
<g opacity="0.6">
<path d="M47.3977 57.4686C47.3977 58.354 46.694 59.0715 45.8258 59.0715C44.9576 59.0715 44.2539 58.354 44.2539 57.4686C44.2539 56.5833 44.9576 55.8657 45.8258 55.8657C46.694 55.8657 47.3977 56.5833 47.3977 57.4686Z" fill="#F0FF31"/>
</g>
<g opacity="0.3">
<path d="M35.9449 60.7129C35.9449 61.4008 35.398 61.9585 34.7234 61.9585C34.0489 61.9585 33.502 61.4008 33.502 60.7129C33.502 60.0249 34.0489 59.4673 34.7234 59.4673C35.398 59.4673 35.9449 60.0249 35.9449 60.7129Z" fill="#70A700"/>
</g>
<g opacity="0.3">
<path d="M44.6465 52.2497C44.6465 53.5125 43.6424 54.5365 42.4039 54.5365C41.1655 54.5365 40.1614 53.5125 40.1614 52.2497C40.1614 50.9868 41.1655 49.9629 42.4039 49.9629C43.6424 49.9629 44.6465 50.9868 44.6465 52.2497Z" fill="#70A700"/>
</g>
<g opacity="0.3">
<path d="M72.7374 54.4881C72.7374 55.7654 71.7219 56.8009 70.4693 56.8009C69.2167 56.8009 68.2012 55.7654 68.2012 54.4881C68.2012 53.2107 69.2167 52.1753 70.4693 52.1753C71.7219 52.1753 72.7374 53.2107 72.7374 54.4881Z" fill="#70A700"/>
</g>
<g opacity="0.6">
<path d="M36.3992 51.5349C36.3992 53.2102 35.0673 54.5683 33.4244 54.5683C31.7815 54.5683 30.4497 53.2102 30.4497 51.5349C30.4497 49.8596 31.7815 48.5015 33.4244 48.5015C35.0673 48.5015 36.3992 49.8596 36.3992 51.5349Z" fill="#F0FF31"/>
</g>
<path d="M73.1499 60.084C63.4468 61.9733 59.1656 62.674 49.5954 62.5255C48.8129 65.0871 50.3696 66.8774 51.1212 69.3317C61.2371 69.3317 70.3702 67.9335 76.8663 65.6872C75.0448 63.2968 75.2007 62.3625 73.1499 60.084Z" fill="url(#paint13_linear_59_31296)"/>
<path d="M76.4355 65.8335C69.9695 67.9939 61.0154 69.3315 51.1213 69.3315" stroke="#5757A3" stroke-width="2.80224" stroke-linecap="round" stroke-linejoin="round"/>
<path d="M44.6533 62.1251L44.6511 62.1248C46.7396 62.2526 48.9035 62.32 51.1218 62.32C68.4734 62.32 82.5402 58.2093 82.5402 53.1372" stroke="url(#paint14_linear_59_31296)" stroke-width="2.3352" stroke-linecap="round" stroke-linejoin="round"/>
<g opacity="0.4">
<path d="M59.3223 67.1314C59.3223 67.1314 58.1731 74.0077 59.3223 73.9992C61.11 73.9885 65.1749 70.4983 65.1749 70.4983C65.1749 70.4983 69.6018 78.4621 70.7083 77.1596C72.6665 74.8334 72.0916 67.4081 79.7319 61.8428L59.3223 67.1314Z" fill="#1D2E51"/>
</g>
<path d="M1.06915 16.2756C1.88617 20.1832 4.68989 32.5275 8.9623 34.4282C13.794 36.5707 19.1503 35.8318 25.8457 34.4316C29.0412 33.7634 32.1146 32.662 34.8585 31.2023L46.3635 35.1831L40.7598 26.9931C43.2086 25.7142 44.6619 23.6275 44.3044 20.6257C43.2873 12.1926 42.4286 6.18844 36.2035 3.98807C30.8883 2.11481 -0.66897 7.96295 1.06915 16.2756Z" fill="white"/>
<path d="M1.06915 16.2756C1.88617 20.1832 4.68989 32.5275 8.9623 34.4282C13.794 36.5707 19.1503 35.8318 25.8457 34.4316C29.0412 33.7634 32.1146 32.662 34.8585 31.2023L46.3635 35.1831L40.7598 26.9931C43.2086 25.7142 44.6619 23.6275 44.3044 20.6257C43.2873 12.1926 42.4286 6.18844 36.2035 3.98807C30.8883 2.11481 -0.66897 7.96295 1.06915 16.2756Z" stroke="#8D8D8D" stroke-width="1.91541" stroke-linecap="round" stroke-linejoin="round"/>
<path d="M34.5249 25.211C34.3963 24.5581 34.6675 23.954 35.1301 23.8629C35.5927 23.7719 36.0727 24.228 36.2012 24.8809C36.3298 25.5339 36.0586 26.1379 35.596 26.229C35.1334 26.3201 34.6534 25.8639 34.5249 25.211Z" fill="black"/>
<path d="M29.6996 23.3038C30.8169 22.9532 32.529 22.9128 32.5795 22.2654C32.725 20.745 31.1235 19.9927 30.4104 20.1359C28.8419 20.4536 29.3461 24.8208 30.9618 25.7985C31.5675 26.1626 32.443 25.94 32.6946 25.2587" stroke="black" stroke-width="1.27694" stroke-linecap="round" stroke-linejoin="round"/>
<path d="M25.0074 27.1874C24.1991 25.6412 23.6049 24.1302 23.4465 22.723L27.6974 26.6904C27.2116 24.8257 26.9432 23.0101 26.9121 21.3467" stroke="black" stroke-width="1.27694" stroke-linecap="round" stroke-linejoin="round"/>
<path d="M21.0144 22.873C21.2562 24.5514 21.6788 26.2473 22.4054 27.9787" stroke="black" stroke-width="1.27694" stroke-linecap="round" stroke-linejoin="round"/>
<path d="M17.373 29.6814C16.2669 27.8292 15.3186 26.026 14.8772 24.3868C16.1895 24.2738 17.4357 23.9752 18.5526 23.3223" stroke="black" stroke-width="1.27694" stroke-linecap="round" stroke-linejoin="round"/>
<path d="M16.4548 26.6769C17.2384 26.588 17.9776 26.4275 18.6895 26.1274" stroke="black" stroke-width="1.27694" stroke-linecap="round" stroke-linejoin="round"/>
<path d="M35.9945 10.0891C35.2271 9.35363 33.5652 9.49686 33.662 10.8953C33.7759 12.8273 36.6115 11.5661 36.7422 13.8863C36.789 14.5739 35.2001 15.8445 33.9321 14.9762" stroke="black" stroke-width="1.27694" stroke-linecap="round" stroke-linejoin="round"/>
<path d="M30.3311 10.3945C30.6047 12.0875 30.9414 13.7976 31.4288 15.5197" stroke="black" stroke-width="1.27694" stroke-linecap="round" stroke-linejoin="round"/>
<path d="M24.3346 12.1714C23.1283 11.9195 22.0566 12.5013 21.991 13.3743C21.8793 14.7634 25.9606 14.4048 26.207 16.8623C26.3383 18.1322 23.9964 18.288 23.3929 17.9323" stroke="black" stroke-width="1.27694" stroke-linecap="round" stroke-linejoin="round"/>
<path d="M19.2527 13.3232C19.6647 15.1163 20.1468 16.8099 20.7369 18.3012" stroke="black" stroke-width="1.27694" stroke-linecap="round" stroke-linejoin="round"/>
<path d="M13.4697 14.376C13.7617 16.0119 14.2078 17.6737 14.7799 19.373" stroke="black" stroke-width="1.27694" stroke-linecap="round" stroke-linejoin="round"/>
<path d="M16.4851 13.3184C17.0891 15.0322 17.579 16.917 18.1511 18.6164" stroke="black" stroke-width="1.27694" stroke-linecap="round" stroke-linejoin="round"/>
<path d="M17.3903 16.0938C16.1266 16.3455 15.0569 16.4049 13.9788 16.6411" stroke="black" stroke-width="1.27694" stroke-linecap="round" stroke-linejoin="round"/>
<path d="M6.54199 15.3395C7.96854 15.2069 9.44255 15.0088 10.9487 14.6768" stroke="black" stroke-width="1.27694" stroke-linecap="round" stroke-linejoin="round"/>
<path d="M9.07666 15.1343C9.3612 16.5385 10.1525 18.7001 10.6413 20.1633" stroke="black" stroke-width="1.27694" stroke-linecap="round" stroke-linejoin="round"/>
<path d="M78.6932 22.9906L76.1606 24.5484C76.1606 24.5484 78.534 29.5051 80.3158 33.3074C82.0809 37.0973 87.394 43.5454 91.1078 43.7033C93.6691 43.7857 94.1848 42.314 95.2708 39.4362C95.8724 37.8477 96.4688 35.7412 97.6076 34.8556C98.5615 34.1169 99.3138 33.5129 100.285 32.8902C103.258 31.0129 105.868 26.3759 96.2068 23.0825C92.5941 21.8422 89.1981 21.5319 86.3816 21.6219C81.7679 21.7794 78.6932 22.9906 78.6932 22.9906Z" fill="url(#paint15_linear_59_31296)"/>
<g opacity="0.66">
<path d="M77.8875 25.0458C77.8875 25.0458 79.7935 24.4337 82.7489 25.0717C85.0785 25.5746 87.4866 26.936 87.4866 26.936" stroke="#105B3D" stroke-width="2.05374" stroke-linecap="round" stroke-linejoin="round"/>
</g>
<path d="M95.2597 24.0017C94.3744 24.4467 90.513 26.2149 88.7487 27.0359C86.9897 27.8508 86.2195 31.5861 86.2195 31.5861C86.2195 31.5861 89.0279 34.2966 90.487 36.0609C92.2015 38.1316 93.1285 41.062 93.1285 41.062C93.1285 41.062 93.6038 39.9002 94.0682 38.3459C94.5645 36.6812 95.2612 34.8712 96.4588 33.4525C97.651 32.04 101.516 30.4026 101.957 29.0835C102.393 27.7593 101.09 26.5022 100.409 25.9014C99.3564 24.9682 96.8687 23.8755 95.6752 23.9151C95.5104 23.9213 95.3638 23.943 95.2597 24.0017Z" fill="url(#paint16_linear_59_31296)"/>
<path d="M82.0989 22.8639C82.0989 22.8639 88.3712 22.3095 94.9487 24.3984C99.6725 25.8935 101.432 27.0144 101.432 27.0144C101.432 27.0144 100.471 25.2571 94.2919 23.2587C91.5169 22.351 88.8675 22.1527 86.7473 22.2165C83.9672 22.3106 82.0989 22.8639 82.0989 22.8639Z" fill="url(#paint17_linear_59_31296)"/>
<path d="M84.1368 29.7012C84.1368 29.7012 87.2502 30.9292 90.0192 34.4636C91.8842 36.821 92.6186 39.3378 92.6186 39.3378C92.6186 39.3378 91.4424 36.9946 89.1147 34.4506C86.5302 31.6462 82.6909 28.9219 82.6909 28.9219L84.1368 29.7012Z" fill="url(#paint18_linear_59_31296)"/>
<path d="M96.5709 24.9529C97.2093 25.2655 98.4497 26.3132 97.6548 27.3491C96.8693 28.3919 95.8779 27.6153 93.333 29.7633C92.2089 30.7151 92.9299 34.2492 90.8747 34.382C90.2805 34.4209 89.3347 33.5043 87.6956 32.0748C86.007 30.5944 84.1829 28.7092 83.6119 28.403C82.4959 27.7951 86.1669 28.0452 87.0979 28.1974C88.0129 28.3521 89.4871 27.4561 89.1547 26.5725C88.5498 25.038 85.4071 24.3087 86.9456 23.6198C88.4841 22.9309 94.445 23.9462 96.5709 24.9529Z" fill="url(#paint19_linear_59_31296)"/>
<path d="M78.6927 23.002C78.6927 23.002 86.6599 19.8092 96.2005 23.0771C105.868 26.3886 103.256 31.0113 100.29 32.8957C99.3184 33.5133 98.5488 34.1194 97.6024 34.8628C96.471 35.7515 95.8651 37.8538 95.2741 39.4321C94.1962 42.3113 93.6728 43.7945 91.1017 43.6943C87.3923 43.5498 82.084 37.1076 80.3104 33.3132C78.5367 29.5188 76.1633 24.5513 76.1633 24.5513L78.6927 23.002Z" stroke="url(#paint20_linear_59_31296)" stroke-width="1.6432" stroke-miterlimit="8.03"/>
<path d="M77.2779 27.3764C77.5495 28.3881 81.787 37.0025 86.4859 41.4654C88.7146 43.5955 94.1845 45.8314 92.1942 40.1738C89.9568 33.8161 78.1773 26.737 78.1773 26.737C78.1773 26.737 77.9213 26.6734 77.6959 26.6785C77.3954 26.6853 77.1094 26.8249 77.2779 27.3764Z" fill="url(#paint21_linear_59_31296)"/>
<path d="M77.2779 27.3764C77.5495 28.3881 81.787 37.0025 86.4859 41.4654C88.7146 43.5955 94.1845 45.8314 92.1942 40.1738C89.9568 33.8161 78.1773 26.737 78.1773 26.737C78.1773 26.737 77.9213 26.6734 77.6959 26.6785C77.3954 26.6853 77.1094 26.8249 77.2779 27.3764Z" stroke="#203F12" stroke-width="1.66789" stroke-linejoin="round"/>
<path d="M56.0288 5.35787C55.9272 6.42922 55.7491 7.33095 55.5374 8.44784C55.2845 9.75478 53.8597 11.1811 52.8539 12.3495C51.0334 14.4937 50.0561 15.5714 51.1392 17.6577C52.6936 20.6634 59.8159 22.2513 63.4754 22.057C67.1421 21.888 71.9523 21.6903 71.9523 21.6903L72.1807 18.9234C72.1807 18.9234 71.5856 10.9374 65.3018 4.47296C62.7969 1.87908 60.8583 0.958839 59.4309 1.0014C57.2601 1.08057 56.2252 3.38161 56.0288 5.35787Z" fill="url(#paint22_linear_59_31296)"/>
<g opacity="0.66">
<path d="M70.8934 20.4738C70.8934 20.4738 70.6312 18.6316 68.9816 16.4651C67.6813 14.7574 65.678 13.3579 65.678 13.3579" stroke="#105B3D" stroke-width="1.85539" stroke-linecap="round" stroke-linejoin="round"/>
</g>
<path d="M58.3652 2.32823C57.5071 3.2655 57.7235 7.17483 57.0833 8.77228C56.4404 10.3759 55.2905 11.7428 54.1804 12.8731C53.1408 13.9304 52.4187 14.832 52.4187 14.832C52.4187 14.832 55.0739 14.3254 57.3655 14.8377C59.3127 15.284 62.5299 16.432 62.5299 16.432C62.5299 16.432 65.1561 14.1677 65.1069 12.356C65.064 10.547 64.9492 6.57872 64.9531 5.65954C64.9569 4.74036 62.7606 2.75877 61.4666 2.22587C61.0197 2.0388 60.3008 1.77341 59.6149 1.80022C59.1603 1.81171 58.714 1.95431 58.3652 2.32823Z" fill="url(#paint23_linear_59_31296)"/>
<path d="M70.9552 16.035C70.9552 16.035 68.9585 10.6136 64.76 6.0841C61.7504 2.83111 60.1907 1.85596 60.1907 1.85596C60.1907 1.85596 61.936 1.89022 65.913 6.12815C70.0567 10.5593 70.9552 16.035 70.9552 16.035Z" fill="url(#paint24_linear_59_31296)"/>
<path d="M64.8165 17.34C64.8165 17.34 62.6334 15.2971 58.7894 14.5339C56.2381 14.0284 53.9639 14.513 53.9639 14.513C53.9639 14.513 56.2568 14.4598 59.1548 15.2913C62.3635 16.1975 65.987 18.1906 65.987 18.1906L64.8165 17.34Z" fill="url(#paint25_linear_59_31296)"/>
<path d="M70.1082 14.2559C70.1082 14.2559 69.1154 11.1296 67.7576 9.52105C66.3998 7.91254 64.7153 6.30765 63.8127 6.67115C61.5466 7.56522 63.5588 10.0674 62.1242 11.2153C61.3161 11.8625 58.8985 12.2105 59.5718 13.9131C60.2475 15.6088 63.3633 16.2007 64.9113 17.3859C66.466 18.5734 68.6838 19.0542 68.6838 19.0542L68.6527 18.0897C68.6527 18.0897 66.9259 15.8038 65.0731 13.8052C64.2675 12.9326 65.0799 11.8104 66.3426 12.5902C67.6029 13.3768 70.2491 16.3871 70.2491 16.3871L70.1082 14.2559Z" fill="url(#paint26_linear_59_31296)"/>
<path d="M72.181 18.9199C72.181 18.9199 71.5824 10.9437 65.3107 4.47544C58.9554 -2.07948 56.3507 2.09055 56.0283 5.36184C55.9227 6.43383 55.7471 7.33364 55.533 8.43925C55.277 9.76088 53.8658 11.1759 52.8596 12.3507C51.0233 14.4936 50.065 15.5707 51.1438 17.6534C52.7002 20.658 59.8118 22.2469 63.4743 22.0641C67.1367 21.8813 71.9516 21.6847 71.9516 21.6847L72.181 18.9199Z" stroke="url(#paint27_linear_59_31296)" stroke-width="1.6432" stroke-miterlimit="8.03"/>
<path d="M53.4901 15.2235C48.2704 16.0247 52.1487 19.5818 54.6819 20.501C60.0199 22.4494 68.2431 22.3345 69.1387 22.1389C70.0438 21.9282 69.4426 20.9648 69.4426 20.9648C69.4426 20.9648 60.2819 14.9387 54.3727 15.1479C54.073 15.1481 53.7789 15.1734 53.4901 15.2235Z" fill="url(#paint28_linear_59_31296)"/>
<path d="M53.4901 15.2235C48.2704 16.0247 52.1487 19.5818 54.6819 20.501C60.0199 22.4494 68.2431 22.3345 69.1387 22.1389C70.0438 21.9282 69.4426 20.9648 69.4426 20.9648C69.4426 20.9648 60.2819 14.9387 54.3727 15.1479C54.073 15.1481 53.7789 15.1734 53.4901 15.2235Z" stroke="#203F12" stroke-width="1.44038" stroke-linejoin="round"/>
<path d="M80.0188 7.1199C77.9229 9.70803 59.2692 37.353 46.4993 57.3832C47.8975 58.4958 55.1343 59.0108 59.1443 58.7448C70.0027 40.6837 84.1396 16.5905 84.6576 15.7564C85.4323 14.4371 86.244 12.1631 88.9658 12.075C91.6876 11.9869 92.0017 13.2709 92.7723 16.0386C95.3809 25.0815 101.787 20.9916 101.26 15.2191C100.968 12.5039 98.3657 3.66537 90.7141 2.95944C86.6841 2.61318 82.7686 3.69325 80.0188 7.1199Z" fill="url(#paint29_linear_59_31296)"/>
<path d="M92.4076 3.68799C93.1829 6.04819 92.9969 9.16411 91.9888 12.9077C92.717 14.1578 93.2983 15.4609 93.4847 16.9094C96.1714 17.3682 98.6148 17.1275 100.61 15.4843C100.442 7.98274 97.0214 5.00727 92.4076 3.68799Z" fill="url(#paint30_linear_59_31296)"/>
<path d="M68.7219 23.5181C71.4795 23.4759 73.7286 25.8421 75.1338 30.9271L83.113 17.926C83.3818 13.4627 82.0838 10.2937 78.2553 9.24219L68.7219 23.5181Z" fill="url(#paint31_linear_59_31296)"/>
<path d="M45.9751 58.4184C50.0913 58.7289 59.2582 58.8394 59.2582 58.8394L61.8125 54.5457C60.9244 49.0832 58.9968 45.0992 54.8932 44.2534L45.9751 58.4184Z" fill="url(#paint32_linear_59_31296)"/>
<g opacity="0.65">
<path d="M52.9604 56.878C62.2942 41.9906 77.8489 17.2239 82.8081 9.59015C84.897 6.37484 89.2726 5.70721 92.1555 7.3502C94.9747 8.95722 97.2372 13.0489 97.4054 16.8231" stroke="url(#paint33_linear_59_31296)" stroke-width="5.31291" stroke-linecap="round" stroke-linejoin="round"/>
</g>
<g opacity="0.65">
<path d="M51.9629 58.4697C61.143 43.8241 77.668 17.5029 82.8083 9.59015C84.8971 6.37484 89.2727 5.70721 92.1556 7.3502C94.9751 8.95722 97.2374 13.0489 97.4055 16.8231" stroke="url(#paint34_linear_59_31296)" stroke-width="2.71711" stroke-linecap="round" stroke-linejoin="round"/>
</g>
<path d="M59.3136 58.1903C59.2791 58.248 45.8234 58.6095 46.5396 57.4867C58.949 38.0269 76.463 12.1451 78.3552 9.30417C82.9036 2.47492 88.5 2.2521 93.1004 3.60522C98.1353 5.08604 101.154 12.5714 101.243 15.32C101.332 18.0686 100.63 20.3107 98.1992 21.0083C94.7065 22.0109 93.0455 18.911 92.6813 15.7591C92.3487 12.8798 90.986 12.0992 89.1317 11.9772C86.3875 11.7967 85.3315 14.9223 84.4496 16.3431C83.956 17.1379 69.833 40.6261 59.3136 58.1903Z" stroke="url(#paint35_linear_59_31296)" stroke-width="2.05374" stroke-linecap="round" stroke-linejoin="round"/>
<path d="M93.0728 3.60791C97.2362 5.27537 99.9165 9.04786 101.294 15.1301" stroke="#9E0A3B" stroke-width="2.05374" stroke-linecap="round" stroke-linejoin="round"/>
<path d="M91.75 13.0742C92.5089 14.0272 92.6207 14.9656 92.9073 16.9106" stroke="#890729" stroke-width="2.05374" stroke-linecap="round" stroke-linejoin="round"/>
<path d="M76.011 30.2859L83.4547 18.0469" stroke="#7F0125" stroke-width="2.04352" stroke-linecap="round" stroke-linejoin="round"/>
<path d="M78.1447 9.59424L69.1257 23.1131" stroke="#9E0A3B" stroke-width="2.04352" stroke-linecap="round" stroke-linejoin="round"/>
<path d="M61.8677 53.918L59.2495 58.3064" stroke="#7F0125" stroke-width="2.04352" stroke-linecap="round" stroke-linejoin="round"/>
<path d="M55.0016 44.4756L46.261 57.9821" stroke="#9E0A3B" stroke-width="2.04352" stroke-linecap="round" stroke-linejoin="round"/>
<path d="M80.9592 22.2564C80.6566 18.5099 76.4161 16.0514 72.7334 16.7492L69.0872 22.7759C72.3904 22.0208 76.231 24.2148 77.7695 27.5708L80.9592 22.2564Z" fill="url(#paint36_linear_59_31296)"/>
<path d="M80.9592 22.2564C80.6566 18.5099 76.4161 16.0514 72.7334 16.7492L69.0872 22.7759C72.3904 22.0208 76.231 24.2148 77.7695 27.5708L80.9592 22.2564Z" stroke="#184722" stroke-width="1.69024" stroke-linejoin="round"/>
<path d="M66.3021 35.1479C65.6164 38.6257 66.9601 41.327 69.2262 43.3795L70.8648 40.5728C68.5422 40.101 66.9495 38.1962 66.3021 35.1479Z" fill="url(#paint37_linear_59_31296)"/>
<path d="M65.8949 32.002C65.1568 35.4688 63.5313 36.879 60.353 37.7792L60.0193 35.1492C62.899 34.6171 64.3162 34.2491 65.8949 32.002Z" fill="url(#paint38_linear_59_31296)"/>
<path d="M44.0337 55.8468C45.9423 53.41 49.0395 54.4618 52.2808 57.9714C53.8812 57.7073 60.3723 53.6637 63.1349 57.4962C60.6383 59.5695 56.1088 60.6655 51.6423 60.6655C47.1758 60.6655 41.9097 58.5586 44.0337 55.8468Z" fill="#CDE736"/>
<path d="M51.3318 59.4417C52.5779 56.3925 60.2473 54.5438 63.1111 56.6975" stroke="#7CA400" stroke-width="2.34956" stroke-linecap="round" stroke-linejoin="round"/>
<path d="M45.3345 54.6532C47.8156 54.1427 51.5931 56.6963 52.2048 58.3117" stroke="#7CA400" stroke-width="2.34956" stroke-linecap="round" stroke-linejoin="round"/>
<path d="M65.8439 47.0717C65.8439 47.0717 76.1747 52.9701 71.5228 55.2513C66.2433 57.8405 63.2985 58.915 61.1971 60.6572C60.734 61.0411 60.3118 61.4576 59.9147 61.9297C59.4973 62.4257 59.1076 62.9833 58.7269 63.6299C56.7349 67.0123 56.8326 70.4532 56.6508 71.5462C56.604 71.8276 56.8909 72.043 57.1503 71.9242C58.5398 71.2875 60.5137 69.9571 61.464 69.8037C62.414 69.6504 62.2053 70.5932 63.2681 72.7855C64.5208 75.369 66.2382 76.9489 66.7373 76.5899C67.0025 76.399 66.9499 73.747 67.4898 71.3385C67.9176 69.4297 68.8515 68.1245 70.8699 66.8237C73.3501 65.2256 76.2553 64.6219 79.1253 61.8701C81.358 59.7293 81.1171 56.4786 80.2656 54.0533C78.1888 48.1379 68.1675 43.627 68.1675 43.627L65.8439 47.0717Z" fill="url(#paint39_linear_59_31296)"/>
<path d="M68.2807 45.0442C69.1113 44.8286 80.6231 52.1639 77.8779 57.3536C75.148 62.5271 71.3683 61.9184 69.9392 60.6832C68.283 59.2654 71.7618 56.8179 73.2807 55.8698C77.4333 53.2434 67.5684 46.0145 67.5684 46.0145L68.2807 45.0442Z" fill="url(#paint40_linear_59_31296)"/>
<path d="M67.5457 45.8789C70.0057 46.9073 72.3216 48.5224 74.4411 50.9398" stroke="#083A26" stroke-width="1.6432" stroke-linecap="round" stroke-linejoin="round"/>
<path d="M78.8445 61.0068C78.8445 61.0068 76.605 62.7015 73.7914 63.7837C71.2372 64.7629 67.5064 66.2384 66.6008 67.7484C64.5737 71.1404 65.8257 74.8152 65.8257 74.8152C65.8257 74.8152 66.2648 70.6988 68.1436 68.097C68.9953 66.9175 72.1583 65.0585 74.4784 64.1479C77.4914 62.972 78.8445 61.0068 78.8445 61.0068Z" fill="url(#paint41_linear_59_31296)"/>
<path d="M65.8439 47.0715C65.8439 47.0715 76.1747 52.9698 71.5229 55.2511C66.2434 57.8403 63.2986 58.915 61.1972 60.6572C60.7341 61.0411 60.3118 61.4574 59.9147 61.9294C59.4973 62.4255 59.1077 62.9833 58.7269 63.6299C56.7349 67.0123 56.8328 70.4532 56.6511 71.5462C56.6042 71.8276 56.8909 72.0428 57.1503 71.924C58.5399 71.2872 60.514 69.9571 61.4642 69.8037C62.4143 69.6504 62.2055 70.5932 63.2683 72.7855C64.521 75.369 66.2383 76.9487 66.7373 76.5897C67.0025 76.3988 66.9499 73.747 67.4899 71.3385C67.9177 69.4297 68.8515 68.1245 70.8699 66.8237C73.3502 65.2256 76.2554 64.6219 79.1253 61.8701C81.358 59.7293 81.1171 56.4784 80.2656 54.0531C78.1889 48.1377 68.1677 43.627 68.1677 43.627L65.8439 47.0715Z" stroke="url(#paint42_linear_59_31296)" stroke-width="1.6432" stroke-linecap="round" stroke-linejoin="round"/>
<path d="M70.1966 40.0425C68.1395 43.4691 67.7285 44.0982 65.6416 47.5787" stroke="url(#paint43_linear_59_31296)" stroke-width="2.05374" stroke-linecap="round" stroke-linejoin="round"/>
<path d="M72.9027 40.9634C69.5859 41.0708 66.8102 38.4692 66.7029 35.1524C66.5955 31.8356 69.1971 29.0599 72.5139 28.9525C75.8307 28.8451 78.6064 31.4468 78.7138 34.7636C78.8212 38.0804 76.2195 40.8561 72.9027 40.9634Z" fill="url(#paint44_radial_59_31296)"/>
<path d="M72.5993 40.9422C67.8289 40.6121 67.1623 37.3429 67.2023 35.5169C67.7995 38.011 69.9973 39.8347 72.5607 39.7527C75.9493 39.6444 78.8607 35.9564 77.2877 31.9854C80.0504 34.3043 78.271 41.3348 72.5993 40.9422Z" fill="#F5BB0C"/>
<path d="M71.7854 31.6621C71.7854 31.6621 71.3455 32.9488 72.5324 33.4949C73.7196 34.041 74.4455 33.0891 74.4455 33.0891C74.4455 33.0891 73.0713 34.1998 73.7185 35.073C74.3657 35.9464 74.8205 36.1724 74.8205 36.1724C74.8205 36.1724 72.9108 35.6151 72.5595 36.4519C72.2083 37.2885 72.163 38.0123 72.163 38.0123C72.163 38.0123 72.3134 36.288 71.1331 35.9479C70.2406 35.6908 69.3933 36.3825 69.3933 36.3825C69.3933 36.3825 70.2499 36.0022 70.171 34.9128C70.1088 34.0549 68.884 33.4068 68.884 33.4068C68.884 33.4068 70.1276 33.5728 70.7658 33.105C71.1989 32.7877 71.7854 31.6621 71.7854 31.6621Z" fill="#AD7D12"/>
<path d="M71.7854 31.6621C71.7854 31.6621 71.3455 32.9488 72.5324 33.4949C73.7196 34.041 74.4455 33.0891 74.4455 33.0891C74.4455 33.0891 73.0713 34.1998 73.7185 35.073C74.3657 35.9464 74.8205 36.1724 74.8205 36.1724C74.8205 36.1724 72.9108 35.6151 72.5595 36.4519C72.2083 37.2885 72.163 38.0123 72.163 38.0123C72.163 38.0123 72.3134 36.288 71.1331 35.9479C70.2406 35.6908 69.3933 36.3825 69.3933 36.3825C69.3933 36.3825 70.2499 36.0022 70.171 34.9128C70.1088 34.0549 68.884 33.4068 68.884 33.4068C68.884 33.4068 70.1276 33.5728 70.7658 33.105C71.1989 32.7877 71.7854 31.6621 71.7854 31.6621Z" stroke="#A36100" stroke-width="1.30652" stroke-linecap="round" stroke-linejoin="round"/>
<path d="M71.4417 29.0882C74.6836 28.3915 77.8766 30.4549 78.5732 33.6969C79.2699 36.9388 77.2065 40.1318 73.9646 40.8284C70.7226 41.5251 67.5297 39.4617 66.833 36.2197C66.1363 32.9778 68.1997 29.7848 71.4417 29.0882Z" stroke="url(#paint45_linear_59_31296)" stroke-width="1.36973" stroke-miterlimit="8.03"/>
<path d="M60.732 34.8917C57.6401 34.9918 55.0523 32.5663 54.9522 29.4743C54.8522 26.3824 57.2776 23.7947 60.3696 23.6946C63.4615 23.5945 66.0493 26.0199 66.1493 29.1119C66.2494 32.2039 63.824 34.7916 60.732 34.8917Z" fill="url(#paint46_radial_59_31296)"/>
<path d="M60.7352 34.9044C55.4372 34.934 54.2974 29.2955 55.9663 27.0102C54.7867 31.3935 57.8157 33.7977 60.6124 33.7845C63.9514 33.7688 67.0012 29.4478 64.1481 25.6343C67.5358 27.8204 66.0537 34.8746 60.7352 34.9044Z" fill="#F5BB0C"/>
<path d="M60.7847 26.1479C60.7847 26.1479 60.3448 27.4347 61.5317 27.9808C62.7188 28.5269 63.4448 27.5749 63.4448 27.5749C63.4448 27.5749 62.0706 28.6856 62.7178 29.5589C63.365 30.4323 63.8198 30.6583 63.8198 30.6583C63.8198 30.6583 61.9101 30.1009 61.5587 30.9377C61.2076 31.7743 61.1623 32.4981 61.1623 32.4981C61.1623 32.4981 61.3127 30.7739 60.1324 30.4335C59.2398 30.1765 58.3926 30.8683 58.3926 30.8683C58.3926 30.8683 59.2492 30.488 59.1702 29.3986C59.1081 28.5407 57.8833 27.8927 57.8833 27.8927C57.8833 27.8927 59.1268 28.0587 59.7651 27.5909C60.1982 27.2736 60.7847 26.1479 60.7847 26.1479Z" fill="#AD7D12"/>
<path d="M60.7847 26.1479C60.7847 26.1479 60.3448 27.4347 61.5317 27.9808C62.7188 28.5269 63.4448 27.5749 63.4448 27.5749C63.4448 27.5749 62.0706 28.6856 62.7178 29.5589C63.365 30.4323 63.8198 30.6583 63.8198 30.6583C63.8198 30.6583 61.9101 30.1009 61.5587 30.9377C61.2076 31.7743 61.1623 32.4981 61.1623 32.4981C61.1623 32.4981 61.3127 30.7739 60.1324 30.4335C59.2398 30.1765 58.3926 30.8683 58.3926 30.8683C58.3926 30.8683 59.2492 30.488 59.1702 29.3986C59.1081 28.5407 57.8833 27.8927 57.8833 27.8927C57.8833 27.8927 59.1268 28.0587 59.7651 27.5909C60.1982 27.2736 60.7847 26.1479 60.7847 26.1479Z" stroke="#A36100" stroke-width="1.30652" stroke-linecap="round" stroke-linejoin="round"/>
<path d="M63.8219 24.7535C66.3318 26.5599 66.902 30.0586 65.0956 32.5685C63.2893 35.0783 59.7905 35.6486 57.2807 33.8422C54.7708 32.0358 54.2006 28.5371 56.007 26.0272C57.8133 23.5174 61.3121 22.9472 63.8219 24.7535Z" stroke="url(#paint47_linear_59_31296)" stroke-width="1.36973" stroke-miterlimit="8.03"/>
<path d="M61.1453 42.5987C62.3256 43.324 64.3364 42.8628 65.0583 42.3612C66.4023 41.4274 66.4542 43.4882 66.2765 43.8219C65.64 45.0176 61.9687 45.3371 60.3446 44.4439C58.7071 43.5435 57.4728 41.3465 58.0201 39.2701C58.1415 38.8096 60.0861 38.1022 59.8712 39.5139C59.7341 40.4154 59.9735 41.8786 61.1453 42.5987Z" fill="#4C051D"/>
<path d="M58.5741 42.7319C59.5056 44.2108 60.7746 45.0072 63.0756 44.9718C62.4812 44.937 61.444 45.0013 60.376 44.4689C59.3246 43.9448 59.1161 43.3104 58.5741 42.7319Z" fill="white"/>
<path d="M65.1976 42.31C63.8352 42.9924 62.3977 43.1728 61.3571 42.6826C60.4083 42.2358 59.7896 41.2317 59.858 39.5429C59.8289 40.8162 59.9834 42.0406 61.3347 42.705C62.4916 43.2738 64.3054 42.9256 65.1976 42.31Z" fill="white"/>
<path d="M49.7332 109.102C65.412 109.271 67.426 95.6255 50.1314 87.4829C53.7992 93.5847 48.9973 101.287 45.0645 95.0532C34.3834 98.9425 37.2631 108.969 49.7332 109.102Z" fill="url(#paint48_linear_59_31296)"/>
<path d="M49.7332 109.102C65.412 109.271 67.426 95.6255 50.1314 87.4829C53.7992 93.5847 48.9973 101.287 45.0645 95.0532C34.3834 98.9425 37.2631 108.969 49.7332 109.102Z" stroke="url(#paint49_linear_59_31296)" stroke-width="1.91541" stroke-linecap="round" stroke-linejoin="round"/>
<defs>
<linearGradient id="paint0_linear_59_31296" x1="50.9926" y1="64.9311" x2="50.9926" y2="103.052" gradientUnits="userSpaceOnUse">
<stop stop-color="#9999C2"/>
<stop offset="0.26" stop-color="#8585B9"/>
<stop offset="0.52" stop-color="#7070AF"/>
<stop offset="0.76" stop-color="#5C5CA6"/>
<stop offset="1" stop-color="#47479D"/>
</linearGradient>
<linearGradient id="paint1_linear_59_31296" x1="50.9923" y1="81.122" x2="50.9923" y2="67.2767" gradientUnits="userSpaceOnUse">
<stop offset="0.31" stop-color="#00007B" stop-opacity="0"/>
<stop offset="0.52" stop-color="#00007B" stop-opacity="0.25"/>
<stop offset="0.72" stop-color="#00007B" stop-opacity="0.5"/>
<stop offset="0.86" stop-color="#00007B" stop-opacity="0.75"/>
<stop offset="1" stop-color="#00007B"/>
</linearGradient>
<linearGradient id="paint2_linear_59_31296" x1="50.9926" y1="107.432" x2="50.9926" y2="44.1326" gradientUnits="userSpaceOnUse">
<stop stop-color="#EAFFFF" stop-opacity="0"/>
<stop offset="0.26" stop-color="#EAFFFF" stop-opacity="0.25"/>
<stop offset="0.51" stop-color="#EAFFFF" stop-opacity="0.5"/>
<stop offset="0.76" stop-color="#EAFFFF" stop-opacity="0.75"/>
<stop offset="1" stop-color="#EAFFFF"/>
</linearGradient>
<linearGradient id="paint3_linear_59_31296" x1="50.9925" y1="106.653" x2="50.9925" y2="81.5844" gradientUnits="userSpaceOnUse">
<stop stop-color="#00004C"/>
<stop offset="0.26" stop-color="#00004E" stop-opacity="0.75"/>
<stop offset="0.52" stop-color="#000050" stop-opacity="0.5"/>
<stop offset="0.68" stop-color="#000052" stop-opacity="0.25"/>
<stop offset="0.84" stop-color="#000054" stop-opacity="0"/>
</linearGradient>
<linearGradient id="paint4_linear_59_31296" x1="50.9924" y1="68.9787" x2="50.9924" y2="53.5111" gradientUnits="userSpaceOnUse">
<stop offset="0.27" stop-color="#9999C2"/>
<stop offset="0.46" stop-color="#8585B9"/>
<stop offset="0.65" stop-color="#7070AF"/>
<stop offset="0.83" stop-color="#5C5CA6"/>
<stop offset="1" stop-color="#47479D"/>
</linearGradient>
<linearGradient id="paint5_linear_59_31296" x1="77.675" y1="64.7756" x2="83.3573" y2="51.5056" gradientUnits="userSpaceOnUse">
<stop offset="0.2" stop-color="#EAFFFF" stop-opacity="0"/>
<stop offset="0.4" stop-color="#EAFFFF" stop-opacity="0.25"/>
<stop offset="0.61" stop-color="#EAFFFF" stop-opacity="0.5"/>
<stop offset="0.81" stop-color="#EAFFFF" stop-opacity="0.75"/>
<stop offset="1" stop-color="#EAFFFF"/>
</linearGradient>
<linearGradient id="paint6_linear_59_31296" x1="23.9043" y1="68.3562" x2="23.9043" y2="50.4125" gradientUnits="userSpaceOnUse">
<stop offset="0.2" stop-color="#EAFFFF" stop-opacity="0"/>
<stop offset="0.4" stop-color="#EAFFFF" stop-opacity="0.25"/>
<stop offset="0.61" stop-color="#EAFFFF" stop-opacity="0.5"/>
<stop offset="0.81" stop-color="#EAFFFF" stop-opacity="0.75"/>
<stop offset="1" stop-color="#EAFFFF"/>
</linearGradient>
<linearGradient id="paint7_linear_59_31296" x1="50.9926" y1="108.366" x2="50.9926" y2="44.0895" gradientUnits="userSpaceOnUse">
<stop offset="0.27" stop-color="#181948"/>
<stop offset="0.46" stop-color="#1B244D"/>
<stop offset="0.65" stop-color="#1D3052"/>
<stop offset="0.82" stop-color="#203C57"/>
<stop offset="1" stop-color="#22485C"/>
</linearGradient>
<linearGradient id="paint8_linear_59_31296" x1="50.9923" y1="51.387" x2="50.9923" y2="79.9938" gradientUnits="userSpaceOnUse">
<stop stop-color="#DBF048"/>
<stop offset="0.1" stop-color="#D2EA3C"/>
<stop offset="0.2" stop-color="#C9E430"/>
<stop offset="0.3" stop-color="#C0DF24"/>
<stop offset="0.4" stop-color="#B7D918"/>
<stop offset="0.56" stop-color="#A3C715"/>
<stop offset="0.71" stop-color="#8FB512"/>
<stop offset="0.86" stop-color="#7AA30F"/>
<stop offset="1" stop-color="#66910C"/>
</linearGradient>
<linearGradient id="paint9_linear_59_31296" x1="41.1843" y1="73.6495" x2="41.1843" y2="68.1869" gradientUnits="userSpaceOnUse">
<stop offset="0.06" stop-color="white"/>
<stop offset="0.32" stop-color="white" stop-opacity="0.75"/>
<stop offset="0.59" stop-color="white" stop-opacity="0.5"/>
<stop offset="0.79" stop-color="white" stop-opacity="0.25"/>
<stop offset="1" stop-color="white" stop-opacity="0"/>
</linearGradient>
<linearGradient id="paint10_linear_59_31296" x1="30.1313" y1="79.8765" x2="30.1313" y2="69.4257" gradientUnits="userSpaceOnUse">
<stop offset="0.06" stop-color="white"/>
<stop offset="0.32" stop-color="white" stop-opacity="0.75"/>
<stop offset="0.59" stop-color="white" stop-opacity="0.5"/>
<stop offset="0.79" stop-color="white" stop-opacity="0.25"/>
<stop offset="1" stop-color="white" stop-opacity="0"/>
</linearGradient>
<linearGradient id="paint11_linear_59_31296" x1="50.992" y1="57.6142" x2="50.992" y2="39.8041" gradientUnits="userSpaceOnUse">
<stop stop-color="white" stop-opacity="0"/>
<stop offset="0.21" stop-color="white" stop-opacity="0.25"/>
<stop offset="0.41" stop-color="white" stop-opacity="0.5"/>
<stop offset="0.68" stop-color="white" stop-opacity="0.75"/>
<stop offset="0.94" stop-color="white"/>
</linearGradient>
<linearGradient id="paint12_linear_59_31296" x1="50.9923" y1="82.2116" x2="50.9923" y2="37.1533" gradientUnits="userSpaceOnUse">
<stop offset="0.41" stop-color="#2D4F12"/>
<stop offset="0.49" stop-color="#41640E"/>
<stop offset="0.57" stop-color="#547909"/>
<stop offset="0.71" stop-color="#688F05"/>
<stop offset="0.85" stop-color="#7CA400"/>
</linearGradient>
<linearGradient id="paint13_linear_59_31296" x1="50.9923" y1="68.9791" x2="50.9923" y2="53.5115" gradientUnits="userSpaceOnUse">
<stop offset="0.27" stop-color="#9999C2"/>
<stop offset="0.46" stop-color="#8585B9"/>
<stop offset="0.65" stop-color="#7070AF"/>
<stop offset="0.83" stop-color="#5C5CA6"/>
<stop offset="1" stop-color="#47479D"/>
</linearGradient>
<linearGradient id="paint14_linear_59_31296" x1="50.9924" y1="82.2123" x2="50.9924" y2="37.154" gradientUnits="userSpaceOnUse">
<stop offset="0.41" stop-color="#2D4F12"/>
<stop offset="0.49" stop-color="#41640E"/>
<stop offset="0.57" stop-color="#547909"/>
<stop offset="0.71" stop-color="#688F05"/>
<stop offset="0.85" stop-color="#7CA400"/>
</linearGradient>
<linearGradient id="paint15_linear_59_31296" x1="81.6951" y1="24.5723" x2="99.3293" y2="36.0506" gradientUnits="userSpaceOnUse">
<stop stop-color="#0F5E40"/>
<stop offset="0.23" stop-color="#099169"/>
<stop offset="0.46" stop-color="#04C491"/>
<stop offset="0.73" stop-color="#0CA073"/>
<stop offset="1" stop-color="#147D55"/>
</linearGradient>
<linearGradient id="paint16_linear_59_31296" x1="93.3088" y1="29.9399" x2="96.6693" y2="33.2359" gradientUnits="userSpaceOnUse">
<stop stop-color="#0C4A32" stop-opacity="0"/>
<stop offset="0.5" stop-color="#0F583B" stop-opacity="0.5"/>
<stop offset="1" stop-color="#116644"/>
</linearGradient>
<linearGradient id="paint17_linear_59_31296" x1="82.2708" y1="22.7926" x2="101.207" y2="26.9405" gradientUnits="userSpaceOnUse">
<stop stop-color="white" stop-opacity="0"/>
<stop offset="0.27" stop-color="#95FFDF" stop-opacity="0.35"/>
<stop offset="0.54" stop-color="#2BFFC0" stop-opacity="0.7"/>
<stop offset="0.77" stop-color="#95FFDF" stop-opacity="0.35"/>
<stop offset="1" stop-color="white" stop-opacity="0"/>
</linearGradient>
<linearGradient id="paint18_linear_59_31296" x1="92.3601" y1="39.1088" x2="82.8871" y2="29.1851" gradientUnits="userSpaceOnUse">
<stop stop-color="white" stop-opacity="0"/>
<stop offset="0.27" stop-color="#95FFDF" stop-opacity="0.24"/>
<stop offset="0.54" stop-color="#2BFFC0" stop-opacity="0.48"/>
<stop offset="0.77" stop-color="#95FFDF" stop-opacity="0.24"/>
<stop offset="1" stop-color="white" stop-opacity="0"/>
</linearGradient>
<linearGradient id="paint19_linear_59_31296" x1="86.252" y1="26.2364" x2="93.0438" y2="30.0247" gradientUnits="userSpaceOnUse">
<stop stop-color="white" stop-opacity="0"/>
<stop offset="0.5" stop-color="#8CF1C8" stop-opacity="0.195"/>
<stop offset="1" stop-color="#19E391" stop-opacity="0.39"/>
</linearGradient>
<linearGradient id="paint20_linear_59_31296" x1="83.2218" y1="37.3949" x2="94.0187" y2="22.4708" gradientUnits="userSpaceOnUse">
<stop stop-color="#203F12"/>
<stop offset="0.18" stop-color="#203F12"/>
<stop offset="0.36" stop-color="#203F12"/>
<stop offset="0.68" stop-color="#205A32"/>
<stop offset="1" stop-color="#217553"/>
</linearGradient>
<linearGradient id="paint21_linear_59_31296" x1="91.7613" y1="42.9866" x2="78.5336" y2="28.0731" gradientUnits="userSpaceOnUse">
<stop stop-color="#0C4A32"/>
<stop offset="0.23" stop-color="#116B4B"/>
<stop offset="0.46" stop-color="#168C65"/>
<stop offset="0.73" stop-color="#106447"/>
<stop offset="1" stop-color="#0A3D29"/>
</linearGradient>
<linearGradient id="paint22_linear_59_31296" x1="69.9163" y1="17.6279" x2="53.5258" y2="7.47248" gradientUnits="userSpaceOnUse">
<stop stop-color="#0F5E40"/>
<stop offset="0.23" stop-color="#098862"/>
<stop offset="0.46" stop-color="#04B384"/>
<stop offset="0.73" stop-color="#0C986C"/>
<stop offset="1" stop-color="#147D55"/>
</linearGradient>
<linearGradient id="paint23_linear_59_31296" x1="62.1491" y1="10.8828" x2="57.1942" y2="8.9387" gradientUnits="userSpaceOnUse">
<stop stop-color="#0C4A32" stop-opacity="0"/>
<stop offset="0.5" stop-color="#0F583B" stop-opacity="0.5"/>
<stop offset="1" stop-color="#116644"/>
</linearGradient>
<linearGradient id="paint24_linear_59_31296" x1="71.0282" y1="15.9114" x2="60.9417" y2="2.1156" gradientUnits="userSpaceOnUse">
<stop stop-color="white" stop-opacity="0"/>
<stop offset="0.27" stop-color="#95FFDF" stop-opacity="0.32"/>
<stop offset="0.54" stop-color="#2BFFC0" stop-opacity="0.64"/>
<stop offset="0.77" stop-color="#95FFDF" stop-opacity="0.32"/>
<stop offset="1" stop-color="white" stop-opacity="0"/>
</linearGradient>
<linearGradient id="paint25_linear_59_31296" x1="65.8694" y1="18.2972" x2="54.2001" y2="14.4977" gradientUnits="userSpaceOnUse">
<stop stop-color="white" stop-opacity="0"/>
<stop offset="0.27" stop-color="#95FFDF" stop-opacity="0.2"/>
<stop offset="0.54" stop-color="#2BFFC0" stop-opacity="0.4"/>
<stop offset="0.77" stop-color="#95FFDF" stop-opacity="0.2"/>
<stop offset="1" stop-color="white" stop-opacity="0"/>
</linearGradient>
<linearGradient id="paint26_linear_59_31296" x1="66.7944" y1="14.2478" x2="62.4007" y2="10.8114" gradientUnits="userSpaceOnUse">
<stop stop-color="#19E391" stop-opacity="0"/>
<stop offset="0.5" stop-color="#19E391" stop-opacity="0.195"/>
<stop offset="1" stop-color="#19E391" stop-opacity="0.39"/>
</linearGradient>
<linearGradient id="paint27_linear_59_31296" x1="61.6078" y1="22.7864" x2="61.0015" y2="0.406493" gradientUnits="userSpaceOnUse">
<stop stop-color="#203F12"/>
<stop offset="0.18" stop-color="#203F12"/>
<stop offset="0.36" stop-color="#203F12"/>
<stop offset="0.68" stop-color="#205A32"/>
<stop offset="1" stop-color="#217553"/>
</linearGradient>
<linearGradient id="paint28_linear_59_31296" x1="51.5147" y1="16.6683" x2="68.2627" y2="21.3968" gradientUnits="userSpaceOnUse">
<stop stop-color="#0C4A32"/>
<stop offset="0.23" stop-color="#116B4B"/>
<stop offset="0.46" stop-color="#168C65"/>
<stop offset="0.73" stop-color="#106447"/>
<stop offset="1" stop-color="#0A3D29"/>
</linearGradient>
<linearGradient id="paint29_linear_59_31296" x1="36.9099" y1="41.0003" x2="104.737" y2="36.4842" gradientUnits="userSpaceOnUse">
<stop stop-color="#D1F3F6"/>
<stop offset="0.12" stop-color="#D1F3F6"/>
<stop offset="0.23" stop-color="#D1F3F6"/>
<stop offset="0.34" stop-color="#D6F4F6"/>
<stop offset="0.44" stop-color="#DBF4F6"/>
<stop offset="0.7" stop-color="#BCF1F6"/>
<stop offset="0.96" stop-color="#9DEFF5"/>
<stop offset="0.98" stop-color="#9DEFF5"/>
<stop offset="1" stop-color="#9DEFF5"/>
</linearGradient>
<linearGradient id="paint30_linear_59_31296" x1="93.0401" y1="14.5764" x2="100.515" y2="3.88655" gradientUnits="userSpaceOnUse">
<stop stop-color="#940004"/>
<stop offset="0.22" stop-color="#C90320"/>
<stop offset="0.43" stop-color="#FF053B"/>
<stop offset="0.71" stop-color="#BF031F"/>
<stop offset="1" stop-color="#7F0003"/>
</linearGradient>
<linearGradient id="paint31_linear_59_31296" x1="63.2362" y1="12.9129" x2="83.0685" y2="25.4571" gradientUnits="userSpaceOnUse">
<stop stop-color="#940004"/>
<stop offset="0.22" stop-color="#C90320"/>
<stop offset="0.43" stop-color="#FF053B"/>
<stop offset="0.71" stop-color="#BF031F"/>
<stop offset="1" stop-color="#7F0003"/>
</linearGradient>
<linearGradient id="paint32_linear_59_31296" x1="45.7953" y1="49.9796" x2="62.521" y2="61.3888" gradientUnits="userSpaceOnUse">
<stop stop-color="#940004"/>
<stop offset="0.22" stop-color="#C90320"/>
<stop offset="0.43" stop-color="#FF053B"/>
<stop offset="0.71" stop-color="#BF031F"/>
<stop offset="1" stop-color="#7F0003"/>
</linearGradient>
<linearGradient id="paint33_linear_59_31296" x1="39.7308" y1="69.6762" x2="103.687" y2="1.82577" gradientUnits="userSpaceOnUse">
<stop stop-color="white" stop-opacity="0"/>
<stop offset="0.25" stop-color="white" stop-opacity="0.29"/>
<stop offset="0.5" stop-color="white" stop-opacity="0.58"/>
<stop offset="0.75" stop-color="white" stop-opacity="0.29"/>
<stop offset="1" stop-color="white" stop-opacity="0"/>
</linearGradient>
<linearGradient id="paint34_linear_59_31296" x1="103.619" y1="2.12563" x2="39.878" y2="69.8301" gradientUnits="userSpaceOnUse">
<stop stop-color="white" stop-opacity="0"/>
<stop offset="0.25" stop-color="white" stop-opacity="0.29"/>
<stop offset="0.5" stop-color="white" stop-opacity="0.58"/>
<stop offset="0.75" stop-color="white" stop-opacity="0.29"/>
<stop offset="1" stop-color="white" stop-opacity="0"/>
</linearGradient>
<linearGradient id="paint35_linear_59_31296" x1="29.0475" y1="63.0837" x2="107.644" y2="13.1671" gradientUnits="userSpaceOnUse">
<stop stop-color="#46959E"/>
<stop offset="0.2" stop-color="#52A4AD"/>
<stop offset="0.4" stop-color="#5DB4BD"/>
<stop offset="0.68" stop-color="#3AA9B5"/>
<stop offset="0.96" stop-color="#179DAD"/>
<stop offset="0.98" stop-color="#179DAD"/>
<stop offset="1" stop-color="#179DAD"/>
</linearGradient>
<linearGradient id="paint36_linear_59_31296" x1="79.5491" y1="24.3893" x2="70.462" y2="18.9119" gradientUnits="userSpaceOnUse">
<stop stop-color="#0C4F36"/>
<stop offset="0.23" stop-color="#08936A"/>
<stop offset="0.46" stop-color="#05D69E"/>
<stop offset="0.73" stop-color="#09956C"/>
<stop offset="1" stop-color="#0D5439"/>
</linearGradient>
<linearGradient id="paint37_linear_59_31296" x1="67.6177" y1="37.588" x2="68.1168" y2="42.1551" gradientUnits="userSpaceOnUse">
<stop stop-color="#56AAB2" stop-opacity="0.5"/>
<stop offset="0.5" stop-color="#56AAB2" stop-opacity="0.25"/>
<stop offset="1" stop-color="#56AAB2" stop-opacity="0"/>
</linearGradient>
<linearGradient id="paint38_linear_59_31296" x1="64.5658" y1="33.5647" x2="60.5007" y2="38.0008" gradientUnits="userSpaceOnUse">
<stop stop-color="#56AAB2" stop-opacity="0.4"/>
<stop offset="0.5" stop-color="#56AAB2" stop-opacity="0.2"/>
<stop offset="1" stop-color="#56AAB2" stop-opacity="0"/>
</linearGradient>
<linearGradient id="paint39_linear_59_31296" x1="79.9689" y1="47.532" x2="60.4371" y2="75.0653" gradientUnits="userSpaceOnUse">
<stop stop-color="#0B4A32"/>
<stop offset="0.04" stop-color="#0B4A32"/>
<stop offset="0.07" stop-color="#0B4A32"/>
<stop offset="0.32" stop-color="#078761"/>
<stop offset="0.58" stop-color="#04C491"/>
<stop offset="0.79" stop-color="#0C8B66"/>
<stop offset="1" stop-color="#14523B"/>
</linearGradient>
<linearGradient id="paint40_linear_59_31296" x1="76.1404" y1="51.0198" x2="71.812" y2="61.3651" gradientUnits="userSpaceOnUse">
<stop stop-color="#0D4531"/>
<stop offset="0.25" stop-color="#0E4A34" stop-opacity="0.63"/>
<stop offset="0.51" stop-color="#0E5037" stop-opacity="0.26"/>
<stop offset="0.75" stop-color="#0E5238" stop-opacity="0.13"/>
<stop offset="1" stop-color="#0E5439" stop-opacity="0"/>
</linearGradient>
<linearGradient id="paint41_linear_59_31296" x1="66.7045" y1="74.7949" x2="78.4727" y2="61.198" gradientUnits="userSpaceOnUse">
<stop stop-color="white" stop-opacity="0"/>
<stop offset="0.25" stop-color="#95FFDF" stop-opacity="0.35"/>
<stop offset="0.49" stop-color="#2BFFC0" stop-opacity="0.7"/>
<stop offset="0.75" stop-color="#95FFDF" stop-opacity="0.35"/>
<stop offset="1" stop-color="white" stop-opacity="0"/>
</linearGradient>
<linearGradient id="paint42_linear_59_31296" x1="73.212" y1="44.7866" x2="61.5223" y2="74.8067" gradientUnits="userSpaceOnUse">
<stop stop-color="#203F12"/>
<stop offset="0.25" stop-color="#205A32"/>
<stop offset="0.5" stop-color="#217553"/>
<stop offset="0.75" stop-color="#205B34"/>
<stop offset="1" stop-color="#204115"/>
</linearGradient>
<linearGradient id="paint43_linear_59_31296" x1="29.0475" y1="63.083" x2="107.644" y2="13.1664" gradientUnits="userSpaceOnUse">
<stop stop-color="#46959E"/>
<stop offset="0.2" stop-color="#52A4AD"/>
<stop offset="0.4" stop-color="#5DB4BD"/>
<stop offset="0.68" stop-color="#3AA9B5"/>
<stop offset="0.96" stop-color="#179DAD"/>
<stop offset="0.98" stop-color="#179DAD"/>
<stop offset="1" stop-color="#179DAD"/>
</linearGradient>
<radialGradient id="paint44_radial_59_31296" cx="0" cy="0" r="1" gradientUnits="userSpaceOnUse" gradientTransform="translate(72.0552 32.1539) rotate(178.146) scale(10.8095)">
<stop stop-color="#FFF957"/>
<stop offset="0.12" stop-color="#FFF957"/>
<stop offset="0.23" stop-color="#FFF957"/>
<stop offset="0.41" stop-color="#EDC934"/>
<stop offset="0.6" stop-color="#DB9910"/>
<stop offset="0.8" stop-color="#DE9B10"/>
<stop offset="1" stop-color="#E19D10"/>
</radialGradient>
<linearGradient id="paint45_linear_59_31296" x1="70.9822" y1="28.5617" x2="74.2104" y2="41.4273" gradientUnits="userSpaceOnUse">
<stop stop-color="#D99F00"/>
<stop offset="0.09" stop-color="#D99F00"/>
<stop offset="0.18" stop-color="#D99F00"/>
<stop offset="0.49" stop-color="#BD8000"/>
<stop offset="0.8" stop-color="#A16100"/>
<stop offset="0.9" stop-color="#A16100"/>
<stop offset="1" stop-color="#A16100"/>
</linearGradient>
<radialGradient id="paint46_radial_59_31296" cx="0" cy="0" r="1" gradientUnits="userSpaceOnUse" gradientTransform="translate(60.0574 26.6553) rotate(178.146) scale(9.77512)">
<stop stop-color="#FFF957"/>
<stop offset="0.05" stop-color="#FFF957"/>
<stop offset="0.09" stop-color="#FFF957"/>
<stop offset="0.44" stop-color="#EAC135"/>
<stop offset="0.78" stop-color="#D48913"/>
<stop offset="0.89" stop-color="#D48913"/>
<stop offset="1" stop-color="#D48913"/>
</radialGradient>
<linearGradient id="paint47_linear_59_31296" x1="55.5604" y1="25.7059" x2="65.6537" y2="32.8322" gradientUnits="userSpaceOnUse">
<stop stop-color="#D99F00"/>
<stop offset="0.09" stop-color="#D99F00"/>
<stop offset="0.18" stop-color="#D99F00"/>
<stop offset="0.49" stop-color="#BD8000"/>
<stop offset="0.8" stop-color="#A16100"/>
<stop offset="0.9" stop-color="#A16100"/>
<stop offset="1" stop-color="#A16100"/>
</linearGradient>
<linearGradient id="paint48_linear_59_31296" x1="51.085" y1="107.675" x2="51.7671" y2="93.4026" gradientUnits="userSpaceOnUse">
<stop stop-color="#FFB800"/>
<stop offset="0.25" stop-color="#FFD616"/>
<stop offset="0.5" stop-color="#FFF42D"/>
<stop offset="0.75" stop-color="#FFF996"/>
<stop offset="1" stop-color="white"/>
</linearGradient>
<linearGradient id="paint49_linear_59_31296" x1="50.3299" y1="92.1965" x2="50.2174" y2="108.737" gradientUnits="userSpaceOnUse">
<stop stop-color="#FF0000"/>
<stop offset="0.5" stop-color="#FF4F00"/>
<stop offset="1" stop-color="#FF9D00"/>
</linearGradient>
</defs>
</svg>
