<svg width="94" height="113" viewBox="0 0 94 113" fill="none" xmlns="http://www.w3.org/2000/svg">
<path d="M30.1313 25.0702C30.1313 25.0702 31.2438 9.49729 36.0639 1.52565C36.0639 1.52565 51.822 -4.40668 65.9117 23.5872" fill="url(#paint0_linear_59_34890)"/>
<path d="M30.0695 26.8008C30.0695 26.8008 30.1313 10.4248 35.7547 2.20587C35.7547 2.20587 46.8679 0.0941341 49.5973 21.4813L46.013 22.2278C46.013 22.2278 45.2713 8.26172 37.1143 6.65511C37.1143 6.65511 32.7886 12.8347 33.0359 24.9469L30.0695 26.8008Z" fill="url(#paint1_linear_59_34890)"/>
<path d="M36.1258 20.4976C36.1258 20.4976 41.44 18.5202 45.0243 18.2729C45.0243 18.2729 44.9007 11.7222 39.8334 7.27295C39.8334 7.27295 36.3731 12.5876 36.1258 20.4976Z" fill="url(#paint2_linear_59_34890)"/>
<path d="M35.3222 22.8451C35.3222 22.8451 35.5076 12.0922 39.4009 7.45752" stroke="black" stroke-width="1.95689" stroke-linecap="round" stroke-linejoin="round"/>
<path d="M47.7434 11.9073C47.7434 11.9073 49.2355 14.554 49.9679 20.806C50.7003 27.058 59.349 21.0164 59.9791 18.7667C59.9791 18.7667 62.343 19.998 55.7667 11.5876C49.1903 3.17707 43.753 5.32623 47.7434 11.9073Z" fill="url(#paint3_linear_59_34890)"/>
<path d="M30.1313 25.0702C30.1313 25.0702 31.2436 9.49753 36.0637 1.52588" stroke="black" stroke-width="1.95689" stroke-linecap="round" stroke-linejoin="round"/>
<path d="M36.0637 1.5257C36.0637 1.5257 51.8221 -4.40687 65.9117 23.587" stroke="black" stroke-width="1.95689" stroke-linecap="round" stroke-linejoin="round"/>
<path d="M37.7324 5.9751C37.7324 5.9751 44.2212 8.01442 45.1481 20.9918" stroke="black" stroke-width="1.95689" stroke-linecap="round" stroke-linejoin="round"/>
<path d="M9.23392 44.4707C9.23392 44.4707 3.73872 43.3467 2.54452 49.2277C1.16614 56.0159 15.1665 62.3846 15.1665 62.3846L9.23392 44.4707Z" fill="#9199A8"/>
<path d="M9.23392 44.4707C9.23392 44.4707 3.73872 43.3467 2.54452 49.2277C1.16614 56.0159 15.1665 62.3846 15.1665 62.3846L9.23392 44.4707Z" stroke="#060707" stroke-width="1.95689" stroke-linecap="round" stroke-linejoin="round"/>
<path d="M19.1426 111.731C19.1426 111.731 14.925 108.872 12.4682 105.52C9.7926 101.87 7.37143 96.3144 6.08233 85.1872C5.68557 81.7627 12.3857 73.8786 13.7761 64.2382C14.9759 55.9197 8.33594 55.2529 5.98962 51.6317C5.17873 50.3805 6.0635 48.8923 6.47738 47.4385C14.2056 20.3025 48.135 15.026 63.2146 17.6642C78.2941 20.3023 92.6196 34.4357 91.8657 54.034C91.1118 73.6323 88.1172 84.3531 88.1172 84.3531C88.1172 84.3531 82.5022 95.925 57.6208 104.468C35.2794 112.139 19.1426 111.731 19.1426 111.731Z" fill="url(#paint4_linear_59_34890)"/>
<g opacity="0.13">
<path d="M33.2832 108.867C33.2832 108.867 24.1075 74.6305 31.8109 49.0784C37.1764 31.2809 51.9148 27.3877 51.9148 27.3877C51.9148 27.3877 67.0966 29.849 70.7834 39.5818C70.7834 39.5818 58.8669 52.9716 57.9315 65.2073C56.0144 90.2844 53.3051 104.695 53.3051 104.695C53.3051 104.695 37.4545 111.925 33.2832 108.867Z" fill="white"/>
</g>
<g opacity="0.43">
<path d="M7.00922 85.3726C7.00922 85.3726 8.62634 94.9616 12.3342 102.933C12.3342 102.933 16.4128 108.495 21.2329 110.905" stroke="white" stroke-width="1.95689" stroke-linecap="round" stroke-linejoin="round"/>
</g>
<path d="M50.2049 79.9964C50.2049 79.9964 70.6124 75.5 75.7218 58.862C81.614 39.6751 77.0865 32.166 77.0865 32.166C77.0865 32.166 60.5779 38.8031 53.7555 51.8754C47.9804 62.9406 50.2049 79.9964 50.2049 79.9964Z" fill="url(#paint5_linear_59_34890)"/>
<path d="M49.6489 87.9682C49.6489 87.9682 49.1337 97.1869 49.69 105.529C49.69 105.529 63.038 103.305 69.7119 99.1332C69.7119 99.1332 73.3271 83.5605 73.6052 78.555C73.8833 73.5496 53.027 77.9988 49.4119 88.8441" fill="url(#paint6_linear_59_34890)"/>
<g opacity="0.67">
<path d="M6.07446 51.7731C6.07446 51.7731 9.72554 30.7948 34.251 21.5475C51.2141 15.1516 69.8457 19.3227 69.8457 19.3227" stroke="url(#paint7_linear_59_34890)" stroke-width="1.95689" stroke-linecap="round" stroke-linejoin="round"/>
</g>
<g opacity="0.57">
<path d="M50.9466 54.9693C37.5829 61.5105 20.035 60.0954 15.1665 50.149C10.298 40.2026 17.6728 29.5899 31.0364 23.0488C44.4 16.5076 59.1802 19.2685 64.0487 29.2149C68.9172 39.1613 64.3102 48.4282 50.9466 54.9693Z" fill="url(#paint8_radial_59_34890)"/>
</g>
<path d="M88.4057 69.687C88.4057 69.687 86.94 81.1864 85.0687 84.0186C80.4957 90.9398 68.26 98.6077 59.0831 100.832C59.0831 100.832 67.7656 85.4143 69.9904 82.9115C72.2151 80.4086 88.4057 69.687 88.4057 69.687Z" fill="url(#paint9_linear_59_34890)"/>
<path d="M88.5965 39.377C90.136 43.5319 90.931 48.1463 90.7397 53.118C89.9981 72.3985 87.0319 82.4714 87.0319 82.4714C87.0319 82.4714 81.594 94.0892 57.1225 102.494C35.1493 110.04 22.4376 110.813 22.4376 110.813" stroke="#DDF943" stroke-width="1.98943" stroke-linecap="round" stroke-linejoin="round"/>
<path d="M59.0831 100.832C59.0831 100.832 67.0858 86.372 69.9904 82.9115C72.8949 79.4509 88.4057 69.687 88.4057 69.687C88.4057 69.687 73.8733 80.7995 71.0307 84.3838C71.0307 84.3838 62.2658 95.0236 59.0831 100.832Z" fill="#135100"/>
<path d="M8.86304 52.1874C8.86304 52.1874 12.7974 35.3894 27.2578 28.3446C27.2578 28.3446 32.4487 26.4907 38.3813 26.8615C38.3813 26.8615 22.4378 35.1732 20.0276 55.2262C17.8305 73.508 8.86304 52.1874 8.86304 52.1874Z" fill="url(#paint10_radial_59_34890)"/>
<g opacity="0.5">
<path d="M8.68768 92.8301C8.68768 92.8301 10.5416 95.7962 19.2549 96.9085C27.9682 98.0207 38.5357 95.9817 38.5357 95.9817C38.5357 95.9817 36.4961 107.136 22.6538 110.102" stroke="white" stroke-width="4.40301" stroke-linecap="round" stroke-linejoin="round"/>
<path d="M18.3284 96.9082C18.3284 96.9082 18.6373 104.231 19.935 109.978" stroke="white" stroke-width="4.40301" stroke-linecap="round" stroke-linejoin="round"/>
</g>
<path d="M18.0905 96.6936C10.4041 95.6323 7.64563 92.4927 7.64563 92.4927C7.64563 92.4927 9.1199 98.7511 11.3826 103.399C13.0579 106.84 17.559 110.737 19.5885 111.641C34.1926 110.431 38.2886 95.8889 38.2886 95.8889C38.2886 95.8889 26.7921 97.8952 18.0905 96.6936Z" stroke="white" stroke-width="1.95689" stroke-linecap="round" stroke-linejoin="round"/>
<path d="M18.081 96.8164C18.081 96.8164 18.3899 104.603 19.6876 110.35" stroke="white" stroke-width="1.95689" stroke-linecap="round" stroke-linejoin="round"/>
<g opacity="0.5">
<path d="M77.124 66.3606C77.124 66.3606 83.7598 63.3485 90.1846 61.1548" stroke="white" stroke-width="4.40301" stroke-linecap="round" stroke-linejoin="round"/>
</g>
<path d="M76.4789 66.5978C76.4789 66.5978 82.5966 64.3734 91.3718 60.6655" stroke="white" stroke-width="1.95689" stroke-miterlimit="10"/>
<g opacity="0.5">
<path d="M46.8165 58.7185C46.8165 58.7185 48.485 45.9265 57.3838 38.1401C66.2825 30.3536 74.8104 29.4268 74.8104 29.4268" stroke="white" stroke-width="4.40301" stroke-linecap="round" stroke-linejoin="round"/>
</g>
<path d="M46.8165 58.6257C46.8165 58.6257 48.485 45.8338 57.3838 38.0473C66.2825 30.2608 74.8104 29.334 74.8104 29.334" stroke="white" stroke-width="1.95689" stroke-linecap="round" stroke-linejoin="round"/>
<path d="M19.1426 111.731C19.1426 111.731 14.925 108.872 12.4682 105.52C9.7926 101.87 7.37143 96.3144 6.08233 85.1873C5.68557 81.7627 12.3855 73.8786 13.7759 64.2382C14.9757 55.9197 8.33594 55.2529 5.98962 51.6317C5.17873 50.3805 6.0635 48.892 6.47738 47.4383C14.2056 20.3023 48.1347 15.026 63.2143 17.6642C78.2939 20.3023 92.6196 34.4357 91.8657 54.034C91.1118 73.6323 88.1173 84.3531 88.1173 84.3531C88.1173 84.3531 82.5019 95.925 57.6205 104.468C35.2792 112.139 19.1426 111.731 19.1426 111.731Z" stroke="black" stroke-width="1.98943" stroke-linecap="round" stroke-linejoin="round"/>
<path d="M89.8165 40.5083C91.3561 44.6633 92.0574 49.9557 91.8661 54.9274C91.1245 74.208 88.1583 84.2808 88.1583 84.2808C88.1583 84.2808 82.7201 95.8984 58.2487 104.303C36.2755 111.849 19.5692 111.791 19.5692 111.791" stroke="black" stroke-width="1.95689" stroke-linecap="round" stroke-linejoin="round"/>
<path d="M24.6396 61.4402C24.6396 61.4402 24.8869 68.9792 20.5612 74.9117C16.2355 80.8443 12.1568 87.6418 12.1568 87.6418L18.7073 90.4844C18.7073 90.4844 40.8304 74.6647 54.4257 72.3164C68.021 69.9681 75.3128 71.2039 75.3128 71.2039C75.3128 71.2039 78.7734 62.4289 71.9758 61.1929C65.1783 59.9569 56.2794 62.3054 45.774 62.9233C35.2687 63.5412 24.6396 61.4402 24.6396 61.4402Z" fill="url(#paint11_linear_59_34890)"/>
<path d="M21.6736 90.4843C21.6736 90.4843 22.2915 83.0689 36.2576 75.5297C50.2237 67.9905 68.0209 66.1364 72.2231 74.4172C72.2231 74.4172 51.8303 88.7542 36.752 89.8664C21.6736 90.9787 21.6736 90.4843 21.6736 90.4843Z" fill="#030403"/>
<path d="M19.2635 80.8132C19.2635 80.8132 22.8502 76.5949 26.3083 72.4088C31.0048 66.7236 29.8923 62.6449 29.8923 62.6449C29.8923 62.6449 21.7353 61.6562 18.151 60.5439C18.151 60.5439 18.7691 68.5775 15.6792 74.1392C12.5892 79.701 11.2299 82.9142 11.2299 82.9142C11.2299 82.9142 14.8142 81.0605 19.2635 80.8132Z" fill="url(#paint12_linear_59_34890)"/>
<path d="M13.7637 80.3498C13.7637 80.3498 15.1232 77.6307 17.1007 74.1701C19.0781 70.7096 20.8085 63.6648 20.1906 60.0805L16.4828 58.9683C16.4828 58.9683 17.3477 65.2714 13.8872 72.0689C10.4267 78.8664 8.6963 81.8328 9.68502 83.3159L13.7637 80.3498Z" fill="#7C8E6E"/>
<path d="M9.685 83.4399C9.685 83.4399 13.022 79.4848 18.4602 80.2264C23.8984 80.9681 28.8422 86.9004 30.9432 90.4847C30.9432 90.4847 10.7972 93.2038 9.685 83.4399Z" fill="#594D57"/>
<g opacity="0.24">
<path d="M14.5516 86.6071C14.5516 86.6071 15.0151 83.2237 17.7959 82.2968C20.5766 81.37 27.2198 86.1128 26.231 88.2756C25.2423 90.4385 14.6135 87.8431 14.5516 86.6071Z" fill="url(#paint13_linear_59_34890)"/>
</g>
<g opacity="0.67">
<path d="M10.102 85.0312C10.102 85.0312 16.3127 79.4232 22.6158 82.204" stroke="url(#paint14_linear_59_34890)" stroke-width="1.95689" stroke-linecap="round" stroke-linejoin="round"/>
</g>
<path d="M9.685 83.788C9.685 83.788 13.022 79.8329 18.4602 80.5746C23.8984 81.3162 28.8422 87.2486 30.9432 90.8329" stroke="black" stroke-width="1.98943" stroke-linecap="round" stroke-linejoin="round"/>
<path d="M20.7773 84.6069C20.7773 85.1573 20.352 85.6034 19.8273 85.6034C19.3026 85.6034 18.8772 85.1573 18.8772 84.6069C18.8772 84.0565 19.3026 83.6104 19.8273 83.6104C20.352 83.6104 20.7773 84.0565 20.7773 84.6069Z" fill="black"/>
<path d="M24.9717 87.4267C24.9717 87.9771 24.5464 88.4233 24.0217 88.4233C23.497 88.4233 23.0716 87.9771 23.0716 87.4267C23.0716 86.8763 23.497 86.4302 24.0217 86.4302C24.5464 86.4302 24.9717 86.8763 24.9717 87.4267Z" fill="black"/>
<path d="M16.9122 83.8803C16.7595 84.4089 16.2652 84.7308 15.8082 84.5988C15.3513 84.4667 15.1045 83.931 15.2571 83.4024C15.4098 82.8737 15.9041 82.5518 16.3611 82.6839C16.818 82.816 17.0648 83.3517 16.9122 83.8803Z" fill="black"/>
<path d="M12.9087 85.0572C12.7314 85.5499 12.3097 85.8493 11.9667 85.726C11.6238 85.6027 11.4892 85.1032 11.6666 84.6106C11.8439 84.1179 12.2656 83.8185 12.6086 83.9418C12.9515 84.0651 13.0861 84.5646 12.9087 85.0572Z" fill="black"/>
<path d="M17.4325 86.7314C17.4325 87.2818 17.0071 87.728 16.4824 87.728C15.9577 87.728 15.5323 87.2818 15.5323 86.7314C15.5323 86.181 15.9577 85.7349 16.4824 85.7349C17.0071 85.7349 17.4325 86.181 17.4325 86.7314Z" fill="black"/>
<path d="M21.2025 87.6385C21.2025 88.2337 20.7426 88.7161 20.1751 88.7161C19.6076 88.7161 19.1478 88.2337 19.1478 87.6385C19.1478 87.0434 19.6076 86.561 20.1751 86.561C20.7426 86.561 21.2025 87.0434 21.2025 87.6385Z" fill="black"/>
<path d="M14.6626 86.1822C14.4852 86.6749 14.0635 86.9743 13.7206 86.851C13.3776 86.7277 13.2431 86.2282 13.4204 85.7356C13.5978 85.2429 14.0195 84.9435 14.3624 85.0668C14.7054 85.1901 14.8399 85.6896 14.6626 86.1822Z" fill="black"/>
<path d="M47.6282 86.6532C47.6282 86.6532 55.0436 66.631 60.1109 62.1817C60.1109 62.1817 64.3131 60.6984 67.1558 61.4401C69.9984 62.1817 53.8078 85.4172 53.8078 85.4172C53.8078 85.4172 49.9764 86.7767 47.6282 86.6532Z" fill="#7A8E6E"/>
<path d="M50.9652 85.6648C50.9652 85.6648 59.7844 64.9592 63.8191 61.1934C65.673 59.463 75.1893 62.1821 76.4254 65.5191C77.6614 68.8561 74.4479 73.5526 67.0323 78.9909C59.6166 84.4291 50.9652 85.6648 50.9652 85.6648Z" fill="url(#paint15_linear_59_34890)"/>
<path d="M12.775 56.8672L16.4825 58.2267C16.4825 58.2267 17.1004 66.5076 14.9995 71.3276C12.8985 76.1477 7.58381 81.0913 10.1794 86.0352C12.775 90.979 24.5161 92.4621 41.8192 88.7543C59.1223 85.0464 74.695 73.923 77.4141 69.2264C77.4141 69.2264 77.7849 73.0578 72.594 78.0016C67.4031 82.9455 55.1674 90.9788 31.3138 93.5743C7.46028 96.1699 4.37059 87.2712 6.47155 81.7095C8.57252 76.1477 15.9884 68.8558 12.775 56.8672Z" fill="url(#paint16_linear_59_34890)"/>
<path d="M6.16266 85.5407C6.16266 85.5407 5.421 82.2037 8.01657 78.3105C10.6121 74.4173 15.2468 65.3334 13.0221 57.5469" stroke="black" stroke-width="1.95689" stroke-linecap="round" stroke-linejoin="round"/>
<path d="M16.2354 58.7207C16.2354 58.7207 17.3479 62.4283 15.6176 68.8552C13.8872 75.2821 9.19063 79.1135 9.31416 84.0573C9.43769 89.0012 18.9448 93.0581 38.3586 89.6191C59.9874 85.7877 72.594 76.0236 76.9197 69.226" stroke="black" stroke-width="1.95689" stroke-linecap="round" stroke-linejoin="round"/>
<path d="M5.61884 51.1685C5.61884 51.1685 11.3212 59.2607 27.6679 61.4402C52.6956 64.7772 59.9258 61.2548 66.7852 60.6985C73.6446 60.1423 77.7233 62.3673 77.3524 70.5243C76.9816 78.6814 61.3878 86.7475 46.1451 91.1025C34.8981 94.316 8.75818 97.4057 6.16261 85.5408" stroke="black" stroke-width="1.98943" stroke-linecap="round" stroke-linejoin="round"/>
<path d="M6.20286 48.0852C0.130372 47.5053 2.69684 58.2315 4.81077 56.4319C6.37996 52.4958 5.57298 48.4837 6.20286 48.0852Z" fill="#9199A8"/>
<path d="M6.04616 48.1104C6.04616 48.1104 5.3045 51.8182 14.5347 55.5517C27.7961 60.9158 46.3498 61.0058 64.7581 58.3992C75.2326 56.9161 78.1063 61.8289 77.7355 67.3906C77.7355 67.3906 33.2986 74.4976 21.3099 70.1719C9.32127 65.8462 0.953104 59.7896 2.55972 49.7786" fill="#9199A8"/>
<path d="M6.04616 48.1104C6.04616 48.1104 5.3045 51.8182 14.5347 55.5517C27.7961 60.9158 46.3498 61.0058 64.7581 58.3992C75.2326 56.9161 78.1063 61.8289 77.7355 67.3906C77.7355 67.3906 33.2986 74.4976 21.3099 70.1719C9.32127 65.8462 0.953104 59.7896 2.55972 49.7786" stroke="#060707" stroke-width="1.95689" stroke-linecap="round" stroke-linejoin="round"/>
<path d="M2.55965 48.666C2.55965 48.666 1.26565 54.5098 13.9302 59.0478C28.7615 64.3623 45.8175 64.3625 64.7272 61.2726C75.4395 59.5221 78.2332 62.5881 77.8624 68.1498C77.3563 75.7431 70.4692 81.3068 61.548 85.391C46.1607 92.4358 28.5487 95.4023 17.4252 93.1775C6.30172 90.9528 3.70639 85.0202 3.70639 85.0202C3.70639 85.0202 -1.51901 66.2781 2.55965 48.666Z" fill="url(#paint17_linear_59_34890)"/>
<path d="M5.31663 54.4009C5.31663 54.4009 4.8257 77.2581 7.60644 88.6595C7.60644 88.6595 15.4854 94.4064 27.1649 93.2941L25.5514 61.9124C25.5514 61.9124 12.361 58.6354 5.31663 54.4009Z" fill="url(#paint18_linear_59_34890)"/>
<path d="M5.35974 54.4482C5.35974 54.4482 9.60473 59.2333 16.4641 60.1602C16.4641 60.1602 14.7528 77.4914 18.0898 93.4349C18.0898 93.4349 9.68545 91.2102 7.33718 88.4911C7.33718 88.4911 4.47254 71.9054 5.35974 54.4482Z" fill="url(#paint19_linear_59_34890)"/>
<path d="M3.7957 53.4243C3.7957 53.4243 7.20877 57.3601 18.9978 60.2218C30.7869 63.0835 47.5763 64.8467 63.1206 61.5814C72.1957 59.6749 75.1636 61.9043 75.1135 66.22C75.045 72.1119 69.4561 78.7348 62.0272 82.3631C49.2137 88.6215 33.7054 92.6035 19.1214 90.3788C9.5524 88.9192 4.78443 81.8509 4.78443 81.8509C4.78443 81.8509 1.15463 67.2449 3.7957 53.4243Z" fill="url(#paint20_linear_59_34890)"/>
<g opacity="0.24">
<path d="M26.0424 61.6431C26.0424 61.6431 43.1789 64.6374 49.2969 63.4632C49.2969 63.4632 48.5555 76.0646 48.1847 90.6486C48.1847 90.6486 30.2634 93.6818 27.7916 93.6818C27.7916 93.6818 24.1885 82.2213 26.0424 61.6431Z" fill="url(#paint21_linear_59_34890)"/>
</g>
<g opacity="0.8">
<path d="M29.8778 93.3726C33.4688 93.0401 40.9921 92.8341 43.4083 91.0281C46.1021 87.4975 47.6023 82.8725 49.8472 76.4989C51.6056 71.5063 53.1956 65.2379 53.5348 62.8711C51.1774 62.3027 45.9795 62.6695 40.2395 63.509C39.7261 65.6196 36.929 74.5943 34.2077 80.1612C35.0331 80.2815 38.3967 78.2024 39.7768 77.136C39.0057 81.4012 34.85 89.3321 29.8778 93.3726Z" fill="url(#paint22_linear_59_34890)"/>
</g>
<g opacity="0.74">
<path d="M68.9221 67.7066C69.0855 67.8669 69.3524 67.8505 69.4803 67.6609C69.9385 66.9816 71.0356 65.7194 72.5791 66.2955C74.6279 67.0599 74.5565 69.4781 72.9807 72.7224C72.0551 74.6284 71.0226 75.9156 70.3284 76.6535C69.8947 77.1144 69.1748 77.1447 68.7017 76.7245C67.1012 75.303 63.7241 71.9626 63.8658 69.2C64.0399 65.8023 67.1622 65.9799 68.9221 67.7066Z" fill="white"/>
</g>
<g opacity="0.36">
<path d="M66.3528 73.7058L71.4975 66.5683C71.4975 66.5683 73.166 66.1512 73.8149 68.0978L68.3459 75.9768C68.3459 75.9768 66.7698 74.9572 66.3528 73.7058Z" fill="white"/>
</g>
<g opacity="0.36">
<path d="M65.4261 72.9487L69.1956 68.0051L68.485 67.6343L65.0553 72.4235L65.4261 72.9487Z" fill="white"/>
</g>
<path d="M68.9221 67.7066C69.0855 67.8669 69.3524 67.8505 69.4803 67.6609C69.9385 66.9816 71.0356 65.7194 72.5791 66.2955C74.6279 67.0599 74.5565 69.4781 72.9807 72.7224C72.0551 74.6284 71.0226 75.9156 70.3284 76.6535C69.8947 77.1144 69.1748 77.1447 68.7017 76.7245C67.1012 75.303 63.7241 71.9626 63.8658 69.2C64.0399 65.8023 67.1622 65.9799 68.9221 67.7066Z" stroke="#060707" stroke-width="1.22306" stroke-linecap="round" stroke-linejoin="round"/>
<g opacity="0.4">
<mask id="mask0_59_34890" style="mask-type:luminance" maskUnits="userSpaceOnUse" x="5" y="17" width="55" height="95">
<path d="M50.3993 17.9073C22.868 26.9393 13.2472 37.337 9.13454 51.3623C7.40758 51.3579 6.30683 52.6421 6.36798 53.9569C3.98302 57.6567 5.57299 84.0136 7.87577 90.3767C8.23314 90.9239 9.27274 91.5354 9.87718 91.8546C10.4652 97.1309 12.0136 103.076 13.2477 106.12C13.8592 107.252 17.9565 111.899 20.9224 111.563C19.7605 105.998 19.5159 97.4978 19.7519 94.6552C19.1795 94.7153 18.6291 94.5625 18.3818 94.4071C16.4582 79.794 16.2748 64.995 17.3755 59.0938C17.5044 58.4032 17.8647 56.8005 19.1643 56.0689C22.0769 36.6 37.714 22.6011 59.571 18.7023C58.1033 17.7238 54.2889 17.4455 50.3993 17.9073Z" fill="url(#paint23_linear_59_34890)"/>
</mask>
<g mask="url(#mask0_59_34890)">
<path d="M50.3993 17.9073C22.868 26.9393 13.2472 37.337 9.13454 51.3623C7.40758 51.3579 6.30683 52.6421 6.36798 53.9569C3.98302 57.6567 5.57299 84.0136 7.87577 90.3767C8.23314 90.9239 9.27274 91.5354 9.87718 91.8546C10.4652 97.1309 12.0136 103.076 13.2477 106.12C13.8592 107.252 17.9565 111.899 20.9224 111.563C19.7605 105.998 19.5159 97.4978 19.7519 94.6552C19.1795 94.7153 18.6291 94.5625 18.3818 94.4071C16.4582 79.794 16.2748 64.995 17.3755 59.0938C17.5044 58.4032 17.8647 56.8005 19.1643 56.0689C22.0769 36.6 37.714 22.6011 59.571 18.7023C58.1033 17.7238 54.2889 17.4455 50.3993 17.9073Z" fill="url(#paint24_linear_59_34890)"/>
</g>
<mask id="mask1_59_34890" style="mask-type:luminance" maskUnits="userSpaceOnUse" x="33" y="26" width="54" height="84">
<path d="M75.2262 26.0405C56.1465 26.0405 40.3079 36.7423 37.4484 58.7617C35.7214 58.7573 34.6818 60.5919 34.743 61.9067C33.948 66.8295 33.0918 86.7042 35.0888 93.74C35.4462 94.2872 36.761 93.8591 37.3349 94.056C37.8618 99.3017 38.565 103.858 38.9625 109.056C41.2252 108.787 46.8512 106.952 49.8477 106.09C49.1445 100.8 49.6031 94.5318 49.4111 91.1693C48.8387 91.2295 48.2272 91.3213 47.9799 91.1659C46.0562 76.5528 46.7901 68.1137 47.8908 62.2125C48.0197 61.5219 48.4412 59.3077 49.3128 58.8207C52.5996 41.8791 66.7259 32.7673 86.1114 29.832C84.6437 28.8536 78.0392 26.2851 75.2262 26.0405Z" fill="url(#paint25_linear_59_34890)"/>
</mask>
<g mask="url(#mask1_59_34890)">
<path d="M75.2262 26.0405C56.1465 26.0405 40.3079 36.7423 37.4484 58.7617C35.7214 58.7573 34.6818 60.5919 34.743 61.9067C33.948 66.8295 33.0918 86.7042 35.0888 93.74C35.4462 94.2872 36.761 93.8591 37.3349 94.056C37.8618 99.3017 38.565 103.858 38.9625 109.056C41.2252 108.787 46.8512 106.952 49.8477 106.09C49.1445 100.8 49.6031 94.5318 49.4111 91.1693C48.8387 91.2295 48.2272 91.3213 47.9799 91.1659C46.0562 76.5528 46.7901 68.1137 47.8908 62.2125C48.0197 61.5219 48.4412 59.3077 49.3128 58.8207C52.5996 41.8791 66.7259 32.7673 86.1114 29.832C84.6437 28.8536 78.0392 26.2851 75.2262 26.0405Z" fill="url(#paint26_linear_59_34890)"/>
</g>
</g>
<path d="M2.55965 48.666C2.55965 48.666 1.26589 54.5098 13.9304 59.0478C28.7617 64.3623 45.8175 64.3625 64.7272 61.2726C75.4395 59.5221 78.2332 62.5881 77.8624 68.1498C77.3563 75.7431 70.4692 81.3068 61.548 85.391C46.1607 92.4358 28.5487 95.4023 17.4252 93.1775C6.30172 90.9528 3.70639 85.0204 3.70639 85.0204C3.70639 85.0204 -1.51901 66.2781 2.55965 48.666Z" stroke="#060707" stroke-width="1.95689" stroke-linecap="round" stroke-linejoin="round"/>
<path d="M2.55676 48.6572C2.55676 48.6572 1.26277 54.501 13.9273 59.039C28.7586 64.3535 45.8144 64.3537 64.7241 61.2638C75.4364 59.5133 78.2301 62.5793 77.8592 68.141C77.3531 75.7343 70.4663 81.298 61.5451 85.3822C46.1578 92.4271 28.5458 95.3932 17.4223 93.1685C6.29883 90.9437 3.70326 85.0114 3.70326 85.0114C3.70326 85.0114 -1.52189 66.2693 2.55676 48.6572Z" stroke="url(#paint27_linear_59_34890)" stroke-width="1.95689" stroke-linecap="round" stroke-linejoin="round"/>
<g opacity="0.2">
<path d="M36.1094 63.2331C41.6515 63.5093 47.4163 63.3217 53.3905 62.7495" stroke="url(#paint28_linear_59_34890)" stroke-width="1.95689" stroke-linecap="round" stroke-linejoin="round"/>
</g>
<g opacity="0.2">
<path d="M36.1094 63.2331C41.6515 63.5093 47.4163 63.3217 53.3905 62.7495" stroke="url(#paint29_linear_59_34890)" stroke-width="1.95689" stroke-linecap="round" stroke-linejoin="round"/>
</g>
<g opacity="0.2">
<path d="M36.1094 63.2331C41.6515 63.5093 47.4163 63.3217 53.3905 62.7495" stroke="url(#paint30_linear_59_34890)" stroke-width="1.95689" stroke-linecap="round" stroke-linejoin="round"/>
</g>
<g opacity="0.2">
<path d="M36.1094 63.2331C41.6515 63.5093 47.4163 63.3217 53.3905 62.7495" stroke="url(#paint31_linear_59_34890)" stroke-width="1.95689" stroke-linecap="round" stroke-linejoin="round"/>
</g>
<path d="M36.1094 63.2331C41.6515 63.5093 47.4163 63.3217 53.3905 62.7495" stroke="url(#paint32_linear_59_34890)" stroke-width="1.95689" stroke-linecap="round" stroke-linejoin="round"/>
<g opacity="0.2">
<path d="M3.99268 52.8667C5.43613 54.7463 8.26139 56.9823 13.7478 58.9742" stroke="url(#paint33_linear_59_34890)" stroke-width="1.95689" stroke-linecap="round" stroke-linejoin="round"/>
</g>
<g opacity="0.2">
<path d="M3.99268 52.8667C5.43613 54.7463 8.26139 56.9823 13.7478 58.9742" stroke="url(#paint34_linear_59_34890)" stroke-width="1.95689" stroke-linecap="round" stroke-linejoin="round"/>
</g>
<g opacity="0.2">
<path d="M3.99268 52.8667C5.43613 54.7463 8.26139 56.9823 13.7478 58.9742" stroke="url(#paint35_linear_59_34890)" stroke-width="1.95689" stroke-linecap="round" stroke-linejoin="round"/>
</g>
<g opacity="0.2">
<path d="M3.99268 52.8667C5.43613 54.7463 8.26139 56.9823 13.7478 58.9742" stroke="url(#paint36_linear_59_34890)" stroke-width="1.95689" stroke-linecap="round" stroke-linejoin="round"/>
</g>
<path d="M3.99268 52.8667C5.43613 54.7463 8.26139 56.9823 13.7478 58.9742" stroke="url(#paint37_linear_59_34890)" stroke-width="1.95689" stroke-linecap="round" stroke-linejoin="round"/>
<path d="M75.4158 59.576C76.6347 72.1312 67.4449 83.2975 54.8897 84.5164C42.3345 85.7353 31.1682 76.5455 29.9493 63.9903C28.7304 51.4351 37.9202 40.2688 50.4754 39.0499C63.0306 37.831 74.1969 47.0208 75.4158 59.576Z" fill="url(#paint38_radial_59_34890)"/>
<path d="M52.0279 51.9472C52.0279 51.9472 52.252 61.8346 56.3536 61.8346C56.3536 61.8346 52.2038 61.214 52.2038 71.7764C52.2038 71.7764 51.9433 61.8965 48.3201 61.8965C48.3201 61.8965 52.0279 61.2346 52.0279 51.9472Z" fill="white"/>
<path d="M79.8775 46.4518C79.8775 46.4518 86.5413 48.4752 90.9289 45.4472C90.9289 45.4472 94.4615 25.9971 88.529 16.1715C82.5964 6.34598 73.6463 1.15483 66.1639 1.34025C66.1639 1.34025 56.4565 10.1463 54.9734 24.1432C54.9734 24.1432 56.2711 27.2948 60.5351 27.2021C60.5351 27.2021 63.038 10.9804 69.6193 9.77544C69.6193 9.77544 78.8888 19.6012 75.7372 42.775C75.7372 42.775 77.2511 46.3282 79.8775 46.4518Z" fill="url(#paint39_linear_59_34890)"/>
<path d="M56.0756 21.9695C56.0756 21.9695 54.4073 26.4187 58.3622 26.7896C58.3622 26.7896 59.2374 13.9467 66.5295 6.90191C66.5295 6.90191 74.0687 13.3286 75.5518 23.4633C77.0349 33.5981 75.9124 43.1039 75.9124 43.1039C75.9124 43.1039 76.5921 46.0701 79.8775 46.4517C79.8775 46.4517 82.3129 36.9586 80.2483 24.9464C77.5292 9.12641 68.9705 3.19408 65.7262 1.80371C65.7262 1.80371 58.6712 6.76761 56.0756 21.9695Z" fill="url(#paint40_linear_59_34890)"/>
<path d="M60.597 27.0477C60.597 27.0477 70.608 29.1487 75.5518 39.9013C75.5518 39.9013 80.1248 21.9803 69.0014 9.74463C69.0014 9.74463 61.833 13.4525 60.597 27.0477Z" fill="url(#paint41_linear_59_34890)"/>
<path d="M78.7963 18.2114C78.7963 18.2114 81.2065 27.1101 80.6503 35.4526C80.094 43.7951 79.5996 46.4523 79.5996 46.4523C79.5996 46.4523 87.8497 47.9973 89.1473 45.2165C89.1473 45.2165 93.4114 31.7448 87.2934 19.1382C81.1754 6.53168 75.4285 8.6329 78.7963 18.2114Z" fill="url(#paint42_linear_59_34890)"/>
<path d="M55.2261 23.9579C55.2261 23.9579 58.7482 7.08748 66.1639 1.34033C66.1639 1.34033 83.1054 2.44182 90.2647 20.8063C95.2032 33.4745 91.31 45.3704 91.31 45.3704" stroke="black" stroke-width="1.95689" stroke-linecap="round" stroke-linejoin="round"/>
<path d="M66.1638 1.34033C66.1638 1.34033 83.1054 2.44182 90.2647 20.8063C95.2031 33.4745 91.3099 45.3704 91.3099 45.3704" stroke="black" stroke-width="1.95689" stroke-linecap="round" stroke-linejoin="round"/>
<g opacity="0.43">
<path d="M69.5801 6.35791C73.0345 9.75752 76.8463 15.9195 78.3832 24.8987" stroke="white" stroke-width="1.95689" stroke-linecap="round" stroke-linejoin="round"/>
</g>
<g opacity="0.43">
<path d="M79.0006 30.4199C79.1444 33.0089 79.1043 35.785 78.8354 38.7487" stroke="white" stroke-width="1.95689" stroke-linecap="round" stroke-linejoin="round"/>
</g>
<path d="M68.7595 9.68213C61.9001 13.2045 60.6022 26.9233 60.6022 26.9233" stroke="black" stroke-width="1.95689" stroke-linecap="round" stroke-linejoin="round"/>
<path d="M65.9785 6.90186C65.9785 6.90186 79.1413 13.7613 75.9897 42.1259" stroke="black" stroke-width="1.95689" stroke-linecap="round" stroke-linejoin="round"/>
<defs>
<linearGradient id="paint0_linear_59_34890" x1="30.0954" y1="12.8313" x2="65.8757" y2="12.8313" gradientUnits="userSpaceOnUse">
<stop stop-color="#EAFF00"/>
<stop offset="0.5" stop-color="#81D500"/>
<stop offset="1" stop-color="#18AB00"/>
</linearGradient>
<linearGradient id="paint1_linear_59_34890" x1="34.0092" y1="13.0764" x2="50.9586" y2="32.4741" gradientUnits="userSpaceOnUse">
<stop stop-color="white" stop-opacity="0.7"/>
<stop offset="0.41" stop-color="white" stop-opacity="0.35"/>
<stop offset="0.95" stop-color="white" stop-opacity="0"/>
</linearGradient>
<linearGradient id="paint2_linear_59_34890" x1="35.9661" y1="13.8102" x2="44.8648" y2="13.8102" gradientUnits="userSpaceOnUse">
<stop/>
<stop offset="0.5"/>
<stop offset="1"/>
</linearGradient>
<linearGradient id="paint3_linear_59_34890" x1="58.9378" y1="24.6902" x2="53.2139" y2="6.35531" gradientUnits="userSpaceOnUse">
<stop offset="0.29" stop-color="#FFD200"/>
<stop offset="0.71" stop-color="#9DAE00" stop-opacity="0.6"/>
<stop offset="1" stop-color="#3B8B00" stop-opacity="0.2"/>
</linearGradient>
<linearGradient id="paint4_linear_59_34890" x1="5.38959" y1="64.1996" x2="91.8598" y2="64.1996" gradientUnits="userSpaceOnUse">
<stop stop-color="#55E82D"/>
<stop offset="0.5" stop-color="#A2E51A"/>
<stop offset="1" stop-color="#EFE107"/>
</linearGradient>
<linearGradient id="paint5_linear_59_34890" x1="118.64" y1="74.4188" x2="38.6871" y2="38.2933" gradientUnits="userSpaceOnUse">
<stop offset="0.19" stop-color="#20AB00" stop-opacity="0"/>
<stop offset="0.65" stop-color="#65A500" stop-opacity="0.5"/>
<stop offset="1" stop-color="#AAA000"/>
</linearGradient>
<linearGradient id="paint6_linear_59_34890" x1="79.7515" y1="85.9702" x2="45.547" y2="94.0346" gradientUnits="userSpaceOnUse">
<stop offset="0.19" stop-color="#20AB00" stop-opacity="0"/>
<stop offset="0.65" stop-color="#65A500" stop-opacity="0.5"/>
<stop offset="1" stop-color="#AAA000"/>
</linearGradient>
<linearGradient id="paint7_linear_59_34890" x1="39.146" y1="40.4721" x2="31.3472" y2="21.4345" gradientUnits="userSpaceOnUse">
<stop stop-color="white" stop-opacity="0"/>
<stop offset="0.48" stop-color="white" stop-opacity="0.5"/>
<stop offset="1" stop-color="white"/>
</linearGradient>
<radialGradient id="paint8_radial_59_34890" cx="0" cy="0" r="1" gradientUnits="userSpaceOnUse" gradientTransform="translate(38.3787 37.5459) scale(21.5845)">
<stop stop-color="white" stop-opacity="0.8"/>
<stop offset="0.65" stop-color="white" stop-opacity="0.4"/>
<stop offset="1" stop-color="white" stop-opacity="0"/>
</radialGradient>
<linearGradient id="paint9_linear_59_34890" x1="63.8518" y1="73.9839" x2="77.1482" y2="88.5576" gradientUnits="userSpaceOnUse">
<stop offset="0.52" stop-color="#118D00"/>
<stop offset="0.8" stop-color="#3E8C00" stop-opacity="0.6"/>
<stop offset="1" stop-color="#6C8B00" stop-opacity="0.2"/>
</linearGradient>
<radialGradient id="paint10_radial_59_34890" cx="0" cy="0" r="1" gradientUnits="userSpaceOnUse" gradientTransform="translate(23.4908 44.6301) scale(16.4103)">
<stop stop-color="white" stop-opacity="0.7"/>
<stop offset="0.65" stop-color="white" stop-opacity="0.35"/>
<stop offset="1" stop-color="white" stop-opacity="0"/>
</radialGradient>
<linearGradient id="paint11_linear_59_34890" x1="44.7721" y1="87.1932" x2="42.7944" y2="58.0252" gradientUnits="userSpaceOnUse">
<stop stop-color="#0E0406"/>
<stop offset="0.68" stop-color="#201A1C"/>
<stop offset="1" stop-color="#323031"/>
</linearGradient>
<linearGradient id="paint12_linear_59_34890" x1="11.0156" y1="71.538" x2="29.7933" y2="71.538" gradientUnits="userSpaceOnUse">
<stop stop-color="#61664C"/>
<stop offset="0.49" stop-color="#4F5640"/>
<stop offset="0.72" stop-color="#3C4734"/>
</linearGradient>
<linearGradient id="paint13_linear_59_34890" x1="14.4403" y1="85.4812" x2="26.2193" y2="85.4812" gradientUnits="userSpaceOnUse">
<stop stop-color="white" stop-opacity="0.2"/>
<stop offset="0.65" stop-color="white" stop-opacity="0.4"/>
<stop offset="1" stop-color="white" stop-opacity="0.6"/>
</linearGradient>
<linearGradient id="paint14_linear_59_34890" x1="9.05872" y1="83.0352" x2="23.5295" y2="83.0352" gradientUnits="userSpaceOnUse">
<stop stop-color="white" stop-opacity="0"/>
<stop offset="0.48" stop-color="white" stop-opacity="0.5"/>
<stop offset="1" stop-color="white"/>
</linearGradient>
<linearGradient id="paint15_linear_59_34890" x1="56.7581" y1="71.7831" x2="64.4211" y2="74.9966" gradientUnits="userSpaceOnUse">
<stop stop-color="#5D664C"/>
<stop offset="0.68" stop-color="#4C5640"/>
<stop offset="1" stop-color="#3B4734"/>
</linearGradient>
<linearGradient id="paint16_linear_59_34890" x1="5.87886" y1="75.4518" x2="77.3735" y2="75.4518" gradientUnits="userSpaceOnUse">
<stop offset="0.19" stop-color="#FEFFA4"/>
<stop offset="0.65" stop-color="#9AE16C"/>
<stop offset="1" stop-color="#36C433"/>
</linearGradient>
<linearGradient id="paint17_linear_59_34890" x1="0.986548" y1="71.2938" x2="77.6965" y2="71.2938" gradientUnits="userSpaceOnUse">
<stop stop-color="#24781D"/>
<stop offset="0.68" stop-color="#80A60F"/>
<stop offset="1" stop-color="#DCD400"/>
</linearGradient>
<linearGradient id="paint18_linear_59_34890" x1="-18.3378" y1="75.697" x2="19.2057" y2="75.697" gradientUnits="userSpaceOnUse">
<stop stop-color="white"/>
<stop offset="0.5" stop-color="white" stop-opacity="0.517"/>
<stop offset="0.81" stop-color="white" stop-opacity="0.034"/>
<stop offset="0.87" stop-color="white" stop-opacity="0.017"/>
<stop offset="1" stop-color="white" stop-opacity="0"/>
</linearGradient>
<linearGradient id="paint19_linear_59_34890" x1="18.354" y1="59.5526" x2="-0.801292" y2="100.766" gradientUnits="userSpaceOnUse">
<stop stop-color="white" stop-opacity="0"/>
<stop offset="0.65" stop-color="white" stop-opacity="0.5"/>
<stop offset="1" stop-color="white"/>
</linearGradient>
<linearGradient id="paint20_linear_59_34890" x1="74.1602" y1="51.951" x2="3.58436" y2="79.4605" gradientUnits="userSpaceOnUse">
<stop stop-color="#BDF3E4" stop-opacity="0.2"/>
<stop offset="0.5" stop-color="#DE79C4" stop-opacity="0.12"/>
<stop offset="0.81" stop-color="#FF00A3" stop-opacity="0.04"/>
<stop offset="0.87" stop-color="#FF80D1" stop-opacity="0.025"/>
<stop offset="1" stop-color="white" stop-opacity="0.01"/>
</linearGradient>
<linearGradient id="paint21_linear_59_34890" x1="20.8002" y1="77.6536" x2="72.6541" y2="76.1133" gradientUnits="userSpaceOnUse">
<stop stop-color="white" stop-opacity="0.2"/>
<stop offset="0.65" stop-color="white" stop-opacity="0.4"/>
<stop offset="1" stop-color="white" stop-opacity="0.6"/>
</linearGradient>
<linearGradient id="paint22_linear_59_34890" x1="41.8679" y1="125.251" x2="42.5046" y2="71.9074" gradientUnits="userSpaceOnUse">
<stop stop-color="white"/>
<stop offset="0.68" stop-color="white" stop-opacity="0.75"/>
<stop offset="1" stop-color="white" stop-opacity="0.5"/>
</linearGradient>
<linearGradient id="paint23_linear_59_34890" x1="18.7209" y1="107.986" x2="22.2677" y2="122.295" gradientUnits="userSpaceOnUse">
<stop offset="0.29" stop-color="white" stop-opacity="0.5"/>
<stop offset="0.3" stop-color="white"/>
<stop offset="0.45" stop-color="white"/>
<stop offset="0.6" stop-color="white"/>
<stop offset="0.61" stop-color="white" stop-opacity="0"/>
</linearGradient>
<linearGradient id="paint24_linear_59_34890" x1="18.7209" y1="107.986" x2="22.2677" y2="122.295" gradientUnits="userSpaceOnUse">
<stop stop-color="white"/>
<stop offset="0.5" stop-color="white"/>
<stop offset="1" stop-color="white"/>
</linearGradient>
<linearGradient id="paint25_linear_59_34890" x1="44.6497" y1="107.985" x2="48.1966" y2="122.295" gradientUnits="userSpaceOnUse">
<stop offset="0.29" stop-color="white" stop-opacity="0.5"/>
<stop offset="0.3" stop-color="white"/>
<stop offset="0.45" stop-color="white"/>
<stop offset="0.6" stop-color="white"/>
<stop offset="0.61" stop-color="white" stop-opacity="0"/>
</linearGradient>
<linearGradient id="paint26_linear_59_34890" x1="44.6497" y1="107.985" x2="48.1966" y2="122.295" gradientUnits="userSpaceOnUse">
<stop stop-color="white"/>
<stop offset="0.5" stop-color="white"/>
<stop offset="1" stop-color="white"/>
</linearGradient>
<linearGradient id="paint27_linear_59_34890" x1="-55.0906" y1="-6.49242" x2="23.7573" y2="-6.49242" gradientUnits="userSpaceOnUse">
<stop/>
<stop offset="0.68" stop-opacity="0.75"/>
<stop offset="1" stop-opacity="0.5"/>
</linearGradient>
<linearGradient id="paint28_linear_59_34890" x1="-55.0907" y1="-6.49271" x2="23.7572" y2="-6.49271" gradientUnits="userSpaceOnUse">
<stop stop-color="white"/>
<stop offset="0.68" stop-color="white" stop-opacity="0.75"/>
<stop offset="1" stop-color="white" stop-opacity="0.5"/>
</linearGradient>
<linearGradient id="paint29_linear_59_34890" x1="-55.0907" y1="-6.49271" x2="23.7572" y2="-6.49271" gradientUnits="userSpaceOnUse">
<stop stop-color="white"/>
<stop offset="0.68" stop-color="white" stop-opacity="0.75"/>
<stop offset="1" stop-color="white" stop-opacity="0.5"/>
</linearGradient>
<linearGradient id="paint30_linear_59_34890" x1="-55.0907" y1="-6.49271" x2="23.7572" y2="-6.49271" gradientUnits="userSpaceOnUse">
<stop stop-color="white"/>
<stop offset="0.68" stop-color="white" stop-opacity="0.75"/>
<stop offset="1" stop-color="white" stop-opacity="0.5"/>
</linearGradient>
<linearGradient id="paint31_linear_59_34890" x1="-55.0907" y1="-6.49271" x2="23.7572" y2="-6.49271" gradientUnits="userSpaceOnUse">
<stop stop-color="white"/>
<stop offset="0.68" stop-color="white" stop-opacity="0.75"/>
<stop offset="1" stop-color="white" stop-opacity="0.5"/>
</linearGradient>
<linearGradient id="paint32_linear_59_34890" x1="-55.0907" y1="-6.49271" x2="23.7572" y2="-6.49271" gradientUnits="userSpaceOnUse">
<stop stop-color="white"/>
<stop offset="0.68" stop-color="white" stop-opacity="0.75"/>
<stop offset="1" stop-color="white" stop-opacity="0.5"/>
</linearGradient>
<linearGradient id="paint33_linear_59_34890" x1="-55.0906" y1="-6.49247" x2="23.7573" y2="-6.49247" gradientUnits="userSpaceOnUse">
<stop stop-color="white"/>
<stop offset="0.68" stop-color="white" stop-opacity="0.75"/>
<stop offset="1" stop-color="white" stop-opacity="0.5"/>
</linearGradient>
<linearGradient id="paint34_linear_59_34890" x1="-55.0906" y1="-6.49247" x2="23.7573" y2="-6.49247" gradientUnits="userSpaceOnUse">
<stop stop-color="white"/>
<stop offset="0.68" stop-color="white" stop-opacity="0.75"/>
<stop offset="1" stop-color="white" stop-opacity="0.5"/>
</linearGradient>
<linearGradient id="paint35_linear_59_34890" x1="-55.0906" y1="-6.49247" x2="23.7573" y2="-6.49247" gradientUnits="userSpaceOnUse">
<stop stop-color="white"/>
<stop offset="0.68" stop-color="white" stop-opacity="0.75"/>
<stop offset="1" stop-color="white" stop-opacity="0.5"/>
</linearGradient>
<linearGradient id="paint36_linear_59_34890" x1="-55.0906" y1="-6.49247" x2="23.7573" y2="-6.49247" gradientUnits="userSpaceOnUse">
<stop stop-color="white"/>
<stop offset="0.68" stop-color="white" stop-opacity="0.75"/>
<stop offset="1" stop-color="white" stop-opacity="0.5"/>
</linearGradient>
<linearGradient id="paint37_linear_59_34890" x1="-55.0906" y1="-6.49247" x2="23.7573" y2="-6.49247" gradientUnits="userSpaceOnUse">
<stop stop-color="white"/>
<stop offset="0.68" stop-color="white" stop-opacity="0.75"/>
<stop offset="1" stop-color="white" stop-opacity="0.5"/>
</linearGradient>
<radialGradient id="paint38_radial_59_34890" cx="0" cy="0" r="1" gradientUnits="userSpaceOnUse" gradientTransform="translate(52.6596 61.7756) scale(22.5173)">
<stop offset="0.05" stop-color="white"/>
<stop offset="0.33" stop-color="white" stop-opacity="0.5"/>
<stop offset="0.62" stop-color="white" stop-opacity="0"/>
</radialGradient>
<linearGradient id="paint39_linear_59_34890" x1="71.924" y1="13.5652" x2="78.6273" y2="61.738" gradientUnits="userSpaceOnUse">
<stop stop-color="#55E82D"/>
<stop offset="0.5" stop-color="#A4DE17"/>
<stop offset="1" stop-color="#F4D501"/>
</linearGradient>
<linearGradient id="paint40_linear_59_34890" x1="65.5641" y1="17.9681" x2="91.8909" y2="51.7111" gradientUnits="userSpaceOnUse">
<stop stop-color="white" stop-opacity="0.7"/>
<stop offset="0.41" stop-color="white" stop-opacity="0.35"/>
<stop offset="0.95" stop-color="white" stop-opacity="0"/>
</linearGradient>
<linearGradient id="paint41_linear_59_34890" x1="60.4272" y1="28.2419" x2="82.3033" y2="21.3825" gradientUnits="userSpaceOnUse">
<stop/>
<stop offset="0.5"/>
<stop offset="1"/>
</linearGradient>
<linearGradient id="paint42_linear_59_34890" x1="86.6007" y1="52.2144" x2="82.1434" y2="13.703" gradientUnits="userSpaceOnUse">
<stop offset="0.29" stop-color="#F0FF00"/>
<stop offset="0.71" stop-color="#80C500" stop-opacity="0.6"/>
<stop offset="1" stop-color="#108B00" stop-opacity="0.2"/>
</linearGradient>
</defs>
</svg>
