<svg width="114" height="108" viewBox="0 0 114 108" fill="none" xmlns="http://www.w3.org/2000/svg">
<path d="M29.3801 46.5176C29.3801 46.5176 41.1567 70.3064 17.6966 77.6883C-3.79292 84.4501 10.1323 103.408 24.3564 97.6021" stroke="url(#paint0_linear_59_34555)" stroke-width="8.13949" stroke-linecap="round" stroke-linejoin="round"/>
<path d="M21.8433 89.2319L36.1254 97.2157L22.4427 105.944C22.4427 105.944 21.8492 89.3705 21.8433 89.2319Z" fill="#5600A9"/>
<g opacity="0.7">
<path d="M27.7495 93.2021C29.3223 96.2833 33.4049 98.5216 33.4049 98.5216" stroke="white" stroke-width="3.96539" stroke-linecap="round" stroke-linejoin="round"/>
</g>
<path d="M21.8433 89.2319L36.1254 97.2157L22.4427 105.944C22.4427 105.944 21.8492 89.3705 21.8433 89.2319Z" stroke="#2A0065" stroke-width="3.96539" stroke-linecap="round" stroke-linejoin="round"/>
<path d="M29.3801 46.5176C29.3801 46.5176 41.1567 70.3064 17.6966 77.6883C-3.79292 84.4501 10.1323 103.408 24.3564 97.6021" stroke="url(#paint1_linear_59_34555)" stroke-width="2.50446" stroke-linecap="round" stroke-linejoin="round"/>
<path d="M37.3562 20.9124C37.3562 20.9124 23.5775 18.5012 26.6776 3C20.1327 4.72226 11.6988 16.6084 19.2715 26.6825C20.8228 28.746 22.7162 30.8162 29.7778 30.6439" fill="url(#paint2_linear_59_34555)"/>
<path d="M37.3562 20.9124C37.3562 20.9124 23.5775 18.5012 26.6776 3C20.1327 4.72226 11.6988 16.6084 19.2715 26.6825C20.8228 28.746 22.7162 30.8162 29.7778 30.6439" stroke="url(#paint3_linear_59_34555)" stroke-width="0.222027" stroke-miterlimit="10"/>
<g opacity="0.6">
<path d="M25.7489 4.6499C21.4136 7.69633 24.2627 15.9477 28.0123 16.2992" stroke="white" stroke-width="4.2185" stroke-linecap="round" stroke-linejoin="round"/>
</g>
<path d="M37.3562 20.9124C37.3562 20.9124 23.5775 18.5012 26.6776 3C20.1327 4.72226 11.6988 16.6084 19.2715 26.6825C20.8228 28.746 22.7162 30.8162 29.7778 30.6439" stroke="url(#paint4_linear_59_34555)" stroke-width="4.2185" stroke-linecap="round" stroke-linejoin="round"/>
<path d="M80.2932 20.9124C80.2932 20.9124 94.072 18.5012 90.9718 3C97.5167 4.72226 105.951 16.6084 98.3779 26.6825C96.8266 28.746 94.9332 30.8162 87.8716 30.6439" fill="url(#paint5_linear_59_34555)"/>
<path d="M80.2932 20.9124C80.2932 20.9124 94.072 18.5012 90.9718 3C97.5167 4.72226 105.951 16.6084 98.3779 26.6825C96.8266 28.746 94.9332 30.8162 87.8716 30.6439" stroke="url(#paint6_linear_59_34555)" stroke-width="0.222027" stroke-miterlimit="10"/>
<g opacity="0.6">
<path d="M91.9006 4.6499C96.2359 7.69633 93.0538 15.5037 89.3042 15.8551" stroke="white" stroke-width="4.2185" stroke-linecap="round" stroke-linejoin="round"/>
</g>
<path d="M80.2932 20.9124C80.2932 20.9124 94.072 18.5012 90.9718 3C97.5167 4.72226 105.951 16.6084 98.3779 26.6825C96.8266 28.746 94.9332 30.8162 87.8716 30.6439" stroke="url(#paint7_linear_59_34555)" stroke-width="4.2185" stroke-linecap="round" stroke-linejoin="round"/>
<path d="M108.558 60.4647C108.558 60.4647 82.232 79.3432 59.4105 80.6962C28.0975 82.5528 26.6732 74.015 16.7135 66.3415C9.2252 60.5722 4.8717 58.4935 4.8717 58.4935C4.8717 58.4935 27.6332 34.4046 58.214 34.6142C87.8226 34.8171 108.558 60.4647 108.558 60.4647Z" fill="#280000"/>
<path d="M94.3977 46.7132C93.3628 39.6689 54.708 33.1685 54.708 33.1685C54.708 33.1685 24.2058 43.514 18.2157 48.5263C17.2064 55.3966 18.7468 62.8923 25.1711 70.7238C25.1711 70.7238 26.103 65.6327 29.0764 55.7701C29.0764 55.7701 38.9701 52.5483 55.4098 52.5933C63.4587 52.6153 73.0769 53.4204 83.8712 55.7701C86.8446 65.6327 87.7764 70.7238 87.7764 70.7238C94.2007 62.8923 95.407 53.5836 94.3977 46.7132Z" fill="#EBEAF7"/>
<path d="M94.3977 46.7132C93.3628 39.6689 54.708 33.1685 54.708 33.1685C54.708 33.1685 23.6487 44.5502 18.2157 48.5263C17.2064 55.3966 18.7468 62.8923 25.1711 70.7238C25.1711 70.7238 26.103 65.6327 29.0764 55.7701C29.0764 55.7701 38.9701 52.5483 55.4098 52.5933C63.4587 52.6153 73.0769 53.4204 83.8712 55.7701C86.8446 65.6327 87.7764 70.7238 87.7764 70.7238C94.2007 62.8923 95.407 53.5836 94.3977 46.7132Z" stroke="#9B96A0" stroke-width="4.28844" stroke-linecap="round" stroke-linejoin="round"/>
<path d="M4.30084 59.0862C25.4862 67.0445 33.186 86.961 55.2997 96.6187C69.3129 102.739 80.2088 98.041 86.617 91.8298C97.6639 81.1221 100.939 60.9306 111.692 58.1175C111.692 58.1175 104.283 60.8673 95.3903 65.0168C87.3643 68.7617 76.3806 75.339 60.8712 66.7645C40.2718 55.3761 31.18 56.5325 19.1509 56.6912C10.3606 56.8073 4.30084 59.0862 4.30084 59.0862Z" fill="url(#paint8_linear_59_34555)"/>
<g opacity="0.35">
<path d="M4.30084 59.0862C25.4862 67.0445 33.186 86.961 55.2997 96.6187C69.3129 102.739 80.2088 98.041 86.617 91.8298C97.6639 81.1221 100.939 60.9306 111.692 58.1175C111.692 58.1175 104.283 60.8673 95.3903 65.0168C87.3643 68.7617 76.3806 75.339 60.8712 66.7645C40.2718 55.3761 31.18 56.5325 19.1509 56.6912C10.3606 56.8073 4.30084 59.0862 4.30084 59.0862Z" fill="url(#paint9_radial_59_34555)"/>
</g>
<g opacity="0.3">
<path d="M99.3942 66.8614C98.1377 67.347 96.7987 67.9118 95.3904 68.569C87.3643 72.3139 76.3807 78.8912 60.8712 70.3168C40.2718 58.9284 31.1801 60.0847 19.1509 60.2434C16.2865 60.2812 13.7119 60.5487 11.5427 60.8922" stroke="url(#paint10_linear_59_34555)" stroke-width="4.28844" stroke-linecap="round" stroke-linejoin="round"/>
</g>
<g opacity="0.35">
<path d="M111.588 57.9353C100.811 60.9051 97.647 81.2761 86.6416 91.6423C80.2133 97.6972 69.3151 102.721 55.2999 96.6186C32.4269 86.6602 25.4331 67.0109 5.28619 59.464C5.28619 59.464 10.3595 56.8063 19.1517 56.6906C29.043 56.5588 35.5353 53.6893 60.8603 66.7624C40.6419 57.5747 31.2058 66.2338 38.5391 75.4494C41.6843 79.402 64.0657 102.424 85.7171 89.1178C98.058 81.5334 100.922 60.9051 111.588 57.9353Z" fill="url(#paint11_linear_59_34555)"/>
</g>
<path d="M4.3006 59.0864C25.4859 67.0447 33.186 86.961 55.2996 96.6187C69.3128 102.739 80.2086 98.041 86.6167 91.8298C97.6636 81.1221 100.939 60.9308 111.692 58.1177C111.692 58.1177 104.283 60.8673 95.3903 65.0168C87.3643 68.7617 76.3806 75.339 60.8712 66.7645C40.2718 55.3761 31.1798 56.5325 19.1506 56.6912C10.3604 56.8073 4.3006 59.0864 4.3006 59.0864Z" stroke="url(#paint12_linear_59_34555)" stroke-width="4.28844" stroke-linecap="round" stroke-linejoin="round"/>
<path d="M50.4819 66.4019C53.0534 67.4381 54.7646 69.5649 54.3041 71.152C53.8436 72.739 51.3856 73.1855 48.8141 72.1493C46.2425 71.1131 44.5314 68.9863 44.9919 67.3993C45.4524 65.8122 47.9104 65.3657 50.4819 66.4019Z" fill="white"/>
<path d="M59.6396 74.2903C60.821 74.7664 61.6072 75.7437 61.3956 76.4729C61.184 77.202 60.0545 77.4071 58.8731 76.9311C57.6917 76.4551 56.9055 75.4777 57.1171 74.7486C57.3287 74.0195 58.4582 73.8143 59.6396 74.2903Z" fill="white"/>
<path d="M54.708 33.1685C54.708 33.1685 24.2058 43.514 18.2157 48.5263C17.2064 55.3966 18.7468 62.8923 25.1711 70.7238C25.1711 70.7238 26.103 65.6327 29.0764 55.7701C29.0764 55.7701 38.9701 52.5483 55.4098 52.5933" fill="#EBEAF7"/>
<path d="M54.708 33.1685C54.708 33.1685 23.6487 44.5502 18.2157 48.5263C17.2064 55.3966 18.7468 62.8923 25.1711 70.7238C25.1711 70.7238 26.103 65.6327 29.0764 55.7701C29.0764 55.7701 38.9701 52.5483 55.4098 52.5933" stroke="#9B96A0" stroke-width="4.28844" stroke-linecap="round" stroke-linejoin="round"/>
<path d="M3.2125 58.5004C1.35503 56.9397 12.0099 45.705 22.0852 35.0166C31.5702 24.9546 37.9776 15.1681 45.4169 15.1816C51.081 15.1919 52.2983 18.6231 57.4893 18.782C62.7336 18.9426 63.6057 15.1617 69.7021 15.1646C77.1653 15.1681 82.7158 23.1611 91.014 33.8918C102.971 49.3542 114.244 57.0201 111.426 58.317C105.389 61.0958 80.6061 40.2893 56.2908 39.6832C25.8772 38.9249 9.11419 63.4589 3.2125 58.5004Z" fill="url(#paint13_linear_59_34555)"/>
<g opacity="0.35">
<path d="M3.2125 58.5004C1.35502 56.9397 12.0101 45.705 22.0854 35.0166C31.5704 24.9546 37.9776 15.1681 45.4169 15.1816C51.081 15.1919 52.2983 18.6231 57.4893 18.782C62.7336 18.9426 63.6057 15.1617 69.7021 15.1646C77.1653 15.1681 82.716 23.1611 91.0142 33.8918C102.971 49.3542 114.244 57.0201 111.426 58.317C105.389 61.0958 80.6061 40.2893 56.2908 39.6832C25.8772 38.9249 9.11418 63.4589 3.2125 58.5004Z" fill="url(#paint14_radial_59_34555)"/>
</g>
<g opacity="0.35">
<path d="M10.3215 51.2652C13.7416 47.4086 17.9619 42.943 22.0852 38.5689C31.5701 28.5068 37.9776 18.7204 45.4168 18.7339C51.0809 18.7441 52.2983 22.1753 57.4893 22.3343C62.7336 22.4948 63.6057 18.7139 69.7021 18.7168C77.1653 18.7204 82.7157 26.7133 91.0139 37.4441C95.4765 43.215 99.8437 47.8997 103.419 51.5729" stroke="url(#paint15_linear_59_34555)" stroke-width="4.28844" stroke-linecap="round" stroke-linejoin="round"/>
</g>
<path d="M72.6699 21.7587C74.1167 22.3418 75.0796 23.5383 74.8205 24.4313C74.5614 25.3242 73.1784 25.5754 71.7316 24.9923C70.2849 24.4093 69.3222 23.2128 69.5813 22.3198C69.8404 21.4268 71.2232 21.1757 72.6699 21.7587Z" fill="white"/>
<path d="M3.2125 58.5006C1.35503 56.94 12.0099 45.7052 22.0852 35.0168C31.5702 24.9548 37.9776 15.1681 45.4169 15.1816C51.081 15.1919 52.2983 18.6231 57.4893 18.782C62.7336 18.9426 63.6057 15.1617 69.7021 15.1646C77.1653 15.1681 82.7158 23.1613 91.014 33.892C102.971 49.3544 114.244 57.0203 111.426 58.3172C105.389 61.0961 80.6061 40.2893 56.2908 39.6832C25.8772 38.9249 9.11419 63.4591 3.2125 58.5006Z" stroke="url(#paint16_linear_59_34555)" stroke-width="4.28844" stroke-linecap="round" stroke-linejoin="round"/>
<defs>
<linearGradient id="paint0_linear_59_34555" x1="19.2796" y1="42.4468" x2="19.2796" y2="102.462" gradientUnits="userSpaceOnUse">
<stop stop-color="#0F0022"/>
<stop offset="0.73" stop-color="#1D0045"/>
<stop offset="1" stop-color="#2B0068"/>
</linearGradient>
<linearGradient id="paint1_linear_59_34555" x1="2.28812" y1="78.0416" x2="42.2971" y2="73.4171" gradientUnits="userSpaceOnUse">
<stop stop-color="#CD00FF"/>
<stop offset="0.13" stop-color="#9B00E5"/>
<stop offset="0.41" stop-color="#6800CC"/>
<stop offset="0.54" stop-color="#460089"/>
<stop offset="0.82" stop-color="#240046"/>
</linearGradient>
<linearGradient id="paint2_linear_59_34555" x1="28.0231" y1="23.7157" x2="24.4993" y2="1.50354" gradientUnits="userSpaceOnUse">
<stop stop-color="#8B00BD"/>
<stop offset="0.16" stop-color="#640096"/>
<stop offset="0.34" stop-color="#3D0070"/>
<stop offset="0.52" stop-color="#2E0056"/>
<stop offset="1" stop-color="#1F003D"/>
</linearGradient>
<linearGradient id="paint3_linear_59_34555" x1="37.5703" y1="16.6109" x2="16.3661" y2="16.6109" gradientUnits="userSpaceOnUse">
<stop stop-color="#1F003D"/>
<stop offset="0.42" stop-color="#250053"/>
<stop offset="1" stop-color="#2B0068"/>
</linearGradient>
<linearGradient id="paint4_linear_59_34555" x1="17.8099" y1="5.28754" x2="34.3213" y2="28.9165" gradientUnits="userSpaceOnUse">
<stop stop-color="#080011"/>
<stop offset="0.42" stop-color="#1A003C"/>
<stop offset="1" stop-color="#2B0068"/>
</linearGradient>
<linearGradient id="paint5_linear_59_34555" x1="89.5872" y1="23.7157" x2="96.4226" y2="3.0917" gradientUnits="userSpaceOnUse">
<stop stop-color="#8B00BD"/>
<stop offset="0.16" stop-color="#640096"/>
<stop offset="0.34" stop-color="#3D0070"/>
<stop offset="0.52" stop-color="#2E0056"/>
<stop offset="1" stop-color="#1F003D"/>
</linearGradient>
<linearGradient id="paint6_linear_59_34555" x1="80.2621" y1="16.6109" x2="101.466" y2="16.6109" gradientUnits="userSpaceOnUse">
<stop stop-color="#1F003D"/>
<stop offset="0.42" stop-color="#250053"/>
<stop offset="1" stop-color="#2B0068"/>
</linearGradient>
<linearGradient id="paint7_linear_59_34555" x1="99.8005" y1="5.28754" x2="84.7935" y2="31.2802" gradientUnits="userSpaceOnUse">
<stop stop-color="#080011"/>
<stop offset="0.42" stop-color="#1A003C"/>
<stop offset="1" stop-color="#2B0068"/>
</linearGradient>
<linearGradient id="paint8_linear_59_34555" x1="56.6798" y1="57.0915" x2="56.6798" y2="99.9049" gradientUnits="userSpaceOnUse">
<stop stop-color="#FF273D"/>
<stop offset="0.41" stop-color="#A3131F"/>
<stop offset="0.82" stop-color="#470000"/>
</linearGradient>
<radialGradient id="paint9_radial_59_34555" cx="0" cy="0" r="1" gradientUnits="userSpaceOnUse" gradientTransform="translate(56.6811 73.4908) scale(38.6166)">
<stop offset="0.6" stop-color="#5D00A5" stop-opacity="0"/>
<stop offset="0.76" stop-color="#5D00A5" stop-opacity="0.5"/>
<stop offset="1" stop-color="#5D00A5"/>
</radialGradient>
<linearGradient id="paint10_linear_59_34555" x1="8.50007" y1="69.5133" x2="105.497" y2="69.5133" gradientUnits="userSpaceOnUse">
<stop stop-color="white"/>
<stop offset="0.84" stop-color="white" stop-opacity="0.5"/>
<stop offset="1" stop-color="white" stop-opacity="0"/>
</linearGradient>
<linearGradient id="paint11_linear_59_34555" x1="49.6728" y1="99.0222" x2="49.6728" y2="56.5064" gradientUnits="userSpaceOnUse">
<stop stop-color="#430084" stop-opacity="0"/>
<stop offset="0.5" stop-color="#450042" stop-opacity="0.5"/>
<stop offset="1" stop-color="#470000"/>
</linearGradient>
<linearGradient id="paint12_linear_59_34555" x1="57.3458" y1="101.485" x2="57.3458" y2="54.3038" gradientUnits="userSpaceOnUse">
<stop stop-color="#D50101"/>
<stop offset="0.55" stop-color="#8E0101"/>
<stop offset="0.92" stop-color="#470000"/>
</linearGradient>
<linearGradient id="paint13_linear_59_34555" x1="56.4298" y1="19.0733" x2="56.2224" y2="61.1402" gradientUnits="userSpaceOnUse">
<stop stop-color="#FF273D"/>
<stop offset="0.3" stop-color="#A3131F"/>
<stop offset="0.82" stop-color="#470000"/>
</linearGradient>
<radialGradient id="paint14_radial_59_34555" cx="0" cy="0" r="1" gradientUnits="userSpaceOnUse" gradientTransform="translate(56.8974 36.9847) scale(46.4784)">
<stop offset="0.6" stop-color="#5D00A5" stop-opacity="0"/>
<stop offset="0.76" stop-color="#5D00A5" stop-opacity="0.5"/>
<stop offset="1" stop-color="#5D00A5"/>
</radialGradient>
<linearGradient id="paint15_linear_59_34555" x1="55.6955" y1="52.3292" x2="56.6087" y2="18.0565" gradientUnits="userSpaceOnUse">
<stop stop-color="white" stop-opacity="0"/>
<stop offset="0.23" stop-color="white" stop-opacity="0.5"/>
<stop offset="1" stop-color="white"/>
</linearGradient>
<linearGradient id="paint16_linear_59_34555" x1="56.9018" y1="62.8525" x2="56.9018" y2="13.0242" gradientUnits="userSpaceOnUse">
<stop stop-color="#D50101"/>
<stop offset="0.55" stop-color="#8E0101"/>
<stop offset="0.92" stop-color="#470000"/>
</linearGradient>
</defs>
</svg>
