<svg width="82" height="119" viewBox="0 0 82 119" fill="none" xmlns="http://www.w3.org/2000/svg">
<path d="M1.00073 77.4538L1.79438 98.641C2.07692 104.763 6.97873 110.917 15.7682 116.443C17.2441 117.371 19.2978 117.876 21.4805 117.837C63.6845 117.088 69.568 99.3516 69.7875 97.2027L70.6092 75.9461C70.746 67.5439 56.757 62.1227 40.0213 67.9864C38.4067 68.5522 36.6038 68.2704 35.9867 67.3647C27.5764 55.0226 1.05446 61.7471 1.00073 77.4538Z" fill="url(#paint0_linear_2064_382)"/>
<path d="M1.00073 77.4538L1.79438 98.641C2.07692 104.763 6.97873 110.917 15.7682 116.443C17.2441 117.371 19.2978 117.876 21.4805 117.837C63.6845 117.088 69.568 99.3516 69.7875 97.2027L70.6092 75.9461C70.746 67.5439 56.757 62.1227 40.0213 67.9864C38.4067 68.5522 36.6038 68.2704 35.9867 67.3647C27.5764 55.0226 1.05446 61.7471 1.00073 77.4538Z" stroke="#00298D" stroke-width="1.05469" stroke-linecap="round" stroke-linejoin="round"/>
<path d="M1.55591 92.3915C1.84211 98.5993 6.77982 104.838 15.6306 110.441C17.1168 111.382 19.1844 111.893 21.382 111.854C63.7232 111.097 69.8047 93.0996 70.025 90.9326" stroke="url(#paint1_linear_2064_382)" stroke-width="0.527344" stroke-linecap="round" stroke-linejoin="round"/>
<path d="M34.2287 69.8664C35.4585 71.6264 37.7132 72.2655 40.3205 71.3893C58.7143 65.2071 72.8764 72.6349 65.2843 82.9836C58.3798 92.395 39.8311 97.501 21.1462 97.9455C19.1504 97.9928 17.2747 97.522 15.9291 96.6446C4.62492 89.2742 1.35998 78.4684 5.91967 71.4984C10.5497 64.4213 27.6434 60.443 34.2287 69.8664Z" fill="black"/>
<path d="M34.2287 69.8664C35.4585 71.6264 37.7132 72.2655 40.3205 71.3893C58.7143 65.2071 72.8764 72.6349 65.2843 82.9836C58.3798 92.395 39.8311 97.501 21.1462 97.9455C19.1504 97.9928 17.2747 97.522 15.9291 96.6446C4.62492 89.2742 1.35998 78.4684 5.91967 71.4984C10.5497 64.4213 27.6434 60.443 34.2287 69.8664Z" stroke="#212121" stroke-width="1.05469" stroke-linecap="round" stroke-linejoin="round"/>
<path d="M34.2073 69.0476C35.3978 70.7164 37.5692 71.3316 40.073 70.5172C57.7267 64.7741 71.3874 71.861 64.1506 81.605C57.5606 90.478 39.7231 95.2223 21.7231 95.55C19.8003 95.5849 17.9913 95.1293 16.6919 94.2909C5.78034 87.2516 2.60966 77.0092 6.98058 70.4439C11.4148 63.7836 27.8367 60.1174 34.2073 69.0476Z" fill="url(#paint2_linear_2064_382)"/>
<path d="M34.2073 69.0476C35.3978 70.7164 37.5692 71.3316 40.073 70.5172C57.7267 64.7741 71.3874 71.861 64.1506 81.605C57.5606 90.478 39.7231 95.2223 21.7231 95.55C19.8003 95.5849 17.9913 95.1293 16.6919 94.2909C5.78034 87.2516 2.60966 77.0092 6.98058 70.4439C11.4148 63.7836 27.8367 60.1174 34.2073 69.0476Z" stroke="black" stroke-width="1.05469" stroke-linecap="round" stroke-linejoin="round"/>
<path d="M20.3759 117.81C20.7388 117.835 21.1077 117.844 21.4804 117.838C63.6844 117.088 69.5679 99.3521 69.7874 97.2032L70.6091 75.9466C70.7459 67.5444 56.7569 62.1232 40.0212 67.9869C38.4066 68.5527 36.6036 68.2709 35.9866 67.3652C32.5736 62.3569 26.1785 60.4881 19.7795 61.0854" stroke="#001447" stroke-width="1.05469" stroke-linecap="round" stroke-linejoin="round"/>
<path d="M21.5469 60.9834C11.6276 61.1963 1.03443 67.5336 1.00049 77.4541C1.00049 77.4541 1.28303 84.9936 1.51086 91.0775" stroke="#0060CA" stroke-width="1.05469" stroke-linecap="round" stroke-linejoin="round"/>
<path d="M11.6118 41.052C10.7615 28.8941 23.3182 9.20894 40.6602 10.941C58.0023 12.6732 75.0105 34.9751 73.905 51.611C72.7996 68.2468 54.3877 68.7308 46.0536 57.4561C44.0126 55.144 41.2488 55.5606 39.9306 57.2666C38.6124 58.9726 17.6071 68.3508 11.6118 41.052Z" fill="url(#paint3_linear_2064_382)"/>
<path d="M11.6118 41.052C10.7615 28.8941 23.3182 9.20894 40.6602 10.941C58.0023 12.6732 75.0105 34.9751 73.905 51.611C72.7996 68.2468 54.3877 68.7308 46.0536 57.4561C44.0126 55.144 41.2488 55.5606 39.9306 57.2666C38.6124 58.9726 17.6071 68.3508 11.6118 41.052Z" stroke="black" stroke-width="1.05469" stroke-linecap="round" stroke-linejoin="round"/>
<path d="M50.9647 48.9391C49.3063 47.0975 46.4362 47.3273 44.9693 48.6883C34.4956 58.4045 18.2329 48.195 17.5858 33.839C16.9714 20.2075 26.1733 9.57145 42.5146 5.05523C44.3794 4.53997 46.5322 4.84571 48.4902 5.90431C65.6479 15.181 76.8188 29.2593 77.6254 42.8836C78.4747 57.2328 63.5158 62.8772 50.9647 48.9391Z" fill="url(#paint4_linear_2064_382)"/>
<g opacity="0.25">
<path d="M40.466 30.1471L36.6794 29.647L36.6794 30.2926L38.2953 30.5058L38.2953 34.9505L38.939 35.0355L38.939 30.5908L40.466 30.7925L40.466 30.1471Z" fill="white"/>
<path d="M41.8393 31.5473C38.7775 31.2548 39.7223 36.5551 43.1765 35.5012L42.9572 34.8655C41.9189 35.1024 40.9123 34.7317 40.7314 33.6291L43.3887 33.9801C43.5292 32.711 42.7306 31.6326 41.8393 31.5473ZM40.7414 32.9849C40.9863 31.8338 42.622 31.951 42.7235 33.2467L40.7414 32.9849Z" fill="white"/>
<path d="M44.2483 35.7366L44.892 35.8216L44.892 30.4605L44.2483 30.3755L44.2483 35.7366Z" fill="white"/>
<path d="M52.2736 33.4332C48.7674 30.7219 48.7073 38.0491 52.2736 36.369C52.4934 37.6654 51.0225 37.9153 50.0724 37.243L49.7547 37.7624C50.9471 38.6369 52.9607 38.369 52.9173 36.7482L52.9173 33.2445L52.2736 33.1595L52.2736 33.4332ZM51.1957 35.9712C49.8877 35.8464 49.9398 33.3099 51.1595 33.5053C52.5593 33.6374 52.6465 36.2176 51.1957 35.9712Z" fill="white"/>
<path d="M54.5324 33.8194L54.5324 33.4575L53.8887 33.3726L53.8887 37.0092L54.5324 37.0942C54.5622 36.049 54.2479 33.9691 55.7749 34.1147L55.7749 33.469C55.2777 33.4033 54.8525 33.533 54.5324 33.8194Z" fill="white"/>
<path d="M58.9313 35.5145C58.9731 33.926 57.744 33.388 56.2937 33.799L56.5367 34.4288C57.4857 34.2044 58.23 34.2464 58.2864 35.252C55.2605 34.4947 55.4544 38.4095 58.3484 37.272C58.3768 37.5252 58.4039 37.6608 58.4066 37.6737L59.0361 37.6222C59.0346 37.6151 58.8925 36.8989 58.9313 35.5145ZM56.7357 36.3562C56.8141 35.7015 57.7965 35.8261 58.2808 35.8979C58.5304 37.0231 56.6444 37.1191 56.7357 36.3562Z" fill="white"/>
<path d="M64.5223 34.8656C63.8886 34.47 63.2769 34.6849 62.8466 35.284C62.451 34.2298 61.1355 34.1199 60.5866 34.9824L60.5866 34.2569L59.9429 34.1719L59.9429 37.8082L60.5866 37.8935C60.5866 35.2429 61.5038 34.8971 61.9526 35.1069C62.5353 35.3792 62.2523 37.0441 62.2899 38.1343L62.9333 38.2031C62.8676 37.0244 63.1404 34.9746 64.2098 35.3887C64.6803 35.6444 64.3685 37.9992 64.4532 38.4038L65.0969 38.4888C64.9834 37.6739 65.4742 35.4117 64.5223 34.8656Z" fill="white"/>
<path d="M47.3832 32.2788C44.3215 31.9862 45.2663 37.2866 48.7205 36.2326L48.5012 35.597C47.4629 35.8338 46.4563 35.4631 46.2753 34.3606L48.9327 34.7115C49.0731 33.4424 48.2746 32.364 47.3832 32.2788ZM46.2853 33.7164C46.5303 32.5652 48.1659 32.6825 48.2675 33.9782L46.2853 33.7164Z" fill="white"/>
<path d="M33.6342 35.0481L35.063 29.3563C35.1045 29.1912 34.9306 29.0242 34.7594 29.0647L27.2176 30.8515C27.0359 30.8945 27.043 31.1434 27.2281 31.222L29.2061 32.0618L33.6522 29.9761L30.25 32.6706L33.3169 35.1243C33.4354 35.2191 33.6012 35.1792 33.6342 35.0481Z" fill="white"/>
</g>
<path d="M52.8135 2.16917C50.7085 1.09054 48.4685 0.693471 46.4976 1.25244C35.2624 4.43826 19.9394 12.8321 12.885 28.5476C11.6003 31.4093 10.1387 35.7331 10.4613 41.316C11.3592 56.8534 29.2039 68.554 41.2387 57.4273C42.2456 56.4964 43.983 56.7484 45.1154 57.9899C55.4294 69.2973 68.7602 66.4273 72.3746 61.0429C75.989 55.6586 79.263 50.2684 79.263 50.2684C80.3685 47.9472 89.3533 20.8907 52.8135 2.16917ZM46.0541 56.0017C44.3957 54.1602 41.5257 54.39 40.0588 55.7509C29.5851 65.4671 13.3224 55.2576 12.6752 40.9016C12.0608 27.2702 21.2628 16.6341 37.6041 12.1178C39.4688 11.6026 41.6219 11.9083 43.5799 12.9669C60.7376 22.2436 71.9082 36.3219 72.7148 49.9463C73.5641 64.2954 58.6052 69.9398 46.0541 56.0017Z" fill="url(#paint5_linear_2064_382)"/>
<path d="M52.8135 2.16917C50.7085 1.09054 48.4685 0.693471 46.4976 1.25244C35.2624 4.43826 19.9394 12.8321 12.885 28.5476C11.6003 31.4093 10.1387 35.7331 10.4613 41.316C11.3592 56.8534 29.2039 68.554 41.2387 57.4273C42.2456 56.4964 43.983 56.7484 45.1154 57.9899C55.4294 69.2973 68.7602 66.4273 72.3746 61.0429C75.989 55.6586 79.263 50.2684 79.263 50.2684C80.3685 47.9472 89.3533 20.8907 52.8135 2.16917ZM46.0541 56.0017C44.3957 54.1602 41.5257 54.39 40.0588 55.7509C29.5851 65.4671 13.3224 55.2576 12.6752 40.9016C12.0608 27.2702 21.2628 16.6341 37.6041 12.1178C39.4688 11.6026 41.6219 11.9083 43.5799 12.9669C60.7376 22.2436 71.9082 36.3219 72.7148 49.9463C73.5641 64.2954 58.6052 69.9398 46.0541 56.0017Z" stroke="#00298D" stroke-width="1.05469" stroke-linecap="round" stroke-linejoin="round"/>
<path d="M77.3584 53.4026C78.6534 50.6834 85.8118 24.8137 50.23 5.11851C48.1607 3.97298 45.9336 4.0118 43.9627 4.57077C32.7275 7.7566 16.9479 16.3124 11.3911 32.4918" stroke="url(#paint6_linear_2064_382)" stroke-width="0.527344" stroke-linecap="round" stroke-linejoin="round"/>
<path d="M22.4558 59.7958C28.3835 62.8491 35.4768 62.7543 41.2384 57.4274C42.2452 56.4965 43.9827 56.7485 45.1151 57.99C55.4291 69.2974 68.7599 66.4273 72.3743 61.043C75.9887 55.6586 79.2627 50.2684 79.2627 50.2684C79.9638 48.7961 83.8348 37.373 77.2488 24.437" stroke="#001447" stroke-width="1.05469" stroke-linecap="round" stroke-linejoin="round"/>
<path d="M45.968 1.40527C34.7856 4.70196 19.8289 13.0773 12.8846 28.5473C12.4753 29.4591 12.0479 30.5192 11.6663 31.7214" stroke="#0060CA" stroke-width="1.05469" stroke-linecap="round" stroke-linejoin="round"/>
<path d="M54.3596 68.5558C54.3596 70.6112 58.281 70.8478 58.281 68.5558C58.281 66.6901 59.2788 64.4408 60.4314 63.2432C61.6661 61.9604 59.2942 59.9912 57.5537 61.3775C55.8133 62.7639 54.3596 66.0259 54.3596 68.5558Z" fill="url(#paint7_linear_2064_382)"/>
<path d="M54.3596 68.5558C54.3596 70.6112 58.281 70.8478 58.281 68.5558C58.281 66.6901 59.2788 64.4408 60.4314 63.2432C61.6661 61.9604 59.2942 59.9912 57.5537 61.3775C55.8133 62.7639 54.3596 66.0259 54.3596 68.5558Z" stroke="black" stroke-width="0.878906" stroke-linecap="round" stroke-linejoin="round"/>
<path d="M23.2917 63.255C23.2917 65.3104 27.2131 65.547 27.2131 63.255C27.2131 61.3893 28.2109 59.14 29.3635 57.9424C30.5982 56.6597 28.2263 54.6904 26.4859 56.0768C24.7455 57.4631 23.2917 60.7251 23.2917 63.255Z" fill="url(#paint8_linear_2064_382)"/>
<path d="M23.2917 63.255C23.2917 65.3104 27.2131 65.547 27.2131 63.255C27.2131 61.3893 28.2109 59.14 29.3635 57.9424C30.5982 56.6597 28.2263 54.6904 26.4859 56.0768C24.7455 57.4631 23.2917 60.7251 23.2917 63.255Z" stroke="black" stroke-width="0.878906" stroke-linecap="round" stroke-linejoin="round"/>
<path d="M49.6694 81.6752C60.1383 70.1012 52.0907 49.1802 34.1543 47.2841C18.5487 45.6392 8.41157 64.5573 17.2354 77.3709C19.2836 76.9093 21.4226 76.5837 21.4226 76.5837C16.3895 71.7091 17.9897 54.7681 32.8189 55.4845C47.7299 56.254 52.1725 71.0504 47.2386 80.3829C48.0981 80.7996 49.6694 81.6752 49.6694 81.6752Z" fill="url(#paint9_radial_2064_382)"/>
<path d="M49.6694 81.6752C60.1383 70.1012 52.0907 49.1802 34.1543 47.2841C18.5487 45.6392 8.41157 64.5573 17.2354 77.3709C19.2836 76.9093 21.4226 76.5837 21.4226 76.5837C16.3895 71.7091 17.9897 54.7681 32.8189 55.4845C47.7299 56.254 52.1725 71.0504 47.2386 80.3829C48.0981 80.7996 49.6694 81.6752 49.6694 81.6752Z" stroke="url(#paint10_radial_2064_382)" stroke-width="0.553711" stroke-linecap="round" stroke-linejoin="round"/>
<path d="M15.3862 62.191C17.8239 50.7779 30.7362 43.2098 42.8441 50.8815C31.3136 46.4475 19.0785 51.4526 15.3862 62.191Z" fill="white"/>
<path d="M48.0331 80.0281C50.9411 74.3471 51.9116 63.5428 41.7944 57.021C49.8942 58.4559 54.9405 71.3266 48.0331 80.0281Z" fill="#E6E6E6"/>
<path d="M43.9056 59.618C37.7084 54.5592 28.7215 53.0231 22.7905 58.4185C18.3957 62.2379 17.2762 70.3441 20.2021 75.8923C8.78852 61.7795 28.5292 41.578 43.9056 59.618Z" fill="url(#paint11_linear_2064_382)"/>
<g opacity="0.8">
<path d="M29.6394 38.0742L42.6924 38.9683L37.6304 48.0109L31.9143 47.5832L29.6394 38.0742Z" fill="#4A5BF8"/>
<path d="M42.6924 38.9682L29.6394 38.0741L31.9607 34.25L39.4727 34.7403L42.6924 38.9682Z" fill="white"/>
<path d="M40.5673 49.6339L47.317 42.3836L42.6927 38.9683L37.6306 48.0108L40.5673 49.6339Z" fill="white"/>
<path d="M42.6921 38.9682L39.4724 34.7402L43.8583 38.1277L47.3165 42.3835L42.6921 38.9682Z" fill="#2B33A4"/>
<path d="M31.9146 47.5837L29.6397 38.0747L22.5669 40.0498L28.6825 48.7301L31.9146 47.5837Z" fill="white"/>
<path d="M29.6397 38.0746L31.961 34.2505L25.7579 36.2664L22.5669 40.0494L29.6397 38.0746Z" fill="#2B33A4"/>
<path d="M37.6308 48.0112L31.9147 47.5835L28.6826 48.7299L30.4603 50.7858L36.2431 51.3137L40.5675 49.6343L37.6308 48.0112Z" fill="#6E86EA"/>
</g>
<g opacity="0.85">
<g opacity="0.85">
<path d="M39.4368 34.7183L31.955 34.2637L25.7617 36.246L29.0535 40.6354L37.015 41.258L43.8768 38.1888L39.4368 34.7183Z" fill="#8388FF"/>
</g>
<path d="M28.6824 48.714L22.5283 40.0518L26.2198 45.6912L30.4578 50.7648L28.6824 48.714Z" fill="#2D44CD"/>
<path d="M36.2756 51.3309L39.533 46.8906L26.2197 45.6914L30.4577 50.765L36.2756 51.3309Z" fill="#0205A8"/>
<path d="M47.3215 42.3984L39.533 46.8902L36.2759 51.3305L40.602 49.6443L47.3215 42.3984Z" fill="#000265"/>
<path d="M22.5149 40.0512L25.7615 36.2456L29.0531 40.6351L26.2195 45.691L22.5149 40.0512Z" fill="white"/>
<path d="M37.0151 41.2583L39.5333 46.8906L26.22 45.6914L29.0536 40.6357L37.0151 41.2583Z" fill="#4A59F8"/>
<path d="M43.8772 38.189L37.0151 41.2582L39.5333 46.8905L47.3218 42.399L43.8772 38.189Z" fill="#2D47CD"/>
</g>
<path d="M25.7699 36.2408L22.4609 40.0611L28.6591 48.748L30.5076 50.8564L36.2701 51.3818L40.567 49.6246L47.3234 42.3893L43.8593 38.1357L39.4855 34.6926L31.9742 34.2744L25.7699 36.2408Z" stroke="#000193" stroke-width="0.553711" stroke-linecap="round" stroke-linejoin="round"/>
<path d="M28.0896 48.8008L30.5296 50.8297C30.5296 50.8297 31.4968 50.0462 33.2975 50.2103C35.1465 50.3818 36.1473 51.3956 36.1473 51.3956L40.5347 49.6941L36.2757 51.6805L30.4578 51.1146L28.0896 48.8008Z" fill="#6A6A6A"/>
<path d="M28.0896 48.8008L30.5296 50.8297C30.5296 50.8297 31.4968 50.0462 33.2975 50.2103C35.1465 50.3818 36.1473 51.3956 36.1473 51.3956L40.5347 49.6941L36.2757 51.6805L30.4578 51.1146L28.0896 48.8008Z" stroke="url(#paint12_linear_2064_382)" stroke-width="0.553711" stroke-linecap="round" stroke-linejoin="round"/>
<path d="M23.2062 105.547C23.2062 111.194 14.6377 109.514 14.6377 103.861C14.6377 98.2137 23.2062 99.8938 23.2062 105.547Z" fill="#BFD3D6"/>
<path d="M23.2062 105.547C23.2062 111.194 14.6377 109.514 14.6377 103.861C14.6377 98.2137 23.2062 99.8938 23.2062 105.547Z" stroke="#485F60" stroke-width="1.05469" stroke-linecap="round" stroke-linejoin="round"/>
<path d="M15.781 102.669C16.2711 101.088 19.1644 100.756 21.3781 102.954" stroke="white" stroke-width="0.527344" stroke-linecap="round" stroke-linejoin="round"/>
<path d="M20.7819 106.19C20.7819 109.936 15.1917 108.918 15.1917 105.178C15.1917 101.438 20.7819 102.439 20.7819 106.19Z" fill="#A4BEC1"/>
<path d="M20.7819 106.19C20.7819 109.936 15.1917 108.918 15.1917 105.178C15.1917 101.438 20.7819 102.439 20.7819 106.19Z" stroke="#84A0A5" stroke-width="1.05469" stroke-linecap="round" stroke-linejoin="round"/>
<path d="M15.7815 104.275C16.1207 103.181 18.2323 102.954 19.4972 104.405" stroke="white" stroke-width="0.527344" stroke-linecap="round" stroke-linejoin="round"/>
<g opacity="0.25">
<path d="M24.2977 108.244C24.843 106.904 24.918 103.551 22.3092 101.658C22.8887 103.814 21.7546 105.866 20.0242 105.251C19.0723 107.213 15.7246 107.285 14.7766 106.622C14.9556 109.941 18.8894 111.088 20.2242 110.884C22.2738 113.414 25.8789 111.122 24.2977 108.244Z" fill="black"/>
</g>
<path d="M19.1801 107.143C19.1801 110.396 14.2478 110.391 14.2478 107.143C14.2478 103.895 19.1801 103.887 19.1801 107.143Z" fill="#BFD3D6"/>
<path d="M19.1801 107.143C19.1801 110.396 14.2478 110.391 14.2478 107.143C14.2478 103.895 19.1801 103.887 19.1801 107.143Z" stroke="#768E91" stroke-width="1.05469" stroke-linecap="round" stroke-linejoin="round"/>
<path d="M17.0393 106.706C17.0393 107.964 15.1331 107.962 15.1331 106.706C15.1331 105.451 17.0393 105.448 17.0393 106.706Z" fill="#FDFFFF"/>
<path d="M50.3585 90.3294C53.1728 89.3174 58.0051 87.039 59.292 85.744C59.314 81.8977 50.7216 77.7512 33.7478 74.8904C17.2768 72.1143 6.31418 72.6403 5.40649 76.5101C5.50906 79.8884 6.31833 81.8862 6.31833 81.8862" fill="url(#paint13_linear_2064_382)"/>
<path d="M50.3585 90.3294C53.1728 89.3174 58.0051 87.039 59.292 85.744C59.314 81.8977 50.7216 77.7512 33.7478 74.8904C17.2768 72.1143 6.31418 72.6403 5.40649 76.5101C5.50906 79.8884 6.31833 81.8862 6.31833 81.8862" stroke="black" stroke-width="0.527344" stroke-linecap="round" stroke-linejoin="round"/>
<path d="M5.81201 76.4891C7.05059 73.0317 16.504 72.8513 29.0837 74.5575C13.3829 73.6879 5.78564 76.3914 6.99516 82.3841C6.12556 80.5816 5.86476 78.3047 5.81201 76.4891Z" fill="#64565D"/>
<path d="M5.2067 74.8022C4.23674 85.5541 13.4706 92.2579 17.0394 94.4984" stroke="url(#paint14_radial_2064_382)" stroke-opacity="0.75" stroke-width="0.527344" stroke-linecap="round" stroke-linejoin="round"/>
<defs>
<linearGradient id="paint0_linear_2064_382" x1="1.62515" y1="88.3502" x2="52.2845" y2="88.4723" gradientUnits="userSpaceOnUse">
<stop stop-color="#4B90FF"/>
<stop offset="0.06" stop-color="#77B7FF"/>
<stop offset="0.12" stop-color="#A2DDFF"/>
<stop offset="0.19" stop-color="#51A8FF"/>
<stop offset="0.27" stop-color="#0072FF"/>
<stop offset="0.34" stop-color="#0049C4"/>
<stop offset="0.4" stop-color="#001F89"/>
<stop offset="0.7" stop-color="#0040A9"/>
<stop offset="1" stop-color="#0060CA"/>
</linearGradient>
<linearGradient id="paint1_linear_2064_382" x1="1.13613" y1="101.293" x2="70.3378" y2="101.293" gradientUnits="userSpaceOnUse">
<stop stop-color="#00298E" stop-opacity="0.33"/>
<stop offset="0.1" stop-color="#193EC6" stop-opacity="0.665"/>
<stop offset="0.2" stop-color="#3253FF"/>
<stop offset="0.24" stop-color="#1930AC"/>
<stop offset="0.27" stop-color="#000E5A"/>
<stop offset="0.64" stop-color="#0009A1"/>
<stop offset="1" stop-color="#0005E8"/>
</linearGradient>
<linearGradient id="paint2_linear_2064_382" x1="31.1732" y1="93.234" x2="38.4715" y2="64.04" gradientUnits="userSpaceOnUse">
<stop stop-color="#62555C"/>
<stop offset="0.5" stop-color="#312B2E"/>
<stop offset="1"/>
</linearGradient>
<linearGradient id="paint3_linear_2064_382" x1="27.0811" y1="12.649" x2="40.4517" y2="60.2678" gradientUnits="userSpaceOnUse">
<stop/>
<stop offset="0.5" stop-color="#2A2225"/>
<stop offset="1" stop-color="#53454B"/>
</linearGradient>
<linearGradient id="paint4_linear_2064_382" x1="19.0788" y1="24.3702" x2="75.1279" y2="40.4873" gradientUnits="userSpaceOnUse">
<stop offset="0.01"/>
<stop offset="0.51" stop-color="#2A2225" stop-opacity="0.5"/>
<stop offset="1" stop-color="#53454B" stop-opacity="0"/>
</linearGradient>
<linearGradient id="paint5_linear_2064_382" x1="20.0039" y1="13.3816" x2="60.4765" y2="38.2899" gradientUnits="userSpaceOnUse">
<stop stop-color="#4B90FF"/>
<stop offset="0.06" stop-color="#77B7FF"/>
<stop offset="0.12" stop-color="#A2DDFF"/>
<stop offset="0.19" stop-color="#51A8FF"/>
<stop offset="0.27" stop-color="#0072FF"/>
<stop offset="0.34" stop-color="#0049C4"/>
<stop offset="0.4" stop-color="#001F89"/>
<stop offset="0.7" stop-color="#0040A9"/>
<stop offset="1" stop-color="#0060CA"/>
</linearGradient>
<linearGradient id="paint6_linear_2064_382" x1="29.6404" y1="24.0654" x2="95.0916" y2="27.6674" gradientUnits="userSpaceOnUse">
<stop stop-color="#00298E" stop-opacity="0.33"/>
<stop offset="0.1" stop-color="#193EC6" stop-opacity="0.665"/>
<stop offset="0.2" stop-color="#3253FF"/>
<stop offset="0.24" stop-color="#1930AC"/>
<stop offset="0.27" stop-color="#000E5A"/>
<stop offset="0.64" stop-color="#0009A1"/>
<stop offset="1" stop-color="#0005E8"/>
</linearGradient>
<linearGradient id="paint7_linear_2064_382" x1="56.5694" y1="68.8146" x2="58.6097" y2="60.6535" gradientUnits="userSpaceOnUse">
<stop stop-color="#62555C"/>
<stop offset="0.5" stop-color="#312B2E"/>
<stop offset="1"/>
</linearGradient>
<linearGradient id="paint8_linear_2064_382" x1="25.3118" y1="63.442" x2="27.352" y2="55.2807" gradientUnits="userSpaceOnUse">
<stop stop-color="#62555C"/>
<stop offset="0.5" stop-color="#312B2E"/>
<stop offset="1"/>
</linearGradient>
<radialGradient id="paint9_radial_2064_382" cx="0" cy="0" r="1" gradientUnits="userSpaceOnUse" gradientTransform="translate(34.5646 68.0924) scale(19.0787)">
<stop stop-color="white"/>
<stop offset="0.26" stop-color="#D5CFFF"/>
<stop offset="0.51" stop-color="#AA9FFF"/>
<stop offset="0.71" stop-color="#6F6999"/>
<stop offset="0.91" stop-color="#333333"/>
<stop offset="0.92" stop-color="#4D4D4D"/>
<stop offset="0.93" stop-color="#676767"/>
<stop offset="0.96" stop-color="#9C9C9C"/>
<stop offset="1" stop-color="#D1D1D1"/>
</radialGradient>
<radialGradient id="paint10_radial_2064_382" cx="0" cy="0" r="1" gradientUnits="userSpaceOnUse" gradientTransform="translate(33.9079 64.2966) scale(19.1856)">
<stop stop-color="#072278"/>
<stop offset="0.35" stop-color="#7784AF"/>
<stop offset="0.7" stop-color="#E6E6E6"/>
<stop offset="0.85" stop-color="#A89FA4"/>
<stop offset="1" stop-color="#695762"/>
</radialGradient>
<linearGradient id="paint11_linear_2064_382" x1="27.7541" y1="73.7838" x2="27.7541" y2="51.6308" gradientUnits="userSpaceOnUse">
<stop stop-color="#00036A"/>
<stop offset="0.5" stop-color="#000135"/>
<stop offset="1"/>
</linearGradient>
<linearGradient id="paint12_linear_2064_382" x1="27.374" y1="49.92" x2="40.2449" y2="49.9018" gradientUnits="userSpaceOnUse">
<stop stop-color="white"/>
<stop offset="0.09" stop-color="#F3F3F3"/>
<stop offset="0.18" stop-color="#E6E6E6"/>
<stop offset="0.22" stop-color="#C6C6C6"/>
<stop offset="0.25" stop-color="#A5A5A5"/>
<stop offset="0.46" stop-color="#D2D2D2"/>
<stop offset="0.67" stop-color="white"/>
<stop offset="0.72" stop-color="#8D8D8D"/>
<stop offset="0.77" stop-color="#1A1A1A"/>
<stop offset="0.89" stop-color="#4D4D4D"/>
<stop offset="1" stop-color="#808080"/>
</linearGradient>
<linearGradient id="paint13_linear_2064_382" x1="32.1492" y1="81.2686" x2="31.3109" y2="86.0888" gradientUnits="userSpaceOnUse">
<stop stop-color="#3E393C"/>
<stop offset="0.09" stop-color="#3E393C"/>
<stop offset="0.19" stop-color="#3E393C"/>
<stop offset="0.6" stop-color="#433D40" stop-opacity="0.5"/>
<stop offset="1" stop-color="#474144" stop-opacity="0"/>
</linearGradient>
<radialGradient id="paint14_radial_2064_382" cx="0" cy="0" r="1" gradientUnits="userSpaceOnUse" gradientTransform="translate(7.79057 85.1126) scale(11.4515)">
<stop stop-color="white"/>
<stop offset="0.5" stop-color="white" stop-opacity="0.5"/>
<stop offset="1" stop-color="white" stop-opacity="0"/>
</radialGradient>
</defs>
</svg>
