<svg width="103" height="98" viewBox="0 0 103 98" fill="none" xmlns="http://www.w3.org/2000/svg">
<path d="M6.6874 65.1947C6.6874 65.1947 4.83703 63.0628 9.53203 62.1294C14.227 61.1959 21.5428 63.9705 22.0329 71.448C22.0329 71.448 23.2015 74 19.8998 77.095C19.8998 77.095 19.5568 71.8608 15.148 69.5214C10.7393 67.182 7.63031 66.4099 6.6874 65.1947Z" fill="url(#paint0_linear_59_30353)"/>
<path d="M6.68739 65.1947C6.68739 65.1947 4.83703 63.0628 9.53203 62.1294C14.227 61.1959 21.5428 63.9705 22.0329 71.448C22.0329 71.448 23.2015 74 19.8998 77.095C19.8998 77.095 19.5568 71.8608 15.148 69.5214C10.7392 67.182 7.63031 66.4099 6.68739 65.1947Z" stroke="url(#paint1_linear_59_30353)" stroke-width="1.71907" stroke-linecap="round" stroke-linejoin="round"/>
<path d="M22.0331 71.4482C22.0331 71.4482 20.799 75.534 15.5649 75.8772C10.3307 76.2204 9.40112 75.4051 9.40112 75.4051C9.40112 75.4051 12.2365 80.476 18.2696 78.9541C24.3027 77.4323 22.0331 71.4482 22.0331 71.4482Z" fill="url(#paint2_linear_59_30353)"/>
<path d="M22.0331 71.4482C22.0331 71.4482 20.799 75.534 15.5649 75.8772C10.3307 76.2204 9.40112 75.4051 9.40112 75.4051C9.40112 75.4051 12.2365 80.476 18.2696 78.9541C24.3027 77.4323 22.0331 71.4482 22.0331 71.4482Z" stroke="url(#paint3_linear_59_30353)" stroke-width="1.71907" stroke-linecap="round" stroke-linejoin="round"/>
<path d="M7.176 44.0708C7.176 44.0708 3.38651 45.6197 3.45979 54.1416C8.08538 60.7213 17.0009 60.9224 22.3427 63.1701C24.7138 62.6493 28.098 57.4381 24.7181 52.5813C17.6576 46.7027 7.41559 48.3595 7.176 44.0708Z" fill="url(#paint4_linear_59_30353)"/>
<path d="M7.176 44.0708C7.176 44.0708 3.38651 45.6197 3.45979 54.1416C8.08538 60.7213 17.0009 60.9224 22.3427 63.1701C24.7138 62.6493 28.098 57.4381 24.7181 52.5813C17.6576 46.7027 7.41559 48.3595 7.176 44.0708Z" stroke="#CC7415" stroke-width="1.71907" stroke-linecap="round" stroke-linejoin="round"/>
<path d="M4.54461 47.2168C4.54461 47.2168 3.70892 52.6031 11.128 54.2938C16.7073 55.5653 22.4068 55.3697 26.1297 57.7844" stroke="#CC7415" stroke-width="1.71907" stroke-linecap="round" stroke-linejoin="round"/>
<path d="M6.6875 65.1951C6.6875 65.1951 11.6356 68.1248 18.5179 64.9202C25.4003 61.7157 27.0622 56.517 24.7182 52.582C24.7182 52.582 30.4848 56.543 29.9616 63.8366C29.4384 71.1302 22.7264 73.9104 16.2432 73.4969C9.79129 73.0854 7.70218 69.2171 6.6875 65.1951Z" fill="url(#paint5_linear_59_30353)"/>
<path d="M6.6875 65.1951C6.6875 65.1951 11.6356 68.1248 18.5179 64.9202C25.4003 61.7157 27.0622 56.517 24.7182 52.582C24.7182 52.582 30.4848 56.543 29.9616 63.8366C29.4384 71.1302 22.7264 73.9104 16.2432 73.4969C9.79129 73.0854 7.70218 69.2171 6.6875 65.1951Z" stroke="url(#paint6_linear_59_30353)" stroke-width="1.71907" stroke-linecap="round" stroke-linejoin="round"/>
<path d="M26.2738 54.2944C26.2738 54.2944 30.1825 60.1573 23.6681 66.9975C17.1537 73.8377 7.54492 67.4862 7.54492 67.4862" stroke="url(#paint7_linear_59_30353)" stroke-width="1.71907" stroke-linecap="round" stroke-linejoin="round"/>
<path d="M25.4279 29.6724C20.2874 35.266 10.5117 33.1533 5.08394 38.1818C-0.343822 43.2103 0.196611 50.1837 3.45984 54.1419C3.45984 54.1419 3.45318 50.2207 9.42567 48.4107C15.3982 46.6007 28.5766 50.3827 32.9671 40.9435C33.7927 37.9916 31.3752 32.1895 25.4279 29.6724Z" fill="url(#paint8_linear_59_30353)"/>
<path d="M25.4279 29.6724C20.2874 35.266 10.5117 33.1533 5.08394 38.1818C-0.343822 43.2103 0.196611 50.1837 3.45984 54.1419C3.45984 54.1419 3.45318 50.2207 9.42567 48.4107C15.3982 46.6007 28.5766 50.3827 32.9671 40.9435C33.7927 37.9916 31.3752 32.1895 25.4279 29.6724Z" stroke="#EA9228" stroke-width="1.71907" stroke-linecap="round" stroke-linejoin="round"/>
<path d="M3.45983 54.1417C3.45983 54.1417 -1.90067 46.477 5.59083 41.4283C12.2522 36.9392 26.253 41.3347 30.8773 36.5249" stroke="#EA9228" stroke-width="1.71907" stroke-linecap="round" stroke-linejoin="round"/>
<path d="M22.6724 13.9304C16.8095 14.2561 13.1638 18.0076 14.0809 23.3859C17.3169 32.6343 36.2084 34.9144 31.9741 42.0802C31.6537 42.3488 40.1171 35.7286 32.9514 26.1199C28.0589 19.5595 26.33 15.704 29.7204 15.3761C28.9578 14.6769 25.9494 13.5487 22.6724 13.9304Z" fill="url(#paint9_linear_59_30353)"/>
<path d="M22.6724 13.9304C16.8095 14.2561 13.1638 18.0076 14.0809 23.3859C17.3169 32.6343 36.2084 34.9144 31.9741 42.0802C31.6537 42.3488 40.1171 35.7286 32.9514 26.1199C28.0589 19.5595 26.33 15.704 29.7204 15.3761C28.9578 14.6769 25.9494 13.5487 22.6724 13.9304Z" stroke="#CC7415" stroke-width="1.71907" stroke-linecap="round" stroke-linejoin="round"/>
<path d="M19.6791 15.0317C19.0639 17.3263 18.9717 20.6815 21.5512 24.3283C26.2741 31.0056 34.7429 34.2628 32.4628 40.9401" stroke="#CC7415" stroke-width="1.71907" stroke-linecap="round" stroke-linejoin="round"/>
<path d="M40.7246 13.1526C40.7246 13.1526 41.4831 5.88307 34.8952 2.06716C28.3073 -1.74875 8.40106 4.5119 14.0807 23.3854C14.0807 23.3854 13.2841 17.9426 20.1082 15.7344C26.9322 13.5263 31.9775 17.2584 31.9775 17.2584L40.7246 13.1526Z" fill="url(#paint10_linear_59_30353)"/>
<path d="M40.7246 13.1526C40.7246 13.1526 41.4831 5.88307 34.8952 2.06716C28.3073 -1.74875 8.40106 4.5119 14.0807 23.3854C14.0807 23.3854 13.2841 17.9426 20.1082 15.7344C26.9322 13.5263 31.9775 17.2584 31.9775 17.2584L40.7246 13.1526Z" stroke="#EA9228" stroke-width="1.71907" stroke-linecap="round" stroke-linejoin="round"/>
<path d="M17.6514 15.6448C17.6514 15.6448 18.2135 8.1226 23.9395 4.29659C27.8962 1.65287 33.6024 2.34222 33.6024 2.34222C33.6024 2.34222 35.4483 2.66798 37.2939 5.27366C37.2939 5.27366 31.4478 1.71819 26.871 4.51383C21.4905 7.80049 22.0479 14.1359 22.0479 14.1359C22.0479 14.1359 20.3658 14.6678 17.6514 15.6448Z" fill="#F9F4BB"/>
<path d="M25.5649 1.83387C25.5649 1.83387 30.5926 0.86302 34.7001 5.66654C38.8076 10.4701 38.6875 13.8005 38.6875 13.8005" stroke="#EA9228" stroke-width="1.71907" stroke-linecap="round" stroke-linejoin="round"/>
<path d="M30.655 20.9485L29.6393 18.9821C29.6393 18.9821 29.4347 16.6048 34.5934 14.3367C39.7522 12.0686 42.319 12.845 42.319 12.845C42.319 12.845 42.8804 13.1181 44.3071 15.8955L30.655 20.9485Z" fill="url(#paint11_linear_59_30353)"/>
<path d="M30.655 20.9485L29.6393 18.9821C29.6393 18.9821 29.4347 16.6048 34.5934 14.3367C39.7522 12.0686 42.319 12.845 42.319 12.845C42.319 12.845 42.8804 13.1181 44.3071 15.8955L30.655 20.9485Z" stroke="#3B4466" stroke-width="1.71907" stroke-linecap="round" stroke-linejoin="round"/>
<path d="M15.0367 37.7435C15.0367 37.7435 10.2094 36.7561 9.1603 41.9223C7.94943 47.8856 20.2483 53.4803 20.2483 53.4803L15.0367 37.7435Z" fill="#95A9C6"/>
<path d="M15.0367 37.7435C15.0367 37.7435 10.2094 36.7561 9.1603 41.9223C7.94943 47.8856 20.2483 53.4803 20.2483 53.4803L15.0367 37.7435Z" stroke="#2F1568" stroke-width="1.71907" stroke-linecap="round" stroke-linejoin="round"/>
<path d="M23.7414 96.8293C23.7414 96.8293 20.0364 94.3177 17.8781 91.3731C15.5277 88.1666 13.4008 83.2864 12.2683 73.5115C11.9198 70.5032 17.8057 63.5772 19.0271 55.1084C20.0811 47.8009 14.248 47.2151 12.1869 44.034C11.4745 42.9348 12.2518 41.6275 12.6154 40.3504C19.4044 16.5122 49.2103 11.877 62.4573 14.1945C75.7043 16.512 88.2887 28.9278 87.6265 46.1443C86.9642 63.3608 84.3336 72.7788 84.3336 72.7788C84.3336 72.7788 79.4009 82.9443 57.5433 90.4489C37.9171 97.1875 23.7414 96.8293 23.7414 96.8293Z" fill="url(#paint12_linear_59_30353)"/>
<g opacity="0.13">
<path d="M36.1633 94.3131C36.1633 94.3131 28.1028 64.2378 34.8699 41.791C39.5834 26.1564 52.5306 22.7363 52.5306 22.7363C52.5306 22.7363 65.8674 24.8985 69.1061 33.4485C69.1061 33.4485 58.6378 45.2111 57.8161 55.9598C56.1321 77.9893 53.752 90.6487 53.752 90.6487C53.752 90.6487 39.8277 97.0003 36.1633 94.3131Z" fill="white"/>
</g>
<g opacity="0.43">
<path d="M13.0825 73.6748C13.0825 73.6748 14.5031 82.0985 17.7603 89.1016C17.7603 89.1016 21.3433 93.9872 25.5776 96.1044" stroke="white" stroke-width="1.71907" stroke-linecap="round" stroke-linejoin="round"/>
</g>
<path d="M51.0285 68.9521C51.0285 68.9521 68.9558 65.0022 73.4443 50.3862C78.6205 33.5311 74.6432 26.9346 74.6432 26.9346C74.6432 26.9346 60.1409 32.765 54.1475 44.2486C49.0743 53.9691 51.0285 68.9521 51.0285 68.9521Z" fill="url(#paint13_linear_59_30353)"/>
<path d="M50.5403 75.9547C50.5403 75.9547 50.0877 84.053 50.5764 91.3817C50.5764 91.3817 62.3021 89.4273 68.165 85.7629C68.165 85.7629 71.3408 72.0827 71.5851 67.6855C71.8295 63.2884 53.5078 67.1969 50.332 76.7242" fill="url(#paint14_linear_59_30353)"/>
<g opacity="0.67">
<path d="M12.2615 44.1583C12.2615 44.1583 15.4688 25.7294 37.0138 17.6059C51.9153 11.9873 68.2826 15.6515 68.2826 15.6515" stroke="url(#paint15_linear_59_30353)" stroke-width="1.71907" stroke-linecap="round" stroke-linejoin="round"/>
</g>
<g opacity="0.57">
<path d="M51.6801 46.966C39.9406 52.7122 24.5252 51.4691 20.2484 42.7315C15.9715 33.9939 22.4501 24.6709 34.1896 18.9247C45.9292 13.1785 58.9131 15.6039 63.19 24.3415C67.4668 33.0791 63.4197 41.2198 51.6801 46.966Z" fill="url(#paint16_radial_59_30353)"/>
</g>
<path d="M84.5867 59.895C84.5867 59.895 83.2991 69.9969 81.6552 72.4849C77.6379 78.565 66.8892 85.301 58.8276 87.2554C58.8276 87.2554 66.4549 73.711 68.4093 71.5123C70.3637 69.3136 84.5867 59.895 84.5867 59.895Z" fill="url(#paint17_linear_59_30353)"/>
<g opacity="0.4">
<path d="M84.7545 33.2686C86.107 36.9186 86.8054 40.9721 86.6373 45.3397C85.9858 62.277 83.3801 71.1258 83.3801 71.1258C83.3801 71.1258 78.6568 81.4391 57.1593 88.8221C37.8565 95.4513 24.486 95.4865 24.486 95.4865C24.486 95.4865 21.4712 94.1457 17.7825 89.1036C16.4375 86.3636 13.7196 78.8147 13.26 73.7366" stroke="white" stroke-width="1.74765" stroke-linecap="round" stroke-linejoin="round"/>
</g>
<path d="M58.8276 87.2554C58.8276 87.2554 65.8578 74.5523 68.4093 71.5123C70.9609 68.4723 84.5867 59.895 84.5867 59.895C84.5867 59.895 71.8204 69.657 69.3232 72.8057C69.3232 72.8057 61.6235 82.1525 58.8276 87.2554Z" fill="#390451"/>
<path d="M14.7112 44.5226C14.7112 44.5226 18.1674 29.766 30.8705 23.5774C30.8705 23.5774 35.4305 21.9488 40.6421 22.2745C40.6421 22.2745 26.6362 29.5761 24.5189 47.1921C22.5888 63.2521 14.7112 44.5226 14.7112 44.5226Z" fill="url(#paint18_radial_59_30353)"/>
<path d="M23.7414 96.8291C23.7414 96.8291 20.0364 94.3177 17.8781 91.3731C15.5277 88.1666 13.4008 83.2864 12.2683 73.5116C11.9198 70.5032 17.8055 63.5772 19.0269 55.1084C20.0809 47.8009 14.248 47.2151 12.1869 44.034C11.4745 42.9348 12.2518 41.6273 12.6154 40.3502C19.4044 16.512 49.2101 11.877 62.4571 14.1945C75.704 16.512 88.2887 28.9278 87.6265 46.1443C86.9642 63.3609 84.3336 72.7788 84.3336 72.7788C84.3336 72.7788 79.4007 82.9443 57.5431 90.4489C37.9169 97.1875 23.7414 96.8291 23.7414 96.8291Z" stroke="#73298C" stroke-width="1.74765" stroke-linecap="round" stroke-linejoin="round"/>
<path d="M85.8264 34.2627C87.1789 37.9127 87.795 42.562 87.6269 46.9295C86.9754 63.8669 84.3697 72.7156 84.3697 72.7156C84.3697 72.7156 79.5924 82.9213 58.095 90.3043C38.7922 96.9334 24.1162 96.8821 24.1162 96.8821" stroke="#460D5E" stroke-width="1.71907" stroke-linecap="round" stroke-linejoin="round"/>
<g opacity="0.5">
<path d="M15.195 33.8288C15.195 33.8288 23.1749 27.2343 34.027 24.1659C34.027 24.1659 43.6156 39.1651 48.7225 45.1625C48.7225 45.1625 47.6795 47.9835 47.3303 50.1323C49.7477 38.1525 57.7521 30.9002 65.864 28.429C57.7521 30.9002 51.7085 37.3736 48.7001 45.1363C45.3963 41.1609 37.1233 29.396 34.1417 24.1582C26.4596 26.4413 20.2817 29.9332 15.1514 33.8011" stroke="#FFF383" stroke-width="3.86791" stroke-linecap="round" stroke-linejoin="round"/>
</g>
<path d="M15.195 33.8288C15.195 33.8288 23.1749 27.2343 34.027 24.1659C34.027 24.1659 43.6156 39.1651 48.7225 45.1625C48.7225 45.1625 47.6795 47.9835 47.3303 50.1323C49.7477 38.1525 57.7521 30.9002 65.864 28.429C57.7521 30.9002 51.7085 37.3736 48.7001 45.1363C45.3963 41.1609 37.1233 29.396 34.1417 24.1582C26.4596 26.4413 20.2817 29.9332 15.1514 33.8011" stroke="#73298C" stroke-width="1.71907" stroke-linecap="round" stroke-linejoin="round"/>
<g opacity="0.5">
<g opacity="0.5">
<path d="M22.4636 87.8221C22.4636 87.8221 26.5845 82.8772 37.1806 85.1141C37.1806 85.1141 29.8812 95.2393 23.2879 96.6521C23.2879 96.6521 15.7528 91.5895 14.2222 81.8174C14.2222 81.8174 18.5783 83.466 22.4636 87.8221Z" fill="#73298C"/>
</g>
</g>
<path d="M22.4638 87.8219C22.4638 87.8219 26.5847 82.877 37.1808 85.1139C37.1808 85.1139 29.8812 95.2393 23.2879 96.6521C23.2879 96.6521 15.7528 91.5895 14.2222 81.8174C14.2222 81.8174 18.5785 83.4658 22.4638 87.8219Z" stroke="#73298C" stroke-width="1.71907" stroke-linecap="round" stroke-linejoin="round"/>
<path d="M28.57 52.6508C28.57 52.6508 28.7872 59.2736 24.9872 64.4851C21.1872 69.6967 17.6042 75.6681 17.6042 75.6681L23.3586 78.1653C23.3586 78.1653 42.7932 64.2681 54.7362 62.2052C66.6793 60.1423 73.085 61.2279 73.085 61.2279C73.085 61.2279 76.1249 53.5194 70.1535 52.4336C64.1821 51.3478 56.3646 53.4109 47.136 53.9537C37.9074 54.4965 28.57 52.6508 28.57 52.6508Z" fill="url(#paint19_linear_59_30353)"/>
<path d="M25.9644 78.165C25.9644 78.165 26.5072 71.6508 38.776 65.0278C51.0448 58.4049 66.6791 56.7761 70.3706 64.0505C70.3706 64.0505 52.4561 76.6451 39.2102 77.6222C25.9644 78.5993 25.9644 78.165 25.9644 78.165Z" fill="url(#paint20_linear_59_30353)"/>
<path d="M23.8473 69.6692C23.8473 69.6692 26.9981 65.9635 30.0359 62.2862C34.1617 57.2919 33.1844 53.7089 33.1844 53.7089C33.1844 53.7089 26.0187 52.8404 22.87 51.8633C22.87 51.8633 23.413 58.9205 20.6986 63.8063C17.9841 68.6921 16.79 71.5149 16.79 71.5149C16.79 71.5149 19.9387 69.8865 23.8473 69.6692Z" fill="url(#paint21_linear_59_30353)"/>
<path d="M19.0158 69.262C19.0158 69.262 20.2101 66.8734 21.9472 63.8334C23.6843 60.7934 25.2044 54.6048 24.6616 51.4561L21.4044 50.479C21.4044 50.479 22.1643 56.0161 19.1243 61.9876C16.0843 67.959 14.5642 70.5649 15.4328 71.8677L19.0158 69.262Z" fill="#E7F99B"/>
<path d="M15.4331 71.9771C15.4331 71.9771 18.3646 68.5026 23.1419 69.1541C27.9192 69.8057 32.2622 75.017 34.1078 78.1657C34.1078 78.1657 16.4102 80.5544 15.4331 71.9771Z" fill="#5E6771"/>
<g opacity="0.24">
<path d="M19.708 74.7593C19.708 74.7593 20.1152 71.787 22.558 70.9728C25.0008 70.1586 30.8366 74.325 29.9681 76.225C29.0995 78.125 19.7624 75.8451 19.708 74.7593Z" fill="url(#paint22_linear_59_30353)"/>
</g>
<g opacity="0.67">
<path d="M15.7996 73.3748C15.7996 73.3748 21.2555 68.4484 26.7926 70.8912" stroke="url(#paint23_linear_59_30353)" stroke-width="1.71907" stroke-linecap="round" stroke-linejoin="round"/>
</g>
<path d="M15.4331 72.2822C15.4331 72.2822 18.3646 68.8078 23.1419 69.4593C27.9192 70.1108 32.2622 75.3222 34.1078 78.4709" stroke="#353B47" stroke-width="1.74765" stroke-linecap="round" stroke-linejoin="round"/>
<path d="M25.1775 73.0019C25.1775 73.4854 24.8038 73.8773 24.3429 73.8773C23.882 73.8773 23.5083 73.4854 23.5083 73.0019C23.5083 72.5184 23.882 72.1265 24.3429 72.1265C24.8038 72.1265 25.1775 72.5184 25.1775 73.0019Z" fill="#434A57"/>
<path d="M28.8621 75.479C28.8621 75.9624 28.4884 76.3544 28.0275 76.3544C27.5666 76.3544 27.1929 75.9624 27.1929 75.479C27.1929 74.9955 27.5666 74.6035 28.0275 74.6035C28.4884 74.6035 28.8621 74.9955 28.8621 75.479Z" fill="#434A57"/>
<path d="M21.7822 72.3637C21.6481 72.828 21.2138 73.1108 20.8124 72.9948C20.411 72.8787 20.1942 72.4081 20.3282 71.9438C20.4623 71.4794 20.8966 71.1966 21.298 71.3127C21.6994 71.4287 21.9162 71.8993 21.7822 72.3637Z" fill="#434A57"/>
<path d="M18.2651 73.3973C18.1093 73.8301 17.7388 74.0931 17.4376 73.9848C17.1363 73.8765 17.0181 73.4377 17.1739 73.0049C17.3297 72.5721 17.7002 72.3091 18.0014 72.4174C18.3027 72.5257 18.4209 72.9645 18.2651 73.3973Z" fill="#434A57"/>
<path d="M22.2393 74.8681C22.2393 75.3516 21.8656 75.7436 21.4047 75.7436C20.9438 75.7436 20.5701 75.3516 20.5701 74.8681C20.5701 74.3846 20.9438 73.9927 21.4047 73.9927C21.8656 73.9927 22.2393 74.3846 22.2393 74.8681Z" fill="#434A57"/>
<path d="M25.5511 75.6653C25.5511 76.1881 25.1471 76.6119 24.6486 76.6119C24.1501 76.6119 23.7461 76.1881 23.7461 75.6653C23.7461 75.1425 24.1501 74.7188 24.6486 74.7188C25.1471 74.7188 25.5511 75.1425 25.5511 75.6653Z" fill="#434A57"/>
<path d="M19.8056 74.3856C19.6498 74.8184 19.2794 75.0814 18.9781 74.9731C18.6768 74.8648 18.5587 74.426 18.7144 73.9932C18.8702 73.5604 19.2407 73.2974 19.542 73.4057C19.8432 73.514 19.9614 73.9528 19.8056 74.3856Z" fill="#434A57"/>
<path d="M48.7649 74.7992C48.7649 74.7992 55.2791 57.2103 59.7306 53.3017C59.7306 53.3017 63.4221 51.9987 65.9193 52.6502C68.4165 53.3017 54.1935 73.7134 54.1935 73.7134C54.1935 73.7134 50.8278 74.9077 48.7649 74.7992Z" fill="#E7F99B"/>
<path d="M51.6963 73.9312C51.6963 73.9312 59.4437 55.7419 62.988 52.4338C64.6166 50.9137 72.9765 53.3023 74.0623 56.2338C75.1481 59.1652 72.3252 63.291 65.8107 68.0683C59.2963 72.8456 51.6963 73.9312 51.6963 73.9312Z" fill="url(#paint24_linear_59_30353)"/>
<path d="M18.1473 48.6333L21.4043 49.8276C21.4043 49.8276 21.9471 57.1021 20.1015 61.3364C18.2558 65.5707 13.587 69.9135 15.8672 74.2565C18.1473 78.5995 28.4615 79.9024 43.6618 76.6452C58.862 73.3879 72.5422 63.6163 74.9309 59.4905C74.9309 59.4905 75.2566 62.8563 70.6966 67.1993C66.1365 71.5423 55.3878 78.5993 34.4331 80.8795C13.4785 83.1596 10.7643 75.3423 12.6099 70.4565C14.4556 65.5707 20.9702 59.165 18.1473 48.6333Z" fill="url(#paint25_linear_59_30353)"/>
<path d="M12.3386 73.8222C12.3386 73.8222 11.6871 70.8908 13.9672 67.4707C16.2473 64.0506 20.3188 56.0707 18.3644 49.2305" stroke="#73298C" stroke-width="1.71907" stroke-linecap="round" stroke-linejoin="round"/>
<path d="M21.1872 50.2617C21.1872 50.2617 22.1645 53.5187 20.6444 59.1646C19.1243 64.8104 14.9986 68.1762 15.1071 72.5192C15.2156 76.8622 23.5673 80.4261 40.6218 77.405C59.622 74.0393 70.6965 65.4618 74.4965 59.4903" stroke="#73298C" stroke-width="1.71907" stroke-linecap="round" stroke-linejoin="round"/>
<path d="M11.8608 43.6274C11.8608 43.6274 16.8702 50.7362 31.2303 52.6509C53.2164 55.5823 59.5679 52.488 65.5937 51.9993C71.6195 51.5107 75.2024 53.4653 74.8767 60.631C74.5509 67.7967 60.8523 74.8826 47.462 78.7083C37.5818 81.5313 14.6187 84.2455 12.3385 73.8225" stroke="#460D5E" stroke-width="1.74765" stroke-linecap="round" stroke-linejoin="round"/>
<g opacity="0.5">
<path d="M73.7358 59.2822C73.7358 59.2822 81.3356 58.9962 86.579 54.1719" stroke="#E7F9BD" stroke-width="3.86791" stroke-linecap="round" stroke-linejoin="round"/>
</g>
<path d="M73.8406 59.3027C73.8406 59.3027 81.3892 59.0231 86.655 54.1719" stroke="#73298C" stroke-width="1.71907" stroke-linecap="round" stroke-linejoin="round"/>
<path d="M12.3743 40.9184C7.03979 40.4089 9.29436 49.8316 11.1514 48.2507C12.5299 44.793 11.821 41.2685 12.3743 40.9184Z" fill="#95A9C6"/>
<path d="M12.2365 40.9399C12.2365 40.9399 11.585 44.1972 19.6934 47.4769C31.3431 52.1891 47.6421 52.2682 63.8132 49.9784C73.0148 48.6756 75.5392 52.9913 75.2135 57.8771C75.2135 57.8771 36.177 64.1203 25.6453 60.3203C15.1136 56.5203 7.76241 51.1998 9.17377 42.4055" fill="#95A9C6"/>
<path d="M12.2365 40.9399C12.2365 40.9399 11.585 44.1972 19.6934 47.4769C31.3431 52.1891 47.6421 52.2682 63.8132 49.9784C73.0148 48.6756 75.5392 52.9913 75.2135 57.8771C75.2135 57.8771 36.177 64.1203 25.6453 60.3203C15.1136 56.5203 7.76241 51.1998 9.17377 42.4055" stroke="#2F1568" stroke-width="1.71907" stroke-linecap="round" stroke-linejoin="round"/>
<path d="M9.17368 41.4282C9.17368 41.4282 8.03694 46.5618 19.1624 50.5483C32.1912 55.2169 47.1744 55.2171 63.786 52.5027C73.1965 50.965 75.6507 53.6584 75.3249 58.5442C74.8803 65.2146 68.8302 70.1021 60.9932 73.6901C47.4759 79.8787 32.0043 82.4846 22.2326 80.5303C12.461 78.5759 10.1811 73.3643 10.1811 73.3643C10.1811 73.3643 5.5907 56.8999 9.17368 41.4282Z" fill="url(#paint26_linear_59_30353)"/>
<path d="M11.5958 46.4663C11.5958 46.4663 11.1645 66.5457 13.6073 76.5615C13.6073 76.5615 20.5287 81.61 30.7888 80.6329L29.3714 53.065C29.3714 53.065 17.784 50.1862 11.5958 46.4663Z" fill="url(#paint27_linear_59_30353)"/>
<path d="M11.6334 46.5078C11.6334 46.5078 15.3625 50.7114 21.3883 51.5256C21.3883 51.5256 19.8849 66.7505 22.8164 80.7565C22.8164 80.7565 15.4334 78.8021 13.3705 76.4134C13.3705 76.4134 10.854 61.8434 11.6334 46.5078Z" fill="url(#paint28_linear_59_30353)"/>
<g opacity="0.5">
<path d="M10.2594 45.6084C10.2594 45.6084 13.2577 49.0659 23.614 51.5798C33.9703 54.0937 48.7193 55.6426 62.3746 52.7741C70.3468 51.0993 72.954 53.0578 72.9099 56.849C72.8498 62.0249 67.9401 67.8429 61.4141 71.0303C50.1578 76.5281 36.5341 80.0262 23.7225 78.0718C15.3165 76.7896 11.1279 70.5803 11.1279 70.5803C11.1279 70.5803 7.93928 57.7493 10.2594 45.6084Z" fill="url(#paint29_linear_59_30353)"/>
</g>
<g opacity="0.24">
<path d="M29.8024 52.8286C29.8024 52.8286 44.8564 55.459 50.2308 54.4276C50.2308 54.4276 49.5795 65.4975 49.2538 78.3091C49.2538 78.3091 33.5105 80.9737 31.3391 80.9737C31.3391 80.9737 28.1738 70.906 29.8024 52.8286Z" fill="url(#paint30_linear_59_30353)"/>
</g>
<g opacity="0.8">
<path d="M33.1717 80.7023C36.3263 80.4102 42.9353 80.2293 45.0579 78.6428C47.4243 75.5413 48.7422 71.4784 50.7142 65.8793C52.2589 61.4934 53.6557 55.9868 53.9537 53.9077C51.8828 53.4084 47.3165 53.7306 42.2742 54.4681C41.8231 56.3222 39.366 64.2062 36.9754 69.0965C37.7005 69.2022 40.6553 67.3758 41.8677 66.4389C41.1903 70.1858 37.5397 77.1529 33.1717 80.7023Z" fill="url(#paint31_linear_59_30353)"/>
</g>
<g opacity="0.74">
<path d="M67.4711 58.1555C67.6146 58.2963 67.849 58.2819 67.9614 58.1153C68.3639 57.5186 69.3277 56.4098 70.6836 56.9158C72.4834 57.5874 72.4207 59.7117 71.0364 62.5617C70.2233 64.2361 69.3163 65.3668 68.7064 66.0151C68.3254 66.42 67.693 66.4466 67.2774 66.0774C65.8715 64.8287 62.9048 61.8943 63.0292 59.4674C63.1822 56.4826 65.925 56.6386 67.4711 58.1555Z" fill="#21D6D1"/>
</g>
<g opacity="0.36">
<path d="M65.2139 63.4256L69.7333 57.1555C69.7333 57.1555 71.199 56.7891 71.7691 58.4992L66.9647 65.4206C66.9647 65.4206 65.5802 64.525 65.2139 63.4256Z" fill="white"/>
</g>
<g opacity="0.36">
<path d="M64.4 62.7604L67.7113 58.4176L67.0871 58.0918L64.0742 62.299L64.4 62.7604Z" fill="white"/>
</g>
<path d="M67.4711 58.1555C67.6146 58.2963 67.849 58.2819 67.9614 58.1153C68.3639 57.5186 69.3277 56.4098 70.6836 56.9158C72.4834 57.5874 72.4207 59.7117 71.0364 62.5617C70.2233 64.2361 69.3163 65.3668 68.7064 66.0151C68.3254 66.42 67.693 66.4466 67.2774 66.0774C65.8715 64.8287 62.9048 61.8943 63.0292 59.4674C63.1822 56.4826 65.925 56.6386 67.4711 58.1555Z" stroke="#C2F4FF" stroke-width="1.07442" stroke-linecap="round" stroke-linejoin="round"/>
<g opacity="0.4">
<mask id="mask0_59_30353" style="mask-type:luminance" maskUnits="userSpaceOnUse" x="11" y="14" width="49" height="83">
<path d="M51.1994 14.4077C27.014 22.3421 18.5624 31.4762 14.9496 43.797C13.4325 43.7931 12.4655 44.9213 12.5192 46.0763C10.4241 49.3264 11.8208 72.4802 13.8438 78.0699C14.1577 78.5506 15.071 79.0878 15.6019 79.3683C16.1185 84.0033 17.4787 89.2261 18.5628 91.9003C19.1 92.8941 22.6994 96.9769 25.3048 96.6815C24.2841 91.7929 24.0692 84.3256 24.2766 81.8285C23.7738 81.8813 23.2903 81.747 23.073 81.6106C21.3832 68.7734 21.222 55.7729 22.189 50.5888C22.3022 49.9822 22.6188 48.5743 23.7605 47.9316C26.3191 30.8287 40.0558 18.5311 59.2565 15.1061C57.9672 14.2466 54.6163 14.002 51.1994 14.4077Z" fill="url(#paint32_linear_59_30353)"/>
</mask>
<g mask="url(#mask0_59_30353)">
<path d="M51.1994 14.4077C27.014 22.3421 18.5624 31.4762 14.9496 43.797C13.4325 43.7931 12.4655 44.9213 12.5192 46.0763C10.4241 49.3264 11.8208 72.4802 13.8438 78.0699C14.1577 78.5506 15.071 79.0878 15.6019 79.3683C16.1185 84.0033 17.4787 89.2261 18.5628 91.9003C19.1 92.8941 22.6994 96.9769 25.3048 96.6815C24.2841 91.7929 24.0692 84.3256 24.2766 81.8285C23.7738 81.8813 23.2903 81.747 23.073 81.6106C21.3832 68.7734 21.222 55.7729 22.189 50.5888C22.3022 49.9822 22.6188 48.5743 23.7605 47.9316C26.3191 30.8287 40.0558 18.5311 59.2565 15.1061C57.9672 14.2466 54.6163 14.002 51.1994 14.4077Z" fill="url(#paint33_linear_59_30353)"/>
</g>
<mask id="mask1_59_30353" style="mask-type:luminance" maskUnits="userSpaceOnUse" x="36" y="21" width="47" height="74">
<path d="M73.009 21.5527C56.2481 21.5527 42.3343 30.9539 39.8223 50.2974C38.3052 50.2935 37.392 51.9051 37.4457 53.0601C36.7473 57.3847 35.9952 74.844 37.7495 81.0247C38.0635 81.5054 39.2185 81.1294 39.7226 81.3023C40.1855 85.9105 40.8033 89.9127 41.1524 94.479C43.1401 94.2431 48.0825 92.6315 50.7148 91.8736C50.097 87.2267 50.4999 81.7203 50.3312 78.7665C49.8284 78.8193 49.2912 78.8999 49.0739 78.7635C47.3841 65.9263 48.0287 58.5128 48.9957 53.3287C49.109 52.7221 49.4792 50.777 50.2448 50.3491C53.1322 35.4665 65.5418 27.462 82.5714 24.8834C81.2821 24.0239 75.4802 21.7676 73.009 21.5527Z" fill="url(#paint34_linear_59_30353)"/>
</mask>
<g mask="url(#mask1_59_30353)">
<path d="M73.009 21.5527C56.2481 21.5527 42.3343 30.9539 39.8223 50.2974C38.3052 50.2935 37.392 51.9051 37.4457 53.0601C36.7473 57.3847 35.9952 74.844 37.7495 81.0247C38.0635 81.5054 39.2185 81.1294 39.7226 81.3023C40.1855 85.9105 40.8033 89.9127 41.1524 94.479C43.1401 94.2431 48.0825 92.6315 50.7148 91.8736C50.097 87.2267 50.4999 81.7203 50.3312 78.7665C49.8284 78.8193 49.2912 78.8999 49.0739 78.7635C47.3841 65.9263 48.0287 58.5128 48.9957 53.3287C49.109 52.7221 49.4792 50.777 50.2448 50.3491C53.1322 35.4665 65.5418 27.462 82.5714 24.8834C81.2821 24.0239 75.4802 21.7676 73.009 21.5527Z" fill="url(#paint35_linear_59_30353)"/>
</g>
</g>
<path d="M9.17368 41.4287C9.17368 41.4287 8.03716 46.5623 19.1626 50.5488C32.1914 55.2174 47.1744 55.2176 63.786 52.5032C73.1965 50.9655 75.6507 53.6588 75.3249 58.5447C74.8803 65.2151 68.8302 70.1026 60.9932 73.6906C47.4759 79.8792 32.0043 82.4851 22.2326 80.5307C12.461 78.5764 10.1811 73.365 10.1811 73.365C10.1811 73.365 5.5907 56.9004 9.17368 41.4287Z" stroke="#2F1568" stroke-width="1.71907" stroke-linecap="round" stroke-linejoin="round"/>
<path d="M9.17104 41.4209C9.17104 41.4209 8.0343 46.5545 19.1597 50.541C32.1886 55.2096 47.1716 55.2098 63.7832 52.4954C73.1936 50.9577 75.6478 53.651 75.322 58.5368C74.8774 65.2073 68.8276 70.0948 60.9906 73.6827C47.4733 79.8714 32.0016 82.4771 22.23 80.5227C12.4583 78.5683 10.1782 73.357 10.1782 73.357C10.1782 73.357 5.58806 56.8926 9.17104 41.4209Z" stroke="url(#paint36_linear_59_30353)" stroke-width="1.71907" stroke-linecap="round" stroke-linejoin="round"/>
<g opacity="0.2">
<path d="M38.646 54.2256C43.5146 54.4682 48.5788 54.3034 53.8269 53.8008" stroke="url(#paint37_linear_59_30353)" stroke-width="1.71907" stroke-linecap="round" stroke-linejoin="round"/>
</g>
<g opacity="0.2">
<path d="M38.646 54.2256C43.5146 54.4682 48.5788 54.3034 53.8269 53.8008" stroke="url(#paint38_linear_59_30353)" stroke-width="1.71907" stroke-linecap="round" stroke-linejoin="round"/>
</g>
<g opacity="0.2">
<path d="M38.646 54.2256C43.5146 54.4682 48.5788 54.3034 53.8269 53.8008" stroke="url(#paint39_linear_59_30353)" stroke-width="1.71907" stroke-linecap="round" stroke-linejoin="round"/>
</g>
<g opacity="0.2">
<path d="M38.646 54.2256C43.5146 54.4682 48.5788 54.3034 53.8269 53.8008" stroke="url(#paint40_linear_59_30353)" stroke-width="1.71907" stroke-linecap="round" stroke-linejoin="round"/>
</g>
<path d="M38.646 54.2256C43.5146 54.4682 48.5788 54.3034 53.8269 53.8008" stroke="url(#paint41_linear_59_30353)" stroke-width="1.71907" stroke-linecap="round" stroke-linejoin="round"/>
<g opacity="0.2">
<path d="M10.4326 45.1191C11.7006 46.7703 14.1826 48.7346 19.0022 50.4844" stroke="url(#paint42_linear_59_30353)" stroke-width="1.71907" stroke-linecap="round" stroke-linejoin="round"/>
</g>
<g opacity="0.2">
<path d="M10.4326 45.1191C11.7006 46.7703 14.1826 48.7346 19.0022 50.4844" stroke="url(#paint43_linear_59_30353)" stroke-width="1.71907" stroke-linecap="round" stroke-linejoin="round"/>
</g>
<g opacity="0.2">
<path d="M10.4326 45.1191C11.7006 46.7703 14.1826 48.7346 19.0022 50.4844" stroke="url(#paint44_linear_59_30353)" stroke-width="1.71907" stroke-linecap="round" stroke-linejoin="round"/>
</g>
<g opacity="0.2">
<path d="M10.4326 45.1191C11.7006 46.7703 14.1826 48.7346 19.0022 50.4844" stroke="url(#paint45_linear_59_30353)" stroke-width="1.71907" stroke-linecap="round" stroke-linejoin="round"/>
</g>
<path d="M10.4326 45.1191C11.7006 46.7703 14.1826 48.7346 19.0022 50.4844" stroke="url(#paint46_linear_59_30353)" stroke-width="1.71907" stroke-linecap="round" stroke-linejoin="round"/>
<path d="M73.1754 51.0121C74.2462 62.0415 66.1732 71.8507 55.1439 72.9215C44.1145 73.9923 34.3053 65.9193 33.2345 54.8899C32.1637 43.8606 40.2367 34.0513 51.2661 32.9806C62.2954 31.9098 72.1047 39.9828 73.1754 51.0121Z" fill="url(#paint47_radial_59_30353)"/>
<path d="M52.6299 44.3106C52.6299 44.3106 52.8268 52.9964 56.4299 52.9964C56.4299 52.9964 52.7844 52.4513 52.7844 61.73C52.7844 61.73 52.5556 53.0508 49.3727 53.0508C49.3727 53.0508 52.6299 52.4693 52.6299 44.3106Z" fill="white"/>
<path d="M61.2882 22.7561C61.2882 22.7561 63.5351 19.3631 65.0288 17.7677C66.5226 16.1723 70.7831 17.7107 74.0931 19.9536C77.403 22.1965 79.2986 26.122 78.8188 27.4328C78.339 28.7435 74.9038 32.5796 74.9038 32.5796C74.9038 32.5796 71.5765 34.1702 65.9427 29.9818C62.1054 27.129 60.8084 24.0669 61.2882 22.7561Z" fill="url(#paint48_linear_59_30353)"/>
<path d="M65.3201 19.2111L62.4048 23.2798C62.4048 23.2798 62.8958 25.9723 66.3572 28.8576C71.2057 32.8993 74.1759 31.9788 74.1759 31.9788" stroke="#9BA7C9" stroke-width="1.71907" stroke-linecap="round" stroke-linejoin="round"/>
<path d="M61.2882 22.7561C61.2882 22.7561 63.5351 19.3631 65.0288 17.7677C66.5226 16.1723 70.7831 17.7107 74.0931 19.9536C77.403 22.1965 79.2986 26.122 78.8188 27.4328C78.339 28.7435 74.9038 32.5796 74.9038 32.5796C74.9038 32.5796 71.5765 34.1702 65.9427 29.9818C62.1054 27.129 60.8084 24.0669 61.2882 22.7561Z" stroke="#47547C" stroke-width="1.71907" stroke-linecap="round" stroke-linejoin="round"/>
<path d="M78.8186 27.4329C78.3388 28.7436 74.9037 32.5797 74.9037 32.5797C74.9037 32.5797 71.5764 34.1703 65.9425 29.9819C62.1053 27.1291 60.8083 24.0672 61.2881 22.7564" stroke="#313E60" stroke-width="1.71907" stroke-linecap="round" stroke-linejoin="round"/>
<path d="M66.8497 19.7729C66.8497 19.7729 69.0575 15.4611 73.4188 13.1699C77.7801 10.8786 90.8476 14.7571 83.945 28.3045C83.945 28.3045 85.101 19.8577 78.2698 18.9043C71.4386 17.9509 68.8346 22.7023 68.8346 22.7023" fill="url(#paint49_linear_59_30353)"/>
<path d="M66.8497 19.7729C66.8497 19.7729 69.0575 15.4611 73.4188 13.1699C77.7801 10.8786 90.8476 14.7571 83.945 28.3045C83.945 28.3045 85.101 19.8577 78.2698 18.9043C71.4386 17.9509 68.8346 22.7023 68.8346 22.7023" stroke="#CC7415" stroke-width="1.71907" stroke-linecap="round" stroke-linejoin="round"/>
<path d="M75.77 26.8747C75.77 26.8747 78.1857 20.6508 83.2165 22.643C83.2165 22.643 83.1899 18.0309 76.3508 18.1503C69.5116 18.2697 68.4542 23.0116 68.4542 23.0116C68.4542 23.0116 72.7928 27.505 75.77 26.8747Z" fill="url(#paint50_linear_59_30353)"/>
<path d="M75.77 26.8747C75.77 26.8747 78.1857 20.6508 83.2165 22.643C83.2165 22.643 83.1899 18.0309 76.3508 18.1503C69.5116 18.2697 68.4542 23.0116 68.4542 23.0116C68.4542 23.0116 72.7928 27.505 75.77 26.8747Z" stroke="#CC7415" stroke-width="1.71907" stroke-linecap="round" stroke-linejoin="round"/>
<path d="M66.4184 18.3355C66.4184 18.3355 64.9442 20.1896 68.7085 23.5778C73.5903 27.9719 77.1392 27.6864 77.4367 26.7003" stroke="#313E60" stroke-width="1.71907" stroke-linecap="round" stroke-linejoin="round"/>
<path d="M83.5945 59.6658C83.5945 59.6658 79.7944 54.0101 83.9263 49.6382C88.0583 45.2663 103.393 36.1149 101.603 21.0662C99.8139 6.01738 81.9073 0.341243 70.7645 14.5027C70.7645 14.5027 79.5429 9.63097 84.4595 19.0834C88.3276 26.5203 81.5777 31.6153 76.8635 34.5951C72.1493 37.5749 60.7329 51.3454 83.5945 59.6658Z" fill="url(#paint51_linear_59_30353)"/>
<path d="M83.5945 59.6658C83.5945 59.6658 79.7944 54.0101 83.9263 49.6382C88.0583 45.2663 103.393 36.1149 101.603 21.0662C99.8139 6.01738 81.9073 0.341243 70.7645 14.5027C70.7645 14.5027 79.5429 9.63097 84.4595 19.0834C88.3276 26.5203 81.5777 31.6153 76.8635 34.5951C72.1493 37.5749 60.7329 51.3454 83.5945 59.6658Z" stroke="#EA9228" stroke-width="1.71907" stroke-linecap="round" stroke-linejoin="round"/>
<path d="M85.3674 18.9199C85.3674 18.9199 88.8626 22.1792 94.018 22.8139C99.1734 23.4485 100.857 22.6565 100.857 22.6565C100.857 22.6565 100.955 26.6455 100.056 28.8769C100.056 28.8769 97.9593 26.0169 93.9234 24.7727C89.8876 23.5285 86.5008 24.543 86.5008 24.543C86.5008 24.543 86.5976 21.4842 85.3674 18.9199Z" fill="#FFEAB6"/>
<path d="M70.0704 48.6914C70.0704 48.6914 71.7027 42.5505 79.7233 38.9027C87.7439 35.2548 97.0287 30.4763 97.8888 20.8861C98.6173 12.764 94.0818 8.30795 88.7006 6.6491" stroke="#EA9228" stroke-width="1.71907" stroke-linecap="round" stroke-linejoin="round"/>
<path d="M99.2768 54.9094C99.2768 54.9094 102.135 61.1415 98.911 66.4844C92.9237 76.4069 77.128 73.7398 76.7477 81.9845C76.7477 81.9845 70.9625 72.7676 77.5956 66.4108C84.2288 60.054 97.5475 59.3299 99.2768 54.9094Z" fill="url(#paint52_linear_59_30353)"/>
<path d="M99.2768 54.9094C99.2768 54.9094 102.135 61.1415 98.911 66.4844C92.9237 76.4069 77.128 73.7398 76.7477 81.9845C76.7477 81.9845 70.9625 72.7676 77.5956 66.4108C84.2288 60.054 97.5475 59.3299 99.2768 54.9094Z" stroke="#CC7415" stroke-width="1.71907" stroke-linecap="round" stroke-linejoin="round"/>
<path d="M74.4278 80.1414C74.4278 80.1414 74.608 73.3807 80.4915 70.3572C86.3751 67.3337 98.4555 68.8835 100.764 61.4298" stroke="#CC7415" stroke-width="1.71907" stroke-linecap="round" stroke-linejoin="round"/>
<path d="M76.8567 34.5868C76.8567 34.5868 71.2867 39.0635 75.4952 43.1874C80.9214 48.5044 90.5731 45.8827 96.2566 50.6203C101.94 55.3578 101.765 62.35 98.7138 66.4735C98.7138 66.4735 98.5152 62.5573 92.4562 61.0624C86.3971 59.5675 73.4349 64.034 68.5564 54.8375C64.3307 46.8716 70.8384 36.3401 76.8567 34.5868Z" fill="url(#paint53_linear_59_30353)"/>
<path d="M76.8567 34.5868C76.8567 34.5868 71.2867 39.0635 75.4952 43.1874C80.9214 48.5044 90.5731 45.8827 96.2566 50.6203C101.94 55.3578 101.765 62.35 98.7138 66.4735C98.7138 66.4735 98.5152 62.5573 92.4562 61.0624C86.3971 59.5675 73.4349 64.034 68.5564 54.8375C64.3307 46.8716 70.8384 36.3401 76.8567 34.5868Z" stroke="#EA9228" stroke-width="1.71907" stroke-linecap="round" stroke-linejoin="round"/>
<path d="M73.093 41.2064C73.093 41.2064 67.9383 48.6522 73.5856 58.3859C73.5856 58.3859 75.1945 59.5247 78.5542 59.8379C78.5542 59.8379 73.094 55.2315 72.8298 50.1898C72.5656 45.148 75.0352 44.0401 75.0352 44.0401C75.0352 44.0401 73.4993 42.7344 73.093 41.2064Z" fill="#F9F4BB"/>
<path d="M89.0508 48.5244C89.0508 48.5244 91.4216 50.1941 92.5805 53.6397C93.7395 57.0853 92.0997 60.0252 92.0997 60.0252C92.0997 60.0252 94.1497 60.244 95.9214 61.3742C95.9214 61.3742 94.0567 55.3561 93.4366 52.8609C92.8165 50.3657 92.697 49.638 92.697 49.638C92.697 49.638 91.2678 48.816 89.0508 48.5244Z" fill="#F9F4BB"/>
<path d="M70.5982 39.7607C70.5982 39.7607 67.8349 45.124 72.1023 49.7929C76.4111 54.5069 93.5415 50.1915 99.6634 54.9805" stroke="#EA9228" stroke-width="1.71907" stroke-linecap="round" stroke-linejoin="round"/>
<path d="M96.6637 77.4059C96.6637 77.4059 98.2811 75.0923 93.5143 74.6548C88.7474 74.2172 81.7618 77.7413 82.0559 85.2291C82.0559 85.2291 81.1605 87.8892 84.7677 90.6221C84.7677 90.6221 84.5616 85.3808 88.7017 82.5933C92.8418 79.8058 94.7823 81.4793 94.7823 81.4793C94.7823 81.4793 95.8148 80.1891 96.6637 77.4059Z" fill="url(#paint54_linear_59_30353)"/>
<path d="M96.6637 77.4059C96.6637 77.4059 98.2811 75.0923 93.5143 74.6548C88.7474 74.2172 81.7618 77.7413 82.0559 85.2291C82.0559 85.2291 81.1605 87.8892 84.7677 90.6221C84.7677 90.6221 84.5616 85.3808 88.7017 82.5933C92.8418 79.8058 94.7823 81.4793 94.7823 81.4793C94.7823 81.4793 95.8148 80.1891 96.6637 77.4059Z" stroke="url(#paint55_linear_59_30353)" stroke-width="1.71907" stroke-linecap="round" stroke-linejoin="round"/>
<path d="M82.0534 85.2293C82.0534 85.2293 83.7763 89.1342 89.0132 88.837C94.2502 88.5397 95.0735 87.6172 95.0735 87.6172C95.0735 87.6172 92.8772 92.9958 86.7036 92.2206C80.53 91.4454 82.0534 85.2293 82.0534 85.2293Z" fill="url(#paint56_linear_59_30353)"/>
<path d="M82.0534 85.2293C82.0534 85.2293 83.7763 89.1342 89.0132 88.837C94.2502 88.5397 95.0735 87.6172 95.0735 87.6172C95.0735 87.6172 92.8772 92.9958 86.7036 92.2206C80.53 91.4454 82.0534 85.2293 82.0534 85.2293Z" stroke="url(#paint57_linear_59_30353)" stroke-width="1.71907" stroke-linecap="round" stroke-linejoin="round"/>
<path d="M96.6569 77.4038C96.6569 77.4038 91.9829 80.7536 84.8475 78.1611C77.7121 75.5685 75.6034 70.5345 77.5955 66.4102C77.5955 66.4102 72.196 70.8587 73.353 78.0789C74.5099 85.2992 81.4386 87.4838 87.8611 86.5069C94.2526 85.5346 95.9966 81.4989 96.6569 77.4038Z" fill="url(#paint58_linear_59_30353)"/>
<path d="M96.6569 77.4038C96.6569 77.4038 91.9829 80.7536 84.8475 78.1611C77.7121 75.5685 75.6034 70.5345 77.5955 66.4102C77.5955 66.4102 72.196 70.8587 73.353 78.0789C74.5099 85.2992 81.4386 87.4838 87.8611 86.5069C94.2526 85.5346 95.9966 81.4989 96.6569 77.4038Z" stroke="url(#paint59_linear_59_30353)" stroke-width="1.71907" stroke-linecap="round" stroke-linejoin="round"/>
<path d="M77.6041 83.8607C77.6041 83.8607 75.9616 81.2799 75.9643 77.574C75.9671 73.8682 76.4009 71.9773 76.4009 71.9773C76.4009 71.9773 77.0417 74.3191 79.2671 76.0862C79.2671 76.0862 75.7912 79.3329 79.9986 85.0682C79.9986 85.0682 78.2747 84.674 77.6041 83.8607Z" fill="#FFCCB3"/>
<path d="M74.0072 72.023C74.0072 72.023 72.7659 79.3249 81.3911 81.6765C90.0162 84.028 95.8293 78.5332 95.8293 78.5332" stroke="url(#paint60_linear_59_30353)" stroke-width="1.71907" stroke-linecap="round" stroke-linejoin="round"/>
<defs>
<linearGradient id="paint0_linear_59_30353" x1="45.0519" y1="69.472" x2="29.146" y2="69.472" gradientUnits="userSpaceOnUse">
<stop stop-color="#F35585"/>
<stop offset="0.5" stop-color="#F95396"/>
<stop offset="0.99" stop-color="#FF52A8"/>
</linearGradient>
<linearGradient id="paint1_linear_59_30353" x1="45.9115" y1="69.472" x2="28.2865" y2="69.472" gradientUnits="userSpaceOnUse">
<stop stop-color="#D81364"/>
<stop offset="0.55" stop-color="#BD0964"/>
<stop offset="1" stop-color="#A20064"/>
</linearGradient>
<linearGradient id="paint2_linear_59_30353" x1="23.3089" y1="77.4229" x2="8.64667" y2="76.8319" gradientUnits="userSpaceOnUse">
<stop stop-color="#FF85B2"/>
<stop offset="0.5" stop-color="#F96D9C"/>
<stop offset="1" stop-color="#F35585"/>
</linearGradient>
<linearGradient id="paint3_linear_59_30353" x1="23.3089" y1="76.0261" x2="8.64666" y2="75.8112" gradientUnits="userSpaceOnUse">
<stop stop-color="#D81364"/>
<stop offset="0.55" stop-color="#BD0964"/>
<stop offset="1" stop-color="#A20064"/>
</linearGradient>
<linearGradient id="paint4_linear_59_30353" x1="28.5421" y1="55.5044" x2="3.46473" y2="55.6655" gradientUnits="userSpaceOnUse">
<stop stop-color="#FF9066"/>
<stop offset="0.5" stop-color="#FFA45D"/>
<stop offset="1" stop-color="#FFB853"/>
</linearGradient>
<linearGradient id="paint5_linear_59_30353" x1="29.6431" y1="65.3896" x2="6.65763" y2="66.6789" gradientUnits="userSpaceOnUse">
<stop stop-color="#FCA78B"/>
<stop offset="0.49" stop-color="#FD969F"/>
<stop offset="0.98" stop-color="#FF85B2"/>
</linearGradient>
<linearGradient id="paint6_linear_59_30353" x1="27.172" y1="56.3644" x2="6.97996" y2="67.8607" gradientUnits="userSpaceOnUse">
<stop stop-color="#F79E52"/>
<stop offset="0.5" stop-color="#E8585B"/>
<stop offset="1" stop-color="#D81364"/>
</linearGradient>
<linearGradient id="paint7_linear_59_30353" x1="29.4949" y1="58.513" x2="7.8131" y2="69.7874" gradientUnits="userSpaceOnUse">
<stop stop-color="#F79E52"/>
<stop offset="0.5" stop-color="#E8585B"/>
<stop offset="1" stop-color="#D81364"/>
</linearGradient>
<linearGradient id="paint8_linear_59_30353" x1="33.127" y1="36.5409" x2="0.762185" y2="35.5202" gradientUnits="userSpaceOnUse">
<stop stop-color="#FCF190"/>
<stop offset="0.49" stop-color="#FCE482"/>
<stop offset="0.98" stop-color="#FCD874"/>
</linearGradient>
<linearGradient id="paint9_linear_59_30353" x1="23.908" y1="12.9578" x2="26.8401" y2="31.2017" gradientUnits="userSpaceOnUse">
<stop stop-color="#FF9066"/>
<stop offset="0.5" stop-color="#FFA45D"/>
<stop offset="1" stop-color="#FFB853"/>
</linearGradient>
<linearGradient id="paint10_linear_59_30353" x1="33.3629" y1="22.1973" x2="21.6368" y2="9.16865" gradientUnits="userSpaceOnUse">
<stop stop-color="#FFB853"/>
<stop offset="0.5" stop-color="#FDC863"/>
<stop offset="1" stop-color="#FCD874"/>
</linearGradient>
<linearGradient id="paint11_linear_59_30353" x1="29.4951" y1="16.8255" x2="44.1639" y2="16.8255" gradientUnits="userSpaceOnUse">
<stop stop-color="#8990AD"/>
<stop offset="0.5" stop-color="#79809F"/>
<stop offset="1" stop-color="#6A7091"/>
</linearGradient>
<linearGradient id="paint12_linear_59_30353" x1="11.6598" y1="55.0745" x2="87.6213" y2="55.0745" gradientUnits="userSpaceOnUse">
<stop stop-color="#CF4AE0"/>
<stop offset="0.5" stop-color="#A437C3"/>
<stop offset="1" stop-color="#7A23A5"/>
</linearGradient>
<linearGradient id="paint13_linear_59_30353" x1="79.4054" y1="43.509" x2="49.3578" y2="50.5933" gradientUnits="userSpaceOnUse">
<stop offset="0.19" stop-color="#6C007C" stop-opacity="0"/>
<stop offset="0.65" stop-color="#6C007C" stop-opacity="0.35"/>
<stop offset="1" stop-color="#6C007C" stop-opacity="0.7"/>
</linearGradient>
<linearGradient id="paint14_linear_59_30353" x1="76.9845" y1="74.1995" x2="46.9369" y2="81.2838" gradientUnits="userSpaceOnUse">
<stop offset="0.19" stop-color="#6C007C" stop-opacity="0"/>
<stop offset="0.65" stop-color="#6C007C" stop-opacity="0.35"/>
<stop offset="1" stop-color="#6C007C" stop-opacity="0.7"/>
</linearGradient>
<linearGradient id="paint15_linear_59_30353" x1="41.3138" y1="34.2306" x2="34.4629" y2="17.5066" gradientUnits="userSpaceOnUse">
<stop stop-color="white" stop-opacity="0"/>
<stop offset="0.48" stop-color="white" stop-opacity="0.5"/>
<stop offset="1" stop-color="white"/>
</linearGradient>
<radialGradient id="paint16_radial_59_30353" cx="0" cy="0" r="1" gradientUnits="userSpaceOnUse" gradientTransform="translate(40.6396 31.66) scale(18.9614)">
<stop stop-color="white" stop-opacity="0.8"/>
<stop offset="0.65" stop-color="white" stop-opacity="0.4"/>
<stop offset="1" stop-color="white" stop-opacity="0"/>
</radialGradient>
<linearGradient id="paint17_linear_59_30353" x1="68.174" y1="70.1162" x2="74.6973" y2="76.4723" gradientUnits="userSpaceOnUse">
<stop stop-color="#3D004B"/>
<stop offset="0.59" stop-color="#3D004B" stop-opacity="0.6"/>
<stop offset="1" stop-color="#3D004B" stop-opacity="0.2"/>
</linearGradient>
<radialGradient id="paint18_radial_59_30353" cx="0" cy="0" r="1" gradientUnits="userSpaceOnUse" gradientTransform="translate(27.5613 37.8837) scale(14.4159)">
<stop stop-color="white" stop-opacity="0.7"/>
<stop offset="0.65" stop-color="white" stop-opacity="0.35"/>
<stop offset="1" stop-color="white" stop-opacity="0"/>
</radialGradient>
<linearGradient id="paint19_linear_59_30353" x1="30.4618" y1="72.588" x2="45.5929" y2="54.3783" gradientUnits="userSpaceOnUse">
<stop stop-color="#96B220"/>
<stop offset="0.68" stop-color="#A2C035"/>
<stop offset="1" stop-color="#AECE4A"/>
</linearGradient>
<linearGradient id="paint20_linear_59_30353" x1="32.4809" y1="74.1439" x2="53.1098" y2="64.4741" gradientUnits="userSpaceOnUse">
<stop stop-color="#667600"/>
<stop offset="0.5" stop-color="#626E00"/>
<stop offset="1" stop-color="#5E6600"/>
</linearGradient>
<linearGradient id="paint21_linear_59_30353" x1="27.2923" y1="54.2152" x2="25.3616" y2="62.7031" gradientUnits="userSpaceOnUse">
<stop offset="0.19" stop-color="#C8E57A"/>
<stop offset="0.65" stop-color="#BBDA62"/>
<stop offset="1" stop-color="#AECE4A"/>
</linearGradient>
<linearGradient id="paint22_linear_59_30353" x1="19.6102" y1="73.7702" x2="29.9578" y2="73.7702" gradientUnits="userSpaceOnUse">
<stop stop-color="white" stop-opacity="0.2"/>
<stop offset="0.65" stop-color="white" stop-opacity="0.4"/>
<stop offset="1" stop-color="white" stop-opacity="0.6"/>
</linearGradient>
<linearGradient id="paint23_linear_59_30353" x1="14.8831" y1="71.6214" x2="27.5952" y2="71.6214" gradientUnits="userSpaceOnUse">
<stop stop-color="white" stop-opacity="0"/>
<stop offset="0.48" stop-color="white" stop-opacity="0.5"/>
<stop offset="1" stop-color="white"/>
</linearGradient>
<linearGradient id="paint24_linear_59_30353" x1="70.9675" y1="63.4019" x2="57.3389" y2="61.8197" gradientUnits="userSpaceOnUse">
<stop offset="0.19" stop-color="#C8E57A"/>
<stop offset="0.65" stop-color="#BBDA62"/>
<stop offset="1" stop-color="#AECE4A"/>
</linearGradient>
<linearGradient id="paint25_linear_59_30353" x1="12.0893" y1="64.9593" x2="74.8952" y2="64.9593" gradientUnits="userSpaceOnUse">
<stop offset="0.19" stop-color="#CB8CF4"/>
<stop offset="0.65" stop-color="#C371F9"/>
<stop offset="1" stop-color="#BC56FE"/>
</linearGradient>
<linearGradient id="paint26_linear_59_30353" x1="7.79176" y1="61.3061" x2="71.7926" y2="61.2573" gradientUnits="userSpaceOnUse">
<stop stop-color="#A6DDFF"/>
<stop offset="0.08" stop-color="#8DC5F9"/>
<stop offset="0.12" stop-color="#73ADF4"/>
<stop offset="0.28" stop-color="#8DC5F9"/>
<stop offset="0.45" stop-color="#A6DDFF"/>
<stop offset="0.73" stop-color="#8DC5F9"/>
<stop offset="1" stop-color="#73ADF4"/>
</linearGradient>
<linearGradient id="paint27_linear_59_30353" x1="-9.18395" y1="65.1743" x2="23.7969" y2="65.1743" gradientUnits="userSpaceOnUse">
<stop stop-color="white"/>
<stop offset="0.5" stop-color="white" stop-opacity="0.517"/>
<stop offset="0.81" stop-color="white" stop-opacity="0.034"/>
<stop offset="0.87" stop-color="white" stop-opacity="0.017"/>
<stop offset="1" stop-color="white" stop-opacity="0"/>
</linearGradient>
<linearGradient id="paint28_linear_59_30353" x1="23.0485" y1="50.9918" x2="6.22111" y2="87.1965" gradientUnits="userSpaceOnUse">
<stop stop-color="white" stop-opacity="0"/>
<stop offset="0.65" stop-color="white" stop-opacity="0.5"/>
<stop offset="1" stop-color="white"/>
</linearGradient>
<linearGradient id="paint29_linear_59_30353" x1="72.0725" y1="44.3142" x2="10.0737" y2="68.4804" gradientUnits="userSpaceOnUse">
<stop stop-color="#BDF3E4" stop-opacity="0.2"/>
<stop offset="0.5" stop-color="#A1D8EE" stop-opacity="0.12"/>
<stop offset="0.81" stop-color="#85BEF8" stop-opacity="0.04"/>
<stop offset="0.87" stop-color="#C2DFFB" stop-opacity="0.025"/>
<stop offset="1" stop-color="white" stop-opacity="0.01"/>
</linearGradient>
<linearGradient id="paint30_linear_59_30353" x1="25.1973" y1="66.8934" x2="70.7495" y2="65.5403" gradientUnits="userSpaceOnUse">
<stop stop-color="white" stop-opacity="0.2"/>
<stop offset="0.65" stop-color="white" stop-opacity="0.4"/>
<stop offset="1" stop-color="white" stop-opacity="0.6"/>
</linearGradient>
<linearGradient id="paint31_linear_59_30353" x1="43.7047" y1="108.706" x2="44.264" y2="61.8459" gradientUnits="userSpaceOnUse">
<stop stop-color="white"/>
<stop offset="0.68" stop-color="white" stop-opacity="0.75"/>
<stop offset="1" stop-color="white" stop-opacity="0.5"/>
</linearGradient>
<linearGradient id="paint32_linear_59_30353" x1="23.3709" y1="93.5388" x2="26.4867" y2="106.11" gradientUnits="userSpaceOnUse">
<stop offset="0.29" stop-color="white" stop-opacity="0.5"/>
<stop offset="0.3" stop-color="white"/>
<stop offset="0.45" stop-color="white"/>
<stop offset="0.6" stop-color="white"/>
<stop offset="0.61" stop-color="white" stop-opacity="0"/>
</linearGradient>
<linearGradient id="paint33_linear_59_30353" x1="23.3709" y1="93.5388" x2="26.4867" y2="106.11" gradientUnits="userSpaceOnUse">
<stop stop-color="white"/>
<stop offset="0.5" stop-color="white"/>
<stop offset="1" stop-color="white"/>
</linearGradient>
<linearGradient id="paint34_linear_59_30353" x1="46.1485" y1="93.5389" x2="49.2643" y2="106.11" gradientUnits="userSpaceOnUse">
<stop offset="0.29" stop-color="white" stop-opacity="0.5"/>
<stop offset="0.3" stop-color="white"/>
<stop offset="0.45" stop-color="white"/>
<stop offset="0.6" stop-color="white"/>
<stop offset="0.61" stop-color="white" stop-opacity="0"/>
</linearGradient>
<linearGradient id="paint35_linear_59_30353" x1="46.1485" y1="93.5389" x2="49.2643" y2="106.11" gradientUnits="userSpaceOnUse">
<stop stop-color="white"/>
<stop offset="0.5" stop-color="white"/>
<stop offset="1" stop-color="white"/>
</linearGradient>
<linearGradient id="paint36_linear_59_30353" x1="-41.4705" y1="-7.02644" x2="27.795" y2="-7.02644" gradientUnits="userSpaceOnUse">
<stop stop-color="#D4F8FC"/>
<stop offset="0.68" stop-color="#D4F8FC" stop-opacity="0.9"/>
<stop offset="1" stop-color="#D4F8FC" stop-opacity="0.8"/>
</linearGradient>
<linearGradient id="paint37_linear_59_30353" x1="-41.4705" y1="-7.02646" x2="27.795" y2="-7.02646" gradientUnits="userSpaceOnUse">
<stop stop-color="#E7F9BD"/>
<stop offset="0.68" stop-color="#F3FCDE"/>
<stop offset="1" stop-color="white"/>
</linearGradient>
<linearGradient id="paint38_linear_59_30353" x1="-41.4705" y1="-7.02646" x2="27.795" y2="-7.02646" gradientUnits="userSpaceOnUse">
<stop stop-color="#E7F9BD"/>
<stop offset="0.68" stop-color="#F3FCDE"/>
<stop offset="1" stop-color="white"/>
</linearGradient>
<linearGradient id="paint39_linear_59_30353" x1="-41.4705" y1="-7.02646" x2="27.795" y2="-7.02646" gradientUnits="userSpaceOnUse">
<stop stop-color="#E7F9BD"/>
<stop offset="0.68" stop-color="#F3FCDE"/>
<stop offset="1" stop-color="white"/>
</linearGradient>
<linearGradient id="paint40_linear_59_30353" x1="-41.4705" y1="-7.02646" x2="27.795" y2="-7.02646" gradientUnits="userSpaceOnUse">
<stop stop-color="#E7F9BD"/>
<stop offset="0.68" stop-color="#F3FCDE"/>
<stop offset="1" stop-color="white"/>
</linearGradient>
<linearGradient id="paint41_linear_59_30353" x1="-41.4705" y1="-7.02646" x2="27.795" y2="-7.02646" gradientUnits="userSpaceOnUse">
<stop stop-color="#E7F9BD"/>
<stop offset="0.68" stop-color="#F3FCDE"/>
<stop offset="1" stop-color="white"/>
</linearGradient>
<linearGradient id="paint42_linear_59_30353" x1="-41.4703" y1="-7.02614" x2="27.7953" y2="-7.02614" gradientUnits="userSpaceOnUse">
<stop stop-color="#E7F9BD"/>
<stop offset="0.68" stop-color="#F3FCDE"/>
<stop offset="1" stop-color="white"/>
</linearGradient>
<linearGradient id="paint43_linear_59_30353" x1="-41.4703" y1="-7.02614" x2="27.7953" y2="-7.02614" gradientUnits="userSpaceOnUse">
<stop stop-color="#E7F9BD"/>
<stop offset="0.68" stop-color="#F3FCDE"/>
<stop offset="1" stop-color="white"/>
</linearGradient>
<linearGradient id="paint44_linear_59_30353" x1="-41.4703" y1="-7.02614" x2="27.7953" y2="-7.02614" gradientUnits="userSpaceOnUse">
<stop stop-color="#E7F9BD"/>
<stop offset="0.68" stop-color="#F3FCDE"/>
<stop offset="1" stop-color="white"/>
</linearGradient>
<linearGradient id="paint45_linear_59_30353" x1="-41.4703" y1="-7.02614" x2="27.7953" y2="-7.02614" gradientUnits="userSpaceOnUse">
<stop stop-color="#E7F9BD"/>
<stop offset="0.68" stop-color="#F3FCDE"/>
<stop offset="1" stop-color="white"/>
</linearGradient>
<linearGradient id="paint46_linear_59_30353" x1="-41.4703" y1="-7.02614" x2="27.7953" y2="-7.02614" gradientUnits="userSpaceOnUse">
<stop stop-color="#E7F9BD"/>
<stop offset="0.68" stop-color="#F3FCDE"/>
<stop offset="1" stop-color="white"/>
</linearGradient>
<radialGradient id="paint47_radial_59_30353" cx="0" cy="0" r="1" gradientUnits="userSpaceOnUse" gradientTransform="translate(53.1848 52.9444) scale(19.7808)">
<stop offset="0.05" stop-color="white"/>
<stop offset="0.33" stop-color="white" stop-opacity="0.5"/>
<stop offset="0.62" stop-color="white" stop-opacity="0"/>
</radialGradient>
<linearGradient id="paint48_linear_59_30353" x1="66.5404" y1="20.2823" x2="72.9903" y2="28.9654" gradientUnits="userSpaceOnUse">
<stop stop-color="#8990AD"/>
<stop offset="0.5" stop-color="#79809F"/>
<stop offset="1" stop-color="#6A7091"/>
</linearGradient>
<linearGradient id="paint49_linear_59_30353" x1="66.7591" y1="20.4938" x2="85.799" y2="20.1614" gradientUnits="userSpaceOnUse">
<stop stop-color="#FF9040"/>
<stop offset="0.5" stop-color="#FFA449"/>
<stop offset="1" stop-color="#FFB853"/>
</linearGradient>
<linearGradient id="paint50_linear_59_30353" x1="68.3003" y1="22.6162" x2="83.0645" y2="22.3585" gradientUnits="userSpaceOnUse">
<stop stop-color="#FF9040"/>
<stop offset="0.5" stop-color="#FFA449"/>
<stop offset="1" stop-color="#FFB853"/>
</linearGradient>
<linearGradient id="paint51_linear_59_30353" x1="83.8492" y1="45.1256" x2="86.1723" y2="18.3192" gradientUnits="userSpaceOnUse">
<stop stop-color="#FFB853"/>
<stop offset="0.5" stop-color="#FDC863"/>
<stop offset="1" stop-color="#FCD874"/>
</linearGradient>
<linearGradient id="paint52_linear_59_30353" x1="73.8933" y1="69.2249" x2="100.785" y2="67.3444" gradientUnits="userSpaceOnUse">
<stop stop-color="#FF9066"/>
<stop offset="0.5" stop-color="#FFA45D"/>
<stop offset="1" stop-color="#FFB853"/>
</linearGradient>
<linearGradient id="paint53_linear_59_30353" x1="67.1506" y1="51.4728" x2="100.147" y2="49.7435" gradientUnits="userSpaceOnUse">
<stop stop-color="#FCF190"/>
<stop offset="0.49" stop-color="#FCE482"/>
<stop offset="0.98" stop-color="#FCD874"/>
</linearGradient>
<linearGradient id="paint54_linear_59_30353" x1="81.4917" y1="83.1413" x2="97.3105" y2="81.4787" gradientUnits="userSpaceOnUse">
<stop stop-color="#F35585"/>
<stop offset="0.5" stop-color="#F95396"/>
<stop offset="0.99" stop-color="#FF52A8"/>
</linearGradient>
<linearGradient id="paint55_linear_59_30353" x1="80.6368" y1="83.2312" x2="98.1653" y2="81.3888" gradientUnits="userSpaceOnUse">
<stop stop-color="#D81364"/>
<stop offset="0.55" stop-color="#BD0964"/>
<stop offset="1" stop-color="#A20064"/>
</linearGradient>
<linearGradient id="paint56_linear_59_30353" x1="81.9728" y1="89.1496" x2="94.926" y2="87.5591" gradientUnits="userSpaceOnUse">
<stop stop-color="#FF85B2"/>
<stop offset="0.5" stop-color="#F96D9C"/>
<stop offset="1" stop-color="#F35585"/>
</linearGradient>
<linearGradient id="paint57_linear_59_30353" x1="81.1196" y1="89.2543" x2="95.7792" y2="87.4544" gradientUnits="userSpaceOnUse">
<stop stop-color="#D81364"/>
<stop offset="0.55" stop-color="#BD0964"/>
<stop offset="1" stop-color="#A20064"/>
</linearGradient>
<linearGradient id="paint58_linear_59_30353" x1="73.1188" y1="77.1257" x2="96.3377" y2="75.0943" gradientUnits="userSpaceOnUse">
<stop stop-color="#FCA78B"/>
<stop offset="0.49" stop-color="#FD969F"/>
<stop offset="0.98" stop-color="#FF85B2"/>
</linearGradient>
<linearGradient id="paint59_linear_59_30353" x1="72.2625" y1="77.2006" x2="97.194" y2="75.0194" gradientUnits="userSpaceOnUse">
<stop stop-color="#F79E52"/>
<stop offset="0.5" stop-color="#E8585B"/>
<stop offset="1" stop-color="#D81364"/>
</linearGradient>
<linearGradient id="paint60_linear_59_30353" x1="73.3701" y1="77.535" x2="96.3517" y2="75.5244" gradientUnits="userSpaceOnUse">
<stop stop-color="#F79E52"/>
<stop offset="0.5" stop-color="#E8585B"/>
<stop offset="1" stop-color="#D81364"/>
</linearGradient>
</defs>
</svg>
