<svg width="108" height="103" viewBox="0 0 108 103" fill="none" xmlns="http://www.w3.org/2000/svg">
<g opacity="0.02">
<path d="M99.7897 59.8754V83.1046H57.136V59.8754H99.7897Z" fill="#0001FF"/>
</g>
<mask id="mask0_59_33169" style="mask-type:luminance" maskUnits="userSpaceOnUse" x="5" y="0" width="103" height="103">
<path d="M5.47095 0H108V102.529H5.47095V0Z" fill="white"/>
</mask>
<g mask="url(#mask0_59_33169)">
<path d="M66.3231 4.33247C31.918 -1.1879 2.24703 27.3715 10.7559 64.3658C18.8123 99.3932 63.8617 109.196 90.5895 83.372C112.941 61.7766 109.853 11.3168 66.3231 4.33247Z" fill="url(#paint0_linear_59_33169)"/>
<path d="M92.3433 81.3676L89.744 72.2592H84.2922M98.9582 28.468L92.3389 33.4573L86.0324 32.0321M86.0324 32.0321L84.0675 36.0764M86.0324 32.0321L81.5497 27.4526M33.6592 93.049L37.133 86.4516M37.133 86.4516L35.395 82.6871M37.133 86.4516L43.5849 86.3657L46.1291 84.7599M11.7989 55.8904L10.3583 55.3242L9.82079 56.375L9.06964 56.6305M10.638 51.9694L10.3539 55.3573M32.0644 14.9144L31.2097 14.6456L30.5907 13.3945M30.5907 13.3945L29.2823 12.738M30.5907 13.3945L31.4498 11.4009" stroke="#C5C5C5" stroke-width="3.52444" stroke-linecap="round" stroke-linejoin="round"/>
<path d="M72.7256 41.1095C72.741 56.7783 59.7431 70.6641 43.879 72.0514C28.43 73.4024 12.3496 61.3975 13.5195 41.9126C14.5109 25.3969 26.1169 12.4957 42.1458 10.9705C56.6557 9.58977 72.7058 20.7561 72.7256 41.1095Z" fill="url(#paint1_linear_59_33169)"/>
<g opacity="0.5">
<path d="M40.7477 62.151C40.7477 62.151 51.1003 62.221 55.8415 54.234" stroke="#C4FFFB" stroke-width="13.2166" stroke-linecap="round" stroke-linejoin="round"/>
</g>
<path d="M50.1362 41.5361C49.7326 45.1874 46.5719 47.913 43.4346 47.9673C40.0639 48.0257 37.0058 45.6483 36.7702 41.7461C36.5272 37.7219 39.6919 34.2878 43.3389 34.0252C46.9276 33.7667 50.6944 36.4871 50.1362 41.5361Z" fill="url(#paint2_linear_59_33169)"/>
<path d="M71.1292 41.1297C71.1636 54.6788 58.1672 68.6664 43.832 70.3453C28.0351 72.1955 14.3431 59.7344 15.1158 41.8923C15.7641 26.924 26.8881 13.9277 42.1927 12.6767C57.1859 11.4513 71.0832 23.0306 71.1292 41.1297Z" stroke="#C11CF4" stroke-width="3.96499" stroke-linecap="round" stroke-linejoin="round"/>
<path d="M57.8571 32.22C56.0894 34.7397 52.7658 35.4142 50.4335 33.7262C48.1012 32.0382 47.6435 28.627 49.4112 26.1073C51.1789 23.5875 54.5025 22.913 56.8348 24.601C59.1671 26.289 59.6248 29.7002 57.8571 32.22Z" fill="white"/>
<path d="M45.2894 38.2653C44.4772 39.4231 42.95 39.7328 41.8786 38.9572C40.8072 38.1816 40.5968 36.6145 41.409 35.4567C42.2211 34.299 43.7483 33.9893 44.8198 34.7649C45.8912 35.5405 46.1015 37.1075 45.2894 38.2653Z" fill="white"/>
<g opacity="0.3">
<path d="M90.5891 83.3719C63.861 109.195 18.8128 99.3929 10.757 64.3648C10.6337 63.8293 10.7671 49.6684 10.6594 49.1375C12.2567 78.9393 52.545 91.3136 78.5661 68.1926C97.1756 51.6573 97.782 26.0586 83.7909 10.7363C109.71 28.4676 106.344 68.1472 90.5891 83.3719Z" fill="#D1BD8F"/>
</g>
<path d="M86.0324 19.7734C86.0324 27.4858 74.0145 33.7377 57.9668 33.7377C41.9192 33.7377 28.91 27.4858 28.91 19.7734C28.91 12.0611 41.9192 5.80914 57.9668 5.80914C74.0145 5.80914 86.0324 12.0611 86.0324 19.7734Z" fill="url(#paint3_linear_59_33169)"/>
<g opacity="0.6">
<path d="M65.6717 7.77077C33.5827 2.4535 5.13965 30.1664 13.8452 65.5969C22.0429 98.9601 62.238 109.752 87.1835 84.8604C108.03 64.0589 106.271 14.4985 65.6717 7.77077Z" stroke="white" stroke-width="3.96499" stroke-linecap="round" stroke-linejoin="round"/>
</g>
<path d="M66.323 4.33241C31.8972 -1.03928 1.42206 27.5829 10.7559 64.3657C19.5452 99.0026 65.1104 110.631 90.5895 83.3717C112.224 60.2256 107.457 10.7509 66.323 4.33241Z" stroke="url(#paint4_linear_59_33169)" stroke-width="3.96499" stroke-linecap="round" stroke-linejoin="round"/>
</g>
<defs>
<linearGradient id="paint0_linear_59_33169" x1="52.9908" y1="70.649" x2="63.204" y2="12.5134" gradientUnits="userSpaceOnUse">
<stop stop-color="#F9F0FF"/>
<stop offset="0.34" stop-color="#FCF8FF"/>
<stop offset="0.77" stop-color="white"/>
</linearGradient>
<linearGradient id="paint1_linear_59_33169" x1="46.1621" y1="20.6459" x2="38.9106" y2="66.906" gradientUnits="userSpaceOnUse">
<stop stop-color="#F05CFE"/>
<stop offset="0.5" stop-color="#934BFE"/>
<stop offset="1" stop-color="#363BFF"/>
</linearGradient>
<linearGradient id="paint2_linear_59_33169" x1="46.9276" y1="33.8504" x2="38.8057" y2="45.7714" gradientUnits="userSpaceOnUse">
<stop stop-color="#00302D"/>
<stop offset="0.5" stop-color="#001816"/>
<stop offset="1"/>
</linearGradient>
<linearGradient id="paint3_linear_59_33169" x1="57.3963" y1="8.53067" x2="57.3963" y2="36.0065" gradientUnits="userSpaceOnUse">
<stop stop-color="white"/>
<stop offset="0.54" stop-color="white" stop-opacity="0.5"/>
<stop offset="1" stop-color="white" stop-opacity="0"/>
</linearGradient>
<linearGradient id="paint4_linear_59_33169" x1="73.536" y1="97.4516" x2="39.9006" y2="5.03928" gradientUnits="userSpaceOnUse">
<stop offset="0.18" stop-color="#B5968E"/>
<stop offset="0.36" stop-color="#C1ADA5"/>
<stop offset="0.54" stop-color="#CCC4BC"/>
</linearGradient>
</defs>
</svg>
