<svg width="111" height="111" viewBox="0 0 111 111" fill="none" xmlns="http://www.w3.org/2000/svg">
<path d="M90.3702 46.1932C86.8448 51.5479 71.7105 74.1632 62.5378 80.6328C60.4073 78.9642 57.6082 76.1989 57.6082 76.1989C63.5096 70.1271 80.7715 50.0374 84.3184 42.217C88.2843 43.127 90.3702 46.1932 90.3702 46.1932Z" fill="url(#paint0_linear_59_34103)"/>
<path d="M90.3702 46.1932C86.8448 51.5479 71.7105 74.1632 62.5378 80.6328C60.4073 78.9642 57.6082 76.1989 57.6082 76.1989C63.5096 70.1271 80.7715 50.0374 84.3184 42.217C88.2843 43.127 90.3702 46.1932 90.3702 46.1932Z" stroke="black" stroke-width="1.86598" stroke-linecap="round" stroke-linejoin="round"/>
<path d="M78.9546 39.883C81.026 37.2698 97.3136 45.4229 95.5725 48.449C93.8314 51.475 75.9976 43.6136 78.9546 39.883Z" fill="url(#paint1_linear_59_34103)"/>
<path d="M78.9546 39.883C81.026 37.2698 97.3136 45.4229 95.5725 48.449C93.8314 51.475 75.9976 43.6136 78.9546 39.883Z" stroke="black" stroke-width="1.86598" stroke-linecap="round" stroke-linejoin="round"/>
<path d="M84.1744 41.9135C86.8113 38.059 93.7423 24.8716 95.0458 21.5004C96.3493 18.1293 102.33 19.7579 101.407 23.6182C100.485 27.4786 91.5398 43.4809 90.0439 45.2692C87.5811 44.3908 84.1744 41.9135 84.1744 41.9135Z" fill="url(#paint2_linear_59_34103)"/>
<path d="M84.1744 41.9135C86.8113 38.059 93.7423 24.8716 95.0458 21.5004C96.3493 18.1293 102.33 19.7579 101.407 23.6182C100.485 27.4786 91.5398 43.4809 90.0439 45.2692C87.5811 44.3908 84.1744 41.9135 84.1744 41.9135Z" stroke="black" stroke-width="1.86598" stroke-linecap="round" stroke-linejoin="round"/>
<path d="M88.5909 35.4956C88.9335 36.7937 90.5516 40.9852 90.5516 40.9852" stroke="black" stroke-width="1.39948" stroke-linecap="round" stroke-linejoin="round"/>
<path d="M86.7 39.6979C88.5399 38.8737 92.4959 37.9768 92.4959 37.9768" stroke="black" stroke-width="1.39948" stroke-linecap="round" stroke-linejoin="round"/>
<path d="M92.0596 29.0684C92.4021 30.3665 94.0203 34.5579 94.0203 34.5579" stroke="black" stroke-width="1.39948" stroke-linecap="round" stroke-linejoin="round"/>
<path d="M90.1683 33.2712C92.0082 32.4469 95.9643 31.5501 95.9643 31.5501" stroke="black" stroke-width="1.39948" stroke-linecap="round" stroke-linejoin="round"/>
<path d="M94.9542 22.4805C95.2967 23.7786 96.9148 27.9701 96.9148 27.9701" stroke="black" stroke-width="1.39948" stroke-linecap="round" stroke-linejoin="round"/>
<path d="M93.0631 26.6828C94.903 25.8585 98.859 24.9617 98.859 24.9617" stroke="black" stroke-width="1.39948" stroke-linecap="round" stroke-linejoin="round"/>
<path d="M18.041 48.5667C22.1869 53.4567 39.94 74.0802 49.8264 79.3954C51.74 77.4818 54.1849 74.399 54.1849 74.399C47.5938 69.0838 28.0335 51.2243 23.5687 43.8892C19.7416 45.2711 18.041 48.5667 18.041 48.5667Z" fill="url(#paint3_linear_59_34103)"/>
<path d="M18.041 48.5667C22.1869 53.4567 39.94 74.0802 49.8264 79.3954C51.74 77.4818 54.1849 74.399 54.1849 74.399C47.5938 69.0838 28.0335 51.2243 23.5687 43.8892C19.7416 45.2711 18.041 48.5667 18.041 48.5667Z" stroke="black" stroke-width="1.86598" stroke-linecap="round" stroke-linejoin="round"/>
<path d="M28.6117 40.9248C26.2401 38.5807 11.0555 48.6399 13.1491 51.4337C15.2427 54.2276 31.9973 44.2712 28.6117 40.9248Z" fill="url(#paint4_linear_59_34103)"/>
<path d="M28.6117 40.9248C26.2401 38.5807 11.0555 48.6399 13.1491 51.4337C15.2427 54.2276 31.9973 44.2712 28.6117 40.9248Z" stroke="black" stroke-width="1.86598" stroke-linecap="round" stroke-linejoin="round"/>
<path d="M23.6751 43.5698C20.5922 40.0618 12.1203 27.8072 10.4194 24.6181C8.71858 21.4289 2.97791 23.7674 4.35989 27.4882C5.74188 31.2089 16.5526 46.0147 18.2535 47.6094C20.5922 46.4402 23.6751 43.5698 23.6751 43.5698Z" fill="url(#paint5_linear_59_34103)"/>
<path d="M23.6751 43.5698C20.5922 40.0618 12.1203 27.8072 10.4194 24.6181C8.71858 21.4289 2.97791 23.7674 4.35989 27.4882C5.74188 31.2089 16.5526 46.0147 18.2535 47.6094C20.5922 46.4402 23.6751 43.5698 23.6751 43.5698Z" stroke="black" stroke-width="1.86598" stroke-linecap="round" stroke-linejoin="round"/>
<path d="M17.8282 38.207C17.6449 39.537 16.5444 43.8931 16.5444 43.8931" stroke="black" stroke-width="1.39948" stroke-linecap="round" stroke-linejoin="round"/>
<path d="M20.2127 42.1501C18.2868 41.554 14.2514 41.1411 14.2514 41.1411" stroke="black" stroke-width="1.39948" stroke-linecap="round" stroke-linejoin="round"/>
<path d="M13.6093 32.521C13.426 33.851 12.3255 38.2071 12.3255 38.2071" stroke="black" stroke-width="1.39948" stroke-linecap="round" stroke-linejoin="round"/>
<path d="M15.994 36.4641C14.0681 35.8679 10.0327 35.4551 10.0327 35.4551" stroke="black" stroke-width="1.39948" stroke-linecap="round" stroke-linejoin="round"/>
<path d="M9.94077 26.332C9.75744 27.662 8.65698 32.0181 8.65698 32.0181" stroke="black" stroke-width="1.39948" stroke-linecap="round" stroke-linejoin="round"/>
<path d="M12.3253 30.2761C10.3994 29.6799 6.36395 29.2671 6.36395 29.2671" stroke="black" stroke-width="1.39948" stroke-linecap="round" stroke-linejoin="round"/>
<path d="M90.8995 13.1174C91.0706 7.71773 86.8307 3.22331 81.4294 3.07889C76.0281 2.93447 71.5107 7.19465 71.3396 12.5943C71.1685 17.9939 75.4084 22.4883 80.8097 22.6327C86.211 22.7772 90.7284 18.517 90.8995 13.1174Z" fill="url(#paint6_radial_59_34103)"/>
<path d="M90.8995 13.1174C91.0706 7.71773 86.8307 3.22331 81.4294 3.07889C76.0281 2.93447 71.5107 7.19465 71.3396 12.5943C71.1685 17.9939 75.4084 22.4883 80.8097 22.6327C86.211 22.7772 90.7284 18.517 90.8995 13.1174Z" stroke="url(#paint7_linear_59_34103)" stroke-width="1.86598" stroke-linecap="round" stroke-linejoin="round"/>
<path d="M77.6013 11.452C76.2474 14.3963 77.4199 17.817 80.2199 19.0927C83.0199 20.3683 86.3875 19.0156 87.7414 16.0713C89.0954 13.127 87.9229 9.7062 85.1229 8.43059C82.3228 7.15497 78.9552 8.50769 77.6013 11.452Z" fill="url(#paint8_linear_59_34103)"/>
<g opacity="0.2">
<path d="M73.2897 6.69973C81.1812 8.03417 86.3797 14.0385 89.0243 19.1535C83.3076 27.9376 66.6568 20.821 73.2897 6.69973Z" fill="#650000"/>
</g>
<path d="M26.7876 1.02345C39.7143 0.233784 40.8123 19.7583 27.8856 20.5479C14.9588 21.3376 13.8608 1.81311 26.7876 1.02345Z" fill="url(#paint9_radial_59_34103)"/>
<path d="M26.7876 1.02345C39.7143 0.233784 40.8123 19.7583 27.8856 20.5479C14.9588 21.3376 13.8608 1.81311 26.7876 1.02345Z" stroke="url(#paint10_linear_59_34103)" stroke-width="1.86598" stroke-linecap="round" stroke-linejoin="round"/>
<path d="M31.7305 8.05084C33.1559 10.9474 31.8399 14.5199 28.7914 16.03C25.7429 17.5402 22.1163 16.4161 20.6909 13.5196C19.2655 10.6231 20.5815 7.05052 23.63 5.54039C26.6785 4.03026 30.3052 5.15431 31.7305 8.05084Z" fill="url(#paint11_linear_59_34103)"/>
<g opacity="0.2">
<path d="M19.8505 16.9292C22.3022 13.1687 28.2385 7.81162 36.2523 6.92209C45.0968 20.7306 23.0482 24.9416 19.8505 16.9292Z" fill="#650000"/>
</g>
<path d="M85.5981 78.6319C89.1283 108.641 20.1317 110.814 21.8802 80.6486C22.8717 63.5413 36.1241 51.3913 51.3217 50.1413C62.8511 49.1932 83.1767 58.0495 85.5981 78.6319Z" fill="url(#paint12_radial_59_34103)"/>
<path d="M85.5981 78.6319C89.1283 108.641 20.1317 110.814 21.8802 80.6486C22.8717 63.5413 36.1241 51.3913 51.3217 50.1413C62.8511 49.1932 83.1767 58.0495 85.5981 78.6319Z" stroke="url(#paint13_linear_59_34103)" stroke-width="1.86598" stroke-linecap="round" stroke-linejoin="round"/>
<g opacity="0.33">
<path d="M55.0794 97.3637C41.4065 97.639 26.9312 89.0438 22.1846 76.9033C21.9234 81.3583 22.8774 89.1838 26.3457 93.879C33.2965 103.291 55.6112 102.421 56.2153 102.383C66.1656 101.777 77.8023 98.5066 82.6189 90.5413C84.8651 86.828 87.5964 79.2521 84.1467 71.7905C81.8818 81.1181 74.2803 96.9742 55.0794 97.3637Z" fill="#650000"/>
</g>
<g opacity="0.2">
<path d="M41.5405 62.0681C38.7055 63.4609 34.0691 65.7866 32.789 68.0244C31.5385 70.2106 33.4872 72.3133 43.434 73.3851C41.2143 76.3261 38.6636 79.0643 38.6636 79.0643L49.4862 84.8923L54.1952 70.4578L58.5659 69.6979L62.4459 83.7029L72.3521 80.3578C72.3521 80.3578 70.3161 73.0627 67.719 71.1519C88.3212 74.9702 75.9406 65.1814 75.9406 65.1814C76.1813 65.2767 56.3771 62.3211 41.5405 62.0681Z" fill="#650000"/>
</g>
<path d="M87.8043 32.5417C90.0217 47.9592 74.369 57.5958 55.8428 58.7274C37.3166 59.8591 19.7095 52.5032 20.1841 36.9214C20.6208 22.5755 29.7487 3.23651 52.2863 2.05217C76.1248 0.799527 85.7629 18.3471 87.8043 32.5417Z" fill="url(#paint14_radial_59_34103)"/>
<path d="M87.8043 32.5417C90.0217 47.9592 74.369 57.5958 55.8428 58.7274C37.3166 59.8591 19.7095 52.5032 20.1841 36.9214C20.6208 22.5755 29.7487 3.23651 52.2863 2.05217C76.1248 0.799527 85.7629 18.3471 87.8043 32.5417Z" stroke="url(#paint15_linear_59_34103)" stroke-width="1.86598" stroke-linecap="round" stroke-linejoin="round"/>
<g opacity="0.3">
<g opacity="0.33">
<path d="M86.1202 24.6386C91.8737 55.3921 16.8733 62.6351 22.3764 25.7634C10.1484 61.8956 54.9111 58.7846 55.8429 58.7278C73.2555 57.6641 95.688 48.2767 86.1202 24.6386Z" fill="#650000"/>
</g>
</g>
<path d="M32.2844 61.0875C28.412 58.9088 18.8436 66.5817 15.8508 72.978C12.2065 80.7668 25.4603 86.9229 28.9156 78.895C32.3709 70.8671 34.1007 62.1094 32.2844 61.0875Z" fill="url(#paint16_radial_59_34103)"/>
<path d="M32.2844 61.0875C28.412 58.9088 18.8436 66.5817 15.8508 72.978C12.2065 80.7668 25.4603 86.9229 28.9156 78.895C32.3709 70.8671 34.1007 62.1094 32.2844 61.0875Z" stroke="url(#paint17_linear_59_34103)" stroke-width="1.86598" stroke-linecap="round" stroke-linejoin="round"/>
<g opacity="0.3">
<path d="M17.9052 73.4663C19.5902 69.6049 22.4689 66.7264 26.6814 64.3394" stroke="white" stroke-width="1.86598" stroke-linecap="round" stroke-linejoin="round"/>
</g>
<path d="M28.0309 77.9106C28.0309 82.4935 18.6661 82.9495 18.6661 78.8732C18.6661 74.968 28.0309 74.7123 28.0309 77.9106Z" fill="url(#paint18_linear_59_34103)"/>
<path d="M76.171 58.9212C79.9069 56.9647 93.5006 66.4604 94.6409 72.9197C96.286 82.2379 84.7732 84.8762 81.2045 76.9558C78.155 70.1882 74.2493 59.9276 76.171 58.9212Z" fill="url(#paint19_radial_59_34103)"/>
<path d="M76.171 58.9212C79.9069 56.9647 93.5006 66.4604 94.6409 72.9197C96.286 82.2379 84.7732 84.8762 81.2045 76.9558C78.155 70.1882 74.2493 59.9276 76.171 58.9212Z" stroke="url(#paint20_linear_59_34103)" stroke-width="1.86598" stroke-linecap="round" stroke-linejoin="round"/>
<g opacity="0.3">
<path d="M84.2892 63.5298C86.9134 65.2577 89.9321 67.9011 91.4396 70.4763" stroke="white" stroke-width="1.86598" stroke-linecap="round" stroke-linejoin="round"/>
</g>
<path d="M92.2809 77.471C92.2809 82.1117 82.6562 81.8131 82.6562 76.8926C82.6562 72.5469 92.2809 73.0445 92.2809 77.471Z" fill="url(#paint21_linear_59_34103)"/>
<g opacity="0.5">
<path d="M77.2739 15.221C77.2435 21.3615 67.0396 26.3392 54.4828 26.339C41.926 26.3388 31.7714 21.3609 31.8017 15.2204C31.832 9.07994 42.0401 3.2516 54.5969 3.25176C67.1537 3.25193 77.3042 9.08053 77.2739 15.221Z" fill="url(#paint22_radial_59_34103)"/>
</g>
<g opacity="0.3">
<path d="M24.3015 25.3772C25.9458 19.4809 34.447 4.45948 53.6888 4.38954" stroke="white" stroke-width="1.86598" stroke-linecap="round" stroke-linejoin="round"/>
</g>
<path d="M50.7122 33.3425C50.8377 38.262 43.8801 44.5615 39.3701 47.5573C33.6839 51.3345 28.3988 49.1984 27.3953 41.7543C26.7866 37.2394 27.5867 32.5413 28.8164 28.9382C34.6416 11.8721 50.478 24.1447 50.7122 33.3425Z" fill="url(#paint23_linear_59_34103)"/>
<path d="M57.7872 33.9293C57.6131 38.8488 64.5084 45.1485 68.9889 48.1444C74.6376 51.9217 79.9439 49.7858 81.021 42.3417C81.6743 37.8268 80.9206 33.1287 79.7265 29.5256C74.07 12.4593 58.1123 24.7315 57.7872 33.9293Z" fill="url(#paint24_linear_59_34103)"/>
<path d="M44.5279 37.4277C43.714 40.3207 40.9877 42.2059 38.4387 41.6383C35.8897 41.0708 34.4834 38.2654 35.2972 35.3725C36.1111 32.4796 38.8374 30.5944 41.3864 31.162C43.9354 31.7295 45.3417 34.5348 44.5279 37.4277Z" fill="white"/>
<path d="M63.9309 38.0149C64.7162 40.9078 67.4239 42.7931 69.9785 42.2256C72.5331 41.6582 73.9672 38.8529 73.1819 35.9599C72.3966 33.067 69.689 31.1817 67.1344 31.7492C64.5798 32.3167 63.1457 35.122 63.9309 38.0149Z" fill="white"/>
<path d="M66.7605 45.5819C66.7068 50.0886 64.5791 54.1487 53.9691 54.1197C43.6908 54.0913 41.2872 49.6366 41.341 45.1299C41.3947 40.6231 47.5746 35.5174 54.0804 35.563C60.5861 35.6085 66.8143 41.0752 66.7605 45.5819Z" fill="url(#paint25_radial_59_34103)"/>
<g opacity="0.2">
<path d="M64.5028 40.4598C65.9226 42.0805 66.7815 43.8971 66.7615 45.5831C66.7066 50.0884 66.91 55.6711 54.1462 55.6709C40.034 55.6708 41.2863 49.6357 41.3412 45.1304C41.357 43.8175 41.8957 42.4556 42.8072 41.1824C42.4966 42.6655 42.2432 43.4257 42.8467 44.9858C44.1044 48.2459 63.1241 47.9943 64.55 44.6013C65.211 43.0319 64.7965 41.4555 64.5028 40.4598Z" fill="#650000"/>
</g>
<path d="M86.5218 103.544C80.8222 100.795 78.8965 98.0785 77.181 96.5279C73.087 92.8272 78.6817 78.2677 87.8058 82.746C90.7177 84.1753 94.2483 85.7505 95.9168 87.1455C102.554 92.6951 94.8422 107.557 86.5218 103.544Z" fill="url(#paint26_radial_59_34103)"/>
<path d="M86.5218 103.544C80.8222 100.795 78.8965 98.0785 77.181 96.5279C73.087 92.8272 78.6817 78.2677 87.8058 82.746C90.7177 84.1753 94.2483 85.7505 95.9168 87.1455C102.554 92.6951 94.8422 107.557 86.5218 103.544Z" stroke="url(#paint27_linear_59_34103)" stroke-width="1.86598" stroke-linecap="round" stroke-linejoin="round"/>
<path d="M90.0348 107.932C109.232 112.988 118.342 76.3688 99.3273 71.1602C84.4156 67.0753 71.1607 102.962 90.0348 107.932Z" fill="url(#paint28_radial_59_34103)"/>
<path d="M90.0348 107.932C109.232 112.988 118.342 76.3688 99.3273 71.1602C84.4156 67.0753 71.1607 102.962 90.0348 107.932Z" stroke="url(#paint29_linear_59_34103)" stroke-width="1.86598" stroke-linecap="round" stroke-linejoin="round"/>
<path d="M97.9579 104.67C105.915 102.086 108.925 93.3594 108.88 87.955C108.839 82.9097 102.018 80.5254 98.8013 86.9775C96.2055 81.9296 90.7667 80.6113 88.1065 87.8608C86.4094 92.4856 89.4579 102.188 97.9579 104.67Z" fill="url(#paint30_linear_59_34103)"/>
<g opacity="0.33">
<path d="M84.5861 84.3033C84.5861 90.2987 90.8096 95.1754 96.4005 95.1754C101.991 95.1754 107.877 89.6222 107.877 83.6269C107.877 77.6315 102.523 71.9575 96.9318 71.9575C91.3409 71.9575 84.5861 78.3079 84.5861 84.3033Z" fill="url(#paint31_radial_59_34103)"/>
</g>
<g opacity="0.3">
<path d="M98.106 72.8647C100.275 73.3095 105.168 75.3113 107.003 80.8166" stroke="white" stroke-width="1.86598" stroke-linecap="round" stroke-linejoin="round"/>
</g>
<path d="M25.3759 105.931C28.2236 104.658 32.6298 101.458 34.3479 100.134C38.4482 96.9745 34.2861 82.9487 25.4251 86.466C22.5972 87.5886 19.4584 88.7239 17.7956 89.9059C11.1812 94.608 17.4646 109.465 25.3759 105.931Z" fill="url(#paint32_radial_59_34103)"/>
<path d="M25.3759 105.931C28.2236 104.658 32.6298 101.458 34.3479 100.134C38.4482 96.9745 34.2861 82.9487 25.4251 86.466C22.5972 87.5886 19.4584 88.7239 17.7956 89.9059C11.1812 94.608 17.4646 109.465 25.3759 105.931Z" stroke="url(#paint33_linear_59_34103)" stroke-width="1.86598" stroke-linecap="round" stroke-linejoin="round"/>
<path d="M21.6323 108.599C4.01793 114.637 -7.7699 82.2524 9.33199 75.2172C24.4821 68.985 40.5761 102.106 21.6323 108.599Z" fill="url(#paint34_radial_59_34103)"/>
<path d="M21.6323 108.599C4.01793 114.637 -7.7699 82.2524 9.33199 75.2172C24.4821 68.985 40.5761 102.106 21.6323 108.599Z" stroke="url(#paint35_linear_59_34103)" stroke-width="1.86598" stroke-linecap="round" stroke-linejoin="round"/>
<path d="M15.6087 106.315C7.63655 105.451 3.57176 98.8772 2.62618 93.5723C1.74357 88.6197 6.51044 84.4122 10.7203 90.0605C11.9647 83.9837 17.0273 80.9711 20.8589 87.5172C23.3033 91.6934 23.1668 102.102 15.6087 106.315Z" fill="url(#paint36_linear_59_34103)"/>
<g opacity="0.33">
<path d="M24.3319 88.0245C24.3319 94.0198 18.1086 98.8966 12.5177 98.8966C6.92675 98.8966 2.39453 94.0364 2.39453 88.041C2.39453 82.0457 6.39542 75.6787 11.9863 75.6787C17.5773 75.6787 24.3319 82.0291 24.3319 88.0245Z" fill="url(#paint37_radial_59_34103)"/>
</g>
<g opacity="0.3">
<path d="M3.43433 84.4044C4.53735 80.2678 8.26044 75.9933 13.707 76.7516" stroke="white" stroke-width="1.86598" stroke-linecap="round" stroke-linejoin="round"/>
</g>
<path d="M54.0057 62.3841C52.0784 65.171 49.2008 81.1654 49.2008 81.1654L39.0961 75.8359C39.0961 75.8359 49.2562 62.2861 52.133 60.5659" fill="#2D1F1F"/>
<path d="M54.0057 62.3841C52.0784 65.171 49.2008 81.1654 49.2008 81.1654L39.0961 75.8359C39.0961 75.8359 49.2562 62.2861 52.133 60.5659" stroke="black" stroke-width="1.86598" stroke-linecap="round" stroke-linejoin="round"/>
<path d="M57.5158 63.4877C60.3948 66.5472 62.5655 78.3139 63.4523 80.8992C66.3116 79.8312 71.8572 76.8297 71.8572 76.8297C69.0443 69.645 61.7652 62.9622 61.7652 62.9622" fill="#2D1F1F"/>
<path d="M57.5158 63.4877C60.3948 66.5472 62.5655 78.3139 63.4523 80.8992C66.3116 79.8313 71.8572 76.8297 71.8572 76.8297C69.0443 69.645 61.7652 62.9622 61.7652 62.9622" stroke="black" stroke-width="1.86598" stroke-linecap="round" stroke-linejoin="round"/>
<path d="M55.1692 62.6081C62.9325 65.4672 73.672 71.4835 77.8062 70.9446C83.7514 70.1696 83.3186 51.8577 76.5855 50.6426C71.6922 49.7596 63.4824 57.1965 55.5123 61.1203C44.9362 55.0544 37.7268 47.7589 33.0115 48.9126C26.1537 50.5905 25.7605 67.8412 33.377 69.3195C37.9674 70.2103 47.6988 66.8106 55.1692 62.6081Z" fill="#2D1F1F"/>
<path d="M55.1692 62.6081C62.9325 65.4672 73.672 71.4835 77.8062 70.9446C83.7514 70.1696 83.3186 51.8577 76.5855 50.6426C71.6921 49.7596 63.4824 57.1965 55.5123 61.1203C44.9362 55.0544 37.7268 47.7589 33.0115 48.9126C26.1537 50.5905 25.7605 67.8412 33.377 69.3195C37.9674 70.2103 47.6988 66.8106 55.1692 62.6081Z" stroke="black" stroke-width="1.86598" stroke-linecap="round" stroke-linejoin="round"/>
<path d="M31.7459 68.4011C33.5011 70.7868 43.0892 68.568 53.2765 64.1066C43.0183 63.3878 29.8904 65.8791 31.7459 68.4011Z" fill="black"/>
<path d="M31.7459 68.4011C33.5011 70.7868 43.0892 68.568 53.2765 64.1066C43.0183 63.3878 29.8904 65.8791 31.7459 68.4011Z" stroke="black" stroke-width="1.86598" stroke-linecap="round" stroke-linejoin="round"/>
<path d="M60.2848 64.4058C71.6359 65.5528 79.385 66.7377 78.9165 70.113C78.448 73.4883 65.7479 67.7987 60.2848 64.4058Z" fill="black"/>
<path d="M60.2848 64.4058C71.6359 65.5528 79.385 66.7377 78.9165 70.113C78.448 73.4883 65.7479 67.7987 60.2848 64.4058Z" stroke="black" stroke-width="1.86598" stroke-linecap="round" stroke-linejoin="round"/>
<path d="M52.9203 58.4603C49.5742 61.5817 51.4661 64.9038 51.8724 66.1396C55.6865 66.9638 60.1224 67.4093 60.1224 67.4093C60.9176 64.1778 58.2109 58.4015 58.2109 58.4015L52.9203 58.4603Z" fill="#2D1F1F"/>
<path d="M52.9203 58.4603C49.5742 61.5817 51.4661 64.9038 51.8724 66.1396C55.6865 66.9638 60.1224 67.4093 60.1224 67.4093C60.9176 64.1778 58.2109 58.4015 58.2109 58.4015L52.9203 58.4603Z" stroke="black" stroke-width="1.86598" stroke-linecap="round" stroke-linejoin="round"/>
<g opacity="0.5">
<g opacity="0.44">
<path d="M29.9805 61.4242C29.1438 57.0853 30.9655 51.2179 33.6479 50.5499C36.3303 49.882 44.9924 56.4084 47.7112 58.0711" stroke="white" stroke-width="1.86598" stroke-linecap="round" stroke-linejoin="round"/>
</g>
<g opacity="0.44">
<path d="M61.8066 59.6604C64.8425 58.0009 74.0805 50.5315 77.181 52.553" stroke="white" stroke-width="1.86598" stroke-linecap="round" stroke-linejoin="round"/>
</g>
</g>
<defs>
<linearGradient id="paint0_linear_59_34103" x1="70.9737" y1="60.04" x2="78.2058" y2="63.6145" gradientUnits="userSpaceOnUse">
<stop stop-color="#1C1C1C"/>
<stop offset="0.5" stop-color="#1C1C1C"/>
<stop offset="1" stop-color="#1C1C1C"/>
</linearGradient>
<linearGradient id="paint1_linear_59_34103" x1="86.0028" y1="38.7103" x2="87.0478" y2="44.2652" gradientUnits="userSpaceOnUse">
<stop stop-color="#505050"/>
<stop offset="0.5" stop-color="#363636"/>
<stop offset="1" stop-color="#1C1C1C"/>
</linearGradient>
<linearGradient id="paint2_linear_59_34103" x1="91.9012" y1="31.1798" x2="95.369" y2="32.8936" gradientUnits="userSpaceOnUse">
<stop stop-color="#505050"/>
<stop offset="0.5" stop-color="#363636"/>
<stop offset="1" stop-color="#1C1C1C"/>
</linearGradient>
<linearGradient id="paint3_linear_59_34103" x1="39.0427" y1="59.9713" x2="32.2949" y2="55.5503" gradientUnits="userSpaceOnUse">
<stop stop-color="#505050"/>
<stop offset="0.5" stop-color="#363636"/>
<stop offset="1" stop-color="#1C1C1C"/>
</linearGradient>
<linearGradient id="paint4_linear_59_34103" x1="21.5492" y1="40.6113" x2="21.1826" y2="34.9709" gradientUnits="userSpaceOnUse">
<stop stop-color="#505050"/>
<stop offset="0.5" stop-color="#363636"/>
<stop offset="1" stop-color="#1C1C1C"/>
</linearGradient>
<linearGradient id="paint5_linear_59_34103" x1="11.2262" y1="36.1796" x2="13.9967" y2="34.2059" gradientUnits="userSpaceOnUse">
<stop stop-color="#505050"/>
<stop offset="0.5" stop-color="#363636"/>
<stop offset="1" stop-color="#1C1C1C"/>
</linearGradient>
<radialGradient id="paint6_radial_59_34103" cx="0" cy="0" r="1" gradientUnits="userSpaceOnUse" gradientTransform="translate(82.0619 5.7709) scale(12.695 12.6894)">
<stop offset="0.49" stop-color="#FF0000"/>
<stop offset="0.67" stop-color="#D00000"/>
<stop offset="0.84" stop-color="#A10000"/>
</radialGradient>
<linearGradient id="paint7_linear_59_34103" x1="75.6632" y1="25.9846" x2="76.0855" y2="0.07365" gradientUnits="userSpaceOnUse">
<stop stop-color="#650000"/>
<stop offset="0.5" stop-color="#830000"/>
<stop offset="1" stop-color="#A10000"/>
</linearGradient>
<linearGradient id="paint8_linear_59_34103" x1="82.6433" y1="7.44437" x2="82.5476" y2="21.2374" gradientUnits="userSpaceOnUse">
<stop stop-color="#584646"/>
<stop offset="0.28" stop-color="#322327"/>
<stop offset="0.56" stop-color="#0D0008"/>
</linearGradient>
<radialGradient id="paint9_radial_59_34103" cx="0" cy="0" r="1" gradientUnits="userSpaceOnUse" gradientTransform="translate(24.3083 2.02172) scale(13.0522 13.0464)">
<stop offset="0.49" stop-color="#FF0000"/>
<stop offset="0.67" stop-color="#D00000"/>
<stop offset="0.84" stop-color="#A10000"/>
</radialGradient>
<linearGradient id="paint10_linear_59_34103" x1="21.8626" y1="27.4677" x2="22.285" y2="-2.15878" gradientUnits="userSpaceOnUse">
<stop stop-color="#650000"/>
<stop offset="0.5" stop-color="#830000"/>
<stop offset="1" stop-color="#A10000"/>
</linearGradient>
<linearGradient id="paint11_linear_59_34103" x1="24.2827" y1="4.84688" x2="27.1591" y2="19.439" gradientUnits="userSpaceOnUse">
<stop stop-color="#584646"/>
<stop offset="0.28" stop-color="#322327"/>
<stop offset="0.56" stop-color="#0D0008"/>
</linearGradient>
<radialGradient id="paint12_radial_59_34103" cx="0" cy="0" r="1" gradientUnits="userSpaceOnUse" gradientTransform="translate(53.6817 69.836) scale(33.4395 33.4395)">
<stop offset="0.49" stop-color="#FF0000"/>
<stop offset="0.67" stop-color="#D00000"/>
<stop offset="0.84" stop-color="#A10000"/>
</radialGradient>
<linearGradient id="paint13_linear_59_34103" x1="48.398" y1="102.69" x2="48.8202" y2="53.2069" gradientUnits="userSpaceOnUse">
<stop stop-color="#560000"/>
<stop offset="0.5" stop-color="#710000"/>
<stop offset="1" stop-color="#8B0000"/>
</linearGradient>
<radialGradient id="paint14_radial_59_34103" cx="0" cy="0" r="1" gradientUnits="userSpaceOnUse" gradientTransform="translate(52.1651 5.18165) scale(55.6201 55.5955)">
<stop offset="0.49" stop-color="#FF0000"/>
<stop offset="0.67" stop-color="#D00000"/>
<stop offset="0.84" stop-color="#A10000"/>
</radialGradient>
<linearGradient id="paint15_linear_59_34103" x1="48.6019" y1="56.9457" x2="49.0244" y2="7.47159" gradientUnits="userSpaceOnUse">
<stop stop-color="#650000"/>
<stop offset="0.5" stop-color="#830000"/>
<stop offset="1" stop-color="#A10000"/>
</linearGradient>
<radialGradient id="paint16_radial_59_34103" cx="0" cy="0" r="1" gradientUnits="userSpaceOnUse" gradientTransform="translate(14.0233 62.4341) scale(16.7166 16.7166)">
<stop offset="0.49" stop-color="#FF0000"/>
<stop offset="0.67" stop-color="#D00000"/>
<stop offset="0.84" stop-color="#A10000"/>
</radialGradient>
<linearGradient id="paint17_linear_59_34103" x1="19.4526" y1="91.2832" x2="19.6357" y2="57.973" gradientUnits="userSpaceOnUse">
<stop stop-color="#650000"/>
<stop offset="0.5" stop-color="#830000"/>
<stop offset="1" stop-color="#A10000"/>
</linearGradient>
<linearGradient id="paint18_linear_59_34103" x1="19.5883" y1="61.1164" x2="25.8648" y2="73.1337" gradientUnits="userSpaceOnUse">
<stop stop-color="#584646"/>
<stop offset="0.28" stop-color="#322327"/>
<stop offset="0.56" stop-color="#0D0008"/>
</linearGradient>
<radialGradient id="paint19_radial_59_34103" cx="0" cy="0" r="1" gradientUnits="userSpaceOnUse" gradientTransform="translate(89.4665 59.9626) scale(18.8071 18.8071)">
<stop offset="0.49" stop-color="#FF0000"/>
<stop offset="0.67" stop-color="#D00000"/>
<stop offset="0.84" stop-color="#A10000"/>
</radialGradient>
<linearGradient id="paint20_linear_59_34103" x1="81.5548" y1="89.153" x2="80.4182" y2="52.4551" gradientUnits="userSpaceOnUse">
<stop stop-color="#650000"/>
<stop offset="0.5" stop-color="#830000"/>
<stop offset="1" stop-color="#A10000"/>
</linearGradient>
<linearGradient id="paint21_linear_59_34103" x1="89.5666" y1="68.091" x2="77.5007" y2="71.9349" gradientUnits="userSpaceOnUse">
<stop stop-color="#584646"/>
<stop offset="0.28" stop-color="#322327"/>
<stop offset="0.56" stop-color="#0D0008"/>
</linearGradient>
<radialGradient id="paint22_radial_59_34103" cx="0" cy="0" r="1" gradientUnits="userSpaceOnUse" gradientTransform="translate(52.1977 5.23832) scale(29.0481 29.0352)">
<stop stop-color="white"/>
<stop offset="0.5" stop-color="white" stop-opacity="0.5"/>
<stop offset="1" stop-color="white" stop-opacity="0"/>
</radialGradient>
<linearGradient id="paint23_linear_59_34103" x1="40.1512" y1="23.7505" x2="39.8107" y2="52.7653" gradientUnits="userSpaceOnUse">
<stop stop-color="#584646"/>
<stop offset="0.28" stop-color="#322327"/>
<stop offset="0.56" stop-color="#0D0008"/>
</linearGradient>
<linearGradient id="paint24_linear_59_34103" x1="68.4375" y1="25.4488" x2="68.7772" y2="53.349" gradientUnits="userSpaceOnUse">
<stop stop-color="#584646"/>
<stop offset="0.28" stop-color="#322327"/>
<stop offset="0.56" stop-color="#0D0008"/>
</linearGradient>
<radialGradient id="paint25_radial_59_34103" cx="0" cy="0" r="1" gradientUnits="userSpaceOnUse" gradientTransform="translate(54.5722 37.0104) scale(17.3279 17.3203)">
<stop offset="0.43" stop-color="#FF0000"/>
<stop offset="0.63" stop-color="#E60000"/>
<stop offset="0.84" stop-color="#CD0000"/>
</radialGradient>
<radialGradient id="paint26_radial_59_34103" cx="0" cy="0" r="1" gradientUnits="userSpaceOnUse" gradientTransform="translate(84.8037 65.3444) scale(33.2235 33.2235)">
<stop offset="0.49" stop-color="#FF4D4D"/>
<stop offset="0.67" stop-color="#C62727"/>
<stop offset="0.84" stop-color="#8D0000"/>
</radialGradient>
<linearGradient id="paint27_linear_59_34103" x1="76.4047" y1="103.543" x2="82.6821" y2="69.9342" gradientUnits="userSpaceOnUse">
<stop stop-color="#560000"/>
<stop offset="0.5" stop-color="#710000"/>
<stop offset="1" stop-color="#8B0000"/>
</linearGradient>
<radialGradient id="paint28_radial_59_34103" cx="0" cy="0" r="1" gradientUnits="userSpaceOnUse" gradientTransform="translate(92.4766 59.6245) scale(44.5809 44.5809)">
<stop offset="0.49" stop-color="#FF0000"/>
<stop offset="0.67" stop-color="#D00000"/>
<stop offset="0.84" stop-color="#A10000"/>
</radialGradient>
<linearGradient id="paint29_linear_59_34103" x1="87.247" y1="110.8" x2="90.2965" y2="66.6774" gradientUnits="userSpaceOnUse">
<stop stop-color="#560000"/>
<stop offset="0.5" stop-color="#710000"/>
<stop offset="1" stop-color="#8B0000"/>
</linearGradient>
<linearGradient id="paint30_linear_59_34103" x1="97.1306" y1="84.5788" x2="96.847" y2="103.168" gradientUnits="userSpaceOnUse">
<stop stop-color="#584646"/>
<stop offset="0.28" stop-color="#322327"/>
<stop offset="0.56" stop-color="#0D0008"/>
</linearGradient>
<radialGradient id="paint31_radial_59_34103" cx="0" cy="0" r="1" gradientUnits="userSpaceOnUse" gradientTransform="translate(93.6629 70.9618) scale(27.0395 27.0395)">
<stop stop-color="white"/>
<stop offset="0.5" stop-color="white" stop-opacity="0.5"/>
<stop offset="1" stop-color="white" stop-opacity="0"/>
</radialGradient>
<radialGradient id="paint32_radial_59_34103" cx="0" cy="0" r="1" gradientUnits="userSpaceOnUse" gradientTransform="translate(21.7521 72.3056) scale(29.3757)">
<stop offset="0.49" stop-color="#FF4D4D"/>
<stop offset="0.67" stop-color="#C62727"/>
<stop offset="0.84" stop-color="#8D0000"/>
</radialGradient>
<linearGradient id="paint33_linear_59_34103" x1="30.7975" y1="102.604" x2="21.5763" y2="80.2152" gradientUnits="userSpaceOnUse">
<stop stop-color="#560000"/>
<stop offset="0.5" stop-color="#710000"/>
<stop offset="1" stop-color="#8B0000"/>
</linearGradient>
<radialGradient id="paint34_radial_59_34103" cx="0" cy="0" r="1" gradientUnits="userSpaceOnUse" gradientTransform="translate(2.07172 68.7135) scale(35.5284 35.5283)">
<stop offset="0.49" stop-color="#FF0000"/>
<stop offset="0.67" stop-color="#D00000"/>
<stop offset="0.84" stop-color="#A10000"/>
</radialGradient>
<linearGradient id="paint35_linear_59_34103" x1="21.6754" y1="107.597" x2="8.35306" y2="76.3253" gradientUnits="userSpaceOnUse">
<stop stop-color="#560000"/>
<stop offset="0.5" stop-color="#710000"/>
<stop offset="1" stop-color="#8B0000"/>
</linearGradient>
<linearGradient id="paint36_linear_59_34103" x1="12.3535" y1="81.62" x2="12.3535" y2="105.697" gradientUnits="userSpaceOnUse">
<stop stop-color="#584646"/>
<stop offset="0.28" stop-color="#322327"/>
<stop offset="0.56" stop-color="#0D0008"/>
</linearGradient>
<radialGradient id="paint37_radial_59_34103" cx="0" cy="0" r="1" gradientUnits="userSpaceOnUse" gradientTransform="translate(10.7947 74.683) scale(28.556 28.556)">
<stop stop-color="white"/>
<stop offset="0.5" stop-color="white" stop-opacity="0.5"/>
<stop offset="1" stop-color="white" stop-opacity="0"/>
</radialGradient>
</defs>
</svg>
