<svg width="103" height="72" viewBox="0 0 103 72" fill="none" xmlns="http://www.w3.org/2000/svg">
<path d="M101.254 48.9536C92.9532 49.0222 77.517 52.4521 51.127 62.1248C28.7471 70.3279 1.2854 70.3708 1.18433 57.4018C1.17593 56.3146 1.07003 55.8901 1.06646 55.4299C0.917471 36.4211 30.7573 30.0425 51.1275 30.0428C72.127 30.0431 86.6366 37.5292 95.0544 43.7193C97.7342 45.6898 99.7964 47.5289 101.254 48.9536Z" fill="url(#paint0_linear_59_33387)"/>
<path d="M101.254 48.9537C92.9532 49.0222 77.517 52.4521 51.127 62.1248C28.7471 70.3279 1.2854 70.3708 1.18433 57.4018C1.17593 56.3146 1.07003 55.8901 1.06646 55.4299C0.917471 36.4211 30.7573 30.0425 51.1275 30.0428C72.127 30.0431 86.6366 37.5292 95.0544 43.7193C97.7342 45.6898 99.7964 47.5289 101.254 48.9537Z" stroke="#901C1C" stroke-width="1.26325" stroke-linecap="round" stroke-linejoin="round"/>
<path d="M19.655 12.7455C10.9311 23.8924 17.0909 35.7468 12.1023 57.2401C12.1021 70.3683 90.1521 61.0816 90.1523 47.9552C87.8055 29.9121 89.2931 25.1063 83.5162 13.0897C75.1874 -4.23459 30.9369 -1.67008 19.655 12.7455Z" fill="url(#paint1_linear_59_33387)"/>
<path d="M19.655 12.7455C10.9311 23.8924 17.0909 35.7467 12.1023 57.2401C12.1021 70.3683 90.1521 61.0816 90.1523 47.9552C87.8055 29.9121 89.2931 25.1063 83.5162 13.0897C75.1874 -4.23459 30.9369 -1.67008 19.655 12.7455Z" stroke="url(#paint2_linear_59_33387)" stroke-width="1.37315" stroke-linecap="round" stroke-linejoin="round"/>
<path d="M14.092 37.017C13.3917 47.9054 12.1023 55.5433 12.1023 57.24C12.1021 70.3682 90.1521 61.0815 90.1523 47.9551C90.1523 46.2584 89.3187 39.3009 88.7282 30.9987C82.7126 48.0646 15.7697 52.1609 14.092 37.017Z" fill="url(#paint3_linear_59_33387)"/>
<path d="M14.092 37.017C13.3917 47.9054 12.1023 55.5433 12.1023 57.24C12.1021 70.3682 90.1521 61.0815 90.1523 47.9551C90.1523 46.2584 89.3187 39.3009 88.7282 30.9987C82.7126 48.0646 15.7697 52.161 14.092 37.017Z" stroke="url(#paint4_linear_59_33387)" stroke-width="1.37315" stroke-linecap="round" stroke-linejoin="round"/>
<path d="M20.6638 13.943C12.9143 23.0454 18.168 37.1354 13.2957 57.2195" stroke="url(#paint5_linear_59_33387)" stroke-width="1.37315" stroke-linecap="round" stroke-linejoin="round"/>
<path d="M69.9783 44.7589C66.3549 43.835 60.0535 44.0035 56.4493 45.2281C52.2044 46.6702 54.4906 48.2846 58.8319 47.5159C63.1732 46.7473 67.2195 45.2639 69.9783 44.7589Z" fill="#051521"/>
<path d="M69.9783 44.7589C66.3549 43.835 60.0535 44.0035 56.4493 45.2281C52.2044 46.6702 54.4906 48.2846 58.8319 47.5159C63.1732 46.7473 67.2195 45.2639 69.9783 44.7589Z" stroke="black" stroke-width="1.37315" stroke-linecap="round" stroke-linejoin="round"/>
<path d="M70.151 44.6784C73.3971 42.5233 77.3038 42.3392 80.3663 41.2989C83.973 40.0734 82.0971 39.1504 78.4085 39.8035C74.7199 40.4566 71.4395 42.5606 70.151 44.6784Z" fill="#051521"/>
<path d="M70.151 44.6784C73.3971 42.5233 77.3038 42.3392 80.3663 41.2989C83.973 40.0734 82.0971 39.1504 78.4085 39.8035C74.7199 40.4566 71.4395 42.5606 70.151 44.6784Z" stroke="black" stroke-width="1.37315" stroke-linecap="round" stroke-linejoin="round"/>
<path d="M82.3011 40.0521C82.3011 40.0521 83.6403 52.8412 83.4479 53.3217C82.881 54.7367 76.8137 56.166 71.6632 55.5091C69.5865 59.5238 56.9299 62.9234 55.9143 61.7936C54.8987 60.6637 54.6031 51.9205 54.2174 47.1737C57.3418 48.748 65.1713 45.0712 70.1511 44.6783C74.4043 41.9676 82.8693 41.9984 82.3011 40.0521Z" fill="url(#paint6_linear_59_33387)"/>
<path d="M82.3011 40.0521C82.3011 40.0521 83.6403 52.8412 83.4479 53.3217C82.881 54.7367 76.8137 56.166 71.6632 55.5091C69.5865 59.5238 56.9299 62.9234 55.9143 61.7936C54.8987 60.6637 54.6031 51.9205 54.2174 47.1737C57.3418 48.748 65.1713 45.0712 70.1511 44.6783C74.4043 41.9676 82.8693 41.9984 82.3011 40.0521Z" stroke="black" stroke-width="1.37315" stroke-linecap="round" stroke-linejoin="round"/>
<path d="M70.151 44.6783C67.7703 45.7831 68.6109 56.835 71.6631 55.5091C74.7153 54.1832 72.9767 43.367 70.151 44.6783Z" fill="url(#paint7_linear_59_33387)"/>
<path d="M70.151 44.6783C67.7703 45.7831 68.6109 56.835 71.6631 55.5091C74.7153 54.1832 72.9767 43.367 70.151 44.6783Z" stroke="black" stroke-width="1.37315" stroke-linecap="round" stroke-linejoin="round"/>
<path d="M101.254 48.9537C92.61 48.6563 77.5718 52.054 51.1271 61.576C21.6443 72.1919 2.30897 67.1923 1.07135 56.4041C1.02925 56.038 1.00821 55.6653 1.00821 55.2861C1.0082 56.087 1.00017 57.6792 1.00017 57.8707C1.00017 58.1381 1.01006 58.4013 1.02942 58.6603C2.0434 72.1453 29.1686 74.1301 51.127 66.0816C77.517 56.4088 92.9531 52.9787 101.254 52.9102C102.06 52.298 102.42 50.0515 101.254 48.9537Z" fill="url(#paint8_linear_59_33387)"/>
<path d="M101.254 48.9537C92.61 48.6563 77.5718 52.054 51.1271 61.576C21.6443 72.1919 2.30897 67.1923 1.07135 56.4041C1.02925 56.038 1.00821 55.6653 1.00821 55.2861C1.0082 56.087 1.00017 57.6792 1.00017 57.8707C1.00017 58.1381 1.01006 58.4013 1.02942 58.6603C2.0434 72.1453 29.1686 74.1301 51.127 66.0816C77.517 56.4088 92.9532 52.9787 101.254 52.9102C102.06 52.298 102.42 50.0515 101.254 48.9537Z" stroke="black" stroke-width="1.26325" stroke-linecap="round" stroke-linejoin="round"/>
<path d="M101.254 48.9537C92.6101 48.6563 77.5718 52.054 51.1271 61.576C21.6443 72.1919 2.30902 67.1923 1.07141 56.4041C1.02931 56.038 1.00826 55.6653 1.00827 55.2861" stroke="url(#paint9_radial_59_33387)" stroke-opacity="0.66" stroke-width="1.26325" stroke-linecap="round" stroke-linejoin="round"/>
<path d="M101.254 50.3657C92.6101 50.0683 77.5718 53.4662 51.1271 62.9883C21.3872 73.6968 1.97237 68.5159 1.0432 57.5326C1.02005 57.258 1.00826 56.9799 1.00827 56.6982" stroke="url(#paint10_linear_59_33387)" stroke-opacity="0.77" stroke-width="1.89488" stroke-linecap="round" stroke-linejoin="round"/>
<defs>
<linearGradient id="paint0_linear_59_33387" x1="38.2362" y1="29" x2="57.1217" y2="65.0708" gradientUnits="userSpaceOnUse">
<stop/>
<stop offset="0.15" stop-color="#300000"/>
<stop offset="0.3" stop-color="#600000"/>
<stop offset="0.65" stop-color="#891B1B"/>
<stop offset="1" stop-color="#B23636"/>
</linearGradient>
<linearGradient id="paint1_linear_59_33387" x1="11.9419" y1="25.4484" x2="89.992" y2="25.4496" gradientUnits="userSpaceOnUse">
<stop stop-color="#C44242"/>
<stop offset="0.25" stop-color="#902121"/>
<stop offset="0.5" stop-color="#5C0000"/>
<stop offset="0.6" stop-color="#380311"/>
<stop offset="0.7" stop-color="#150521"/>
<stop offset="0.85" stop-color="#5B1C48"/>
<stop offset="1" stop-color="#A1326F"/>
</linearGradient>
<linearGradient id="paint2_linear_59_33387" x1="19.5464" y1="25.3295" x2="81.4504" y2="26.1314" gradientUnits="userSpaceOnUse">
<stop stop-color="#863737"/>
<stop offset="0.08" stop-color="#7B1C23"/>
<stop offset="0.15" stop-color="#70000E"/>
<stop offset="0.57" stop-color="#380007"/>
<stop offset="1"/>
</linearGradient>
<linearGradient id="paint3_linear_59_33387" x1="11.9415" y1="47.1891" x2="88.8542" y2="47.1903" gradientUnits="userSpaceOnUse">
<stop stop-color="#627D89"/>
<stop offset="0.33" stop-color="#313E45"/>
<stop offset="0.66"/>
<stop offset="0.73" stop-color="#030A11"/>
<stop offset="0.8" stop-color="#051521"/>
<stop offset="0.9" stop-color="#192C40"/>
<stop offset="1" stop-color="#2E4360"/>
</linearGradient>
<linearGradient id="paint4_linear_59_33387" x1="11.255" y1="47.1891" x2="90.6782" y2="47.1903" gradientUnits="userSpaceOnUse">
<stop stop-color="#27434E"/>
<stop offset="0.33" stop-color="#132227"/>
<stop offset="0.66"/>
<stop offset="0.83" stop-color="#17162D"/>
<stop offset="1" stop-color="#2F2D5A"/>
</linearGradient>
<linearGradient id="paint5_linear_59_33387" x1="1.18623" y1="3.93627" x2="25.8895" y2="51.1192" gradientUnits="userSpaceOnUse">
<stop stop-color="white" stop-opacity="0"/>
<stop offset="0.15" stop-color="white" stop-opacity="0.15"/>
<stop offset="0.3" stop-color="white" stop-opacity="0.3"/>
<stop offset="0.5" stop-color="white" stop-opacity="0.3"/>
<stop offset="0.7" stop-color="white" stop-opacity="0.3"/>
<stop offset="0.85" stop-color="white" stop-opacity="0.15"/>
<stop offset="1" stop-color="white" stop-opacity="0"/>
</linearGradient>
<linearGradient id="paint6_linear_59_33387" x1="54.3933" y1="49.7071" x2="83.7859" y2="49.7075" gradientUnits="userSpaceOnUse">
<stop stop-color="#2D3C45"/>
<stop offset="0.35" stop-color="#192933"/>
<stop offset="0.7" stop-color="#051521"/>
<stop offset="0.85" stop-color="#272E46"/>
<stop offset="1" stop-color="#49486B"/>
</linearGradient>
<linearGradient id="paint7_linear_59_33387" x1="69.0397" y1="48.7919" x2="73.5526" y2="48.7919" gradientUnits="userSpaceOnUse">
<stop stop-color="#54627D"/>
<stop offset="0.35" stop-color="#2D3B4F"/>
<stop offset="0.7" stop-color="#051521"/>
<stop offset="0.85" stop-color="#272E46"/>
<stop offset="1" stop-color="#49486B"/>
</linearGradient>
<linearGradient id="paint8_linear_59_33387" x1="0.969823" y1="59.7385" x2="101.97" y2="59.74" gradientUnits="userSpaceOnUse">
<stop stop-color="#FF0202"/>
<stop offset="0.25" stop-color="#AB0101"/>
<stop offset="0.5" stop-color="#580000"/>
<stop offset="0.6" stop-color="#5D0000"/>
<stop offset="0.7" stop-color="#620000"/>
<stop offset="0.85" stop-color="#851818"/>
<stop offset="1" stop-color="#A93030"/>
</linearGradient>
<radialGradient id="paint9_radial_59_33387" cx="0" cy="0" r="1" gradientUnits="userSpaceOnUse" gradientTransform="translate(58.1336 59.2528) scale(31.461 31.461)">
<stop stop-color="white"/>
<stop offset="0.5" stop-color="white" stop-opacity="0.5"/>
<stop offset="1" stop-color="white" stop-opacity="0"/>
</radialGradient>
<linearGradient id="paint10_linear_59_33387" x1="4.05479" y1="58.5049" x2="86.5821" y2="57.6518" gradientUnits="userSpaceOnUse">
<stop stop-color="white" stop-opacity="0"/>
<stop offset="0.35" stop-color="white" stop-opacity="0.3"/>
<stop offset="0.7" stop-color="white" stop-opacity="0.6"/>
<stop offset="0.85" stop-color="white" stop-opacity="0.3"/>
<stop offset="1" stop-color="white" stop-opacity="0"/>
</linearGradient>
</defs>
</svg>
