<svg width="90" height="103" viewBox="0 0 90 103" fill="none" xmlns="http://www.w3.org/2000/svg">
<path d="M37.2921 24.439C19.6361 32.7692 5.39845 51.1859 5.55921 65.4322C5.71857 79.5601 19.9992 84.1621 37.3908 75.8486C54.7096 67.5699 68.779 49.5025 68.8821 35.3577C68.986 21.0951 54.8732 16.1441 37.2921 24.439ZM51.471 40.3443C69.0934 31.9819 83.1905 36.8718 83.0272 51.1262C82.865 65.2625 68.716 83.3762 51.3573 91.7214C33.9252 100.102 19.658 95.5624 19.5564 81.4441C19.4539 67.207 33.7731 48.7426 51.471 40.3443Z" fill="url(#paint0_radial_59_34630)"/>
<mask id="mask0_59_34630" style="mask-type:luminance" maskUnits="userSpaceOnUse" x="5" y="20" width="79" height="76">
<path d="M37.2921 24.439C19.6361 32.7692 5.39845 51.1859 5.55921 65.4322C5.71857 79.5601 19.9992 84.1621 37.3908 75.8486C54.7096 67.5699 68.779 49.5025 68.8821 35.3577C68.986 21.0951 54.8732 16.1441 37.2921 24.439ZM51.471 40.3443C69.0934 31.9819 83.1905 36.8718 83.0272 51.1262C82.865 65.2625 68.716 83.3762 51.3573 91.7214C33.9252 100.102 19.658 95.5624 19.5564 81.4441C19.4539 67.207 33.7731 48.7426 51.471 40.3443Z" fill="url(#paint1_linear_59_34630)"/>
</mask>
<g mask="url(#mask0_59_34630)">
<path d="M37.2921 24.439C19.6361 32.7692 5.39845 51.1859 5.55921 65.4322C5.71857 79.5601 19.9992 84.1621 37.3908 75.8486C54.7096 67.5699 68.779 49.5025 68.8821 35.3577C68.986 21.0951 54.8732 16.1441 37.2921 24.439ZM51.471 40.3443C69.0934 31.9819 83.1905 36.8718 83.0272 51.1262C82.865 65.2625 68.716 83.3762 51.3573 91.7214C33.9252 100.102 19.658 95.5624 19.5564 81.4441C19.4539 67.207 33.7731 48.7426 51.471 40.3443Z" fill="url(#paint2_linear_59_34630)"/>
</g>
<path d="M37.2921 24.439C19.6361 32.7692 5.39845 51.1859 5.55921 65.4322C5.71857 79.5601 19.9992 84.1621 37.3908 75.8486C54.7096 67.5699 68.779 49.5025 68.8821 35.3577C68.986 21.0951 54.8732 16.1441 37.2921 24.439ZM51.471 40.3443C69.0934 31.9819 83.1905 36.8718 83.0272 51.1262C82.865 65.2625 68.716 83.3762 51.3573 91.7214C33.9252 100.102 19.658 95.5624 19.5564 81.4441C19.4539 67.207 33.7731 48.7426 51.471 40.3443Z" stroke="url(#paint3_radial_59_34630)" stroke-width="1.64526" stroke-linecap="round" stroke-linejoin="round"/>
<mask id="mask1_59_34630" style="mask-type:luminance" maskUnits="userSpaceOnUse" x="5" y="21" width="65" height="61">
<path d="M37.5272 25.8492C19.8711 34.1794 5.63349 52.596 5.79426 66.8424C5.95361 80.9702 20.2343 85.5723 37.6259 77.2588C54.9446 68.98 69.014 50.9127 69.1172 36.7679C69.2211 22.5053 55.1082 17.5542 37.5272 25.8492Z" fill="black" stroke="url(#paint4_radial_59_34630)" stroke-width="0.940151" stroke-linecap="round" stroke-linejoin="round"/>
</mask>
<g mask="url(#mask1_59_34630)">
<path d="M37.5272 25.8492C19.8711 34.1794 5.63349 52.596 5.79426 66.8424C5.95361 80.9702 20.2343 85.5723 37.6259 77.2588C54.9446 68.98 69.014 50.9127 69.1172 36.7679C69.2211 22.5053 55.1082 17.5542 37.5272 25.8492Z" stroke="url(#paint5_radial_59_34630)" stroke-width="0.940151" stroke-linecap="round" stroke-linejoin="round"/>
</g>
<path d="M63.8587 21.4513C63.8547 21.4607 49.5085 5.69531 49.5085 5.69531C49.5085 5.69531 63.8669 11.3007 69.6374 16.1973C85.2605 29.4543 88.6206 40.9919 88.5527 48.4875C88.7215 35.5811 77.8411 21.6386 63.8587 21.4513Z" fill="url(#paint6_radial_59_34630)"/>
<path d="M22.6539 18.293C22.6539 18.293 36.7823 34.2645 36.7332 34.2901C27.9113 45.6718 16.641 70.6514 16.641 83.5409C16.641 91.3867 20.8627 96.4327 23.348 99.243C15.3367 97.2628 6.1557 86.9416 3.50518 80.4179C1.54661 75.5973 0.646883 70.2786 1.12707 64.7106C3.52022 36.9637 22.6539 18.293 22.6539 18.293Z" fill="url(#paint7_radial_59_34630)"/>
<path d="M29.082 25.6075C31.6721 29.1025 27.0889 40.2668 26.3039 47.2591M2.75779 74.3778C4.42891 85.2788 15.0056 94.6803 17.49 95.6769M1.93516 62.7434C1.35226 79.7531 10.5399 90.3321 15.4921 90.6235M6.29981 43.3128C3.4676 57.1895 1.82234 76.6976 13.6048 83.4761C14.2793 86.9217 13.9597 87.4435 14.1289 88.7291C3.4676 82.456 -0.52804 65.2983 4.81672 48.7281C5.12227 46.8055 6.29981 43.3128 6.29981 43.3128ZM19.6523 21.3979C19.6523 21.3979 19.382 23.2947 17.6709 24.2255C25.0911 31.2178 17.2761 46.0839 19.8826 59.6009C20.0002 58.3082 21.3892 56.6606 22.8371 53.8989C23.2695 34.097 28.7342 26.282 19.6523 21.3979ZM14.0678 35.3169C15.337 38.8565 12.9866 71.0567 11.9619 71.9404C5.3479 67.2961 10.7538 36.0361 14.0678 35.3169ZM15.8729 27.6053C8.31643 33.7891 0.294591 70.1165 14.0819 79.5768C16.5122 67.7661 19.2151 24.8718 15.8729 27.6053Z" stroke="url(#paint8_radial_59_34630)" stroke-width="1.17519" stroke-linecap="round" stroke-linejoin="round"/>
<path d="M6.29978 43.3131C3.46734 57.1888 1.82207 76.6969 13.6055 83.4759C14.2791 86.921 13.959 87.4424 14.1287 88.7292C3.46734 82.4556 -0.528538 65.2978 4.81598 48.7277C5.12247 46.8048 6.29978 43.3131 6.29978 43.3131ZM19.6511 21.3989C19.6511 21.3989 19.381 23.2959 17.6707 24.2264C25.0908 31.2172 17.2756 46.0835 19.8814 59.601C19.999 58.3083 21.389 56.6602 22.8368 53.8994C23.2693 34.0966 28.7337 26.2814 19.6511 21.3989ZM14.0682 35.3178C15.3367 38.8559 12.9864 71.056 11.9623 71.94C5.34764 67.2954 10.7535 36.0354 14.0682 35.3178ZM15.8738 27.6049C8.3157 33.7894 0.294329 70.1161 14.0816 79.5773C16.5119 67.7657 19.2146 24.8711 15.8738 27.6049Z" fill="url(#paint9_radial_59_34630)"/>
<path d="M63.4981 18.7724C66.798 21.8044 67.4749 20.3048 71.7455 22.8762M85.4247 53.8188C85.782 56.322 83.8641 64.7575 82.1906 66.5297M85.5493 49.5388C85.4576 58.4796 84.8465 60.4798 84.7008 61.5257M85.5564 44.0154C85.5282 53.3441 85.1779 53.612 85.2297 55.7367C85.1803 58.5854 84.8865 58.3222 84.8747 59.2035C84.6491 56.322 85.5634 57.0083 85.5681 47.132C85.5611 45.7876 85.5564 44.0154 85.5564 44.0154ZM60.184 13.4253C60.184 13.4253 61.8528 14.1986 63.1502 14.4101C64.5064 16.046 74.0254 19.8653 77.0809 24.3381C76.3476 23.9479 73.8209 22.949 73.3838 22.8127C66.3279 18.1025 62.9786 15.9872 60.184 13.4253ZM70.3212 19.3341C74.7211 22.3027 84.7314 27.8683 87.1194 45.2024C87.07 36.4942 78.6674 24.2723 70.3212 19.3341ZM67.1905 17.106C76.5168 22.4625 91.9752 35.4671 86.7057 53.8118C92.4829 32.4234 63.4487 14.9554 67.1905 17.106Z" stroke="url(#paint10_radial_59_34630)" stroke-width="1.17519" stroke-linecap="round" stroke-linejoin="round"/>
<path d="M85.5569 44.0149C85.5292 53.3452 85.178 53.612 85.2288 55.7381C85.1806 58.5847 84.8863 58.3233 84.8748 59.2042C84.6485 56.3215 85.563 57.0092 85.5682 47.1327C85.5609 45.7878 85.5569 44.0149 85.5569 44.0149ZM60.1853 13.4248C60.1853 13.4248 61.8522 14.1976 63.1503 14.4098C64.5069 16.0455 74.0262 19.8648 77.0814 24.3374C76.3472 23.9486 73.8203 22.9497 73.3831 22.8129C66.3285 18.1021 62.9794 15.9867 60.1853 13.4248ZM70.3213 19.3346C74.7217 22.3029 84.7319 27.8674 87.1197 45.2023C87.0708 36.4935 78.6679 24.2716 70.3213 19.3346ZM67.1913 17.1062C76.5176 22.4639 91.9758 35.4669 86.7067 53.8115C92.4828 32.4241 63.4483 14.9558 67.1913 17.1062Z" fill="url(#paint11_radial_59_34630)"/>
<g opacity="0.5">
<mask id="mask2_59_34630" style="mask-type:luminance" maskUnits="userSpaceOnUse" x="48" y="7" width="42" height="45">
<path d="M63.8587 23.8014C63.8547 23.8108 49.5085 8.04541 49.5085 8.04541C49.5085 8.04541 63.8669 13.6508 69.6374 18.5474C85.2605 31.8044 88.6206 43.342 88.5527 50.8376C88.7215 37.9312 77.8411 23.9887 63.8587 23.8014Z" fill="black" stroke="url(#paint12_radial_59_34630)" stroke-width="1.41023" stroke-linecap="round" stroke-linejoin="round"/>
</mask>
<g mask="url(#mask2_59_34630)">
<path d="M63.8587 23.8014C63.8547 23.8108 49.5085 8.04541 49.5085 8.04541C49.5085 8.04541 63.8669 13.6508 69.6374 18.5474C85.2605 31.8044 88.6206 43.342 88.5527 50.8376C88.7215 37.9312 77.8411 23.9887 63.8587 23.8014Z" stroke="url(#paint13_radial_59_34630)" stroke-width="1.41023" stroke-linecap="round" stroke-linejoin="round"/>
</g>
</g>
<path d="M63.8587 21.4513C63.8547 21.4607 49.5085 5.69531 49.5085 5.69531C49.5085 5.69531 63.8669 11.3007 69.6374 16.1973C85.2605 29.4543 88.6206 40.9919 88.5527 48.4875C88.7215 35.5811 77.8411 21.6386 63.8587 21.4513Z" stroke="url(#paint14_radial_59_34630)" stroke-width="1.64526" stroke-linecap="round" stroke-linejoin="round"/>
<g opacity="0.5">
<mask id="mask3_59_34630" style="mask-type:luminance" maskUnits="userSpaceOnUse" x="0" y="19" width="38" height="84">
<path d="M22.6539 20.6436C22.6539 20.6436 36.7823 36.6151 36.7332 36.6407C27.9113 48.0224 16.641 73.002 16.641 85.8914C16.641 93.7372 20.8627 98.7833 23.348 101.594C15.3367 99.6134 6.1557 89.2922 3.50518 82.7685C1.54661 77.9479 0.646883 72.6292 1.12707 67.0612C3.52022 39.3142 22.6539 20.6436 22.6539 20.6436Z" fill="black" stroke="url(#paint15_radial_59_34630)" stroke-width="1.41023" stroke-linecap="round" stroke-linejoin="round"/>
</mask>
<g mask="url(#mask3_59_34630)">
<path d="M22.6539 20.6436C22.6539 20.6436 36.7823 36.6151 36.7332 36.6407C27.9113 48.0224 16.641 73.002 16.641 85.8914C16.641 93.7372 20.8627 98.7833 23.348 101.594C15.3367 99.6134 6.1557 89.2922 3.50518 82.7685C1.54661 77.9479 0.646883 72.6292 1.12707 67.0612C3.52022 39.3142 22.6539 20.6436 22.6539 20.6436Z" stroke="url(#paint16_radial_59_34630)" stroke-width="1.41023" stroke-linecap="round" stroke-linejoin="round"/>
</g>
</g>
<g opacity="0.5">
<mask id="mask4_59_34630" style="mask-type:luminance" maskUnits="userSpaceOnUse" x="1" y="16" width="38" height="84">
<path d="M23.3591 17.4702C23.3591 17.4702 37.4874 33.4417 37.4383 33.4674C28.6164 44.8491 17.3461 69.8286 17.3461 82.7181C17.3461 90.5639 21.5679 95.6099 24.0531 98.4203C16.0419 96.4401 6.86084 86.1189 4.21032 79.5952C2.25175 74.7745 1.35202 69.4559 1.8322 63.8878C4.22536 36.1409 23.3591 17.4702 23.3591 17.4702Z" fill="black" stroke="url(#paint17_radial_59_34630)" stroke-width="1.41023" stroke-linecap="round" stroke-linejoin="round"/>
</mask>
<g mask="url(#mask4_59_34630)">
<path d="M23.3591 17.4702C23.3591 17.4702 37.4874 33.4417 37.4383 33.4674C28.6164 44.8491 17.3461 69.8286 17.3461 82.7181C17.3461 90.5639 21.5679 95.6099 24.0531 98.4203C16.0419 96.4401 6.86084 86.1189 4.21032 79.5952C2.25175 74.7745 1.35202 69.4559 1.8322 63.8878C4.22536 36.1409 23.3591 17.4702 23.3591 17.4702Z" stroke="url(#paint18_radial_59_34630)" stroke-opacity="0.75" stroke-width="1.41023" stroke-linecap="round" stroke-linejoin="round"/>
</g>
</g>
<path d="M22.6539 18.293C22.6539 18.293 36.7823 34.2645 36.7332 34.2901C27.9113 45.6718 16.641 70.6514 16.641 83.5409C16.641 91.3867 20.8627 96.4327 23.348 99.243C15.3367 97.2628 6.1557 86.9416 3.50518 80.4179C1.54661 75.5973 0.646883 70.2786 1.12707 64.7106C3.52022 36.9637 22.6539 18.293 22.6539 18.293Z" stroke="url(#paint19_radial_59_34630)" stroke-width="1.64526" stroke-linecap="round" stroke-linejoin="round"/>
<path d="M51.1259 36.3248C36.4901 42.616 25.9743 56.5298 25.9743 56.5298C25.9743 56.5298 32.2193 37.712 50.7449 29.173C69.5129 20.5225 76.7479 33.3391 76.7479 33.3391C76.7479 33.3391 65.3918 30.1926 51.1259 36.3248Z" fill="url(#paint20_radial_59_34630)"/>
<path d="M63.8587 21.4507C63.8547 21.4601 36.7823 34.2638 36.7332 34.2894C22.5787 47.8388 13.8238 71.2387 13.9381 84.1277C14.085 100.711 30.8742 106.011 51.3474 96.1577C71.7195 86.3528 88.3355 65.0946 88.5527 48.4868C88.7214 35.5804 77.8411 21.638 63.8587 21.4507ZM51.126 36.3246C36.4902 42.6158 25.9743 56.5296 25.9743 56.5296C25.9743 56.5296 32.2193 37.7118 50.745 29.1728C69.513 20.5223 76.7479 33.3389 76.7479 33.3389C76.7479 33.3389 65.3918 30.1924 51.126 36.3246ZM51.471 40.3442C69.0934 31.9818 83.1905 36.8717 83.0272 51.1261C82.865 65.2624 68.716 83.3761 51.3572 91.7213C33.9252 100.102 19.6579 95.5623 19.5564 81.4441C19.4539 67.2069 33.7731 48.7426 51.471 40.3442Z" fill="url(#paint21_linear_59_34630)"/>
<path d="M63.8587 21.4507C63.8547 21.4601 36.7823 34.2638 36.7332 34.2894C22.5787 47.8388 13.8238 71.2387 13.9381 84.1277C14.085 100.711 30.8742 106.011 51.3474 96.1577C71.7195 86.3528 88.3355 65.0946 88.5527 48.4868C88.7214 35.5804 77.8411 21.638 63.8587 21.4507ZM51.126 36.3246C36.4902 42.6158 25.9743 56.5296 25.9743 56.5296C25.9743 56.5296 32.2193 37.7118 50.745 29.1728C69.513 20.5223 76.7479 33.3389 76.7479 33.3389C76.7479 33.3389 65.3918 30.1924 51.126 36.3246ZM51.471 40.3442C69.0934 31.9818 83.1905 36.8717 83.0272 51.1261C82.865 65.2624 68.716 83.3761 51.3572 91.7213C33.9252 100.102 19.6579 95.5623 19.5564 81.4441C19.4539 67.2069 33.7731 48.7426 51.471 40.3442Z" fill="url(#paint22_linear_59_34630)" fill-opacity="0.75"/>
<path d="M63.8587 21.4507C63.8547 21.4601 36.7823 34.2638 36.7332 34.2894C22.5787 47.8388 13.8238 71.2387 13.9381 84.1277C14.085 100.711 30.8742 106.011 51.3474 96.1577C71.7195 86.3528 88.3355 65.0946 88.5527 48.4868C88.7214 35.5804 77.8411 21.638 63.8587 21.4507ZM51.126 36.3246C36.4902 42.6158 25.9743 56.5296 25.9743 56.5296C25.9743 56.5296 32.2193 37.7118 50.745 29.1728C69.513 20.5223 76.7479 33.3389 76.7479 33.3389C76.7479 33.3389 65.3918 30.1924 51.126 36.3246ZM51.471 40.3442C69.0934 31.9818 83.1905 36.8717 83.0272 51.1261C82.865 65.2624 68.716 83.3761 51.3572 91.7213C33.9252 100.102 19.6579 95.5623 19.5564 81.4441C19.4539 67.2069 33.7731 48.7426 51.471 40.3442Z" stroke="url(#paint23_linear_59_34630)" stroke-width="1.64526" stroke-linecap="round" stroke-linejoin="round"/>
<path d="M63.8587 21.4507C63.8547 21.4601 36.7823 34.2638 36.7332 34.2894C22.5787 47.8388 13.8238 71.2387 13.9381 84.1277C14.085 100.711 30.8742 106.011 51.3474 96.1577C71.7195 86.3528 88.3355 65.0946 88.5527 48.4868C88.7214 35.5804 77.8411 21.638 63.8587 21.4507ZM51.126 36.3246C36.4902 42.6158 25.9743 56.5296 25.9743 56.5296C25.9743 56.5296 32.2193 37.7118 50.745 29.1728C69.513 20.5223 76.7479 33.3389 76.7479 33.3389C76.7479 33.3389 65.3918 30.1924 51.126 36.3246ZM51.471 40.3442C69.0934 31.9818 83.1905 36.8717 83.0272 51.1261C82.865 65.2624 68.716 83.3761 51.3572 91.7213C33.9252 100.102 19.6579 95.5623 19.5564 81.4441C19.4539 67.2069 33.7731 48.7426 51.471 40.3442Z" stroke="url(#paint24_linear_59_34630)" stroke-opacity="0.5" stroke-width="1.64526" stroke-linecap="round" stroke-linejoin="round"/>
<mask id="mask5_59_34630" style="mask-type:luminance" maskUnits="userSpaceOnUse" x="19" y="36" width="65" height="62">
<path d="M51.471 41.5197C69.0934 33.1573 83.1905 38.0473 83.0272 52.3016C82.865 66.438 68.716 84.5516 51.3572 92.8969C33.9252 101.277 19.6579 96.7378 19.5564 82.6196C19.4539 68.3824 33.7731 49.9181 51.471 41.5197Z" fill="black" stroke="url(#paint25_linear_59_34630)" stroke-width="0.940151" stroke-linecap="round" stroke-linejoin="round"/>
</mask>
<g mask="url(#mask5_59_34630)">
<path d="M51.471 41.5197C69.0934 33.1573 83.1905 38.0473 83.0272 52.3016C82.865 66.438 68.716 84.5516 51.3572 92.8969C33.9252 101.277 19.6579 96.7378 19.5564 82.6196C19.4539 68.3824 33.7731 49.9181 51.471 41.5197Z" stroke="url(#paint26_linear_59_34630)" stroke-width="0.940151" stroke-linecap="round" stroke-linejoin="round"/>
</g>
<mask id="mask6_59_34630" style="mask-type:luminance" maskUnits="userSpaceOnUse" x="19" y="34" width="65" height="62">
<path d="M51.471 39.1691C69.0934 30.8067 83.1905 35.6967 83.0272 49.951C82.865 64.0874 68.716 82.201 51.3572 90.5463C33.9252 98.9265 19.6579 94.3873 19.5564 80.269C19.4539 66.0318 33.7731 47.5675 51.471 39.1691Z" fill="black" stroke="url(#paint27_linear_59_34630)" stroke-width="0.940151" stroke-linecap="round" stroke-linejoin="round"/>
</mask>
<g mask="url(#mask6_59_34630)">
<path d="M51.471 39.1691C69.0934 30.8067 83.1905 35.6967 83.0272 49.951C82.865 64.0874 68.716 82.201 51.3572 90.5463C33.9252 98.9265 19.6579 94.3873 19.5564 80.269C19.4539 66.0318 33.7731 47.5675 51.471 39.1691Z" stroke="url(#paint28_linear_59_34630)" stroke-width="0.940151" stroke-linecap="round" stroke-linejoin="round"/>
</g>
<path d="M36.5101 5.80908C36.458 7.0254 31.6029 8.44776 27.7179 11.0445C22.2586 14.6935 20.3188 18.6598 20.3449 18.6862C20.5399 18.5804 20.4606 18.9242 20.2573 18.6069C20.0316 13.7467 29.4425 5.80908 36.5101 5.80908ZM49.8638 25.0587C57.0578 25.0587 69.2585 18.8049 69.0243 23.4722C68.7961 28.0202 62.5558 37.0103 55.5752 40.5007C47.4876 44.5446 37.7896 39.7795 37.7896 35.1065C37.7896 30.4335 42.6697 25.0587 49.8638 25.0587Z" stroke="url(#paint29_radial_59_34630)" stroke-width="2.96148" stroke-linecap="round" stroke-linejoin="round"/>
<mask id="mask7_59_34630" style="mask-type:luminance" maskUnits="userSpaceOnUse" x="18" y="4" width="53" height="40">
<path d="M36.5101 5.80908C36.458 7.0254 31.6029 8.44776 27.7179 11.0445C22.2586 14.6935 20.3188 18.6598 20.3449 18.6862C20.5399 18.5804 20.4606 18.9242 20.2573 18.6069C20.0316 13.7467 29.4425 5.80908 36.5101 5.80908ZM49.8638 25.0587C57.0578 25.0587 69.2585 18.8049 69.0243 23.4722C68.7961 28.0202 62.5558 37.0103 55.5752 40.5007C47.4876 44.5446 37.7896 39.7795 37.7896 35.1065C37.7896 30.4335 42.6697 25.0587 49.8638 25.0587Z" fill="black" stroke="url(#paint30_linear_59_34630)" stroke-width="2.96148" stroke-linecap="round" stroke-linejoin="round"/>
</mask>
<g mask="url(#mask7_59_34630)">
<path d="M36.5101 5.80908C36.458 7.0254 31.6029 8.44776 27.7179 11.0445C22.2586 14.6935 20.3188 18.6598 20.3449 18.6862C20.5399 18.5804 20.4606 18.9242 20.2573 18.6069C20.0316 13.7467 29.4425 5.80908 36.5101 5.80908ZM49.8638 25.0587C57.0578 25.0587 69.2585 18.8049 69.0243 23.4722C68.7961 28.0202 62.5558 37.0103 55.5752 40.5007C47.4876 44.5446 37.7896 39.7795 37.7896 35.1065C37.7896 30.4335 42.6697 25.0587 49.8638 25.0587Z" stroke="url(#paint31_linear_59_34630)" stroke-opacity="0.5" stroke-width="2.96148" stroke-linecap="round" stroke-linejoin="round"/>
</g>
<mask id="mask8_59_34630" style="mask-type:luminance" maskUnits="userSpaceOnUse" x="19" y="5" width="51" height="38">
<path d="M36.5101 5.80908C36.458 7.0254 31.6029 8.44776 27.7179 11.0445C22.2586 14.6935 20.3188 18.6598 20.3449 18.6862C20.5399 18.5804 20.4606 18.9242 20.2573 18.6069C20.0316 13.7467 29.4425 5.80908 36.5101 5.80908ZM49.8638 25.0587C57.0578 25.0587 69.2585 18.8049 69.0243 23.4722C68.7961 28.0202 62.5558 37.0103 55.5752 40.5007C47.4876 44.5446 37.7896 39.7795 37.7896 35.1065C37.7896 30.4335 42.6697 25.0587 49.8638 25.0587Z" fill="black" stroke="url(#paint32_radial_59_34630)" stroke-width="1.48074" stroke-linecap="round" stroke-linejoin="round"/>
</mask>
<g mask="url(#mask8_59_34630)">
<path d="M36.5101 5.80908C36.458 7.0254 31.6029 8.44776 27.7179 11.0445C22.2586 14.6935 20.3188 18.6598 20.3449 18.6862C20.5399 18.5804 20.4606 18.9242 20.2573 18.6069C20.0316 13.7467 29.4425 5.80908 36.5101 5.80908ZM49.8638 25.0587C57.0578 25.0587 69.2585 18.8049 69.0243 23.4722C68.7961 28.0202 62.5558 37.0103 55.5752 40.5007C47.4876 44.5446 37.7896 39.7795 37.7896 35.1065C37.7896 30.4335 42.6697 25.0587 49.8638 25.0587Z" stroke="url(#paint33_radial_59_34630)" stroke-opacity="0.75" stroke-width="1.48074" stroke-linecap="round" stroke-linejoin="round"/>
</g>
<path d="M36.5101 5.80908C36.458 7.0254 31.6029 8.44776 27.7179 11.0445C22.2586 14.6935 20.3188 18.6598 20.3449 18.6862C20.5399 18.5804 20.4606 18.9242 20.2573 18.6069C20.0316 13.7467 29.4425 5.80908 36.5101 5.80908ZM49.8638 25.0587C57.0578 25.0587 69.2585 18.8049 69.0243 23.4722C68.7961 28.0202 62.5558 37.0103 55.5752 40.5007C47.4876 44.5446 37.7896 39.7795 37.7896 35.1065C37.7896 30.4335 42.6697 25.0587 49.8638 25.0587Z" fill="url(#paint34_radial_59_34630)"/>
<mask id="mask9_59_34630" style="mask-type:luminance" maskUnits="userSpaceOnUse" x="20" y="5" width="50" height="38">
<path d="M36.5101 5.80908C36.458 7.0254 31.6029 8.44776 27.7179 11.0445C22.2586 14.6935 20.3188 18.6598 20.3449 18.6862C20.5399 18.5804 20.4606 18.9242 20.2573 18.6069C20.0316 13.7467 29.4425 5.80908 36.5101 5.80908ZM49.8638 25.0587C57.0578 25.0587 69.2585 18.8049 69.0243 23.4722C68.7961 28.0202 62.5558 37.0103 55.5752 40.5007C47.4876 44.5446 37.7896 39.7795 37.7896 35.1065C37.7896 30.4335 42.6697 25.0587 49.8638 25.0587Z" fill="url(#paint35_radial_59_34630)"/>
</mask>
<g mask="url(#mask9_59_34630)">
<path d="M36.5101 5.80908C36.458 7.0254 31.6029 8.44776 27.7179 11.0445C22.2586 14.6935 20.3188 18.6598 20.3449 18.6862C20.5399 18.5804 20.4606 18.9242 20.2573 18.6069C20.0316 13.7467 29.4425 5.80908 36.5101 5.80908ZM49.8638 25.0587C57.0578 25.0587 69.2585 18.8049 69.0243 23.4722C68.7961 28.0202 62.5558 37.0103 55.5752 40.5007C47.4876 44.5446 37.7896 39.7795 37.7896 35.1065C37.7896 30.4335 42.6697 25.0587 49.8638 25.0587Z" fill="url(#paint36_radial_59_34630)"/>
</g>
<path d="M69.5316 11.1334C61.6738 1.9652 44.016 -1.26774 30.1242 3.91978C16.2349 9.10729 11.3386 20.7607 19.1963 29.9289C27.0541 39.0947 44.7119 42.3276 58.6037 37.1401C72.493 31.9551 77.3893 20.2992 69.5316 11.1334ZM64.0281 8.82595C57.888 1.66412 44.09 -0.863008 33.2387 3.18928C22.3849 7.24156 18.5596 16.3481 24.6998 23.5124C30.8399 30.6742 44.6379 33.1989 55.4892 29.1466C66.343 25.0943 70.1683 15.9878 64.0281 8.82595Z" fill="url(#paint37_radial_59_34630)"/>
<path d="M69.5316 11.1334C61.6738 1.9652 44.016 -1.26774 30.1242 3.91978C16.2349 9.10729 11.3386 20.7607 19.1963 29.9289C27.0541 39.0947 44.7119 42.3276 58.6037 37.1401C72.493 31.9551 77.3893 20.2992 69.5316 11.1334ZM64.0281 8.82595C70.1683 15.9878 66.343 25.0943 55.4892 29.1466C44.6379 33.1989 30.8399 30.6742 24.6998 23.5124C18.5596 16.3481 22.3849 7.24156 33.2387 3.18928C44.09 -0.863007 57.888 1.66412 64.0281 8.82595Z" stroke="url(#paint38_radial_59_34630)" stroke-width="1.72753" stroke-linecap="round" stroke-linejoin="round"/>
<path d="M29.9664 19.1961C29.6339 19.487 28.6174 19.7212 29.2422 20.2228C30.1851 21.2185 30.9975 21.9343 32.5731 22.6192C30.1885 22.7518 28.3451 21.3518 26.6412 20.4827C26.389 20.113 26.6601 19.8 26.5809 19.3773C26.4939 19.0569 26.1256 18.9443 26.2227 18.5672C26.8666 17.4448 28.8216 17.1443 29.6172 15.9866C30.5534 15.0653 30.6884 14.0165 31.8668 13.16C35.423 11.2872 39.0552 9.80097 42.1673 7.6269C41.9542 8.21535 41.7701 8.72277 41.5792 9.24861C45.2549 8.29341 48.5556 6.81973 51.959 5.37109C51.5462 6.29978 50.2071 7.30065 49.4829 8.30667C52.4813 7.49581 55.7284 7.94506 58.9231 7.61144C52.8908 11.9345 47.1396 16.8615 45.5205 22.8623C44.4214 26.3539 39.2627 24.5628 36.7252 23.1738C33.6365 21.5315 40.71 24.9502 42.0122 21.1839C42.4106 19.968 41.6741 19.0245 40.7133 18.0848C38.8688 15.9137 34.8361 17.1222 32.2551 17.9883C30.9473 18.442 34.0226 20.6035 34.5895 20.9894C32.6713 21.0027 31.3323 20.0725 29.9664 19.1961ZM34.2982 14.4186C35.1798 14.2404 37.5632 13.7109 37.5632 13.7109C37.5632 13.7109 38.0062 12.5892 38.5028 11.978C37.6335 12.193 35.163 13.199 35.163 13.199C35.163 13.199 34.3908 14.0615 34.2982 14.4186ZM55.1627 18.1054C51.3185 20.0423 49.0009 23.5369 50.9302 19.546C49.1426 20.5461 48.1294 21.8401 46.623 23.0832C47.0648 17.542 54.8313 11.2997 59.0928 8.40904C58.1621 10.1648 57.0697 11.9669 56.4136 13.8913C58.0092 13.1026 59.4141 11.8034 61.3122 11.1303C60.3392 12.3786 59.1307 13.6306 58.7948 15.1205C59.9531 14.6823 61.9047 13.3773 62.7907 13.3773C61.8099 14.2456 60.8748 15.2258 60.3994 16.3416C58.6944 17.3734 56.3421 18.0649 54.7766 19.4038C54.4407 18.9818 54.8926 18.5642 55.1627 18.1054Z" stroke="#0A0B0B" stroke-width="1.45045" stroke-linecap="round" stroke-linejoin="round"/>
<path d="M29.9664 19.1961C29.6339 19.487 28.6174 19.7212 29.2422 20.2228C30.1851 21.2185 30.9975 21.9343 32.5731 22.6192C30.1885 22.7518 28.3451 21.3518 26.6412 20.4827C26.389 20.113 26.6601 19.8 26.5809 19.3773C26.4939 19.0569 26.1256 18.9443 26.2227 18.5672C26.8666 17.4448 28.8216 17.1443 29.6172 15.9866C30.5534 15.0653 30.6884 14.0165 31.8668 13.16C35.423 11.2872 39.0552 9.80097 42.1673 7.6269C41.9542 8.21535 41.7701 8.72277 41.5792 9.24861C45.2549 8.29341 48.5556 6.81973 51.959 5.37109C51.5462 6.29978 50.2071 7.30065 49.4829 8.30667C52.4813 7.49581 55.7284 7.94506 58.9231 7.61144C52.8908 11.9345 47.1396 16.8615 45.5205 22.8623C44.4214 26.3539 39.2627 24.5628 36.7252 23.1738C33.6365 21.5315 40.71 24.9502 42.0122 21.1839C42.4106 19.968 41.6741 19.0245 40.7133 18.0848C38.8688 15.9137 34.8361 17.1222 32.2551 17.9883C30.9473 18.442 34.0226 20.6035 34.5895 20.9894C32.6713 21.0027 31.3323 20.0725 29.9664 19.1961ZM34.2982 14.4186C35.1798 14.2404 37.5632 13.7109 37.5632 13.7109C37.5632 13.7109 38.0062 12.5892 38.5028 11.978C37.6335 12.193 35.163 13.199 35.163 13.199C35.163 13.199 34.3908 14.0615 34.2982 14.4186ZM55.1627 18.1054C51.3185 20.0423 49.0009 23.5369 50.9302 19.546C49.1426 20.5461 48.1294 21.8401 46.623 23.0832C47.0648 17.542 54.8313 11.2997 59.0928 8.40904C58.1621 10.1648 57.0697 11.9669 56.4136 13.8913C58.0092 13.1026 59.4141 11.8034 61.3122 11.1303C60.3392 12.3786 59.1307 13.6306 58.7948 15.1205C59.9531 14.6823 61.9047 13.3773 62.7907 13.3773C61.8099 14.2456 60.8748 15.2258 60.3994 16.3416C58.6944 17.3734 56.3421 18.0649 54.7766 19.4038C54.4407 18.9818 54.8926 18.5642 55.1627 18.1054Z" stroke="url(#paint39_linear_59_34630)" stroke-width="1.45045" stroke-linecap="round" stroke-linejoin="round"/>
<path d="M29.9664 19.1961C29.6339 19.487 28.6174 19.7212 29.2422 20.2228C30.1851 21.2185 30.9975 21.9343 32.5731 22.6192C30.1885 22.7518 28.3451 21.3518 26.6412 20.4827C26.389 20.113 26.6601 19.8 26.5809 19.3773C26.4939 19.0569 26.1256 18.9443 26.2227 18.5672C26.8666 17.4448 28.8216 17.1443 29.6172 15.9866C30.5534 15.0653 30.6884 14.0165 31.8668 13.16C35.423 11.2872 39.0552 9.80097 42.1673 7.6269C41.9542 8.21535 41.7701 8.72277 41.5792 9.24861C45.2549 8.29341 48.5556 6.81973 51.959 5.37109C51.5462 6.29978 50.2071 7.30065 49.4829 8.30667C52.4813 7.49581 55.7284 7.94506 58.9231 7.61144C52.8908 11.9345 47.1396 16.8615 45.5205 22.8623C44.4214 26.3539 39.2627 24.5628 36.7252 23.1738C33.6365 21.5315 40.71 24.9502 42.0122 21.1839C42.4106 19.9679 41.6741 19.0245 40.7133 18.0848C38.8688 15.9137 34.8361 17.1222 32.2551 17.9883C30.9473 18.442 34.0226 20.6035 34.5895 20.9894C32.6713 21.0027 31.3323 20.0725 29.9664 19.1961ZM34.2982 14.4186C35.1798 14.2404 37.5632 13.7109 37.5632 13.7109C37.5632 13.7109 38.0062 12.5892 38.5028 11.978C37.6335 12.193 35.163 13.199 35.163 13.199C35.163 13.199 34.3908 14.0615 34.2982 14.4186ZM55.1627 18.1054C51.3185 20.0423 49.0009 23.5369 50.9302 19.546C49.1426 20.5461 48.1294 21.8401 46.623 23.0832C47.0648 17.542 54.8313 11.2997 59.0928 8.40904C58.1621 10.1648 57.0697 11.9669 56.4136 13.8913C58.0092 13.1026 59.4141 11.8034 61.3122 11.1303C60.3392 12.3786 59.1307 13.6306 58.7948 15.1205C59.9531 14.6823 61.9047 13.3773 62.7907 13.3773C61.8099 14.2456 60.8748 15.2258 60.3994 16.3416C58.6944 17.3734 56.3421 18.0649 54.7766 19.4038C54.4407 18.9818 54.8926 18.5642 55.1627 18.1054Z" fill="url(#paint40_linear_59_34630)"/>
<path d="M29.9664 19.1961C29.6339 19.487 28.6174 19.7212 29.2422 20.2228C30.1851 21.2185 30.9975 21.9343 32.5731 22.6192C30.1885 22.7518 28.3451 21.3518 26.6412 20.4827C26.389 20.113 26.6601 19.8 26.5809 19.3773C26.4939 19.0569 26.1256 18.9443 26.2227 18.5672C26.8666 17.4448 28.8216 17.1443 29.6172 15.9866C30.5534 15.0653 30.6884 14.0165 31.8668 13.16C35.423 11.2872 39.0552 9.80097 42.1673 7.6269C41.9542 8.21535 41.7701 8.72277 41.5792 9.24861C45.2549 8.29341 48.5556 6.81973 51.959 5.37109C51.5462 6.29978 50.2071 7.30065 49.4829 8.30667C52.4813 7.49581 55.7284 7.94506 58.9231 7.61144C52.8908 11.9345 47.1396 16.8615 45.5205 22.8623C44.4214 26.3539 39.2627 24.5628 36.7252 23.1738C33.6365 21.5315 40.71 24.9502 42.0122 21.1839C42.4106 19.9679 41.6741 19.0245 40.7133 18.0848C38.8688 15.9137 34.8361 17.1222 32.2551 17.9883C30.9473 18.442 34.0226 20.6035 34.5895 20.9894C32.6713 21.0027 31.3323 20.0725 29.9664 19.1961ZM34.2982 14.4186C35.1798 14.2404 37.5632 13.7109 37.5632 13.7109C37.5632 13.7109 38.0062 12.5892 38.5028 11.978C37.6335 12.193 35.163 13.199 35.163 13.199C35.163 13.199 34.3908 14.0615 34.2982 14.4186ZM55.1627 18.1054C51.3185 20.0423 49.0009 23.5369 50.9302 19.546C49.1426 20.5461 48.1294 21.8401 46.623 23.0832C47.0648 17.542 54.8313 11.2997 59.0928 8.40904C58.1621 10.1648 57.0697 11.9669 56.4136 13.8913C58.0092 13.1026 59.4141 11.8034 61.3122 11.1303C60.3392 12.3786 59.1307 13.6306 58.7948 15.1205C59.9531 14.6823 61.9047 13.3773 62.7907 13.3773C61.8099 14.2456 60.8748 15.2258 60.3994 16.3416C58.6944 17.3734 56.3421 18.0649 54.7766 19.4038C54.4407 18.9818 54.8926 18.5642 55.1627 18.1054Z" fill="url(#paint41_linear_59_34630)"/>
<mask id="mask10_59_34630" style="mask-type:luminance" maskUnits="userSpaceOnUse" x="16" y="0" width="57" height="40">
<path d="M68.7937 11.3209C61.2098 2.4735 44.1641 -0.648387 30.7585 4.35898C17.3504 9.36634 12.6219 20.615 20.2082 29.4649C27.7945 38.3123 44.8378 41.4317 58.2459 36.4268C71.654 31.4195 76.38 20.1708 68.7937 11.3209ZM65.578 9.11214C71.9871 16.5899 67.9916 26.0937 56.664 30.3237C45.3363 34.5537 30.9361 31.918 24.527 24.4402C18.1179 16.965 22.1134 7.46112 33.4411 3.23115C44.7687 -0.998828 59.1689 1.63689 65.578 9.11214Z" fill="black" stroke="url(#paint42_radial_59_34630)" stroke-width="0.987158" stroke-linecap="round" stroke-linejoin="round"/>
</mask>
<g mask="url(#mask10_59_34630)">
<path d="M68.7937 11.3209C61.2098 2.4735 44.1641 -0.648387 30.7585 4.35898C17.3504 9.36634 12.6219 20.615 20.2082 29.4649C27.7945 38.3123 44.8378 41.4317 58.2459 36.4268C71.654 31.4195 76.38 20.1708 68.7937 11.3209ZM65.578 9.11214C71.9871 16.5899 67.9916 26.0937 56.664 30.3237C45.3363 34.5537 30.9361 31.918 24.527 24.4402C18.1179 16.965 22.1134 7.46112 33.4411 3.23115C44.7687 -0.998828 59.1689 1.63689 65.578 9.11214Z" stroke="url(#paint43_radial_59_34630)" stroke-width="0.987158" stroke-linecap="round" stroke-linejoin="round"/>
</g>
<path d="M68.852 11.3861C61.2058 2.46638 44.0252 -0.679298 30.5099 4.36864C16.9923 9.41425 12.2274 20.7535 19.8759 29.6756C27.522 38.5953 44.7026 41.7387 58.2179 36.693C71.7355 31.6451 76.5004 20.3058 68.852 11.3861ZM64.7111 8.83197C71.0651 16.2438 67.1051 25.6669 55.8749 29.8588C44.6469 34.0531 30.3708 31.4386 24.0168 24.0268C17.6628 16.6173 21.6227 7.19418 32.853 2.99994C44.0809 -1.19198 58.3571 1.42014 64.7111 8.83197Z" fill="url(#paint44_radial_59_34630)" fill-opacity="0.75"/>
<path d="M68.852 11.3861C61.2058 2.46638 44.0252 -0.679298 30.5099 4.36864C16.9923 9.41425 12.2274 20.7535 19.8759 29.6756C27.522 38.5953 44.7026 41.7387 58.2179 36.693C71.7355 31.6451 76.5004 20.3058 68.852 11.3861ZM64.7111 8.83197C71.0651 16.2438 67.1051 25.6669 55.8749 29.8588C44.6469 34.0531 30.3708 31.4386 24.0168 24.0268C17.6628 16.6173 21.6227 7.19418 32.853 2.99994C44.0809 -1.19198 58.3571 1.42014 64.7111 8.83197Z" fill="url(#paint45_linear_59_34630)" fill-opacity="0.5"/>
<g opacity="0.75">
<path d="M64.0281 8.82546C70.1683 15.9873 66.343 25.0938 55.4892 29.1461C44.6379 33.1984 30.8399 30.6737 24.6997 23.5119C18.5596 16.3476 22.3849 7.24108 33.2387 3.18879C44.09 -0.863495 57.888 1.66363 64.0281 8.82546Z" fill="url(#paint46_linear_59_34630)" fill-opacity="0.75"/>
<path d="M64.0281 8.82546C70.1683 15.9873 66.343 25.0938 55.4892 29.1461C44.6379 33.1984 30.8399 30.6737 24.6997 23.5119C18.5596 16.3476 22.3849 7.24108 33.2387 3.18879C44.09 -0.863495 57.888 1.66363 64.0281 8.82546Z" fill="url(#paint47_linear_59_34630)" fill-opacity="0.5"/>
</g>
<defs>
<radialGradient id="paint0_radial_59_34630" cx="0" cy="0" r="1" gradientUnits="userSpaceOnUse" gradientTransform="translate(44.2436 93.303) scale(69.102 69.102)">
<stop stop-color="#FD3752"/>
<stop offset="0.38" stop-color="#B22539"/>
<stop offset="0.75" stop-color="#671320"/>
<stop offset="0.81" stop-color="#500C16"/>
<stop offset="1" stop-color="#38050D"/>
</radialGradient>
<linearGradient id="paint1_linear_59_34630" x1="25.2055" y1="93.7731" x2="69.2826" y2="46.4282" gradientUnits="userSpaceOnUse">
<stop stop-color="white" stop-opacity="0.77"/>
<stop offset="0.16" stop-color="white" stop-opacity="0.635"/>
<stop offset="0.2" stop-color="white" stop-opacity="0.5"/>
<stop offset="0.23" stop-color="white" stop-opacity="0.75"/>
<stop offset="0.25" stop-color="white"/>
<stop offset="0.34" stop-color="white"/>
<stop offset="0.44" stop-color="white"/>
<stop offset="0.49" stop-color="white"/>
<stop offset="0.59" stop-color="white"/>
<stop offset="0.73" stop-color="white"/>
<stop offset="0.75" stop-color="white"/>
<stop offset="0.77" stop-color="white"/>
<stop offset="0.8" stop-color="white"/>
<stop offset="0.82" stop-color="white"/>
<stop offset="0.88" stop-color="white"/>
<stop offset="0.9" stop-color="white" stop-opacity="0.625"/>
<stop offset="1" stop-color="white" stop-opacity="0.25"/>
</linearGradient>
<linearGradient id="paint2_linear_59_34630" x1="25.2055" y1="93.7731" x2="69.2826" y2="46.4282" gradientUnits="userSpaceOnUse">
<stop stop-color="#181B25"/>
<stop offset="0.17" stop-color="#821735"/>
<stop offset="0.2" stop-color="#EC1345"/>
<stop offset="0.23" stop-color="#F12453"/>
<stop offset="0.25" stop-color="#F63660"/>
<stop offset="0.34" stop-color="#AB274B"/>
<stop offset="0.44" stop-color="#5F1837"/>
<stop offset="0.51" stop-color="#40182D"/>
<stop offset="0.59" stop-color="#211924"/>
<stop offset="0.73" stop-color="#2A1F28"/>
<stop offset="0.75" stop-color="#32242C"/>
<stop offset="0.77" stop-color="#8F4653"/>
<stop offset="0.8" stop-color="#EB677B"/>
<stop offset="0.84" stop-color="#EC3D60"/>
<stop offset="0.88" stop-color="#EC1345"/>
<stop offset="0.94" stop-color="#9A1531"/>
<stop offset="1" stop-color="#48181D"/>
</linearGradient>
<radialGradient id="paint3_radial_59_34630" cx="0" cy="0" r="1" gradientUnits="userSpaceOnUse" gradientTransform="translate(44.2436 93.1267) scale(68.4662)">
<stop stop-color="#2E0511"/>
<stop offset="0.38" stop-color="#270610"/>
<stop offset="0.75" stop-color="#1F060F"/>
<stop offset="0.81" stop-color="#1A0910"/>
<stop offset="1" stop-color="#150B12"/>
</radialGradient>
<radialGradient id="paint4_radial_59_34630" cx="0" cy="0" r="1" gradientUnits="userSpaceOnUse" gradientTransform="translate(44.4786 94.5369) scale(68.4662 68.4663)">
<stop stop-color="white" stop-opacity="0"/>
<stop offset="0.24" stop-color="white" stop-opacity="0"/>
<stop offset="0.35" stop-color="white" stop-opacity="0"/>
<stop offset="0.55" stop-color="white" stop-opacity="0.275"/>
<stop offset="0.75" stop-color="white" stop-opacity="0.55"/>
<stop offset="0.88" stop-color="white" stop-opacity="0.275"/>
<stop offset="1" stop-color="white" stop-opacity="0"/>
</radialGradient>
<radialGradient id="paint5_radial_59_34630" cx="0" cy="0" r="1" gradientUnits="userSpaceOnUse" gradientTransform="translate(44.4786 94.5369) scale(68.4662 68.4663)">
<stop stop-color="#E92247"/>
<stop offset="0.17" stop-color="#E92247"/>
<stop offset="0.35" stop-color="#E92247"/>
<stop offset="0.55" stop-color="#F4244F"/>
<stop offset="0.75" stop-color="#FF2757"/>
<stop offset="0.94" stop-color="#F4244F"/>
<stop offset="1" stop-color="#E92247"/>
</radialGradient>
<radialGradient id="paint6_radial_59_34630" cx="0" cy="0" r="1" gradientUnits="userSpaceOnUse" gradientTransform="translate(52.2377 36.0131) scale(51.3608 51.3608)">
<stop stop-color="#FFA1F0"/>
<stop offset="0.08" stop-color="#9F5480"/>
<stop offset="0.15" stop-color="#3E0710"/>
<stop offset="0.24" stop-color="#9E283D"/>
<stop offset="0.33" stop-color="#FE496A"/>
<stop offset="0.47" stop-color="#CB3450"/>
<stop offset="0.6" stop-color="#981E35"/>
<stop offset="0.65" stop-color="#961D34"/>
<stop offset="0.7" stop-color="#941C33"/>
<stop offset="0.75" stop-color="#7D1629"/>
<stop offset="0.8" stop-color="#66111E"/>
<stop offset="0.9" stop-color="#3F1522"/>
<stop offset="1" stop-color="#191927"/>
</radialGradient>
<radialGradient id="paint7_radial_59_34630" cx="0" cy="0" r="1" gradientUnits="userSpaceOnUse" gradientTransform="translate(43.8938 9.45391) scale(95.4994 95.4994)">
<stop stop-color="#FFA1F0"/>
<stop offset="0.08" stop-color="#9F5480"/>
<stop offset="0.15" stop-color="#3E0710"/>
<stop offset="0.24" stop-color="#9E283D"/>
<stop offset="0.33" stop-color="#FE496A"/>
<stop offset="0.47" stop-color="#CB3450"/>
<stop offset="0.6" stop-color="#981E35"/>
<stop offset="0.65" stop-color="#961D34"/>
<stop offset="0.7" stop-color="#941C33"/>
<stop offset="0.75" stop-color="#7D1629"/>
<stop offset="0.8" stop-color="#66111E"/>
<stop offset="0.9" stop-color="#3F1522"/>
<stop offset="1" stop-color="#191927"/>
</radialGradient>
<radialGradient id="paint8_radial_59_34630" cx="0" cy="0" r="1" gradientUnits="userSpaceOnUse" gradientTransform="translate(43.7742 16.4293) scale(79.3253 79.3252)">
<stop stop-color="#961324"/>
<stop offset="0.13" stop-color="#CA3150"/>
<stop offset="0.25" stop-color="#FF4F7C"/>
<stop offset="0.4" stop-color="#AE2E4C"/>
<stop offset="0.55" stop-color="#5E0E1C"/>
<stop offset="0.61" stop-color="#9C0E29"/>
<stop offset="0.7" stop-color="#D90F36"/>
<stop offset="0.85" stop-color="#A50A25"/>
<stop offset="1" stop-color="#710615"/>
</radialGradient>
<radialGradient id="paint9_radial_59_34630" cx="0" cy="0" r="1" gradientUnits="userSpaceOnUse" gradientTransform="translate(43.6567 16.1061) scale(79.3546 79.3546)">
<stop stop-color="#961324"/>
<stop offset="0.17" stop-color="#CA3150"/>
<stop offset="0.35" stop-color="#FF4F7C"/>
<stop offset="0.4" stop-color="#AE2E4C"/>
<stop offset="0.44" stop-color="#5E0E1C"/>
<stop offset="0.5" stop-color="#9C0E29"/>
<stop offset="0.55" stop-color="#D90E36"/>
<stop offset="0.6" stop-color="#9C0E29"/>
<stop offset="0.65" stop-color="#5E0E1C"/>
<stop offset="0.71" stop-color="#9C0E29"/>
<stop offset="0.8" stop-color="#D90F36"/>
<stop offset="0.9" stop-color="#A50A25"/>
<stop offset="1" stop-color="#710615"/>
</radialGradient>
<radialGradient id="paint10_radial_59_34630" cx="0" cy="0" r="1" gradientUnits="userSpaceOnUse" gradientTransform="translate(47.6401 -12.551) rotate(180) scale(79.2164 79.2164)">
<stop stop-color="#961324"/>
<stop offset="0.13" stop-color="#CA3150"/>
<stop offset="0.25" stop-color="#FF4F7C"/>
<stop offset="0.4" stop-color="#AE2E4C"/>
<stop offset="0.55" stop-color="#5E0E1C"/>
<stop offset="0.61" stop-color="#9C0E29"/>
<stop offset="0.7" stop-color="#D90F36"/>
<stop offset="0.85" stop-color="#A50A25"/>
<stop offset="1" stop-color="#710615"/>
</radialGradient>
<radialGradient id="paint11_radial_59_34630" cx="0" cy="0" r="1" gradientUnits="userSpaceOnUse" gradientTransform="translate(47.7577 -12.874) rotate(180) scale(79.3546 79.3546)">
<stop stop-color="#961324"/>
<stop offset="0.17" stop-color="#CA3150"/>
<stop offset="0.35" stop-color="#FF4F7C"/>
<stop offset="0.4" stop-color="#AE2E4C"/>
<stop offset="0.44" stop-color="#5E0E1C"/>
<stop offset="0.5" stop-color="#9C0E29"/>
<stop offset="0.55" stop-color="#D90E36"/>
<stop offset="0.6" stop-color="#9C0E29"/>
<stop offset="0.65" stop-color="#5E0E1C"/>
<stop offset="0.71" stop-color="#9C0E29"/>
<stop offset="0.8" stop-color="#D90F36"/>
<stop offset="0.9" stop-color="#A50A25"/>
<stop offset="1" stop-color="#710615"/>
</radialGradient>
<radialGradient id="paint12_radial_59_34630" cx="0" cy="0" r="1" gradientUnits="userSpaceOnUse" gradientTransform="translate(52.2377 38.3632) scale(51.3608 51.3608)">
<stop stop-color="white"/>
<stop offset="0.24" stop-color="white"/>
<stop offset="0.35" stop-color="white"/>
<stop offset="0.55" stop-color="white" stop-opacity="0.5"/>
<stop offset="0.75" stop-color="white" stop-opacity="0"/>
<stop offset="0.88" stop-color="white" stop-opacity="0"/>
<stop offset="1" stop-color="white" stop-opacity="0"/>
</radialGradient>
<radialGradient id="paint13_radial_59_34630" cx="0" cy="0" r="1" gradientUnits="userSpaceOnUse" gradientTransform="translate(52.2377 38.3632) scale(51.3608 51.3608)">
<stop stop-color="white"/>
<stop offset="0.17" stop-color="#FFCBDA"/>
<stop offset="0.35" stop-color="#FF98B5"/>
<stop offset="0.55" stop-color="#FF4C73"/>
<stop offset="0.75" stop-color="#FF0032"/>
<stop offset="0.88" stop-color="#FF8098"/>
<stop offset="1" stop-color="white"/>
</radialGradient>
<radialGradient id="paint14_radial_59_34630" cx="0" cy="0" r="1" gradientUnits="userSpaceOnUse" gradientTransform="translate(52.2377 36.0131) scale(51.3608 51.3608)">
<stop stop-color="#210911"/>
<stop offset="0.25" stop-color="#210912"/>
<stop offset="0.5" stop-color="#210A12"/>
<stop offset="0.63" stop-color="#220711"/>
<stop offset="0.75" stop-color="#240510"/>
<stop offset="0.94" stop-color="#1C060E"/>
<stop offset="1" stop-color="#14060C"/>
</radialGradient>
<radialGradient id="paint15_radial_59_34630" cx="0" cy="0" r="1" gradientUnits="userSpaceOnUse" gradientTransform="translate(43.8938 11.8045) scale(95.4994 95.4994)">
<stop stop-color="white"/>
<stop offset="0.24" stop-color="white"/>
<stop offset="0.35" stop-color="white"/>
<stop offset="0.55" stop-color="white" stop-opacity="0.5"/>
<stop offset="0.75" stop-color="white" stop-opacity="0"/>
<stop offset="0.88" stop-color="white" stop-opacity="0"/>
<stop offset="1" stop-color="white" stop-opacity="0"/>
</radialGradient>
<radialGradient id="paint16_radial_59_34630" cx="0" cy="0" r="1" gradientUnits="userSpaceOnUse" gradientTransform="translate(43.8938 11.8045) scale(95.4994 95.4994)">
<stop stop-color="white"/>
<stop offset="0.17" stop-color="#FFCBDA"/>
<stop offset="0.35" stop-color="#FF98B5"/>
<stop offset="0.55" stop-color="#FF4C73"/>
<stop offset="0.75" stop-color="#FF0032"/>
<stop offset="0.88" stop-color="#FF8098"/>
<stop offset="1" stop-color="white"/>
</radialGradient>
<radialGradient id="paint17_radial_59_34630" cx="0" cy="0" r="1" gradientUnits="userSpaceOnUse" gradientTransform="translate(44.599 8.63115) scale(95.4994 95.4994)">
<stop stop-color="white" stop-opacity="0"/>
<stop offset="0.24" stop-color="white" stop-opacity="0"/>
<stop offset="0.35" stop-color="white" stop-opacity="0"/>
<stop offset="0.5" stop-color="white" stop-opacity="0"/>
<stop offset="0.65" stop-color="white" stop-opacity="0"/>
<stop offset="0.79" stop-color="white" stop-opacity="0.5"/>
<stop offset="0.9" stop-color="white"/>
<stop offset="0.93" stop-color="white" stop-opacity="0.625"/>
<stop offset="1" stop-color="white" stop-opacity="0.25"/>
</radialGradient>
<radialGradient id="paint18_radial_59_34630" cx="0" cy="0" r="1" gradientUnits="userSpaceOnUse" gradientTransform="translate(44.599 8.63115) scale(95.4994 95.4994)">
<stop stop-color="white"/>
<stop offset="0.17" stop-color="#EB809E"/>
<stop offset="0.35" stop-color="#D6003D"/>
<stop offset="0.5" stop-color="#D6003D"/>
<stop offset="0.65" stop-color="#D6003D"/>
<stop offset="0.83" stop-color="#EB2A60"/>
<stop offset="0.9" stop-color="#FF5384"/>
<stop offset="0.95" stop-color="#EB2A60"/>
<stop offset="1" stop-color="#D6003D"/>
</radialGradient>
<radialGradient id="paint19_radial_59_34630" cx="0" cy="0" r="1" gradientUnits="userSpaceOnUse" gradientTransform="translate(43.8938 9.45391) scale(95.4994 95.4994)">
<stop stop-color="#210911"/>
<stop offset="0.25" stop-color="#210912"/>
<stop offset="0.5" stop-color="#210A12"/>
<stop offset="0.63" stop-color="#220711"/>
<stop offset="0.75" stop-color="#240510"/>
<stop offset="0.94" stop-color="#1C060E"/>
<stop offset="1" stop-color="#14060C"/>
</radialGradient>
<radialGradient id="paint20_radial_59_34630" cx="0" cy="0" r="1" gradientUnits="userSpaceOnUse" gradientTransform="translate(55.2903 64.2172) scale(66.4449 66.4449)">
<stop stop-color="#351429"/>
<stop offset="0.17" stop-color="#9A2138"/>
<stop offset="0.25" stop-color="#FF2F47"/>
<stop offset="0.29" stop-color="#AC1E30"/>
<stop offset="0.4" stop-color="#580D19"/>
<stop offset="0.5" stop-color="#580D19"/>
<stop offset="0.6" stop-color="#580D19"/>
<stop offset="0.7" stop-color="#AC1E30"/>
<stop offset="0.75" stop-color="#FF2F47"/>
<stop offset="0.88" stop-color="#9A2138"/>
<stop offset="1" stop-color="#351429"/>
</radialGradient>
<linearGradient id="paint21_linear_59_34630" x1="51.9998" y1="21.6751" x2="52.0027" y2="101.427" gradientUnits="userSpaceOnUse">
<stop stop-color="#2A2A37"/>
<stop offset="0.19" stop-color="#252733"/>
<stop offset="0.35" stop-color="#21232F"/>
<stop offset="0.68" stop-color="#1C1F29"/>
<stop offset="1" stop-color="#161A22"/>
</linearGradient>
<linearGradient id="paint22_linear_59_34630" x1="25.0908" y1="106.31" x2="43.8939" y2="50.8407" gradientUnits="userSpaceOnUse">
<stop stop-color="#9C002F" stop-opacity="0"/>
<stop offset="0.22" stop-color="#CE0035" stop-opacity="0.125"/>
<stop offset="0.45" stop-color="#FF003B" stop-opacity="0.25"/>
<stop offset="0.73" stop-color="#CE0035" stop-opacity="0.125"/>
<stop offset="1" stop-color="#9C002F" stop-opacity="0"/>
</linearGradient>
<linearGradient id="paint23_linear_59_34630" x1="47.6545" y1="21.3435" x2="45.069" y2="101.256" gradientUnits="userSpaceOnUse">
<stop stop-color="#251215"/>
<stop offset="0.19" stop-color="#220C13"/>
<stop offset="0.35" stop-color="#1F0510"/>
<stop offset="0.68" stop-color="#17060D"/>
<stop offset="1" stop-color="#10060B"/>
</linearGradient>
<linearGradient id="paint24_linear_59_34630" x1="25.0908" y1="106.31" x2="43.8939" y2="50.8407" gradientUnits="userSpaceOnUse">
<stop stop-color="#9C002F" stop-opacity="0"/>
<stop offset="0.22" stop-color="#CE0035" stop-opacity="0.125"/>
<stop offset="0.45" stop-color="#FF003B" stop-opacity="0.25"/>
<stop offset="0.73" stop-color="#CE0035" stop-opacity="0.125"/>
<stop offset="1" stop-color="#9C002F" stop-opacity="0"/>
</linearGradient>
<linearGradient id="paint25_linear_59_34630" x1="26.9711" y1="33.0957" x2="75.859" y2="84.804" gradientUnits="userSpaceOnUse">
<stop stop-color="white" stop-opacity="0"/>
<stop offset="0.52" stop-color="white" stop-opacity="0"/>
<stop offset="0.75" stop-color="white" stop-opacity="0"/>
<stop offset="0.88" stop-color="white" stop-opacity="0.5"/>
<stop offset="1" stop-color="white"/>
</linearGradient>
<linearGradient id="paint26_linear_59_34630" x1="26.9711" y1="33.0957" x2="75.859" y2="84.804" gradientUnits="userSpaceOnUse">
<stop stop-color="white"/>
<stop offset="0.38" stop-color="#FF94AE"/>
<stop offset="0.75" stop-color="#FF295D"/>
<stop offset="0.88" stop-color="#FF295D"/>
<stop offset="1" stop-color="#FF295D"/>
</linearGradient>
<linearGradient id="paint27_linear_59_34630" x1="43.8938" y1="91.855" x2="20.9777" y2="47.5503" gradientUnits="userSpaceOnUse">
<stop stop-color="white" stop-opacity="0"/>
<stop offset="0.52" stop-color="white" stop-opacity="0"/>
<stop offset="0.75" stop-color="white" stop-opacity="0"/>
<stop offset="0.88" stop-color="white" stop-opacity="0.5"/>
<stop offset="1" stop-color="white"/>
</linearGradient>
<linearGradient id="paint28_linear_59_34630" x1="43.8938" y1="91.855" x2="20.9777" y2="47.5503" gradientUnits="userSpaceOnUse">
<stop stop-color="#EC1D4E"/>
<stop offset="0.38" stop-color="#EC1D4E"/>
<stop offset="0.75" stop-color="#EC1D4E"/>
<stop offset="0.88" stop-color="#F62957"/>
<stop offset="1" stop-color="#FF3561"/>
</linearGradient>
<radialGradient id="paint29_radial_59_34630" cx="0" cy="0" r="1" gradientUnits="userSpaceOnUse" gradientTransform="translate(44.3639 6.44368) scale(36.4367)">
<stop stop-color="#310512"/>
<stop offset="0.43" stop-color="#23060F"/>
<stop offset="0.8" stop-color="#15060C"/>
<stop offset="0.89" stop-color="#15060C"/>
<stop offset="0.93" stop-color="#15060C"/>
<stop offset="0.96" stop-color="#23060F"/>
<stop offset="1" stop-color="#310512"/>
</radialGradient>
<linearGradient id="paint30_linear_59_34630" x1="46.2324" y1="85.2754" x2="45.7742" y2="34.1665" gradientUnits="userSpaceOnUse">
<stop stop-color="white" stop-opacity="0"/>
<stop offset="0.68" stop-color="white" stop-opacity="0.5"/>
<stop offset="0.75" stop-color="white"/>
<stop offset="0.8" stop-color="white" stop-opacity="0.5"/>
<stop offset="1" stop-color="white" stop-opacity="0"/>
</linearGradient>
<linearGradient id="paint31_linear_59_34630" x1="46.2324" y1="85.2754" x2="45.7742" y2="34.1665" gradientUnits="userSpaceOnUse">
<stop stop-color="#D71440"/>
<stop offset="0.38" stop-color="#EB3D62"/>
<stop offset="0.75" stop-color="#FF6685"/>
<stop offset="0.88" stop-color="#EB3D62"/>
<stop offset="1" stop-color="#D71440"/>
</linearGradient>
<radialGradient id="paint32_radial_59_34630" cx="0" cy="0" r="1" gradientUnits="userSpaceOnUse" gradientTransform="translate(44.3639 6.44368) scale(36.4367)">
<stop stop-color="white" stop-opacity="0.5"/>
<stop offset="0.52" stop-color="white" stop-opacity="0.25"/>
<stop offset="0.75" stop-color="white" stop-opacity="0"/>
<stop offset="0.81" stop-color="white" stop-opacity="0"/>
<stop offset="0.87" stop-color="white" stop-opacity="0"/>
<stop offset="0.94" stop-color="white" stop-opacity="0.125"/>
<stop offset="1" stop-color="white" stop-opacity="0.25"/>
</radialGradient>
<radialGradient id="paint33_radial_59_34630" cx="0" cy="0" r="1" gradientUnits="userSpaceOnUse" gradientTransform="translate(44.3639 6.44368) scale(36.4367)">
<stop stop-color="white"/>
<stop offset="0.38" stop-color="white"/>
<stop offset="0.75" stop-color="white"/>
<stop offset="0.81" stop-color="#FF8199"/>
<stop offset="0.87" stop-color="#FF0233"/>
<stop offset="0.94" stop-color="#FF0233"/>
<stop offset="1" stop-color="#FF0233"/>
</radialGradient>
<radialGradient id="paint34_radial_59_34630" cx="0" cy="0" r="1" gradientUnits="userSpaceOnUse" gradientTransform="translate(44.3639 6.44368) scale(36.4367)">
<stop stop-color="#18121B"/>
<stop offset="0.46" stop-color="#18121B"/>
<stop offset="0.85" stop-color="#17121B"/>
<stop offset="0.9" stop-color="#1C1620"/>
<stop offset="0.92" stop-color="#201A24"/>
<stop offset="0.96" stop-color="#311A28"/>
<stop offset="1" stop-color="#43192B"/>
</radialGradient>
<radialGradient id="paint35_radial_59_34630" cx="0" cy="0" r="1" gradientUnits="userSpaceOnUse" gradientTransform="translate(44.3639 6.44368) scale(36.4367)">
<stop stop-color="white" stop-opacity="0"/>
<stop offset="0.52" stop-color="white" stop-opacity="0"/>
<stop offset="0.75" stop-color="white" stop-opacity="0"/>
<stop offset="0.8" stop-color="white" stop-opacity="0"/>
<stop offset="0.85" stop-color="white" stop-opacity="0"/>
<stop offset="0.88" stop-color="white" stop-opacity="0.125"/>
<stop offset="0.93" stop-color="white" stop-opacity="0.25"/>
<stop offset="0.94" stop-color="white" stop-opacity="0.125"/>
<stop offset="1" stop-color="white" stop-opacity="0"/>
</radialGradient>
<radialGradient id="paint36_radial_59_34630" cx="0" cy="0" r="1" gradientUnits="userSpaceOnUse" gradientTransform="translate(44.3639 6.44368) scale(36.4367)">
<stop stop-color="#BF815A"/>
<stop offset="0.38" stop-color="#DFC0AC"/>
<stop offset="0.75" stop-color="white"/>
<stop offset="0.8" stop-color="#E38095"/>
<stop offset="0.85" stop-color="#C7002C"/>
<stop offset="0.89" stop-color="#DE1B46"/>
<stop offset="0.93" stop-color="#F53660"/>
<stop offset="0.96" stop-color="#E41B47"/>
<stop offset="1" stop-color="#D4002F"/>
</radialGradient>
<radialGradient id="paint37_radial_59_34630" cx="0" cy="0" r="1" gradientUnits="userSpaceOnUse" gradientTransform="translate(11.4272 -0.670515) scale(72.6253 72.6253)">
<stop stop-color="#46192C"/>
<stop offset="0.08" stop-color="#36202F"/>
<stop offset="0.15" stop-color="#262733"/>
<stop offset="0.4" stop-color="#201D27"/>
<stop offset="0.65" stop-color="#19121B"/>
<stop offset="0.82" stop-color="#2B1421"/>
<stop offset="1" stop-color="#3C1728"/>
</radialGradient>
<radialGradient id="paint38_radial_59_34630" cx="0" cy="0" r="1" gradientUnits="userSpaceOnUse" gradientTransform="translate(12.9419 -0.5328) scale(66.2432 66.2432)">
<stop stop-color="#470518"/>
<stop offset="0.24" stop-color="#3B0514"/>
<stop offset="0.45" stop-color="#2F0511"/>
<stop offset="0.55" stop-color="#250510"/>
<stop offset="0.65" stop-color="#1B050F"/>
<stop offset="0.82" stop-color="#250510"/>
<stop offset="1" stop-color="#2F0511"/>
</radialGradient>
<linearGradient id="paint39_linear_59_34630" x1="33.8926" y1="21.6701" x2="14.1104" y2="7.43842" gradientUnits="userSpaceOnUse">
<stop stop-color="#E85F64" stop-opacity="0"/>
<stop offset="0.08" stop-color="#DF4349" stop-opacity="0"/>
<stop offset="0.15" stop-color="#D5272E" stop-opacity="0"/>
<stop offset="0.19" stop-color="#EA364D" stop-opacity="0.375"/>
<stop offset="0.22" stop-color="#FF446C" stop-opacity="0.75"/>
<stop offset="0.46" stop-color="#E12D4B" stop-opacity="0.75"/>
<stop offset="0.7" stop-color="#C4152A" stop-opacity="0.75"/>
<stop offset="0.85" stop-color="#DA434D" stop-opacity="0.375"/>
<stop offset="1" stop-color="#EF706F" stop-opacity="0"/>
</linearGradient>
<linearGradient id="paint40_linear_59_34630" x1="50.0317" y1="14.2663" x2="35.5862" y2="4.61406" gradientUnits="userSpaceOnUse">
<stop stop-color="#E85F64"/>
<stop offset="0.17" stop-color="#DC4349"/>
<stop offset="0.33" stop-color="#CF262D"/>
<stop offset="0.44" stop-color="#9A1D22"/>
<stop offset="0.55" stop-color="#651418"/>
<stop offset="0.6" stop-color="#621518"/>
<stop offset="0.65" stop-color="#601718"/>
<stop offset="0.7" stop-color="#971E22"/>
<stop offset="0.75" stop-color="#CF262D"/>
<stop offset="0.88" stop-color="#DF4B4E"/>
<stop offset="1" stop-color="#EF706F"/>
</linearGradient>
<linearGradient id="paint41_linear_59_34630" x1="33.8926" y1="21.6701" x2="14.1104" y2="7.43842" gradientUnits="userSpaceOnUse">
<stop stop-color="#E85F64" stop-opacity="0"/>
<stop offset="0.13" stop-color="#DF4349" stop-opacity="0"/>
<stop offset="0.25" stop-color="#D5272E" stop-opacity="0"/>
<stop offset="0.26" stop-color="#EA364D" stop-opacity="0.375"/>
<stop offset="0.27" stop-color="#FF446C" stop-opacity="0.75"/>
<stop offset="0.46" stop-color="#E12D4B" stop-opacity="0.875"/>
<stop offset="0.65" stop-color="#C4152A"/>
<stop offset="0.82" stop-color="#DA434D" stop-opacity="0.5"/>
<stop offset="1" stop-color="#EF706F" stop-opacity="0"/>
</linearGradient>
<radialGradient id="paint42_radial_59_34630" cx="0" cy="0" r="1" gradientUnits="userSpaceOnUse" gradientTransform="translate(19.6339 6.75629) scale(54.3996 54.3996)">
<stop stop-color="white" stop-opacity="0"/>
<stop offset="0.24" stop-color="white" stop-opacity="0"/>
<stop offset="0.35" stop-color="white" stop-opacity="0"/>
<stop offset="0.55" stop-color="white" stop-opacity="0.275"/>
<stop offset="0.75" stop-color="white" stop-opacity="0.55"/>
<stop offset="0.88" stop-color="white" stop-opacity="0.275"/>
<stop offset="1" stop-color="white" stop-opacity="0"/>
</radialGradient>
<radialGradient id="paint43_radial_59_34630" cx="0" cy="0" r="1" gradientUnits="userSpaceOnUse" gradientTransform="translate(19.6339 6.75629) scale(54.3996 54.3996)">
<stop stop-color="#E92247"/>
<stop offset="0.17" stop-color="#E92247"/>
<stop offset="0.35" stop-color="#E92247"/>
<stop offset="0.55" stop-color="#F4244F"/>
<stop offset="0.75" stop-color="#FF2757"/>
<stop offset="0.94" stop-color="#F4244F"/>
<stop offset="1" stop-color="#E92247"/>
</radialGradient>
<radialGradient id="paint44_radial_59_34630" cx="0" cy="0" r="1" gradientUnits="userSpaceOnUse" gradientTransform="translate(49.3634 32.8774) scale(77.8535 77.8535)">
<stop stop-color="#FF304B" stop-opacity="0"/>
<stop offset="0.2" stop-color="#FF304B" stop-opacity="0.025"/>
<stop offset="0.41" stop-color="#FF304B" stop-opacity="0.05"/>
<stop offset="0.43" stop-color="#F14B62" stop-opacity="0.525"/>
<stop offset="0.45" stop-color="#E4667A"/>
<stop offset="0.65" stop-color="#F14B62"/>
<stop offset="0.86" stop-color="#FF304A"/>
<stop offset="0.93" stop-color="#FF304B" stop-opacity="0.5"/>
<stop offset="1" stop-color="#FF304B" stop-opacity="0"/>
</radialGradient>
<linearGradient id="paint45_linear_59_34630" x1="24.2353" y1="13.3324" x2="-10.4767" y2="-20.7209" gradientUnits="userSpaceOnUse">
<stop stop-color="#E85F64" stop-opacity="0"/>
<stop offset="0.13" stop-color="#DF4349" stop-opacity="0"/>
<stop offset="0.25" stop-color="#D5272E" stop-opacity="0"/>
<stop offset="0.29" stop-color="#EA7780" stop-opacity="0.35"/>
<stop offset="0.33" stop-color="#FFC6D2" stop-opacity="0.7"/>
<stop offset="0.49" stop-color="#E16E7E" stop-opacity="0.475"/>
<stop offset="0.65" stop-color="#C4152A" stop-opacity="0.25"/>
<stop offset="0.67" stop-color="#C4152A" stop-opacity="0.2"/>
<stop offset="0.68" stop-color="#C4152A" stop-opacity="0.15"/>
<stop offset="0.84" stop-color="#DA434D" stop-opacity="0.075"/>
<stop offset="1" stop-color="#EF706F" stop-opacity="0"/>
</linearGradient>
<linearGradient id="paint46_linear_59_34630" x1="56.5674" y1="36.6947" x2="-4.24473" y2="-19.7575" gradientUnits="userSpaceOnUse">
<stop stop-color="#FF304B" stop-opacity="0"/>
<stop offset="0.2" stop-color="#FF304B" stop-opacity="0.025"/>
<stop offset="0.41" stop-color="#FF304B" stop-opacity="0.05"/>
<stop offset="0.43" stop-color="#F14B62" stop-opacity="0.525"/>
<stop offset="0.45" stop-color="#E4667A"/>
<stop offset="0.65" stop-color="#F14B62"/>
<stop offset="0.86" stop-color="#FF304A"/>
<stop offset="0.93" stop-color="#FF304B" stop-opacity="0.5"/>
<stop offset="1" stop-color="#FF304B" stop-opacity="0"/>
</linearGradient>
<linearGradient id="paint47_linear_59_34630" x1="53.7405" y1="24.8599" x2="-13.9771" y2="-23.3542" gradientUnits="userSpaceOnUse">
<stop stop-color="#E85F64" stop-opacity="0"/>
<stop offset="0.13" stop-color="#DF4349" stop-opacity="0"/>
<stop offset="0.25" stop-color="#D5272E" stop-opacity="0"/>
<stop offset="0.26" stop-color="#EA364D" stop-opacity="0.275"/>
<stop offset="0.27" stop-color="#FF446C" stop-opacity="0.55"/>
<stop offset="0.46" stop-color="#E12D4B" stop-opacity="0.55"/>
<stop offset="0.65" stop-color="#C4152A" stop-opacity="0.55"/>
<stop offset="0.67" stop-color="#C4152A" stop-opacity="0.35"/>
<stop offset="0.68" stop-color="#C4152A" stop-opacity="0.15"/>
<stop offset="0.84" stop-color="#DA434D" stop-opacity="0.075"/>
<stop offset="1" stop-color="#EF706F" stop-opacity="0"/>
</linearGradient>
</defs>
</svg>
