<svg width="43" height="106" viewBox="0 0 43 106" fill="none" xmlns="http://www.w3.org/2000/svg">
<path d="M42.2538 98.3317C42.2682 100.175 42.2753 101.133 42.2753 101.205C40.7931 104.942 27.3158 105.15 21.7195 105.283C16.1646 105.159 2.59784 104.928 1.16312 101.205C1.16333 101.13 1.10245 100.102 0.980469 98.1206M42.2753 98.1206C42.2616 98.1925 42.2543 98.2628 42.2538 98.3317Z" fill="url(#paint0_linear_2065_748)"/>
<path d="M0.980469 98.1206C1.10245 100.102 1.16333 101.13 1.16312 101.205C2.59784 104.928 16.1646 105.159 21.7195 105.283C27.3158 105.15 40.7931 104.942 42.2753 101.205C42.2753 101.133 42.2682 100.175 42.2538 98.3317C42.2543 98.2628 42.2616 98.1925 42.2753 98.1206" stroke="url(#paint1_linear_2065_748)" stroke-width="1.30781" stroke-linecap="round" stroke-linejoin="round"/>
<path d="M42.2537 98.3317C39.9569 101.907 27.6543 102.065 21.7194 102.218C17.6669 102.554 -5.99344 100.76 3.36831 96.2739C3.36831 96.2739 15.2942 95.3172 21.9449 95.2015C28.5955 95.0858 39.9304 96.2425 39.9304 96.2425M39.8765 96.2036C41.5575 96.8537 42.3774 97.4094 42.2537 98.3317Z" fill="url(#paint2_linear_2065_748)"/>
<path d="M39.9304 96.2425C39.9304 96.2425 28.5955 95.0858 21.9449 95.2015C15.2942 95.3172 3.36831 96.2739 3.36831 96.2739C-5.99344 100.76 17.6669 102.554 21.7194 102.218C27.6543 102.065 39.9569 101.907 42.2537 98.3317C42.3774 97.4094 41.5575 96.8537 39.8765 96.2036" stroke="url(#paint3_linear_2065_748)" stroke-width="1.30781" stroke-linecap="round" stroke-linejoin="round"/>
<path d="M3.3254 96.0147C5.8089 100.838 29.2625 99.8583 34.541 98.5751C38.8444 97.5407 39.8335 97.2087 39.9641 95.5815C40.0639 94.3378 39.6623 92.3377 39.8551 88.6895H3.1748C3.27527 93.3434 3.3254 95.7852 3.3254 96.0147Z" fill="url(#paint4_linear_2065_748)"/>
<path d="M3.20709 101.77C3.06295 101.514 3.32004 100.115 3.16406 98.5318C3.26754 97.6442 3.9336 97.2961 5.15383 96.7462C5.00883 96.0905 5.18094 94.3873 5.15383 89.8082M5.15383 89.8082C5.09661 89.6522 5.09661 89.4693 5.15383 89.3134M5.15383 89.8082C5.15383 89.6432 5.15383 89.4784 5.15383 89.3134M5.15383 89.3134C7.35809 86.3196 16.6295 86.2307 21.6331 86.0859C26.3567 86.2006 36.6248 86.3703 38.1665 89.4743C38.145 94.0003 38.202 96.2389 38.1448 96.6817C39.5717 97.2339 40.2924 97.8471 40.3069 98.5211M40.3069 98.5211C40.2602 99.72 40.3249 100.976 40.3069 101.275M40.3069 98.5211C40.2924 98.5856 40.2853 98.6538 40.2853 98.7255M3.2286 98.8976C3.2357 98.6538 3.24302 98.3991 3.25012 98.1338" stroke="url(#paint5_linear_2065_748)" stroke-width="1.30781" stroke-linecap="round" stroke-linejoin="round"/>
<path d="M3.1748 88.6903C3.3112 93.7089 3.26193 95.5696 3.36843 96.2742C7.51319 100.812 28.3773 99.8804 34.5415 98.5711C42.0182 96.7436 39.4536 97.2537 39.8551 89.0323C39.8557 88.9198 39.8684 88.8043 39.8927 88.6855" stroke="url(#paint6_linear_2065_748)" stroke-width="1.30781" stroke-linecap="round" stroke-linejoin="round"/>
<path d="M39.8551 89.0318C37.1956 93.5003 5.29047 93.7381 3.32544 88.7745C4.30881 83.9714 39.6944 83.7507 39.8551 89.0318Z" fill="url(#paint7_linear_2065_748)"/>
<path d="M39.8551 89.0318C37.1956 93.5003 5.29047 93.7381 3.32544 88.7745C4.30881 83.9714 39.6944 83.7507 39.8551 89.0318Z" stroke="url(#paint8_linear_2065_748)" stroke-width="1.30781" stroke-linecap="round" stroke-linejoin="round"/>
<path d="M5.0574 87.9363C8.66863 91.0834 34.6572 91.0712 38.3708 87.9582C38.3708 87.9578 38.4461 84.5049 38.4461 84.5049C36.3666 87.949 7.71731 87.8076 5.03589 84.6662L5.0574 87.9363Z" fill="url(#paint9_linear_2065_748)"/>
<path d="M33.5411 82.6656C27.716 81.8171 9.40725 80.9871 5.03595 84.2787C4.69496 85.4836 8.03405 86.0981 9.94099 86.4307C16.1321 87.4336 27.299 87.4351 33.4873 86.4304C39.0914 85.7166 40.8677 83.7269 33.5411 82.6656Z" fill="url(#paint10_linear_2065_748)"/>
<path d="M5.55683 88.5649C7.49389 91.2834 36.2252 91.7153 36.8129 88.1654C36.8278 87.9574 36.802 85.2725 36.8127 85.1662M5.55683 88.5649C5.51553 88.0286 5.54435 85.7067 5.53618 85.1658C8.11455 83.0304 16.3735 83.1502 21.1744 82.9771C25.4491 82.9904 29.112 83.2202 32.1635 83.6668C35.0017 84.0867 36.5515 84.5865 36.8127 85.1662M5.55683 88.5649C5.48261 88.4328 5.47444 88.3003 5.53618 88.1652M36.8127 85.1662C36.8678 85.2863 36.8678 85.4061 36.8127 85.5262M5.53618 85.5262C5.4811 85.4061 5.4811 85.2863 5.53618 85.1662M36.7921 88.5649C36.8663 88.4328 36.8745 88.3003 36.8127 88.1652" stroke="url(#paint11_linear_2065_748)" stroke-width="1.30781" stroke-linecap="round" stroke-linejoin="round"/>
<path d="M5.10166 87.7867C7.12176 90.6218 37.0858 91.0723 37.6987 87.37C37.7142 87.153 37.6873 84.353 37.6985 84.2422C37.4261 83.6375 35.0013 82.988 32.1631 82.568C29.1116 82.1214 25.8472 81.973 21.3892 81.959C16.3822 82.1397 7.76888 82.0149 5.07993 84.2418C5.08854 84.8058 5.05842 87.2274 5.10166 87.7867Z" stroke="url(#paint12_linear_2065_748)" stroke-width="1.30781" stroke-linecap="round" stroke-linejoin="round"/>
<path d="M17.7584 13.6938C17.6356 15.8738 17.5742 17.4049 17.5742 18.2869C17.5742 19.09 17.0576 19.732 16.0244 20.2124C13.3652 21.247 7.36688 22.0998 7.67975 26.6987C7.58941 27.5652 8.42585 30.6268 8.4631 31.3765C8.76124 33.9964 9.53469 36.8996 10.7214 39.6792C11.5308 42.1093 12.2659 43.8777 15.2875 44.0061C12.6214 46.6379 12.7876 52.5291 15.786 61.6794C15.786 63.3 16.1147 64.5013 16.7722 65.2828C13.1577 72.365 19.3518 79.1103 16.7726 82.515C15.2116 82.8808 14.6372 83.6374 15.049 84.7847C15.7933 85.7457 17.5489 86.054 20.3161 85.7098C21.1325 85.2079 21.5551 84.0102 21.584 82.117C21.6057 84.0173 22.0284 85.215 22.852 85.7098C25.6193 86.054 27.3749 85.7457 28.119 84.7847C28.5309 83.6374 27.9565 82.8805 26.3959 82.5148C23.8181 79.1688 30.0053 72.3145 26.3959 65.2828C27.0533 64.5013 27.3352 63.3466 27.2412 61.8192C30.3335 52.5756 30.637 46.6379 28.1515 44.0061C30.8907 43.7977 32.3365 41.8905 33.0829 39.6213C34.2675 36.8538 34.4683 34.0461 34.7626 31.4342C34.8004 30.6844 35.5783 27.5654 35.4885 26.6987C35.7794 22.0709 29.8122 21.2594 27.1436 20.2124C26.1105 19.7318 25.5939 19.09 25.5939 18.2869C25.5939 17.4049 25.5795 15.8738 25.5505 13.6938H17.7584Z" fill="url(#paint13_radial_2065_748)"/>
<path d="M22.9411 60.9055C25.4425 60.3892 26.8768 59.7042 27.2438 58.8509C26.8284 60.7306 26.5272 61.8314 26.3402 62.1532C25.9523 63.1394 23.9019 63.3175 23.1778 62.8092C22.8723 62.6186 22.6268 61.4145 22.9411 60.9055ZM19.7292 60.6366C17.2278 60.1202 15.7935 59.4353 15.4265 58.582C15.8419 60.4617 16.1431 61.5625 16.3301 61.8843C16.718 62.8705 18.7684 63.0486 19.4925 62.5403C19.798 62.3497 20.0435 61.1456 19.7292 60.6366ZM25.3734 74.4034C25.7518 73.6586 26.0315 72.866 26.2124 72.0262C26.0109 74.2642 25.2755 79.7167 25.3519 81.6319C24.3909 81.165 22.6173 81.4045 22.3293 82.6107C22.379 80.4013 22.1382 77.5155 22.7165 75.8986C23.9813 76.5379 24.466 76.1158 25.3734 74.4034ZM17.3507 74.5109C16.9722 73.7661 16.6926 72.9736 16.5116 72.1337C16.7132 74.3718 17.4486 79.8243 17.3722 81.7394C18.3332 81.2726 20.1067 81.512 20.3948 82.7183C20.3451 80.5089 20.5858 77.6231 20.0076 76.0061C18.7428 76.6455 18.2581 76.2234 17.3507 74.5109Z" fill="#868686" fill-opacity="0.45"/>
<path d="M18.8997 50.7496C16.0506 48.9306 15.7357 53.679 16.2212 56.0416C16.8673 58.8093 16.6212 59.6505 18.2433 60.5381C20.5444 60.8169 19.7589 57.6928 20.1689 55.0307C20.3462 52.9448 19.9233 51.5178 18.8997 50.7496Z" fill="url(#paint14_linear_2065_748)"/>
<path d="M24.1945 50.75C27.0436 48.9311 27.3585 53.6795 26.8729 56.0421C26.2269 58.8098 26.473 59.651 24.8509 60.5386C22.5498 60.8174 23.3353 57.6933 22.9253 55.0312C22.748 52.9453 23.1709 51.5183 24.1945 50.75Z" fill="url(#paint15_linear_2065_748)"/>
<path d="M19.3405 83.6107C19.3177 83.5513 19.5939 82.8663 19.7492 82.6211C19.0412 82.7164 16.576 82.8379 16.4794 83.2452C16.2789 83.5029 16.329 83.6714 16.63 83.7505C17.3225 83.927 18.8199 84.1221 19.3405 83.6107Z" fill="url(#paint16_linear_2065_748)"/>
<path d="M23.7862 83.6107C23.809 83.5513 23.5328 82.8663 23.3774 82.6211C24.0854 82.7164 26.5507 82.8379 26.6473 83.2452C26.8478 83.5029 26.7976 83.6714 26.4967 83.7505C25.8041 83.927 24.3068 84.1221 23.7862 83.6107Z" fill="url(#paint17_linear_2065_748)"/>
<path d="M13.9422 34.0452C14.982 36.9065 15.312 38.9573 14.9319 40.198C14.5517 41.4387 14.3224 42.3207 14.2434 42.8442C14.0477 44.1096 13.8867 44.3871 15.2976 45.0062C17.9715 46.2568 18.4005 50.863 22.2787 50.137C25.5246 49.7258 25.3062 45.3378 29.0446 44.5114C28.7813 38.111 26.4032 37.9606 29.4426 30.7214C30.7926 27.3092 30.8393 25.0429 29.5824 23.9232C28.7454 22.0377 10.6038 21.3919 11.974 26.3544C12.2392 28.6131 12.8952 31.1768 13.9422 34.0452Z" fill="url(#paint18_radial_2065_748)"/>
<path d="M18.3403 18.1795C18.3268 19.5101 17.3658 20.3672 15.4575 20.7503C16.4458 21.516 19.5128 22.9733 21.5781 22.579C23.1948 22.2646 27.1068 21.275 27.3974 20.5782C25.631 20.4496 24.523 19.6609 24.0736 18.2117C22.2009 18.1106 20.249 17.5788 18.3403 18.1795Z" fill="url(#paint19_linear_2065_748)"/>
<path d="M23.3742 19.0505C23.3735 18.5492 17.7499 17.3191 20.2549 20.3413C21.3252 21.5099 23.435 20.6236 23.3742 19.0505Z" fill="url(#paint20_linear_2065_748)"/>
<path d="M13.2665 22.6726C12.3976 23.0564 11.7849 24.0747 11.4286 25.728C9.68754 32.1549 16.5 32.0746 20.1243 29.5763C20.8695 28.9913 21.1798 27.5897 21.0545 25.3719C20.9369 23.1526 19.8266 22.0038 17.7234 21.9259C15.628 21.85 14.1423 22.0991 13.2665 22.6726Z" fill="url(#paint21_linear_2065_748)"/>
<path d="M30.7867 25.7323C30.435 24.0889 29.8331 23.0776 28.9809 22.6987C28.1159 22.1306 26.6753 21.8838 24.6591 21.9582C22.6416 22.0327 21.5629 23.1419 21.4228 25.2859C21.2892 27.4366 21.4921 28.7995 22.0315 29.3743C23.1661 30.6354 26.8479 31.3258 28.5143 30.9366C31.081 30.3321 31.3291 28.4376 30.7867 25.7323Z" fill="url(#paint22_linear_2065_748)"/>
<path d="M11.7052 21.0757C11.5296 22.7922 11.7362 28.1848 12.2529 29.0169C13.6117 31.205 17.113 30.8516 21.4376 30.6665M21.4376 30.6665L21.426 25.3136M21.4376 30.6665C25.762 30.7773 28.0764 30.9372 29.3887 29.9045M12.8611 29.9045C14.3062 31.62 14.9066 34.0618 14.6628 37.2298M30.5434 21.2781C30.7998 23.0063 30.5657 28.0462 30.1266 28.8971C29.1301 30.8283 27.1152 31.7358 27.5924 37.2298" stroke="#404040" stroke-width="1.30781" stroke-linecap="round" stroke-linejoin="round"/>
<mask id="mask0_2065_748" style="mask-type:luminance" maskUnits="userSpaceOnUse" x="8" y="13" width="27" height="72">
<path d="M15.2178 44.1104C15.354 43.9168 15.5012 43.734 15.6589 43.5618C12.8729 43.4153 12.2277 41.6033 11.5016 39.3427C10.4507 36.6354 9.68117 33.7666 9.42946 31.2334C9.39934 30.4865 8.69543 27.5013 8.7746 26.6524C8.5031 22.2198 13.7242 21.3891 16.3152 20.3169C17.2474 19.8507 17.7134 19.2232 17.7134 18.4343C17.7134 17.5737 17.7708 16.0786 17.8855 13.9487H24.9311C24.9526 16.0786 24.9634 17.5737 24.9634 18.4343C24.9634 19.2232 25.4296 19.8505 26.3618 20.3167C28.9696 21.3874 34.1687 22.2053 33.902 26.6526C33.9844 27.5034 33.3497 30.5463 33.3162 31.2913C33.0492 33.8346 32.8938 36.5674 31.8115 39.2848C31.1554 41.4322 29.831 43.3123 27.2761 43.5618C27.4196 43.734 27.5557 43.9168 27.6848 44.1104M27.4204 43.9416C29.1114 46.737 28.7241 52.352 26.2587 60.7865C26.3377 62.278 26.0974 63.4075 25.538 64.1749C28.625 70.9537 23.355 77.6102 25.5376 80.9983C26.8718 81.3567 27.363 82.0955 27.0117 83.2142C26.3734 84.1537 24.8713 84.4548 22.5048 84.1177C21.802 83.6373 21.4434 82.4683 21.4292 80.611C21.4006 82.4612 21.0381 83.63 20.3425 84.1177C17.9761 84.4548 16.4774 84.1537 15.8465 83.2142C15.4949 82.0955 15.9861 81.3569 17.3199 80.9983C19.5003 77.6732 14.2379 70.8933 17.3199 64.1749C16.7535 63.4075 16.4701 62.2316 16.4701 60.6467C14.0787 52.2999 13.7993 46.7316 15.6313 43.9416M25.538 64.1749C25.2727 64.5262 24.932 64.8024 24.5161 65.0031ZM17.3199 64.1749C17.5852 64.5262 17.9223 64.8024 18.331 65.0031Z" fill="black"/>
<path d="M15.2178 44.1104C15.354 43.9168 15.5012 43.734 15.6589 43.5618C12.8729 43.4153 12.2277 41.6033 11.5016 39.3427C10.4507 36.6354 9.68117 33.7666 9.42946 31.2334C9.39934 30.4865 8.69543 27.5013 8.7746 26.6524C8.5031 22.2198 13.7242 21.3891 16.3152 20.3169C17.2474 19.8507 17.7134 19.2232 17.7134 18.4343C17.7134 17.5737 17.7708 16.0786 17.8855 13.9487H24.9311C24.9526 16.0786 24.9634 17.5737 24.9634 18.4343C24.9634 19.2232 25.4296 19.8505 26.3618 20.3167C28.9696 21.3874 34.1687 22.2053 33.902 26.6526C33.9844 27.5034 33.3497 30.5463 33.3162 31.2913C33.0492 33.8346 32.8938 36.5674 31.8115 39.2848C31.1554 41.4322 29.831 43.3123 27.2761 43.5618C27.4196 43.734 27.5557 43.9168 27.6848 44.1104M27.4204 43.9416C29.1114 46.737 28.7241 52.352 26.2587 60.7865C26.3377 62.278 26.0974 63.4075 25.538 64.1749M25.538 64.1749C28.625 70.9537 23.355 77.6102 25.5376 80.9983C26.8718 81.3567 27.363 82.0955 27.0117 83.2142C26.3734 84.1537 24.8713 84.4548 22.5048 84.1177C21.802 83.6373 21.4434 82.4683 21.4292 80.611C21.4006 82.4612 21.0381 83.63 20.3425 84.1177C17.9761 84.4548 16.4774 84.1537 15.8465 83.2142C15.4949 82.0955 15.9861 81.3569 17.3199 80.9983C19.5003 77.6732 14.2379 70.8933 17.3199 64.1749M25.538 64.1749C25.2727 64.5262 24.932 64.8024 24.5161 65.0031M17.3199 64.1749C16.7535 63.4075 16.4701 62.2316 16.4701 60.6467C14.0787 52.2999 13.7993 46.7316 15.6313 43.9416M17.3199 64.1749C17.5852 64.5262 17.9223 64.8024 18.331 65.0031" stroke="url(#paint23_linear_2065_748)" stroke-width="1.30781" stroke-linecap="round" stroke-linejoin="round"/>
</mask>
<g mask="url(#mask0_2065_748)">
<path d="M15.2178 44.1104C15.354 43.9168 15.5012 43.734 15.6589 43.5618C12.8729 43.4153 12.2277 41.6033 11.5016 39.3427C10.4507 36.6354 9.68117 33.7666 9.42946 31.2334C9.39934 30.4865 8.69543 27.5013 8.7746 26.6524C8.5031 22.2198 13.7242 21.3891 16.3152 20.3169C17.2474 19.8507 17.7134 19.2232 17.7134 18.4343C17.7134 17.5737 17.7708 16.0786 17.8855 13.9487H24.9311C24.9526 16.0786 24.9634 17.5737 24.9634 18.4343C24.9634 19.2232 25.4296 19.8505 26.3618 20.3167C28.9696 21.3874 34.1687 22.2053 33.902 26.6526C33.9844 27.5034 33.3497 30.5463 33.3162 31.2913C33.0492 33.8346 32.8938 36.5674 31.8115 39.2848C31.1554 41.4322 29.831 43.3123 27.2761 43.5618C27.4196 43.734 27.5557 43.9168 27.6848 44.1104M27.4204 43.9416C29.1114 46.737 28.7241 52.352 26.2587 60.7865C26.3377 62.278 26.0974 63.4075 25.538 64.1749M25.538 64.1749C28.625 70.9537 23.355 77.6102 25.5376 80.9983C26.8718 81.3567 27.363 82.0955 27.0117 83.2142C26.3734 84.1537 24.8713 84.4548 22.5048 84.1177C21.802 83.6373 21.4434 82.4683 21.4292 80.611C21.4006 82.4612 21.0381 83.63 20.3425 84.1177C17.9761 84.4548 16.4774 84.1537 15.8465 83.2142C15.4949 82.0955 15.9861 81.3569 17.3199 80.9983C19.5003 77.6732 14.2379 70.8933 17.3199 64.1749M25.538 64.1749C25.2727 64.5262 24.932 64.8024 24.5161 65.0031M17.3199 64.1749C16.7535 63.4075 16.4701 62.2316 16.4701 60.6467C14.0787 52.2999 13.7993 46.7316 15.6313 43.9416M17.3199 64.1749C17.5852 64.5262 17.9223 64.8024 18.331 65.0031" stroke="url(#paint24_linear_2065_748)" stroke-width="1.30781" stroke-linecap="round" stroke-linejoin="round"/>
</g>
<path d="M16.6527 64.5299C16.0002 63.7483 15.6739 62.547 15.6739 60.9264C12.6979 51.7762 12.5329 45.8849 15.179 43.2532C12.1766 43.119 11.4504 41.3609 10.6451 38.9262C9.4694 36.1588 8.6932 33.2353 8.40105 30.6234C8.3634 29.8736 7.5388 26.8125 7.62786 25.9457C7.33915 21.318 13.262 20.5065 15.9107 19.4595C16.936 18.9789 17.4487 18.3371 17.4487 17.534C17.4487 16.652 17.5096 15.1209 17.6316 12.9409H25.3656C25.3942 15.1209 25.4086 16.652 25.4086 17.534C25.4086 18.3371 25.9213 18.9791 26.9468 19.4595C29.5863 20.494 35.5399 21.3468 35.2293 25.9457C35.319 26.8123 34.5514 29.9315 34.5144 30.6813C34.2184 33.3011 34.026 36.0891 32.8482 38.8686C32.109 41.1352 30.6639 43.0503 27.9472 43.2532C30.4142 45.8849 30.113 51.8226 27.0437 61.0663C27.1368 62.5937 26.8571 63.7483 26.2046 64.5299M16.6527 64.5299C13.0699 71.5656 19.2111 78.4092 16.6527 81.7619C15.1037 82.1276 14.5336 82.8845 14.9424 84.0318C15.681 84.9928 17.4235 85.301 20.1701 84.9568C21.2488 84.2445 21.3865 82.7009 21.4287 81.3641C21.4502 83.2644 21.8697 84.462 22.6872 84.9568C25.4338 85.301 27.1764 84.9928 27.9149 84.0318C28.3237 82.8845 27.7536 82.1278 26.2042 81.7621C23.6443 78.3572 29.7922 71.6121 26.2046 64.5299M16.6527 64.5299C16.961 64.8956 17.3556 65.179 17.8359 65.3797M26.2046 64.5299C25.8963 64.8956 25.5018 65.179 25.0214 65.3797" stroke="url(#paint25_linear_2065_748)" stroke-width="1.30781" stroke-linecap="round" stroke-linejoin="round"/>
<path d="M9.85855 33.7898C11.2594 40.9454 15.5861 39.0338 13.7429 33.0671C12.9965 28.7254 8.77686 28.7241 9.85855 33.7898Z" fill="url(#paint26_radial_2065_748)"/>
<path d="M28.246 32.6075C26.5903 39.7127 32.0683 40.3158 32.8287 34.135C33.9284 29.8631 29.3355 27.5434 28.246 32.6075Z" fill="url(#paint27_radial_2065_748)"/>
<path d="M28.1084 20.6872C19.792 18.3114 19.7909 28.5772 26.5596 31.0009C34.8948 33.4192 37.2703 22.3912 28.1084 20.6872Z" fill="url(#paint28_radial_2065_748)"/>
<path d="M15.6416 19.9046C15.6416 19.9046 17.0006 22.1889 21.3091 22.1889C25.6176 22.1889 27.1499 19.7021 27.1499 19.7021" stroke="#404040" stroke-width="1.30781"/>
<path d="M16.4982 16.9869C16.4982 16.9869 16.7719 18.3401 15.3377 19.2962C13.9035 20.2524 8.71807 20.4183 7.28385 23.5258C6.58204 25.0465 6.46061 28.83 6.16922 33.2959C5.86517 37.9552 7.18298 41.9387 9.25781 44.746C11.7806 48.1589 14.6476 43.5161 14.6476 43.5161C14.6476 43.5161 11.7175 46.6274 11.1199 52.2448C10.5223 57.8621 11.1718 65.4417 10.9889 70.4809C10.7257 77.7359 8.76922 83.4825 10.0944 84.0213C11.4197 84.5601 17.1498 85.7254 21.811 85.1278C26.4723 84.5302 31.7937 84.5694 33.0572 84.2757C34.3208 83.9819 31.5451 76.1166 31.307 70.2418C31.1519 66.4129 31.4148 62.9821 31.4148 55.3329C31.4148 47.6837 27.6134 43.52 27.6134 43.52C27.6134 43.52 30.8727 46.3064 32.8878 45.2664C36.5928 43.3541 36.5658 38.5425 36.0877 32.4471C35.6656 27.064 35.7908 25.2222 34.8945 22.9513C33.9981 20.6805 27.9392 19.6414 27.2221 19.2829C26.505 18.9243 26.2158 16.397 26.2158 16.397L16.4982 16.9869Z" fill="url(#paint29_radial_2065_748)"/>
<g opacity="0.35">
<path d="M16.4983 18.2716C16.4983 18.2716 16.772 19.6248 15.3378 20.5809C13.9036 21.5371 9.41206 21.3559 7.97784 24.4633C7.27603 25.9841 7.27029 29.6519 6.97891 34.1178C6.67485 38.7771 7.41419 41.4306 9.48903 44.2379C12.0118 47.6508 14.6477 43.2973 14.6477 43.2973C14.6477 43.2973 12.2958 48.0278 11.6982 53.6451C11.1006 59.2625 11.1718 66.7264 10.989 71.7655C10.7258 79.0205 8.77407 83.4948 10.0993 84.0336C11.4245 84.5724 17.1547 85.7377 21.8159 85.1401C26.4771 84.5425 31.7988 84.5817 33.0623 84.2879C34.3259 83.9942 31.5452 77.4013 31.3071 71.5265C31.1519 67.6976 30.8366 64.8452 30.8366 57.196C30.8366 49.5469 26.8617 43.2432 26.8617 43.2432C26.8617 43.2432 30.8727 46.0875 32.8878 45.0475C36.5929 43.1352 35.5249 39.8272 35.0468 33.7317C34.6247 28.3486 34.9813 26.2755 34.0849 24.0046C33.1885 21.7338 27.9393 20.9261 27.2222 20.5675C26.5051 20.209 26.2158 17.6816 26.2158 17.6816L16.4983 18.2716Z" stroke="white" stroke-width="1.08984" stroke-linecap="round"/>
</g>
<path d="M16.4982 16.9869C16.4982 16.9869 16.7719 18.3401 15.3377 19.2962C13.9035 20.2524 8.71807 20.4183 7.28385 23.5258C6.58204 25.0465 6.46061 28.83 6.16922 33.2959C5.86517 37.9552 7.18298 41.9387 9.25781 44.746C11.7806 48.1589 14.6476 43.5161 14.6476 43.5161C14.6476 43.5161 11.7175 46.6274 11.1199 52.2448C10.5223 57.8621 11.1718 65.4417 10.9889 70.4809C10.7257 77.7359 8.76922 83.4825 10.0944 84.0213C11.4197 84.5601 17.1498 85.7254 21.811 85.1278C26.4723 84.5302 31.7937 84.5694 33.0572 84.2757C34.3208 83.9819 31.5451 76.1166 31.307 70.2418C31.1519 66.4129 31.4148 62.9821 31.4148 55.3329C31.4148 47.6837 27.6134 43.52 27.6134 43.52C27.6134 43.52 30.8727 46.3064 32.8878 45.2664C36.5928 43.3541 36.5658 38.5425 36.0877 32.4471C35.6656 27.064 35.7908 25.2222 34.8945 22.9513C33.9981 20.6805 27.9392 19.6414 27.2221 19.2829C26.505 18.9243 26.2158 16.397 26.2158 16.397L16.4982 16.9869Z" stroke="black" stroke-width="1.45312"/>
<path d="M13.8485 28.1748C13.8485 28.3483 13.5015 34.0735 13.5015 36.8494" stroke="black" stroke-width="1.08984" stroke-linecap="round" stroke-linejoin="round"/>
<path d="M28.6533 28.4053C28.6533 28.5788 29.4629 33.6103 29.4629 36.3862" stroke="black" stroke-width="1.08984" stroke-linecap="round" stroke-linejoin="round"/>
<path d="M13.4437 35.9238C13.4437 35.9238 12.0558 37.3698 11.1305 38.9311C10.3565 40.237 9.04849 43.6734 9.91596 45.1191C10.7834 46.5648 14.0221 45.6395 15.0053 43.6153C15.9884 41.5911 17.3763 39.2204 16.2774 37.1384C15.9719 36.5597 13.4437 35.9238 13.4437 35.9238Z" fill="url(#paint30_radial_2065_748)"/>
<path d="M13.4437 35.9238C13.4437 35.9238 12.0558 37.3698 11.1305 38.9311C10.3565 40.237 9.04849 43.6734 9.91596 45.1191C10.7834 46.5648 14.0221 45.6395 15.0053 43.6153C15.9884 41.5911 17.3763 39.2204 16.2774 37.1384C15.9719 36.5597 13.4437 35.9238 13.4437 35.9238Z" stroke="black" stroke-width="1.45312"/>
<path d="M29.5209 35.692C27.0921 34.8245 25.8199 38.8728 26.5138 41.3595C27.2078 43.8462 29.2319 45.1762 31.7765 45.5811C34.321 45.9861 34.6102 42.227 33.8006 39.9138C32.991 37.6007 31.9498 36.5594 29.5209 35.692Z" fill="url(#paint31_radial_2065_748)"/>
<path d="M29.5209 35.692C27.0921 34.8245 25.8199 38.8728 26.5138 41.3595C27.2078 43.8462 29.2319 45.1762 31.7765 45.5811C34.321 45.9861 34.6102 42.227 33.8006 39.9138C32.991 37.6007 31.9498 36.5594 29.5209 35.692Z" stroke="black" stroke-width="1.45312"/>
<path d="M15.022 44.6143H27.7794L27.7828 47.1771H15.0254L15.022 44.6143Z" fill="url(#paint32_linear_2065_748)"/>
<path d="M15.022 44.6143H27.7794L27.7828 47.1771H15.0254L15.022 44.6143Z" stroke="black" stroke-width="1.30781" stroke-linecap="round" stroke-linejoin="round"/>
<path d="M20.3976 85.1527C20.3976 85.1527 21.0323 77.1413 18.1708 72.2443C17.7937 65.6906 17.9993 47.3428 17.9993 47.3428H24.1769C24.1769 47.3428 24.7334 62.6835 24.8492 71.1268C24.9649 79.5702 20.3976 85.1527 20.3976 85.1527Z" fill="url(#paint33_linear_2065_748)"/>
<path d="M24.3331 50.3687L21.2784 50.3822L21.21 71.1596C21.21 71.1596 21.8072 72.1234 21.8763 75.8837C21.9454 79.644 20.6167 85.1108 20.6167 85.1108C21.0115 85.2379 24.6782 76.9632 24.6418 71.3928C24.6055 65.8223 24.3331 50.3687 24.3331 50.3687Z" fill="url(#paint34_linear_2065_748)"/>
<path d="M20.3796 58.083L20.4375 64.9649" stroke="#6C6C6C" stroke-width="0.980859" stroke-linecap="round" stroke-linejoin="round"/>
<path d="M20.5009 85.1688C20.5009 85.1688 21.1353 77.1574 18.2738 72.2604C17.8967 65.7068 18.1024 47.3589 18.1024 47.3589H24.2799C24.2799 47.3589 24.8365 62.6996 24.9522 71.143C25.068 79.5863 20.5009 85.1688 20.5009 85.1688Z" stroke="url(#paint35_linear_2065_748)" stroke-width="1.30781" stroke-linecap="round" stroke-linejoin="round"/>
<path d="M20.7308 32.222C18.8895 32.8666 18.4754 35.634 18.4754 37.8895C18.4754 40.145 18.3308 44.598 18.3308 44.598L24.1138 44.6557L23.8537 36.0389C23.8537 36.0389 24.7336 36.0632 24.8945 34.5351C25.0103 33.4362 23.0442 31.4125 20.7308 32.222Z" fill="url(#paint36_linear_2065_748)"/>
<path d="M20.7308 32.222C18.8895 32.8666 18.4754 35.634 18.4754 37.8895C18.4754 40.145 18.3308 44.598 18.3308 44.598L24.1138 44.6557L23.8537 36.0389C23.8537 36.0389 24.7336 36.0632 24.8945 34.5351C25.0103 33.4362 23.0442 31.4125 20.7308 32.222Z" stroke="black" stroke-width="0.980859"/>
<path d="M25.5055 35.1322C23.5822 33.9109 20.5481 33.4658 18.5029 34.675C17.9269 35.0892 17.6955 36.1235 17.8091 37.7783C17.9229 39.4316 20.2123 40.0734 24.6774 39.7038C25.7739 40.7158 26.7063 41.5225 27.4741 42.124C28.2417 42.7249 29.3064 42.8953 30.6687 42.635C32.0315 42.3753 32.7094 41.0882 32.7019 38.7733C32.6943 36.4579 30.2954 35.2441 25.5055 35.1322Z" fill="url(#paint37_linear_2065_748)"/>
<path d="M25.5055 35.1322C23.5822 33.9109 20.5481 33.4658 18.5029 34.675C17.9269 35.0892 17.6955 36.1235 17.8091 37.7783C17.9229 39.4316 20.2123 40.0734 24.6774 39.7038C25.7739 40.7158 26.7063 41.5225 27.4741 42.124C28.2417 42.7249 29.3064 42.8953 30.6687 42.635C32.0315 42.3753 32.7094 41.0882 32.7019 38.7733C32.6943 36.4579 30.2954 35.2441 25.5055 35.1322Z" stroke="url(#paint38_linear_2065_748)" stroke-width="1.30781" stroke-linecap="round" stroke-linejoin="round"/>
<path d="M20.1152 34.8199C18.3939 35.2011 19.2022 37.0848 19.7279 37.0949C20.5736 37.4075 23.2361 37.7033 24.1167 36.9013C25.1454 35.6058 21.0583 34.4552 20.1152 34.8199Z" fill="url(#paint39_linear_2065_748)"/>
<path d="M27.5156 36.6373C22.6338 34.998 25.7382 38.2186 27.1068 39.2191C28.2378 39.8544 30.8194 41.3601 31.2051 39.0468C30.5505 37.5415 29.81 37.3559 27.5156 36.6373Z" fill="url(#paint40_linear_2065_748)"/>
<path d="M17.1361 32.539C17.7866 31.8575 18.9443 30.9623 19.7714 30.6566C21.01 30.33 24.3891 29.2337 24.9452 31.1299C25.5977 35.3039 23.0202 35.6118 19.4918 35.271C16.6509 37.2268 18.7502 43.6093 13.6617 43.1502C12.307 43.0937 11.5613 42.1454 11.4245 40.3053C10.8694 36.7662 15.1013 34.1714 17.1361 32.539Z" fill="url(#paint41_linear_2065_748)"/>
<path d="M17.1361 32.539C17.7866 31.8575 18.9443 30.9623 19.7714 30.6566C21.01 30.33 24.3891 29.2337 24.9452 31.1299C25.5977 35.3039 23.0202 35.6118 19.4918 35.271C16.6509 37.2268 18.7502 43.6093 13.6617 43.1502C12.307 43.0937 11.5613 42.1454 11.4245 40.3053C10.8694 36.7662 15.1013 34.1714 17.1361 32.539Z" stroke="url(#paint42_linear_2065_748)" stroke-width="1.30781" stroke-linecap="round" stroke-linejoin="round"/>
<path d="M18.3838 33.8735C19.3547 31.0645 13.7109 36.9142 13.1453 37.5951C12.4756 39.954 15.1147 40.0162 16.6733 37.1973C17.2677 36.5169 17.9813 34.9427 18.3838 33.8735Z" fill="url(#paint43_linear_2065_748)"/>
<path d="M20.8047 31.26C19.5064 31.6356 19.0583 32.048 19.4601 32.497C23.697 34.7013 26.5806 29.7327 20.8047 31.26Z" fill="url(#paint44_linear_2065_748)"/>
<path d="M19.2022 1.43101C16.0793 3.05032 11.2272 8.9781 10.6489 12.795C10.3179 14.9799 12.4548 15.9529 14.2922 17.0168C16.4898 18.2891 17.9934 19.8505 17.9934 19.8505L23.739 19.223C23.739 19.223 31.6419 18.4625 30.6008 15.3396C29.5598 12.2167 29.0971 11.0021 28.2875 8.22621C27.478 5.45034 22.3251 -0.188303 19.2022 1.43101Z" fill="url(#paint45_radial_2065_748)"/>
<path d="M19.2022 1.43101C16.0793 3.05032 11.2272 8.9781 10.6489 12.795C10.3179 14.9799 12.4548 15.9529 14.2922 17.0168C16.4898 18.2891 17.9934 19.8505 17.9934 19.8505L23.739 19.223C23.739 19.223 31.6419 18.4625 30.6008 15.3396C29.5598 12.2167 29.0971 11.0021 28.2875 8.22621C27.478 5.45034 22.3251 -0.188303 19.2022 1.43101Z" stroke="url(#paint46_linear_2065_748)" stroke-width="1.30781"/>
<path d="M20.9772 0.86519C17.6514 0.635642 16.7966 2.63509 16.034 4.8017C15.4796 6.37669 14.5921 7.80819 14.699 9.66522C14.8472 11.0498 16.2794 13.3423 16.9035 15.2075C17.9384 18.3009 18.3411 22.3159 20.6093 22.8905C22.8299 23.3421 24.4322 18.8056 25.223 15.1455C26.9365 11.138 27.2922 7.8368 26.3621 5.11494C25.6183 2.93822 24.4606 0.834425 20.9772 0.86519Z" fill="url(#paint47_radial_2065_748)"/>
<path d="M22.514 15.3361C20.8396 13.8571 16.9362 18.2275 19.6493 20.5148C20.74 21.6466 21.4751 21.9323 22.5654 20.9909C23.7501 19.9221 23.9102 16.2575 22.514 15.3361Z" fill="url(#paint48_radial_2065_748)"/>
<path d="M20.3617 8.26029C20.0364 7.9335 16.5 8.67872 16.3454 9.50613C16.1907 10.3335 16.7692 11.2853 17.8149 11.264C19.4869 11.23 20.687 8.58708 20.3617 8.26029Z" fill="url(#paint49_radial_2065_748)"/>
<path d="M25.1057 9.17269C24.3164 9.11869 21.5756 7.43204 21.5222 8.24224C21.6849 9.61027 22.9088 11.1749 23.8906 11.198C25.2414 11.2296 25.895 9.22669 25.1057 9.17269Z" fill="url(#paint50_linear_2065_748)"/>
<path d="M23.8282 5.3539C23.2753 2.55545 18.3309 2.75789 18.0017 5.55613C18.938 6.77701 22.8992 7.0085 23.8282 5.3539Z" fill="url(#paint51_radial_2065_748)"/>
<path d="M20.9911 12.4157C20.1236 12.3578 19.5163 13.4856 19.7766 15.5386C19.93 16.7489 20.0948 20.9746 21.1935 20.9457C22.1767 20.9199 22.3083 17.1467 22.4079 15.9144C22.6392 13.0518 21.8585 12.4736 20.9911 12.4157Z" fill="url(#paint52_radial_2065_748)"/>
<path d="M20.9911 12.4157C20.1236 12.3578 19.5163 13.4856 19.7766 15.5386C19.93 16.7489 20.0948 20.9746 21.1935 20.9457C22.1767 20.9199 22.3083 17.1467 22.4079 15.9144C22.6392 13.0518 21.8585 12.4736 20.9911 12.4157Z" stroke="black" stroke-width="0.980859"/>
<path d="M26.4419 6.89572C24.8656 1.02279 19.4585 0.0396348 16.7512 4.61101" stroke="url(#paint53_linear_2065_748)" stroke-width="1.30781" stroke-linecap="round" stroke-linejoin="round"/>
<path d="M21.1679 22.9258C18.7819 22.9585 17.9059 18.6838 16.7945 15.8354C16.4092 14.8479 15.369 11.9475 15.1913 11.2236C14.8318 10.2181 14.0511 9.17702 15.5007 6.6023C16.2904 5.19963 15.9596 1.16739 20.9898 0.902344C25.8488 1.16739 25.6462 5.21555 27.0604 7.34731C27.7618 8.40469 27.2323 10.2316 26.7821 11.6091C26.417 12.7259 25.5444 13.9988 25.2742 15.1184C24.7211 17.3601 24.3812 22.8817 21.1679 22.9258Z" stroke="black" stroke-width="1.30781"/>
<path d="M17.7415 9.30256C17.7415 9.30256 19.2272 8.8639 19.3341 7.53223" stroke="url(#paint54_linear_2065_748)" stroke-width="1.63477" stroke-linecap="round" stroke-linejoin="round"/>
<path d="M24.1316 9.29609C24.1316 9.29609 22.4944 8.94542 22.3989 7.54297" stroke="url(#paint55_linear_2065_748)" stroke-width="1.63477" stroke-linecap="round" stroke-linejoin="round"/>
<path d="M20.5435 10.6585L20.8905 10.3403L21.2375 10.6873" stroke="#323232" stroke-width="0.980859" stroke-linecap="round" stroke-linejoin="round"/>
<path d="M19.9737 3.14767C19.1598 3.08765 18.8614 1.9853 18.8634 1.1792H18.8552C18.8547 1.97907 18.5531 3.08571 17.7449 3.14767V3.16273C18.5665 3.22125 18.8532 4.33413 18.8552 5.1312H18.8634C18.8621 4.33004 19.1473 3.21759 19.9737 3.16273V3.14767Z" fill="white"/>
<path d="M31.0136 24.4581C29.797 24.427 29.1708 22.9668 29.1923 21.7739H29.1785C29.1955 22.9561 28.5673 24.4239 27.3572 24.4581V24.4784C28.5858 24.5063 29.1944 25.983 29.1785 27.1626H29.1923C29.1708 25.9742 29.7794 24.5018 31.0136 24.4784V24.4581Z" fill="white"/>
<path d="M30.1964 40.4793C29.5065 40.4615 29.1511 39.6336 29.1634 38.957H29.1556C29.1653 39.6276 28.8088 40.46 28.1226 40.4793V40.4909C28.8194 40.5069 29.1647 41.3442 29.1556 42.0132H29.1634C29.1513 41.339 29.4964 40.5043 30.1964 40.4909V40.4793Z" fill="white"/>
<defs>
<linearGradient id="paint0_linear_2065_748" x1="3.70922" y1="100.877" x2="39.465" y2="100.877" gradientUnits="userSpaceOnUse">
<stop stop-color="#C98E28"/>
<stop offset="0.17" stop-color="#E1B13E"/>
<stop offset="0.34" stop-color="#FAD555"/>
<stop offset="0.67" stop-color="#CB9E34"/>
<stop offset="1" stop-color="#9C6612"/>
</linearGradient>
<linearGradient id="paint1_linear_2065_748" x1="1.76033" y1="104.107" x2="40.5861" y2="103.677" gradientUnits="userSpaceOnUse">
<stop stop-color="#7A3A00"/>
<stop offset="0.25" stop-color="#A87000"/>
<stop offset="0.5" stop-color="#D5A600"/>
<stop offset="0.74" stop-color="#AA7502"/>
<stop offset="0.99" stop-color="#7F4503"/>
</linearGradient>
<linearGradient id="paint2_linear_2065_748" x1="31.1588" y1="97.0095" x2="31.2066" y2="103.114" gradientUnits="userSpaceOnUse">
<stop stop-color="#A56D13"/>
<stop offset="0.49" stop-color="#CA9A2D"/>
<stop offset="0.99" stop-color="#F0C647"/>
</linearGradient>
<linearGradient id="paint3_linear_2065_748" x1="2.09407" y1="101.058" x2="40.6884" y2="101.206" gradientUnits="userSpaceOnUse">
<stop stop-color="#7A3A00"/>
<stop offset="0.25" stop-color="#A87000"/>
<stop offset="0.5" stop-color="#D5A600"/>
<stop offset="0.74" stop-color="#AA7502"/>
<stop offset="0.99" stop-color="#7F4503"/>
</linearGradient>
<linearGradient id="paint4_linear_2065_748" x1="3.65885" y1="93.332" x2="39.4147" y2="93.332" gradientUnits="userSpaceOnUse">
<stop stop-color="#C98E28"/>
<stop offset="0.17" stop-color="#E1B13E"/>
<stop offset="0.34" stop-color="#FAD555"/>
<stop offset="0.67" stop-color="#CB9E34"/>
<stop offset="1" stop-color="#9C6612"/>
</linearGradient>
<linearGradient id="paint5_linear_2065_748" x1="31.6262" y1="105.491" x2="32.0565" y2="86.2372" gradientUnits="userSpaceOnUse">
<stop stop-color="white" stop-opacity="0"/>
<stop offset="0.5" stop-color="white" stop-opacity="0.249"/>
<stop offset="1" stop-color="white" stop-opacity="0.498"/>
</linearGradient>
<linearGradient id="paint6_linear_2065_748" x1="2.58319" y1="94.6176" x2="40.6633" y2="94.6176" gradientUnits="userSpaceOnUse">
<stop stop-color="#884B09"/>
<stop offset="0.25" stop-color="#A15D14"/>
<stop offset="0.5" stop-color="#BA701F"/>
<stop offset="0.75" stop-color="#9F5D13"/>
<stop offset="1" stop-color="#844B06"/>
</linearGradient>
<linearGradient id="paint7_linear_2065_748" x1="4.06959" y1="91.1864" x2="38.0643" y2="90.7561" gradientUnits="userSpaceOnUse">
<stop stop-color="#A56D13"/>
<stop offset="0.49" stop-color="#CA9A2D"/>
<stop offset="0.99" stop-color="#F0C647"/>
</linearGradient>
<linearGradient id="paint8_linear_2065_748" x1="1.7227" y1="91.1864" x2="40.5485" y2="90.7561" gradientUnits="userSpaceOnUse">
<stop stop-color="#7A3A00"/>
<stop offset="0.25" stop-color="#A87000"/>
<stop offset="0.5" stop-color="#D5A600"/>
<stop offset="0.74" stop-color="#AA7502"/>
<stop offset="0.99" stop-color="#7F4503"/>
</linearGradient>
<linearGradient id="paint9_linear_2065_748" x1="6.72469" y1="86.6485" x2="38.0105" y2="86.6485" gradientUnits="userSpaceOnUse">
<stop stop-color="#B0B0B0"/>
<stop offset="0.13" stop-color="#BEBEBE"/>
<stop offset="0.25" stop-color="#CCCCCC"/>
<stop offset="0.44" stop-color="#B5B5B5"/>
<stop offset="0.62" stop-color="#9E9E9E"/>
<stop offset="0.74" stop-color="#B0B0B0"/>
<stop offset="0.85" stop-color="#C3C3C3"/>
<stop offset="0.93" stop-color="#D1D1D1"/>
<stop offset="1" stop-color="#DEDEDE"/>
</linearGradient>
<linearGradient id="paint10_linear_2065_748" x1="16.7822" y1="87.2837" x2="16.9913" y2="83.1152" gradientUnits="userSpaceOnUse">
<stop stop-color="#F0F0F0"/>
<stop offset="0.5" stop-color="#CBCBCB"/>
<stop offset="1" stop-color="#A6A6A6"/>
</linearGradient>
<linearGradient id="paint11_linear_2065_748" x1="21.0854" y1="82.7701" x2="21.1028" y2="88.8999" gradientUnits="userSpaceOnUse">
<stop stop-color="white" stop-opacity="0.5"/>
<stop offset="0.5" stop-color="white" stop-opacity="0.25"/>
<stop offset="1" stop-color="white" stop-opacity="0"/>
</linearGradient>
<linearGradient id="paint12_linear_2065_748" x1="38.198" y1="86.2154" x2="4.48057" y2="86.2317" gradientUnits="userSpaceOnUse">
<stop stop-color="#525252"/>
<stop offset="0.25" stop-color="#585858"/>
<stop offset="0.5" stop-color="#5F5F5F"/>
<stop offset="0.75" stop-color="#585858"/>
<stop offset="1" stop-color="#525252"/>
</linearGradient>
<radialGradient id="paint13_radial_2065_748" cx="0" cy="0" r="1" gradientUnits="userSpaceOnUse" gradientTransform="translate(21.4725 81.4422) scale(12.6726 61.981)">
<stop stop-color="#F4F4F4"/>
<stop offset="0.33" stop-color="#E8E8E8"/>
<stop offset="0.65" stop-color="#DCDCDC"/>
<stop offset="0.82" stop-color="#C6C5C5"/>
<stop offset="1" stop-color="#B1AFAF"/>
</radialGradient>
<linearGradient id="paint14_linear_2065_748" x1="19.0404" y1="61.0953" x2="17.5826" y2="50.9922" gradientUnits="userSpaceOnUse">
<stop stop-color="white"/>
<stop offset="0.5" stop-color="white" stop-opacity="0.5"/>
<stop offset="1" stop-color="white" stop-opacity="0"/>
</linearGradient>
<linearGradient id="paint15_linear_2065_748" x1="25.3119" y1="60.1277" x2="26.12" y2="50.4773" gradientUnits="userSpaceOnUse">
<stop stop-color="white"/>
<stop offset="0.5" stop-color="white" stop-opacity="0.5"/>
<stop offset="1" stop-color="white" stop-opacity="0"/>
</linearGradient>
<linearGradient id="paint16_linear_2065_748" x1="18.2334" y1="84.0012" x2="18.5116" y2="82.6508" gradientUnits="userSpaceOnUse">
<stop stop-color="white"/>
<stop offset="0.5" stop-color="white" stop-opacity="0.5"/>
<stop offset="1" stop-color="white" stop-opacity="0"/>
</linearGradient>
<linearGradient id="paint17_linear_2065_748" x1="25.0802" y1="83.786" x2="24.8743" y2="82.501" gradientUnits="userSpaceOnUse">
<stop stop-color="white"/>
<stop offset="0.5" stop-color="white" stop-opacity="0.5"/>
<stop offset="1" stop-color="white" stop-opacity="0"/>
</linearGradient>
<radialGradient id="paint18_radial_2065_748" cx="0" cy="0" r="1" gradientUnits="userSpaceOnUse" gradientTransform="translate(21.2673 48.2868) scale(24.444 24.444)">
<stop offset="0.44" stop-color="#CCCCCC"/>
<stop offset="0.72" stop-color="#A4A4A4"/>
<stop offset="1" stop-color="#7C7C7C"/>
</radialGradient>
<linearGradient id="paint19_linear_2065_748" x1="21.353" y1="22.6747" x2="21.2657" y2="18.0388" gradientUnits="userSpaceOnUse">
<stop stop-color="white" stop-opacity="0.35"/>
<stop offset="0.5" stop-color="white" stop-opacity="0.175"/>
<stop offset="1" stop-color="white" stop-opacity="0"/>
</linearGradient>
<linearGradient id="paint20_linear_2065_748" x1="23.6117" y1="19.5494" x2="19.533" y2="19.4216" gradientUnits="userSpaceOnUse">
<stop stop-color="white"/>
<stop offset="0.5" stop-color="white" stop-opacity="0.5"/>
<stop offset="1" stop-color="white" stop-opacity="0"/>
</linearGradient>
<linearGradient id="paint21_linear_2065_748" x1="17.4945" y1="29.601" x2="14.9293" y2="23.4379" gradientUnits="userSpaceOnUse">
<stop stop-color="#C3C3C3"/>
<stop offset="0.5" stop-color="#AFAFAF"/>
<stop offset="1" stop-color="#9B9B9B"/>
</linearGradient>
<linearGradient id="paint22_linear_2065_748" x1="27.5823" y1="29.5632" x2="25.0171" y2="23.4001" gradientUnits="userSpaceOnUse">
<stop stop-color="#BFBFBF"/>
<stop offset="0.5" stop-color="#9E9E9E"/>
<stop offset="1" stop-color="#7C7C7C"/>
</linearGradient>
<linearGradient id="paint23_linear_2065_748" x1="31.8416" y1="12.6504" x2="31.8416" y2="80.8208" gradientUnits="userSpaceOnUse">
<stop stop-color="white" stop-opacity="0.25"/>
<stop offset="0.17" stop-color="white" stop-opacity="0.403"/>
<stop offset="0.35" stop-color="white" stop-opacity="0.557"/>
<stop offset="0.46" stop-color="white" stop-opacity="0.378"/>
<stop offset="0.58" stop-color="white" stop-opacity="0.2"/>
<stop offset="0.7" stop-color="white" stop-opacity="0.35"/>
<stop offset="0.82" stop-color="white" stop-opacity="0.5"/>
<stop offset="0.91" stop-color="white" stop-opacity="0.299"/>
<stop offset="1" stop-color="white" stop-opacity="0.098"/>
</linearGradient>
<linearGradient id="paint24_linear_2065_748" x1="31.8416" y1="12.6504" x2="31.8416" y2="80.8208" gradientUnits="userSpaceOnUse">
<stop stop-color="white"/>
<stop offset="0.5" stop-color="white"/>
<stop offset="1" stop-color="white"/>
</linearGradient>
<linearGradient id="paint25_linear_2065_748" x1="14.6305" y1="78.1479" x2="28.2338" y2="17.6353" gradientUnits="userSpaceOnUse">
<stop stop-color="#525252"/>
<stop offset="0.5" stop-color="#464646"/>
<stop offset="1" stop-color="#3B3B3B"/>
</linearGradient>
<radialGradient id="paint26_radial_2065_748" cx="0" cy="0" r="1" gradientUnits="userSpaceOnUse" gradientTransform="translate(11.7388 32.9118) rotate(-14.4789) scale(1.43648 3.02665)">
<stop stop-color="white"/>
<stop offset="0.5" stop-color="white" stop-opacity="0.5"/>
<stop offset="1" stop-color="white" stop-opacity="0"/>
</radialGradient>
<radialGradient id="paint27_radial_2065_748" cx="0" cy="0" r="1" gradientUnits="userSpaceOnUse" gradientTransform="translate(30.3562 32.3909) rotate(8.791) scale(1.43648 3.02665)">
<stop stop-color="white"/>
<stop offset="0.5" stop-color="white" stop-opacity="0.5"/>
<stop offset="1" stop-color="white" stop-opacity="0"/>
</radialGradient>
<radialGradient id="paint28_radial_2065_748" cx="0" cy="0" r="1" gradientUnits="userSpaceOnUse" gradientTransform="translate(27.6409 25.0709) scale(6.44211)">
<stop stop-color="white"/>
<stop offset="0.5" stop-color="white" stop-opacity="0.5"/>
<stop offset="1" stop-color="white" stop-opacity="0"/>
</radialGradient>
<radialGradient id="paint29_radial_2065_748" cx="0" cy="0" r="1" gradientUnits="userSpaceOnUse" gradientTransform="translate(22.7555 21.972) scale(64.6901 64.6901)">
<stop offset="0.44" stop-color="#706E6E"/>
<stop offset="0.72" stop-color="#5C5B5B"/>
<stop offset="1" stop-color="#484848"/>
</radialGradient>
<radialGradient id="paint30_radial_2065_748" cx="0" cy="0" r="1" gradientUnits="userSpaceOnUse" gradientTransform="translate(20.4424 60.372) scale(23.9036 23.9036)">
<stop stop-color="#585858"/>
<stop offset="0.5" stop-color="#2C2C2C"/>
<stop offset="1"/>
</radialGradient>
<radialGradient id="paint31_radial_2065_748" cx="0" cy="0" r="1" gradientUnits="userSpaceOnUse" gradientTransform="translate(20.4426 60.3715) scale(23.9036 23.9036)">
<stop stop-color="#585858"/>
<stop offset="0.5" stop-color="#2C2C2C"/>
<stop offset="1"/>
</radialGradient>
<linearGradient id="paint32_linear_2065_748" x1="19.1484" y1="50.7948" x2="24.5913" y2="50.3646" gradientUnits="userSpaceOnUse">
<stop stop-color="#BDBDBD"/>
<stop offset="0.5" stop-color="#C0C0C0"/>
<stop offset="1" stop-color="#C3C3C3"/>
</linearGradient>
<linearGradient id="paint33_linear_2065_748" x1="19.794" y1="86.5162" x2="21.1547" y2="50.8471" gradientUnits="userSpaceOnUse">
<stop stop-color="#939393"/>
<stop offset="0.5" stop-color="#A1A1A1"/>
<stop offset="1" stop-color="#AFAFAF"/>
</linearGradient>
<linearGradient id="paint34_linear_2065_748" x1="24.837" y1="66.6026" x2="20.5139" y2="66.7186" gradientUnits="userSpaceOnUse">
<stop stop-color="#9E9E9E"/>
<stop offset="0.5" stop-color="#CFCFCF"/>
<stop offset="1" stop-color="white"/>
</linearGradient>
<linearGradient id="paint35_linear_2065_748" x1="20.0089" y1="85.9033" x2="28.3292" y2="44.3664" gradientUnits="userSpaceOnUse">
<stop stop-color="#242424"/>
<stop offset="0.5" stop-color="#121212"/>
<stop offset="1"/>
</linearGradient>
<linearGradient id="paint36_linear_2065_748" x1="18.4891" y1="41.9727" x2="23.9254" y2="42.0885" gradientUnits="userSpaceOnUse">
<stop stop-color="#444444"/>
<stop offset="0.24" stop-color="#565656"/>
<stop offset="0.49" stop-color="#686868"/>
<stop offset="0.74" stop-color="#4E4E4E"/>
<stop offset="1" stop-color="#343434"/>
</linearGradient>
<linearGradient id="paint37_linear_2065_748" x1="32.0606" y1="36.6048" x2="19.6958" y2="40.8913" gradientUnits="userSpaceOnUse">
<stop stop-color="#BCBABA"/>
<stop offset="0.5" stop-color="#CDCCCC"/>
<stop offset="1" stop-color="#DEDEDE"/>
</linearGradient>
<linearGradient id="paint38_linear_2065_748" x1="19.7937" y1="40.8401" x2="30.7009" y2="34.7518" gradientUnits="userSpaceOnUse">
<stop stop-color="#202020"/>
<stop offset="0.5" stop-color="#101010"/>
<stop offset="1"/>
</linearGradient>
<linearGradient id="paint39_linear_2065_748" x1="21.622" y1="35.4063" x2="23.2282" y2="37.1055" gradientUnits="userSpaceOnUse">
<stop stop-color="white" stop-opacity="0"/>
<stop offset="0.5" stop-color="white" stop-opacity="0.5"/>
<stop offset="1" stop-color="white"/>
</linearGradient>
<linearGradient id="paint40_linear_2065_748" x1="30.7381" y1="38.7226" x2="25.0472" y2="37.0093" gradientUnits="userSpaceOnUse">
<stop stop-color="white" stop-opacity="0"/>
<stop offset="0.5" stop-color="white" stop-opacity="0.5"/>
<stop offset="1" stop-color="white"/>
</linearGradient>
<linearGradient id="paint41_linear_2065_748" x1="13.7369" y1="42.2884" x2="24.0922" y2="30.4376" gradientUnits="userSpaceOnUse">
<stop stop-color="#A9A9A9"/>
<stop offset="0.5" stop-color="#C0C0C0"/>
<stop offset="1" stop-color="#D6D6D6"/>
</linearGradient>
<linearGradient id="paint42_linear_2065_748" x1="13.3936" y1="43.3677" x2="23.7656" y2="30.0927" gradientUnits="userSpaceOnUse">
<stop/>
<stop offset="0.5" stop-color="#171717"/>
<stop offset="1" stop-color="#2E2E2E"/>
</linearGradient>
<linearGradient id="paint43_linear_2065_748" x1="18.503" y1="33.6506" x2="13.7361" y2="38.9935" gradientUnits="userSpaceOnUse">
<stop stop-color="white" stop-opacity="0"/>
<stop offset="0.5" stop-color="white" stop-opacity="0.5"/>
<stop offset="1" stop-color="white"/>
</linearGradient>
<linearGradient id="paint44_linear_2065_748" x1="19.7398" y1="31.2247" x2="23.4407" y2="33.0533" gradientUnits="userSpaceOnUse">
<stop stop-color="white" stop-opacity="0"/>
<stop offset="0.5" stop-color="white" stop-opacity="0.5"/>
<stop offset="1" stop-color="white"/>
</linearGradient>
<radialGradient id="paint45_radial_2065_748" cx="0" cy="0" r="1" gradientUnits="userSpaceOnUse" gradientTransform="translate(22.3062 -1.8629) scale(22.9505)">
<stop/>
<stop offset="0.5" stop-color="#383737"/>
<stop offset="1" stop-color="#706E6E"/>
</radialGradient>
<linearGradient id="paint46_linear_2065_748" x1="22.7689" y1="-1.40037" x2="20.5713" y2="22.0793" gradientUnits="userSpaceOnUse">
<stop stop-color="#141414"/>
<stop offset="0.5" stop-color="#0A0A0A"/>
<stop offset="1"/>
</linearGradient>
<radialGradient id="paint47_radial_2065_748" cx="0" cy="0" r="1" gradientUnits="userSpaceOnUse" gradientTransform="translate(21.4331 10.6961) scale(7.47749 10.5329)">
<stop stop-color="#CBCBCB"/>
<stop offset="0.46" stop-color="#B6B6B6"/>
<stop offset="0.91" stop-color="#A0A0A0"/>
</radialGradient>
<radialGradient id="paint48_radial_2065_748" cx="0" cy="0" r="1" gradientUnits="userSpaceOnUse" gradientTransform="translate(21.5304 16.2307) scale(2.85485)">
<stop stop-color="white"/>
<stop offset="0.5" stop-color="white" stop-opacity="0.5"/>
<stop offset="1" stop-color="white" stop-opacity="0"/>
</radialGradient>
<radialGradient id="paint49_radial_2065_748" cx="0" cy="0" r="1" gradientUnits="userSpaceOnUse" gradientTransform="translate(18.7181 10.8961) scale(2.38618)">
<stop stop-color="white"/>
<stop offset="0.5" stop-color="white" stop-opacity="0.5"/>
<stop offset="1" stop-color="white" stop-opacity="0"/>
</radialGradient>
<linearGradient id="paint50_linear_2065_748" x1="26.2138" y1="10.4179" x2="23.5333" y2="9.98783" gradientUnits="userSpaceOnUse">
<stop stop-color="white" stop-opacity="0"/>
<stop offset="0.24" stop-color="white" stop-opacity="0.394"/>
<stop offset="0.48" stop-color="white" stop-opacity="0.788"/>
<stop offset="0.74" stop-color="white" stop-opacity="0.733"/>
<stop offset="1" stop-color="white" stop-opacity="0.678"/>
</linearGradient>
<radialGradient id="paint51_radial_2065_748" cx="0" cy="0" r="1" gradientUnits="userSpaceOnUse" gradientTransform="translate(21.6372 7.56569) scale(2.44867)">
<stop stop-color="white"/>
<stop offset="0.5" stop-color="white" stop-opacity="0.5"/>
<stop offset="1" stop-color="white" stop-opacity="0"/>
</radialGradient>
<radialGradient id="paint52_radial_2065_748" cx="0" cy="0" r="1" gradientUnits="userSpaceOnUse" gradientTransform="translate(-33.559 -2.90352) scale(21.5133)">
<stop offset="0.44" stop-color="#706E6E"/>
<stop offset="0.72" stop-color="#5C5B5B"/>
<stop offset="1" stop-color="#484848"/>
</radialGradient>
<linearGradient id="paint53_linear_2065_748" x1="19.256" y1="0.316081" x2="27.8506" y2="2.80066" gradientUnits="userSpaceOnUse">
<stop stop-opacity="0.22"/>
<stop offset="0.29" stop-opacity="0.61"/>
<stop offset="0.58"/>
<stop offset="0.79" stop-opacity="0.5"/>
<stop offset="1" stop-opacity="0"/>
</linearGradient>
<linearGradient id="paint54_linear_2065_748" x1="24.1236" y1="8.00337" x2="24.2312" y2="10.3322" gradientUnits="userSpaceOnUse">
<stop stop-color="#323232"/>
<stop offset="0.5" stop-color="#484848"/>
<stop offset="1" stop-color="#5F5F5F"/>
</linearGradient>
<linearGradient id="paint55_linear_2065_748" x1="24.1234" y1="8.00335" x2="24.231" y2="10.3322" gradientUnits="userSpaceOnUse">
<stop stop-color="#323232"/>
<stop offset="0.5" stop-color="#484848"/>
<stop offset="1" stop-color="#5F5F5F"/>
</linearGradient>
</defs>
</svg>
