<svg width="102" height="105" viewBox="0 0 102 105" fill="none" xmlns="http://www.w3.org/2000/svg">
<path d="M67.339 17.7281C66.8016 19.4843 64.9423 20.4724 63.1861 19.935C61.43 19.3975 60.4418 17.5382 60.9793 15.7821C61.5167 14.026 63.3761 13.0378 65.1322 13.5752C66.8883 14.1127 67.8765 15.972 67.339 17.7281Z" fill="url(#paint0_linear_59_30825)"/>
<path d="M67.339 17.7281C66.8016 19.4843 64.9423 20.4724 63.1861 19.935C61.43 19.3975 60.4418 17.5382 60.9793 15.7821C61.5167 14.026 63.3761 13.0378 65.1322 13.5752C66.8883 14.1127 67.8765 15.972 67.339 17.7281Z" stroke="#600000" stroke-width="1.639" stroke-linecap="round" stroke-linejoin="round"/>
<path d="M65.9797 16.6821C65.7018 17.5903 64.7402 18.1012 63.8321 17.8233C62.9239 17.5454 62.413 16.5839 62.6908 15.6757C62.9687 14.7675 63.9303 14.2566 64.8385 14.5345C65.7466 14.8124 66.2576 15.7739 65.9797 16.6821Z" fill="url(#paint1_linear_59_30825)"/>
<path d="M73.8425 21.3971C73.305 23.1532 71.4457 24.1414 69.6896 23.6039C67.9334 23.0665 66.9452 21.2072 67.4827 19.451C68.0201 17.6949 69.8795 16.7067 71.6356 17.2442C73.3917 17.7816 74.3799 19.641 73.8425 21.3971Z" fill="url(#paint2_linear_59_30825)"/>
<path d="M73.8425 21.3971C73.305 23.1532 71.4457 24.1414 69.6896 23.6039C67.9334 23.0665 66.9452 21.2072 67.4827 19.451C68.0201 17.6949 69.8795 16.7067 71.6356 17.2442C73.3917 17.7816 74.3799 19.641 73.8425 21.3971Z" stroke="#600000" stroke-width="1.639" stroke-linecap="round" stroke-linejoin="round"/>
<path d="M72.4909 20.3261C72.213 21.2343 71.2515 21.7452 70.3433 21.4674C69.4351 21.1895 68.9242 20.2279 69.2021 19.3198C69.48 18.4116 70.4415 17.9006 71.3497 18.1785C72.2579 18.4564 72.7688 19.418 72.4909 20.3261Z" fill="url(#paint3_linear_59_30825)"/>
<path d="M79.934 24.5387C79.3966 26.2948 77.5372 27.283 75.7811 26.7455C74.025 26.2081 73.0368 24.3488 73.5743 22.5926C74.1117 20.8365 75.971 19.8483 77.7272 20.3858C79.4833 20.9232 80.4715 22.7826 79.934 24.5387Z" fill="url(#paint4_linear_59_30825)"/>
<path d="M79.934 24.5387C79.3966 26.2948 77.5372 27.283 75.7811 26.7455C74.025 26.2081 73.0368 24.3488 73.5743 22.5926C74.1117 20.8365 75.971 19.8483 77.7272 20.3858C79.4833 20.9232 80.4715 22.7826 79.934 24.5387Z" stroke="#600000" stroke-width="1.639" stroke-linecap="round" stroke-linejoin="round"/>
<path d="M78.6606 23.5151C78.3827 24.4233 77.4212 24.9342 76.513 24.6563C75.6048 24.3784 75.0939 23.4169 75.3718 22.5087C75.6496 21.6005 76.6112 21.0896 77.5194 21.3675C78.4275 21.6454 78.9385 22.6069 78.6606 23.5151Z" fill="url(#paint5_linear_59_30825)"/>
<path d="M62.7599 13.0187C62.2225 14.7748 60.3632 15.763 58.607 15.2255C56.8509 14.6881 55.8627 12.8287 56.4002 11.0726C56.9376 9.31649 58.797 8.3283 60.5531 8.86575C62.3092 9.40321 63.2974 11.2625 62.7599 13.0187Z" fill="url(#paint6_linear_59_30825)"/>
<path d="M62.7599 13.0187C62.2225 14.7748 60.3632 15.763 58.607 15.2255C56.8509 14.6881 55.8627 12.8287 56.4002 11.0726C56.9376 9.31649 58.797 8.3283 60.5531 8.86575C62.3092 9.40321 63.2974 11.2625 62.7599 13.0187Z" stroke="#600000" stroke-width="1.639" stroke-linecap="round" stroke-linejoin="round"/>
<path d="M61.5222 12.0053C61.2443 12.9135 60.2827 13.4244 59.3746 13.1466C58.4664 12.8687 57.9554 11.9071 58.2333 10.999C58.5112 10.0908 59.4728 9.57984 60.3809 9.85773C61.2891 10.1356 61.8 11.0972 61.5222 12.0053Z" fill="url(#paint7_linear_59_30825)"/>
<path d="M59.3953 13.9509C58.9084 16.7124 56.1399 18.5324 53.2117 18.0161C50.2835 17.4998 48.3045 14.8427 48.7914 12.0811C49.2784 9.31961 52.0468 7.49961 54.975 8.01592C57.9032 8.53224 59.8822 11.1893 59.3953 13.9509Z" stroke="#FF6400" stroke-width="6.96575" stroke-miterlimit="10"/>
<path d="M59.3953 13.9509C58.9084 16.7124 56.1399 18.5324 53.2117 18.0161C50.2835 17.4998 48.3045 14.8427 48.7914 12.0811C49.2784 9.31961 52.0468 7.49961 54.975 8.01592C57.9032 8.53224 59.8822 11.1893 59.3953 13.9509Z" stroke="#FFCA08" stroke-width="3.07313" stroke-miterlimit="10"/>
<path d="M95.9003 41.2599C93.3825 45.1201 87.6004 49.4966 80.0776 44.5901C74.7887 41.1405 73.2977 34.0565 76.7473 28.7676C80.1969 23.4787 87.2811 21.9876 92.5701 25.4372C97.859 28.8868 99.3499 35.9709 95.9003 41.2599Z" stroke="#7D0000" stroke-width="6.96575" stroke-linecap="round" stroke-linejoin="round"/>
<path d="M95.9002 41.26C93.3824 45.1203 87.2564 49.4952 80.0777 44.5902C74.864 41.0278 73.2977 34.0566 76.7473 28.7677C80.1969 23.4788 87.2811 21.9877 92.57 25.4373C97.8589 28.8869 99.3498 35.971 95.9002 41.26Z" stroke="url(#paint8_linear_59_30825)" stroke-width="3.68775" stroke-linecap="round" stroke-linejoin="round"/>
<path d="M92.5698 25.4375C97.8588 28.8871 99.3499 35.9711 95.9003 41.26" stroke="url(#paint9_linear_59_30825)" stroke-width="3.68775" stroke-linecap="round" stroke-linejoin="round"/>
<path d="M92.6417 41.2876L100.213 36.3016" stroke="#7D0000" stroke-width="1.639" stroke-linecap="round" stroke-linejoin="round"/>
<path d="M84.9066 22.1934C84.553 24.1992 82.6405 25.5383 80.6348 25.1846C78.6291 24.831 77.2899 22.9185 77.6436 20.9128C77.9973 18.9071 79.9097 17.5679 81.9155 17.9216C83.9212 18.2752 85.2603 20.1877 84.9066 22.1934Z" fill="url(#paint10_linear_59_30825)"/>
<path d="M84.9066 22.1934C84.553 24.1992 82.6405 25.5383 80.6348 25.1846C78.6291 24.831 77.2899 22.9185 77.6436 20.9128C77.9973 18.9071 79.9097 17.5679 81.9155 17.9216C83.9212 18.2752 85.2603 20.1877 84.9066 22.1934Z" stroke="#7D0000" stroke-width="1.639" stroke-linecap="round" stroke-linejoin="round"/>
<path d="M77.6439 20.9126C77.9975 18.9069 79.9098 17.5679 81.9155 17.9215" stroke="#FF0000" stroke-width="1.639" stroke-linecap="round" stroke-linejoin="round"/>
<path d="M82.3034 20.6289C82.136 21.578 81.2308 22.2118 80.2817 22.0445C79.3326 21.8771 78.6988 20.9719 78.8662 20.0228C79.0335 19.0737 79.9387 18.4399 80.8878 18.6072C81.8369 18.7746 82.4707 19.6798 82.3034 20.6289Z" fill="url(#paint11_radial_59_30825)"/>
<path d="M80.8647 15.0265C80.511 17.0322 78.5985 18.3713 76.5928 18.0176C74.5871 17.664 73.2479 15.7515 73.6016 13.7458C73.9553 11.7401 75.8677 10.4009 77.8735 10.7546C79.8792 11.1083 81.2183 13.0207 80.8647 15.0265Z" fill="url(#paint12_linear_59_30825)"/>
<path d="M80.8647 15.0265C80.511 17.0322 78.5985 18.3713 76.5928 18.0176C74.5871 17.664 73.2479 15.7515 73.6016 13.7458C73.9553 11.7401 75.8677 10.4009 77.8735 10.7546C79.8792 11.1083 81.2183 13.0207 80.8647 15.0265Z" stroke="#7E0000" stroke-width="1.639" stroke-linecap="round" stroke-linejoin="round"/>
<path d="M73.6016 13.7456C73.9553 11.7399 75.8675 10.4009 77.8733 10.7546" stroke="#FF0000" stroke-width="1.639" stroke-linecap="round" stroke-linejoin="round"/>
<path d="M78.2614 13.4614C78.094 14.4105 77.1888 15.0443 76.2397 14.877C75.2906 14.7096 74.6568 13.8044 74.8242 12.8553C74.9915 11.9062 75.8967 11.2724 76.8458 11.4398C77.7949 11.6071 78.4287 12.5123 78.2614 13.4614Z" fill="url(#paint13_radial_59_30825)"/>
<path d="M88.3524 28.7921C87.9988 30.7978 86.0863 32.1369 84.0806 31.7833C82.0749 31.4296 80.7357 29.5171 81.0894 27.5114C81.4431 25.5057 83.3555 24.1666 85.3613 24.5202C87.367 24.8739 88.7061 26.7864 88.3524 28.7921Z" fill="url(#paint14_linear_59_30825)"/>
<path d="M88.3525 28.7921C87.9988 30.7978 86.0863 32.1369 84.0806 31.7833C82.0749 31.4296 80.7357 29.5171 81.0894 27.5114C81.4431 25.5057 83.3555 24.1666 85.3613 24.5202C87.367 24.8739 88.7061 26.7864 88.3525 28.7921Z" stroke="#7E0000" stroke-width="1.639" stroke-linecap="round" stroke-linejoin="round"/>
<path d="M81.0897 27.5112C81.4433 25.5055 83.3556 24.1665 85.3613 24.5202" stroke="#FF0000" stroke-width="1.639" stroke-linecap="round" stroke-linejoin="round"/>
<path d="M85.7492 27.2275C85.5818 28.1766 84.6766 28.8104 83.7275 28.6431C82.7784 28.4757 82.1446 27.5705 82.312 26.6214C82.4793 25.6724 83.3845 25.0385 84.3336 25.2059C85.2827 25.3732 85.9165 26.2784 85.7492 27.2275Z" fill="url(#paint15_radial_59_30825)"/>
<path d="M67.1525 5.91219C66.7988 7.91792 64.8864 9.25705 62.8806 8.90338C60.8749 8.54972 59.5358 6.63725 59.8895 4.63152C60.2431 2.6258 62.1556 1.28667 64.1613 1.64033C66.167 1.994 67.5062 3.90647 67.1525 5.91219Z" fill="url(#paint16_linear_59_30825)"/>
<path d="M67.1525 5.91219C66.7988 7.91792 64.8864 9.25705 62.8806 8.90338C60.8749 8.54972 59.5358 6.63725 59.8895 4.63152C60.2431 2.6258 62.1556 1.28667 64.1613 1.64033C66.167 1.994 67.5062 3.90647 67.1525 5.91219Z" stroke="#7E0000" stroke-width="1.639" stroke-linecap="round" stroke-linejoin="round"/>
<path d="M59.89 4.63132C60.2436 2.6256 62.1559 1.28664 64.1616 1.6403" stroke="#FF0000" stroke-width="1.639" stroke-linecap="round" stroke-linejoin="round"/>
<path d="M64.5492 4.34764C64.3819 5.29673 63.4767 5.93056 62.5276 5.76321C61.5785 5.59586 60.9447 4.69065 61.112 3.74156C61.2794 2.79247 62.1846 2.15864 63.1337 2.32599C64.0827 2.49334 64.7166 3.39855 64.5492 4.34764Z" fill="url(#paint17_radial_59_30825)"/>
<path d="M58.7306 7.95126C58.377 9.95698 56.4645 11.2961 54.4588 10.9424C52.453 10.5888 51.1139 8.67631 51.4676 6.67059C51.8212 4.66487 53.7337 3.32574 55.7394 3.6794C57.7452 4.03306 59.0843 5.94554 58.7306 7.95126Z" fill="url(#paint18_linear_59_30825)"/>
<path d="M58.7306 7.95126C58.377 9.95698 56.4645 11.2961 54.4588 10.9424C52.453 10.5888 51.1139 8.67631 51.4676 6.67059C51.8212 4.66487 53.7337 3.32574 55.7394 3.6794C57.7452 4.03306 59.0843 5.94554 58.7306 7.95126Z" stroke="#7E0000" stroke-width="1.639" stroke-linecap="round" stroke-linejoin="round"/>
<path d="M51.4676 6.67038C51.8213 4.66466 53.7335 3.3257 55.7392 3.67936" stroke="#FF0000" stroke-width="1.639" stroke-linecap="round" stroke-linejoin="round"/>
<path d="M56.1271 6.3867C55.9598 7.33579 55.0545 7.96963 54.1055 7.80228C53.1564 7.63493 52.5225 6.72972 52.6899 5.78063C52.8572 4.83153 53.7624 4.1977 54.7115 4.36505C55.6606 4.5324 56.2945 5.43761 56.1271 6.3867Z" fill="url(#paint19_radial_59_30825)"/>
<path d="M74.8905 9.3326C74.5369 11.3383 72.6244 12.6775 70.6187 12.3238C68.613 11.9701 67.2738 10.0577 67.6275 8.05193C67.9811 6.04621 69.8936 4.70708 71.8993 5.06075C73.9051 5.41441 75.2442 7.32688 74.8905 9.3326Z" fill="url(#paint20_linear_59_30825)"/>
<path d="M74.8905 9.3326C74.5369 11.3383 72.6244 12.6775 70.6187 12.3238C68.613 11.9701 67.2738 10.0577 67.6275 8.05193C67.9811 6.04621 69.8936 4.70708 71.8993 5.06075C73.9051 5.41441 75.2442 7.32688 74.8905 9.3326Z" stroke="#7E0000" stroke-width="1.639" stroke-linecap="round" stroke-linejoin="round"/>
<path d="M67.6278 8.05173C67.9814 6.04601 69.8937 4.70705 71.8994 5.06071" stroke="#FF0000" stroke-width="1.639" stroke-linecap="round" stroke-linejoin="round"/>
<path d="M72.2873 7.76756C72.1199 8.71665 71.2147 9.35049 70.2656 9.18314C69.3165 9.01579 68.6827 8.11058 68.85 7.16148C69.0174 6.21239 69.9226 5.57856 70.8717 5.74591C71.8208 5.91326 72.4546 6.81847 72.2873 7.76756Z" fill="url(#paint21_radial_59_30825)"/>
<path d="M39.0167 96.2341C55.2073 98.2655 70.5784 91.5783 78.2365 74.5845C89.6673 49.2192 74.8725 15.9217 50.4637 13.2523C23.9397 10.3516 5.96079 42.7751 8.06886 66.9921C9.74738 86.2758 24.6195 94.4278 39.0167 96.2341Z" fill="#2D0675"/>
<path d="M35.3804 62.1706L35.6352 60.5634L37.0537 60.7883L37.2421 59.6L38.7195 59.8342L38.5122 61.1415L39.8974 61.3612L39.6454 62.9504L42.6931 63.4336L42.9451 61.8444L44.3161 62.0617L45.9237 51.9225L44.5526 51.7051L45.2553 47.2726L43.6393 47.0164L43.8839 45.4733L42.4523 45.2463L42.7012 43.6763L39.7461 43.2078L39.9595 41.8619L34.0467 40.9245L33.8333 42.2704L30.8782 41.8018L30.6293 43.3718L29.1977 43.1448L28.9531 44.688L27.337 44.4317L26.6342 48.8642L25.2631 48.6468L23.6556 58.7861L25.0267 59.0035L24.7747 60.5927L27.8224 61.0759L28.0744 59.4867L29.4595 59.7063L29.6668 58.399L31.1442 58.6332L30.9558 59.8215L32.3743 60.0464L32.1195 61.6536L35.3804 62.1706Z" fill="#FF4C06"/>
<path d="M33.3627 54.3548L27.3583 53.4028L28.3103 47.3984L34.3147 48.3504L33.3627 54.3548Z" fill="white"/>
<path d="M33.5925 52.9075L30.6972 52.4485L31.1562 49.5532L34.0515 50.0123L33.5925 52.9075Z" fill="black"/>
<path d="M42.5361 55.8094L36.5317 54.8574L37.4836 48.853L43.488 49.805L42.5361 55.8094Z" fill="white"/>
<path d="M42.7658 54.3621L39.8706 53.9031L40.3296 51.0078L43.2248 51.4668L42.7658 54.3621Z" fill="black"/>
<path d="M37.2385 27.4814L44.913 28.6981C45.4566 28.7843 45.8273 29.2947 45.7411 29.8383L44.5541 37.3253C44.46 37.9183 44.8646 38.4753 45.4576 38.5694L46.3884 38.7169C46.9814 38.811 47.5384 38.4064 47.6325 37.8134L48.8195 30.3264C48.9057 29.7828 49.4161 29.4121 49.9597 29.4983L57.3829 30.6752C57.9759 30.7692 58.5329 30.3646 58.627 29.7716L58.7355 29.0871C58.8295 28.4941 58.4249 27.9371 57.832 27.8431L37.6875 24.6492C37.0946 24.5552 36.5375 24.9598 36.4435 25.5528L36.335 26.2373C36.241 26.8303 36.6455 27.3874 37.2385 27.4814Z" stroke="#2957FF" stroke-width="0.993474" stroke-miterlimit="10"/>
<path d="M23.9305 44.2199L25.1472 36.5455C25.2334 36.0019 25.7438 35.6312 26.2874 35.7174L33.7744 36.9044C34.3674 36.9984 34.9244 36.5939 35.0185 36.0009L35.166 35.07C35.2601 34.477 34.8555 33.92 34.2625 33.826L26.7755 32.639C26.2319 32.5528 25.8612 32.0424 25.9474 31.4988L27.1243 24.0755C27.2183 23.4826 26.8137 22.9255 26.2207 22.8315L25.5362 22.723C24.9432 22.629 24.3862 23.0335 24.2922 23.6265L21.0984 43.7709C21.0043 44.3639 21.4089 44.9209 22.0019 45.0149L22.6865 45.1235C23.2794 45.2175 23.8365 44.8129 23.9305 44.2199Z" stroke="#2957FF" stroke-width="0.993474" stroke-miterlimit="10"/>
<path d="M65.3152 50.7808L66.5319 43.1064C66.6181 42.5628 66.2474 42.0524 65.7038 41.9662L58.2168 40.7792C57.6238 40.6851 57.2192 40.1281 57.3133 39.5351L57.4608 38.6043C57.5548 38.0113 58.1119 37.6067 58.7049 37.7007L66.1919 38.8878C66.7355 38.974 67.2459 38.6032 67.3321 38.0596L68.509 30.6364C68.603 30.0434 69.16 29.6389 69.753 29.7329L70.4376 29.8414C71.0306 29.9354 71.4351 30.4924 71.3411 31.0854L68.1473 51.2298C68.0533 51.8228 67.4963 52.2274 66.9033 52.1334L66.2187 52.0248C65.6257 51.9308 65.2212 51.3738 65.3152 50.7808Z" stroke="#2957FF" stroke-width="0.993474" stroke-miterlimit="10"/>
<path d="M30.027 72.9672L37.7015 74.1839C38.245 74.2701 38.7555 73.8994 38.8417 73.3558L40.0287 65.8688C40.1227 65.2758 40.6797 64.8712 41.2727 64.9652L42.2036 65.1128C42.7965 65.2068 43.2011 65.7638 43.1071 66.3568L41.9201 73.8438C41.8339 74.3874 42.2046 74.8979 42.7482 74.984L50.1714 76.161C50.7644 76.255 51.169 76.812 51.075 77.405L50.9664 78.0895C50.8724 78.6825 50.3154 79.0871 49.7224 78.9931L29.578 75.7993C28.985 75.7053 28.5804 75.1482 28.6745 74.5553L28.783 73.8707C28.877 73.2777 29.434 72.8731 30.027 72.9672Z" stroke="#2957FF" stroke-width="0.993474" stroke-miterlimit="10"/>
<path d="M22.5488 52.933L21.3321 60.6074C21.2459 61.151 21.6166 61.6614 22.1602 61.7476L29.6472 62.9346C30.2402 63.0286 30.6448 63.5857 30.5508 64.1786L30.4032 65.1095C30.3092 65.7025 29.7522 66.107 29.1592 66.013L21.6722 64.826C21.1286 64.7398 20.6181 65.1105 20.532 65.6541L19.355 73.0774C19.261 73.6703 18.704 74.0749 18.111 73.9809L17.4265 73.8724C16.8335 73.7784 16.4289 73.2213 16.5229 72.6283L19.7167 52.4839C19.8107 51.891 20.3678 51.4864 20.9607 51.5804L21.6453 51.6889C22.2383 51.7829 22.6429 52.34 22.5488 52.933Z" stroke="#2957FF" stroke-width="0.993474" stroke-miterlimit="10"/>
<path d="M63.9338 59.4948L62.7171 67.1692C62.6309 67.7128 62.1205 68.0836 61.5769 67.9974L54.0898 66.8103C53.4969 66.7163 52.9398 67.1209 52.8458 67.7139L52.6982 68.6447C52.6042 69.2377 53.0088 69.7947 53.6018 69.8887L61.0888 71.0758C61.6324 71.162 62.0031 71.6724 61.9169 72.216L60.74 79.6392C60.646 80.2322 61.0505 80.7892 61.6435 80.8832L62.3281 80.9918C62.9211 81.0858 63.4781 80.6812 63.5721 80.0882L66.7659 59.9438C66.8599 59.3508 66.4554 58.7938 65.8624 58.6998L65.1778 58.5913C64.5848 58.4973 64.0278 58.9018 63.9338 59.4948Z" stroke="#2957FF" stroke-width="0.993474" stroke-miterlimit="10"/>
<path d="M29.9358 31.5661L28.5504 31.3464L28.77 29.9609L30.1555 30.1806L29.9358 31.5661Z" fill="#F9F8ED"/>
<path d="M30.3787 28.7721L28.9932 28.5525L29.2129 27.167L30.5984 27.3867L30.3787 28.7721Z" fill="#F9F8ED"/>
<path d="M30.8389 25.8693L29.4534 25.6496L29.6731 24.2642L31.0586 24.4838L30.8389 25.8693Z" fill="#F9F8ED"/>
<path d="M31.2994 22.966L29.9139 22.7463L30.1335 21.3608L31.519 21.5805L31.2994 22.966Z" fill="#F9F8ED"/>
<path d="M28.021 22.446L26.6356 22.2263L26.8552 20.8408L28.2407 21.0605L28.021 22.446Z" fill="#F9F8ED"/>
<path d="M20.117 29.903L18.7315 29.6833L18.9512 28.2979L20.3367 28.5175L20.117 29.903Z" fill="#F9F8ED"/>
<path d="M19.668 32.735L18.2825 32.5154L18.5022 31.1299L19.8877 31.3495L19.668 32.735Z" fill="#F9F8ED"/>
<path d="M19.219 35.5666L17.8336 35.3469L18.0532 33.9614L19.4387 34.1811L19.219 35.5666Z" fill="#F9F8ED"/>
<path d="M18.7701 38.3991L17.3846 38.1794L17.6042 36.7939L18.9897 37.0136L18.7701 38.3991Z" fill="#F9F8ED"/>
<path d="M18.3211 41.2311L16.9356 41.0115L17.1553 39.626L18.5408 39.8456L18.3211 41.2311Z" fill="#F9F8ED"/>
<path d="M17.8719 44.0631L16.4864 43.8435L16.7061 42.458L18.0915 42.6777L17.8719 44.0631Z" fill="#F9F8ED"/>
<path d="M17.4229 46.8952L16.0374 46.6755L16.2571 45.29L17.6426 45.5097L17.4229 46.8952Z" fill="#F9F8ED"/>
<path d="M16.9739 49.7272L15.5884 49.5076L15.8081 48.1221L17.1936 48.3417L16.9739 49.7272Z" fill="#F9F8ED"/>
<path d="M16.5249 52.5592L15.1395 52.3396L15.3591 50.9541L16.7446 51.1738L16.5249 52.5592Z" fill="#F9F8ED"/>
<path d="M16.076 55.3913L14.6905 55.1716L14.9102 53.7861L16.2956 54.0058L16.076 55.3913Z" fill="#F9F8ED"/>
<path d="M74.4732 38.2336L73.0877 38.0139L73.3074 36.6284L74.6929 36.8481L74.4732 38.2336Z" fill="#F9F8ED"/>
<path d="M74.0242 41.0651L72.6387 40.8454L72.8584 39.46L74.2439 39.6796L74.0242 41.0651Z" fill="#F9F8ED"/>
<path d="M73.5752 43.8971L72.1898 43.6775L72.4094 42.292L73.7949 42.5117L73.5752 43.8971Z" fill="#F9F8ED"/>
<path d="M73.1263 46.7297L71.7408 46.51L71.9604 45.1245L73.3459 45.3442L73.1263 46.7297Z" fill="#F9F8ED"/>
<path d="M72.677 49.5612L71.2916 49.3415L71.5112 47.9561L72.8967 48.1757L72.677 49.5612Z" fill="#F9F8ED"/>
<path d="M72.2281 52.3937L70.8426 52.1741L71.0623 50.7886L72.4477 51.0082L72.2281 52.3937Z" fill="#F9F8ED"/>
<path d="M71.7791 55.2257L70.3936 55.0061L70.6133 53.6206L71.9988 53.8403L71.7791 55.2257Z" fill="#F9F8ED"/>
<path d="M15.627 58.2238L14.2415 58.0041L14.4612 56.6187L15.8467 56.8383L15.627 58.2238Z" fill="#F9F8ED"/>
<path d="M15.1778 61.0553L13.7923 60.8357L14.012 59.4502L15.3974 59.6699L15.1778 61.0553Z" fill="#F9F8ED"/>
<path d="M14.7288 63.8874L13.3433 63.6677L13.563 62.2822L14.9485 62.5019L14.7288 63.8874Z" fill="#F9F8ED"/>
<path d="M14.2798 66.7199L12.8944 66.5002L13.114 65.1147L14.4995 65.3344L14.2798 66.7199Z" fill="#F9F8ED"/>
<path d="M13.8309 69.5514L12.4454 69.3318L12.665 67.9463L14.0505 68.166L13.8309 69.5514Z" fill="#F9F8ED"/>
<path d="M13.3819 72.384L11.9964 72.1643L12.2161 70.7788L13.6015 70.9985L13.3819 72.384Z" fill="#F9F8ED"/>
<path d="M12.9327 75.2155L11.5472 74.9958L11.7668 73.6104L13.1523 73.83L12.9327 75.2155Z" fill="#F9F8ED"/>
<path d="M16.3187 75.7526L14.9332 75.5329L15.1528 74.1475L16.5383 74.3671L16.3187 75.7526Z" fill="#F9F8ED"/>
<path d="M19.7044 76.2897L18.3189 76.0701L18.5386 74.6846L19.9241 74.9042L19.7044 76.2897Z" fill="#F9F8ED"/>
<path d="M23.0909 76.8263L21.7054 76.6067L21.925 75.2212L23.3105 75.4409L23.0909 76.8263Z" fill="#F9F8ED"/>
<path d="M26.4769 77.363L25.0914 77.1433L25.311 75.7578L26.6965 75.9775L26.4769 77.363Z" fill="#F9F8ED"/>
<path d="M29.8626 77.9001L28.4771 77.6804L28.6968 76.2949L30.0823 76.5146L29.8626 77.9001Z" fill="#F9F8ED"/>
<path d="M36.1707 78.9001L34.7852 78.6804L35.0049 77.2949L36.3904 77.5146L36.1707 78.9001Z" fill="#F9F8ED"/>
<path d="M33.0169 78.4001L31.6314 78.1804L31.8511 76.7949L33.2366 77.0146L33.0169 78.4001Z" fill="#F9F8ED"/>
<path d="M39.5569 79.4367L38.1715 79.217L38.3911 77.8315L39.7766 78.0512L39.5569 79.4367Z" fill="#F9F8ED"/>
<path d="M42.9427 79.9738L41.5572 79.7541L41.7769 78.3687L43.1623 78.5883L42.9427 79.9738Z" fill="#F9F8ED"/>
<path d="M46.3284 80.5104L44.9429 80.2908L45.1626 78.9053L46.5481 79.1249L46.3284 80.5104Z" fill="#F9F8ED"/>
<path d="M50.315 81.1423L48.9295 80.9226L49.1492 79.5371L50.5346 79.7568L50.315 81.1423Z" fill="#F9F8ED"/>
<path d="M53.4405 81.6379L52.055 81.4182L52.2747 80.0327L53.6601 80.2524L53.4405 81.6379Z" fill="#F9F8ED"/>
<path d="M56.5657 82.1335L55.1802 81.9138L55.3999 80.5283L56.7854 80.748L56.5657 82.1335Z" fill="#F9F8ED"/>
<path d="M57.0525 79.0627L55.6671 78.843L55.8867 77.4575L57.2722 77.6772L57.0525 79.0627Z" fill="#F9F8ED"/>
<path d="M57.6126 75.5304L56.2271 75.3108L56.4468 73.9253L57.8323 74.145L57.6126 75.5304Z" fill="#F9F8ED"/>
<path d="M51.3658 74.5397L49.9803 74.3201L50.2 72.9346L51.5854 73.1542L51.3658 74.5397Z" fill="#F9F8ED"/>
<path d="M54.3404 75.0114L52.9549 74.7917L53.1746 73.4062L54.56 73.6259L54.3404 75.0114Z" fill="#F9F8ED"/>
<path d="M48.3304 74.0588L46.9449 73.8391L47.1646 72.4536L48.55 72.6733L48.3304 74.0588Z" fill="#F9F8ED"/>
<path d="M33.1246 32.0719L31.7391 31.8523L31.9587 30.4668L33.3442 30.6865L33.1246 32.0719Z" fill="#F9F8ED"/>
<path d="M36.3133 32.5773L34.9278 32.3576L35.1475 30.9722L36.5329 31.1918L36.3133 32.5773Z" fill="#F9F8ED"/>
<path d="M39.5022 33.0827L38.1168 32.863L38.3364 31.4775L39.7219 31.6972L39.5022 33.0827Z" fill="#F9F8ED"/>
<path d="M51.9231 35.0524L50.5377 34.8327L50.7573 33.4473L52.1428 33.6669L51.9231 35.0524Z" fill="#F9F8ED"/>
<path d="M55.1121 35.5578L53.7266 35.3381L53.9463 33.9526L55.3318 34.1723L55.1121 35.5578Z" fill="#F9F8ED"/>
<path d="M58.3006 36.0636L56.9151 35.844L57.1348 34.4585L58.5202 34.6782L58.3006 36.0636Z" fill="#F9F8ED"/>
<path d="M61.4895 36.569L60.1041 36.3493L60.3237 34.9639L61.7092 35.1835L61.4895 36.569Z" fill="#F9F8ED"/>
<path d="M39.0264 36.0841L37.6409 35.8645L37.8606 34.479L39.2461 34.6987L39.0264 36.0841Z" fill="#F9F8ED"/>
<g opacity="0.6">
<path d="M39.0167 96.2341C55.2073 98.2655 70.5784 91.5783 78.2365 74.5845C89.6673 49.2192 74.8725 15.9217 50.4637 13.2523C23.9397 10.3516 5.96079 42.7751 8.06886 66.9921C9.74738 86.2758 24.6195 94.4278 39.0167 96.2341Z" fill="url(#paint22_linear_59_30825)"/>
</g>
<g opacity="0.8">
<mask id="mask0_59_30825" style="mask-type:luminance" maskUnits="userSpaceOnUse" x="11" y="20" width="65" height="67">
<path d="M49.3489 20.6016C66.7795 23.6751 78.3386 40.8767 75.1448 58.9896C71.951 77.1025 55.2057 89.3133 37.7751 86.2398C20.3446 83.1663 8.78545 65.9647 11.9792 47.8518C15.173 29.739 31.9184 17.5281 49.3489 20.6016Z" fill="url(#paint23_radial_59_30825)"/>
</mask>
<g mask="url(#mask0_59_30825)">
<path d="M49.3489 20.6016C66.7795 23.6751 78.3386 40.8767 75.1448 58.9896C71.951 77.1025 55.2057 89.3133 37.7751 86.2398C20.3446 83.1663 8.78545 65.9647 11.9792 47.8518C15.173 29.739 31.9184 17.5281 49.3489 20.6016Z" fill="url(#paint24_radial_59_30825)"/>
</g>
</g>
<g opacity="0.4">
<path d="M49.3426 18.6864C20.6602 16.2281 13.2848 35.4862 9.59709 46.7543C5.90934 58.0224 10.3491 74.7701 33.1576 80.661C64.0936 88.651 75.2594 63.0418 75.2594 63.0418C75.2594 63.0418 62.9669 81.7877 36.2307 76.0513C9.40773 70.2962 14.5141 49.0079 14.5141 49.0079C14.5141 49.0079 22.0442 20.9472 47.0891 25.4473C73.3129 30.1593 75.4642 61.4026 75.4642 61.4026C75.4642 61.4026 78.0251 21.1448 49.3426 18.6864Z" fill="#0D030A"/>
</g>
<path d="M54.4323 13.0744C31.8548 7.1796 13.3477 28.6967 8.09589 52.7565C2.84254 76.8138 14.2689 90.4956 34.2937 95.5028C54.3165 100.51 75.6706 90.4762 81.2773 66.1903C86.8865 41.9028 73.4478 18.0364 54.4323 13.0744ZM32.6713 79.1667C5.5396 71.6717 11.1162 47.9089 11.1162 47.9089C11.1162 47.9089 21.2832 14.6351 49.0429 20.9498C78.9295 27.7486 75.5295 62.2346 75.5295 62.2346C75.5295 62.2346 68.5949 89.09 32.6713 79.1667Z" fill="url(#paint25_linear_59_30825)"/>
<path d="M16.1494 33.1606C16.1494 33.1606 -9.87658 82.7268 35.8622 91.8893C80.539 100.839 83.8374 48.9523 78.2176 35.7263C89.017 52.8959 80.5836 106.981 34.2936 95.5026C-13.3622 83.6855 16.1494 33.1606 16.1494 33.1606Z" fill="url(#paint26_linear_59_30825)"/>
<path d="M56.2363 79.0597C50.6403 81.8292 46.5816 87.2485 47.4457 91.287C48.3097 95.3254 57.3893 95.9815 63.2956 92.2224C69.2018 88.4634 73.2154 83.1051 71.3126 78.8499C69.4098 74.5947 60.3069 77.0452 56.2363 79.0597Z" fill="url(#paint27_radial_59_30825)"/>
<path d="M67.7033 22.9277C65.279 23.9492 65.5492 28.5827 69.5555 31.9078C71.412 33.4486 73.6948 32.8707 73.6948 32.8707L71.9065 27.4654L76.5972 31.2544C76.5972 31.2544 72.2129 21.0274 67.7033 22.9277Z" fill="#210A13"/>
<path d="M35.605 15.4616C37.1933 17.5589 34.5581 20.4453 29.4956 21.6609C27.1496 22.2241 25.8404 21.7395 25.8404 21.7395L30.3674 18.257L25.8228 20.5659C25.8228 20.5659 34.0577 13.4185 35.605 15.4616Z" fill="#210A13"/>
<path d="M28.1961 22.2974C26.6455 20.9086 38.0387 11.8687 51.8782 14.3463C66.5165 16.9668 78.5533 33.4724 74.9285 37.1978C71.3036 40.9231 63.5731 23.1762 49.5357 20.2304C34.0457 16.9797 31.0796 24.8799 28.1961 22.2974Z" fill="white" fill-opacity="0.4"/>
<path d="M54.4323 13.0744C31.8548 7.1796 13.3477 28.6967 8.09589 52.7565C2.84254 76.8138 14.2689 90.4956 34.2937 95.5028C54.3165 100.51 75.6706 90.4762 81.2773 66.1903C86.8865 41.9028 73.4478 18.0364 54.4323 13.0744ZM32.6713 79.1667C5.5396 71.6717 11.1162 47.9089 11.1162 47.9089C11.1162 47.9089 21.2832 14.6351 49.0429 20.9498C78.9295 27.7486 75.5295 62.2346 75.5295 62.2346C75.5295 62.2346 68.5949 89.09 32.6713 79.1667Z" stroke="#FF9700" stroke-width="1.86624" stroke-linecap="round" stroke-linejoin="round"/>
<defs>
<linearGradient id="paint0_linear_59_30825" x1="66.3678" y1="13.2435" x2="63.025" y2="20.455" gradientUnits="userSpaceOnUse">
<stop stop-color="#D60000"/>
<stop offset="0.5" stop-color="#A70000"/>
<stop offset="1" stop-color="#770000"/>
</linearGradient>
<linearGradient id="paint1_linear_59_30825" x1="64.0922" y1="18.3269" x2="65.0326" y2="15.2542" gradientUnits="userSpaceOnUse">
<stop stop-color="#FF2222" stop-opacity="0"/>
<stop offset="0.55" stop-color="#FF2222" stop-opacity="0.5"/>
<stop offset="1" stop-color="#FF2222"/>
</linearGradient>
<linearGradient id="paint2_linear_59_30825" x1="73.6177" y1="15.614" x2="70.2751" y2="22.8255" gradientUnits="userSpaceOnUse">
<stop stop-color="#D60000"/>
<stop offset="0.5" stop-color="#A70000"/>
<stop offset="1" stop-color="#770000"/>
</linearGradient>
<linearGradient id="paint3_linear_59_30825" x1="71.1594" y1="21.2846" x2="72.0996" y2="18.2119" gradientUnits="userSpaceOnUse">
<stop stop-color="#FF2222" stop-opacity="0"/>
<stop offset="0.55" stop-color="#FF2222" stop-opacity="0.5"/>
<stop offset="1" stop-color="#FF2222"/>
</linearGradient>
<linearGradient id="paint4_linear_59_30825" x1="80.2722" y1="17.6551" x2="76.9296" y2="24.8666" gradientUnits="userSpaceOnUse">
<stop stop-color="#D60000"/>
<stop offset="0.5" stop-color="#A70000"/>
<stop offset="1" stop-color="#770000"/>
</linearGradient>
<linearGradient id="paint5_linear_59_30825" x1="77.7" y1="23.7081" x2="78.6404" y2="20.6354" gradientUnits="userSpaceOnUse">
<stop stop-color="#FF2222" stop-opacity="0"/>
<stop offset="0.55" stop-color="#FF2222" stop-opacity="0.5"/>
<stop offset="1" stop-color="#FF2222"/>
</linearGradient>
<linearGradient id="paint6_linear_59_30825" x1="60.1208" y1="11.1851" x2="56.7782" y2="18.3966" gradientUnits="userSpaceOnUse">
<stop stop-color="white"/>
<stop offset="1"/>
</linearGradient>
<linearGradient id="paint7_linear_59_30825" x1="59.0977" y1="14.2792" x2="60.0381" y2="11.2065" gradientUnits="userSpaceOnUse">
<stop stop-color="#FF2222" stop-opacity="0"/>
<stop offset="0.55" stop-color="#FF2222" stop-opacity="0.5"/>
<stop offset="1" stop-color="#FF2222"/>
</linearGradient>
<linearGradient id="paint8_linear_59_30825" x1="74.9281" y1="27.9271" x2="97.1699" y2="42.4339" gradientUnits="userSpaceOnUse">
<stop stop-color="#A90000"/>
<stop offset="0.47" stop-color="#D20000"/>
<stop offset="1" stop-color="#FB0000"/>
</linearGradient>
<linearGradient id="paint9_linear_59_30825" x1="87.673" y1="25.9621" x2="100.338" y2="34.2229" gradientUnits="userSpaceOnUse">
<stop stop-color="white"/>
<stop offset="0.47" stop-color="white" stop-opacity="0.5"/>
<stop offset="1" stop-color="white" stop-opacity="0"/>
</linearGradient>
<linearGradient id="paint10_linear_59_30825" x1="80.0105" y1="19.2286" x2="82.2782" y2="24.3568" gradientUnits="userSpaceOnUse">
<stop stop-color="#A80000"/>
<stop offset="0.47" stop-color="#D30000"/>
<stop offset="1" stop-color="#FF0000"/>
</linearGradient>
<radialGradient id="paint11_radial_59_30825" cx="0" cy="0" r="1" gradientUnits="userSpaceOnUse" gradientTransform="translate(80.4382 20.3443) rotate(9.99999) scale(1.74492)">
<stop stop-color="white"/>
<stop offset="0.5" stop-color="white" stop-opacity="0.5"/>
<stop offset="1" stop-color="white" stop-opacity="0"/>
</radialGradient>
<linearGradient id="paint12_linear_59_30825" x1="76.8363" y1="11.992" x2="78.0629" y2="17.5677" gradientUnits="userSpaceOnUse">
<stop stop-color="#A80000"/>
<stop offset="0.47" stop-color="#D30000"/>
<stop offset="1" stop-color="#FF0000"/>
</linearGradient>
<radialGradient id="paint13_radial_59_30825" cx="0" cy="0" r="1" gradientUnits="userSpaceOnUse" gradientTransform="translate(76.497 13.1998) rotate(9.99999) scale(1.74513)">
<stop stop-color="white"/>
<stop offset="0.5" stop-color="white" stop-opacity="0.5"/>
<stop offset="1" stop-color="white" stop-opacity="0"/>
</radialGradient>
<linearGradient id="paint14_linear_59_30825" x1="83.4175" y1="25.862" x2="85.6852" y2="30.9902" gradientUnits="userSpaceOnUse">
<stop stop-color="#A80000"/>
<stop offset="0.47" stop-color="#D30000"/>
<stop offset="1" stop-color="#FF0000"/>
</linearGradient>
<radialGradient id="paint15_radial_59_30825" cx="0" cy="0" r="1" gradientUnits="userSpaceOnUse" gradientTransform="translate(83.845 26.9777) rotate(9.99999) scale(1.74513)">
<stop stop-color="white"/>
<stop offset="0.5" stop-color="white" stop-opacity="0.5"/>
<stop offset="1" stop-color="white" stop-opacity="0"/>
</radialGradient>
<linearGradient id="paint16_linear_59_30825" x1="62.2772" y1="2.99529" x2="64.5449" y2="8.12378" gradientUnits="userSpaceOnUse">
<stop stop-color="#A80000"/>
<stop offset="0.47" stop-color="#D30000"/>
<stop offset="1" stop-color="#FF0000"/>
</linearGradient>
<radialGradient id="paint17_radial_59_30825" cx="0" cy="0" r="1" gradientUnits="userSpaceOnUse" gradientTransform="translate(62.7049 4.11106) rotate(9.99999) scale(1.74492)">
<stop stop-color="white"/>
<stop offset="0.5" stop-color="white" stop-opacity="0.5"/>
<stop offset="1" stop-color="white" stop-opacity="0"/>
</radialGradient>
<linearGradient id="paint18_linear_59_30825" x1="53.8038" y1="5.03754" x2="56.0715" y2="10.1658" gradientUnits="userSpaceOnUse">
<stop stop-color="#A80000"/>
<stop offset="0.47" stop-color="#D30000"/>
<stop offset="1" stop-color="#FF0000"/>
</linearGradient>
<radialGradient id="paint19_radial_59_30825" cx="0" cy="0" r="1" gradientUnits="userSpaceOnUse" gradientTransform="translate(54.231 6.15327) rotate(9.99999) scale(1.74513)">
<stop stop-color="white"/>
<stop offset="0.5" stop-color="white" stop-opacity="0.5"/>
<stop offset="1" stop-color="white" stop-opacity="0"/>
</radialGradient>
<linearGradient id="paint20_linear_59_30825" x1="70.0277" y1="6.2344" x2="72.2954" y2="11.3627" gradientUnits="userSpaceOnUse">
<stop stop-color="#A80000"/>
<stop offset="0.47" stop-color="#D30000"/>
<stop offset="1" stop-color="#FF0000"/>
</linearGradient>
<radialGradient id="paint21_radial_59_30825" cx="0" cy="0" r="1" gradientUnits="userSpaceOnUse" gradientTransform="translate(70.4198 7.55144) rotate(9.99999) scale(1.74492)">
<stop stop-color="white"/>
<stop offset="0.5" stop-color="white" stop-opacity="0.5"/>
<stop offset="1" stop-color="white" stop-opacity="0"/>
</radialGradient>
<linearGradient id="paint22_linear_59_30825" x1="51.8439" y1="89.2593" x2="29.5117" y2="24.2207" gradientUnits="userSpaceOnUse">
<stop stop-color="white" stop-opacity="0"/>
<stop offset="0.5" stop-color="white" stop-opacity="0.5"/>
<stop offset="1" stop-color="white"/>
</linearGradient>
<radialGradient id="paint23_radial_59_30825" cx="0" cy="0" r="1" gradientUnits="userSpaceOnUse" gradientTransform="translate(43.562 53.4207) rotate(9.99999) scale(32.5216 32.5216)">
<stop stop-color="white" stop-opacity="0"/>
<stop offset="0.86" stop-color="white" stop-opacity="0.5"/>
<stop offset="0.96" stop-color="white"/>
</radialGradient>
<radialGradient id="paint24_radial_59_30825" cx="0" cy="0" r="1" gradientUnits="userSpaceOnUse" gradientTransform="translate(43.562 53.4207) rotate(9.99999) scale(32.5216 32.5216)">
<stop/>
<stop offset="0.5"/>
<stop offset="1"/>
</radialGradient>
<linearGradient id="paint25_linear_59_30825" x1="55.8798" y1="13.194" x2="35.6839" y2="96.1389" gradientUnits="userSpaceOnUse">
<stop stop-color="#FFFF00"/>
<stop offset="0.5" stop-color="#F9E300"/>
<stop offset="1" stop-color="#F4C800"/>
</linearGradient>
<linearGradient id="paint26_linear_59_30825" x1="36.1056" y1="95.4557" x2="51.8486" y2="29.328" gradientUnits="userSpaceOnUse">
<stop stop-color="#E6FF8C"/>
<stop offset="0.5" stop-color="#E6FF8C" stop-opacity="0.5"/>
<stop offset="1" stop-color="#E6FF8C" stop-opacity="0"/>
</linearGradient>
<radialGradient id="paint27_radial_59_30825" cx="0" cy="0" r="1" gradientUnits="userSpaceOnUse" gradientTransform="translate(59.4831 85.5648) rotate(13.095) scale(12.8467)">
<stop stop-color="#FFAC3A"/>
<stop offset="0.56" stop-color="#FFAC3A" stop-opacity="0.5"/>
<stop offset="1" stop-color="#FFAC3A" stop-opacity="0"/>
</radialGradient>
</defs>
</svg>
