<svg width="71" height="119" viewBox="0 0 71 119" fill="none" xmlns="http://www.w3.org/2000/svg">
<path d="M65.3521 33.3274C73.6913 -13.3324 44.861 50.7761 40.367 64.6308C36.0796 77.6401 21.2821 115.274 27.337 117.766C35.0686 121.248 62.4495 49.9176 65.3521 33.3274Z" fill="url(#paint0_linear_59_34291)"/>
<path d="M65.3521 33.3274C73.6913 -13.3324 44.861 50.7761 40.367 64.6308C36.0796 77.6401 21.2821 115.274 27.337 117.766C35.0686 121.248 62.4495 49.9176 65.3521 33.3274Z" stroke="url(#paint1_linear_59_34291)" stroke-width="1.78307" stroke-linecap="round" stroke-linejoin="round"/>
<path d="M61.2197 37.8335C71.6818 -4.06965 47.4942 52.1768 43.2479 64.465C39.2225 75.9982 26.225 109.179 29.338 111.914C33.276 115.679 57.5351 52.7371 61.2197 37.8335Z" fill="url(#paint2_linear_59_34291)"/>
<path d="M61.2197 37.8335C71.6818 -4.06965 47.4942 52.1768 43.2479 64.465C39.2225 75.9982 26.225 109.179 29.338 111.914C33.276 115.679 57.5351 52.7371 61.2197 37.8335Z" stroke="url(#paint3_linear_59_34291)" stroke-width="1.77543" stroke-linecap="round" stroke-linejoin="round"/>
<path d="M63.6497 34.3393C71.9889 -12.3206 45.5712 48.9159 41.0772 62.7706C36.7898 75.7797 22.1073 112.61 28.1621 115.102C35.873 116.078 60.6892 47.2599 63.6497 34.3393Z" stroke="url(#paint4_linear_59_34291)" stroke-width="1.11442" stroke-linecap="round" stroke-linejoin="round"/>
<path d="M55.7663 67.1767C55.1454 66.9594 37.6229 59.89 36.0233 61.3799C30.5934 73.5097 28.798 83.0423 29.1854 84.0285C29.8218 84.5186 46.0515 90.5557 47.0917 90.0294C51.6644 80.8968 55.6832 67.1025 55.7663 67.1767Z" fill="url(#paint5_linear_59_34291)"/>
<path d="M55.7663 67.1767C55.1454 66.9594 37.6229 59.89 36.0233 61.3799C30.5934 73.5097 28.798 83.0423 29.1854 84.0285C29.8218 84.5186 46.0515 90.5557 47.0917 90.0294C51.6644 80.8968 55.6832 67.1025 55.7663 67.1767Z" stroke="url(#paint6_linear_59_34291)" stroke-width="1.78307" stroke-linecap="round" stroke-linejoin="round"/>
<path d="M35.4362 92.7625L4.5761 80.2451C1.54533 94.5779 1.92356 104.302 3.39527 107.707C5.08294 110.277 20.9373 116.136 27.3678 118.283C27.9457 111.77 29.0559 104.092 35.4362 92.7625Z" fill="url(#paint7_linear_59_34291)"/>
<path d="M4.62848 82.4346L33.413 94.1993" stroke="#2C2E31" stroke-opacity="0.35" stroke-width="2.25113" stroke-linecap="round" stroke-linejoin="round"/>
<path d="M5.56865 81.7017C5.56865 81.7017 1.29173 93.7327 3.26916 107.513" stroke="url(#paint8_radial_59_34291)" stroke-width="1.78307" stroke-linecap="round" stroke-linejoin="round"/>
<path d="M26.9082 117.709C23.5224 117.055 6.00193 110.104 3.23683 108.042C1.0617 103.441 1.23399 91.0902 4.63364 80.1304L35.3212 92.5903C31.8518 100.339 30.4732 104.934 29.269 111.132" stroke="url(#paint9_linear_59_34291)" stroke-width="1.78307" stroke-linecap="round" stroke-linejoin="round"/>
<path d="M12.3209 83.2778C12.3209 83.2778 10.3105 90.0562 9.67859 97.5814C9.04672 105.107 9.91775 110.792 10.0807 111.77C10.4253 113.838 20.1909 117.113 20.0759 115.447C19.985 114.127 19.9036 109.3 21.3972 102.12C22.8907 94.9389 26.1076 88.9074 26.1076 88.9074" fill="url(#paint10_linear_59_34291)"/>
<path d="M12.3209 83.2778C12.3209 83.2778 10.3105 90.0562 9.67859 97.5814C9.04672 105.107 9.91775 110.792 10.0807 111.77C10.4253 113.838 20.1909 117.113 20.0759 115.447C19.985 114.127 19.9036 109.3 21.3972 102.12C22.8907 94.9389 26.1076 88.9074 26.1076 88.9074" stroke="url(#paint11_linear_59_34291)" stroke-width="1.56019" stroke-linecap="round" stroke-linejoin="round"/>
<path d="M58.9359 34.1964L28.2984 22.4133C33.9201 13.3684 40.4916 10.1117 43.046 8.94101C45.298 8.35016 60.869 14.1793 65.5769 16.2297C63.3314 19.4861 60.9476 25.288 58.9359 34.1964Z" fill="url(#paint12_linear_59_34291)"/>
<path d="M29.4376 21.208L58.5254 32.3629" stroke="#2C2E31" stroke-opacity="0.35" stroke-width="2.25113" stroke-linecap="round" stroke-linejoin="round"/>
<path d="M29.8248 22.3837C29.8248 22.3837 35.3561 13.3684 42.8762 8.98695" stroke="url(#paint13_radial_59_34291)" stroke-width="1.78307" stroke-linecap="round" stroke-linejoin="round"/>
<path d="M65.0414 16.4495C62.9579 15.3216 45.7282 8.9131 43.1263 8.67274C39.57 10.1602 32.5987 14.977 28.2723 22.5072L58.7839 34.2354C60.8614 26.1499 62.757 20.0032 65.3777 16.5373" stroke="url(#paint14_linear_59_34291)" stroke-width="1.78307" stroke-linecap="round" stroke-linejoin="round"/>
<path d="M36.6075 26.2405C36.6075 26.2405 39.4742 20.6461 42.8006 16.7346C46.1269 12.8231 48.7122 10.6977 49.4144 10.1867C50.7599 9.20758 60.4017 12.5359 59.5464 13.4129C58.7143 14.2661 56.4778 16.8142 53.6792 21.6132C50.8805 26.4122 49.2319 31.323 49.2319 31.323" fill="url(#paint15_linear_59_34291)"/>
<path d="M36.6075 26.2405C36.6075 26.2405 39.4742 20.6461 42.8006 16.7346C46.1269 12.8231 48.7122 10.6977 49.4144 10.1867C50.7599 9.20758 60.4017 12.5359 59.5464 13.4129C58.7143 14.2661 56.4778 16.8142 53.6792 21.6132C50.8805 26.4122 49.2319 31.323 49.2319 31.323" stroke="url(#paint16_linear_59_34291)" stroke-width="1.56019" stroke-linecap="round" stroke-linejoin="round"/>
<path d="M30.8636 91.3285L4.91656 80.6182C2.93289 79.5707 1.97449 77.9325 2.04136 75.7036L5.10757 48.3422C5.88766 44.5681 7.3772 41.4401 9.57639 38.9588L23.7705 22.3305C25.2342 20.9858 27.1318 20.2731 29.0041 20.652L60.0364 31.7112C62.555 32.7884 63.6806 34.6682 63.4131 37.3502L62.6769 64.2585L58.4199 72.8396L39.7868 92.2639C38.1746 93.6531 36.5001 93.3279 34.5907 92.6667C32.8575 91.8574 29.1619 90.6221 27.4419 89.8224" fill="url(#paint17_linear_59_34291)"/>
<path d="M4.83257 69.3584C4.60969 72.1221 3.47454 77.5333 5.06972 78.3168C5.7854 78.933 10.7691 80.7132 14.8606 82.5634C18.961 84.4211 4.87358 68.85 4.83257 69.3584Z" fill="url(#paint18_linear_59_34291)" fill-opacity="0.6"/>
<path d="M23.5495 83.5531C18.1789 82.3188 18.3173 83.7145 24.8841 86.5906C32.5774 89.5703 36.4505 91.7793 38.8839 89.9729C39.7235 88.9737 43.1085 85.5212 44.0214 84.5338C44.6149 83.9189 43.8052 83.904 41.592 84.4893C34.7294 86.1201 32.3871 85.4131 23.5495 83.5531Z" fill="url(#paint19_linear_59_34291)" fill-opacity="0.6"/>
<path d="M21.8542 25.5266C25.9442 21.3029 27.6131 21.6187 29.026 21.9047L59.2415 32.9673C62.2399 34.3347 62.4697 35.656 62.6182 38.8936C62.6993 43.296 62.3197 68.0753 59.2388 71.4837" stroke="white" stroke-opacity="0.65" stroke-width="1.78307" stroke-linecap="round" stroke-linejoin="round"/>
<path d="M40.5544 46.2405C11.6339 35.7298 -13.4985 71.6448 20.5876 85.6937C43.5961 95.1767 60.0804 78.164 58.477 64.0498C57.4644 55.136 40.5544 46.2405 40.5544 46.2405Z" fill="#5B4D27" fill-opacity="0.45"/>
<path d="M39.1959 91.6107L42.3243 89.1527C38.1134 92.6988 35.3603 91.5084 32.9886 90.3086L6.41481 79.2776C4.68144 78.8209 3.5318 77.2463 3.18901 74.1812C2.69844 76.3772 3.13217 78.7048 5.31777 79.7642C5.31777 79.7642 30.9407 90.7512 31.1721 90.8304C33.696 91.8995 36.6414 94.0167 39.1959 91.6107Z" fill="url(#paint20_linear_59_34291)"/>
<path d="M31.0072 91.2576L4.91638 80.6334C2.93271 79.5858 1.97431 77.9476 2.04117 75.7188L5.10739 48.3573C5.88748 44.5832 7.37701 41.4553 9.57621 38.9739L23.7704 22.3456C25.234 21.001 27.1317 20.2882 29.0039 20.6671L60.0362 31.7264C62.5548 32.8036 63.6804 34.6834 63.4129 37.3653L62.6768 64.2737L58.4197 72.8547L40.4184 91.5322C38.8063 92.9214 36.2178 93.2154 34.9638 92.7966C32.6173 92.0129 29.7936 90.8383 28.0736 90.0386" stroke="url(#paint21_linear_59_34291)" stroke-width="1.78307" stroke-linecap="round" stroke-linejoin="round"/>
<path d="M68.182 72.1861C66.8447 75.4291 65.2286 77.6022 64.315 77.5355C63.7264 76.0092 67.122 66.933 68.906 65.3545C69.9649 66.0122 69.5193 68.3525 68.182 72.1861Z" fill="url(#paint22_linear_59_34291)"/>
<path d="M68.182 72.1861C66.8447 75.4291 65.2286 77.6022 64.315 77.5355C63.7264 76.0092 67.122 66.933 68.906 65.3545C69.9649 66.0122 69.5193 68.3525 68.182 72.1861Z" stroke="url(#paint23_linear_59_34291)" stroke-width="1.78307" stroke-linecap="round" stroke-linejoin="round"/>
<path d="M68.9729 65.369L63.1542 62.9922L58.2566 74.982L64.0752 77.3588L68.9729 65.369Z" fill="url(#paint24_linear_59_34291)"/>
<g opacity="0.5">
<path d="M61.6936 66.5884L66.2302 68.408" stroke="#F1EDE0" stroke-width="1.3373" stroke-linecap="round" stroke-linejoin="round"/>
<path d="M60.4005 69.7163L65.049 71.7588" stroke="#F1EDE0" stroke-width="1.3373" stroke-linecap="round" stroke-linejoin="round"/>
</g>
<g opacity="0.5">
<path d="M62.0031 65.8203L66.9854 67.7514" stroke="#9C6E00" stroke-width="1.3373" stroke-linecap="round" stroke-linejoin="round"/>
<path d="M60.7881 68.7754L65.4918 70.7065" stroke="#9C6E00" stroke-width="1.3373" stroke-linecap="round" stroke-linejoin="round"/>
<path d="M59.4719 72.2402L64.1204 74.227" stroke="#9C6E00" stroke-width="1.3373" stroke-linecap="round" stroke-linejoin="round"/>
</g>
<path d="M67.7402 64.7959C67.7402 64.7959 64.6716 69.5788 63.0516 76.6462" stroke="url(#paint25_radial_59_34291)" stroke-width="1.78307" stroke-linecap="round" stroke-linejoin="round"/>
<path d="M62.7325 62.8921L68.9733 65.3772C67.5691 67.6841 64.7719 72.8345 64.2593 77.5467L57.6842 74.8052C58.8506 70.5109 60.5333 66.54 62.7325 62.8921Z" stroke="url(#paint26_linear_59_34291)" stroke-width="1.78307" stroke-linecap="round" stroke-linejoin="round"/>
<path d="M63.6377 56.5871C62.4683 97.0459 3.71225 97.0473 2.55548 56.5867C3.70801 16.1121 62.4854 16.1359 63.6377 56.5871Z" fill="url(#paint27_linear_59_34291)"/>
<path d="M63.6377 56.5871C62.4682 97.0459 3.71225 97.0473 2.55548 56.5867C3.70801 16.1121 62.4854 16.1359 63.6377 56.5871Z" stroke="url(#paint28_linear_59_34291)" stroke-width="1.78307" stroke-linecap="round" stroke-linejoin="round"/>
<path d="M63.0999 54.1992C61.9438 13.834 3.30748 13.8325 2.16431 54.1997C3.32464 94.5733 61.9398 94.5497 63.0999 54.1992Z" fill="url(#paint29_linear_59_34291)"/>
<path d="M10.0044 60.9536C11.1618 65.6411 13.8712 69.6013 18.1321 72.8338" stroke="url(#paint30_linear_59_34291)" stroke-width="1.11442" stroke-linecap="round" stroke-linejoin="round"/>
<path d="M6.57697 61.376C8.04822 67.3343 11.4918 72.3677 16.9076 76.4764" stroke="url(#paint31_linear_59_34291)" stroke-width="6.46363" stroke-linecap="round" stroke-linejoin="round"/>
<path d="M42.7853 27.3945L43.5048 30.6774L46.0956 28.7274L42.7853 27.3945Z" stroke="#F9F9F9" stroke-width="0.891536" stroke-linecap="round" stroke-linejoin="round"/>
<path d="M57.2166 36.5913L52.333 39.8842" stroke="#F9F9F9" stroke-width="1.3373" stroke-linecap="round" stroke-linejoin="round"/>
<path d="M55.584 63.2085L60.8614 65.0727" stroke="#F9F9F9" stroke-width="1.3373" stroke-linecap="round" stroke-linejoin="round"/>
<path d="M35.304 78.875L36.052 83.7729" stroke="#F9F9F9" stroke-width="1.3373" stroke-linecap="round" stroke-linejoin="round"/>
<path d="M59.3677 61.4448L56.6004 60.7278M60.0907 58.8099L57.2387 58.3026M60.3185 56.0725L57.4406 55.7499M60.4242 53.4565L57.6464 53.3693M61.0569 49.0532L57.8445 49.498M59.4907 47.7375L56.8531 48.3901M58.7354 45.1393L56.1833 45.9729M57.7631 42.7464L55.3067 43.765M56.6625 40.399L54.3401 41.5694M16.8468 29.864L18.3533 32.4566L19.7501 31.6506L18.2307 29.0342L16.8468 29.864ZM3.82679 55.244L6.82502 55.1961L6.80407 53.5835L3.77887 53.631L3.82679 55.244ZM20.7259 80.4297L21.9724 77.7024L20.4782 77.0403L19.2196 79.7915L20.7259 80.4297ZM50.1494 77.2219L48.5754 74.6741L47.2635 75.5313L48.8083 78.1197L50.1494 77.2219ZM61.1401 50.4772L58.1554 50.7212L58.3226 52.2792L61.3302 52.0797L61.1401 50.4772Z" stroke="#F9F9F9" stroke-width="0.891536" stroke-linecap="round" stroke-linejoin="round"/>
<path d="M23.3231 81.4154L21.8683 80.8718L22.4516 79.4783L23.3851 79.818L22.4505 79.4556L22.9984 78.1377L24.4146 78.6902M52.4099 75.4809L51.1564 76.3981L50.7278 75.7125L51.1038 73.7154L50.6177 73.0635L49.4431 73.9911M6.94114 56.5948L3.90613 56.7007L3.98414 57.1496L6.41669 58.2459L6.24173 56.2752M15.8467 30.5078L14.5083 31.4063L15.1433 32.3702L16.4099 31.5892L17.3663 33.1463L16.1204 33.9358" stroke="#F9F9F9" stroke-width="0.891536" stroke-linecap="round" stroke-linejoin="round"/>
<path d="M28.9011 24.8838L29.7449 29.5764" stroke="#F9F9F9" stroke-width="1.3373" stroke-linecap="round" stroke-linejoin="round"/>
<path d="M4.83221 42.27L9.78603 44.2396" stroke="#F9F9F9" stroke-width="1.3373" stroke-linecap="round" stroke-linejoin="round"/>
<path d="M12.7234 69.4336L8.63885 72.465" stroke="#F9F9F9" stroke-width="1.3373" stroke-linecap="round" stroke-linejoin="round"/>
<path d="M63.2049 54.1997C62.0341 94.7004 3.21721 94.7015 2.05933 54.1991C3.21298 13.6826 62.0514 13.7066 63.2049 54.1997Z" stroke="url(#paint32_linear_59_34291)" stroke-width="1.78307" stroke-linecap="round" stroke-linejoin="round"/>
<path d="M56.8306 54.1751C55.9038 86.2379 9.34092 86.2387 8.42419 54.1747C9.33757 22.0997 55.9174 22.1184 56.8306 54.1751Z" fill="url(#paint33_linear_59_34291)"/>
<path d="M56.8306 54.1751C55.9038 86.2379 9.34092 86.2387 8.42419 54.1747C9.33757 22.0997 55.9174 22.1184 56.8306 54.1751Z" stroke="url(#paint34_linear_59_34291)" stroke-width="1.56019" stroke-linecap="round" stroke-linejoin="round"/>
<path d="M54.4497 54.1743C53.6159 83.0209 11.7238 83.0215 10.8991 54.1739C11.7209 25.3162 53.6282 25.3334 54.4497 54.1743Z" fill="url(#paint35_linear_59_34291)"/>
<path d="M54.4497 54.1743C53.6159 83.0209 11.7238 83.0215 10.8991 54.1739C11.7209 25.3162 53.6282 25.3334 54.4497 54.1743Z" fill="url(#paint36_linear_59_34291)"/>
<path d="M54.4497 54.1743C53.6159 83.0209 11.7238 83.0215 10.8991 54.1739C11.7209 25.3162 53.6282 25.3334 54.4497 54.1743Z" stroke="url(#paint37_linear_59_34291)" stroke-width="1.3373" stroke-linecap="round" stroke-linejoin="round"/>
<path d="M36.1274 54.4024C35.6252 36.4506 9.53397 36.4555 9.03448 54.4026C9.53664 72.3541 35.6279 72.3492 36.1274 54.4024Z" fill="url(#paint38_radial_59_34291)"/>
<path d="M43.754 56.6848L42.5504 59.5154C42.1938 60.3773 42.4205 60.9568 43.2302 61.2539L48.622 63.3715C49.4393 63.6612 50.03 63.3753 50.3939 62.5134L51.5864 59.6828C51.9503 58.8209 51.7201 58.2452 50.8954 57.9554L45.5148 55.8267C44.705 55.5369 44.118 55.8229 43.754 56.6848Z" fill="url(#paint39_linear_59_34291)"/>
<path d="M42.2383 60.2508L43.3862 57.5539C43.7502 56.692 44.3372 56.406 45.147 56.6958L50.5276 58.8246C51.3088 59.0992 51.556 59.6303 51.2687 60.4182" stroke="#434343" stroke-opacity="0.35" stroke-width="1.3373" stroke-linecap="round" stroke-linejoin="round"/>
<path d="M45.5148 55.8267L50.8954 57.9554C51.7201 58.2452 51.9503 58.8209 51.5864 59.6828L50.3939 62.5134C50.03 63.3753 49.4393 63.6612 48.622 63.3715L43.2302 61.2539C42.4205 60.9568 42.1938 60.3773 42.5504 59.5154L43.754 56.6848C44.118 55.8229 44.705 55.5369 45.5148 55.8267Z" stroke="url(#paint40_linear_59_34291)" stroke-width="1.3373" stroke-linecap="round" stroke-linejoin="round"/>
<path d="M48.8242 59.9009C48.7335 59.958 48.6405 59.9663 48.5455 59.9261C48.4377 59.8803 48.369 59.8029 48.3393 59.6937C48.3096 59.5845 48.3239 59.4615 48.3818 59.325C48.4398 59.1884 48.5162 59.0959 48.6108 59.0475C48.7054 58.9991 48.8075 58.9981 48.917 59.0446C49.0119 59.0849 49.0715 59.1558 49.0959 59.2573C49.1202 59.359 49.1043 59.4758 49.0482 59.6078C48.9896 59.746 48.9149 59.8437 48.8242 59.9009ZM48.2665 61.4195C48.1489 61.4749 48.0297 61.4771 47.9089 61.4258C47.7738 61.3685 47.6816 61.2766 47.6326 61.1504C47.5836 61.0242 47.5913 60.8854 47.6557 60.7337C47.7188 60.5851 47.8138 60.4818 47.9409 60.4241C48.068 60.3665 48.1983 60.366 48.332 60.4228C48.451 60.4733 48.5311 60.5631 48.5723 60.6922C48.6134 60.8212 48.6024 60.9602 48.5394 61.1088C48.475 61.2605 48.384 61.364 48.2665 61.4195ZM49.7504 59.0848C49.6317 58.8519 49.4243 58.6726 49.1282 58.5469C48.8208 58.4164 48.5379 58.3879 48.2797 58.4617C48.0214 58.5355 47.831 58.7165 47.7086 59.0047C47.6398 59.1669 47.6215 59.3288 47.6536 59.4903C47.6856 59.6519 47.7623 59.8 47.8837 59.9348C47.669 59.9305 47.4796 59.9746 47.316 60.0673C47.1522 60.1598 47.0328 60.2947 46.9576 60.4719C46.8289 60.7751 46.8365 61.0571 46.9804 61.3175C47.1244 61.5778 47.3638 61.7791 47.6986 61.9212C48.0206 62.0579 48.3207 62.0861 48.5989 62.0057C48.8771 61.9254 49.0808 61.7327 49.2101 61.428C49.2853 61.2508 49.301 61.0719 49.2571 60.8912C49.2132 60.7105 49.1191 60.546 48.9749 60.398C49.1482 60.3882 49.3023 60.3382 49.4377 60.2476C49.573 60.1572 49.675 60.0308 49.7438 59.8686C49.8668 59.5788 49.8691 59.3176 49.7504 59.0848Z" fill="#5D5D5D"/>
<path d="M46.408 60.7332L45.1381 60.1941L45.8905 59.7507C46.2575 59.5752 46.5294 59.4258 46.7063 59.3023C46.883 59.179 47.0138 59.0174 47.0986 58.8177C47.2241 58.5219 47.232 58.2494 47.1223 57.9999C47.0126 57.7505 46.7912 57.555 46.458 57.4136C46.1296 57.2742 45.8242 57.2646 45.5414 57.3847C45.2587 57.5048 45.0584 57.7126 44.9406 58.0081L44.9421 58.0246L45.6108 58.3084C45.6809 58.1433 45.7726 58.0223 45.886 57.9455C45.9993 57.8687 46.1195 57.8573 46.2467 57.9113C46.3689 57.9632 46.4419 58.0433 46.4653 58.1515C46.4888 58.2598 46.47 58.3853 46.4095 58.5279C46.3655 58.6315 46.2866 58.7335 46.1728 58.8339C46.059 58.9344 45.8957 59.0425 45.6834 59.1578L44.2239 59.891L44.0442 60.3144L46.1978 61.2286L46.408 60.7332Z" fill="#5D5D5D"/>
<path d="M43.0036 37.1394L37.5527 34.9019L37.8893 41.7424L43.0036 37.1394Z" fill="white"/>
<path d="M43.0036 37.1394L37.5527 34.9019L37.8893 41.7424L43.0036 37.1394Z" stroke="#FFE184" stroke-width="0.891536" stroke-linecap="round" stroke-linejoin="round"/>
<path d="M29.8831 34.6958C31.1292 34.6958 32.1393 35.7059 32.1393 36.9521C32.1393 38.1982 31.1292 39.2083 29.8831 39.2083C28.6369 39.2083 27.6268 38.1982 27.6268 36.9521C27.6268 35.7059 28.6369 34.6958 29.8831 34.6958Z" fill="white"/>
<path d="M29.8831 34.6958C31.1292 34.6958 32.1393 35.7059 32.1393 36.9521C32.1393 38.1982 31.1292 39.2083 29.8831 39.2083C28.6369 39.2083 27.6268 38.1982 27.6268 36.9521C27.6268 35.7059 28.6369 34.6958 29.8831 34.6958Z" stroke="#FFE083" stroke-width="0.891536"/>
<path d="M47.2522 41.6084C48.4983 41.6084 49.5084 42.6185 49.5084 43.8647C49.5084 45.1108 48.4983 46.1209 47.2522 46.1209C46.006 46.1209 44.9959 45.1108 44.9959 43.8647C44.9959 42.6185 46.006 41.6084 47.2522 41.6084Z" fill="white"/>
<path d="M47.2522 41.6084C48.4983 41.6084 49.5084 42.6185 49.5084 43.8647C49.5084 45.1108 48.4983 46.1209 47.2522 46.1209C46.006 46.1209 44.9959 45.1108 44.9959 43.8647C44.9959 42.6185 46.006 41.6084 47.2522 41.6084Z" stroke="#FFE083" stroke-width="0.891536"/>
<path d="M49.9635 49.582C51.2097 49.582 52.2198 50.5921 52.2198 51.8383C52.2198 53.0844 51.2097 54.0945 49.9635 54.0945C48.7174 54.0945 47.7073 53.0844 47.7073 51.8383C47.7073 50.5921 48.7174 49.582 49.9635 49.582Z" fill="white"/>
<path d="M49.9635 49.582C51.2097 49.582 52.2198 50.5921 52.2198 51.8383C52.2198 53.0844 51.2097 54.0945 49.9635 54.0945C48.7174 54.0945 47.7073 53.0844 47.7073 51.8383C47.7073 50.5921 48.7174 49.582 49.9635 49.582Z" stroke="#FFE083" stroke-width="0.891536"/>
<path d="M19.4837 62.8175C20.6394 63.2835 21.1984 64.5981 20.7324 65.7538C20.2664 66.9095 18.9518 67.4685 17.7961 67.0025C16.6403 66.5365 16.0813 65.2219 16.5474 64.0662C17.0134 62.9104 18.328 62.3514 19.4837 62.8175Z" fill="white"/>
<path d="M19.4837 62.8175C20.6394 63.2835 21.1984 64.5981 20.7324 65.7538C20.2664 66.9095 18.9518 67.4685 17.7961 67.0025C16.6403 66.5365 16.0813 65.2219 16.5474 64.0662C17.0134 62.9104 18.328 62.3514 19.4837 62.8175Z" stroke="#FFE083" stroke-width="0.891536"/>
<path d="M35.6158 69.2828C36.7716 69.7488 37.3306 71.0634 36.8645 72.2191C36.3985 73.3748 35.0839 73.9339 33.9282 73.4678C32.7725 73.0018 32.2134 71.6872 32.6795 70.5315C33.1455 69.3758 34.4601 68.8167 35.6158 69.2828Z" fill="white"/>
<path d="M35.6158 69.2828C36.7716 69.7488 37.3306 71.0634 36.8645 72.2191C36.3985 73.3748 35.0839 73.9339 33.9282 73.4678C32.7725 73.0018 32.2134 71.6872 32.6795 70.5315C33.1455 69.3758 34.4601 68.8167 35.6158 69.2828Z" stroke="#FFE083" stroke-width="0.891536"/>
<path d="M44.7146 65.3453C45.8703 65.8113 46.4293 67.1259 45.9633 68.2816C45.4972 69.4373 44.1827 69.9964 43.027 69.5303C41.8712 69.0643 41.3122 67.7497 41.7782 66.594C42.2443 65.4383 43.5589 64.8792 44.7146 65.3453Z" fill="white"/>
<path d="M44.7146 65.3453C45.8703 65.8113 46.4293 67.1259 45.9633 68.2816C45.4972 69.4373 44.1827 69.9964 43.027 69.5303C41.8712 69.0643 41.3122 67.7497 41.7782 66.594C42.2443 65.4383 43.5589 64.8792 44.7146 65.3453Z" stroke="#FFE083" stroke-width="0.891536"/>
<path d="M21.5996 38.1743C22.8457 38.1743 23.8558 39.1844 23.8558 40.4306C23.8558 41.6767 22.8457 42.6868 21.5996 42.6868C20.3534 42.6868 19.3433 41.6767 19.3433 40.4306C19.3433 39.1844 20.3534 38.1743 21.5996 38.1743Z" fill="white"/>
<path d="M21.5996 38.1743C22.8457 38.1743 23.8558 39.1844 23.8558 40.4306C23.8558 41.6767 22.8457 42.6868 21.5996 42.6868C20.3534 42.6868 19.3433 41.6767 19.3433 40.4306C19.3433 39.1844 20.3534 38.1743 21.5996 38.1743Z" stroke="#FFE083" stroke-width="0.891536"/>
<path d="M15.5249 53.7295C16.771 53.7295 17.7811 54.7396 17.7811 55.9857C17.7811 57.2319 16.771 58.242 15.5249 58.242C14.2787 58.242 13.2686 57.2319 13.2686 55.9857C13.2686 54.7396 14.2787 53.7295 15.5249 53.7295Z" fill="white"/>
<path d="M15.5249 53.7295C16.771 53.7295 17.7811 54.7396 17.7811 55.9857C17.7811 57.2319 16.771 58.242 15.5249 58.242C14.2787 58.242 13.2686 57.2319 13.2686 55.9857C13.2686 54.7396 14.2787 53.7295 15.5249 53.7295Z" stroke="#FFE083" stroke-width="0.891536"/>
<path d="M15.0465 44.9561L20.5464 47.1372L19.6451 49.4788L14.1452 47.2977L15.0465 44.9561Z" fill="white"/>
<path d="M15.0465 44.9561L20.5464 47.1372L19.6451 49.4788L14.1452 47.2977L15.0465 44.9561Z" stroke="#FFE083" stroke-width="0.891536" stroke-linecap="round" stroke-linejoin="round"/>
<path d="M28.5952 67.7666L26.414 73.2665L24.0722 72.3651L26.2536 66.8652L28.5952 67.7666Z" fill="white"/>
<path d="M28.5952 67.7666L26.414 73.2665L24.0722 72.3651L26.2536 66.8652L28.5952 67.7666Z" stroke="#FFE083" stroke-width="0.891536" stroke-linecap="round" stroke-linejoin="round"/>
<path d="M51.1804 49.0094C51.1804 49.0094 48.1917 48.3781 47.4421 48.2556L28.2406 52.4564C27.7794 52.5706 27.5867 52.7963 27.6623 53.1336L28.1808 55.2757C28.2797 55.6263 28.5677 55.7514 29.0449 55.651L48.2337 51.4287C48.8595 50.8756 51.1804 49.0094 51.1804 49.0094Z" fill="url(#paint41_linear_59_34291)"/>
<path d="M51.1804 49.0094C51.1804 49.0094 48.1917 48.3781 47.4421 48.2556L28.2406 52.4564C27.7794 52.5706 27.5867 52.7963 27.6623 53.1336L28.1808 55.2757C28.2797 55.6263 28.5677 55.7514 29.0449 55.651L48.2337 51.4287C48.8595 50.8756 51.1804 49.0094 51.1804 49.0094Z" stroke="url(#paint42_linear_59_34291)" stroke-width="1.3373" stroke-linecap="round" stroke-linejoin="round"/>
<path d="M35.8198 45.1785L25.5294 70.4227" stroke="url(#paint43_linear_59_34291)" stroke-width="2.22884" stroke-linecap="round" stroke-linejoin="round"/>
<path d="M35.8198 45.1785L25.5294 70.4227" stroke="url(#paint44_linear_59_34291)" stroke-width="0.445768" stroke-linecap="round" stroke-linejoin="round"/>
<path d="M35.7182 43.9183C36.434 43.8557 37.0659 44.3859 37.1285 45.1016C37.1911 45.8173 36.6609 46.4493 35.9452 46.5119C35.2295 46.5745 34.5975 46.0442 34.5349 45.3285C34.4723 44.6128 35.0025 43.9809 35.7182 43.9183Z" fill="url(#paint45_linear_59_34291)"/>
<path d="M35.7182 43.9183C36.434 43.8557 37.0659 44.3859 37.1285 45.1016C37.1911 45.8173 36.6609 46.4493 35.9452 46.5119C35.2295 46.5745 34.5975 46.0442 34.5349 45.3285C34.4723 44.6128 35.0025 43.9809 35.7182 43.9183Z" stroke="url(#paint46_linear_59_34291)" stroke-width="1.11442"/>
<path d="M28.0217 62.0902C28.9283 62.0108 29.7288 62.6826 29.8082 63.5892C29.8875 64.4958 29.2158 65.2963 28.3091 65.3756C27.4025 65.455 26.602 64.7832 26.5227 63.8766C26.4434 62.97 27.1151 62.1695 28.0217 62.0902Z" fill="white"/>
<path d="M28.0217 62.0902C28.9283 62.0108 29.7288 62.6826 29.8082 63.5892C29.8875 64.4958 29.2158 65.2963 28.3091 65.3756C27.4025 65.455 26.602 64.7832 26.5227 63.8766C26.4434 62.97 27.1151 62.1695 28.0217 62.0902Z" stroke="url(#paint47_linear_59_34291)" stroke-width="1.11442"/>
<path d="M23.613 39.7266C23.613 39.7266 25.9647 41.0933 26.7497 41.6451L35.1052 53.6717C35.3171 53.9896 35.2641 54.259 34.9462 54.4806L33.2884 55.636C32.9706 55.8576 32.7011 55.8045 32.4796 55.4771L24.1384 43.4505C23.8214 42.2389 23.613 39.7266 23.613 39.7266Z" fill="url(#paint48_linear_59_34291)"/>
<path d="M23.613 39.7266C23.613 39.7266 25.9647 41.0933 26.7497 41.6451L35.1052 53.6717C35.3171 53.9896 35.2641 54.259 34.9462 54.4806L33.2884 55.636C32.9706 55.8576 32.7011 55.8045 32.4796 55.4771L24.1384 43.4505C23.8214 42.2389 23.613 39.7266 23.613 39.7266Z" stroke="url(#paint49_linear_59_34291)" stroke-width="1.3373" stroke-linecap="round" stroke-linejoin="round"/>
<path d="M27.6462 42.2061C29.4966 42.2061 30.9966 43.7061 30.9966 45.5564C30.9966 47.4068 29.4966 48.9068 27.6462 48.9068C25.7958 48.9068 24.2958 47.4068 24.2958 45.5564C24.2958 43.7061 25.7958 42.2061 27.6462 42.2061Z" fill="url(#paint50_linear_59_34291)"/>
<path d="M27.6462 42.2061C29.4966 42.2061 30.9966 43.7061 30.9966 45.5564C30.9966 47.4068 29.4966 48.9068 27.6462 48.9068C25.7958 48.9068 24.2958 47.4068 24.2958 45.5564C24.2958 43.7061 25.7958 42.2061 27.6462 42.2061Z" stroke="url(#paint51_linear_59_34291)" stroke-width="1.3373"/>
<path d="M28.7682 43.3086L27.7875 45.7674L25.1583 45.6337L27.7915 45.7452L29.213 47.6526" stroke="url(#paint52_linear_59_34291)" stroke-width="1.11442" stroke-linecap="round" stroke-linejoin="round"/>
<path d="M34.4151 52.8515C34.4688 55.3273 30.5496 55.3273 30.6038 52.8513C30.5498 50.3757 34.4692 50.3757 34.4151 52.8515Z" fill="url(#paint53_radial_59_34291)"/>
<path d="M34.4151 52.8515C34.4688 55.3273 30.5496 55.3273 30.6038 52.8513C30.5498 50.3757 34.4692 50.3757 34.4151 52.8515Z" stroke="url(#paint54_linear_59_34291)" stroke-width="1.3373" stroke-linecap="round" stroke-linejoin="round"/>
<path d="M57.2246 34.519C56.1969 39.6973 64.1656 44.0083 65.6833 37.6617C66.7364 32.5218 58.7661 28.1818 57.2246 34.519Z" fill="url(#paint55_radial_59_34291)"/>
<path d="M16.2781 64.5017C9.57748 59.2693 5.5764 61.2565 4.12553 62.8462C0.735908 74.6546 20.259 85.8147 21.8149 79.3605C22.5603 77.1097 25.2083 72.8604 16.2781 64.5017Z" fill="url(#paint56_radial_59_34291)"/>
<defs>
<linearGradient id="paint0_linear_59_34291" x1="76.8745" y1="23.3614" x2="46.4395" y2="116.299" gradientUnits="userSpaceOnUse">
<stop stop-color="#4F4F4F"/>
<stop offset="0.37" stop-color="#3D3D3D"/>
<stop offset="0.73" stop-color="#2C2C2C"/>
</linearGradient>
<linearGradient id="paint1_linear_59_34291" x1="31.7771" y1="117.141" x2="66.6308" y2="18.928" gradientUnits="userSpaceOnUse">
<stop stop-color="#1C1C1C"/>
<stop offset="0.49" stop-color="#252525"/>
<stop offset="0.97" stop-color="#2E2E2E"/>
</linearGradient>
<linearGradient id="paint2_linear_59_34291" x1="33.1859" y1="107.362" x2="83.3319" y2="43.856" gradientUnits="userSpaceOnUse">
<stop stop-color="#191919"/>
<stop offset="0.5" stop-color="#252525"/>
<stop offset="1" stop-color="#313131"/>
</linearGradient>
<linearGradient id="paint3_linear_59_34291" x1="31.9513" y1="111.473" x2="85.6967" y2="41.4399" gradientUnits="userSpaceOnUse">
<stop stop-color="#282828"/>
<stop offset="0.49" stop-color="#2D2D2D"/>
<stop offset="0.97" stop-color="#333333"/>
</linearGradient>
<linearGradient id="paint4_linear_59_34291" x1="32.2978" y1="115.927" x2="27.4781" y2="113.777" gradientUnits="userSpaceOnUse">
<stop stop-color="#636363"/>
<stop offset="0.5" stop-color="#363636" stop-opacity="0.5"/>
<stop offset="1" stop-color="#080808" stop-opacity="0"/>
</linearGradient>
<linearGradient id="paint5_linear_59_34291" x1="44.1106" y1="86.2502" x2="47.1918" y2="87.6557" gradientUnits="userSpaceOnUse">
<stop offset="0.68" stop-color="#2E2E2E"/>
<stop offset="0.84" stop-color="#434343"/>
<stop offset="1" stop-color="#575757"/>
</linearGradient>
<linearGradient id="paint6_linear_59_34291" x1="47.6112" y1="88.8526" x2="33.9877" y2="84.6965" gradientUnits="userSpaceOnUse">
<stop stop-color="#262626"/>
<stop offset="0.5" stop-color="#2B2B2B"/>
<stop offset="1" stop-color="#303030"/>
</linearGradient>
<linearGradient id="paint7_linear_59_34291" x1="16.6544" y1="114.442" x2="26.9084" y2="90.371" gradientUnits="userSpaceOnUse">
<stop stop-color="#090909"/>
<stop offset="0.25" stop-color="#242424"/>
<stop offset="0.5" stop-color="#404040"/>
<stop offset="0.75" stop-color="#343434"/>
<stop offset="1" stop-color="#272727"/>
</linearGradient>
<radialGradient id="paint8_radial_59_34291" cx="0" cy="0" r="1" gradientUnits="userSpaceOnUse" gradientTransform="translate(-5.07428 95.0208) scale(16.9479)">
<stop stop-color="white"/>
<stop offset="0.5" stop-color="#FDFEFF" stop-opacity="0.5"/>
<stop offset="1" stop-color="#FBFDFF" stop-opacity="0"/>
</radialGradient>
<linearGradient id="paint9_linear_59_34291" x1="15.1357" y1="85.5817" x2="16.9188" y2="115.136" gradientUnits="userSpaceOnUse">
<stop stop-color="#676767"/>
<stop offset="0.5" stop-color="#404040"/>
<stop offset="1" stop-color="#191919"/>
</linearGradient>
<linearGradient id="paint10_linear_59_34291" x1="13.3756" y1="114.341" x2="24.0029" y2="84.413" gradientUnits="userSpaceOnUse">
<stop stop-color="#151515"/>
<stop offset="0.25" stop-color="#2E2E2E"/>
<stop offset="0.5" stop-color="#484848"/>
<stop offset="0.75" stop-color="#3C3C3C"/>
<stop offset="1" stop-color="#313131"/>
</linearGradient>
<linearGradient id="paint11_linear_59_34291" x1="8.89494" y1="92.3403" x2="25.6112" y2="96.9357" gradientUnits="userSpaceOnUse">
<stop stop-color="#616161"/>
<stop offset="0.5" stop-color="#3A3A3A"/>
<stop offset="1" stop-color="#131313"/>
</linearGradient>
<linearGradient id="paint12_linear_59_34291" x1="61.391" y1="5.45307" x2="52.9048" y2="30.2023" gradientUnits="userSpaceOnUse">
<stop stop-color="#090909"/>
<stop offset="0.25" stop-color="#242424"/>
<stop offset="0.5" stop-color="#404040"/>
<stop offset="0.75" stop-color="#343434"/>
<stop offset="1" stop-color="#272727"/>
</linearGradient>
<radialGradient id="paint13_radial_59_34291" cx="0" cy="0" r="1" gradientUnits="userSpaceOnUse" gradientTransform="translate(32.2482 5.34627) rotate(42) scale(16.9479 16.9479)">
<stop stop-color="white"/>
<stop offset="0.5" stop-color="#FDFEFF" stop-opacity="0.5"/>
<stop offset="1" stop-color="#FBFDFF" stop-opacity="0"/>
</radialGradient>
<linearGradient id="paint14_linear_59_34291" x1="40.9511" y1="25.8842" x2="62.052" y2="5.11413" gradientUnits="userSpaceOnUse">
<stop stop-color="#676767"/>
<stop offset="0.5" stop-color="#404040"/>
<stop offset="1" stop-color="#191919"/>
</linearGradient>
<linearGradient id="paint15_linear_59_34291" x1="58.8872" y1="3.33406" x2="46.7588" y2="32.6863" gradientUnits="userSpaceOnUse">
<stop stop-color="#151515"/>
<stop offset="0.25" stop-color="#2E2E2E"/>
<stop offset="0.5" stop-color="#484848"/>
<stop offset="0.75" stop-color="#3C3C3C"/>
<stop offset="1" stop-color="#313131"/>
</linearGradient>
<linearGradient id="paint16_linear_59_34291" x1="40.8358" y1="16.6859" x2="56.161" y2="26.4667" gradientUnits="userSpaceOnUse">
<stop stop-color="#616161"/>
<stop offset="0.5" stop-color="#3A3A3A"/>
<stop offset="1" stop-color="#131313"/>
</linearGradient>
<linearGradient id="paint17_linear_59_34291" x1="51.358" y1="21.6003" x2="22.8895" y2="87.3172" gradientUnits="userSpaceOnUse">
<stop stop-color="#FFDF92"/>
<stop offset="0.5" stop-color="#F1CB55"/>
<stop offset="1" stop-color="#E4B719"/>
</linearGradient>
<linearGradient id="paint18_linear_59_34291" x1="3.54564" y1="75.7262" x2="10.3621" y2="71.8442" gradientUnits="userSpaceOnUse">
<stop stop-color="white"/>
<stop offset="0.5" stop-color="#E4E4E4" stop-opacity="0.5"/>
<stop offset="1" stop-color="#C9C9C9" stop-opacity="0"/>
</linearGradient>
<linearGradient id="paint19_linear_59_34291" x1="37.3126" y1="90.4799" x2="41.7703" y2="84.9332" gradientUnits="userSpaceOnUse">
<stop stop-color="#E8E8E8"/>
<stop offset="0.5" stop-color="#D1D1D1" stop-opacity="0.5"/>
<stop offset="1" stop-color="#B9B9B9" stop-opacity="0"/>
</linearGradient>
<linearGradient id="paint20_linear_59_34291" x1="20.7077" y1="82.2732" x2="18.8261" y2="86.2699" gradientUnits="userSpaceOnUse">
<stop stop-color="#7F5C1F"/>
<stop offset="0.5" stop-color="#6B4B1D" stop-opacity="0.5"/>
<stop offset="1" stop-color="#563A1B" stop-opacity="0"/>
</linearGradient>
<linearGradient id="paint21_linear_59_34291" x1="18.9246" y1="87.1246" x2="46.1276" y2="27.2524" gradientUnits="userSpaceOnUse">
<stop stop-color="#785200"/>
<stop offset="0.5" stop-color="#AC8000"/>
<stop offset="1" stop-color="#E0AE00"/>
</linearGradient>
<linearGradient id="paint22_linear_59_34291" x1="65.899" y1="73.5341" x2="68.0955" y2="65.3055" gradientUnits="userSpaceOnUse">
<stop stop-color="#E3A537"/>
<stop offset="0.37" stop-color="#E0AF39"/>
<stop offset="0.73" stop-color="#DDB93A"/>
</linearGradient>
<linearGradient id="paint23_linear_59_34291" x1="67.5134" y1="66.0679" x2="65.7637" y2="75.8971" gradientUnits="userSpaceOnUse">
<stop stop-color="#D0A54B"/>
<stop offset="0.49" stop-color="#A6822E"/>
<stop offset="0.97" stop-color="#7C5F11"/>
</linearGradient>
<linearGradient id="paint24_linear_59_34291" x1="60.5133" y1="76.1923" x2="64.8245" y2="64.4293" gradientUnits="userSpaceOnUse">
<stop stop-color="#F7C878"/>
<stop offset="0.15" stop-color="#ECB453"/>
<stop offset="0.31" stop-color="#E09F2D"/>
<stop offset="0.52" stop-color="#EFC36B"/>
<stop offset="0.73" stop-color="#FEE6A8"/>
<stop offset="0.85" stop-color="#EEC976"/>
<stop offset="0.97" stop-color="#DEAD44"/>
</linearGradient>
<radialGradient id="paint25_radial_59_34291" cx="0" cy="0" r="1" gradientUnits="userSpaceOnUse" gradientTransform="translate(65.247 69.7511) scale(5.68378)">
<stop stop-color="#FFFEF1"/>
<stop offset="0.5" stop-color="#FFF7C6" stop-opacity="0.5"/>
<stop offset="1" stop-color="#FFEF9A" stop-opacity="0"/>
</radialGradient>
<linearGradient id="paint26_linear_59_34291" x1="62.2756" y1="76.6552" x2="65.4963" y2="64.1681" gradientUnits="userSpaceOnUse">
<stop stop-color="#996D00"/>
<stop offset="0.49" stop-color="#AC8003"/>
<stop offset="0.97" stop-color="#C09205"/>
</linearGradient>
<linearGradient id="paint27_linear_59_34291" x1="7.55766" y1="38.3715" x2="52.9591" y2="45.058" gradientUnits="userSpaceOnUse">
<stop stop-color="#FFC22F"/>
<stop offset="0.5" stop-color="#DEA01C"/>
<stop offset="1" stop-color="#BC7F0A"/>
</linearGradient>
<linearGradient id="paint28_linear_59_34291" x1="14.0213" y1="83.1712" x2="33.997" y2="23.8246" gradientUnits="userSpaceOnUse">
<stop stop-color="#AB7900"/>
<stop offset="0.5" stop-color="#C18F00"/>
<stop offset="1" stop-color="#D6A600"/>
</linearGradient>
<linearGradient id="paint29_linear_59_34291" x1="18.9247" y1="79.8284" x2="45.7457" y2="28.3763" gradientUnits="userSpaceOnUse">
<stop stop-color="#2C2C2C"/>
<stop offset="0.23" stop-color="#4E4E4E"/>
<stop offset="0.46" stop-color="#707070"/>
<stop offset="0.73" stop-color="#515151"/>
<stop offset="1" stop-color="#313131"/>
</linearGradient>
<linearGradient id="paint30_linear_59_34291" x1="18.7018" y1="72.6782" x2="10.7337" y2="61.144" gradientUnits="userSpaceOnUse">
<stop stop-color="#DDDDDD" stop-opacity="0"/>
<stop offset="0.25" stop-color="#EEEEEE" stop-opacity="0.5"/>
<stop offset="0.51" stop-color="white"/>
<stop offset="0.75" stop-color="white" stop-opacity="0.5"/>
<stop offset="1" stop-color="white" stop-opacity="0"/>
</linearGradient>
<linearGradient id="paint31_linear_59_34291" x1="15.8044" y1="76.6324" x2="7.05617" y2="62.3121" gradientUnits="userSpaceOnUse">
<stop stop-color="#E6E6E6" stop-opacity="0"/>
<stop offset="0.25" stop-color="#F3F3F3" stop-opacity="0.5"/>
<stop offset="0.51" stop-color="white"/>
<stop offset="0.75" stop-color="white" stop-opacity="0.5"/>
<stop offset="1" stop-color="white" stop-opacity="0"/>
</linearGradient>
<linearGradient id="paint32_linear_59_34291" x1="12.684" y1="76.0392" x2="45.587" y2="26.2766" gradientUnits="userSpaceOnUse">
<stop stop-color="#ECB409"/>
<stop offset="0.5" stop-color="#EDBD2A"/>
<stop offset="1" stop-color="#EFC64B"/>
</linearGradient>
<linearGradient id="paint33_linear_59_34291" x1="22.627" y1="76.7582" x2="42.3284" y2="30.5182" gradientUnits="userSpaceOnUse">
<stop stop-color="#8A8A8A"/>
<stop offset="0.23" stop-color="#929292"/>
<stop offset="0.46" stop-color="#999999"/>
<stop offset="0.73" stop-color="#888888"/>
<stop offset="1" stop-color="#787878"/>
</linearGradient>
<linearGradient id="paint34_linear_59_34291" x1="16.2501" y1="74.4315" x2="41.5753" y2="27.5666" gradientUnits="userSpaceOnUse">
<stop stop-color="#DFAD00"/>
<stop offset="0.5" stop-color="#EFC539"/>
<stop offset="1" stop-color="#FFDC72"/>
</linearGradient>
<linearGradient id="paint35_linear_59_34291" x1="23.096" y1="73.7406" x2="44.4632" y2="35.9663" gradientUnits="userSpaceOnUse">
<stop stop-color="#282828"/>
<stop offset="0.25" stop-color="#2D2D2D"/>
<stop offset="0.5" stop-color="#333333"/>
<stop offset="0.75" stop-color="#292929"/>
<stop offset="1" stop-color="#1E1E1E"/>
</linearGradient>
<linearGradient id="paint36_linear_59_34291" x1="34.1713" y1="65.0437" x2="31.6833" y2="42.1205" gradientUnits="userSpaceOnUse">
<stop stop-color="#0E0E0E" stop-opacity="0"/>
<stop offset="0.25" stop-color="#404040" stop-opacity="0.5"/>
<stop offset="0.5" stop-color="#727272"/>
<stop offset="0.75" stop-color="#4B4B4B" stop-opacity="0.5"/>
<stop offset="1" stop-color="#252525" stop-opacity="0"/>
</linearGradient>
<linearGradient id="paint37_linear_59_34291" x1="17.3645" y1="70.3067" x2="40.2378" y2="33.6942" gradientUnits="userSpaceOnUse">
<stop stop-color="#1C1F22"/>
<stop offset="0.5" stop-color="#181D23"/>
<stop offset="1" stop-color="#151B25"/>
</linearGradient>
<radialGradient id="paint38_radial_59_34291" cx="0" cy="0" r="1" gradientUnits="userSpaceOnUse" gradientTransform="translate(21.8113 54.5885) scale(14.0461)">
<stop stop-color="#8A8A8A" stop-opacity="0.769"/>
<stop offset="0.5" stop-color="#4B4B4B" stop-opacity="0.384"/>
<stop offset="1" stop-color="#0D0D0D" stop-opacity="0"/>
</radialGradient>
<linearGradient id="paint39_linear_59_34291" x1="47.7882" y1="57.476" x2="46.2057" y2="61.3319" gradientUnits="userSpaceOnUse">
<stop stop-color="#E6E6E6"/>
<stop offset="0.5" stop-color="#F3F3F3"/>
<stop offset="1" stop-color="white"/>
</linearGradient>
<linearGradient id="paint40_linear_59_34291" x1="45.5594" y1="62.268" x2="47.9402" y2="56.4044" gradientUnits="userSpaceOnUse">
<stop stop-color="#C4C4C4"/>
<stop offset="0.5" stop-color="#C4C4C4"/>
<stop offset="1" stop-color="#C4C4C4"/>
</linearGradient>
<linearGradient id="paint41_linear_59_34291" x1="28.6007" y1="53.9929" x2="49.428" y2="48.3908" gradientUnits="userSpaceOnUse">
<stop stop-color="#EBEBEB"/>
<stop offset="0.25" stop-color="#F5F5F5"/>
<stop offset="0.5" stop-color="white"/>
<stop offset="0.75" stop-color="white"/>
<stop offset="1" stop-color="white"/>
</linearGradient>
<linearGradient id="paint42_linear_59_34291" x1="52.6881" y1="48.8526" x2="29.0566" y2="54.3366" gradientUnits="userSpaceOnUse">
<stop stop-color="#F8E66D"/>
<stop offset="0.5" stop-color="#F0D363"/>
<stop offset="1" stop-color="#E9C159"/>
</linearGradient>
<linearGradient id="paint43_linear_59_34291" x1="26.4727" y1="73.0642" x2="36.4566" y2="44.867" gradientUnits="userSpaceOnUse">
<stop stop-color="#E7BC56"/>
<stop offset="0.25" stop-color="#F0D463"/>
<stop offset="0.5" stop-color="#FAEB70"/>
<stop offset="0.75" stop-color="#EDD161"/>
<stop offset="1" stop-color="#E1B753"/>
</linearGradient>
<linearGradient id="paint44_linear_59_34291" x1="35.2864" y1="44.6618" x2="24.831" y2="70.4111" gradientUnits="userSpaceOnUse">
<stop stop-color="#E7BC56"/>
<stop offset="0.25" stop-color="#F0D463"/>
<stop offset="0.5" stop-color="#FAEB70"/>
<stop offset="0.75" stop-color="#EDD161"/>
<stop offset="1" stop-color="#E1B753"/>
</linearGradient>
<linearGradient id="paint45_linear_59_34291" x1="35.8317" y1="45.2151" x2="58.0353" y2="43.2725" gradientUnits="userSpaceOnUse">
<stop stop-color="#F1F1F1"/>
<stop offset="0.25" stop-color="#F8F8F8"/>
<stop offset="0.5" stop-color="white"/>
<stop offset="0.75" stop-color="#F3F3F3"/>
<stop offset="1" stop-color="#E6E6E6"/>
</linearGradient>
<linearGradient id="paint46_linear_59_34291" x1="35.8317" y1="45.2151" x2="58.0353" y2="43.2725" gradientUnits="userSpaceOnUse">
<stop stop-color="#E7BC56"/>
<stop offset="0.25" stop-color="#F0D463"/>
<stop offset="0.5" stop-color="#FAEB70"/>
<stop offset="0.75" stop-color="#EDD161"/>
<stop offset="1" stop-color="#E1B753"/>
</linearGradient>
<linearGradient id="paint47_linear_59_34291" x1="28.1654" y1="63.7329" x2="50.369" y2="61.7903" gradientUnits="userSpaceOnUse">
<stop stop-color="#E7BC56"/>
<stop offset="0.25" stop-color="#F0D463"/>
<stop offset="0.5" stop-color="#FAEB70"/>
<stop offset="0.75" stop-color="#EDD161"/>
<stop offset="1" stop-color="#E1B753"/>
</linearGradient>
<linearGradient id="paint48_linear_59_34291" x1="25.0522" y1="38.8892" x2="32.5565" y2="55.9106" gradientUnits="userSpaceOnUse">
<stop stop-color="#FDFDFD"/>
<stop offset="0.25" stop-color="#FEFEFE"/>
<stop offset="0.5" stop-color="white"/>
<stop offset="0.75" stop-color="#F5F5F5"/>
<stop offset="1" stop-color="#EBEBEB"/>
</linearGradient>
<linearGradient id="paint49_linear_59_34291" x1="36.0197" y1="53.5144" x2="22.703" y2="41.7196" gradientUnits="userSpaceOnUse">
<stop stop-color="#E7BC56"/>
<stop offset="0.25" stop-color="#F0D463"/>
<stop offset="0.5" stop-color="#FAEB70"/>
<stop offset="0.75" stop-color="#EDD161"/>
<stop offset="1" stop-color="#E1B753"/>
</linearGradient>
<linearGradient id="paint50_linear_59_34291" x1="25.4327" y1="47.2782" x2="30.6076" y2="43.8271" gradientUnits="userSpaceOnUse">
<stop stop-color="white"/>
<stop offset="0.25" stop-color="#F6F6F6"/>
<stop offset="0.5" stop-color="#ECECEC"/>
<stop offset="0.75" stop-color="#F6F6F6"/>
<stop offset="1" stop-color="white"/>
</linearGradient>
<linearGradient id="paint51_linear_59_34291" x1="24.473" y1="43.6365" x2="31.219" y2="47.2535" gradientUnits="userSpaceOnUse">
<stop stop-color="#E7BC56"/>
<stop offset="0.25" stop-color="#F0D463"/>
<stop offset="0.5" stop-color="#FAEB70"/>
<stop offset="0.75" stop-color="#EDD161"/>
<stop offset="1" stop-color="#E1B753"/>
</linearGradient>
<linearGradient id="paint52_linear_59_34291" x1="28.5092" y1="48.132" x2="26.727" y2="41.9104" gradientUnits="userSpaceOnUse">
<stop stop-color="#E7BC56"/>
<stop offset="0.25" stop-color="#F0D463"/>
<stop offset="0.5" stop-color="#FAEB70"/>
<stop offset="0.75" stop-color="#EDD161"/>
<stop offset="1" stop-color="#E1B753"/>
</linearGradient>
<radialGradient id="paint53_radial_59_34291" cx="0" cy="0" r="1" gradientUnits="userSpaceOnUse" gradientTransform="translate(32.6599 52.7289) scale(0.921831)">
<stop offset="0.34" stop-color="white"/>
<stop offset="0.67" stop-color="#FCF5B7"/>
<stop offset="1" stop-color="#FAEB6F"/>
</radialGradient>
<linearGradient id="paint54_linear_59_34291" x1="31.5176" y1="54.7906" x2="33.5786" y2="50.8696" gradientUnits="userSpaceOnUse">
<stop stop-color="#E7BC56"/>
<stop offset="0.5" stop-color="#E8BD57"/>
<stop offset="1" stop-color="#E8BF58"/>
</linearGradient>
<radialGradient id="paint55_radial_59_34291" cx="0" cy="0" r="1" gradientUnits="userSpaceOnUse" gradientTransform="translate(61.027 36.223) scale(4.29308)">
<stop stop-color="white"/>
<stop offset="0.5" stop-color="#EBEBEB" stop-opacity="0.5"/>
<stop offset="1" stop-color="#D7D7D7" stop-opacity="0"/>
</radialGradient>
<radialGradient id="paint56_radial_59_34291" cx="0" cy="0" r="1" gradientUnits="userSpaceOnUse" gradientTransform="translate(12.1693 70.3421) rotate(-43.5999) scale(5.64155 12.6879)">
<stop stop-color="white"/>
<stop offset="0.5" stop-color="#EBEBEB" stop-opacity="0.5"/>
<stop offset="1" stop-color="#D7D7D7" stop-opacity="0"/>
</radialGradient>
</defs>
</svg>
