<svg width="110" height="98" viewBox="0 0 110 98" fill="none" xmlns="http://www.w3.org/2000/svg">
<path d="M40.0298 35.5921C45.9967 27.7365 58.2557 25.1003 66.0034 22.3695C65.6896 27.7745 54.3383 33.8078 44.9457 37.1949" fill="#E1E6ED"/>
<path d="M40.0298 35.5921C45.9967 27.7365 58.2557 25.1003 66.0034 22.3695C65.6896 27.7745 54.3383 33.8078 44.9457 37.1949" stroke="#687CA6" stroke-width="1.17521" stroke-linecap="round" stroke-linejoin="round"/>
<path d="M35.7967 30.0432C41.1979 19.6568 58.6108 15.4335 66.2243 8.00421C66.1393 15.9347 58.4515 19.6564 46.2979 26.5646" fill="#E1E6ED"/>
<path d="M35.7967 30.0432C41.1979 19.6568 58.6108 15.4335 66.2243 8.00421C66.1393 15.9347 58.4515 19.6564 46.2979 26.5646" stroke="#687CA6" stroke-width="1.17521" stroke-linecap="round" stroke-linejoin="round"/>
<path d="M26.6392 48.2301C23.0915 18.0091 57.1777 9.5318 64.5561 1C64.3765 14.1231 47.1335 21.3647 42.9109 26.4463C51.3524 18.5088 60.2143 19.3085 66.6003 15.1507C64.6311 24.2699 50.8955 31.2261 43.305 35.648C56.9337 29.2049 60.0674 31.0657 62.5835 30.1835C60.2143 39.0962 37.5428 46.5392 26.6392 48.2301Z" fill="#E1E6ED"/>
<path d="M26.6392 48.2301C23.0915 18.0091 57.1777 9.5318 64.5561 1C64.3765 14.1231 47.1335 21.3647 42.9109 26.4463C51.3524 18.5088 60.2143 19.3085 66.6003 15.1507C64.6311 24.2699 50.8955 31.2261 43.305 35.648C56.9337 29.2049 60.0674 31.0657 62.5835 30.1835C60.2143 39.0962 37.5428 46.5392 26.6392 48.2301Z" stroke="#687CA6" stroke-width="1.17521" stroke-linecap="round" stroke-linejoin="round"/>
<path d="M41.8989 28.5817C49.0256 19.7788 59.2841 20.0726 65.4144 16.5952C59.5045 21.9579 50.5925 21.7375 41.8989 28.5817Z" fill="white"/>
<path d="M28.719 33.6844C34.8984 16.3266 56.248 9.32436 63.3123 2.92517C57.3742 10.4016 40.0889 16.7184 28.719 33.6844Z" fill="white"/>
<path d="M26.8886 51.1084C23.0559 51.1084 23.0763 45.317 26.8886 45.317C30.703 45.317 30.7128 51.1084 26.8886 51.1084Z" fill="#E8CE75"/>
<path d="M26.8886 51.1084C23.0559 51.1084 23.0763 45.317 26.8886 45.317C30.703 45.317 30.7128 51.1084 26.8886 51.1084Z" stroke="#B88414" stroke-width="1.17521" stroke-linecap="round" stroke-linejoin="round"/>
<path d="M24.9186 48.2223C24.9186 47.1483 25.7892 46.2777 26.8632 46.2777" stroke="white" stroke-width="1.17521" stroke-linecap="round" stroke-linejoin="round"/>
<path d="M108.203 73.3924C99.3263 73.4658 82.8203 77.1337 54.6014 87.4773C30.6704 96.2492 1.30534 96.2956 1.19705 82.4277C1.18804 81.2651 1.0748 80.8113 1.07097 80.3191C0.911349 59.9928 32.8193 53.1716 54.6014 53.1716C77.0563 53.1716 92.5718 61.1763 101.573 67.7953C104.439 69.9023 106.644 71.8689 108.203 73.3924Z" fill="url(#paint0_linear_59_33094)"/>
<path d="M108.203 73.3924C99.3263 73.4658 82.8203 77.1337 54.6014 87.4773C30.6704 96.2492 1.30534 96.2956 1.19705 82.4277C1.18804 81.2651 1.0748 80.8113 1.07097 80.3191C0.911349 59.9928 32.8193 53.1716 54.6014 53.1716C77.0563 53.1716 92.5718 61.1763 101.573 67.7953C104.439 69.9023 106.644 71.8689 108.203 73.3924Z" stroke="#B3CFE1" stroke-width="1.35081" stroke-linecap="round" stroke-linejoin="round"/>
<path d="M16.2099 19.1852C16.2099 19.1852 23.3746 52.397 16.2099 81.4187C16.2099 94.3338 92.9927 85.1967 92.9927 72.2834C87.931 49.658 92.9927 19.1852 92.9927 19.1852C92.9927 11.0131 16.2099 11.0365 16.2099 19.1852Z" fill="url(#paint1_linear_59_33094)"/>
<path d="M16.2099 19.1852C16.2099 19.1852 23.3746 52.397 16.2099 81.4187C16.2099 94.3338 92.9927 85.1967 92.9927 72.2834C87.931 49.658 92.9927 19.1852 92.9927 19.1852C92.9927 11.0131 16.2099 11.0365 16.2099 19.1852Z" stroke="url(#paint2_linear_59_33094)" stroke-width="1.35081" stroke-linecap="round" stroke-linejoin="round"/>
<path d="M19.1238 61.5803C18.4351 72.292 16.2099 79.8621 16.2099 81.5313C16.2099 94.4464 92.9927 85.3093 92.9927 72.396C92.9927 70.7268 91.5534 64.1074 90.9723 55.9399C85.0547 72.7289 20.7745 76.4783 19.1238 61.5803Z" fill="url(#paint3_linear_59_33094)"/>
<path d="M19.1238 61.5803C18.4351 72.292 16.2099 79.8621 16.2099 81.5313C16.2099 94.4464 92.9927 85.3093 92.9927 72.396C92.9927 70.7268 91.5534 64.1074 90.9723 55.9399C85.0547 72.7289 20.7745 76.4783 19.1238 61.5803Z" stroke="url(#paint4_linear_59_33094)" stroke-width="1.35081" stroke-linecap="round" stroke-linejoin="round"/>
<path d="M58.4374 70.139C58.2103 77.7035 59.2213 84.9067 59.2213 86.0855C67.1011 84.8703 76.9226 82.7031 81.3033 80.957C80.8343 78.5944 79.5342 71.1075 79.3426 65.3398C75.6281 66.9157 66.5664 69.4204 58.4374 70.139Z" stroke="url(#paint5_linear_59_33094)" stroke-width="1.35081" stroke-linecap="round" stroke-linejoin="round"/>
<path d="M91.9026 21.7122C90.301 33.6605 88.3221 54.0988 92.2835 72.2919C91.9168 73.9791 90.1317 76.2779 87.6284 77.2071C84.6481 63.0985 83.447 39.7991 85.8679 23.7334C89.9543 22.9268 91.9026 21.7122 91.9026 21.7122Z" fill="url(#paint6_linear_59_33094)"/>
<path d="M18.2154 23.459C21.3455 42.7769 22.1769 61.7529 17.384 81.511" stroke="url(#paint7_linear_59_33094)" stroke-opacity="0.66" stroke-width="1.35081" stroke-linecap="round" stroke-linejoin="round"/>
<path d="M92.9927 19.1869C92.9927 27.3591 16.2099 27.3357 16.2099 19.1869C16.2099 11.0148 92.9927 11.0382 92.9927 19.1869Z" fill="url(#paint8_linear_59_33094)"/>
<path d="M92.9927 19.1869C92.9927 27.3591 16.2099 27.3357 16.2099 19.1869C16.2099 11.0148 92.9927 11.0382 92.9927 19.1869Z" stroke="url(#paint9_linear_59_33094)" stroke-width="1.35081" stroke-linecap="round" stroke-linejoin="round"/>
<path d="M108.203 73.3926C98.9592 73.0747 82.8787 76.7082 54.6013 86.8906C23.0752 98.2428 2.39966 92.897 1.0761 81.361C1.03107 80.9695 1.00856 80.571 1.00856 80.1656C1.00856 81.022 1 82.7245 1 82.9293C1 83.2153 1.01058 83.4967 1.0313 83.7736C2.11577 98.1933 31.1211 100.315 54.6013 91.7085C82.8202 81.3649 99.3262 77.6967 108.203 77.6234C109.065 76.9687 109.45 74.5665 108.203 73.3926Z" fill="url(#paint10_linear_59_33094)"/>
<path d="M108.203 73.3926C98.9592 73.0747 82.8787 76.7082 54.6013 86.8906C23.0752 98.2428 2.39966 92.897 1.0761 81.361C1.03107 80.9695 1.00856 80.571 1.00856 80.1656C1.00856 81.022 1 82.7245 1 82.9293C1 83.2153 1.01058 83.4967 1.0313 83.7736C2.11577 98.1933 31.1211 100.315 54.6013 91.7085C82.8202 81.3649 99.3262 77.6967 108.203 77.6234C109.065 76.9687 109.45 74.5665 108.203 73.3926Z" stroke="#627D91" stroke-width="1.35081" stroke-linecap="round" stroke-linejoin="round"/>
<path d="M108.203 73.3926C98.9593 73.0747 82.8788 76.7082 54.6014 86.8906C23.0752 98.2428 2.39971 92.897 1.07614 81.361C1.03112 80.9695 1.00861 80.571 1.00861 80.1656" stroke="url(#paint11_radial_59_33094)" stroke-width="1.35081" stroke-linecap="round" stroke-linejoin="round"/>
<path d="M108.203 74.9026C98.9593 74.5847 82.8788 78.2183 54.6014 88.4008C22.8003 99.852 2.03973 94.3124 1.04598 82.5677C1.02121 82.2742 1.00861 81.9768 1.00861 81.6755" stroke="url(#paint12_linear_59_33094)" stroke-width="2.02622" stroke-linecap="round" stroke-linejoin="round"/>
<path d="M72.6051 49.0422C79.4636 40.0127 93.5544 36.9826 102.46 33.8438C102.099 40.0564 89.0517 46.9912 78.2555 50.8845" fill="#E1E6ED"/>
<path d="M72.6051 49.0422C79.4636 40.0127 93.5544 36.9826 102.46 33.8438C102.099 40.0564 89.0517 46.9912 78.2555 50.8845" stroke="#687CA6" stroke-width="1.35081" stroke-linecap="round" stroke-linejoin="round"/>
<path d="M67.7395 42.6641C73.9478 30.7257 93.9626 25.8713 102.714 17.3319C102.616 26.4474 93.7795 30.7252 79.8099 38.6657" fill="#E1E6ED"/>
<path d="M67.7395 42.6641C73.9478 30.7257 93.9626 25.8713 102.714 17.3319C102.616 26.4474 93.7795 30.7252 79.8099 38.6657" stroke="#687CA6" stroke-width="1.35081" stroke-linecap="round" stroke-linejoin="round"/>
<path d="M57.2137 63.5686C53.1359 28.8318 92.3155 19.0877 100.796 9.28107C100.59 24.3651 80.7703 32.6888 75.9168 38.5297C85.6197 29.4061 95.8057 30.3254 103.146 25.5462C100.883 36.028 85.0945 44.0237 76.3698 49.1064C92.035 41.7005 95.6369 43.8393 98.529 42.8253C95.8057 53.0699 69.7466 61.625 57.2137 63.5686Z" fill="#E1E6ED"/>
<path d="M57.2137 63.5686C53.1359 28.8318 92.3155 19.0877 100.796 9.28107C100.59 24.3651 80.7703 32.6888 75.9168 38.5297C85.6197 29.4061 95.8057 30.3254 103.146 25.5462C100.883 36.028 85.0945 44.0237 76.3698 49.1064C92.035 41.7005 95.6369 43.8393 98.529 42.8253C95.8057 53.0699 69.7466 61.625 57.2137 63.5686Z" stroke="#687CA6" stroke-width="1.35081" stroke-linecap="round" stroke-linejoin="round"/>
<path d="M74.7536 40.9841C82.9451 30.8659 94.7366 31.2036 101.783 27.2065C94.9899 33.3705 84.7462 33.1172 74.7536 40.9841Z" fill="white"/>
<path d="M59.6042 46.8494C66.707 26.8979 91.2468 18.8493 99.3667 11.494C92.5413 20.0876 72.6731 27.3482 59.6042 46.8494Z" fill="white"/>
<path d="M57.5004 66.877C53.0949 66.877 53.1184 60.2202 57.5004 60.2202C61.8847 60.2202 61.8959 66.877 57.5004 66.877Z" fill="#E8CE75"/>
<path d="M57.5004 66.877C53.0949 66.877 53.1184 60.2202 57.5004 60.2202C61.8847 60.2202 61.8959 66.877 57.5004 66.877Z" stroke="#B88414" stroke-width="1.35081" stroke-linecap="round" stroke-linejoin="round"/>
<path d="M55.236 63.5595C55.236 62.3251 56.2367 61.3244 57.4712 61.3244" stroke="white" stroke-width="1.35081" stroke-linecap="round" stroke-linejoin="round"/>
<defs>
<linearGradient id="paint0_linear_59_33094" x1="40.8166" y1="52.0568" x2="61.0116" y2="90.6274" gradientUnits="userSpaceOnUse">
<stop stop-color="#83A3BB"/>
<stop offset="0.15" stop-color="#A2B5C9"/>
<stop offset="0.3" stop-color="#C1C7D7"/>
<stop offset="0.65" stop-color="#E0E3EB"/>
<stop offset="1" stop-color="white"/>
</linearGradient>
<linearGradient id="paint1_linear_59_33094" x1="16.0516" y1="50.1431" x2="92.8347" y2="50.1431" gradientUnits="userSpaceOnUse">
<stop stop-color="#E6F1FF"/>
<stop offset="0.13" stop-color="#F3F8FF"/>
<stop offset="0.25" stop-color="white"/>
<stop offset="0.38" stop-color="#DBDFE6"/>
<stop offset="0.5" stop-color="#B7C0CE"/>
<stop offset="0.6" stop-color="#92A4B5"/>
<stop offset="0.7" stop-color="#6D889C"/>
<stop offset="0.85" stop-color="#96A1BC"/>
<stop offset="1" stop-color="#BFBBDC"/>
</linearGradient>
<linearGradient id="paint2_linear_59_33094" x1="54.6013" y1="50.3638" x2="77.1148" y2="50.3638" gradientUnits="userSpaceOnUse">
<stop stop-color="#A3B9D1"/>
<stop offset="0.08" stop-color="#7C92B0"/>
<stop offset="0.15" stop-color="#566B8F"/>
<stop offset="0.57" stop-color="#5A7492"/>
<stop offset="1" stop-color="#5F7D94"/>
</linearGradient>
<linearGradient id="paint3_linear_59_33094" x1="16.0516" y1="71.6436" x2="91.7157" y2="71.6436" gradientUnits="userSpaceOnUse">
<stop stop-color="#9B6E09"/>
<stop offset="0.05" stop-color="#B7922E"/>
<stop offset="0.11" stop-color="#D2B553"/>
<stop offset="0.19" stop-color="#E8D681"/>
<stop offset="0.28" stop-color="#FEF8AE"/>
<stop offset="0.32" stop-color="#DEBC5C"/>
<stop offset="0.36" stop-color="#BD7F0A"/>
<stop offset="0.46" stop-color="#8F5805"/>
<stop offset="0.55" stop-color="#613100"/>
<stop offset="0.61" stop-color="#6D3C01"/>
<stop offset="0.66" stop-color="#7A4801"/>
<stop offset="0.71" stop-color="#A07103"/>
<stop offset="0.77" stop-color="#C79A04"/>
<stop offset="0.85" stop-color="#BC8C03"/>
<stop offset="0.92" stop-color="#B17E01"/>
<stop offset="0.96" stop-color="#C59B32"/>
<stop offset="1" stop-color="#D9B763"/>
</linearGradient>
<linearGradient id="paint4_linear_59_33094" x1="15.3762" y1="71.6436" x2="93.5101" y2="71.6436" gradientUnits="userSpaceOnUse">
<stop stop-color="#935502"/>
<stop offset="0.28" stop-color="#AB730E"/>
<stop offset="0.55" stop-color="#C29119"/>
<stop offset="0.73" stop-color="#A7740F"/>
<stop offset="0.9" stop-color="#8C5605"/>
<stop offset="0.95" stop-color="#B6863D"/>
<stop offset="1" stop-color="#DFB576"/>
</linearGradient>
<linearGradient id="paint5_linear_59_33094" x1="15.3763" y1="71.6436" x2="93.5101" y2="71.6436" gradientUnits="userSpaceOnUse">
<stop stop-color="#935502"/>
<stop offset="0.28" stop-color="#AB730E"/>
<stop offset="0.55" stop-color="#C29119"/>
<stop offset="0.73" stop-color="#A7740F"/>
<stop offset="0.9" stop-color="#8C5605"/>
<stop offset="0.95" stop-color="#B6863D"/>
<stop offset="1" stop-color="#DFB576"/>
</linearGradient>
<linearGradient id="paint6_linear_59_33094" x1="78.189" y1="27.517" x2="100.568" y2="70.2599" gradientUnits="userSpaceOnUse">
<stop stop-color="white" stop-opacity="0.3"/>
<stop offset="0.5" stop-color="white" stop-opacity="0.15"/>
<stop offset="1" stop-color="white" stop-opacity="0"/>
</linearGradient>
<linearGradient id="paint7_linear_59_33094" x1="5.47027" y1="29.093" x2="29.7732" y2="75.5096" gradientUnits="userSpaceOnUse">
<stop stop-color="white" stop-opacity="0"/>
<stop offset="0.15" stop-color="white" stop-opacity="0.5"/>
<stop offset="0.3" stop-color="white"/>
<stop offset="0.5" stop-color="white"/>
<stop offset="0.7" stop-color="white"/>
<stop offset="0.85" stop-color="white" stop-opacity="0.5"/>
<stop offset="1" stop-color="white" stop-opacity="0"/>
</linearGradient>
<linearGradient id="paint8_linear_59_33094" x1="32.2614" y1="13.4478" x2="67.7674" y2="22.3976" gradientUnits="userSpaceOnUse">
<stop stop-color="white"/>
<stop offset="0.5" stop-color="white"/>
<stop offset="1" stop-color="white"/>
</linearGradient>
<linearGradient id="paint9_linear_59_33094" x1="25.057" y1="1.96591" x2="84.1271" y2="36.0701" gradientUnits="userSpaceOnUse">
<stop stop-color="#D1E2F5"/>
<stop offset="0.35" stop-color="#9BB1D2"/>
<stop offset="0.7" stop-color="#6681AF"/>
<stop offset="0.85" stop-color="#6A799F"/>
<stop offset="1" stop-color="#6D718F"/>
</linearGradient>
<linearGradient id="paint10_linear_59_33094" x1="0.967581" y1="84.9265" x2="108.968" y2="84.9265" gradientUnits="userSpaceOnUse">
<stop stop-color="white"/>
<stop offset="0.25" stop-color="#C6D0D8"/>
<stop offset="0.5" stop-color="#8DA0B1"/>
<stop offset="0.6" stop-color="#7D94A7"/>
<stop offset="0.7" stop-color="#6E889C"/>
<stop offset="0.85" stop-color="#95A3B9"/>
<stop offset="1" stop-color="#BCBED6"/>
</linearGradient>
<radialGradient id="paint11_radial_59_33094" cx="0" cy="0" r="1" gradientUnits="userSpaceOnUse" gradientTransform="translate(62.0934 84.4062) scale(33.6416)">
<stop stop-color="white"/>
<stop offset="0.5" stop-color="white" stop-opacity="0.5"/>
<stop offset="1" stop-color="white" stop-opacity="0"/>
</radialGradient>
<linearGradient id="paint12_linear_59_33094" x1="4.26631" y1="83.6074" x2="92.5137" y2="82.6938" gradientUnits="userSpaceOnUse">
<stop stop-color="white" stop-opacity="0"/>
<stop offset="0.35" stop-color="white" stop-opacity="0.3"/>
<stop offset="0.7" stop-color="white" stop-opacity="0.6"/>
<stop offset="0.85" stop-color="white" stop-opacity="0.3"/>
<stop offset="1" stop-color="white" stop-opacity="0"/>
</linearGradient>
</defs>
</svg>
